<?xml version="1.0" encoding="utf-8"?>
<svg xmlns="http://www.w3.org/2000/svg" xmlns:xlink="http://www.w3.org/1999/xlink" width="600" height="400" viewBox="0 0 2400 1600">
<defs>
  <clipPath id="clip420">
    <rect x="0" y="0" width="2400" height="1600"/>
  </clipPath>
</defs>
<path clip-path="url(#clip420)" d="M0 1600 L2400 1600 L2400 0 L0 0  Z" fill="#ffffff" fill-rule="evenodd" fill-opacity="1"/>
<defs>
  <clipPath id="clip421">
    <rect x="250" y="123" width="2104" height="1311"/>
  </clipPath>
</defs>
<path clip-path="url(#clip420)" d="M250.028 1433.36 L2352.76 1433.36 L2352.76 123.472 L250.028 123.472  Z" fill="#ffffff" fill-rule="evenodd" fill-opacity="1"/>
<polyline clip-path="url(#clip421)" style="stroke:#000000; stroke-linecap:round; stroke-linejoin:round; stroke-width:2; stroke-opacity:0.1; fill:none" points="403.488,1433.36 403.488,123.472 "/>
<polyline clip-path="url(#clip421)" style="stroke:#000000; stroke-linecap:round; stroke-linejoin:round; stroke-width:2; stroke-opacity:0.1; fill:none" points="498.005,1433.36 498.005,123.472 "/>
<polyline clip-path="url(#clip421)" style="stroke:#000000; stroke-linecap:round; stroke-linejoin:round; stroke-width:2; stroke-opacity:0.1; fill:none" points="592.521,1433.36 592.521,123.472 "/>
<polyline clip-path="url(#clip421)" style="stroke:#000000; stroke-linecap:round; stroke-linejoin:round; stroke-width:2; stroke-opacity:0.1; fill:none" points="687.037,1433.36 687.037,123.472 "/>
<polyline clip-path="url(#clip421)" style="stroke:#000000; stroke-linecap:round; stroke-linejoin:round; stroke-width:2; stroke-opacity:0.1; fill:none" points="781.553,1433.36 781.553,123.472 "/>
<polyline clip-path="url(#clip421)" style="stroke:#000000; stroke-linecap:round; stroke-linejoin:round; stroke-width:2; stroke-opacity:0.1; fill:none" points="876.069,1433.36 876.069,123.472 "/>
<polyline clip-path="url(#clip421)" style="stroke:#000000; stroke-linecap:round; stroke-linejoin:round; stroke-width:2; stroke-opacity:0.1; fill:none" points="970.585,1433.36 970.585,123.472 "/>
<polyline clip-path="url(#clip421)" style="stroke:#000000; stroke-linecap:round; stroke-linejoin:round; stroke-width:2; stroke-opacity:0.1; fill:none" points="1065.1,1433.36 1065.1,123.472 "/>
<polyline clip-path="url(#clip421)" style="stroke:#000000; stroke-linecap:round; stroke-linejoin:round; stroke-width:2; stroke-opacity:0.1; fill:none" points="1159.62,1433.36 1159.62,123.472 "/>
<polyline clip-path="url(#clip421)" style="stroke:#000000; stroke-linecap:round; stroke-linejoin:round; stroke-width:2; stroke-opacity:0.1; fill:none" points="1254.13,1433.36 1254.13,123.472 "/>
<polyline clip-path="url(#clip421)" style="stroke:#000000; stroke-linecap:round; stroke-linejoin:round; stroke-width:2; stroke-opacity:0.1; fill:none" points="1348.65,1433.36 1348.65,123.472 "/>
<polyline clip-path="url(#clip421)" style="stroke:#000000; stroke-linecap:round; stroke-linejoin:round; stroke-width:2; stroke-opacity:0.1; fill:none" points="1443.17,1433.36 1443.17,123.472 "/>
<polyline clip-path="url(#clip421)" style="stroke:#000000; stroke-linecap:round; stroke-linejoin:round; stroke-width:2; stroke-opacity:0.1; fill:none" points="1537.68,1433.36 1537.68,123.472 "/>
<polyline clip-path="url(#clip421)" style="stroke:#000000; stroke-linecap:round; stroke-linejoin:round; stroke-width:2; stroke-opacity:0.1; fill:none" points="1632.2,1433.36 1632.2,123.472 "/>
<polyline clip-path="url(#clip421)" style="stroke:#000000; stroke-linecap:round; stroke-linejoin:round; stroke-width:2; stroke-opacity:0.1; fill:none" points="1726.71,1433.36 1726.71,123.472 "/>
<polyline clip-path="url(#clip421)" style="stroke:#000000; stroke-linecap:round; stroke-linejoin:round; stroke-width:2; stroke-opacity:0.1; fill:none" points="1821.23,1433.36 1821.23,123.472 "/>
<polyline clip-path="url(#clip421)" style="stroke:#000000; stroke-linecap:round; stroke-linejoin:round; stroke-width:2; stroke-opacity:0.1; fill:none" points="1915.75,1433.36 1915.75,123.472 "/>
<polyline clip-path="url(#clip421)" style="stroke:#000000; stroke-linecap:round; stroke-linejoin:round; stroke-width:2; stroke-opacity:0.1; fill:none" points="2010.26,1433.36 2010.26,123.472 "/>
<polyline clip-path="url(#clip421)" style="stroke:#000000; stroke-linecap:round; stroke-linejoin:round; stroke-width:2; stroke-opacity:0.1; fill:none" points="2104.78,1433.36 2104.78,123.472 "/>
<polyline clip-path="url(#clip421)" style="stroke:#000000; stroke-linecap:round; stroke-linejoin:round; stroke-width:2; stroke-opacity:0.1; fill:none" points="2199.3,1433.36 2199.3,123.472 "/>
<polyline clip-path="url(#clip421)" style="stroke:#000000; stroke-linecap:round; stroke-linejoin:round; stroke-width:2; stroke-opacity:0.1; fill:none" points="250.028,1433.36 2352.76,1433.36 "/>
<polyline clip-path="url(#clip421)" style="stroke:#000000; stroke-linecap:round; stroke-linejoin:round; stroke-width:2; stroke-opacity:0.1; fill:none" points="250.028,1143.76 2352.76,1143.76 "/>
<polyline clip-path="url(#clip421)" style="stroke:#000000; stroke-linecap:round; stroke-linejoin:round; stroke-width:2; stroke-opacity:0.1; fill:none" points="250.028,854.151 2352.76,854.151 "/>
<polyline clip-path="url(#clip421)" style="stroke:#000000; stroke-linecap:round; stroke-linejoin:round; stroke-width:2; stroke-opacity:0.1; fill:none" points="250.028,564.545 2352.76,564.545 "/>
<polyline clip-path="url(#clip421)" style="stroke:#000000; stroke-linecap:round; stroke-linejoin:round; stroke-width:2; stroke-opacity:0.1; fill:none" points="250.028,274.939 2352.76,274.939 "/>
<polyline clip-path="url(#clip420)" style="stroke:#000000; stroke-linecap:round; stroke-linejoin:round; stroke-width:4; stroke-opacity:1; fill:none" points="250.028,1433.36 2352.76,1433.36 "/>
<polyline clip-path="url(#clip420)" style="stroke:#000000; stroke-linecap:round; stroke-linejoin:round; stroke-width:4; stroke-opacity:1; fill:none" points="403.488,1433.36 403.488,1414.47 "/>
<polyline clip-path="url(#clip420)" style="stroke:#000000; stroke-linecap:round; stroke-linejoin:round; stroke-width:4; stroke-opacity:1; fill:none" points="498.005,1433.36 498.005,1414.47 "/>
<polyline clip-path="url(#clip420)" style="stroke:#000000; stroke-linecap:round; stroke-linejoin:round; stroke-width:4; stroke-opacity:1; fill:none" points="592.521,1433.36 592.521,1414.47 "/>
<polyline clip-path="url(#clip420)" style="stroke:#000000; stroke-linecap:round; stroke-linejoin:round; stroke-width:4; stroke-opacity:1; fill:none" points="687.037,1433.36 687.037,1414.47 "/>
<polyline clip-path="url(#clip420)" style="stroke:#000000; stroke-linecap:round; stroke-linejoin:round; stroke-width:4; stroke-opacity:1; fill:none" points="781.553,1433.36 781.553,1414.47 "/>
<polyline clip-path="url(#clip420)" style="stroke:#000000; stroke-linecap:round; stroke-linejoin:round; stroke-width:4; stroke-opacity:1; fill:none" points="876.069,1433.36 876.069,1414.47 "/>
<polyline clip-path="url(#clip420)" style="stroke:#000000; stroke-linecap:round; stroke-linejoin:round; stroke-width:4; stroke-opacity:1; fill:none" points="970.585,1433.36 970.585,1414.47 "/>
<polyline clip-path="url(#clip420)" style="stroke:#000000; stroke-linecap:round; stroke-linejoin:round; stroke-width:4; stroke-opacity:1; fill:none" points="1065.1,1433.36 1065.1,1414.47 "/>
<polyline clip-path="url(#clip420)" style="stroke:#000000; stroke-linecap:round; stroke-linejoin:round; stroke-width:4; stroke-opacity:1; fill:none" points="1159.62,1433.36 1159.62,1414.47 "/>
<polyline clip-path="url(#clip420)" style="stroke:#000000; stroke-linecap:round; stroke-linejoin:round; stroke-width:4; stroke-opacity:1; fill:none" points="1254.13,1433.36 1254.13,1414.47 "/>
<polyline clip-path="url(#clip420)" style="stroke:#000000; stroke-linecap:round; stroke-linejoin:round; stroke-width:4; stroke-opacity:1; fill:none" points="1348.65,1433.36 1348.65,1414.47 "/>
<polyline clip-path="url(#clip420)" style="stroke:#000000; stroke-linecap:round; stroke-linejoin:round; stroke-width:4; stroke-opacity:1; fill:none" points="1443.17,1433.36 1443.17,1414.47 "/>
<polyline clip-path="url(#clip420)" style="stroke:#000000; stroke-linecap:round; stroke-linejoin:round; stroke-width:4; stroke-opacity:1; fill:none" points="1537.68,1433.36 1537.68,1414.47 "/>
<polyline clip-path="url(#clip420)" style="stroke:#000000; stroke-linecap:round; stroke-linejoin:round; stroke-width:4; stroke-opacity:1; fill:none" points="1632.2,1433.36 1632.2,1414.47 "/>
<polyline clip-path="url(#clip420)" style="stroke:#000000; stroke-linecap:round; stroke-linejoin:round; stroke-width:4; stroke-opacity:1; fill:none" points="1726.71,1433.36 1726.71,1414.47 "/>
<polyline clip-path="url(#clip420)" style="stroke:#000000; stroke-linecap:round; stroke-linejoin:round; stroke-width:4; stroke-opacity:1; fill:none" points="1821.23,1433.36 1821.23,1414.47 "/>
<polyline clip-path="url(#clip420)" style="stroke:#000000; stroke-linecap:round; stroke-linejoin:round; stroke-width:4; stroke-opacity:1; fill:none" points="1915.75,1433.36 1915.75,1414.47 "/>
<polyline clip-path="url(#clip420)" style="stroke:#000000; stroke-linecap:round; stroke-linejoin:round; stroke-width:4; stroke-opacity:1; fill:none" points="2010.26,1433.36 2010.26,1414.47 "/>
<polyline clip-path="url(#clip420)" style="stroke:#000000; stroke-linecap:round; stroke-linejoin:round; stroke-width:4; stroke-opacity:1; fill:none" points="2104.78,1433.36 2104.78,1414.47 "/>
<polyline clip-path="url(#clip420)" style="stroke:#000000; stroke-linecap:round; stroke-linejoin:round; stroke-width:4; stroke-opacity:1; fill:none" points="2199.3,1433.36 2199.3,1414.47 "/>
<path clip-path="url(#clip420)" d="M361.463 1503.75 L363.801 1499.7 L391.646 1515.78 Q397.059 1518.9 398.313 1522.38 Q399.578 1525.84 396.95 1530.39 L396.059 1531.93 L392.651 1529.97 L393.38 1528.7 Q394.931 1526.02 394.064 1524.05 Q393.197 1522.07 389.308 1519.83 L361.463 1503.75 Z" fill="#000000" fill-rule="nonzero" fill-opacity="1" /><path clip-path="url(#clip420)" d="M368.454 1491.64 L371.602 1486.19 L404.303 1487.38 L379.264 1472.92 L381.533 1468.99 L411.463 1486.27 L408.314 1491.72 L375.614 1490.54 L400.652 1505 L398.384 1508.92 L368.454 1491.64 Z" fill="#000000" fill-rule="nonzero" fill-opacity="1" /><path clip-path="url(#clip420)" d="M386.186 1460.93 L388.523 1456.88 L416.368 1472.96 Q421.781 1476.08 423.035 1479.56 Q424.3 1483.02 421.673 1487.57 L420.781 1489.11 L417.373 1487.15 L418.103 1485.88 Q419.653 1483.2 418.786 1481.23 Q417.92 1479.25 414.03 1477.01 L386.186 1460.93 Z" fill="#000000" fill-rule="nonzero" fill-opacity="1" /><path clip-path="url(#clip420)" d="M425.389 1556.74 L427.751 1552.65 L456.684 1560.96 L435.007 1540.08 L437.635 1535.53 L466.568 1543.84 L444.892 1522.96 L447.264 1518.85 L472.854 1543.65 L469.914 1548.74 L440.288 1540.05 L462.588 1561.43 L459.648 1566.52 L425.389 1556.74 Z" fill="#000000" fill-rule="nonzero" fill-opacity="1" /><path clip-path="url(#clip420)" d="M450.366 1513.48 L453.85 1507.44 L478.627 1511.56 L462.693 1492.13 L466.176 1486.09 L496.106 1503.37 L493.826 1507.32 L467.545 1492.15 L483.617 1511.72 L481.267 1515.79 L456.283 1511.65 L482.565 1526.83 L480.296 1530.76 L450.366 1513.48 Z" fill="#000000" fill-rule="nonzero" fill-opacity="1" /><path clip-path="url(#clip420)" d="M468.422 1482.2 L483.04 1456.88 L486.448 1458.85 L480.313 1469.48 L506.835 1484.79 L504.486 1488.86 L477.964 1473.55 L471.83 1484.17 L468.422 1482.2 Z" fill="#000000" fill-rule="nonzero" fill-opacity="1" /><path clip-path="url(#clip420)" d="M542.793 1524.78 L554.04 1531.27 L556.98 1526.18 Q558.611 1523.35 558.039 1520.96 Q557.467 1518.58 554.761 1517.01 Q552.074 1515.46 549.72 1516.16 Q547.365 1516.86 545.733 1519.69 L542.793 1524.78 M537.128 1526.91 L542.406 1517.77 Q545.311 1512.73 549.077 1511.49 Q552.836 1510.21 557.226 1512.74 Q561.656 1515.3 562.429 1519.2 Q563.212 1523.07 560.307 1528.1 L557.368 1533.19 L569.396 1540.14 L567.058 1544.19 L537.128 1526.91 Z" fill="#000000" fill-rule="nonzero" fill-opacity="1" /><path clip-path="url(#clip420)" d="M551.422 1502.15 L562.348 1483.23 L565.756 1485.19 L557.168 1500.07 L566.028 1505.18 L574.257 1490.93 L577.665 1492.9 L569.436 1507.15 L580.282 1513.41 L589.078 1498.18 L592.486 1500.14 L581.352 1519.43 L551.422 1502.15 Z" fill="#000000" fill-rule="nonzero" fill-opacity="1" /><path clip-path="url(#clip420)" d="M572.064 1474.08 L583.31 1480.57 L586.25 1475.48 Q587.882 1472.66 587.31 1470.27 Q586.738 1467.88 584.031 1466.32 Q581.345 1464.76 578.991 1465.46 Q576.636 1466.16 575.004 1468.99 L572.064 1474.08 M566.398 1476.21 L571.676 1467.07 Q574.581 1462.04 578.348 1460.79 Q582.106 1459.51 586.497 1462.05 Q590.927 1464.6 591.699 1468.5 Q592.483 1472.37 589.578 1477.4 L586.638 1482.49 L598.666 1489.44 L596.328 1493.49 L566.398 1476.21 Z" fill="#000000" fill-rule="nonzero" fill-opacity="1" /><path clip-path="url(#clip420)" d="M649.347 1503.93 L660.593 1510.42 L663.533 1505.33 Q665.165 1502.5 664.592 1500.12 Q664.02 1497.73 661.314 1496.17 Q658.628 1494.61 656.273 1495.31 Q653.918 1496.01 652.286 1498.84 L649.347 1503.93 M643.681 1506.06 L648.959 1496.92 Q651.864 1491.89 655.631 1490.64 Q659.389 1489.36 663.779 1491.9 Q668.209 1494.45 668.982 1498.35 Q669.766 1502.22 666.86 1507.25 L663.921 1512.34 L675.949 1519.29 L673.611 1523.34 L643.681 1506.06 Z" fill="#000000" fill-rule="nonzero" fill-opacity="1" /><path clip-path="url(#clip420)" d="M695.417 1475.71 L687.378 1471.07 L683.559 1477.68 L680.231 1475.76 L686.365 1465.14 L699.215 1472.55 Q699.525 1475.86 698.755 1479.19 Q697.965 1482.5 696.113 1485.71 Q692.062 1492.72 685.681 1494.33 Q679.292 1495.91 671.974 1491.68 Q664.637 1487.45 662.828 1481.14 Q661.01 1474.79 665.061 1467.78 Q666.751 1464.85 668.989 1462.64 Q671.238 1460.41 673.926 1459 L678.236 1461.48 Q675.035 1462.63 672.615 1464.6 Q670.194 1466.57 668.585 1469.36 Q665.414 1474.85 666.884 1479.39 Q668.366 1483.91 674.44 1487.41 Q680.494 1490.91 685.147 1489.93 Q689.811 1488.94 692.982 1483.44 Q694.221 1481.3 694.832 1479.41 Q695.423 1477.5 695.417 1475.71 Z" fill="#000000" fill-rule="nonzero" fill-opacity="1" /><path clip-path="url(#clip420)" d="M715.952 1544.59 L719.436 1538.55 L744.213 1542.68 L728.278 1523.24 L731.762 1517.2 L761.692 1534.48 L759.412 1538.43 L733.13 1523.26 L749.202 1542.83 L746.853 1546.9 L721.869 1542.77 L748.15 1557.94 L745.882 1561.87 L715.952 1544.59 Z" fill="#000000" fill-rule="nonzero" fill-opacity="1" /><path clip-path="url(#clip420)" d="M760.495 1504.15 Q761.688 1503.1 763.837 1502.71 Q765.998 1502.3 769.242 1502.52 L779.794 1503.13 L777.282 1507.48 L767.393 1506.88 Q763.53 1506.62 761.737 1507.46 Q759.957 1508.28 758.568 1510.68 L756.021 1515.09 L768.671 1522.4 L766.333 1526.45 L736.403 1509.17 L741.681 1500.02 Q744.644 1494.89 748.247 1493.6 Q751.85 1492.32 756.181 1494.82 Q759.007 1496.45 760.108 1498.85 Q761.22 1501.23 760.495 1504.15 M742.069 1507.04 L752.694 1513.17 L755.633 1508.08 Q757.323 1505.15 756.837 1502.89 Q756.341 1500.6 753.715 1499.09 Q751.089 1497.57 748.898 1498.31 Q746.698 1499.02 745.009 1501.95 L742.069 1507.04 Z" fill="#000000" fill-rule="nonzero" fill-opacity="1" /><path clip-path="url(#clip420)" d="M752.873 1480.64 L755.211 1476.59 L767.86 1483.89 L762.965 1463.16 L765.975 1457.95 L771.351 1480.86 L796.518 1474.16 L793.439 1479.5 L770.727 1485.55 L785.141 1493.87 L782.803 1497.92 L752.873 1480.64 Z" fill="#000000" fill-rule="nonzero" fill-opacity="1" /><path clip-path="url(#clip420)" d="M831.857 1507.54 L834.195 1503.49 L846.844 1510.8 L841.949 1490.06 L844.959 1484.85 L850.335 1507.76 L875.502 1501.07 L872.423 1506.4 L849.711 1512.45 L864.125 1520.77 L861.787 1524.82 L831.857 1507.54 Z" fill="#000000" fill-rule="nonzero" fill-opacity="1" /><path clip-path="url(#clip420)" d="M855.865 1472.3 Q853.318 1476.71 855.101 1481.22 Q856.896 1485.7 862.569 1488.98 Q868.222 1492.24 873.003 1491.55 Q877.795 1490.84 880.342 1486.43 Q882.888 1482.02 881.082 1477.56 Q879.287 1473.07 873.634 1469.81 Q867.961 1466.54 863.18 1467.22 Q858.411 1467.89 855.865 1472.3 M852.577 1470.4 Q856.211 1464.11 862.617 1462.78 Q869.003 1461.44 876.099 1465.54 Q883.176 1469.63 885.23 1475.84 Q887.264 1482.04 883.629 1488.33 Q879.984 1494.65 873.586 1496 Q867.201 1497.34 860.104 1493.25 Q853.007 1489.15 850.974 1482.95 Q848.931 1476.72 852.577 1470.4 Z" fill="#000000" fill-rule="nonzero" fill-opacity="1" /><path clip-path="url(#clip420)" d="M922.224 1522.41 L933.47 1528.91 L936.41 1523.81 Q938.042 1520.99 937.47 1518.6 Q936.897 1516.21 934.191 1514.65 Q931.505 1513.1 929.15 1513.8 Q926.796 1514.49 925.164 1517.32 L922.224 1522.41 M916.558 1524.54 L921.836 1515.4 Q924.741 1510.37 928.508 1509.12 Q932.266 1507.84 936.656 1510.38 Q941.087 1512.94 941.859 1516.83 Q942.643 1520.7 939.738 1525.74 L936.798 1530.83 L948.826 1537.77 L946.488 1541.82 L916.558 1524.54 Z" fill="#000000" fill-rule="nonzero" fill-opacity="1" /><path clip-path="url(#clip420)" d="M930.852 1499.78 L940.783 1482.58 L944.191 1484.55 L936.598 1497.7 L945.419 1502.79 L952.27 1490.93 L955.678 1492.89 L948.827 1504.76 L963.12 1513.01 L960.782 1517.06 L930.852 1499.78 Z" fill="#000000" fill-rule="nonzero" fill-opacity="1" /><path clip-path="url(#clip420)" d="M944.486 1476.17 L955.412 1457.24 L958.82 1459.21 L950.232 1474.09 L959.093 1479.2 L967.322 1464.95 L970.73 1466.92 L962.501 1481.17 L973.346 1487.43 L982.142 1472.2 L985.55 1474.16 L974.416 1493.45 L944.486 1476.17 Z" fill="#000000" fill-rule="nonzero" fill-opacity="1" /><path clip-path="url(#clip420)" d="M1014.67 1518.31 L1017.01 1514.26 L1043.53 1529.57 L1051.95 1515 L1055.36 1516.96 L1044.6 1535.59 L1014.67 1518.31 Z" fill="#000000" fill-rule="nonzero" fill-opacity="1" /><path clip-path="url(#clip420)" d="M1027.88 1495.43 L1030.22 1491.38 L1056.74 1506.7 L1065.15 1492.12 L1068.56 1494.09 L1057.81 1512.71 L1027.88 1495.43 Z" fill="#000000" fill-rule="nonzero" fill-opacity="1" /><path clip-path="url(#clip420)" d="M1035.56 1482.12 L1038.08 1477.77 L1055.18 1476.58 L1047.63 1461.23 L1050.14 1456.88 L1059.7 1476.52 L1073.96 1484.75 L1071.61 1488.82 L1057.35 1480.59 L1035.56 1482.12 Z" fill="#000000" fill-rule="nonzero" fill-opacity="1" /><path clip-path="url(#clip420)" d="M1096.13 1540.92 L1098.48 1536.85 L1116.67 1547.35 Q1121.48 1550.13 1124.61 1549.61 Q1127.72 1549.08 1129.98 1545.17 Q1132.22 1541.28 1131.13 1538.32 Q1130.01 1535.35 1125.2 1532.57 L1107.01 1522.08 L1109.36 1518.01 L1128.05 1528.79 Q1133.9 1532.17 1135.21 1536.8 Q1136.53 1541.42 1133.27 1547.07 Q1129.99 1552.74 1125.33 1553.92 Q1120.67 1555.09 1114.82 1551.71 L1096.13 1540.92 Z" fill="#000000" fill-rule="nonzero" fill-opacity="1" /><path clip-path="url(#clip420)" d="M1113.75 1510.41 L1116.9 1504.96 L1149.6 1506.14 L1124.56 1491.68 L1126.83 1487.76 L1156.76 1505.04 L1153.61 1510.49 L1120.91 1509.3 L1145.95 1523.76 L1143.68 1527.69 L1113.75 1510.41 Z" fill="#000000" fill-rule="nonzero" fill-opacity="1" /><path clip-path="url(#clip420)" d="M1131.48 1479.7 L1133.82 1475.65 L1146.09 1482.73 L1154.58 1468.02 L1142.31 1460.93 L1144.65 1456.88 L1174.58 1474.16 L1172.24 1478.21 L1157.99 1469.98 L1149.5 1484.7 L1163.75 1492.93 L1161.41 1496.98 L1131.48 1479.7 Z" fill="#000000" fill-rule="nonzero" fill-opacity="1" /><path clip-path="url(#clip420)" d="M1178.23 1562.43 L1181.72 1556.4 L1206.49 1560.52 L1190.56 1541.08 L1194.04 1535.05 L1223.97 1552.33 L1221.69 1556.28 L1195.41 1541.1 L1211.48 1560.67 L1209.13 1564.74 L1184.15 1560.61 L1210.43 1575.78 L1208.16 1579.71 L1178.23 1562.43 Z" fill="#000000" fill-rule="nonzero" fill-opacity="1" /><path clip-path="url(#clip420)" d="M1210.02 1509.63 L1213.97 1511.91 Q1211.54 1513.58 1209.82 1515.31 Q1208.1 1517.05 1207 1518.95 Q1205.09 1522.26 1205.33 1524.8 Q1205.58 1527.33 1207.95 1528.69 Q1209.93 1529.84 1211.64 1529.25 Q1213.33 1528.62 1215.88 1525.65 L1217.79 1523.5 Q1221.27 1519.46 1224.69 1518.58 Q1228.11 1517.67 1231.75 1519.77 Q1236.1 1522.28 1236.66 1526.51 Q1237.23 1530.71 1233.97 1536.34 Q1232.75 1538.47 1230.88 1540.6 Q1229.02 1542.7 1226.6 1544.73 L1222.43 1542.32 Q1225.23 1540.65 1227.3 1538.69 Q1229.37 1536.73 1230.69 1534.45 Q1232.69 1530.98 1232.41 1528.31 Q1232.14 1525.63 1229.61 1524.18 Q1227.41 1522.9 1225.38 1523.55 Q1223.36 1524.17 1220.96 1526.9 L1219.05 1529.09 Q1215.53 1533.1 1212.44 1534.01 Q1209.35 1534.93 1205.92 1532.95 Q1201.95 1530.66 1201.27 1526.55 Q1200.61 1522.42 1203.44 1517.51 Q1204.66 1515.41 1206.3 1513.44 Q1207.94 1511.48 1210.02 1509.63 Z" fill="#000000" fill-rule="nonzero" fill-opacity="1" /><path clip-path="url(#clip420)" d="M1213.73 1500.95 L1223.66 1483.75 L1227.07 1485.71 L1219.48 1498.86 L1228.3 1503.96 L1235.15 1492.09 L1238.56 1494.06 L1231.7 1505.92 L1246 1514.18 L1243.66 1518.23 L1213.73 1500.95 Z" fill="#000000" fill-rule="nonzero" fill-opacity="1" /><path clip-path="url(#clip420)" d="M1224.55 1482.2 L1239.17 1456.88 L1242.58 1458.85 L1236.44 1469.48 L1262.96 1484.79 L1260.62 1488.86 L1234.09 1473.55 L1227.96 1484.17 L1224.55 1482.2 Z" fill="#000000" fill-rule="nonzero" fill-opacity="1" /><path clip-path="url(#clip420)" d="M1301.34 1512.91 L1303.67 1508.86 L1315.94 1515.95 L1324.44 1501.23 L1312.17 1494.15 L1314.51 1490.1 L1344.44 1507.38 L1342.1 1511.43 L1327.85 1503.2 L1319.35 1517.92 L1333.6 1526.14 L1331.27 1530.19 L1301.34 1512.91 Z" fill="#000000" fill-rule="nonzero" fill-opacity="1" /><path clip-path="url(#clip420)" d="M1324.83 1479.91 L1348.1 1493.35 L1350.92 1488.46 Q1354.5 1482.27 1353.35 1477.78 Q1352.21 1473.27 1346.15 1469.78 Q1340.14 1466.3 1335.69 1467.58 Q1331.23 1468.83 1327.65 1475.02 L1324.83 1479.91 M1319.16 1482.04 L1323.96 1473.72 Q1328.99 1465.02 1334.96 1463.05 Q1340.92 1461.06 1348.62 1465.51 Q1356.36 1469.97 1357.63 1476.16 Q1358.89 1482.34 1353.89 1491 L1349.09 1499.32 L1319.16 1482.04 Z" fill="#000000" fill-rule="nonzero" fill-opacity="1" /><path clip-path="url(#clip420)" d="M1391.11 1521.13 L1393.44 1517.08 L1421.29 1533.16 Q1426.7 1536.29 1427.96 1539.76 Q1429.22 1543.22 1426.59 1547.77 L1425.7 1549.31 L1422.29 1547.35 L1423.02 1546.08 Q1424.57 1543.4 1423.71 1541.43 Q1422.84 1539.46 1418.95 1537.21 L1391.11 1521.13 Z" fill="#000000" fill-rule="nonzero" fill-opacity="1" /><path clip-path="url(#clip420)" d="M1403.76 1506.9 L1415.01 1513.39 L1417.95 1508.3 Q1419.58 1505.47 1419.01 1503.08 Q1418.44 1500.69 1415.73 1499.13 Q1413.04 1497.58 1410.69 1498.28 Q1408.33 1498.98 1406.7 1501.81 L1403.76 1506.9 M1398.1 1509.03 L1403.38 1499.88 Q1406.28 1494.85 1410.05 1493.61 Q1413.81 1492.33 1418.2 1494.86 Q1422.63 1497.42 1423.4 1501.31 Q1424.18 1505.19 1421.28 1510.22 L1418.34 1515.31 L1430.37 1522.26 L1428.03 1526.31 L1398.1 1509.03 Z" fill="#000000" fill-rule="nonzero" fill-opacity="1" /><path clip-path="url(#clip420)" d="M1412.39 1484.27 L1415.88 1478.23 L1440.65 1482.35 L1424.72 1462.92 L1428.2 1456.88 L1458.13 1474.16 L1455.85 1478.11 L1429.57 1462.94 L1445.64 1482.51 L1443.29 1486.58 L1418.31 1482.44 L1444.59 1497.62 L1442.32 1501.55 L1412.39 1484.27 Z" fill="#000000" fill-rule="nonzero" fill-opacity="1" /><path clip-path="url(#clip420)" d="M1474.35 1549.88 L1486.07 1563.97 L1492.42 1552.97 L1474.35 1549.88 M1469.04 1549.86 L1471.69 1545.27 L1508.2 1551.14 L1505.77 1555.35 L1496.52 1553.65 L1488.73 1567.14 L1494.84 1574.3 L1492.37 1578.57 L1469.04 1549.86 Z" fill="#000000" fill-rule="nonzero" fill-opacity="1" /><path clip-path="url(#clip420)" d="M1491.22 1520.65 L1502.94 1534.74 L1509.3 1523.74 L1491.22 1520.65 M1485.91 1520.63 L1488.56 1516.04 L1525.08 1521.92 L1522.65 1526.12 L1513.4 1524.42 L1505.61 1537.91 L1511.71 1545.07 L1509.24 1549.34 L1485.91 1520.63 Z" fill="#000000" fill-rule="nonzero" fill-opacity="1" /><path clip-path="url(#clip420)" d="M1503.34 1498.14 L1514.58 1504.63 L1517.52 1499.54 Q1519.16 1496.71 1518.58 1494.32 Q1518.01 1491.93 1515.3 1490.37 Q1512.62 1488.82 1510.26 1489.52 Q1507.91 1490.22 1506.28 1493.04 L1503.34 1498.14 M1497.67 1500.26 L1502.95 1491.12 Q1505.85 1486.09 1509.62 1484.85 Q1513.38 1483.57 1517.77 1486.1 Q1522.2 1488.66 1522.97 1492.55 Q1523.76 1496.43 1520.85 1501.46 L1517.91 1506.55 L1529.94 1513.5 L1527.6 1517.54 L1497.67 1500.26 Z" fill="#000000" fill-rule="nonzero" fill-opacity="1" /><path clip-path="url(#clip420)" d="M1511.97 1475.51 L1514.3 1471.46 L1540.83 1486.77 L1549.24 1472.2 L1552.65 1474.16 L1541.9 1492.79 L1511.97 1475.51 Z" fill="#000000" fill-rule="nonzero" fill-opacity="1" /><path clip-path="url(#clip420)" d="M1567.21 1543.53 L1569.72 1539.18 L1585.14 1538.16 L1578.33 1524.26 L1580.85 1519.91 L1589.66 1537.83 L1611.15 1536.55 L1608.63 1540.9 L1591.04 1541.97 L1598.88 1557.8 L1596.35 1562.17 L1586.55 1542.26 L1567.21 1543.53 Z" fill="#000000" fill-rule="nonzero" fill-opacity="1" /><path clip-path="url(#clip420)" d="M1592.53 1506.02 Q1589.98 1510.43 1591.76 1514.93 Q1593.56 1519.42 1599.23 1522.69 Q1604.88 1525.96 1609.67 1525.27 Q1614.46 1524.56 1617 1520.15 Q1619.55 1515.74 1617.74 1511.28 Q1615.95 1506.79 1610.3 1503.53 Q1604.62 1500.25 1599.84 1500.94 Q1595.07 1501.61 1592.53 1506.02 M1589.24 1504.12 Q1592.87 1497.83 1599.28 1496.5 Q1605.66 1495.16 1612.76 1499.26 Q1619.84 1503.35 1621.89 1509.56 Q1623.93 1515.76 1620.29 1522.05 Q1616.65 1528.37 1610.25 1529.72 Q1603.86 1531.06 1596.77 1526.96 Q1589.67 1522.87 1587.64 1516.67 Q1585.59 1510.44 1589.24 1504.12 Z" fill="#000000" fill-rule="nonzero" fill-opacity="1" /><path clip-path="url(#clip420)" d="M1601.42 1484.27 L1604.91 1478.23 L1629.68 1482.35 L1613.75 1462.92 L1617.23 1456.88 L1647.16 1474.16 L1644.88 1478.11 L1618.6 1462.94 L1634.67 1482.51 L1632.32 1486.58 L1607.34 1482.44 L1633.62 1497.62 L1631.35 1501.55 L1601.42 1484.27 Z" fill="#000000" fill-rule="nonzero" fill-opacity="1" /><path clip-path="url(#clip420)" d="M1684.72 1539.8 L1695.69 1546.13 L1699.44 1539.64 Q1701.33 1536.37 1700.89 1534.03 Q1700.44 1531.66 1697.65 1530.05 Q1694.84 1528.43 1692.61 1529.25 Q1690.36 1530.04 1688.47 1533.31 L1684.72 1539.8 M1672.42 1532.7 L1681.44 1537.91 L1684.9 1531.91 Q1686.61 1528.94 1686.34 1526.86 Q1686.06 1524.75 1683.78 1523.43 Q1681.51 1522.13 1679.55 1522.94 Q1677.59 1523.74 1675.88 1526.7 L1672.42 1532.7 M1666.75 1534.83 L1672.72 1524.48 Q1675.4 1519.85 1678.77 1518.46 Q1682.14 1517.06 1685.69 1519.11 Q1688.43 1520.7 1689.32 1522.92 Q1690.2 1525.14 1689.16 1527.85 Q1691.53 1525.24 1694.52 1524.77 Q1697.51 1524.28 1700.56 1526.04 Q1704.57 1528.35 1705.18 1532.34 Q1705.79 1536.33 1702.88 1541.36 L1696.68 1552.11 L1666.75 1534.83 Z" fill="#000000" fill-rule="nonzero" fill-opacity="1" /><path clip-path="url(#clip420)" d="M1692.78 1498.96 L1704.5 1513.05 L1710.85 1502.05 L1692.78 1498.96 M1687.47 1498.94 L1690.12 1494.35 L1726.63 1500.22 L1724.2 1504.43 L1714.95 1502.73 L1707.16 1516.22 L1713.27 1523.38 L1710.8 1527.65 L1687.47 1498.94 Z" fill="#000000" fill-rule="nonzero" fill-opacity="1" /><path clip-path="url(#clip420)" d="M1714.06 1458.21 L1718.33 1460.68 Q1715.24 1461.63 1712.96 1463.41 Q1710.68 1465.17 1709.18 1467.77 Q1706.21 1472.91 1707.79 1477.45 Q1709.34 1481.98 1715.28 1485.41 Q1721.19 1488.82 1725.91 1487.91 Q1730.61 1486.99 1733.57 1481.86 Q1735.08 1479.25 1735.47 1476.4 Q1735.87 1473.53 1735.14 1470.39 L1739.37 1472.83 Q1739.59 1475.79 1738.94 1478.59 Q1738.29 1481.38 1736.76 1484.02 Q1732.84 1490.82 1726.43 1492.33 Q1720.01 1493.83 1712.81 1489.68 Q1705.59 1485.51 1703.7 1479.21 Q1701.79 1472.89 1705.71 1466.09 Q1707.26 1463.41 1709.35 1461.46 Q1711.43 1459.48 1714.06 1458.21 Z" fill="#000000" fill-rule="nonzero" fill-opacity="1" /><path clip-path="url(#clip420)" d="M1775.57 1515.37 L1779.84 1517.83 Q1776.76 1518.78 1774.47 1520.56 Q1772.2 1522.32 1770.7 1524.93 Q1767.73 1530.06 1769.31 1534.6 Q1770.86 1539.13 1776.79 1542.56 Q1782.71 1545.98 1787.43 1545.07 Q1792.13 1544.15 1795.09 1539.01 Q1796.6 1536.41 1796.99 1533.56 Q1797.39 1530.69 1796.66 1527.54 L1800.89 1529.99 Q1801.11 1532.94 1800.45 1535.75 Q1799.81 1538.53 1798.28 1541.17 Q1794.36 1547.97 1787.95 1549.48 Q1781.53 1550.99 1774.33 1546.83 Q1767.11 1542.66 1765.22 1536.36 Q1763.31 1530.04 1767.23 1523.25 Q1768.78 1520.56 1770.87 1518.61 Q1772.95 1516.63 1775.57 1515.37 Z" fill="#000000" fill-rule="nonzero" fill-opacity="1" /><path clip-path="url(#clip420)" d="M1811.27 1517.34 L1774.74 1511.49 L1777.18 1507.26 L1807.85 1512.33 L1788.14 1488.28 L1790.57 1484.07 L1813.92 1512.75 L1811.27 1517.34 Z" fill="#000000" fill-rule="nonzero" fill-opacity="1" /><path clip-path="url(#clip420)" d="M1792.26 1481.14 L1794.77 1476.79 L1810.19 1475.78 L1803.38 1461.88 L1805.9 1457.53 L1814.71 1475.45 L1836.2 1474.16 L1833.68 1478.51 L1816.09 1479.58 L1823.93 1495.41 L1821.4 1499.78 L1811.6 1479.87 L1792.26 1481.14 Z" fill="#000000" fill-rule="nonzero" fill-opacity="1" /><path clip-path="url(#clip420)" d="M1875.33 1537.08 L1886.3 1543.41 L1890.05 1536.91 Q1891.93 1533.65 1891.49 1531.31 Q1891.04 1528.94 1888.26 1527.33 Q1885.45 1525.71 1883.21 1526.53 Q1880.97 1527.31 1879.08 1530.58 L1875.33 1537.08 M1863.02 1529.97 L1872.04 1535.18 L1875.5 1529.19 Q1877.22 1526.22 1876.95 1524.14 Q1876.67 1522.03 1874.38 1520.71 Q1872.12 1519.4 1870.15 1520.21 Q1868.2 1521.01 1866.48 1523.98 L1863.02 1529.97 M1857.36 1532.1 L1863.33 1521.76 Q1866 1517.12 1869.37 1515.73 Q1872.74 1514.33 1876.29 1516.38 Q1879.04 1517.97 1879.92 1520.19 Q1880.81 1522.41 1879.77 1525.13 Q1882.14 1522.51 1885.13 1522.05 Q1888.12 1521.55 1891.16 1523.31 Q1895.17 1525.63 1895.78 1529.61 Q1896.4 1533.6 1893.49 1538.63 L1887.29 1549.38 L1857.36 1532.1 Z" fill="#000000" fill-rule="nonzero" fill-opacity="1" /><path clip-path="url(#clip420)" d="M1891.59 1508.91 L1902.56 1515.24 L1906.31 1508.75 Q1908.19 1505.48 1907.75 1503.14 Q1907.31 1500.77 1904.52 1499.16 Q1901.71 1497.54 1899.47 1498.36 Q1897.23 1499.15 1895.34 1502.42 L1891.59 1508.91 M1879.28 1501.81 L1888.3 1507.01 L1891.77 1501.02 Q1893.48 1498.05 1893.21 1495.97 Q1892.93 1493.86 1890.65 1492.54 Q1888.38 1491.23 1886.41 1492.05 Q1884.46 1492.84 1882.74 1495.81 L1879.28 1501.81 M1873.62 1503.93 L1879.59 1493.59 Q1882.26 1488.96 1885.64 1487.56 Q1889.01 1486.17 1892.55 1488.22 Q1895.3 1489.8 1896.18 1492.02 Q1897.07 1494.24 1896.03 1496.96 Q1898.4 1494.34 1901.39 1493.88 Q1904.38 1493.39 1907.43 1495.15 Q1911.43 1497.46 1912.05 1501.45 Q1912.66 1505.44 1909.75 1510.47 L1903.55 1521.21 L1873.62 1503.93 Z" fill="#000000" fill-rule="nonzero" fill-opacity="1" /><path clip-path="url(#clip420)" d="M1886.21 1482.12 L1888.72 1477.77 L1905.82 1476.58 L1898.27 1461.23 L1900.78 1456.88 L1910.35 1476.52 L1924.6 1484.75 L1922.25 1488.82 L1908 1480.59 L1886.21 1482.12 Z" fill="#000000" fill-rule="nonzero" fill-opacity="1" /><path clip-path="url(#clip420)" d="M2003.24 1502.39 L1995.2 1497.75 L1991.38 1504.36 L1988.05 1502.44 L1994.19 1491.82 L2007.04 1499.24 Q2007.35 1502.54 2006.58 1505.87 Q2005.79 1509.18 2003.93 1512.39 Q1999.88 1519.4 1993.5 1521.01 Q1987.11 1522.59 1979.8 1518.36 Q1972.46 1514.13 1970.65 1507.82 Q1968.83 1501.48 1972.88 1494.46 Q1974.57 1491.53 1976.81 1489.32 Q1979.06 1487.09 1981.75 1485.68 L1986.06 1488.17 Q1982.86 1489.31 1980.44 1491.28 Q1978.02 1493.25 1976.41 1496.04 Q1973.24 1501.53 1974.71 1506.07 Q1976.19 1510.59 1982.26 1514.09 Q1988.32 1517.59 1992.97 1516.61 Q1997.63 1515.62 2000.8 1510.13 Q2002.04 1507.98 2002.65 1506.09 Q2003.24 1504.18 2003.24 1502.39 Z" fill="#000000" fill-rule="nonzero" fill-opacity="1" /><path clip-path="url(#clip420)" d="M1984.16 1476.17 L1995.09 1457.24 L1998.5 1459.21 L1989.91 1474.09 L1998.77 1479.2 L2007 1464.95 L2010.41 1466.92 L2002.18 1481.17 L2013.02 1487.43 L2021.82 1472.2 L2025.23 1474.16 L2014.09 1493.45 L1984.16 1476.17 Z" fill="#000000" fill-rule="nonzero" fill-opacity="1" /><path clip-path="url(#clip420)" d="M2048.39 1537.85 L2060.11 1551.94 L2066.47 1540.94 L2048.39 1537.85 M2043.08 1537.83 L2045.73 1533.24 L2082.24 1539.12 L2079.81 1543.33 L2070.56 1541.62 L2062.77 1555.11 L2068.88 1562.27 L2066.41 1566.54 L2043.08 1537.83 Z" fill="#000000" fill-rule="nonzero" fill-opacity="1" /><path clip-path="url(#clip420)" d="M2054.84 1517.47 L2058.32 1511.43 L2083.1 1515.55 L2067.16 1496.12 L2070.65 1490.08 L2100.58 1507.36 L2098.3 1511.31 L2072.02 1496.14 L2088.09 1515.71 L2085.74 1519.78 L2060.75 1515.64 L2087.04 1530.82 L2084.77 1534.75 L2054.84 1517.47 Z" fill="#000000" fill-rule="nonzero" fill-opacity="1" /><path clip-path="url(#clip420)" d="M2080.95 1479.91 L2104.23 1493.35 L2107.05 1488.46 Q2110.63 1482.27 2109.48 1477.78 Q2108.34 1473.27 2102.28 1469.78 Q2096.27 1466.3 2091.82 1467.58 Q2087.36 1468.83 2083.78 1475.02 L2080.95 1479.91 M2075.29 1482.04 L2080.09 1473.72 Q2085.12 1465.02 2091.09 1463.05 Q2097.05 1461.06 2104.75 1465.51 Q2112.49 1469.97 2113.75 1476.16 Q2115.02 1482.34 2110.02 1491 L2105.22 1499.32 L2075.29 1482.04 Z" fill="#000000" fill-rule="nonzero" fill-opacity="1" /><path clip-path="url(#clip420)" d="M2163.72 1529.29 Q2164.92 1528.24 2167.07 1527.85 Q2169.23 1527.44 2172.47 1527.66 L2183.02 1528.27 L2180.51 1532.62 L2170.62 1532.02 Q2166.76 1531.76 2164.97 1532.6 Q2163.19 1533.42 2161.8 1535.82 L2159.25 1540.23 L2171.9 1547.53 L2169.56 1551.58 L2139.63 1534.3 L2144.91 1525.16 Q2147.87 1520.03 2151.48 1518.74 Q2155.08 1517.46 2159.41 1519.96 Q2162.24 1521.59 2163.34 1523.99 Q2164.45 1526.37 2163.72 1529.29 M2145.3 1532.18 L2155.92 1538.31 L2158.86 1533.22 Q2160.55 1530.29 2160.07 1528.03 Q2159.57 1525.74 2156.94 1524.23 Q2154.32 1522.71 2152.13 1523.45 Q2149.93 1524.16 2148.24 1527.08 L2145.3 1532.18 Z" fill="#000000" fill-rule="nonzero" fill-opacity="1" /><path clip-path="url(#clip420)" d="M2180.19 1500.76 Q2181.39 1499.71 2183.54 1499.32 Q2185.7 1498.92 2188.94 1499.13 L2199.49 1499.74 L2196.98 1504.09 L2187.09 1503.49 Q2183.23 1503.24 2181.44 1504.07 Q2179.66 1504.89 2178.27 1507.29 L2175.72 1511.71 L2188.37 1519.01 L2186.03 1523.06 L2156.1 1505.78 L2161.38 1496.64 Q2164.34 1491.5 2167.95 1490.22 Q2171.55 1488.93 2175.88 1491.43 Q2178.71 1493.06 2179.81 1495.46 Q2180.92 1497.84 2180.19 1500.76 M2161.77 1503.65 L2172.39 1509.78 L2175.33 1504.69 Q2177.02 1501.77 2176.54 1499.51 Q2176.04 1497.22 2173.41 1495.7 Q2170.79 1494.18 2168.6 1494.92 Q2166.4 1495.63 2164.71 1498.56 L2161.77 1503.65 Z" fill="#000000" fill-rule="nonzero" fill-opacity="1" /><path clip-path="url(#clip420)" d="M2186.64 1458.21 L2190.91 1460.68 Q2187.82 1461.63 2185.54 1463.41 Q2183.26 1465.17 2181.76 1467.77 Q2178.8 1472.91 2180.37 1477.45 Q2181.92 1481.98 2187.86 1485.41 Q2193.77 1488.82 2198.49 1487.91 Q2203.19 1486.99 2206.16 1481.86 Q2207.66 1479.25 2208.05 1476.4 Q2208.45 1473.53 2207.73 1470.39 L2211.96 1472.83 Q2212.17 1475.79 2211.52 1478.59 Q2210.87 1481.38 2209.34 1484.02 Q2205.42 1490.82 2199.01 1492.33 Q2192.59 1493.83 2185.39 1489.68 Q2178.17 1485.51 2176.28 1479.21 Q2174.37 1472.89 2178.29 1466.09 Q2179.84 1463.41 2181.93 1461.46 Q2184.01 1459.48 2186.64 1458.21 Z" fill="#000000" fill-rule="nonzero" fill-opacity="1" /><polyline clip-path="url(#clip420)" style="stroke:#000000; stroke-linecap:round; stroke-linejoin:round; stroke-width:4; stroke-opacity:1; fill:none" points="250.028,1433.36 250.028,123.472 "/>
<polyline clip-path="url(#clip420)" style="stroke:#000000; stroke-linecap:round; stroke-linejoin:round; stroke-width:4; stroke-opacity:1; fill:none" points="250.028,1433.36 268.926,1433.36 "/>
<polyline clip-path="url(#clip420)" style="stroke:#000000; stroke-linecap:round; stroke-linejoin:round; stroke-width:4; stroke-opacity:1; fill:none" points="250.028,1143.76 268.926,1143.76 "/>
<polyline clip-path="url(#clip420)" style="stroke:#000000; stroke-linecap:round; stroke-linejoin:round; stroke-width:4; stroke-opacity:1; fill:none" points="250.028,854.151 268.926,854.151 "/>
<polyline clip-path="url(#clip420)" style="stroke:#000000; stroke-linecap:round; stroke-linejoin:round; stroke-width:4; stroke-opacity:1; fill:none" points="250.028,564.545 268.926,564.545 "/>
<polyline clip-path="url(#clip420)" style="stroke:#000000; stroke-linecap:round; stroke-linejoin:round; stroke-width:4; stroke-opacity:1; fill:none" points="250.028,274.939 268.926,274.939 "/>
<path clip-path="url(#clip420)" d="M126.691 1419.16 Q123.08 1419.16 121.251 1422.73 Q119.445 1426.27 119.445 1433.4 Q119.445 1440.5 121.251 1444.07 Q123.08 1447.61 126.691 1447.61 Q130.325 1447.61 132.13 1444.07 Q133.959 1440.5 133.959 1433.4 Q133.959 1426.27 132.13 1422.73 Q130.325 1419.16 126.691 1419.16 M126.691 1415.46 Q132.501 1415.46 135.556 1420.07 Q138.635 1424.65 138.635 1433.4 Q138.635 1442.13 135.556 1446.73 Q132.501 1451.31 126.691 1451.31 Q120.88 1451.31 117.802 1446.73 Q114.746 1442.13 114.746 1433.4 Q114.746 1424.65 117.802 1420.07 Q120.88 1415.46 126.691 1415.46 Z" fill="#000000" fill-rule="nonzero" fill-opacity="1" /><path clip-path="url(#clip420)" d="M146.853 1444.76 L151.737 1444.76 L151.737 1450.64 L146.853 1450.64 L146.853 1444.76 Z" fill="#000000" fill-rule="nonzero" fill-opacity="1" /><path clip-path="url(#clip420)" d="M171.922 1419.16 Q168.311 1419.16 166.482 1422.73 Q164.677 1426.27 164.677 1433.4 Q164.677 1440.5 166.482 1444.07 Q168.311 1447.61 171.922 1447.61 Q175.556 1447.61 177.362 1444.07 Q179.19 1440.5 179.19 1433.4 Q179.19 1426.27 177.362 1422.73 Q175.556 1419.16 171.922 1419.16 M171.922 1415.46 Q177.732 1415.46 180.788 1420.07 Q183.866 1424.65 183.866 1433.4 Q183.866 1442.13 180.788 1446.73 Q177.732 1451.31 171.922 1451.31 Q166.112 1451.31 163.033 1446.73 Q159.978 1442.13 159.978 1433.4 Q159.978 1424.65 163.033 1420.07 Q166.112 1415.46 171.922 1415.46 Z" fill="#000000" fill-rule="nonzero" fill-opacity="1" /><path clip-path="url(#clip420)" d="M202.084 1419.16 Q198.473 1419.16 196.644 1422.73 Q194.838 1426.27 194.838 1433.4 Q194.838 1440.5 196.644 1444.07 Q198.473 1447.61 202.084 1447.61 Q205.718 1447.61 207.524 1444.07 Q209.352 1440.5 209.352 1433.4 Q209.352 1426.27 207.524 1422.73 Q205.718 1419.16 202.084 1419.16 M202.084 1415.46 Q207.894 1415.46 210.949 1420.07 Q214.028 1424.65 214.028 1433.4 Q214.028 1442.13 210.949 1446.73 Q207.894 1451.31 202.084 1451.31 Q196.274 1451.31 193.195 1446.73 Q190.139 1442.13 190.139 1433.4 Q190.139 1424.65 193.195 1420.07 Q196.274 1415.46 202.084 1415.46 Z" fill="#000000" fill-rule="nonzero" fill-opacity="1" /><path clip-path="url(#clip420)" d="M128.288 1129.56 Q124.677 1129.56 122.848 1133.12 Q121.043 1136.66 121.043 1143.79 Q121.043 1150.9 122.848 1154.46 Q124.677 1158.01 128.288 1158.01 Q131.922 1158.01 133.728 1154.46 Q135.556 1150.9 135.556 1143.79 Q135.556 1136.66 133.728 1133.12 Q131.922 1129.56 128.288 1129.56 M128.288 1125.85 Q134.098 1125.85 137.154 1130.46 Q140.232 1135.04 140.232 1143.79 Q140.232 1152.52 137.154 1157.13 Q134.098 1161.71 128.288 1161.71 Q122.478 1161.71 119.399 1157.13 Q116.343 1152.52 116.343 1143.79 Q116.343 1135.04 119.399 1130.46 Q122.478 1125.85 128.288 1125.85 Z" fill="#000000" fill-rule="nonzero" fill-opacity="1" /><path clip-path="url(#clip420)" d="M148.45 1155.16 L153.334 1155.16 L153.334 1161.04 L148.45 1161.04 L148.45 1155.16 Z" fill="#000000" fill-rule="nonzero" fill-opacity="1" /><path clip-path="url(#clip420)" d="M173.519 1129.56 Q169.908 1129.56 168.079 1133.12 Q166.274 1136.66 166.274 1143.79 Q166.274 1150.9 168.079 1154.46 Q169.908 1158.01 173.519 1158.01 Q177.153 1158.01 178.959 1154.46 Q180.788 1150.9 180.788 1143.79 Q180.788 1136.66 178.959 1133.12 Q177.153 1129.56 173.519 1129.56 M173.519 1125.85 Q179.329 1125.85 182.385 1130.46 Q185.463 1135.04 185.463 1143.79 Q185.463 1152.52 182.385 1157.13 Q179.329 1161.71 173.519 1161.71 Q167.709 1161.71 164.63 1157.13 Q161.575 1152.52 161.575 1143.79 Q161.575 1135.04 164.63 1130.46 Q167.709 1125.85 173.519 1125.85 Z" fill="#000000" fill-rule="nonzero" fill-opacity="1" /><path clip-path="url(#clip420)" d="M197.709 1157.1 L214.028 1157.1 L214.028 1161.04 L192.084 1161.04 L192.084 1157.1 Q194.746 1154.35 199.329 1149.72 Q203.936 1145.07 205.116 1143.72 Q207.362 1141.2 208.241 1139.46 Q209.144 1137.7 209.144 1136.01 Q209.144 1133.26 207.199 1131.52 Q205.278 1129.79 202.176 1129.79 Q199.977 1129.79 197.524 1130.55 Q195.093 1131.32 192.315 1132.87 L192.315 1128.14 Q195.139 1127.01 197.593 1126.43 Q200.047 1125.85 202.084 1125.85 Q207.454 1125.85 210.649 1128.54 Q213.843 1131.22 213.843 1135.71 Q213.843 1137.84 213.033 1139.76 Q212.246 1141.66 210.139 1144.26 Q209.561 1144.93 206.459 1148.14 Q203.357 1151.34 197.709 1157.1 Z" fill="#000000" fill-rule="nonzero" fill-opacity="1" /><path clip-path="url(#clip420)" d="M126.205 839.95 Q122.593 839.95 120.765 843.515 Q118.959 847.056 118.959 854.186 Q118.959 861.292 120.765 864.857 Q122.593 868.399 126.205 868.399 Q129.839 868.399 131.644 864.857 Q133.473 861.292 133.473 854.186 Q133.473 847.056 131.644 843.515 Q129.839 839.95 126.205 839.95 M126.205 836.246 Q132.015 836.246 135.07 840.853 Q138.149 845.436 138.149 854.186 Q138.149 862.913 135.07 867.519 Q132.015 872.103 126.205 872.103 Q120.394 872.103 117.316 867.519 Q114.26 862.913 114.26 854.186 Q114.26 845.436 117.316 840.853 Q120.394 836.246 126.205 836.246 Z" fill="#000000" fill-rule="nonzero" fill-opacity="1" /><path clip-path="url(#clip420)" d="M146.366 865.552 L151.251 865.552 L151.251 871.431 L146.366 871.431 L146.366 865.552 Z" fill="#000000" fill-rule="nonzero" fill-opacity="1" /><path clip-path="url(#clip420)" d="M171.436 839.95 Q167.825 839.95 165.996 843.515 Q164.19 847.056 164.19 854.186 Q164.19 861.292 165.996 864.857 Q167.825 868.399 171.436 868.399 Q175.07 868.399 176.876 864.857 Q178.704 861.292 178.704 854.186 Q178.704 847.056 176.876 843.515 Q175.07 839.95 171.436 839.95 M171.436 836.246 Q177.246 836.246 180.301 840.853 Q183.38 845.436 183.38 854.186 Q183.38 862.913 180.301 867.519 Q177.246 872.103 171.436 872.103 Q165.626 872.103 162.547 867.519 Q159.491 862.913 159.491 854.186 Q159.491 845.436 162.547 840.853 Q165.626 836.246 171.436 836.246 Z" fill="#000000" fill-rule="nonzero" fill-opacity="1" /><path clip-path="url(#clip420)" d="M204.445 840.945 L192.639 859.394 L204.445 859.394 L204.445 840.945 M203.218 836.871 L209.098 836.871 L209.098 859.394 L214.028 859.394 L214.028 863.283 L209.098 863.283 L209.098 871.431 L204.445 871.431 L204.445 863.283 L188.843 863.283 L188.843 858.769 L203.218 836.871 Z" fill="#000000" fill-rule="nonzero" fill-opacity="1" /><path clip-path="url(#clip420)" d="M126.529 550.344 Q122.918 550.344 121.089 553.909 Q119.283 557.45 119.283 564.58 Q119.283 571.686 121.089 575.251 Q122.918 578.793 126.529 578.793 Q130.163 578.793 131.968 575.251 Q133.797 571.686 133.797 564.58 Q133.797 557.45 131.968 553.909 Q130.163 550.344 126.529 550.344 M126.529 546.64 Q132.339 546.64 135.394 551.247 Q138.473 555.83 138.473 564.58 Q138.473 573.307 135.394 577.913 Q132.339 582.496 126.529 582.496 Q120.718 582.496 117.64 577.913 Q114.584 573.307 114.584 564.58 Q114.584 555.83 117.64 551.247 Q120.718 546.64 126.529 546.64 Z" fill="#000000" fill-rule="nonzero" fill-opacity="1" /><path clip-path="url(#clip420)" d="M146.691 575.945 L151.575 575.945 L151.575 581.825 L146.691 581.825 L146.691 575.945 Z" fill="#000000" fill-rule="nonzero" fill-opacity="1" /><path clip-path="url(#clip420)" d="M171.76 550.344 Q168.149 550.344 166.32 553.909 Q164.515 557.45 164.515 564.58 Q164.515 571.686 166.32 575.251 Q168.149 578.793 171.76 578.793 Q175.394 578.793 177.2 575.251 Q179.028 571.686 179.028 564.58 Q179.028 557.45 177.2 553.909 Q175.394 550.344 171.76 550.344 M171.76 546.64 Q177.57 546.64 180.626 551.247 Q183.704 555.83 183.704 564.58 Q183.704 573.307 180.626 577.913 Q177.57 582.496 171.76 582.496 Q165.95 582.496 162.871 577.913 Q159.815 573.307 159.815 564.58 Q159.815 555.83 162.871 551.247 Q165.95 546.64 171.76 546.64 Z" fill="#000000" fill-rule="nonzero" fill-opacity="1" /><path clip-path="url(#clip420)" d="M202.5 562.682 Q199.352 562.682 197.5 564.834 Q195.672 566.987 195.672 570.737 Q195.672 574.464 197.5 576.64 Q199.352 578.793 202.5 578.793 Q205.649 578.793 207.477 576.64 Q209.329 574.464 209.329 570.737 Q209.329 566.987 207.477 564.834 Q205.649 562.682 202.5 562.682 M211.783 548.029 L211.783 552.288 Q210.024 551.455 208.218 551.015 Q206.436 550.575 204.676 550.575 Q200.047 550.575 197.593 553.7 Q195.163 556.825 194.815 563.145 Q196.181 561.131 198.241 560.066 Q200.301 558.978 202.778 558.978 Q207.987 558.978 210.996 562.149 Q214.028 565.297 214.028 570.737 Q214.028 576.061 210.88 579.279 Q207.732 582.496 202.5 582.496 Q196.505 582.496 193.334 577.913 Q190.163 573.307 190.163 564.58 Q190.163 556.385 194.051 551.524 Q197.94 546.64 204.491 546.64 Q206.25 546.64 208.033 546.987 Q209.838 547.335 211.783 548.029 Z" fill="#000000" fill-rule="nonzero" fill-opacity="1" /><path clip-path="url(#clip420)" d="M126.783 260.738 Q123.172 260.738 121.343 264.302 Q119.538 267.844 119.538 274.974 Q119.538 282.08 121.343 285.645 Q123.172 289.186 126.783 289.186 Q130.417 289.186 132.223 285.645 Q134.052 282.08 134.052 274.974 Q134.052 267.844 132.223 264.302 Q130.417 260.738 126.783 260.738 M126.783 257.034 Q132.593 257.034 135.649 261.64 Q138.728 266.224 138.728 274.974 Q138.728 283.7 135.649 288.307 Q132.593 292.89 126.783 292.89 Q120.973 292.89 117.894 288.307 Q114.839 283.7 114.839 274.974 Q114.839 266.224 117.894 261.64 Q120.973 257.034 126.783 257.034 Z" fill="#000000" fill-rule="nonzero" fill-opacity="1" /><path clip-path="url(#clip420)" d="M146.945 286.339 L151.829 286.339 L151.829 292.219 L146.945 292.219 L146.945 286.339 Z" fill="#000000" fill-rule="nonzero" fill-opacity="1" /><path clip-path="url(#clip420)" d="M172.014 260.738 Q168.403 260.738 166.575 264.302 Q164.769 267.844 164.769 274.974 Q164.769 282.08 166.575 285.645 Q168.403 289.186 172.014 289.186 Q175.649 289.186 177.454 285.645 Q179.283 282.08 179.283 274.974 Q179.283 267.844 177.454 264.302 Q175.649 260.738 172.014 260.738 M172.014 257.034 Q177.825 257.034 180.88 261.64 Q183.959 266.224 183.959 274.974 Q183.959 283.7 180.88 288.307 Q177.825 292.89 172.014 292.89 Q166.204 292.89 163.126 288.307 Q160.07 283.7 160.07 274.974 Q160.07 266.224 163.126 261.64 Q166.204 257.034 172.014 257.034 Z" fill="#000000" fill-rule="nonzero" fill-opacity="1" /><path clip-path="url(#clip420)" d="M202.176 275.807 Q198.843 275.807 196.922 277.589 Q195.024 279.372 195.024 282.497 Q195.024 285.622 196.922 287.404 Q198.843 289.186 202.176 289.186 Q205.51 289.186 207.431 287.404 Q209.352 285.599 209.352 282.497 Q209.352 279.372 207.431 277.589 Q205.533 275.807 202.176 275.807 M197.5 273.816 Q194.491 273.075 192.801 271.015 Q191.135 268.955 191.135 265.992 Q191.135 261.849 194.075 259.441 Q197.037 257.034 202.176 257.034 Q207.338 257.034 210.278 259.441 Q213.218 261.849 213.218 265.992 Q213.218 268.955 211.528 271.015 Q209.861 273.075 206.875 273.816 Q210.255 274.603 212.13 276.895 Q214.028 279.187 214.028 282.497 Q214.028 287.52 210.949 290.205 Q207.894 292.89 202.176 292.89 Q196.459 292.89 193.38 290.205 Q190.325 287.52 190.325 282.497 Q190.325 279.187 192.223 276.895 Q194.121 274.603 197.5 273.816 M195.787 266.432 Q195.787 269.117 197.454 270.622 Q199.144 272.126 202.176 272.126 Q205.186 272.126 206.875 270.622 Q208.588 269.117 208.588 266.432 Q208.588 263.747 206.875 262.242 Q205.186 260.738 202.176 260.738 Q199.144 260.738 197.454 262.242 Q195.787 263.747 195.787 266.432 Z" fill="#000000" fill-rule="nonzero" fill-opacity="1" /><path clip-path="url(#clip420)" d="M20.1444 822.469 L26.9239 822.469 Q23.9002 825.715 22.4043 829.407 Q20.9083 833.067 20.9083 837.205 Q20.9083 845.353 25.9054 849.682 Q30.8707 854.011 40.2919 854.011 Q49.6813 854.011 54.6784 849.682 Q59.6436 845.353 59.6436 837.205 Q59.6436 833.067 58.1477 829.407 Q56.6518 825.715 53.6281 822.469 L60.3439 822.469 Q62.6355 825.842 63.7814 829.63 Q64.9272 833.386 64.9272 837.587 Q64.9272 848.377 58.3387 854.584 Q51.7183 860.79 40.2919 860.79 Q28.8336 860.79 22.2451 854.584 Q15.6248 848.377 15.6248 837.587 Q15.6248 833.322 16.7706 829.566 Q17.8846 825.779 20.1444 822.469 Z" fill="#000000" fill-rule="nonzero" fill-opacity="1" /><path clip-path="url(#clip420)" d="M64.0042 800.284 L16.4842 818.426 L16.4842 811.711 L56.4926 796.656 L16.4842 781.569 L16.4842 774.885 L64.0042 792.995 L64.0042 800.284 Z" fill="#000000" fill-rule="nonzero" fill-opacity="1" /><path clip-path="url(#clip420)" d="M46.0847 757.061 Q46.0847 764.159 47.7079 766.896 Q49.3312 769.633 53.2461 769.633 Q56.3653 769.633 58.2114 767.596 Q60.0256 765.527 60.0256 761.994 Q60.0256 757.125 56.5881 754.196 Q53.1188 751.236 47.3897 751.236 L46.0847 751.236 L46.0847 757.061 M43.6657 745.38 L64.0042 745.38 L64.0042 751.236 L58.5933 751.236 Q61.8398 753.242 63.3994 756.233 Q64.9272 759.225 64.9272 763.554 Q64.9272 769.028 61.8716 772.275 Q58.7843 775.49 53.6281 775.49 Q47.6125 775.49 44.5569 771.479 Q41.5014 767.437 41.5014 759.448 L41.5014 751.236 L40.9285 751.236 Q36.8862 751.236 34.6901 753.91 Q32.4621 756.552 32.4621 761.358 Q32.4621 764.413 33.1941 767.31 Q33.9262 770.206 35.3903 772.88 L29.9795 772.88 Q28.7381 769.665 28.1334 766.641 Q27.4968 763.618 27.4968 760.753 Q27.4968 753.019 31.5072 749.199 Q35.5176 745.38 43.6657 745.38 Z" fill="#000000" fill-rule="nonzero" fill-opacity="1" /><path clip-path="url(#clip420)" d="M41.7242 710.528 Q42.4244 708.459 44.7161 706.517 Q47.0077 704.544 51.0181 702.571 L64.0042 696.046 L64.0042 702.952 L51.8138 709.032 Q47.0395 711.387 45.48 713.615 Q43.9204 715.811 43.9204 719.631 L43.9204 726.633 L64.0042 726.633 L64.0042 733.062 L16.4842 733.062 L16.4842 718.548 Q16.4842 710.4 19.8898 706.39 Q23.2955 702.38 30.1704 702.38 Q34.6582 702.38 37.6183 704.48 Q40.5784 706.549 41.7242 710.528 M21.7677 726.633 L38.6368 726.633 L38.6368 718.548 Q38.6368 713.901 36.5043 711.546 Q34.34 709.159 30.1704 709.159 Q26.0009 709.159 23.9002 711.546 Q21.7677 713.901 21.7677 718.548 L21.7677 726.633 Z" fill="#000000" fill-rule="nonzero" fill-opacity="1" /><path clip-path="url(#clip420)" d="M36.2136 18.8205 L36.2136 41.5461 L46.5029 41.5461 Q52.2147 41.5461 55.3339 38.5889 Q58.4531 35.6318 58.4531 30.163 Q58.4531 24.7348 55.3339 21.7777 Q52.2147 18.8205 46.5029 18.8205 L36.2136 18.8205 M28.0308 12.096 L46.5029 12.096 Q56.6707 12.096 61.8558 16.714 Q67.0815 21.2916 67.0815 30.163 Q67.0815 39.1155 61.8558 43.6931 Q56.6707 48.2706 46.5029 48.2706 L36.2136 48.2706 L36.2136 72.576 L28.0308 72.576 L28.0308 12.096 Z" fill="#000000" fill-rule="nonzero" fill-opacity="1" /><path clip-path="url(#clip420)" d="M113.586 48.0275 L113.586 51.6733 L79.3152 51.6733 Q79.8013 59.3701 83.9333 63.421 Q88.1057 67.4314 95.5189 67.4314 Q99.8128 67.4314 103.823 66.3781 Q107.874 65.3249 111.844 63.2184 L111.844 70.267 Q107.834 71.9684 103.621 72.8596 Q99.4077 73.7508 95.0733 73.7508 Q84.2168 73.7508 77.8569 67.4314 Q71.5375 61.1119 71.5375 50.3365 Q71.5375 39.1965 77.5328 32.6746 Q83.5687 26.1121 93.777 26.1121 Q102.932 26.1121 108.239 32.0264 Q113.586 37.9003 113.586 48.0275 M106.132 45.84 Q106.051 39.7232 102.689 36.0774 Q99.3672 32.4315 93.858 32.4315 Q87.6196 32.4315 83.8523 35.9558 Q80.1254 39.4801 79.5583 45.8805 L106.132 45.84 Z" fill="#000000" fill-rule="nonzero" fill-opacity="1" /><path clip-path="url(#clip420)" d="M152.11 34.1734 Q150.854 33.4443 149.355 33.1202 Q147.897 32.7556 146.115 32.7556 Q139.795 32.7556 136.392 36.8875 Q133.03 40.9789 133.03 48.6757 L133.03 72.576 L125.536 72.576 L125.536 27.2059 L133.03 27.2059 L133.03 34.2544 Q135.38 30.1225 139.147 28.1376 Q142.914 26.1121 148.302 26.1121 Q149.072 26.1121 150.004 26.2337 Q150.935 26.3147 152.069 26.5172 L152.11 34.1734 Z" fill="#000000" fill-rule="nonzero" fill-opacity="1" /><path clip-path="url(#clip420)" d="M150.854 46.5287 L172.689 46.5287 L172.689 53.1722 L150.854 53.1722 L150.854 46.5287 Z" fill="#000000" fill-rule="nonzero" fill-opacity="1" /><path clip-path="url(#clip420)" d="M205.177 49.7694 Q196.143 49.7694 192.66 51.8354 Q189.176 53.9013 189.176 58.8839 Q189.176 62.8538 191.768 65.2034 Q194.401 67.5124 198.898 67.5124 Q205.096 67.5124 208.823 63.1374 Q212.59 58.7219 212.59 51.4303 L212.59 49.7694 L205.177 49.7694 M220.044 46.6907 L220.044 72.576 L212.59 72.576 L212.59 65.6895 Q210.038 69.8214 206.23 71.8063 Q202.422 73.7508 196.913 73.7508 Q189.945 73.7508 185.814 69.8619 Q181.722 65.9325 181.722 59.3701 Q181.722 51.7138 186.826 47.825 Q191.971 43.9361 202.139 43.9361 L212.59 43.9361 L212.59 43.2069 Q212.59 38.0623 209.187 35.2672 Q205.825 32.4315 199.708 32.4315 Q195.819 32.4315 192.133 33.3632 Q188.447 34.295 185.044 36.1584 L185.044 29.2718 Q189.135 27.692 192.984 26.9223 Q196.832 26.1121 200.478 26.1121 Q210.321 26.1121 215.183 31.2163 Q220.044 36.3204 220.044 46.6907 Z" fill="#000000" fill-rule="nonzero" fill-opacity="1" /><path clip-path="url(#clip420)" d="M264.32 28.5427 L264.32 35.5912 Q261.16 33.9709 257.758 33.1607 Q254.355 32.3505 250.709 32.3505 Q245.159 32.3505 242.364 34.0519 Q239.61 35.7533 239.61 39.156 Q239.61 41.7486 241.594 43.2475 Q243.579 44.7058 249.575 46.0426 L252.127 46.6097 Q260.067 48.3111 263.388 51.4303 Q266.751 54.509 266.751 60.0587 Q266.751 66.3781 261.727 70.0644 Q256.745 73.7508 247.995 73.7508 Q244.349 73.7508 240.379 73.0216 Q236.45 72.3329 232.075 70.9151 L232.075 63.2184 Q236.207 65.3654 240.217 66.4591 Q244.228 67.5124 248.157 67.5124 Q253.423 67.5124 256.259 65.73 Q259.094 63.9071 259.094 60.6258 Q259.094 57.5877 257.028 55.9673 Q255.003 54.3469 248.076 52.8481 L245.483 52.2405 Q238.556 50.7821 235.478 47.7845 Q232.399 44.7463 232.399 39.4801 Q232.399 33.0797 236.936 29.5959 Q241.473 26.1121 249.818 26.1121 Q253.95 26.1121 257.596 26.7198 Q261.241 27.3274 264.32 28.5427 Z" fill="#000000" fill-rule="nonzero" fill-opacity="1" /><path clip-path="url(#clip420)" d="M307.543 28.5427 L307.543 35.5912 Q304.383 33.9709 300.981 33.1607 Q297.578 32.3505 293.932 32.3505 Q288.382 32.3505 285.587 34.0519 Q282.833 35.7533 282.833 39.156 Q282.833 41.7486 284.818 43.2475 Q286.803 44.7058 292.798 46.0426 L295.35 46.6097 Q303.29 48.3111 306.611 51.4303 Q309.974 54.509 309.974 60.0587 Q309.974 66.3781 304.951 70.0644 Q299.968 73.7508 291.218 73.7508 Q287.572 73.7508 283.602 73.0216 Q279.673 72.3329 275.298 70.9151 L275.298 63.2184 Q279.43 65.3654 283.44 66.4591 Q287.451 67.5124 291.38 67.5124 Q296.646 67.5124 299.482 65.73 Q302.318 63.9071 302.318 60.6258 Q302.318 57.5877 300.252 55.9673 Q298.226 54.3469 291.299 52.8481 L288.706 52.2405 Q281.779 50.7821 278.701 47.7845 Q275.622 44.7463 275.622 39.4801 Q275.622 33.0797 280.159 29.5959 Q284.696 26.1121 293.041 26.1121 Q297.173 26.1121 300.819 26.7198 Q304.464 27.3274 307.543 28.5427 Z" fill="#000000" fill-rule="nonzero" fill-opacity="1" /><path clip-path="url(#clip420)" d="M360.651 48.0275 L360.651 51.6733 L326.38 51.6733 Q326.866 59.3701 330.998 63.421 Q335.17 67.4314 342.584 67.4314 Q346.877 67.4314 350.888 66.3781 Q354.939 65.3249 358.909 63.2184 L358.909 70.267 Q354.898 71.9684 350.685 72.8596 Q346.472 73.7508 342.138 73.7508 Q331.281 73.7508 324.922 67.4314 Q318.602 61.1119 318.602 50.3365 Q318.602 39.1965 324.597 32.6746 Q330.633 26.1121 340.842 26.1121 Q349.997 26.1121 355.303 32.0264 Q360.651 37.9003 360.651 48.0275 M353.197 45.84 Q353.116 39.7232 349.754 36.0774 Q346.432 32.4315 340.923 32.4315 Q334.684 32.4315 330.917 35.9558 Q327.19 39.4801 326.623 45.8805 L353.197 45.84 Z" fill="#000000" fill-rule="nonzero" fill-opacity="1" /><path clip-path="url(#clip420)" d="M380.257 14.324 L380.257 27.2059 L395.61 27.2059 L395.61 32.9987 L380.257 32.9987 L380.257 57.6282 Q380.257 63.1779 381.756 64.7578 Q383.295 66.3376 387.954 66.3376 L395.61 66.3376 L395.61 72.576 L387.954 72.576 Q379.325 72.576 376.044 69.3758 Q372.763 66.1351 372.763 57.6282 L372.763 32.9987 L367.294 32.9987 L367.294 27.2059 L372.763 27.2059 L372.763 14.324 L380.257 14.324 Z" fill="#000000" fill-rule="nonzero" fill-opacity="1" /><path clip-path="url(#clip420)" d="M477.398 16.7545 L477.398 25.383 Q473.266 21.5346 468.567 19.6307 Q463.908 17.7268 458.642 17.7268 Q448.272 17.7268 442.762 24.0867 Q437.253 30.4061 437.253 42.3968 Q437.253 54.3469 442.762 60.7069 Q448.272 67.0263 458.642 67.0263 Q463.908 67.0263 468.567 65.1223 Q473.266 63.2184 477.398 59.3701 L477.398 67.9175 Q473.104 70.8341 468.283 72.2924 Q463.503 73.7508 458.156 73.7508 Q444.423 73.7508 436.524 65.3654 Q428.625 56.9395 428.625 42.3968 Q428.625 27.8135 436.524 19.4281 Q444.423 11.0023 458.156 11.0023 Q463.584 11.0023 468.364 12.4606 Q473.185 13.8784 477.398 16.7545 Z" fill="#000000" fill-rule="nonzero" fill-opacity="1" /><path clip-path="url(#clip420)" d="M505.632 72.576 L482.542 12.096 L491.09 12.096 L510.25 63.0159 L529.452 12.096 L537.959 12.096 L514.909 72.576 L505.632 72.576 Z" fill="#000000" fill-rule="nonzero" fill-opacity="1" /><path clip-path="url(#clip420)" d="M560.644 49.7694 Q551.61 49.7694 548.126 51.8354 Q544.643 53.9013 544.643 58.8839 Q544.643 62.8538 547.235 65.2034 Q549.868 67.5124 554.365 67.5124 Q560.563 67.5124 564.289 63.1374 Q568.057 58.7219 568.057 51.4303 L568.057 49.7694 L560.644 49.7694 M575.51 46.6907 L575.51 72.576 L568.057 72.576 L568.057 65.6895 Q565.505 69.8214 561.697 71.8063 Q557.889 73.7508 552.38 73.7508 Q545.412 73.7508 541.28 69.8619 Q537.189 65.9325 537.189 59.3701 Q537.189 51.7138 542.293 47.825 Q547.438 43.9361 557.605 43.9361 L568.057 43.9361 L568.057 43.2069 Q568.057 38.0623 564.654 35.2672 Q561.292 32.4315 555.175 32.4315 Q551.286 32.4315 547.6 33.3632 Q543.913 34.295 540.511 36.1584 L540.511 29.2718 Q544.602 27.692 548.45 26.9223 Q552.299 26.1121 555.945 26.1121 Q565.788 26.1121 570.649 31.2163 Q575.51 36.3204 575.51 46.6907 Z" fill="#000000" fill-rule="nonzero" fill-opacity="1" /><path clip-path="url(#clip420)" d="M619.868 44.2197 Q622.501 45.1109 624.972 48.0275 Q627.484 50.9442 629.995 56.0483 L638.3 72.576 L629.509 72.576 L621.772 57.061 Q618.774 50.9847 615.939 48.9997 Q613.143 47.0148 608.282 47.0148 L599.37 47.0148 L599.37 72.576 L591.187 72.576 L591.187 12.096 L609.66 12.096 Q620.03 12.096 625.134 16.4305 Q630.238 20.7649 630.238 29.5149 Q630.238 35.2267 627.565 38.994 Q624.932 42.7613 619.868 44.2197 M599.37 18.8205 L599.37 40.2903 L609.66 40.2903 Q615.574 40.2903 618.572 37.5762 Q621.61 34.8216 621.61 29.5149 Q621.61 24.2082 618.572 21.5346 Q615.574 18.8205 609.66 18.8205 L599.37 18.8205 Z" fill="#000000" fill-rule="nonzero" fill-opacity="1" /><path clip-path="url(#clip420)" d="M671.112 46.9338 L745.973 46.9338 L745.973 52.7671 L671.112 52.7671 L671.112 46.9338 Z" fill="#000000" fill-rule="nonzero" fill-opacity="1" /><path clip-path="url(#clip420)" d="M813.218 44.2197 Q815.851 45.1109 818.322 48.0275 Q820.833 50.9442 823.345 56.0483 L831.649 72.576 L822.859 72.576 L815.121 57.061 Q812.124 50.9847 809.288 48.9997 Q806.493 47.0148 801.632 47.0148 L792.72 47.0148 L792.72 72.576 L784.537 72.576 L784.537 12.096 L803.009 12.096 Q813.38 12.096 818.484 16.4305 Q823.588 20.7649 823.588 29.5149 Q823.588 35.2267 820.914 38.994 Q818.281 42.7613 813.218 44.2197 M792.72 18.8205 L792.72 40.2903 L803.009 40.2903 Q808.924 40.2903 811.921 37.5762 Q814.959 34.8216 814.959 29.5149 Q814.959 24.2082 811.921 21.5346 Q808.924 18.8205 803.009 18.8205 L792.72 18.8205 Z" fill="#000000" fill-rule="nonzero" fill-opacity="1" /><path clip-path="url(#clip420)" d="M860.654 49.7694 Q851.62 49.7694 848.136 51.8354 Q844.653 53.9013 844.653 58.8839 Q844.653 62.8538 847.245 65.2034 Q849.878 67.5124 854.375 67.5124 Q860.573 67.5124 864.299 63.1374 Q868.067 58.7219 868.067 51.4303 L868.067 49.7694 L860.654 49.7694 M875.52 46.6907 L875.52 72.576 L868.067 72.576 L868.067 65.6895 Q865.515 69.8214 861.707 71.8063 Q857.899 73.7508 852.39 73.7508 Q845.422 73.7508 841.29 69.8619 Q837.199 65.9325 837.199 59.3701 Q837.199 51.7138 842.303 47.825 Q847.448 43.9361 857.615 43.9361 L868.067 43.9361 L868.067 43.2069 Q868.067 38.0623 864.664 35.2672 Q861.302 32.4315 855.185 32.4315 Q851.296 32.4315 847.61 33.3632 Q843.923 34.295 840.521 36.1584 L840.521 29.2718 Q844.612 27.692 848.46 26.9223 Q852.309 26.1121 855.955 26.1121 Q865.798 26.1121 870.659 31.2163 Q875.52 36.3204 875.52 46.6907 Z" fill="#000000" fill-rule="nonzero" fill-opacity="1" /><path clip-path="url(#clip420)" d="M928.587 45.1919 L928.587 72.576 L921.134 72.576 L921.134 45.4349 Q921.134 38.994 918.622 35.7938 Q916.111 32.5936 911.087 32.5936 Q905.052 32.5936 901.568 36.4419 Q898.084 40.2903 898.084 46.9338 L898.084 72.576 L890.59 72.576 L890.59 27.2059 L898.084 27.2059 L898.084 34.2544 Q900.758 30.163 904.363 28.1376 Q908.009 26.1121 912.748 26.1121 Q920.567 26.1121 924.577 30.9732 Q928.587 35.7938 928.587 45.1919 Z" fill="#000000" fill-rule="nonzero" fill-opacity="1" /><path clip-path="url(#clip420)" d="M943.171 9.54393 L950.665 9.54393 L950.665 46.7717 L972.904 27.2059 L982.424 27.2059 L958.361 48.4326 L983.437 72.576 L973.714 72.576 L950.665 50.4176 L950.665 72.576 L943.171 72.576 L943.171 9.54393 Z" fill="#000000" fill-rule="nonzero" fill-opacity="1" /><path clip-path="url(#clip420)" d="M1020.5 44.2197 Q1023.14 45.1109 1025.61 48.0275 Q1028.12 50.9442 1030.63 56.0483 L1038.93 72.576 L1030.14 72.576 L1022.41 57.061 Q1019.41 50.9847 1016.57 48.9997 Q1013.78 47.0148 1008.92 47.0148 L1000 47.0148 L1000 72.576 L991.822 72.576 L991.822 12.096 L1010.29 12.096 Q1020.66 12.096 1025.77 16.4305 Q1030.87 20.7649 1030.87 29.5149 Q1030.87 35.2267 1028.2 38.994 Q1025.57 42.7613 1020.5 44.2197 M1000 18.8205 L1000 40.2903 L1010.29 40.2903 Q1016.21 40.2903 1019.21 37.5762 Q1022.24 34.8216 1022.24 29.5149 Q1022.24 24.2082 1019.21 21.5346 Q1016.21 18.8205 1010.29 18.8205 L1000 18.8205 Z" fill="#000000" fill-rule="nonzero" fill-opacity="1" /><path clip-path="url(#clip420)" d="M1044.65 54.671 L1044.65 27.2059 L1052.1 27.2059 L1052.1 54.3874 Q1052.1 60.8284 1054.61 64.0691 Q1057.12 67.2693 1062.15 67.2693 Q1068.18 67.2693 1071.67 63.421 Q1075.19 59.5726 1075.19 52.9291 L1075.19 27.2059 L1082.64 27.2059 L1082.64 72.576 L1075.19 72.576 L1075.19 65.6084 Q1072.48 69.7404 1068.87 71.7658 Q1065.31 73.7508 1060.57 73.7508 Q1052.75 73.7508 1048.7 68.8897 Q1044.65 64.0286 1044.65 54.671 M1063.4 26.1121 L1063.4 26.1121 Z" fill="#000000" fill-rule="nonzero" fill-opacity="1" /><path clip-path="url(#clip420)" d="M1098 9.54393 L1105.45 9.54393 L1105.45 72.576 L1098 72.576 L1098 9.54393 Z" fill="#000000" fill-rule="nonzero" fill-opacity="1" /><path clip-path="url(#clip420)" d="M1159.85 48.0275 L1159.85 51.6733 L1125.58 51.6733 Q1126.07 59.3701 1130.2 63.421 Q1134.37 67.4314 1141.79 67.4314 Q1146.08 67.4314 1150.09 66.3781 Q1154.14 65.3249 1158.11 63.2184 L1158.11 70.267 Q1154.1 71.9684 1149.89 72.8596 Q1145.68 73.7508 1141.34 73.7508 Q1130.48 73.7508 1124.12 67.4314 Q1117.81 61.1119 1117.81 50.3365 Q1117.81 39.1965 1123.8 32.6746 Q1129.84 26.1121 1140.04 26.1121 Q1149.2 26.1121 1154.51 32.0264 Q1159.85 37.9003 1159.85 48.0275 M1152.4 45.84 Q1152.32 39.7232 1148.96 36.0774 Q1145.63 32.4315 1140.13 32.4315 Q1133.89 32.4315 1130.12 35.9558 Q1126.39 39.4801 1125.83 45.8805 L1152.4 45.84 Z" fill="#000000" fill-rule="nonzero" fill-opacity="1" /><path clip-path="url(#clip420)" d="M1189.99 9.62495 Q1184.56 18.942 1181.93 28.0566 Q1179.3 37.1711 1179.3 46.5287 Q1179.3 55.8863 1181.93 65.0818 Q1184.6 74.2369 1189.99 83.5134 L1183.51 83.5134 Q1177.43 73.9938 1174.4 64.7983 Q1171.4 55.6027 1171.4 46.5287 Q1171.4 37.4952 1174.4 28.3401 Q1177.39 19.1851 1183.51 9.62495 L1189.99 9.62495 Z" fill="#000000" fill-rule="nonzero" fill-opacity="1" /><path clip-path="url(#clip420)" d="M1237.02 49.9314 Q1237.02 41.7081 1233.62 37.0496 Q1230.26 32.3505 1224.34 32.3505 Q1218.43 32.3505 1215.03 37.0496 Q1211.66 41.7081 1211.66 49.9314 Q1211.66 58.1548 1215.03 62.8538 Q1218.43 67.5124 1224.34 67.5124 Q1230.26 67.5124 1233.62 62.8538 Q1237.02 58.1548 1237.02 49.9314 M1211.66 34.0924 Q1214.01 30.0415 1217.58 28.0971 Q1221.18 26.1121 1226.17 26.1121 Q1234.43 26.1121 1239.58 32.6746 Q1244.76 39.2371 1244.76 49.9314 Q1244.76 60.6258 1239.58 67.1883 Q1234.43 73.7508 1226.17 73.7508 Q1221.18 73.7508 1217.58 71.8063 Q1214.01 69.8214 1211.66 65.7705 L1211.66 72.576 L1204.17 72.576 L1204.17 9.54393 L1211.66 9.54393 L1211.66 34.0924 Z" fill="#000000" fill-rule="nonzero" fill-opacity="1" /><path clip-path="url(#clip420)" d="M1295.92 48.0275 L1295.92 51.6733 L1261.65 51.6733 Q1262.14 59.3701 1266.27 63.421 Q1270.44 67.4314 1277.86 67.4314 Q1282.15 67.4314 1286.16 66.3781 Q1290.21 65.3249 1294.18 63.2184 L1294.18 70.267 Q1290.17 71.9684 1285.96 72.8596 Q1281.75 73.7508 1277.41 73.7508 Q1266.55 73.7508 1260.19 67.4314 Q1253.87 61.1119 1253.87 50.3365 Q1253.87 39.1965 1259.87 32.6746 Q1265.91 26.1121 1276.11 26.1121 Q1285.27 26.1121 1290.58 32.0264 Q1295.92 37.9003 1295.92 48.0275 M1288.47 45.84 Q1288.39 39.7232 1285.03 36.0774 Q1281.7 32.4315 1276.2 32.4315 Q1269.96 32.4315 1266.19 35.9558 Q1262.46 39.4801 1261.9 45.8805 L1288.47 45.84 Z" fill="#000000" fill-rule="nonzero" fill-opacity="1" /><path clip-path="url(#clip420)" d="M1337.08 28.5427 L1337.08 35.5912 Q1333.92 33.9709 1330.52 33.1607 Q1327.12 32.3505 1323.47 32.3505 Q1317.92 32.3505 1315.12 34.0519 Q1312.37 35.7533 1312.37 39.156 Q1312.37 41.7486 1314.35 43.2475 Q1316.34 44.7058 1322.34 46.0426 L1324.89 46.6097 Q1332.83 48.3111 1336.15 51.4303 Q1339.51 54.509 1339.51 60.0587 Q1339.51 66.3781 1334.49 70.0644 Q1329.51 73.7508 1320.76 73.7508 Q1317.11 73.7508 1313.14 73.0216 Q1309.21 72.3329 1304.84 70.9151 L1304.84 63.2184 Q1308.97 65.3654 1312.98 66.4591 Q1316.99 67.5124 1320.92 67.5124 Q1326.18 67.5124 1329.02 65.73 Q1331.85 63.9071 1331.85 60.6258 Q1331.85 57.5877 1329.79 55.9673 Q1327.76 54.3469 1320.84 52.8481 L1318.24 52.2405 Q1311.32 50.7821 1308.24 47.7845 Q1305.16 44.7463 1305.16 39.4801 Q1305.16 33.0797 1309.7 29.5959 Q1314.23 26.1121 1322.58 26.1121 Q1326.71 26.1121 1330.36 26.7198 Q1334 27.3274 1337.08 28.5427 Z" fill="#000000" fill-rule="nonzero" fill-opacity="1" /><path clip-path="url(#clip420)" d="M1358.75 14.324 L1358.75 27.2059 L1374.11 27.2059 L1374.11 32.9987 L1358.75 32.9987 L1358.75 57.6282 Q1358.75 63.1779 1360.25 64.7578 Q1361.79 66.3376 1366.45 66.3376 L1374.11 66.3376 L1374.11 72.576 L1366.45 72.576 Q1357.82 72.576 1354.54 69.3758 Q1351.26 66.1351 1351.26 57.6282 L1351.26 32.9987 L1345.79 32.9987 L1345.79 27.2059 L1351.26 27.2059 L1351.26 14.324 L1358.75 14.324 Z" fill="#000000" fill-rule="nonzero" fill-opacity="1" /><path clip-path="url(#clip420)" d="M1411.25 34.9026 L1463.19 34.9026 L1463.19 41.7081 L1411.25 41.7081 L1411.25 34.9026 M1411.25 51.4303 L1463.19 51.4303 L1463.19 58.3168 L1411.25 58.3168 L1411.25 51.4303 Z" fill="#000000" fill-rule="nonzero" fill-opacity="1" /><path clip-path="url(#clip420)" d="M1508.64 65.6895 L1522 65.6895 L1522 19.5497 L1507.46 22.4663 L1507.46 15.0127 L1521.92 12.096 L1530.11 12.096 L1530.11 65.6895 L1543.47 65.6895 L1543.47 72.576 L1508.64 72.576 L1508.64 65.6895 Z" fill="#000000" fill-rule="nonzero" fill-opacity="1" /><path clip-path="url(#clip420)" d="M1577.5 17.4837 Q1571.18 17.4837 1567.98 23.7221 Q1564.82 29.92 1564.82 42.3968 Q1564.82 54.833 1567.98 61.0714 Q1571.18 67.2693 1577.5 67.2693 Q1583.86 67.2693 1587.02 61.0714 Q1590.22 54.833 1590.22 42.3968 Q1590.22 29.92 1587.02 23.7221 Q1583.86 17.4837 1577.5 17.4837 M1577.5 11.0023 Q1587.67 11.0023 1593.02 19.0636 Q1598.4 27.0843 1598.4 42.3968 Q1598.4 57.6687 1593.02 65.73 Q1587.67 73.7508 1577.5 73.7508 Q1567.33 73.7508 1561.95 65.73 Q1556.6 57.6687 1556.6 42.3968 Q1556.6 27.0843 1561.95 19.0636 Q1567.33 11.0023 1577.5 11.0023 Z" fill="#000000" fill-rule="nonzero" fill-opacity="1" /><path clip-path="url(#clip420)" d="M1610.56 9.62495 L1617.04 9.62495 Q1623.11 19.1851 1626.11 28.3401 Q1629.15 37.4952 1629.15 46.5287 Q1629.15 55.6027 1626.11 64.7983 Q1623.11 73.9938 1617.04 83.5134 L1610.56 83.5134 Q1615.94 74.2369 1618.58 65.0818 Q1621.25 55.8863 1621.25 46.5287 Q1621.25 37.1711 1618.58 28.0566 Q1615.94 18.942 1610.56 9.62495 Z" fill="#000000" fill-rule="nonzero" fill-opacity="1" /><path clip-path="url(#clip420)" d="M1670.19 9.54393 L1677.68 9.54393 L1677.68 46.7717 L1699.92 27.2059 L1709.44 27.2059 L1685.38 48.4326 L1710.45 72.576 L1700.73 72.576 L1677.68 50.4176 L1677.68 72.576 L1670.19 72.576 L1670.19 9.54393 Z" fill="#000000" fill-rule="nonzero" fill-opacity="1" /><path clip-path="url(#clip420)" d="M1754.36 48.0275 L1754.36 51.6733 L1720.09 51.6733 Q1720.58 59.3701 1724.71 63.421 Q1728.88 67.4314 1736.3 67.4314 Q1740.59 67.4314 1744.6 66.3781 Q1748.65 65.3249 1752.62 63.2184 L1752.62 70.267 Q1748.61 71.9684 1744.4 72.8596 Q1740.19 73.7508 1735.85 73.7508 Q1725 73.7508 1718.64 67.4314 Q1712.32 61.1119 1712.32 50.3365 Q1712.32 39.1965 1718.31 32.6746 Q1724.35 26.1121 1734.56 26.1121 Q1743.71 26.1121 1749.02 32.0264 Q1754.36 37.9003 1754.36 48.0275 M1746.91 45.84 Q1746.83 39.7232 1743.47 36.0774 Q1740.15 32.4315 1734.64 32.4315 Q1728.4 32.4315 1724.63 35.9558 Q1720.9 39.4801 1720.34 45.8805 L1746.91 45.84 Z" fill="#000000" fill-rule="nonzero" fill-opacity="1" /><path clip-path="url(#clip420)" d="M1805.41 48.0275 L1805.41 51.6733 L1771.13 51.6733 Q1771.62 59.3701 1775.75 63.421 Q1779.93 67.4314 1787.34 67.4314 Q1791.63 67.4314 1795.64 66.3781 Q1799.69 65.3249 1803.66 63.2184 L1803.66 70.267 Q1799.65 71.9684 1795.44 72.8596 Q1791.23 73.7508 1786.89 73.7508 Q1776.04 73.7508 1769.68 67.4314 Q1763.36 61.1119 1763.36 50.3365 Q1763.36 39.1965 1769.35 32.6746 Q1775.39 26.1121 1785.6 26.1121 Q1794.75 26.1121 1800.06 32.0264 Q1805.41 37.9003 1805.41 48.0275 M1797.95 45.84 Q1797.87 39.7232 1794.51 36.0774 Q1791.19 32.4315 1785.68 32.4315 Q1779.44 32.4315 1775.67 35.9558 Q1771.95 39.4801 1771.38 45.8805 L1797.95 45.84 Z" fill="#000000" fill-rule="nonzero" fill-opacity="1" /><path clip-path="url(#clip420)" d="M1824.85 65.7705 L1824.85 89.8329 L1817.36 89.8329 L1817.36 27.2059 L1824.85 27.2059 L1824.85 34.0924 Q1827.2 30.0415 1830.76 28.0971 Q1834.37 26.1121 1839.35 26.1121 Q1847.62 26.1121 1852.76 32.6746 Q1857.95 39.2371 1857.95 49.9314 Q1857.95 60.6258 1852.76 67.1883 Q1847.62 73.7508 1839.35 73.7508 Q1834.37 73.7508 1830.76 71.8063 Q1827.2 69.8214 1824.85 65.7705 M1850.21 49.9314 Q1850.21 41.7081 1846.81 37.0496 Q1843.44 32.3505 1837.53 32.3505 Q1831.61 32.3505 1828.21 37.0496 Q1824.85 41.7081 1824.85 49.9314 Q1824.85 58.1548 1828.21 62.8538 Q1831.61 67.5124 1837.53 67.5124 Q1843.44 67.5124 1846.81 62.8538 Q1850.21 58.1548 1850.21 49.9314 Z" fill="#000000" fill-rule="nonzero" fill-opacity="1" /><path clip-path="url(#clip420)" d="M1899.22 28.5427 L1899.22 35.5912 Q1896.06 33.9709 1892.66 33.1607 Q1889.26 32.3505 1885.61 32.3505 Q1880.06 32.3505 1877.27 34.0519 Q1874.51 35.7533 1874.51 39.156 Q1874.51 41.7486 1876.5 43.2475 Q1878.48 44.7058 1884.48 46.0426 L1887.03 46.6097 Q1894.97 48.3111 1898.29 51.4303 Q1901.66 54.509 1901.66 60.0587 Q1901.66 66.3781 1896.63 70.0644 Q1891.65 73.7508 1882.9 73.7508 Q1879.25 73.7508 1875.28 73.0216 Q1871.35 72.3329 1866.98 70.9151 L1866.98 63.2184 Q1871.11 65.3654 1875.12 66.4591 Q1879.13 67.5124 1883.06 67.5124 Q1888.33 67.5124 1891.16 65.73 Q1894 63.9071 1894 60.6258 Q1894 57.5877 1891.93 55.9673 Q1889.91 54.3469 1882.98 52.8481 L1880.39 52.2405 Q1873.46 50.7821 1870.38 47.7845 Q1867.3 44.7463 1867.3 39.4801 Q1867.3 33.0797 1871.84 29.5959 Q1876.38 26.1121 1884.72 26.1121 Q1888.85 26.1121 1892.5 26.7198 Q1896.15 27.3274 1899.22 28.5427 Z" fill="#000000" fill-rule="nonzero" fill-opacity="1" /><path clip-path="url(#clip420)" d="M1947.27 14.324 L1947.27 27.2059 L1962.62 27.2059 L1962.62 32.9987 L1947.27 32.9987 L1947.27 57.6282 Q1947.27 63.1779 1948.77 64.7578 Q1950.31 66.3376 1954.96 66.3376 L1962.62 66.3376 L1962.62 72.576 L1954.96 72.576 Q1946.34 72.576 1943.06 69.3758 Q1939.77 66.1351 1939.77 57.6282 L1939.77 32.9987 L1934.31 32.9987 L1934.31 27.2059 L1939.77 27.2059 L1939.77 14.324 L1947.27 14.324 Z" fill="#000000" fill-rule="nonzero" fill-opacity="1" /><path clip-path="url(#clip420)" d="M2010.14 45.1919 L2010.14 72.576 L2002.68 72.576 L2002.68 45.4349 Q2002.68 38.994 2000.17 35.7938 Q1997.66 32.5936 1992.64 32.5936 Q1986.6 32.5936 1983.12 36.4419 Q1979.63 40.2903 1979.63 46.9338 L1979.63 72.576 L1972.14 72.576 L1972.14 9.54393 L1979.63 9.54393 L1979.63 34.2544 Q1982.31 30.163 1985.91 28.1376 Q1989.56 26.1121 1994.3 26.1121 Q2002.12 26.1121 2006.13 30.9732 Q2010.14 35.7938 2010.14 45.1919 Z" fill="#000000" fill-rule="nonzero" fill-opacity="1" /><path clip-path="url(#clip420)" d="M2063.81 48.0275 L2063.81 51.6733 L2029.54 51.6733 Q2030.03 59.3701 2034.16 63.421 Q2038.33 67.4314 2045.75 67.4314 Q2050.04 67.4314 2054.05 66.3781 Q2058.1 65.3249 2062.07 63.2184 L2062.07 70.267 Q2058.06 71.9684 2053.85 72.8596 Q2049.63 73.7508 2045.3 73.7508 Q2034.44 73.7508 2028.08 67.4314 Q2021.76 61.1119 2021.76 50.3365 Q2021.76 39.1965 2027.76 32.6746 Q2033.8 26.1121 2044 26.1121 Q2053.16 26.1121 2058.47 32.0264 Q2063.81 37.9003 2063.81 48.0275 M2056.36 45.84 Q2056.28 39.7232 2052.92 36.0774 Q2049.59 32.4315 2044.08 32.4315 Q2037.85 32.4315 2034.08 35.9558 Q2030.35 39.4801 2029.79 45.8805 L2056.36 45.84 Z" fill="#000000" fill-rule="nonzero" fill-opacity="1" /><path clip-path="url(#clip420)" d="M2134.99 49.9314 Q2134.99 41.7081 2131.58 37.0496 Q2128.22 32.3505 2122.31 32.3505 Q2116.39 32.3505 2112.99 37.0496 Q2109.63 41.7081 2109.63 49.9314 Q2109.63 58.1548 2112.99 62.8538 Q2116.39 67.5124 2122.31 67.5124 Q2128.22 67.5124 2131.58 62.8538 Q2134.99 58.1548 2134.99 49.9314 M2109.63 34.0924 Q2111.98 30.0415 2115.54 28.0971 Q2119.15 26.1121 2124.13 26.1121 Q2132.39 26.1121 2137.54 32.6746 Q2142.72 39.2371 2142.72 49.9314 Q2142.72 60.6258 2137.54 67.1883 Q2132.39 73.7508 2124.13 73.7508 Q2119.15 73.7508 2115.54 71.8063 Q2111.98 69.8214 2109.63 65.7705 L2109.63 72.576 L2102.13 72.576 L2102.13 9.54393 L2109.63 9.54393 L2109.63 34.0924 Z" fill="#000000" fill-rule="nonzero" fill-opacity="1" /><path clip-path="url(#clip420)" d="M2155.08 9.54393 L2162.53 9.54393 L2162.53 72.576 L2155.08 72.576 L2155.08 9.54393 Z" fill="#000000" fill-rule="nonzero" fill-opacity="1" /><path clip-path="url(#clip420)" d="M2177.36 54.671 L2177.36 27.2059 L2184.81 27.2059 L2184.81 54.3874 Q2184.81 60.8284 2187.32 64.0691 Q2189.84 67.2693 2194.86 67.2693 Q2200.9 67.2693 2204.38 63.421 Q2207.9 59.5726 2207.9 52.9291 L2207.9 27.2059 L2215.36 27.2059 L2215.36 72.576 L2207.9 72.576 L2207.9 65.6084 Q2205.19 69.7404 2201.58 71.7658 Q2198.02 73.7508 2193.28 73.7508 Q2185.46 73.7508 2181.41 68.8897 Q2177.36 64.0286 2177.36 54.671 M2196.12 26.1121 L2196.12 26.1121 Z" fill="#000000" fill-rule="nonzero" fill-opacity="1" /><path clip-path="url(#clip420)" d="M2269.52 48.0275 L2269.52 51.6733 L2235.25 51.6733 Q2235.73 59.3701 2239.87 63.421 Q2244.04 67.4314 2251.45 67.4314 Q2255.74 67.4314 2259.75 66.3781 Q2263.81 65.3249 2267.78 63.2184 L2267.78 70.267 Q2263.77 71.9684 2259.55 72.8596 Q2255.34 73.7508 2251 73.7508 Q2240.15 73.7508 2233.79 67.4314 Q2227.47 61.1119 2227.47 50.3365 Q2227.47 39.1965 2233.46 32.6746 Q2239.5 26.1121 2249.71 26.1121 Q2258.86 26.1121 2264.17 32.0264 Q2269.52 37.9003 2269.52 48.0275 M2262.06 45.84 Q2261.98 39.7232 2258.62 36.0774 Q2255.3 32.4315 2249.79 32.4315 Q2243.55 32.4315 2239.78 35.9558 Q2236.06 39.4801 2235.49 45.8805 L2262.06 45.84 Z" fill="#000000" fill-rule="nonzero" fill-opacity="1" /><path clip-path="url(#clip420)" d="M2345.84 45.1919 L2345.84 72.576 L2338.38 72.576 L2338.38 45.4349 Q2338.38 38.994 2335.87 35.7938 Q2333.36 32.5936 2328.34 32.5936 Q2322.3 32.5936 2318.82 36.4419 Q2315.33 40.2903 2315.33 46.9338 L2315.33 72.576 L2307.84 72.576 L2307.84 27.2059 L2315.33 27.2059 L2315.33 34.2544 Q2318.01 30.163 2321.61 28.1376 Q2325.26 26.1121 2330 26.1121 Q2337.82 26.1121 2341.83 30.9732 Q2345.84 35.7938 2345.84 45.1919 Z" fill="#000000" fill-rule="nonzero" fill-opacity="1" /><path clip-path="url(#clip420)" d="M2381.32 49.7694 Q2372.29 49.7694 2368.81 51.8354 Q2365.32 53.9013 2365.32 58.8839 Q2365.32 62.8538 2367.91 65.2034 Q2370.55 67.5124 2375.04 67.5124 Q2381.24 67.5124 2384.97 63.1374 Q2388.74 58.7219 2388.74 51.4303 L2388.74 49.7694 L2381.32 49.7694 M2396.19 46.6907 L2396.19 72.576 L2388.74 72.576 L2388.74 65.6895 Q2386.18 69.8214 2382.38 71.8063 Q2378.57 73.7508 2373.06 73.7508 Q2366.09 73.7508 2361.96 69.8619 Q2357.87 65.9325 2357.87 59.3701 Q2357.87 51.7138 2362.97 47.825 Q2368.12 43.9361 2378.28 43.9361 L2388.74 43.9361 L2388.74 43.2069 Q2388.74 38.0623 2385.33 35.2672 Q2381.97 32.4315 2375.85 32.4315 Q2371.96 32.4315 2368.28 33.3632 Q2364.59 34.295 2361.19 36.1584 L2361.19 29.2718 Q2365.28 27.692 2369.13 26.9223 Q2372.98 26.1121 2376.62 26.1121 Q2386.47 26.1121 2391.33 31.2163 Q2396.19 36.3204 2396.19 46.6907 Z" fill="#000000" fill-rule="nonzero" fill-opacity="1" /><path clip-path="url(#clip420)" d="M2446.87 35.9153 Q2449.66 30.8922 2453.55 28.5022 Q2457.44 26.1121 2462.71 26.1121 Q2469.79 26.1121 2473.64 31.0947 Q2477.49 36.0368 2477.49 45.1919 L2477.49 72.576 L2470 72.576 L2470 45.4349 Q2470 38.913 2467.69 35.7533 Q2465.38 32.5936 2460.64 32.5936 Q2454.85 32.5936 2451.48 36.4419 Q2448.12 40.2903 2448.12 46.9338 L2448.12 72.576 L2440.63 72.576 L2440.63 45.4349 Q2440.63 38.8725 2438.32 35.7533 Q2436.01 32.5936 2431.19 32.5936 Q2425.48 32.5936 2422.12 36.4824 Q2418.75 40.3308 2418.75 46.9338 L2418.75 72.576 L2411.26 72.576 L2411.26 27.2059 L2418.75 27.2059 L2418.75 34.2544 Q2421.31 30.082 2424.87 28.0971 Q2428.43 26.1121 2433.34 26.1121 Q2438.28 26.1121 2441.72 28.6237 Q2445.21 31.1352 2446.87 35.9153 Z" fill="#000000" fill-rule="nonzero" fill-opacity="1" /><path clip-path="url(#clip420)" d="M2531.17 48.0275 L2531.17 51.6733 L2496.89 51.6733 Q2497.38 59.3701 2501.51 63.421 Q2505.69 67.4314 2513.1 67.4314 Q2517.39 67.4314 2521.4 66.3781 Q2525.45 65.3249 2529.42 63.2184 L2529.42 70.267 Q2525.41 71.9684 2521.2 72.8596 Q2516.99 73.7508 2512.65 73.7508 Q2501.8 73.7508 2495.44 67.4314 Q2489.12 61.1119 2489.12 50.3365 Q2489.12 39.1965 2495.11 32.6746 Q2501.15 26.1121 2511.36 26.1121 Q2520.51 26.1121 2525.82 32.0264 Q2531.17 37.9003 2531.17 48.0275 M2523.71 45.84 Q2523.63 39.7232 2520.27 36.0774 Q2516.95 32.4315 2511.44 32.4315 Q2505.2 32.4315 2501.43 35.9558 Q2497.71 39.4801 2497.14 45.8805 L2523.71 45.84 Z" fill="#000000" fill-rule="nonzero" fill-opacity="1" /><path clip-path="url(#clip420)" d="M2572.32 28.5427 L2572.32 35.5912 Q2569.16 33.9709 2565.76 33.1607 Q2562.36 32.3505 2558.71 32.3505 Q2553.16 32.3505 2550.37 34.0519 Q2547.61 35.7533 2547.61 39.156 Q2547.61 41.7486 2549.6 43.2475 Q2551.58 44.7058 2557.58 46.0426 L2560.13 46.6097 Q2568.07 48.3111 2571.39 51.4303 Q2574.75 54.509 2574.75 60.0587 Q2574.75 66.3781 2569.73 70.0644 Q2564.75 73.7508 2556 73.7508 Q2552.35 73.7508 2548.38 73.0216 Q2544.45 72.3329 2540.08 70.9151 L2540.08 63.2184 Q2544.21 65.3654 2548.22 66.4591 Q2552.23 67.5124 2556.16 67.5124 Q2561.43 67.5124 2564.26 65.73 Q2567.1 63.9071 2567.1 60.6258 Q2567.1 57.5877 2565.03 55.9673 Q2563.01 54.3469 2556.08 52.8481 L2553.49 52.2405 Q2546.56 50.7821 2543.48 47.7845 Q2540.4 44.7463 2540.4 39.4801 Q2540.4 33.0797 2544.94 29.5959 Q2549.48 26.1121 2557.82 26.1121 Q2561.95 26.1121 2565.6 26.7198 Q2569.24 27.3274 2572.32 28.5427 Z" fill="#000000" fill-rule="nonzero" fill-opacity="1" /><path clip-path="url(#clip421)" d="M365.682 992.459 L365.682 1433.36 L441.295 1433.36 L441.295 992.459 L365.682 992.459 L365.682 992.459  Z" fill="#4682b4" fill-rule="evenodd" fill-opacity="1"/>
<polyline clip-path="url(#clip421)" style="stroke:#000000; stroke-linecap:round; stroke-linejoin:round; stroke-width:4; stroke-opacity:1; fill:none" points="365.682,992.459 365.682,1433.36 441.295,1433.36 441.295,992.459 365.682,992.459 "/>
<path clip-path="url(#clip421)" d="M460.198 962.702 L460.198 1433.36 L535.811 1433.36 L535.811 962.702 L460.198 962.702 L460.198 962.702  Z" fill="#4682b4" fill-rule="evenodd" fill-opacity="1"/>
<polyline clip-path="url(#clip421)" style="stroke:#000000; stroke-linecap:round; stroke-linejoin:round; stroke-width:4; stroke-opacity:1; fill:none" points="460.198,962.702 460.198,1433.36 535.811,1433.36 535.811,962.702 460.198,962.702 "/>
<path clip-path="url(#clip421)" d="M554.714 958.929 L554.714 1433.36 L630.327 1433.36 L630.327 958.929 L554.714 958.929 L554.714 958.929  Z" fill="#4682b4" fill-rule="evenodd" fill-opacity="1"/>
<polyline clip-path="url(#clip421)" style="stroke:#000000; stroke-linecap:round; stroke-linejoin:round; stroke-width:4; stroke-opacity:1; fill:none" points="554.714,958.929 554.714,1433.36 630.327,1433.36 630.327,958.929 554.714,958.929 "/>
<path clip-path="url(#clip421)" d="M649.23 943.943 L649.23 1433.36 L724.843 1433.36 L724.843 943.943 L649.23 943.943 L649.23 943.943  Z" fill="#4682b4" fill-rule="evenodd" fill-opacity="1"/>
<polyline clip-path="url(#clip421)" style="stroke:#000000; stroke-linecap:round; stroke-linejoin:round; stroke-width:4; stroke-opacity:1; fill:none" points="649.23,943.943 649.23,1433.36 724.843,1433.36 724.843,943.943 649.23,943.943 "/>
<path clip-path="url(#clip421)" d="M743.747 917.539 L743.747 1433.36 L819.36 1433.36 L819.36 917.539 L743.747 917.539 L743.747 917.539  Z" fill="#4682b4" fill-rule="evenodd" fill-opacity="1"/>
<polyline clip-path="url(#clip421)" style="stroke:#000000; stroke-linecap:round; stroke-linejoin:round; stroke-width:4; stroke-opacity:1; fill:none" points="743.747,917.539 743.747,1433.36 819.36,1433.36 819.36,917.539 743.747,917.539 "/>
<path clip-path="url(#clip421)" d="M838.263 909.876 L838.263 1433.36 L913.876 1433.36 L913.876 909.876 L838.263 909.876 L838.263 909.876  Z" fill="#4682b4" fill-rule="evenodd" fill-opacity="1"/>
<polyline clip-path="url(#clip421)" style="stroke:#000000; stroke-linecap:round; stroke-linejoin:round; stroke-width:4; stroke-opacity:1; fill:none" points="838.263,909.876 838.263,1433.36 913.876,1433.36 913.876,909.876 838.263,909.876 "/>
<path clip-path="url(#clip421)" d="M932.779 882.058 L932.779 1433.36 L1008.39 1433.36 L1008.39 882.058 L932.779 882.058 L932.779 882.058  Z" fill="#4682b4" fill-rule="evenodd" fill-opacity="1"/>
<polyline clip-path="url(#clip421)" style="stroke:#000000; stroke-linecap:round; stroke-linejoin:round; stroke-width:4; stroke-opacity:1; fill:none" points="932.779,882.058 932.779,1433.36 1008.39,1433.36 1008.39,882.058 932.779,882.058 "/>
<path clip-path="url(#clip421)" d="M1027.3 871.405 L1027.3 1433.36 L1102.91 1433.36 L1102.91 871.405 L1027.3 871.405 L1027.3 871.405  Z" fill="#4682b4" fill-rule="evenodd" fill-opacity="1"/>
<polyline clip-path="url(#clip421)" style="stroke:#000000; stroke-linecap:round; stroke-linejoin:round; stroke-width:4; stroke-opacity:1; fill:none" points="1027.3,871.405 1027.3,1433.36 1102.91,1433.36 1102.91,871.405 1027.3,871.405 "/>
<path clip-path="url(#clip421)" d="M1121.81 812.485 L1121.81 1433.36 L1197.42 1433.36 L1197.42 812.485 L1121.81 812.485 L1121.81 812.485  Z" fill="#4682b4" fill-rule="evenodd" fill-opacity="1"/>
<polyline clip-path="url(#clip421)" style="stroke:#000000; stroke-linecap:round; stroke-linejoin:round; stroke-width:4; stroke-opacity:1; fill:none" points="1121.81,812.485 1121.81,1433.36 1197.42,1433.36 1197.42,812.485 1121.81,812.485 "/>
<path clip-path="url(#clip421)" d="M1216.33 780.431 L1216.33 1433.36 L1291.94 1433.36 L1291.94 780.431 L1216.33 780.431 L1216.33 780.431  Z" fill="#4682b4" fill-rule="evenodd" fill-opacity="1"/>
<polyline clip-path="url(#clip421)" style="stroke:#000000; stroke-linecap:round; stroke-linejoin:round; stroke-width:4; stroke-opacity:1; fill:none" points="1216.33,780.431 1216.33,1433.36 1291.94,1433.36 1291.94,780.431 1216.33,780.431 "/>
<path clip-path="url(#clip421)" d="M1310.84 780.285 L1310.84 1433.36 L1386.46 1433.36 L1386.46 780.285 L1310.84 780.285 L1310.84 780.285  Z" fill="#d3d3d3" fill-rule="evenodd" fill-opacity="1"/>
<polyline clip-path="url(#clip421)" style="stroke:#000000; stroke-linecap:round; stroke-linejoin:round; stroke-width:4; stroke-opacity:1; fill:none" points="1310.84,780.285 1310.84,1433.36 1386.46,1433.36 1386.46,780.285 1310.84,780.285 "/>
<path clip-path="url(#clip421)" d="M1405.36 757.131 L1405.36 1433.36 L1480.97 1433.36 L1480.97 757.131 L1405.36 757.131 L1405.36 757.131  Z" fill="#d3d3d3" fill-rule="evenodd" fill-opacity="1"/>
<polyline clip-path="url(#clip421)" style="stroke:#000000; stroke-linecap:round; stroke-linejoin:round; stroke-width:4; stroke-opacity:1; fill:none" points="1405.36,757.131 1405.36,1433.36 1480.97,1433.36 1480.97,757.131 1405.36,757.131 "/>
<path clip-path="url(#clip421)" d="M1499.88 740.439 L1499.88 1433.36 L1575.49 1433.36 L1575.49 740.439 L1499.88 740.439 L1499.88 740.439  Z" fill="#d3d3d3" fill-rule="evenodd" fill-opacity="1"/>
<polyline clip-path="url(#clip421)" style="stroke:#000000; stroke-linecap:round; stroke-linejoin:round; stroke-width:4; stroke-opacity:1; fill:none" points="1499.88,740.439 1499.88,1433.36 1575.49,1433.36 1575.49,740.439 1499.88,740.439 "/>
<path clip-path="url(#clip421)" d="M1594.39 691.665 L1594.39 1433.36 L1670.01 1433.36 L1670.01 691.665 L1594.39 691.665 L1594.39 691.665  Z" fill="#d3d3d3" fill-rule="evenodd" fill-opacity="1"/>
<polyline clip-path="url(#clip421)" style="stroke:#000000; stroke-linecap:round; stroke-linejoin:round; stroke-width:4; stroke-opacity:1; fill:none" points="1594.39,691.665 1594.39,1433.36 1670.01,1433.36 1670.01,691.665 1594.39,691.665 "/>
<path clip-path="url(#clip421)" d="M1688.91 675.161 L1688.91 1433.36 L1764.52 1433.36 L1764.52 675.161 L1688.91 675.161 L1688.91 675.161  Z" fill="#d3d3d3" fill-rule="evenodd" fill-opacity="1"/>
<polyline clip-path="url(#clip421)" style="stroke:#000000; stroke-linecap:round; stroke-linejoin:round; stroke-width:4; stroke-opacity:1; fill:none" points="1688.91,675.161 1688.91,1433.36 1764.52,1433.36 1764.52,675.161 1688.91,675.161 "/>
<path clip-path="url(#clip421)" d="M1783.42 669.842 L1783.42 1433.36 L1859.04 1433.36 L1859.04 669.842 L1783.42 669.842 L1783.42 669.842  Z" fill="#d3d3d3" fill-rule="evenodd" fill-opacity="1"/>
<polyline clip-path="url(#clip421)" style="stroke:#000000; stroke-linecap:round; stroke-linejoin:round; stroke-width:4; stroke-opacity:1; fill:none" points="1783.42,669.842 1783.42,1433.36 1859.04,1433.36 1859.04,669.842 1783.42,669.842 "/>
<path clip-path="url(#clip421)" d="M1877.94 533.678 L1877.94 1433.36 L1953.55 1433.36 L1953.55 533.678 L1877.94 533.678 L1877.94 533.678  Z" fill="#d3d3d3" fill-rule="evenodd" fill-opacity="1"/>
<polyline clip-path="url(#clip421)" style="stroke:#000000; stroke-linecap:round; stroke-linejoin:round; stroke-width:4; stroke-opacity:1; fill:none" points="1877.94,533.678 1877.94,1433.36 1953.55,1433.36 1953.55,533.678 1877.94,533.678 "/>
<path clip-path="url(#clip421)" d="M1972.46 524.961 L1972.46 1433.36 L2048.07 1433.36 L2048.07 524.961 L1972.46 524.961 L1972.46 524.961  Z" fill="#d3d3d3" fill-rule="evenodd" fill-opacity="1"/>
<polyline clip-path="url(#clip421)" style="stroke:#000000; stroke-linecap:round; stroke-linejoin:round; stroke-width:4; stroke-opacity:1; fill:none" points="1972.46,524.961 1972.46,1433.36 2048.07,1433.36 2048.07,524.961 1972.46,524.961 "/>
<path clip-path="url(#clip421)" d="M2066.97 387.51 L2066.97 1433.36 L2142.59 1433.36 L2142.59 387.51 L2066.97 387.51 L2066.97 387.51  Z" fill="#d3d3d3" fill-rule="evenodd" fill-opacity="1"/>
<polyline clip-path="url(#clip421)" style="stroke:#000000; stroke-linecap:round; stroke-linejoin:round; stroke-width:4; stroke-opacity:1; fill:none" points="2066.97,387.51 2066.97,1433.36 2142.59,1433.36 2142.59,387.51 2066.97,387.51 "/>
<path clip-path="url(#clip421)" d="M2161.49 123.472 L2161.49 1433.36 L2237.1 1433.36 L2237.1 123.472 L2161.49 123.472 L2161.49 123.472  Z" fill="#d3d3d3" fill-rule="evenodd" fill-opacity="1"/>
<polyline clip-path="url(#clip421)" style="stroke:#000000; stroke-linecap:round; stroke-linejoin:round; stroke-width:4; stroke-opacity:1; fill:none" points="2161.49,123.472 2161.49,1433.36 2237.1,1433.36 2237.1,123.472 2161.49,123.472 "/>
<circle clip-path="url(#clip421)" style="fill:#4682b4; stroke:none; fill-opacity:0" cx="403.488" cy="992.459" r="2"/>
<circle clip-path="url(#clip421)" style="fill:#4682b4; stroke:none; fill-opacity:0" cx="498.005" cy="962.702" r="2"/>
<circle clip-path="url(#clip421)" style="fill:#4682b4; stroke:none; fill-opacity:0" cx="592.521" cy="958.929" r="2"/>
<circle clip-path="url(#clip421)" style="fill:#4682b4; stroke:none; fill-opacity:0" cx="687.037" cy="943.943" r="2"/>
<circle clip-path="url(#clip421)" style="fill:#4682b4; stroke:none; fill-opacity:0" cx="781.553" cy="917.539" r="2"/>
<circle clip-path="url(#clip421)" style="fill:#4682b4; stroke:none; fill-opacity:0" cx="876.069" cy="909.876" r="2"/>
<circle clip-path="url(#clip421)" style="fill:#4682b4; stroke:none; fill-opacity:0" cx="970.585" cy="882.058" r="2"/>
<circle clip-path="url(#clip421)" style="fill:#4682b4; stroke:none; fill-opacity:0" cx="1065.1" cy="871.405" r="2"/>
<circle clip-path="url(#clip421)" style="fill:#4682b4; stroke:none; fill-opacity:0" cx="1159.62" cy="812.485" r="2"/>
<circle clip-path="url(#clip421)" style="fill:#4682b4; stroke:none; fill-opacity:0" cx="1254.13" cy="780.431" r="2"/>
<circle clip-path="url(#clip421)" style="fill:#d3d3d3; stroke:none; fill-opacity:0" cx="1348.65" cy="780.285" r="2"/>
<circle clip-path="url(#clip421)" style="fill:#d3d3d3; stroke:none; fill-opacity:0" cx="1443.17" cy="757.131" r="2"/>
<circle clip-path="url(#clip421)" style="fill:#d3d3d3; stroke:none; fill-opacity:0" cx="1537.68" cy="740.439" r="2"/>
<circle clip-path="url(#clip421)" style="fill:#d3d3d3; stroke:none; fill-opacity:0" cx="1632.2" cy="691.665" r="2"/>
<circle clip-path="url(#clip421)" style="fill:#d3d3d3; stroke:none; fill-opacity:0" cx="1726.71" cy="675.161" r="2"/>
<circle clip-path="url(#clip421)" style="fill:#d3d3d3; stroke:none; fill-opacity:0" cx="1821.23" cy="669.842" r="2"/>
<circle clip-path="url(#clip421)" style="fill:#d3d3d3; stroke:none; fill-opacity:0" cx="1915.75" cy="533.678" r="2"/>
<circle clip-path="url(#clip421)" style="fill:#d3d3d3; stroke:none; fill-opacity:0" cx="2010.26" cy="524.961" r="2"/>
<circle clip-path="url(#clip421)" style="fill:#d3d3d3; stroke:none; fill-opacity:0" cx="2104.78" cy="387.51" r="2"/>
<circle clip-path="url(#clip421)" style="fill:#d3d3d3; stroke:none; fill-opacity:0" cx="2199.3" cy="123.472" r="2"/>
</svg>
