<?xml version="1.0" encoding="utf-8"?>
<svg xmlns="http://www.w3.org/2000/svg" xmlns:xlink="http://www.w3.org/1999/xlink" width="600" height="400" viewBox="0 0 2400 1600">
<defs>
  <clipPath id="clip450">
    <rect x="0" y="0" width="2400" height="1600"/>
  </clipPath>
</defs>
<path clip-path="url(#clip450)" d="M0 1600 L2400 1600 L2400 0 L0 0  Z" fill="#ffffff" fill-rule="evenodd" fill-opacity="1"/>
<defs>
  <clipPath id="clip451">
    <rect x="219" y="123" width="2134" height="1301"/>
  </clipPath>
</defs>
<path clip-path="url(#clip450)" d="M219.866 1423.18 L2352.76 1423.18 L2352.76 123.472 L219.866 123.472  Z" fill="#ffffff" fill-rule="evenodd" fill-opacity="1"/>
<polyline clip-path="url(#clip451)" style="stroke:#000000; stroke-linecap:round; stroke-linejoin:round; stroke-width:2; stroke-opacity:0.1; fill:none" points="285.74,1423.18 285.74,123.472 "/>
<polyline clip-path="url(#clip451)" style="stroke:#000000; stroke-linecap:round; stroke-linejoin:round; stroke-width:2; stroke-opacity:0.1; fill:none" points="788.436,1423.18 788.436,123.472 "/>
<polyline clip-path="url(#clip451)" style="stroke:#000000; stroke-linecap:round; stroke-linejoin:round; stroke-width:2; stroke-opacity:0.1; fill:none" points="1292.51,1423.18 1292.51,123.472 "/>
<polyline clip-path="url(#clip451)" style="stroke:#000000; stroke-linecap:round; stroke-linejoin:round; stroke-width:2; stroke-opacity:0.1; fill:none" points="1795.2,1423.18 1795.2,123.472 "/>
<polyline clip-path="url(#clip451)" style="stroke:#000000; stroke-linecap:round; stroke-linejoin:round; stroke-width:2; stroke-opacity:0.1; fill:none" points="2297.9,1423.18 2297.9,123.472 "/>
<polyline clip-path="url(#clip451)" style="stroke:#000000; stroke-linecap:round; stroke-linejoin:round; stroke-width:2; stroke-opacity:0.1; fill:none" points="219.866,1314.91 2352.76,1314.91 "/>
<polyline clip-path="url(#clip451)" style="stroke:#000000; stroke-linecap:round; stroke-linejoin:round; stroke-width:2; stroke-opacity:0.1; fill:none" points="219.866,1024.52 2352.76,1024.52 "/>
<polyline clip-path="url(#clip451)" style="stroke:#000000; stroke-linecap:round; stroke-linejoin:round; stroke-width:2; stroke-opacity:0.1; fill:none" points="219.866,734.122 2352.76,734.122 "/>
<polyline clip-path="url(#clip451)" style="stroke:#000000; stroke-linecap:round; stroke-linejoin:round; stroke-width:2; stroke-opacity:0.1; fill:none" points="219.866,443.729 2352.76,443.729 "/>
<polyline clip-path="url(#clip451)" style="stroke:#000000; stroke-linecap:round; stroke-linejoin:round; stroke-width:2; stroke-opacity:0.1; fill:none" points="219.866,153.336 2352.76,153.336 "/>
<polyline clip-path="url(#clip450)" style="stroke:#000000; stroke-linecap:round; stroke-linejoin:round; stroke-width:4; stroke-opacity:1; fill:none" points="219.866,1423.18 2352.76,1423.18 "/>
<polyline clip-path="url(#clip450)" style="stroke:#000000; stroke-linecap:round; stroke-linejoin:round; stroke-width:4; stroke-opacity:1; fill:none" points="285.74,1423.18 285.74,1404.28 "/>
<polyline clip-path="url(#clip450)" style="stroke:#000000; stroke-linecap:round; stroke-linejoin:round; stroke-width:4; stroke-opacity:1; fill:none" points="788.436,1423.18 788.436,1404.28 "/>
<polyline clip-path="url(#clip450)" style="stroke:#000000; stroke-linecap:round; stroke-linejoin:round; stroke-width:4; stroke-opacity:1; fill:none" points="1292.51,1423.18 1292.51,1404.28 "/>
<polyline clip-path="url(#clip450)" style="stroke:#000000; stroke-linecap:round; stroke-linejoin:round; stroke-width:4; stroke-opacity:1; fill:none" points="1795.2,1423.18 1795.2,1404.28 "/>
<polyline clip-path="url(#clip450)" style="stroke:#000000; stroke-linecap:round; stroke-linejoin:round; stroke-width:4; stroke-opacity:1; fill:none" points="2297.9,1423.18 2297.9,1404.28 "/>
<path clip-path="url(#clip450)" d="M157.535 1481.64 L173.854 1481.64 L173.854 1485.58 L151.91 1485.58 L151.91 1481.64 Q154.572 1478.89 159.155 1474.26 Q163.762 1469.61 164.942 1468.27 Q167.187 1465.74 168.067 1464.01 Q168.97 1462.25 168.97 1460.56 Q168.97 1457.8 167.025 1456.07 Q165.104 1454.33 162.002 1454.33 Q159.803 1454.33 157.35 1455.09 Q154.919 1455.86 152.141 1457.41 L152.141 1452.69 Q154.965 1451.55 157.419 1450.97 Q159.873 1450.39 161.91 1450.39 Q167.28 1450.39 170.474 1453.08 Q173.669 1455.77 173.669 1460.26 Q173.669 1462.39 172.859 1464.31 Q172.072 1466.2 169.965 1468.8 Q169.387 1469.47 166.285 1472.69 Q163.183 1475.88 157.535 1481.64 Z" fill="#000000" fill-rule="nonzero" fill-opacity="1" /><path clip-path="url(#clip450)" d="M193.669 1454.1 Q190.058 1454.1 188.229 1457.66 Q186.423 1461.2 186.423 1468.33 Q186.423 1475.44 188.229 1479.01 Q190.058 1482.55 193.669 1482.55 Q197.303 1482.55 199.109 1479.01 Q200.937 1475.44 200.937 1468.33 Q200.937 1461.2 199.109 1457.66 Q197.303 1454.1 193.669 1454.1 M193.669 1450.39 Q199.479 1450.39 202.534 1455 Q205.613 1459.58 205.613 1468.33 Q205.613 1477.06 202.534 1481.67 Q199.479 1486.25 193.669 1486.25 Q187.859 1486.25 184.78 1481.67 Q181.724 1477.06 181.724 1468.33 Q181.724 1459.58 184.78 1455 Q187.859 1450.39 193.669 1450.39 Z" fill="#000000" fill-rule="nonzero" fill-opacity="1" /><path clip-path="url(#clip450)" d="M214.641 1481.64 L222.28 1481.64 L222.28 1455.28 L213.97 1456.95 L213.97 1452.69 L222.233 1451.02 L226.909 1451.02 L226.909 1481.64 L234.548 1481.64 L234.548 1485.58 L214.641 1485.58 L214.641 1481.64 Z" fill="#000000" fill-rule="nonzero" fill-opacity="1" /><path clip-path="url(#clip450)" d="M244.131 1484.86 L244.131 1480.6 Q245.891 1481.44 247.696 1481.88 Q249.502 1482.32 251.238 1482.32 Q255.868 1482.32 258.298 1479.21 Q260.752 1476.09 261.099 1469.75 Q259.756 1471.74 257.696 1472.8 Q255.636 1473.87 253.136 1473.87 Q247.951 1473.87 244.919 1470.74 Q241.909 1467.59 241.909 1462.15 Q241.909 1456.83 245.057 1453.61 Q248.206 1450.39 253.437 1450.39 Q259.432 1450.39 262.58 1455 Q265.752 1459.58 265.752 1468.33 Q265.752 1476.51 261.863 1481.39 Q257.997 1486.25 251.446 1486.25 Q249.687 1486.25 247.881 1485.9 Q246.076 1485.56 244.131 1484.86 M253.437 1470.21 Q256.585 1470.21 258.414 1468.06 Q260.266 1465.9 260.266 1462.15 Q260.266 1458.43 258.414 1456.27 Q256.585 1454.1 253.437 1454.1 Q250.289 1454.1 248.437 1456.27 Q246.608 1458.43 246.608 1462.15 Q246.608 1465.9 248.437 1468.06 Q250.289 1470.21 253.437 1470.21 Z" fill="#000000" fill-rule="nonzero" fill-opacity="1" /><path clip-path="url(#clip450)" d="M271.4 1470.7 L283.877 1470.7 L283.877 1474.49 L271.4 1474.49 L271.4 1470.7 Z" fill="#000000" fill-rule="nonzero" fill-opacity="1" /><path clip-path="url(#clip450)" d="M301.261 1454.1 Q297.65 1454.1 295.821 1457.66 Q294.015 1461.2 294.015 1468.33 Q294.015 1475.44 295.821 1479.01 Q297.65 1482.55 301.261 1482.55 Q304.895 1482.55 306.701 1479.01 Q308.529 1475.44 308.529 1468.33 Q308.529 1461.2 306.701 1457.66 Q304.895 1454.1 301.261 1454.1 M301.261 1450.39 Q307.071 1450.39 310.127 1455 Q313.205 1459.58 313.205 1468.33 Q313.205 1477.06 310.127 1481.67 Q307.071 1486.25 301.261 1486.25 Q295.451 1486.25 292.372 1481.67 Q289.316 1477.06 289.316 1468.33 Q289.316 1459.58 292.372 1455 Q295.451 1450.39 301.261 1450.39 Z" fill="#000000" fill-rule="nonzero" fill-opacity="1" /><path clip-path="url(#clip450)" d="M322.233 1481.64 L329.872 1481.64 L329.872 1455.28 L321.562 1456.95 L321.562 1452.69 L329.825 1451.02 L334.501 1451.02 L334.501 1481.64 L342.14 1481.64 L342.14 1485.58 L322.233 1485.58 L322.233 1481.64 Z" fill="#000000" fill-rule="nonzero" fill-opacity="1" /><path clip-path="url(#clip450)" d="M348.83 1470.7 L361.307 1470.7 L361.307 1474.49 L348.83 1474.49 L348.83 1470.7 Z" fill="#000000" fill-rule="nonzero" fill-opacity="1" /><path clip-path="url(#clip450)" d="M378.691 1454.1 Q375.08 1454.1 373.251 1457.66 Q371.446 1461.2 371.446 1468.33 Q371.446 1475.44 373.251 1479.01 Q375.08 1482.55 378.691 1482.55 Q382.325 1482.55 384.131 1479.01 Q385.959 1475.44 385.959 1468.33 Q385.959 1461.2 384.131 1457.66 Q382.325 1454.1 378.691 1454.1 M378.691 1450.39 Q384.501 1450.39 387.557 1455 Q390.635 1459.58 390.635 1468.33 Q390.635 1477.06 387.557 1481.67 Q384.501 1486.25 378.691 1486.25 Q372.881 1486.25 369.802 1481.67 Q366.747 1477.06 366.747 1468.33 Q366.747 1459.58 369.802 1455 Q372.881 1450.39 378.691 1450.39 Z" fill="#000000" fill-rule="nonzero" fill-opacity="1" /><path clip-path="url(#clip450)" d="M399.663 1481.64 L407.302 1481.64 L407.302 1455.28 L398.992 1456.95 L398.992 1452.69 L407.256 1451.02 L411.932 1451.02 L411.932 1481.64 L419.57 1481.64 L419.57 1485.58 L399.663 1485.58 L399.663 1481.64 Z" fill="#000000" fill-rule="nonzero" fill-opacity="1" /><path clip-path="url(#clip450)" d="M660.23 1481.64 L676.55 1481.64 L676.55 1485.58 L654.605 1485.58 L654.605 1481.64 Q657.267 1478.89 661.851 1474.26 Q666.457 1469.61 667.638 1468.27 Q669.883 1465.74 670.763 1464.01 Q671.666 1462.25 671.666 1460.56 Q671.666 1457.8 669.721 1456.07 Q667.8 1454.33 664.698 1454.33 Q662.499 1454.33 660.045 1455.09 Q657.615 1455.86 654.837 1457.41 L654.837 1452.69 Q657.661 1451.55 660.115 1450.97 Q662.568 1450.39 664.605 1450.39 Q669.976 1450.39 673.17 1453.08 Q676.365 1455.77 676.365 1460.26 Q676.365 1462.39 675.554 1464.31 Q674.767 1466.2 672.661 1468.8 Q672.082 1469.47 668.98 1472.69 Q665.879 1475.88 660.23 1481.64 Z" fill="#000000" fill-rule="nonzero" fill-opacity="1" /><path clip-path="url(#clip450)" d="M696.364 1454.1 Q692.753 1454.1 690.925 1457.66 Q689.119 1461.2 689.119 1468.33 Q689.119 1475.44 690.925 1479.01 Q692.753 1482.55 696.364 1482.55 Q699.999 1482.55 701.804 1479.01 Q703.633 1475.44 703.633 1468.33 Q703.633 1461.2 701.804 1457.66 Q699.999 1454.1 696.364 1454.1 M696.364 1450.39 Q702.175 1450.39 705.23 1455 Q708.309 1459.58 708.309 1468.33 Q708.309 1477.06 705.23 1481.67 Q702.175 1486.25 696.364 1486.25 Q690.554 1486.25 687.476 1481.67 Q684.42 1477.06 684.42 1468.33 Q684.42 1459.58 687.476 1455 Q690.554 1450.39 696.364 1450.39 Z" fill="#000000" fill-rule="nonzero" fill-opacity="1" /><path clip-path="url(#clip450)" d="M720.554 1481.64 L736.874 1481.64 L736.874 1485.58 L714.929 1485.58 L714.929 1481.64 Q717.591 1478.89 722.175 1474.26 Q726.781 1469.61 727.962 1468.27 Q730.207 1465.74 731.087 1464.01 Q731.989 1462.25 731.989 1460.56 Q731.989 1457.8 730.045 1456.07 Q728.124 1454.33 725.022 1454.33 Q722.823 1454.33 720.369 1455.09 Q717.938 1455.86 715.161 1457.41 L715.161 1452.69 Q717.985 1451.55 720.438 1450.97 Q722.892 1450.39 724.929 1450.39 Q730.299 1450.39 733.494 1453.08 Q736.688 1455.77 736.688 1460.26 Q736.688 1462.39 735.878 1464.31 Q735.091 1466.2 732.985 1468.8 Q732.406 1469.47 729.304 1472.69 Q726.202 1475.88 720.554 1481.64 Z" fill="#000000" fill-rule="nonzero" fill-opacity="1" /><path clip-path="url(#clip450)" d="M756.688 1454.1 Q753.077 1454.1 751.248 1457.66 Q749.443 1461.2 749.443 1468.33 Q749.443 1475.44 751.248 1479.01 Q753.077 1482.55 756.688 1482.55 Q760.322 1482.55 762.128 1479.01 Q763.957 1475.44 763.957 1468.33 Q763.957 1461.2 762.128 1457.66 Q760.322 1454.1 756.688 1454.1 M756.688 1450.39 Q762.498 1450.39 765.554 1455 Q768.633 1459.58 768.633 1468.33 Q768.633 1477.06 765.554 1481.67 Q762.498 1486.25 756.688 1486.25 Q750.878 1486.25 747.799 1481.67 Q744.744 1477.06 744.744 1468.33 Q744.744 1459.58 747.799 1455 Q750.878 1450.39 756.688 1450.39 Z" fill="#000000" fill-rule="nonzero" fill-opacity="1" /><path clip-path="url(#clip450)" d="M774.096 1470.7 L786.572 1470.7 L786.572 1474.49 L774.096 1474.49 L774.096 1470.7 Z" fill="#000000" fill-rule="nonzero" fill-opacity="1" /><path clip-path="url(#clip450)" d="M803.957 1454.1 Q800.345 1454.1 798.517 1457.66 Q796.711 1461.2 796.711 1468.33 Q796.711 1475.44 798.517 1479.01 Q800.345 1482.55 803.957 1482.55 Q807.591 1482.55 809.396 1479.01 Q811.225 1475.44 811.225 1468.33 Q811.225 1461.2 809.396 1457.66 Q807.591 1454.1 803.957 1454.1 M803.957 1450.39 Q809.767 1450.39 812.822 1455 Q815.901 1459.58 815.901 1468.33 Q815.901 1477.06 812.822 1481.67 Q809.767 1486.25 803.957 1486.25 Q798.146 1486.25 795.068 1481.67 Q792.012 1477.06 792.012 1468.33 Q792.012 1459.58 795.068 1455 Q798.146 1450.39 803.957 1450.39 Z" fill="#000000" fill-rule="nonzero" fill-opacity="1" /><path clip-path="url(#clip450)" d="M824.929 1481.64 L832.567 1481.64 L832.567 1455.28 L824.257 1456.95 L824.257 1452.69 L832.521 1451.02 L837.197 1451.02 L837.197 1481.64 L844.836 1481.64 L844.836 1485.58 L824.929 1485.58 L824.929 1481.64 Z" fill="#000000" fill-rule="nonzero" fill-opacity="1" /><path clip-path="url(#clip450)" d="M851.526 1470.7 L864.002 1470.7 L864.002 1474.49 L851.526 1474.49 L851.526 1470.7 Z" fill="#000000" fill-rule="nonzero" fill-opacity="1" /><path clip-path="url(#clip450)" d="M881.387 1454.1 Q877.776 1454.1 875.947 1457.66 Q874.141 1461.2 874.141 1468.33 Q874.141 1475.44 875.947 1479.01 Q877.776 1482.55 881.387 1482.55 Q885.021 1482.55 886.826 1479.01 Q888.655 1475.44 888.655 1468.33 Q888.655 1461.2 886.826 1457.66 Q885.021 1454.1 881.387 1454.1 M881.387 1450.39 Q887.197 1450.39 890.252 1455 Q893.331 1459.58 893.331 1468.33 Q893.331 1477.06 890.252 1481.67 Q887.197 1486.25 881.387 1486.25 Q875.576 1486.25 872.498 1481.67 Q869.442 1477.06 869.442 1468.33 Q869.442 1459.58 872.498 1455 Q875.576 1450.39 881.387 1450.39 Z" fill="#000000" fill-rule="nonzero" fill-opacity="1" /><path clip-path="url(#clip450)" d="M902.359 1481.64 L909.998 1481.64 L909.998 1455.28 L901.687 1456.95 L901.687 1452.69 L909.951 1451.02 L914.627 1451.02 L914.627 1481.64 L922.266 1481.64 L922.266 1485.58 L902.359 1485.58 L902.359 1481.64 Z" fill="#000000" fill-rule="nonzero" fill-opacity="1" /><path clip-path="url(#clip450)" d="M1164.3 1481.64 L1180.62 1481.64 L1180.62 1485.58 L1158.68 1485.58 L1158.68 1481.64 Q1161.34 1478.89 1165.92 1474.26 Q1170.53 1469.61 1171.71 1468.27 Q1173.96 1465.74 1174.84 1464.01 Q1175.74 1462.25 1175.74 1460.56 Q1175.74 1457.8 1173.79 1456.07 Q1171.87 1454.33 1168.77 1454.33 Q1166.57 1454.33 1164.12 1455.09 Q1161.69 1455.86 1158.91 1457.41 L1158.91 1452.69 Q1161.73 1451.55 1164.19 1450.97 Q1166.64 1450.39 1168.68 1450.39 Q1174.05 1450.39 1177.24 1453.08 Q1180.44 1455.77 1180.44 1460.26 Q1180.44 1462.39 1179.63 1464.31 Q1178.84 1466.2 1176.73 1468.8 Q1176.16 1469.47 1173.05 1472.69 Q1169.95 1475.88 1164.3 1481.64 Z" fill="#000000" fill-rule="nonzero" fill-opacity="1" /><path clip-path="url(#clip450)" d="M1200.44 1454.1 Q1196.83 1454.1 1195 1457.66 Q1193.19 1461.2 1193.19 1468.33 Q1193.19 1475.44 1195 1479.01 Q1196.83 1482.55 1200.44 1482.55 Q1204.07 1482.55 1205.88 1479.01 Q1207.71 1475.44 1207.71 1468.33 Q1207.71 1461.2 1205.88 1457.66 Q1204.07 1454.1 1200.44 1454.1 M1200.44 1450.39 Q1206.25 1450.39 1209.3 1455 Q1212.38 1459.58 1212.38 1468.33 Q1212.38 1477.06 1209.3 1481.67 Q1206.25 1486.25 1200.44 1486.25 Q1194.63 1486.25 1191.55 1481.67 Q1188.49 1477.06 1188.49 1468.33 Q1188.49 1459.58 1191.55 1455 Q1194.63 1450.39 1200.44 1450.39 Z" fill="#000000" fill-rule="nonzero" fill-opacity="1" /><path clip-path="url(#clip450)" d="M1224.63 1481.64 L1240.95 1481.64 L1240.95 1485.58 L1219 1485.58 L1219 1481.64 Q1221.66 1478.89 1226.25 1474.26 Q1230.85 1469.61 1232.03 1468.27 Q1234.28 1465.74 1235.16 1464.01 Q1236.06 1462.25 1236.06 1460.56 Q1236.06 1457.8 1234.12 1456.07 Q1232.2 1454.33 1229.09 1454.33 Q1226.9 1454.33 1224.44 1455.09 Q1222.01 1455.86 1219.23 1457.41 L1219.23 1452.69 Q1222.06 1451.55 1224.51 1450.97 Q1226.97 1450.39 1229 1450.39 Q1234.37 1450.39 1237.57 1453.08 Q1240.76 1455.77 1240.76 1460.26 Q1240.76 1462.39 1239.95 1464.31 Q1239.16 1466.2 1237.06 1468.8 Q1236.48 1469.47 1233.38 1472.69 Q1230.28 1475.88 1224.63 1481.64 Z" fill="#000000" fill-rule="nonzero" fill-opacity="1" /><path clip-path="url(#clip450)" d="M1251.57 1481.64 L1259.21 1481.64 L1259.21 1455.28 L1250.9 1456.95 L1250.9 1452.69 L1259.16 1451.02 L1263.84 1451.02 L1263.84 1481.64 L1271.48 1481.64 L1271.48 1485.58 L1251.57 1485.58 L1251.57 1481.64 Z" fill="#000000" fill-rule="nonzero" fill-opacity="1" /><path clip-path="url(#clip450)" d="M1278.17 1470.7 L1290.65 1470.7 L1290.65 1474.49 L1278.17 1474.49 L1278.17 1470.7 Z" fill="#000000" fill-rule="nonzero" fill-opacity="1" /><path clip-path="url(#clip450)" d="M1308.03 1454.1 Q1304.42 1454.1 1302.59 1457.66 Q1300.78 1461.2 1300.78 1468.33 Q1300.78 1475.44 1302.59 1479.01 Q1304.42 1482.55 1308.03 1482.55 Q1311.66 1482.55 1313.47 1479.01 Q1315.3 1475.44 1315.3 1468.33 Q1315.3 1461.2 1313.47 1457.66 Q1311.66 1454.1 1308.03 1454.1 M1308.03 1450.39 Q1313.84 1450.39 1316.9 1455 Q1319.97 1459.58 1319.97 1468.33 Q1319.97 1477.06 1316.9 1481.67 Q1313.84 1486.25 1308.03 1486.25 Q1302.22 1486.25 1299.14 1481.67 Q1296.09 1477.06 1296.09 1468.33 Q1296.09 1459.58 1299.14 1455 Q1302.22 1450.39 1308.03 1450.39 Z" fill="#000000" fill-rule="nonzero" fill-opacity="1" /><path clip-path="url(#clip450)" d="M1329 1481.64 L1336.64 1481.64 L1336.64 1455.28 L1328.33 1456.95 L1328.33 1452.69 L1336.59 1451.02 L1341.27 1451.02 L1341.27 1481.64 L1348.91 1481.64 L1348.91 1485.58 L1329 1485.58 L1329 1481.64 Z" fill="#000000" fill-rule="nonzero" fill-opacity="1" /><path clip-path="url(#clip450)" d="M1355.6 1470.7 L1368.08 1470.7 L1368.08 1474.49 L1355.6 1474.49 L1355.6 1470.7 Z" fill="#000000" fill-rule="nonzero" fill-opacity="1" /><path clip-path="url(#clip450)" d="M1385.46 1454.1 Q1381.85 1454.1 1380.02 1457.66 Q1378.21 1461.2 1378.21 1468.33 Q1378.21 1475.44 1380.02 1479.01 Q1381.85 1482.55 1385.46 1482.55 Q1389.09 1482.55 1390.9 1479.01 Q1392.73 1475.44 1392.73 1468.33 Q1392.73 1461.2 1390.9 1457.66 Q1389.09 1454.1 1385.46 1454.1 M1385.46 1450.39 Q1391.27 1450.39 1394.33 1455 Q1397.4 1459.58 1397.4 1468.33 Q1397.4 1477.06 1394.33 1481.67 Q1391.27 1486.25 1385.46 1486.25 Q1379.65 1486.25 1376.57 1481.67 Q1373.52 1477.06 1373.52 1468.33 Q1373.52 1459.58 1376.57 1455 Q1379.65 1450.39 1385.46 1450.39 Z" fill="#000000" fill-rule="nonzero" fill-opacity="1" /><path clip-path="url(#clip450)" d="M1406.43 1481.64 L1414.07 1481.64 L1414.07 1455.28 L1405.76 1456.95 L1405.76 1452.69 L1414.02 1451.02 L1418.7 1451.02 L1418.7 1481.64 L1426.34 1481.64 L1426.34 1485.58 L1406.43 1485.58 L1406.43 1481.64 Z" fill="#000000" fill-rule="nonzero" fill-opacity="1" /><path clip-path="url(#clip450)" d="M1667 1481.64 L1683.32 1481.64 L1683.32 1485.58 L1661.37 1485.58 L1661.37 1481.64 Q1664.04 1478.89 1668.62 1474.26 Q1673.23 1469.61 1674.41 1468.27 Q1676.65 1465.74 1677.53 1464.01 Q1678.43 1462.25 1678.43 1460.56 Q1678.43 1457.8 1676.49 1456.07 Q1674.57 1454.33 1671.47 1454.33 Q1669.27 1454.33 1666.81 1455.09 Q1664.38 1455.86 1661.61 1457.41 L1661.61 1452.69 Q1664.43 1451.55 1666.88 1450.97 Q1669.34 1450.39 1671.37 1450.39 Q1676.74 1450.39 1679.94 1453.08 Q1683.13 1455.77 1683.13 1460.26 Q1683.13 1462.39 1682.32 1464.31 Q1681.54 1466.2 1679.43 1468.8 Q1678.85 1469.47 1675.75 1472.69 Q1672.65 1475.88 1667 1481.64 Z" fill="#000000" fill-rule="nonzero" fill-opacity="1" /><path clip-path="url(#clip450)" d="M1703.13 1454.1 Q1699.52 1454.1 1697.69 1457.66 Q1695.89 1461.2 1695.89 1468.33 Q1695.89 1475.44 1697.69 1479.01 Q1699.52 1482.55 1703.13 1482.55 Q1706.77 1482.55 1708.57 1479.01 Q1710.4 1475.44 1710.4 1468.33 Q1710.4 1461.2 1708.57 1457.66 Q1706.77 1454.1 1703.13 1454.1 M1703.13 1450.39 Q1708.94 1450.39 1712 1455 Q1715.08 1459.58 1715.08 1468.33 Q1715.08 1477.06 1712 1481.67 Q1708.94 1486.25 1703.13 1486.25 Q1697.32 1486.25 1694.24 1481.67 Q1691.19 1477.06 1691.19 1468.33 Q1691.19 1459.58 1694.24 1455 Q1697.32 1450.39 1703.13 1450.39 Z" fill="#000000" fill-rule="nonzero" fill-opacity="1" /><path clip-path="url(#clip450)" d="M1727.32 1481.64 L1743.64 1481.64 L1743.64 1485.58 L1721.7 1485.58 L1721.7 1481.64 Q1724.36 1478.89 1728.94 1474.26 Q1733.55 1469.61 1734.73 1468.27 Q1736.98 1465.74 1737.86 1464.01 Q1738.76 1462.25 1738.76 1460.56 Q1738.76 1457.8 1736.81 1456.07 Q1734.89 1454.33 1731.79 1454.33 Q1729.59 1454.33 1727.14 1455.09 Q1724.71 1455.86 1721.93 1457.41 L1721.93 1452.69 Q1724.75 1451.55 1727.21 1450.97 Q1729.66 1450.39 1731.7 1450.39 Q1737.07 1450.39 1740.26 1453.08 Q1743.46 1455.77 1743.46 1460.26 Q1743.46 1462.39 1742.65 1464.31 Q1741.86 1466.2 1739.75 1468.8 Q1739.17 1469.47 1736.07 1472.69 Q1732.97 1475.88 1727.32 1481.64 Z" fill="#000000" fill-rule="nonzero" fill-opacity="1" /><path clip-path="url(#clip450)" d="M1757.48 1481.64 L1773.8 1481.64 L1773.8 1485.58 L1751.86 1485.58 L1751.86 1481.64 Q1754.52 1478.89 1759.11 1474.26 Q1763.71 1469.61 1764.89 1468.27 Q1767.14 1465.74 1768.02 1464.01 Q1768.92 1462.25 1768.92 1460.56 Q1768.92 1457.8 1766.98 1456.07 Q1765.05 1454.33 1761.95 1454.33 Q1759.75 1454.33 1757.3 1455.09 Q1754.87 1455.86 1752.09 1457.41 L1752.09 1452.69 Q1754.92 1451.55 1757.37 1450.97 Q1759.82 1450.39 1761.86 1450.39 Q1767.23 1450.39 1770.42 1453.08 Q1773.62 1455.77 1773.62 1460.26 Q1773.62 1462.39 1772.81 1464.31 Q1772.02 1466.2 1769.92 1468.8 Q1769.34 1469.47 1766.23 1472.69 Q1763.13 1475.88 1757.48 1481.64 Z" fill="#000000" fill-rule="nonzero" fill-opacity="1" /><path clip-path="url(#clip450)" d="M1780.86 1470.7 L1793.34 1470.7 L1793.34 1474.49 L1780.86 1474.49 L1780.86 1470.7 Z" fill="#000000" fill-rule="nonzero" fill-opacity="1" /><path clip-path="url(#clip450)" d="M1810.73 1454.1 Q1807.11 1454.1 1805.29 1457.66 Q1803.48 1461.2 1803.48 1468.33 Q1803.48 1475.44 1805.29 1479.01 Q1807.11 1482.55 1810.73 1482.55 Q1814.36 1482.55 1816.16 1479.01 Q1817.99 1475.44 1817.99 1468.33 Q1817.99 1461.2 1816.16 1457.66 Q1814.36 1454.1 1810.73 1454.1 M1810.73 1450.39 Q1816.54 1450.39 1819.59 1455 Q1822.67 1459.58 1822.67 1468.33 Q1822.67 1477.06 1819.59 1481.67 Q1816.54 1486.25 1810.73 1486.25 Q1804.91 1486.25 1801.84 1481.67 Q1798.78 1477.06 1798.78 1468.33 Q1798.78 1459.58 1801.84 1455 Q1804.91 1450.39 1810.73 1450.39 Z" fill="#000000" fill-rule="nonzero" fill-opacity="1" /><path clip-path="url(#clip450)" d="M1831.7 1481.64 L1839.34 1481.64 L1839.34 1455.28 L1831.03 1456.95 L1831.03 1452.69 L1839.29 1451.02 L1843.97 1451.02 L1843.97 1481.64 L1851.6 1481.64 L1851.6 1485.58 L1831.7 1485.58 L1831.7 1481.64 Z" fill="#000000" fill-rule="nonzero" fill-opacity="1" /><path clip-path="url(#clip450)" d="M1858.29 1470.7 L1870.77 1470.7 L1870.77 1474.49 L1858.29 1474.49 L1858.29 1470.7 Z" fill="#000000" fill-rule="nonzero" fill-opacity="1" /><path clip-path="url(#clip450)" d="M1888.16 1454.1 Q1884.54 1454.1 1882.72 1457.66 Q1880.91 1461.2 1880.91 1468.33 Q1880.91 1475.44 1882.72 1479.01 Q1884.54 1482.55 1888.16 1482.55 Q1891.79 1482.55 1893.6 1479.01 Q1895.42 1475.44 1895.42 1468.33 Q1895.42 1461.2 1893.6 1457.66 Q1891.79 1454.1 1888.16 1454.1 M1888.16 1450.39 Q1893.97 1450.39 1897.02 1455 Q1900.1 1459.58 1900.1 1468.33 Q1900.1 1477.06 1897.02 1481.67 Q1893.97 1486.25 1888.16 1486.25 Q1882.35 1486.25 1879.27 1481.67 Q1876.21 1477.06 1876.21 1468.33 Q1876.21 1459.58 1879.27 1455 Q1882.35 1450.39 1888.16 1450.39 Z" fill="#000000" fill-rule="nonzero" fill-opacity="1" /><path clip-path="url(#clip450)" d="M1909.13 1481.64 L1916.77 1481.64 L1916.77 1455.28 L1908.46 1456.95 L1908.46 1452.69 L1916.72 1451.02 L1921.4 1451.02 L1921.4 1481.64 L1929.03 1481.64 L1929.03 1485.58 L1909.13 1485.58 L1909.13 1481.64 Z" fill="#000000" fill-rule="nonzero" fill-opacity="1" /><path clip-path="url(#clip450)" d="M2169.69 1481.64 L2186.01 1481.64 L2186.01 1485.58 L2164.07 1485.58 L2164.07 1481.64 Q2166.73 1478.89 2171.32 1474.26 Q2175.92 1469.61 2177.1 1468.27 Q2179.35 1465.74 2180.23 1464.01 Q2181.13 1462.25 2181.13 1460.56 Q2181.13 1457.8 2179.19 1456.07 Q2177.26 1454.33 2174.16 1454.33 Q2171.96 1454.33 2169.51 1455.09 Q2167.08 1455.86 2164.3 1457.41 L2164.3 1452.69 Q2167.13 1451.55 2169.58 1450.97 Q2172.03 1450.39 2174.07 1450.39 Q2179.44 1450.39 2182.63 1453.08 Q2185.83 1455.77 2185.83 1460.26 Q2185.83 1462.39 2185.02 1464.31 Q2184.23 1466.2 2182.13 1468.8 Q2181.55 1469.47 2178.44 1472.69 Q2175.34 1475.88 2169.69 1481.64 Z" fill="#000000" fill-rule="nonzero" fill-opacity="1" /><path clip-path="url(#clip450)" d="M2205.83 1454.1 Q2202.22 1454.1 2200.39 1457.66 Q2198.58 1461.2 2198.58 1468.33 Q2198.58 1475.44 2200.39 1479.01 Q2202.22 1482.55 2205.83 1482.55 Q2209.46 1482.55 2211.27 1479.01 Q2213.1 1475.44 2213.1 1468.33 Q2213.1 1461.2 2211.27 1457.66 Q2209.46 1454.1 2205.83 1454.1 M2205.83 1450.39 Q2211.64 1450.39 2214.69 1455 Q2217.77 1459.58 2217.77 1468.33 Q2217.77 1477.06 2214.69 1481.67 Q2211.64 1486.25 2205.83 1486.25 Q2200.02 1486.25 2196.94 1481.67 Q2193.88 1477.06 2193.88 1468.33 Q2193.88 1459.58 2196.94 1455 Q2200.02 1450.39 2205.83 1450.39 Z" fill="#000000" fill-rule="nonzero" fill-opacity="1" /><path clip-path="url(#clip450)" d="M2230.02 1481.64 L2246.34 1481.64 L2246.34 1485.58 L2224.39 1485.58 L2224.39 1481.64 Q2227.06 1478.89 2231.64 1474.26 Q2236.25 1469.61 2237.43 1468.27 Q2239.67 1465.74 2240.55 1464.01 Q2241.45 1462.25 2241.45 1460.56 Q2241.45 1457.8 2239.51 1456.07 Q2237.59 1454.33 2234.49 1454.33 Q2232.29 1454.33 2229.83 1455.09 Q2227.4 1455.86 2224.63 1457.41 L2224.63 1452.69 Q2227.45 1451.55 2229.9 1450.97 Q2232.36 1450.39 2234.39 1450.39 Q2239.76 1450.39 2242.96 1453.08 Q2246.15 1455.77 2246.15 1460.26 Q2246.15 1462.39 2245.34 1464.31 Q2244.56 1466.2 2242.45 1468.8 Q2241.87 1469.47 2238.77 1472.69 Q2235.67 1475.88 2230.02 1481.64 Z" fill="#000000" fill-rule="nonzero" fill-opacity="1" /><path clip-path="url(#clip450)" d="M2270.32 1466.95 Q2273.68 1467.66 2275.55 1469.93 Q2277.45 1472.2 2277.45 1475.53 Q2277.45 1480.65 2273.93 1483.45 Q2270.41 1486.25 2263.93 1486.25 Q2261.75 1486.25 2259.44 1485.81 Q2257.15 1485.39 2254.69 1484.54 L2254.69 1480.02 Q2256.64 1481.16 2258.95 1481.74 Q2261.27 1482.32 2263.79 1482.32 Q2268.19 1482.32 2270.48 1480.58 Q2272.8 1478.84 2272.8 1475.53 Q2272.8 1472.48 2270.64 1470.77 Q2268.51 1469.03 2264.69 1469.03 L2260.67 1469.03 L2260.67 1465.19 L2264.88 1465.19 Q2268.33 1465.19 2270.16 1463.82 Q2271.99 1462.43 2271.99 1459.84 Q2271.99 1457.18 2270.09 1455.77 Q2268.21 1454.33 2264.69 1454.33 Q2262.77 1454.33 2260.57 1454.75 Q2258.37 1455.16 2255.74 1456.04 L2255.74 1451.88 Q2258.4 1451.14 2260.71 1450.77 Q2263.05 1450.39 2265.11 1450.39 Q2270.43 1450.39 2273.54 1452.83 Q2276.64 1455.23 2276.64 1459.35 Q2276.64 1462.22 2275 1464.21 Q2273.35 1466.18 2270.32 1466.95 Z" fill="#000000" fill-rule="nonzero" fill-opacity="1" /><path clip-path="url(#clip450)" d="M2283.56 1470.7 L2296.04 1470.7 L2296.04 1474.49 L2283.56 1474.49 L2283.56 1470.7 Z" fill="#000000" fill-rule="nonzero" fill-opacity="1" /><path clip-path="url(#clip450)" d="M2313.42 1454.1 Q2309.81 1454.1 2307.98 1457.66 Q2306.18 1461.2 2306.18 1468.33 Q2306.18 1475.44 2307.98 1479.01 Q2309.81 1482.55 2313.42 1482.55 Q2317.06 1482.55 2318.86 1479.01 Q2320.69 1475.44 2320.69 1468.33 Q2320.69 1461.2 2318.86 1457.66 Q2317.06 1454.1 2313.42 1454.1 M2313.42 1450.39 Q2319.23 1450.39 2322.29 1455 Q2325.37 1459.58 2325.37 1468.33 Q2325.37 1477.06 2322.29 1481.67 Q2319.23 1486.25 2313.42 1486.25 Q2307.61 1486.25 2304.53 1481.67 Q2301.48 1477.06 2301.48 1468.33 Q2301.48 1459.58 2304.53 1455 Q2307.61 1450.39 2313.42 1450.39 Z" fill="#000000" fill-rule="nonzero" fill-opacity="1" /><path clip-path="url(#clip450)" d="M2334.39 1481.64 L2342.03 1481.64 L2342.03 1455.28 L2333.72 1456.95 L2333.72 1452.69 L2341.99 1451.02 L2346.66 1451.02 L2346.66 1481.64 L2354.3 1481.64 L2354.3 1485.58 L2334.39 1485.58 L2334.39 1481.64 Z" fill="#000000" fill-rule="nonzero" fill-opacity="1" /><path clip-path="url(#clip450)" d="M2360.99 1470.7 L2373.47 1470.7 L2373.47 1474.49 L2360.99 1474.49 L2360.99 1470.7 Z" fill="#000000" fill-rule="nonzero" fill-opacity="1" /><path clip-path="url(#clip450)" d="M2390.85 1454.1 Q2387.24 1454.1 2385.41 1457.66 Q2383.61 1461.2 2383.61 1468.33 Q2383.61 1475.44 2385.41 1479.01 Q2387.24 1482.55 2390.85 1482.55 Q2394.49 1482.55 2396.29 1479.01 Q2398.12 1475.44 2398.12 1468.33 Q2398.12 1461.2 2396.29 1457.66 Q2394.49 1454.1 2390.85 1454.1 M2390.85 1450.39 Q2396.66 1450.39 2399.72 1455 Q2402.8 1459.58 2402.8 1468.33 Q2402.8 1477.06 2399.72 1481.67 Q2396.66 1486.25 2390.85 1486.25 Q2385.04 1486.25 2381.96 1481.67 Q2378.91 1477.06 2378.91 1468.33 Q2378.91 1459.58 2381.96 1455 Q2385.04 1450.39 2390.85 1450.39 Z" fill="#000000" fill-rule="nonzero" fill-opacity="1" /><path clip-path="url(#clip450)" d="M2411.82 1481.64 L2419.46 1481.64 L2419.46 1455.28 L2411.15 1456.95 L2411.15 1452.69 L2419.42 1451.02 L2424.09 1451.02 L2424.09 1481.64 L2431.73 1481.64 L2431.73 1485.58 L2411.82 1485.58 L2411.82 1481.64 Z" fill="#000000" fill-rule="nonzero" fill-opacity="1" /><path clip-path="url(#clip450)" d="M1219.77 1525.81 L1219.77 1562.76 L1227.54 1562.76 Q1237.37 1562.76 1241.93 1558.3 Q1246.51 1553.85 1246.51 1544.24 Q1246.51 1534.69 1241.93 1530.26 Q1237.37 1525.81 1227.54 1525.81 L1219.77 1525.81 M1213.34 1520.52 L1226.55 1520.52 Q1240.37 1520.52 1246.83 1526.28 Q1253.29 1532.01 1253.29 1544.24 Q1253.29 1556.52 1246.8 1562.28 Q1240.3 1568.04 1226.55 1568.04 L1213.34 1568.04 L1213.34 1520.52 Z" fill="#000000" fill-rule="nonzero" fill-opacity="1" /><path clip-path="url(#clip450)" d="M1279.48 1550.12 Q1272.39 1550.12 1269.65 1551.75 Q1266.91 1553.37 1266.91 1557.29 Q1266.91 1560.4 1268.95 1562.25 Q1271.02 1564.07 1274.55 1564.07 Q1279.42 1564.07 1282.35 1560.63 Q1285.31 1557.16 1285.31 1551.43 L1285.31 1550.12 L1279.48 1550.12 M1291.16 1547.71 L1291.16 1568.04 L1285.31 1568.04 L1285.31 1562.63 Q1283.3 1565.88 1280.31 1567.44 Q1277.32 1568.97 1272.99 1568.97 Q1267.52 1568.97 1264.27 1565.91 Q1261.06 1562.82 1261.06 1557.67 Q1261.06 1551.65 1265.07 1548.6 Q1269.11 1545.54 1277.1 1545.54 L1285.31 1545.54 L1285.31 1544.97 Q1285.31 1540.93 1282.63 1538.73 Q1279.99 1536.5 1275.19 1536.5 Q1272.13 1536.5 1269.24 1537.23 Q1266.34 1537.97 1263.67 1539.43 L1263.67 1534.02 Q1266.88 1532.78 1269.9 1532.17 Q1272.93 1531.54 1275.79 1531.54 Q1283.53 1531.54 1287.35 1535.55 Q1291.16 1539.56 1291.16 1547.71 Z" fill="#000000" fill-rule="nonzero" fill-opacity="1" /><path clip-path="url(#clip450)" d="M1309.02 1522.27 L1309.02 1532.4 L1321.08 1532.4 L1321.08 1536.95 L1309.02 1536.95 L1309.02 1556.3 Q1309.02 1560.66 1310.2 1561.9 Q1311.41 1563.14 1315.07 1563.14 L1321.08 1563.14 L1321.08 1568.04 L1315.07 1568.04 Q1308.29 1568.04 1305.71 1565.53 Q1303.13 1562.98 1303.13 1556.3 L1303.13 1536.95 L1298.84 1536.95 L1298.84 1532.4 L1303.13 1532.4 L1303.13 1522.27 L1309.02 1522.27 Z" fill="#000000" fill-rule="nonzero" fill-opacity="1" /><path clip-path="url(#clip450)" d="M1359.28 1548.76 L1359.28 1551.62 L1332.35 1551.62 Q1332.73 1557.67 1335.98 1560.85 Q1339.26 1564 1345.08 1564 Q1348.46 1564 1351.61 1563.17 Q1354.79 1562.35 1357.91 1560.69 L1357.91 1566.23 Q1354.76 1567.57 1351.45 1568.27 Q1348.14 1568.97 1344.73 1568.97 Q1336.2 1568.97 1331.21 1564 Q1326.24 1559.04 1326.24 1550.57 Q1326.24 1541.82 1330.95 1536.69 Q1335.69 1531.54 1343.71 1531.54 Q1350.91 1531.54 1355.08 1536.18 Q1359.28 1540.8 1359.28 1548.76 M1353.42 1547.04 Q1353.36 1542.23 1350.72 1539.37 Q1348.11 1536.5 1343.78 1536.5 Q1338.88 1536.5 1335.92 1539.27 Q1332.99 1542.04 1332.54 1547.07 L1353.42 1547.04 Z" fill="#000000" fill-rule="nonzero" fill-opacity="1" /><polyline clip-path="url(#clip450)" style="stroke:#000000; stroke-linecap:round; stroke-linejoin:round; stroke-width:4; stroke-opacity:1; fill:none" points="219.866,1423.18 219.866,123.472 "/>
<polyline clip-path="url(#clip450)" style="stroke:#000000; stroke-linecap:round; stroke-linejoin:round; stroke-width:4; stroke-opacity:1; fill:none" points="219.866,1314.91 238.764,1314.91 "/>
<polyline clip-path="url(#clip450)" style="stroke:#000000; stroke-linecap:round; stroke-linejoin:round; stroke-width:4; stroke-opacity:1; fill:none" points="219.866,1024.52 238.764,1024.52 "/>
<polyline clip-path="url(#clip450)" style="stroke:#000000; stroke-linecap:round; stroke-linejoin:round; stroke-width:4; stroke-opacity:1; fill:none" points="219.866,734.122 238.764,734.122 "/>
<polyline clip-path="url(#clip450)" style="stroke:#000000; stroke-linecap:round; stroke-linejoin:round; stroke-width:4; stroke-opacity:1; fill:none" points="219.866,443.729 238.764,443.729 "/>
<polyline clip-path="url(#clip450)" style="stroke:#000000; stroke-linecap:round; stroke-linejoin:round; stroke-width:4; stroke-opacity:1; fill:none" points="219.866,153.336 238.764,153.336 "/>
<path clip-path="url(#clip450)" d="M126.691 1300.71 Q123.08 1300.71 121.251 1304.27 Q119.445 1307.81 119.445 1314.94 Q119.445 1322.05 121.251 1325.61 Q123.08 1329.16 126.691 1329.16 Q130.325 1329.16 132.13 1325.61 Q133.959 1322.05 133.959 1314.94 Q133.959 1307.81 132.13 1304.27 Q130.325 1300.71 126.691 1300.71 M126.691 1297 Q132.501 1297 135.556 1301.61 Q138.635 1306.19 138.635 1314.94 Q138.635 1323.67 135.556 1328.28 Q132.501 1332.86 126.691 1332.86 Q120.88 1332.86 117.802 1328.28 Q114.746 1323.67 114.746 1314.94 Q114.746 1306.19 117.802 1301.61 Q120.88 1297 126.691 1297 Z" fill="#000000" fill-rule="nonzero" fill-opacity="1" /><path clip-path="url(#clip450)" d="M146.853 1326.31 L151.737 1326.31 L151.737 1332.19 L146.853 1332.19 L146.853 1326.31 Z" fill="#000000" fill-rule="nonzero" fill-opacity="1" /><path clip-path="url(#clip450)" d="M171.922 1300.71 Q168.311 1300.71 166.482 1304.27 Q164.677 1307.81 164.677 1314.94 Q164.677 1322.05 166.482 1325.61 Q168.311 1329.16 171.922 1329.16 Q175.556 1329.16 177.362 1325.61 Q179.19 1322.05 179.19 1314.94 Q179.19 1307.81 177.362 1304.27 Q175.556 1300.71 171.922 1300.71 M171.922 1297 Q177.732 1297 180.788 1301.61 Q183.866 1306.19 183.866 1314.94 Q183.866 1323.67 180.788 1328.28 Q177.732 1332.86 171.922 1332.86 Q166.112 1332.86 163.033 1328.28 Q159.978 1323.67 159.978 1314.94 Q159.978 1306.19 163.033 1301.61 Q166.112 1297 171.922 1297 Z" fill="#000000" fill-rule="nonzero" fill-opacity="1" /><path clip-path="url(#clip450)" d="M128.288 1010.31 Q124.677 1010.31 122.848 1013.88 Q121.043 1017.42 121.043 1024.55 Q121.043 1031.66 122.848 1035.22 Q124.677 1038.76 128.288 1038.76 Q131.922 1038.76 133.728 1035.22 Q135.556 1031.66 135.556 1024.55 Q135.556 1017.42 133.728 1013.88 Q131.922 1010.31 128.288 1010.31 M128.288 1006.61 Q134.098 1006.61 137.154 1011.22 Q140.232 1015.8 140.232 1024.55 Q140.232 1033.28 137.154 1037.88 Q134.098 1042.47 128.288 1042.47 Q122.478 1042.47 119.399 1037.88 Q116.343 1033.28 116.343 1024.55 Q116.343 1015.8 119.399 1011.22 Q122.478 1006.61 128.288 1006.61 Z" fill="#000000" fill-rule="nonzero" fill-opacity="1" /><path clip-path="url(#clip450)" d="M148.45 1035.92 L153.334 1035.92 L153.334 1041.8 L148.45 1041.8 L148.45 1035.92 Z" fill="#000000" fill-rule="nonzero" fill-opacity="1" /><path clip-path="url(#clip450)" d="M167.547 1037.86 L183.866 1037.86 L183.866 1041.8 L161.922 1041.8 L161.922 1037.86 Q164.584 1035.11 169.167 1030.48 Q173.774 1025.82 174.954 1024.48 Q177.2 1021.96 178.079 1020.22 Q178.982 1018.46 178.982 1016.77 Q178.982 1014.02 177.038 1012.28 Q175.116 1010.55 172.014 1010.55 Q169.815 1010.55 167.362 1011.31 Q164.931 1012.07 162.153 1013.62 L162.153 1008.9 Q164.977 1007.77 167.431 1007.19 Q169.885 1006.61 171.922 1006.61 Q177.292 1006.61 180.487 1009.3 Q183.681 1011.98 183.681 1016.47 Q183.681 1018.6 182.871 1020.52 Q182.084 1022.42 179.977 1025.01 Q179.399 1025.68 176.297 1028.9 Q173.195 1032.1 167.547 1037.86 Z" fill="#000000" fill-rule="nonzero" fill-opacity="1" /><path clip-path="url(#clip450)" d="M126.205 719.921 Q122.593 719.921 120.765 723.486 Q118.959 727.027 118.959 734.157 Q118.959 741.263 120.765 744.828 Q122.593 748.37 126.205 748.37 Q129.839 748.37 131.644 744.828 Q133.473 741.263 133.473 734.157 Q133.473 727.027 131.644 723.486 Q129.839 719.921 126.205 719.921 M126.205 716.217 Q132.015 716.217 135.07 720.824 Q138.149 725.407 138.149 734.157 Q138.149 742.884 135.07 747.49 Q132.015 752.073 126.205 752.073 Q120.394 752.073 117.316 747.49 Q114.26 742.884 114.26 734.157 Q114.26 725.407 117.316 720.824 Q120.394 716.217 126.205 716.217 Z" fill="#000000" fill-rule="nonzero" fill-opacity="1" /><path clip-path="url(#clip450)" d="M146.366 745.523 L151.251 745.523 L151.251 751.402 L146.366 751.402 L146.366 745.523 Z" fill="#000000" fill-rule="nonzero" fill-opacity="1" /><path clip-path="url(#clip450)" d="M174.283 720.916 L162.477 739.365 L174.283 739.365 L174.283 720.916 M173.056 716.842 L178.936 716.842 L178.936 739.365 L183.866 739.365 L183.866 743.254 L178.936 743.254 L178.936 751.402 L174.283 751.402 L174.283 743.254 L158.681 743.254 L158.681 738.74 L173.056 716.842 Z" fill="#000000" fill-rule="nonzero" fill-opacity="1" /><path clip-path="url(#clip450)" d="M126.529 429.528 Q122.918 429.528 121.089 433.092 Q119.283 436.634 119.283 443.764 Q119.283 450.87 121.089 454.435 Q122.918 457.977 126.529 457.977 Q130.163 457.977 131.968 454.435 Q133.797 450.87 133.797 443.764 Q133.797 436.634 131.968 433.092 Q130.163 429.528 126.529 429.528 M126.529 425.824 Q132.339 425.824 135.394 430.43 Q138.473 435.014 138.473 443.764 Q138.473 452.49 135.394 457.097 Q132.339 461.68 126.529 461.68 Q120.718 461.68 117.64 457.097 Q114.584 452.49 114.584 443.764 Q114.584 435.014 117.64 430.43 Q120.718 425.824 126.529 425.824 Z" fill="#000000" fill-rule="nonzero" fill-opacity="1" /><path clip-path="url(#clip450)" d="M146.691 455.129 L151.575 455.129 L151.575 461.009 L146.691 461.009 L146.691 455.129 Z" fill="#000000" fill-rule="nonzero" fill-opacity="1" /><path clip-path="url(#clip450)" d="M172.339 441.866 Q169.19 441.866 167.339 444.018 Q165.51 446.171 165.51 449.921 Q165.51 453.648 167.339 455.824 Q169.19 457.977 172.339 457.977 Q175.487 457.977 177.315 455.824 Q179.167 453.648 179.167 449.921 Q179.167 446.171 177.315 444.018 Q175.487 441.866 172.339 441.866 M181.621 427.213 L181.621 431.472 Q179.862 430.639 178.056 430.199 Q176.274 429.759 174.514 429.759 Q169.885 429.759 167.431 432.884 Q165.001 436.009 164.653 442.328 Q166.019 440.315 168.079 439.25 Q170.139 438.162 172.616 438.162 Q177.825 438.162 180.834 441.333 Q183.866 444.481 183.866 449.921 Q183.866 455.245 180.718 458.463 Q177.57 461.68 172.339 461.68 Q166.343 461.68 163.172 457.097 Q160.001 452.49 160.001 443.764 Q160.001 435.569 163.89 430.708 Q167.778 425.824 174.329 425.824 Q176.089 425.824 177.871 426.171 Q179.676 426.518 181.621 427.213 Z" fill="#000000" fill-rule="nonzero" fill-opacity="1" /><path clip-path="url(#clip450)" d="M126.783 139.134 Q123.172 139.134 121.343 142.699 Q119.538 146.241 119.538 153.37 Q119.538 160.477 121.343 164.042 Q123.172 167.583 126.783 167.583 Q130.417 167.583 132.223 164.042 Q134.052 160.477 134.052 153.37 Q134.052 146.241 132.223 142.699 Q130.417 139.134 126.783 139.134 M126.783 135.431 Q132.593 135.431 135.649 140.037 Q138.728 144.62 138.728 153.37 Q138.728 162.097 135.649 166.704 Q132.593 171.287 126.783 171.287 Q120.973 171.287 117.894 166.704 Q114.839 162.097 114.839 153.37 Q114.839 144.62 117.894 140.037 Q120.973 135.431 126.783 135.431 Z" fill="#000000" fill-rule="nonzero" fill-opacity="1" /><path clip-path="url(#clip450)" d="M146.945 164.736 L151.829 164.736 L151.829 170.616 L146.945 170.616 L146.945 164.736 Z" fill="#000000" fill-rule="nonzero" fill-opacity="1" /><path clip-path="url(#clip450)" d="M172.014 154.204 Q168.681 154.204 166.76 155.986 Q164.862 157.769 164.862 160.894 Q164.862 164.018 166.76 165.801 Q168.681 167.583 172.014 167.583 Q175.348 167.583 177.269 165.801 Q179.19 163.995 179.19 160.894 Q179.19 157.769 177.269 155.986 Q175.371 154.204 172.014 154.204 M167.339 152.213 Q164.329 151.472 162.64 149.412 Q160.973 147.352 160.973 144.389 Q160.973 140.245 163.913 137.838 Q166.876 135.431 172.014 135.431 Q177.176 135.431 180.116 137.838 Q183.056 140.245 183.056 144.389 Q183.056 147.352 181.366 149.412 Q179.7 151.472 176.714 152.213 Q180.093 153 181.968 155.292 Q183.866 157.583 183.866 160.894 Q183.866 165.917 180.788 168.602 Q177.732 171.287 172.014 171.287 Q166.297 171.287 163.218 168.602 Q160.163 165.917 160.163 160.894 Q160.163 157.583 162.061 155.292 Q163.959 153 167.339 152.213 M165.626 144.829 Q165.626 147.514 167.292 149.019 Q168.982 150.523 172.014 150.523 Q175.024 150.523 176.714 149.019 Q178.426 147.514 178.426 144.829 Q178.426 142.144 176.714 140.639 Q175.024 139.134 172.014 139.134 Q168.982 139.134 167.292 140.639 Q165.626 142.144 165.626 144.829 Z" fill="#000000" fill-rule="nonzero" fill-opacity="1" /><path clip-path="url(#clip450)" d="M18.0438 1182.16 L24.314 1182.16 Q22.5634 1185.82 21.704 1189.07 Q20.8447 1192.32 20.8447 1195.34 Q20.8447 1200.59 22.8817 1203.46 Q24.9187 1206.29 28.6745 1206.29 Q31.8255 1206.29 33.4488 1204.41 Q35.0402 1202.5 36.0269 1197.22 L36.8226 1193.34 Q38.1912 1186.14 41.6605 1182.74 Q45.098 1179.3 50.8908 1179.3 Q57.7976 1179.3 61.3624 1183.95 Q64.9272 1188.56 64.9272 1197.5 Q64.9272 1200.88 64.1633 1204.7 Q63.3994 1208.49 61.9035 1212.56 L55.2831 1212.56 Q57.4793 1208.64 58.5933 1204.89 Q59.7073 1201.13 59.7073 1197.5 Q59.7073 1192 57.543 1189.01 Q55.3786 1186.01 51.3682 1186.01 Q47.8671 1186.01 45.8937 1188.18 Q43.9204 1190.31 42.9337 1195.21 L42.1698 1199.13 Q40.7375 1206.32 37.682 1209.54 Q34.6264 1212.75 29.1837 1212.75 Q22.8817 1212.75 19.2532 1208.33 Q15.6248 1203.87 15.6248 1196.07 Q15.6248 1192.73 16.2295 1189.26 Q16.8343 1185.79 18.0438 1182.16 Z" fill="#000000" fill-rule="nonzero" fill-opacity="1" /><path clip-path="url(#clip450)" d="M28.3562 1169.53 L28.3562 1163.67 L64.0042 1163.67 L64.0042 1169.53 L28.3562 1169.53 M14.479 1169.53 L14.479 1163.67 L21.895 1163.67 L21.895 1169.53 L14.479 1169.53 Z" fill="#000000" fill-rule="nonzero" fill-opacity="1" /><path clip-path="url(#clip450)" d="M35.1993 1123.66 Q31.2526 1121.47 29.3747 1118.41 Q27.4968 1115.36 27.4968 1111.22 Q27.4968 1105.65 31.4117 1102.62 Q35.2948 1099.6 42.4881 1099.6 L64.0042 1099.6 L64.0042 1105.49 L42.679 1105.49 Q37.5546 1105.49 35.072 1107.3 Q32.5894 1109.12 32.5894 1112.84 Q32.5894 1117.39 35.6131 1120.03 Q38.6368 1122.68 43.8567 1122.68 L64.0042 1122.68 L64.0042 1128.56 L42.679 1128.56 Q37.5228 1128.56 35.072 1130.38 Q32.5894 1132.19 32.5894 1135.98 Q32.5894 1140.47 35.6449 1143.11 Q38.6686 1145.75 43.8567 1145.75 L64.0042 1145.75 L64.0042 1151.64 L28.3562 1151.64 L28.3562 1145.75 L33.8944 1145.75 Q30.616 1143.75 29.0564 1140.95 Q27.4968 1138.14 27.4968 1134.29 Q27.4968 1130.41 29.4702 1127.7 Q31.4436 1124.97 35.1993 1123.66 Z" fill="#000000" fill-rule="nonzero" fill-opacity="1" /><path clip-path="url(#clip450)" d="M58.657 1082.25 L77.5631 1082.25 L77.5631 1088.14 L28.3562 1088.14 L28.3562 1082.25 L33.7671 1082.25 Q30.5842 1080.41 29.0564 1077.61 Q27.4968 1074.77 27.4968 1070.86 Q27.4968 1064.37 32.6531 1060.32 Q37.8093 1056.25 46.212 1056.25 Q54.6147 1056.25 59.771 1060.32 Q64.9272 1064.37 64.9272 1070.86 Q64.9272 1074.77 63.3994 1077.61 Q61.8398 1080.41 58.657 1082.25 M46.212 1062.33 Q39.7508 1062.33 36.0905 1065 Q32.3984 1067.64 32.3984 1072.29 Q32.3984 1076.94 36.0905 1079.61 Q39.7508 1082.25 46.212 1082.25 Q52.6732 1082.25 56.3653 1079.61 Q60.0256 1076.94 60.0256 1072.29 Q60.0256 1067.64 56.3653 1065 Q52.6732 1062.33 46.212 1062.33 Z" fill="#000000" fill-rule="nonzero" fill-opacity="1" /><path clip-path="url(#clip450)" d="M14.479 1046.54 L14.479 1040.69 L64.0042 1040.69 L64.0042 1046.54 L14.479 1046.54 Z" fill="#000000" fill-rule="nonzero" fill-opacity="1" /><path clip-path="url(#clip450)" d="M44.7161 997.94 L47.5806 997.94 L47.5806 1024.87 Q53.6281 1024.48 56.8109 1021.24 Q59.9619 1017.96 59.9619 1012.14 Q59.9619 1008.76 59.1344 1005.61 Q58.3069 1002.43 56.6518 999.309 L62.1899 999.309 Q63.5267 1002.46 64.227 1005.77 Q64.9272 1009.08 64.9272 1012.49 Q64.9272 1021.02 59.9619 1026.01 Q54.9967 1030.98 46.5303 1030.98 Q37.7774 1030.98 32.6531 1026.27 Q27.4968 1021.52 27.4968 1013.5 Q27.4968 1006.31 32.1438 1002.14 Q36.7589 997.94 44.7161 997.94 M42.9973 1003.8 Q38.1912 1003.86 35.3266 1006.5 Q32.4621 1009.11 32.4621 1013.44 Q32.4621 1018.34 35.2312 1021.3 Q38.0002 1024.23 43.0292 1024.68 L42.9973 1003.8 Z" fill="#000000" fill-rule="nonzero" fill-opacity="1" /><path clip-path="url(#clip450)" d="M20.1444 931.768 L26.9239 931.768 Q23.9002 935.015 22.4043 938.707 Q20.9083 942.367 20.9083 946.505 Q20.9083 954.653 25.9054 958.982 Q30.8707 963.31 40.2919 963.31 Q49.6813 963.31 54.6784 958.982 Q59.6436 954.653 59.6436 946.505 Q59.6436 942.367 58.1477 938.707 Q56.6518 935.015 53.6281 931.768 L60.3439 931.768 Q62.6355 935.142 63.7814 938.93 Q64.9272 942.686 64.9272 946.887 Q64.9272 957.677 58.3387 963.883 Q51.7183 970.09 40.2919 970.09 Q28.8336 970.09 22.2451 963.883 Q15.6248 957.677 15.6248 946.887 Q15.6248 942.622 16.7706 938.866 Q17.8846 935.079 20.1444 931.768 Z" fill="#000000" fill-rule="nonzero" fill-opacity="1" /><path clip-path="url(#clip450)" d="M49.9359 922.697 L28.3562 922.697 L28.3562 916.841 L49.7131 916.841 Q54.7739 916.841 57.3202 914.867 Q59.8346 912.894 59.8346 908.947 Q59.8346 904.205 56.8109 901.468 Q53.7872 898.699 48.5673 898.699 L28.3562 898.699 L28.3562 892.842 L64.0042 892.842 L64.0042 898.699 L58.5296 898.699 Q61.7762 900.831 63.3676 903.664 Q64.9272 906.465 64.9272 910.189 Q64.9272 916.332 61.1078 919.514 Q57.2883 922.697 49.9359 922.697 M27.4968 907.961 L27.4968 907.961 Z" fill="#000000" fill-rule="nonzero" fill-opacity="1" /><path clip-path="url(#clip450)" d="M35.1993 853.025 Q31.2526 850.828 29.3747 847.773 Q27.4968 844.717 27.4968 840.58 Q27.4968 835.01 31.4117 831.986 Q35.2948 828.962 42.4881 828.962 L64.0042 828.962 L64.0042 834.851 L42.679 834.851 Q37.5546 834.851 35.072 836.665 Q32.5894 838.479 32.5894 842.203 Q32.5894 846.754 35.6131 849.396 Q38.6368 852.038 43.8567 852.038 L64.0042 852.038 L64.0042 857.926 L42.679 857.926 Q37.5228 857.926 35.072 859.74 Q32.5894 861.555 32.5894 865.342 Q32.5894 869.83 35.6449 872.472 Q38.6686 875.114 43.8567 875.114 L64.0042 875.114 L64.0042 881.002 L28.3562 881.002 L28.3562 875.114 L33.8944 875.114 Q30.616 873.108 29.0564 870.308 Q27.4968 867.507 27.4968 863.655 Q27.4968 859.772 29.4702 857.067 Q31.4436 854.33 35.1993 853.025 Z" fill="#000000" fill-rule="nonzero" fill-opacity="1" /><path clip-path="url(#clip450)" d="M49.9359 817.886 L28.3562 817.886 L28.3562 812.029 L49.7131 812.029 Q54.7739 812.029 57.3202 810.056 Q59.8346 808.083 59.8346 804.136 Q59.8346 799.394 56.8109 796.656 Q53.7872 793.887 48.5673 793.887 L28.3562 793.887 L28.3562 788.031 L64.0042 788.031 L64.0042 793.887 L58.5296 793.887 Q61.7762 796.02 63.3676 798.852 Q64.9272 801.653 64.9272 805.377 Q64.9272 811.52 61.1078 814.703 Q57.2883 817.886 49.9359 817.886 M27.4968 803.149 L27.4968 803.149 Z" fill="#000000" fill-rule="nonzero" fill-opacity="1" /><path clip-path="url(#clip450)" d="M14.479 775.968 L14.479 770.111 L64.0042 770.111 L64.0042 775.968 L14.479 775.968 Z" fill="#000000" fill-rule="nonzero" fill-opacity="1" /><path clip-path="url(#clip450)" d="M46.0847 741.657 Q46.0847 748.754 47.7079 751.492 Q49.3312 754.229 53.2461 754.229 Q56.3653 754.229 58.2114 752.192 Q60.0256 750.123 60.0256 746.59 Q60.0256 741.72 56.5881 738.792 Q53.1188 735.832 47.3897 735.832 L46.0847 735.832 L46.0847 741.657 M43.6657 729.976 L64.0042 729.976 L64.0042 735.832 L58.5933 735.832 Q61.8398 737.837 63.3994 740.829 Q64.9272 743.821 64.9272 748.15 Q64.9272 753.624 61.8716 756.871 Q58.7843 760.085 53.6281 760.085 Q47.6125 760.085 44.5569 756.075 Q41.5014 752.033 41.5014 744.044 L41.5014 735.832 L40.9285 735.832 Q36.8862 735.832 34.6901 738.506 Q32.4621 741.147 32.4621 745.953 Q32.4621 749.009 33.1941 751.905 Q33.9262 754.802 35.3903 757.475 L29.9795 757.475 Q28.7381 754.261 28.1334 751.237 Q27.4968 748.213 27.4968 745.349 Q27.4968 737.614 31.5072 733.795 Q35.5176 729.976 43.6657 729.976 Z" fill="#000000" fill-rule="nonzero" fill-opacity="1" /><path clip-path="url(#clip450)" d="M18.2347 712.12 L28.3562 712.12 L28.3562 700.057 L32.9077 700.057 L32.9077 712.12 L52.2594 712.12 Q56.6199 712.12 57.8613 710.942 Q59.1026 709.733 59.1026 706.072 L59.1026 700.057 L64.0042 700.057 L64.0042 706.072 Q64.0042 712.852 61.4897 715.43 Q58.9434 718.008 52.2594 718.008 L32.9077 718.008 L32.9077 722.305 L28.3562 722.305 L28.3562 718.008 L18.2347 718.008 L18.2347 712.12 Z" fill="#000000" fill-rule="nonzero" fill-opacity="1" /><path clip-path="url(#clip450)" d="M28.3562 692.354 L28.3562 686.498 L64.0042 686.498 L64.0042 692.354 L28.3562 692.354 M14.479 692.354 L14.479 686.498 L21.895 686.498 L21.895 692.354 L14.479 692.354 Z" fill="#000000" fill-rule="nonzero" fill-opacity="1" /><path clip-path="url(#clip450)" d="M28.3562 678.445 L28.3562 672.239 L58.275 661.099 L28.3562 649.959 L28.3562 643.752 L64.0042 657.12 L64.0042 665.077 L28.3562 678.445 Z" fill="#000000" fill-rule="nonzero" fill-opacity="1" /><path clip-path="url(#clip450)" d="M44.7161 605.176 L47.5806 605.176 L47.5806 632.103 Q53.6281 631.721 56.8109 628.474 Q59.9619 625.196 59.9619 619.371 Q59.9619 615.998 59.1344 612.847 Q58.3069 609.664 56.6518 606.544 L62.1899 606.544 Q63.5267 609.695 64.227 613.006 Q64.9272 616.316 64.9272 619.721 Q64.9272 628.252 59.9619 633.249 Q54.9967 638.214 46.5303 638.214 Q37.7774 638.214 32.6531 633.503 Q27.4968 628.761 27.4968 620.74 Q27.4968 613.547 32.1438 609.377 Q36.7589 605.176 44.7161 605.176 M42.9973 611.032 Q38.1912 611.096 35.3266 613.738 Q32.4621 616.348 32.4621 620.676 Q32.4621 625.578 35.2312 628.538 Q38.0002 631.466 43.0292 631.912 L42.9973 611.032 Z" fill="#000000" fill-rule="nonzero" fill-opacity="1" /><path clip-path="url(#clip450)" d="M41.7242 552.054 Q42.4244 549.985 44.7161 548.044 Q47.0077 546.07 51.0181 544.097 L64.0042 537.572 L64.0042 544.479 L51.8138 550.558 Q47.0395 552.913 45.48 555.141 Q43.9204 557.338 43.9204 561.157 L43.9204 568.159 L64.0042 568.159 L64.0042 574.589 L16.4842 574.589 L16.4842 560.075 Q16.4842 551.927 19.8898 547.916 Q23.2955 543.906 30.1704 543.906 Q34.6582 543.906 37.6183 546.007 Q40.5784 548.075 41.7242 552.054 M21.7677 568.159 L38.6368 568.159 L38.6368 560.075 Q38.6368 555.428 36.5043 553.073 Q34.34 550.685 30.1704 550.685 Q26.0009 550.685 23.9002 553.073 Q21.7677 555.428 21.7677 560.075 L21.7677 568.159 Z" fill="#000000" fill-rule="nonzero" fill-opacity="1" /><path clip-path="url(#clip450)" d="M44.7161 501.988 L47.5806 501.988 L47.5806 528.915 Q53.6281 528.533 56.8109 525.286 Q59.9619 522.008 59.9619 516.183 Q59.9619 512.809 59.1344 509.658 Q58.3069 506.476 56.6518 503.356 L62.1899 503.356 Q63.5267 506.507 64.227 509.818 Q64.9272 513.128 64.9272 516.533 Q64.9272 525.063 59.9619 530.061 Q54.9967 535.026 46.5303 535.026 Q37.7774 535.026 32.6531 530.315 Q27.4968 525.573 27.4968 517.552 Q27.4968 510.359 32.1438 506.189 Q36.7589 501.988 44.7161 501.988 M42.9973 507.844 Q38.1912 507.908 35.3266 510.55 Q32.4621 513.16 32.4621 517.488 Q32.4621 522.39 35.2312 525.35 Q38.0002 528.278 43.0292 528.724 L42.9973 507.844 Z" fill="#000000" fill-rule="nonzero" fill-opacity="1" /><path clip-path="url(#clip450)" d="M18.2347 486.583 L28.3562 486.583 L28.3562 474.52 L32.9077 474.52 L32.9077 486.583 L52.2594 486.583 Q56.6199 486.583 57.8613 485.405 Q59.1026 484.196 59.1026 480.535 L59.1026 474.52 L64.0042 474.52 L64.0042 480.535 Q64.0042 487.315 61.4897 489.893 Q58.9434 492.471 52.2594 492.471 L32.9077 492.471 L32.9077 496.768 L28.3562 496.768 L28.3562 492.471 L18.2347 492.471 L18.2347 486.583 Z" fill="#000000" fill-rule="nonzero" fill-opacity="1" /><path clip-path="url(#clip450)" d="M49.9359 467.422 L28.3562 467.422 L28.3562 461.566 L49.7131 461.566 Q54.7739 461.566 57.3202 459.592 Q59.8346 457.619 59.8346 453.672 Q59.8346 448.93 56.8109 446.192 Q53.7872 443.423 48.5673 443.423 L28.3562 443.423 L28.3562 437.567 L64.0042 437.567 L64.0042 443.423 L58.5296 443.423 Q61.7762 445.556 63.3676 448.388 Q64.9272 451.189 64.9272 454.913 Q64.9272 461.056 61.1078 464.239 Q57.2883 467.422 49.9359 467.422 M27.4968 452.685 L27.4968 452.685 Z" fill="#000000" fill-rule="nonzero" fill-opacity="1" /><path clip-path="url(#clip450)" d="M33.8307 404.847 Q33.2578 405.834 33.0032 407.011 Q32.7167 408.157 32.7167 409.558 Q32.7167 414.523 35.9632 417.197 Q39.1779 419.838 45.2253 419.838 L64.0042 419.838 L64.0042 425.727 L28.3562 425.727 L28.3562 419.838 L33.8944 419.838 Q30.6479 417.992 29.0883 415.032 Q27.4968 412.072 27.4968 407.839 Q27.4968 407.234 27.5923 406.502 Q27.656 405.77 27.8151 404.879 L33.8307 404.847 Z" fill="#000000" fill-rule="nonzero" fill-opacity="1" /><path clip-path="url(#clip450)" d="M42.4881 370.218 L64.0042 370.218 L64.0042 376.074 L42.679 376.074 Q37.6183 376.074 35.1038 378.047 Q32.5894 380.021 32.5894 383.968 Q32.5894 388.71 35.6131 391.447 Q38.6368 394.184 43.8567 394.184 L64.0042 394.184 L64.0042 400.073 L28.3562 400.073 L28.3562 394.184 L33.8944 394.184 Q30.6797 392.084 29.0883 389.251 Q27.4968 386.387 27.4968 382.663 Q27.4968 376.52 31.3163 373.369 Q35.1038 370.218 42.4881 370.218 Z" fill="#000000" fill-rule="nonzero" fill-opacity="1" /><path clip-path="url(#clip450)" d="M29.4065 335.811 L34.9447 335.811 Q33.6716 338.294 33.035 340.967 Q32.3984 343.641 32.3984 346.505 Q32.3984 350.866 33.7352 353.062 Q35.072 355.226 37.7456 355.226 Q39.7826 355.226 40.9603 353.667 Q42.1061 352.107 43.1565 347.397 L43.6021 345.391 Q44.9389 339.153 47.3897 336.543 Q49.8086 333.901 54.1691 333.901 Q59.1344 333.901 62.0308 337.848 Q64.9272 341.763 64.9272 348.638 Q64.9272 351.502 64.3543 354.622 Q63.8132 357.709 62.6992 361.146 L56.6518 361.146 Q58.3387 357.9 59.198 354.749 Q60.0256 351.598 60.0256 348.511 Q60.0256 344.373 58.6251 342.145 Q57.1929 339.917 54.6147 339.917 Q52.2276 339.917 50.9545 341.54 Q49.6813 343.132 48.5037 348.574 L48.0262 350.611 Q46.8804 356.054 44.5251 358.473 Q42.138 360.892 38.0002 360.892 Q32.9713 360.892 30.2341 357.327 Q27.4968 353.762 27.4968 347.206 Q27.4968 343.959 27.9743 341.095 Q28.4517 338.23 29.4065 335.811 Z" fill="#000000" fill-rule="nonzero" fill-opacity="1" /><path clip-path="url(#clip450)" d="M1130.19 18.8205 L1130.19 41.5461 L1140.48 41.5461 Q1146.19 41.5461 1149.31 38.5889 Q1152.43 35.6318 1152.43 30.163 Q1152.43 24.7348 1149.31 21.7777 Q1146.19 18.8205 1140.48 18.8205 L1130.19 18.8205 M1122.01 12.096 L1140.48 12.096 Q1150.65 12.096 1155.83 16.714 Q1161.06 21.2916 1161.06 30.163 Q1161.06 39.1155 1155.83 43.6931 Q1150.65 48.2706 1140.48 48.2706 L1130.19 48.2706 L1130.19 72.576 L1122.01 72.576 L1122.01 12.096 Z" fill="#000000" fill-rule="nonzero" fill-opacity="1" /><path clip-path="url(#clip450)" d="M1186.33 32.4315 Q1180.34 32.4315 1176.86 37.1306 Q1173.37 41.7891 1173.37 49.9314 Q1173.37 58.0738 1176.82 62.7728 Q1180.3 67.4314 1186.33 67.4314 Q1192.29 67.4314 1195.77 62.7323 Q1199.26 58.0333 1199.26 49.9314 Q1199.26 41.8701 1195.77 37.1711 Q1192.29 32.4315 1186.33 32.4315 M1186.33 26.1121 Q1196.06 26.1121 1201.61 32.4315 Q1207.16 38.7509 1207.16 49.9314 Q1207.16 61.0714 1201.61 67.4314 Q1196.06 73.7508 1186.33 73.7508 Q1176.57 73.7508 1171.02 67.4314 Q1165.51 61.0714 1165.51 49.9314 Q1165.51 38.7509 1171.02 32.4315 Q1176.57 26.1121 1186.33 26.1121 Z" fill="#000000" fill-rule="nonzero" fill-opacity="1" /><path clip-path="url(#clip450)" d="M1245.8 34.1734 Q1244.55 33.4443 1243.05 33.1202 Q1241.59 32.7556 1239.81 32.7556 Q1233.49 32.7556 1230.08 36.8875 Q1226.72 40.9789 1226.72 48.6757 L1226.72 72.576 L1219.23 72.576 L1219.23 27.2059 L1226.72 27.2059 L1226.72 34.2544 Q1229.07 30.1225 1232.84 28.1376 Q1236.61 26.1121 1241.99 26.1121 Q1242.76 26.1121 1243.7 26.2337 Q1244.63 26.3147 1245.76 26.5172 L1245.8 34.1734 Z" fill="#000000" fill-rule="nonzero" fill-opacity="1" /><path clip-path="url(#clip450)" d="M1260.99 14.324 L1260.99 27.2059 L1276.35 27.2059 L1276.35 32.9987 L1260.99 32.9987 L1260.99 57.6282 Q1260.99 63.1779 1262.49 64.7578 Q1264.03 66.3376 1268.69 66.3376 L1276.35 66.3376 L1276.35 72.576 L1268.69 72.576 Q1260.06 72.576 1256.78 69.3758 Q1253.5 66.1351 1253.5 57.6282 L1253.5 32.9987 L1248.03 32.9987 L1248.03 27.2059 L1253.5 27.2059 L1253.5 14.324 L1260.99 14.324 Z" fill="#000000" fill-rule="nonzero" fill-opacity="1" /><path clip-path="url(#clip450)" d="M1309.12 9.54393 L1309.12 15.7418 L1301.99 15.7418 Q1297.98 15.7418 1296.4 17.3622 Q1294.86 18.9825 1294.86 23.1955 L1294.86 27.2059 L1307.13 27.2059 L1307.13 32.9987 L1294.86 32.9987 L1294.86 72.576 L1287.36 72.576 L1287.36 32.9987 L1280.23 32.9987 L1280.23 27.2059 L1287.36 27.2059 L1287.36 24.0462 Q1287.36 16.471 1290.89 13.0277 Q1294.41 9.54393 1302.07 9.54393 L1309.12 9.54393 Z" fill="#000000" fill-rule="nonzero" fill-opacity="1" /><path clip-path="url(#clip450)" d="M1332.94 32.4315 Q1326.94 32.4315 1323.46 37.1306 Q1319.97 41.7891 1319.97 49.9314 Q1319.97 58.0738 1323.42 62.7728 Q1326.9 67.4314 1332.94 67.4314 Q1338.89 67.4314 1342.38 62.7323 Q1345.86 58.0333 1345.86 49.9314 Q1345.86 41.8701 1342.38 37.1711 Q1338.89 32.4315 1332.94 32.4315 M1332.94 26.1121 Q1342.66 26.1121 1348.21 32.4315 Q1353.76 38.7509 1353.76 49.9314 Q1353.76 61.0714 1348.21 67.4314 Q1342.66 73.7508 1332.94 73.7508 Q1323.17 73.7508 1317.62 67.4314 Q1312.12 61.0714 1312.12 49.9314 Q1312.12 38.7509 1317.62 32.4315 Q1323.17 26.1121 1332.94 26.1121 Z" fill="#000000" fill-rule="nonzero" fill-opacity="1" /><path clip-path="url(#clip450)" d="M1366.11 9.54393 L1373.57 9.54393 L1373.57 72.576 L1366.11 72.576 L1366.11 9.54393 Z" fill="#000000" fill-rule="nonzero" fill-opacity="1" /><path clip-path="url(#clip450)" d="M1389.16 27.2059 L1396.62 27.2059 L1396.62 72.576 L1389.16 72.576 L1389.16 27.2059 M1389.16 9.54393 L1396.62 9.54393 L1396.62 18.9825 L1389.16 18.9825 L1389.16 9.54393 Z" fill="#000000" fill-rule="nonzero" fill-opacity="1" /><path clip-path="url(#clip450)" d="M1429.79 32.4315 Q1423.8 32.4315 1420.31 37.1306 Q1416.83 41.7891 1416.83 49.9314 Q1416.83 58.0738 1420.27 62.7728 Q1423.76 67.4314 1429.79 67.4314 Q1435.75 67.4314 1439.23 62.7323 Q1442.72 58.0333 1442.72 49.9314 Q1442.72 41.8701 1439.23 37.1711 Q1435.75 32.4315 1429.79 32.4315 M1429.79 26.1121 Q1439.52 26.1121 1445.07 32.4315 Q1450.62 38.7509 1450.62 49.9314 Q1450.62 61.0714 1445.07 67.4314 Q1439.52 73.7508 1429.79 73.7508 Q1420.03 73.7508 1414.48 67.4314 Q1408.97 61.0714 1408.97 49.9314 Q1408.97 38.7509 1414.48 32.4315 Q1420.03 26.1121 1429.79 26.1121 Z" fill="#000000" fill-rule="nonzero" fill-opacity="1" /><polyline clip-path="url(#clip451)" style="stroke:#009af9; stroke-linecap:round; stroke-linejoin:round; stroke-width:4; stroke-opacity:1; fill:none" points="280.231,1316.48 284.363,1303.67 287.117,1303.01 288.495,1333.49 289.872,1294.02 294.004,1288.97 295.381,1277.36 296.758,1281.78 298.135,1283.21 299.513,1280.5 303.644,1287.02 305.022,1273.33 306.399,1272.36 307.776,1262.43 309.153,1248.46 314.662,1262.02 316.04,1255.56 317.417,1266.48 318.794,1259.07 322.926,1267.4 324.303,1264.64 325.68,1243.33 327.058,1227.67 328.435,1217.67 332.567,1210.39 333.944,1208.54 335.321,1210.84 336.698,1221.88 338.076,1220.38 342.207,1223.58 343.584,1207.09 344.962,1201.76 346.339,1218.64 347.716,1198.43 353.225,1197.52 354.602,1196.41 355.98,1196 357.357,1189.65 361.489,1189.33 362.866,1191.01 364.243,1188.31 365.62,1186.75 366.998,1179.02 371.129,1182.42 372.507,1181.83 373.884,1191.15 375.261,1198.49 376.638,1205.17 380.77,1184.91 382.147,1180.35 383.525,1172.23 384.902,1174.84 386.279,1172.04 390.411,1161.67 391.788,1155.71 393.165,1159.41 394.543,1148.41 395.92,1163.59 400.052,1163.76 401.429,1152.84 402.806,1160.21 404.183,1154.98 405.561,1146.06 409.692,1136.6 411.07,1138.27 412.447,1139.26 413.824,1135.49 415.201,1130.2 419.333,1126.05 420.71,1133.68 422.088,1133.84 423.465,1137.17 424.842,1137.83 428.974,1133.47 430.351,1138.57 431.728,1135.87 433.106,1138.18 438.615,1135.56 439.992,1125.01 441.369,1128.97 442.746,1127.53 444.124,1123.84 448.255,1123.23 449.633,1112.73 451.01,1122.33 452.387,1123.02 453.764,1114.99 457.896,1117.41 459.273,1137.87 460.651,1137.27 462.028,1140.28 463.405,1130.36 467.537,1155.44 468.914,1147.02 470.291,1139.15 471.669,1126.6 473.046,1131.73 477.178,1135.52 478.555,1131.99 479.932,1129.22 481.309,1140.68 482.687,1137.33 488.196,1151.81 489.573,1162.49 490.95,1159.82 492.327,1174.73 496.459,1166.16 497.836,1142.53 499.214,1131.89 500.591,1119.35 501.968,1108.52 506.1,1104.37 507.477,1105.9 508.854,1103.6 510.232,1103.82 511.609,1101.94 515.741,1100.07 517.118,1089.4 518.495,1085.93 519.872,1074.78 521.25,1074.99 525.381,1075.24 526.759,1084.18 528.136,1092.44 529.513,1091.79 530.89,1087.92 535.022,1075.1 536.399,1072.56 537.777,1061.76 540.531,1067.53 544.663,1071.19 546.04,1071.37 547.417,1061.33 548.795,1064.2 550.172,1066.31 554.304,1064.17 555.681,1070.08 557.058,1077.23 558.435,1075.78 559.813,1087.59 563.944,1086.17 565.322,1070.08 566.699,1070.72 568.076,1077.6 569.453,1066.87 573.585,1066.96 574.962,1069.38 576.339,1086.33 577.717,1104.94 579.094,1104.76 583.226,1143.09 584.603,1126.21 585.98,1125.7 587.357,1101.3 588.735,1111.22 592.866,1124.86 594.244,1105.82 595.621,1145.33 596.998,1139.87 598.375,1120.88 602.507,1103.85 603.884,1115.48 605.262,1105.65 606.639,1104.19 608.016,1136.59 612.148,1118.09 613.525,1121.77 614.902,1110.15 616.28,1099.51 617.657,1096.93 623.166,1097.73 624.543,1086.49 625.92,1077.68 627.298,1075.39 631.429,1072.07 632.807,1067.62 634.184,1060.53 635.561,1057.31 636.938,1056.07 641.07,1059.89 642.447,1058.27 643.825,1055.81 645.202,1055.11 646.579,1057.36 650.711,1057.36 652.088,1066.33 653.465,1066.04 654.843,1070.74 656.22,1070.13 660.352,1066.25 661.729,1078.24 663.106,1108.52 664.483,1093.98 665.861,1071.45 669.992,1081.47 671.37,1097.94 672.747,1088.99 674.124,1081.72 675.501,1069.08 679.633,1071.05 681.01,1060.95 682.388,1063.36 683.765,1057.26 685.142,1063.15 689.274,1055.91 690.651,1051.62 692.028,1045.38 693.406,1048.41 694.783,1044.88 698.915,1038.05 700.292,1038.13 701.669,1029.94 703.046,1031.38 704.424,1026 708.555,1024.12 709.933,1027.71 711.31,1025.05 712.687,1022.1 714.064,1021.01 718.196,1028.29 719.573,1029.84 720.951,1024.96 722.328,1025.59 723.705,1012.21 727.837,1010.38 729.214,1015.86 730.591,1020.06 731.969,1016.8 733.346,1011.64 737.478,1006.42 738.855,998.583 740.232,995.457 742.987,1000.31 747.118,1003.12 748.496,1010.34 749.873,995.274 751.25,993.601 752.627,981.137 756.759,982.379 758.136,984.109 759.514,984.1 760.891,968.583 762.268,969.065 766.4,959.899 767.777,957.355 769.154,957.082 770.532,950.718 771.909,941.339 776.041,941.786 777.418,941.987 780.172,938.271 781.55,937.594 785.681,944.965 787.059,941.601 789.813,936.063 791.19,946.304 795.322,943.414 796.699,954.781 798.076,950.695 799.454,940.148 800.831,941.525 804.963,933.815 806.34,931.367 807.717,924.079 809.094,917.412 810.472,915.409 815.981,918.691 817.358,917.883 818.735,917.349 820.112,932.264 824.244,941.299 825.621,936.952 826.999,938.49 828.376,926.097 829.753,952.817 833.885,946.586 835.262,932.066 836.639,909.924 838.017,911.01 839.394,916.115 843.526,912.915 844.903,912.436 846.28,910.785 847.657,913.19 849.035,911.158 854.544,917.06 855.921,914.759 857.298,916.664 858.675,921.754 862.807,966.298 864.184,998.469 865.562,1004.33 866.939,1064.94 868.316,1087.83 872.448,1013.3 873.825,1049.25 875.202,978.843 876.58,1015.14 877.957,1035.92 882.089,1133 883.466,1070.51 884.843,1131.76 886.22,1264.29 887.598,1129.63 891.729,1279.28 893.107,1165.67 894.484,1240.89 895.861,1265.84 897.238,1347 901.37,1386.4 902.747,1259.67 904.125,1252.53 905.502,1160.21 906.879,1198.7 911.011,1134.89 912.388,1159.03 913.765,1205.63 915.143,1152.01 916.52,1159.29 920.652,1077.65 922.029,1087.95 923.406,1039.41 924.783,1026.9 930.292,1035.95 931.67,986.108 933.047,1011.04 934.424,1006.05 935.801,963.246 939.933,991.34 941.31,1026.56 942.688,1000.21 944.065,994.812 945.442,974.893 949.574,956.354 950.951,962.123 952.328,951.1 953.706,963.862 955.083,992.887 959.215,984.197 960.592,970.36 961.969,984.188 963.346,986.624 964.724,957.729 968.855,951.683 970.233,972.319 971.61,993.646 972.987,977.294 974.364,972.431 978.496,934.618 979.873,960.252 981.251,950.386 982.628,964.684 984.005,966.447 989.514,953.26 990.891,941.49 992.269,938.708 993.646,932.85 997.778,937.399 999.155,922.42 1000.53,908.022 1001.91,916.45 1003.29,887.215 1007.42,871.72 1008.8,878.518 1010.17,884.836 1011.55,968.438 1012.93,955.834 1017.06,952.941 1018.44,911.365 1019.81,922.315 1021.19,921.388 1022.57,927.498 1026.7,923.994 1028.08,922.66 1029.45,954.766 1030.83,938.487 1032.21,970.354 1036.34,949.261 1037.72,931.627 1039.09,930.517 1040.47,922.5 1045.98,907.389 1047.36,911.693 1048.74,907.061 1050.11,919.205 1051.49,903.568 1055.62,898.814 1057,877.418 1058.38,868.84 1059.75,873.572 1061.13,871.194 1065.26,869.722 1066.64,857.691 1068.02,838.099 1069.39,850.529 1070.77,851.883 1074.9,846.535 1076.28,843.462 1077.66,832.345 1079.04,841.713 1080.41,839.275 1084.54,828.278 1085.92,815.547 1087.3,810.773 1088.68,808.449 1090.05,805.34 1094.18,800.201 1095.56,812.059 1096.94,787.085 1098.32,789.795 1099.69,788.123 1103.83,781.998 1105.2,782.355 1106.58,791.077 1107.96,789.898 1109.33,783.538 1113.47,770.429 1114.84,774.024 1116.22,774.749 1117.6,769.298 1118.98,756.533 1123.11,760.1 1124.48,757.689 1125.86,738.459 1127.24,776.66 1128.62,779.031 1134.13,814.639 1135.5,789.991 1136.88,818.42 1138.26,811.295 1142.39,797.169 1143.77,795.784 1145.14,796.79 1146.52,802.344 1147.9,810.173 1152.03,826.146 1153.41,823.811 1154.78,848.609 1156.16,845.4 1157.54,830.212 1161.67,812.884 1163.05,821.952 1164.42,804.106 1165.8,805.466 1167.18,816.697 1171.31,796.564 1172.69,818.167 1174.07,796.637 1175.44,779.115 1176.82,769.76 1180.95,754.298 1182.33,763.494 1183.71,773.18 1185.08,775.626 1186.46,769.689 1190.59,791.673 1191.97,785.887 1193.35,794.566 1194.72,782.403 1196.1,777.622 1200.23,797.498 1201.61,809.43 1202.99,856.057 1204.36,849.095 1205.74,861.072 1209.87,839.704 1211.25,823.928 1212.63,791.619 1214.01,780.691 1215.38,779.057 1219.51,749.694 1220.89,734.914 1222.27,728.518 1223.65,741.225 1225.02,723.395 1229.16,713.354 1230.53,716.955 1231.91,734.91 1233.29,726.854 1234.66,730.546 1238.8,725.071 1240.17,711.166 1241.55,713.779 1244.31,710.358 1248.44,713.842 1249.81,697.946 1251.19,691.478 1252.57,694.679 1253.95,680.538 1258.08,686.638 1259.45,673.478 1260.83,671.045 1262.21,669.776 1263.59,673.498 1267.72,691.505 1269.1,673.426 1270.47,674.14 1271.85,666.009 1273.23,670.366 1277.36,676.047 1278.74,683.4 1280.11,679.941 1281.49,675.882 1287,668.099 1288.38,670.837 1289.75,669.218 1291.13,663.203 1296.64,678.093 1298.02,668.621 1299.39,664.725 1300.77,653.376 1302.15,647.856 1306.28,634.671 1307.66,636.231 1309.04,636.106 1310.41,637.388 1311.79,645.117 1317.3,639.358 1318.68,635.27 1320.05,635.829 1321.43,632.862 1325.56,619.98 1326.94,613.294 1328.32,644.633 1329.69,635.497 1331.07,667.059 1335.2,662.391 1336.58,657.575 1337.96,654.288 1339.34,641.87 1340.71,633.512 1344.84,622.434 1346.22,625.176 1347.6,625.441 1348.98,630.388 1350.35,622.86 1355.86,623.34 1357.24,617.753 1358.62,628.182 1359.99,637.302 1364.13,639.745 1365.5,643.746 1366.88,638.823 1368.26,660.655 1369.63,678.712 1373.77,656.464 1375.14,662.668 1376.52,672.055 1377.9,680.761 1379.28,650.42 1383.41,648.119 1384.78,643.342 1386.16,629.445 1387.54,628.475 1388.92,619.803 1393.05,617.369 1394.43,612.177 1395.8,615.523 1397.18,628.991 1398.56,622.494 1402.69,611.033 1404.07,615.302 1405.44,617.734 1406.82,609.304 1408.2,583.246 1412.33,577.563 1413.71,589.401 1415.08,590.41 1416.46,586.683 1421.97,571.288 1423.35,573.052 1424.72,570.49 1426.1,570.872 1427.48,564.902 1431.61,565.379 1432.99,568.378 1434.37,568.992 1435.74,558.652 1437.12,547.114 1441.25,547.168 1442.63,543.751 1444.01,534.816 1445.38,550.943 1446.76,544.259 1450.89,555.375 1452.27,556.999 1453.65,561.717 1455.02,551.505 1456.4,557.427 1460.53,537.89 1461.91,539.343 1463.29,536.993 1464.66,524.387 1466.04,517.751 1470.17,512.784 1471.55,529.059 1472.93,547.299 1474.31,528.732 1475.68,519.007 1479.81,519.537 1481.19,527.765 1482.57,531.294 1483.95,520.019 1485.32,521.319 1489.46,515.735 1490.83,519.18 1492.21,518.76 1493.59,524.914 1494.96,523.343 1500.47,530.646 1501.85,524.879 1503.23,521.531 1504.6,516.141 1508.74,514.555 1510.11,520.725 1511.49,517.41 1512.87,505.615 1514.25,509.164 1518.38,508.925 1519.75,511.96 1521.13,522.418 1522.51,518.543 1523.89,541.931 1528.02,523.692 1529.4,517.751 1530.77,525.652 1532.15,514.264 1533.53,507.277 1537.66,506.734 1539.04,505.968 1540.41,495.897 1541.79,490.219 1543.17,480.451 1548.68,490.846 1550.05,484.987 1551.43,492.749 1552.81,482.084 1556.94,480.799 1558.32,478.941 1559.69,472.916 1561.07,471.906 1562.45,476.595 1566.58,492.522 1567.96,479.741 1569.34,470.803 1570.71,470.574 1572.09,455.08 1576.22,452.057 1577.6,451.985 1578.98,454.116 1580.35,449.111 1581.73,449.5 1585.86,450.572 1587.24,432.229 1588.62,443.787 1589.99,437.862 1591.37,436.928 1595.5,436.821 1596.88,426.141 1598.26,423.379 1599.64,418.607 1601.01,414.478 1605.14,404.867 1606.52,409.138 1607.9,425.833 1609.28,418.523 1610.65,410.479 1614.78,408.335 1616.16,414.926 1617.54,417.094 1618.92,427.077 1620.29,423.582 1624.43,417.236 1625.8,422.506 1627.18,420.185 1628.56,410.501 1629.93,410.115 1635.44,423.903 1636.82,422.402 1638.2,434.45 1639.58,443.055 1643.71,436.085 1645.08,445.238 1646.46,436.439 1647.84,440.158 1649.22,449.358 1653.35,465.059 1654.73,463.989 1656.1,456.472 1657.48,444.768 1658.86,443.961 1662.99,443.936 1664.37,461.491 1665.74,451.046 1667.12,469.705 1668.5,455.452 1672.63,463.998 1674.01,454.342 1675.38,446.092 1676.76,429.929 1678.14,431.652 1682.27,434.569 1683.65,439.325 1685.02,436.478 1686.4,418.203 1687.78,409.555 1691.91,410.824 1693.29,395.516 1694.67,385.133 1696.04,385.87 1697.42,378.208 1701.55,373.623 1702.93,363.326 1704.31,366.738 1705.68,354.024 1707.06,347.57 1711.19,350.289 1712.57,338.206 1713.95,332.93 1715.32,328.051 1716.7,328.568 1720.83,330.866 1722.21,328.41 1723.59,328.753 1724.96,329.001 1726.34,324.459 1730.47,327.019 1731.85,322.41 1733.23,323.677 1734.61,318.475 1735.98,325.004 1740.11,320.175 1741.49,314.268 1742.87,316.632 1745.62,341.524 1749.76,336.952 1751.13,363.544 1752.51,366.341 1753.89,359.201 1755.26,352.503 1759.4,337.043 1760.77,328.031 1762.15,327.33 1763.53,326.308 1764.9,310.563 1769.04,306.928 1770.41,305.993 1771.79,283.73 1773.17,283.901 1774.55,312.443 1778.68,315.834 1780.05,308.548 1781.43,297.334 1782.81,294.863 1788.32,276.332 1789.7,273.118 1791.07,269.728 1792.45,271.933 1793.83,270.539 1797.96,266.867 1799.34,264.454 1800.71,268.366 1802.09,274.228 1803.47,271.298 1807.6,271.574 1808.98,267.287 1810.35,267.595 1811.73,278.138 1813.11,281.865 1818.62,300.64 1819.99,301.32 1821.37,314.027 1822.75,324.334 1826.88,326.444 1828.26,328.964 1829.64,329.367 1831.01,324.766 1832.39,301.304 1836.52,291.305 1837.9,286.337 1839.28,270.929 1840.65,281.545 1842.03,285.226 1846.16,287.194 1847.54,282.368 1848.92,278.359 1850.29,299.123 1851.67,312.996 1855.8,321.26 1857.18,309.064 1858.56,310.608 1859.94,319.68 1861.31,325.174 1866.82,344.582 1868.2,359.882 1869.58,368.495 1870.95,322.288 1875.08,334.543 1876.46,345.461 1877.84,321.699 1879.22,317.014 1880.59,313.099 1884.73,333.702 1886.1,357.329 1887.48,337.289 1888.86,343.315 1890.23,352.896 1894.37,343.36 1895.74,317.015 1897.12,307.136 1898.5,291.173 1899.88,285.17 1904.01,284.634 1905.38,279.163 1906.76,291.128 1908.14,279.319 1909.52,271.178 1913.65,265.618 1915.03,256.888 1916.4,256.95 1917.78,279.814 1919.16,267.952 1923.29,267.001 1924.67,269.515 1926.04,256.33 1927.42,246.029 1928.8,235.791 1932.93,253.726 1934.31,253.995 1935.68,246.07 1937.06,256.343 1942.57,261.942 1943.95,245.47 1945.32,233.937 1946.7,246.452 1948.08,276.835 1952.21,264.113 1953.59,285.805 1954.97,280.845 1956.34,250.569 1957.72,289.708 1961.85,294.226 1963.23,289.858 1964.61,251.402 1965.98,285.361 1967.36,283.298 1971.49,303.916 1972.87,307.38 1974.25,318.47 1975.62,314.438 1977,296.721 1981.13,286.999 1982.51,283.478 1983.89,347.672 1985.26,361.99 1986.64,351.044 1990.77,318.708 1992.15,307.123 1993.53,298.714 1994.91,282.494 1996.28,261.768 2001.79,281.758 2003.17,293.134 2004.55,283.73 2005.92,296.243 2010.06,296.268 2011.43,282.779 2012.81,293.055 2014.19,321.011 2015.56,345.216 2019.7,381.916 2021.07,398.728 2022.45,387.704 2023.83,409.077 2025.2,417.318 2030.71,377.36 2032.09,373.444 2033.47,356.074 2034.85,329.048 2038.98,326.092 2040.35,349.953 2041.73,345.87 2043.11,352.892 2044.49,334.082 2050,340.482 2051.37,335.295 2052.75,323.854 2054.13,321.939 2058.26,327.519 2059.64,339.92 2061.01,343.05 2062.39,344.143 2063.77,320.451 2067.9,336.624 2069.28,315.46 2070.65,321.355 2072.03,315.542 2073.41,315.518 2077.54,306.29 2078.92,310.306 2080.29,297.025 2081.67,283.234 2083.05,274.524 2087.18,274.836 2088.56,289.222 2089.94,280.809 2091.31,295.739 2092.69,293.998 2096.82,294.504 2098.2,290.95 2099.58,275.156 2100.95,278.299 2102.33,261.23 2106.46,256.34 2107.84,243.685 2109.22,245.308 2110.59,243.929 2111.97,247.824 2116.1,264.667 2117.48,270.524 2118.86,268.546 2120.24,257.086 2121.61,293.24 2125.74,300.008 2127.12,313.833 2128.5,328.906 2129.88,314.274 2131.25,329.896 2136.76,334.025 2138.14,315.167 2139.52,305.038 2140.89,294.043 2145.03,284.386 2146.4,335.178 2147.78,324.994 2149.16,335.495 2150.53,334.939 2154.67,329.117 2156.04,339.705 2157.42,358.086 2158.8,352.329 2160.18,368.728 2164.31,382.9 2165.68,390.411 2167.06,363.404 2168.44,383.078 2169.82,402.903 2173.95,376.018 2175.32,345.342 2176.7,346.802 2178.08,364.287 2179.46,390.304 2183.59,395.252 2184.97,393.203 2186.34,383.356 2187.72,345.455 2189.1,364.81 2193.23,336.513 2194.61,321.531 2195.98,333.53 2197.36,342.043 2198.74,308.897 2202.87,285.496 2204.25,272.9 2205.62,267.713 2207,269.319 2208.38,237.439 2212.51,243.518 2213.89,247.447 2215.27,269.386 2216.64,272.459 2218.02,259.029 2222.15,242.859 2223.53,236.682 2224.91,260.898 2226.28,215.105 2227.66,223.73 2231.79,226.67 2233.17,222.653 2234.55,225.007 2235.92,216.742 2237.3,206.184 2241.43,201.135 2242.81,181.077 2244.19,177.017 2246.94,175.31 2251.07,186.366 2252.45,189.832 2253.83,160.265 2255.21,160.319 2256.58,160.256 2260.71,181.139 2262.09,197.482 2263.47,194.535 2264.85,185.043 2266.22,200.585 2270.36,180.839 2271.73,174.67 2273.11,176.414 2274.49,199.973 2275.86,213.196 2280,214.022 2281.37,210.98 2282.75,191.461 2284.13,204.152 2285.5,193.782 2291.01,191.284 2292.39,204.765 "/>
</svg>
