<?xml version="1.0" encoding="utf-8"?>
<svg xmlns="http://www.w3.org/2000/svg" xmlns:xlink="http://www.w3.org/1999/xlink" width="600" height="400" viewBox="0 0 2400 1600">
<defs>
  <clipPath id="clip780">
    <rect x="0" y="0" width="2400" height="1600"/>
  </clipPath>
</defs>
<path clip-path="url(#clip780)" d="M0 1600 L2400 1600 L2400 0 L0 0  Z" fill="#ffffff" fill-rule="evenodd" fill-opacity="1"/>
<defs>
  <clipPath id="clip781">
    <rect x="310" y="123" width="1981" height="1301"/>
  </clipPath>
</defs>
<path clip-path="url(#clip780)" d="M310.028 1423.18 L2289.76 1423.18 L2289.76 123.472 L310.028 123.472  Z" fill="#ffffff" fill-rule="evenodd" fill-opacity="1"/>
<polyline clip-path="url(#clip781)" style="stroke:#000000; stroke-linecap:round; stroke-linejoin:round; stroke-width:2; stroke-opacity:0.1; fill:none" points="359.842,1423.18 359.842,123.472 "/>
<polyline clip-path="url(#clip781)" style="stroke:#000000; stroke-linecap:round; stroke-linejoin:round; stroke-width:2; stroke-opacity:0.1; fill:none" points="762.486,1423.18 762.486,123.472 "/>
<polyline clip-path="url(#clip781)" style="stroke:#000000; stroke-linecap:round; stroke-linejoin:round; stroke-width:2; stroke-opacity:0.1; fill:none" points="1165.13,1423.18 1165.13,123.472 "/>
<polyline clip-path="url(#clip781)" style="stroke:#000000; stroke-linecap:round; stroke-linejoin:round; stroke-width:2; stroke-opacity:0.1; fill:none" points="1567.77,1423.18 1567.77,123.472 "/>
<polyline clip-path="url(#clip781)" style="stroke:#000000; stroke-linecap:round; stroke-linejoin:round; stroke-width:2; stroke-opacity:0.1; fill:none" points="1970.42,1423.18 1970.42,123.472 "/>
<polyline clip-path="url(#clip781)" style="stroke:#000000; stroke-linecap:round; stroke-linejoin:round; stroke-width:2; stroke-opacity:0.1; fill:none" points="310.028,1396.06 2289.76,1396.06 "/>
<polyline clip-path="url(#clip781)" style="stroke:#000000; stroke-linecap:round; stroke-linejoin:round; stroke-width:2; stroke-opacity:0.1; fill:none" points="310.028,1065.34 2289.76,1065.34 "/>
<polyline clip-path="url(#clip781)" style="stroke:#000000; stroke-linecap:round; stroke-linejoin:round; stroke-width:2; stroke-opacity:0.1; fill:none" points="310.028,734.617 2289.76,734.617 "/>
<polyline clip-path="url(#clip781)" style="stroke:#000000; stroke-linecap:round; stroke-linejoin:round; stroke-width:2; stroke-opacity:0.1; fill:none" points="310.028,403.897 2289.76,403.897 "/>
<polyline clip-path="url(#clip780)" style="stroke:#000000; stroke-linecap:round; stroke-linejoin:round; stroke-width:4; stroke-opacity:1; fill:none" points="310.028,1423.18 2289.76,1423.18 "/>
<polyline clip-path="url(#clip780)" style="stroke:#000000; stroke-linecap:round; stroke-linejoin:round; stroke-width:4; stroke-opacity:1; fill:none" points="359.842,1423.18 359.842,1404.28 "/>
<polyline clip-path="url(#clip780)" style="stroke:#000000; stroke-linecap:round; stroke-linejoin:round; stroke-width:4; stroke-opacity:1; fill:none" points="762.486,1423.18 762.486,1404.28 "/>
<polyline clip-path="url(#clip780)" style="stroke:#000000; stroke-linecap:round; stroke-linejoin:round; stroke-width:4; stroke-opacity:1; fill:none" points="1165.13,1423.18 1165.13,1404.28 "/>
<polyline clip-path="url(#clip780)" style="stroke:#000000; stroke-linecap:round; stroke-linejoin:round; stroke-width:4; stroke-opacity:1; fill:none" points="1567.77,1423.18 1567.77,1404.28 "/>
<polyline clip-path="url(#clip780)" style="stroke:#000000; stroke-linecap:round; stroke-linejoin:round; stroke-width:4; stroke-opacity:1; fill:none" points="1970.42,1423.18 1970.42,1404.28 "/>
<path clip-path="url(#clip780)" d="M307.065 1454.1 Q303.454 1454.1 301.625 1457.66 Q299.82 1461.2 299.82 1468.33 Q299.82 1475.44 301.625 1479.01 Q303.454 1482.55 307.065 1482.55 Q310.699 1482.55 312.505 1479.01 Q314.333 1475.44 314.333 1468.33 Q314.333 1461.2 312.505 1457.66 Q310.699 1454.1 307.065 1454.1 M307.065 1450.39 Q312.875 1450.39 315.931 1455 Q319.009 1459.58 319.009 1468.33 Q319.009 1477.06 315.931 1481.67 Q312.875 1486.25 307.065 1486.25 Q301.255 1486.25 298.176 1481.67 Q295.121 1477.06 295.121 1468.33 Q295.121 1459.58 298.176 1455 Q301.255 1450.39 307.065 1450.39 Z" fill="#000000" fill-rule="nonzero" fill-opacity="1" /><path clip-path="url(#clip780)" d="M327.227 1479.7 L332.111 1479.7 L332.111 1485.58 L327.227 1485.58 L327.227 1479.7 Z" fill="#000000" fill-rule="nonzero" fill-opacity="1" /><path clip-path="url(#clip780)" d="M352.296 1454.1 Q348.685 1454.1 346.856 1457.66 Q345.051 1461.2 345.051 1468.33 Q345.051 1475.44 346.856 1479.01 Q348.685 1482.55 352.296 1482.55 Q355.93 1482.55 357.736 1479.01 Q359.565 1475.44 359.565 1468.33 Q359.565 1461.2 357.736 1457.66 Q355.93 1454.1 352.296 1454.1 M352.296 1450.39 Q358.106 1450.39 361.162 1455 Q364.241 1459.58 364.241 1468.33 Q364.241 1477.06 361.162 1481.67 Q358.106 1486.25 352.296 1486.25 Q346.486 1486.25 343.407 1481.67 Q340.352 1477.06 340.352 1468.33 Q340.352 1459.58 343.407 1455 Q346.486 1450.39 352.296 1450.39 Z" fill="#000000" fill-rule="nonzero" fill-opacity="1" /><path clip-path="url(#clip780)" d="M373.268 1481.64 L380.907 1481.64 L380.907 1455.28 L372.597 1456.95 L372.597 1452.69 L380.861 1451.02 L385.537 1451.02 L385.537 1481.64 L393.176 1481.64 L393.176 1485.58 L373.268 1485.58 L373.268 1481.64 Z" fill="#000000" fill-rule="nonzero" fill-opacity="1" /><path clip-path="url(#clip780)" d="M412.62 1454.1 Q409.009 1454.1 407.18 1457.66 Q405.375 1461.2 405.375 1468.33 Q405.375 1475.44 407.18 1479.01 Q409.009 1482.55 412.62 1482.55 Q416.254 1482.55 418.06 1479.01 Q419.888 1475.44 419.888 1468.33 Q419.888 1461.2 418.06 1457.66 Q416.254 1454.1 412.62 1454.1 M412.62 1450.39 Q418.43 1450.39 421.486 1455 Q424.564 1459.58 424.564 1468.33 Q424.564 1477.06 421.486 1481.67 Q418.43 1486.25 412.62 1486.25 Q406.81 1486.25 403.731 1481.67 Q400.676 1477.06 400.676 1468.33 Q400.676 1459.58 403.731 1455 Q406.81 1450.39 412.62 1450.39 Z" fill="#000000" fill-rule="nonzero" fill-opacity="1" /><path clip-path="url(#clip780)" d="M710.206 1454.1 Q706.595 1454.1 704.767 1457.66 Q702.961 1461.2 702.961 1468.33 Q702.961 1475.44 704.767 1479.01 Q706.595 1482.55 710.206 1482.55 Q713.841 1482.55 715.646 1479.01 Q717.475 1475.44 717.475 1468.33 Q717.475 1461.2 715.646 1457.66 Q713.841 1454.1 710.206 1454.1 M710.206 1450.39 Q716.017 1450.39 719.072 1455 Q722.151 1459.58 722.151 1468.33 Q722.151 1477.06 719.072 1481.67 Q716.017 1486.25 710.206 1486.25 Q704.396 1486.25 701.318 1481.67 Q698.262 1477.06 698.262 1468.33 Q698.262 1459.58 701.318 1455 Q704.396 1450.39 710.206 1450.39 Z" fill="#000000" fill-rule="nonzero" fill-opacity="1" /><path clip-path="url(#clip780)" d="M730.368 1479.7 L735.253 1479.7 L735.253 1485.58 L730.368 1485.58 L730.368 1479.7 Z" fill="#000000" fill-rule="nonzero" fill-opacity="1" /><path clip-path="url(#clip780)" d="M755.438 1454.1 Q751.827 1454.1 749.998 1457.66 Q748.192 1461.2 748.192 1468.33 Q748.192 1475.44 749.998 1479.01 Q751.827 1482.55 755.438 1482.55 Q759.072 1482.55 760.877 1479.01 Q762.706 1475.44 762.706 1468.33 Q762.706 1461.2 760.877 1457.66 Q759.072 1454.1 755.438 1454.1 M755.438 1450.39 Q761.248 1450.39 764.303 1455 Q767.382 1459.58 767.382 1468.33 Q767.382 1477.06 764.303 1481.67 Q761.248 1486.25 755.438 1486.25 Q749.628 1486.25 746.549 1481.67 Q743.493 1477.06 743.493 1468.33 Q743.493 1459.58 746.549 1455 Q749.628 1450.39 755.438 1450.39 Z" fill="#000000" fill-rule="nonzero" fill-opacity="1" /><path clip-path="url(#clip780)" d="M776.41 1481.64 L784.049 1481.64 L784.049 1455.28 L775.739 1456.95 L775.739 1452.69 L784.002 1451.02 L788.678 1451.02 L788.678 1481.64 L796.317 1481.64 L796.317 1485.58 L776.41 1485.58 L776.41 1481.64 Z" fill="#000000" fill-rule="nonzero" fill-opacity="1" /><path clip-path="url(#clip780)" d="M805.808 1451.02 L824.164 1451.02 L824.164 1454.96 L810.09 1454.96 L810.09 1463.43 Q811.109 1463.08 812.127 1462.92 Q813.146 1462.73 814.164 1462.73 Q819.951 1462.73 823.331 1465.9 Q826.71 1469.08 826.71 1474.49 Q826.71 1480.07 823.238 1483.17 Q819.766 1486.25 813.447 1486.25 Q811.271 1486.25 809.002 1485.88 Q806.757 1485.51 804.349 1484.77 L804.349 1480.07 Q806.433 1481.2 808.655 1481.76 Q810.877 1482.32 813.354 1482.32 Q817.359 1482.32 819.697 1480.21 Q822.035 1478.1 822.035 1474.49 Q822.035 1470.88 819.697 1468.77 Q817.359 1466.67 813.354 1466.67 Q811.479 1466.67 809.604 1467.08 Q807.752 1467.5 805.808 1468.38 L805.808 1451.02 Z" fill="#000000" fill-rule="nonzero" fill-opacity="1" /><path clip-path="url(#clip780)" d="M1112.35 1454.1 Q1108.74 1454.1 1106.91 1457.66 Q1105.11 1461.2 1105.11 1468.33 Q1105.11 1475.44 1106.91 1479.01 Q1108.74 1482.55 1112.35 1482.55 Q1115.99 1482.55 1117.79 1479.01 Q1119.62 1475.44 1119.62 1468.33 Q1119.62 1461.2 1117.79 1457.66 Q1115.99 1454.1 1112.35 1454.1 M1112.35 1450.39 Q1118.16 1450.39 1121.22 1455 Q1124.3 1459.58 1124.3 1468.33 Q1124.3 1477.06 1121.22 1481.67 Q1118.16 1486.25 1112.35 1486.25 Q1106.54 1486.25 1103.46 1481.67 Q1100.41 1477.06 1100.41 1468.33 Q1100.41 1459.58 1103.46 1455 Q1106.54 1450.39 1112.35 1450.39 Z" fill="#000000" fill-rule="nonzero" fill-opacity="1" /><path clip-path="url(#clip780)" d="M1132.51 1479.7 L1137.4 1479.7 L1137.4 1485.58 L1132.51 1485.58 L1132.51 1479.7 Z" fill="#000000" fill-rule="nonzero" fill-opacity="1" /><path clip-path="url(#clip780)" d="M1157.58 1454.1 Q1153.97 1454.1 1152.14 1457.66 Q1150.34 1461.2 1150.34 1468.33 Q1150.34 1475.44 1152.14 1479.01 Q1153.97 1482.55 1157.58 1482.55 Q1161.22 1482.55 1163.02 1479.01 Q1164.85 1475.44 1164.85 1468.33 Q1164.85 1461.2 1163.02 1457.66 Q1161.22 1454.1 1157.58 1454.1 M1157.58 1450.39 Q1163.39 1450.39 1166.45 1455 Q1169.53 1459.58 1169.53 1468.33 Q1169.53 1477.06 1166.45 1481.67 Q1163.39 1486.25 1157.58 1486.25 Q1151.77 1486.25 1148.69 1481.67 Q1145.64 1477.06 1145.64 1468.33 Q1145.64 1459.58 1148.69 1455 Q1151.77 1450.39 1157.58 1450.39 Z" fill="#000000" fill-rule="nonzero" fill-opacity="1" /><path clip-path="url(#clip780)" d="M1181.77 1481.64 L1198.09 1481.64 L1198.09 1485.58 L1176.15 1485.58 L1176.15 1481.64 Q1178.81 1478.89 1183.39 1474.26 Q1188 1469.61 1189.18 1468.27 Q1191.43 1465.74 1192.31 1464.01 Q1193.21 1462.25 1193.21 1460.56 Q1193.21 1457.8 1191.26 1456.07 Q1189.34 1454.33 1186.24 1454.33 Q1184.04 1454.33 1181.59 1455.09 Q1179.16 1455.86 1176.38 1457.41 L1176.38 1452.69 Q1179.2 1451.55 1181.66 1450.97 Q1184.11 1450.39 1186.15 1450.39 Q1191.52 1450.39 1194.71 1453.08 Q1197.91 1455.77 1197.91 1460.26 Q1197.91 1462.39 1197.1 1464.31 Q1196.31 1466.2 1194.2 1468.8 Q1193.63 1469.47 1190.52 1472.69 Q1187.42 1475.88 1181.77 1481.64 Z" fill="#000000" fill-rule="nonzero" fill-opacity="1" /><path clip-path="url(#clip780)" d="M1217.91 1454.1 Q1214.3 1454.1 1212.47 1457.66 Q1210.66 1461.2 1210.66 1468.33 Q1210.66 1475.44 1212.47 1479.01 Q1214.3 1482.55 1217.91 1482.55 Q1221.54 1482.55 1223.35 1479.01 Q1225.18 1475.44 1225.18 1468.33 Q1225.18 1461.2 1223.35 1457.66 Q1221.54 1454.1 1217.91 1454.1 M1217.91 1450.39 Q1223.72 1450.39 1226.77 1455 Q1229.85 1459.58 1229.85 1468.33 Q1229.85 1477.06 1226.77 1481.67 Q1223.72 1486.25 1217.91 1486.25 Q1212.1 1486.25 1209.02 1481.67 Q1205.96 1477.06 1205.96 1468.33 Q1205.96 1459.58 1209.02 1455 Q1212.1 1450.39 1217.91 1450.39 Z" fill="#000000" fill-rule="nonzero" fill-opacity="1" /><path clip-path="url(#clip780)" d="M1515.49 1454.1 Q1511.88 1454.1 1510.05 1457.66 Q1508.25 1461.2 1508.25 1468.33 Q1508.25 1475.44 1510.05 1479.01 Q1511.88 1482.55 1515.49 1482.55 Q1519.13 1482.55 1520.93 1479.01 Q1522.76 1475.44 1522.76 1468.33 Q1522.76 1461.2 1520.93 1457.66 Q1519.13 1454.1 1515.49 1454.1 M1515.49 1450.39 Q1521.3 1450.39 1524.36 1455 Q1527.44 1459.58 1527.44 1468.33 Q1527.44 1477.06 1524.36 1481.67 Q1521.3 1486.25 1515.49 1486.25 Q1509.68 1486.25 1506.61 1481.67 Q1503.55 1477.06 1503.55 1468.33 Q1503.55 1459.58 1506.61 1455 Q1509.68 1450.39 1515.49 1450.39 Z" fill="#000000" fill-rule="nonzero" fill-opacity="1" /><path clip-path="url(#clip780)" d="M1535.66 1479.7 L1540.54 1479.7 L1540.54 1485.58 L1535.66 1485.58 L1535.66 1479.7 Z" fill="#000000" fill-rule="nonzero" fill-opacity="1" /><path clip-path="url(#clip780)" d="M1560.73 1454.1 Q1557.11 1454.1 1555.29 1457.66 Q1553.48 1461.2 1553.48 1468.33 Q1553.48 1475.44 1555.29 1479.01 Q1557.11 1482.55 1560.73 1482.55 Q1564.36 1482.55 1566.17 1479.01 Q1567.99 1475.44 1567.99 1468.33 Q1567.99 1461.2 1566.17 1457.66 Q1564.36 1454.1 1560.73 1454.1 M1560.73 1450.39 Q1566.54 1450.39 1569.59 1455 Q1572.67 1459.58 1572.67 1468.33 Q1572.67 1477.06 1569.59 1481.67 Q1566.54 1486.25 1560.73 1486.25 Q1554.92 1486.25 1551.84 1481.67 Q1548.78 1477.06 1548.78 1468.33 Q1548.78 1459.58 1551.84 1455 Q1554.92 1450.39 1560.73 1450.39 Z" fill="#000000" fill-rule="nonzero" fill-opacity="1" /><path clip-path="url(#clip780)" d="M1584.91 1481.64 L1601.23 1481.64 L1601.23 1485.58 L1579.29 1485.58 L1579.29 1481.64 Q1581.95 1478.89 1586.54 1474.26 Q1591.14 1469.61 1592.32 1468.27 Q1594.57 1465.74 1595.45 1464.01 Q1596.35 1462.25 1596.35 1460.56 Q1596.35 1457.8 1594.41 1456.07 Q1592.48 1454.33 1589.38 1454.33 Q1587.18 1454.33 1584.73 1455.09 Q1582.3 1455.86 1579.52 1457.41 L1579.52 1452.69 Q1582.35 1451.55 1584.8 1450.97 Q1587.25 1450.39 1589.29 1450.39 Q1594.66 1450.39 1597.85 1453.08 Q1601.05 1455.77 1601.05 1460.26 Q1601.05 1462.39 1600.24 1464.31 Q1599.45 1466.2 1597.35 1468.8 Q1596.77 1469.47 1593.66 1472.69 Q1590.56 1475.88 1584.91 1481.64 Z" fill="#000000" fill-rule="nonzero" fill-opacity="1" /><path clip-path="url(#clip780)" d="M1611.1 1451.02 L1629.45 1451.02 L1629.45 1454.96 L1615.38 1454.96 L1615.38 1463.43 Q1616.4 1463.08 1617.41 1462.92 Q1618.43 1462.73 1619.45 1462.73 Q1625.24 1462.73 1628.62 1465.9 Q1632 1469.08 1632 1474.49 Q1632 1480.07 1628.53 1483.17 Q1625.05 1486.25 1618.73 1486.25 Q1616.56 1486.25 1614.29 1485.88 Q1612.04 1485.51 1609.64 1484.77 L1609.64 1480.07 Q1611.72 1481.2 1613.94 1481.76 Q1616.16 1482.32 1618.64 1482.32 Q1622.65 1482.32 1624.98 1480.21 Q1627.32 1478.1 1627.32 1474.49 Q1627.32 1470.88 1624.98 1468.77 Q1622.65 1466.67 1618.64 1466.67 Q1616.77 1466.67 1614.89 1467.08 Q1613.04 1467.5 1611.1 1468.38 L1611.1 1451.02 Z" fill="#000000" fill-rule="nonzero" fill-opacity="1" /><path clip-path="url(#clip780)" d="M1917.64 1454.1 Q1914.03 1454.1 1912.2 1457.66 Q1910.39 1461.2 1910.39 1468.33 Q1910.39 1475.44 1912.2 1479.01 Q1914.03 1482.55 1917.64 1482.55 Q1921.27 1482.55 1923.08 1479.01 Q1924.91 1475.44 1924.91 1468.33 Q1924.91 1461.2 1923.08 1457.66 Q1921.27 1454.1 1917.64 1454.1 M1917.64 1450.39 Q1923.45 1450.39 1926.51 1455 Q1929.58 1459.58 1929.58 1468.33 Q1929.58 1477.06 1926.51 1481.67 Q1923.45 1486.25 1917.64 1486.25 Q1911.83 1486.25 1908.75 1481.67 Q1905.7 1477.06 1905.7 1468.33 Q1905.7 1459.58 1908.75 1455 Q1911.83 1450.39 1917.64 1450.39 Z" fill="#000000" fill-rule="nonzero" fill-opacity="1" /><path clip-path="url(#clip780)" d="M1937.8 1479.7 L1942.69 1479.7 L1942.69 1485.58 L1937.8 1485.58 L1937.8 1479.7 Z" fill="#000000" fill-rule="nonzero" fill-opacity="1" /><path clip-path="url(#clip780)" d="M1962.87 1454.1 Q1959.26 1454.1 1957.43 1457.66 Q1955.63 1461.2 1955.63 1468.33 Q1955.63 1475.44 1957.43 1479.01 Q1959.26 1482.55 1962.87 1482.55 Q1966.51 1482.55 1968.31 1479.01 Q1970.14 1475.44 1970.14 1468.33 Q1970.14 1461.2 1968.31 1457.66 Q1966.51 1454.1 1962.87 1454.1 M1962.87 1450.39 Q1968.68 1450.39 1971.74 1455 Q1974.82 1459.58 1974.82 1468.33 Q1974.82 1477.06 1971.74 1481.67 Q1968.68 1486.25 1962.87 1486.25 Q1957.06 1486.25 1953.98 1481.67 Q1950.93 1477.06 1950.93 1468.33 Q1950.93 1459.58 1953.98 1455 Q1957.06 1450.39 1962.87 1450.39 Z" fill="#000000" fill-rule="nonzero" fill-opacity="1" /><path clip-path="url(#clip780)" d="M1997.2 1466.95 Q2000.56 1467.66 2002.43 1469.93 Q2004.33 1472.2 2004.33 1475.53 Q2004.33 1480.65 2000.81 1483.45 Q1997.29 1486.25 1990.81 1486.25 Q1988.64 1486.25 1986.32 1485.81 Q1984.03 1485.39 1981.58 1484.54 L1981.58 1480.02 Q1983.52 1481.16 1985.83 1481.74 Q1988.15 1482.32 1990.67 1482.32 Q1995.07 1482.32 1997.36 1480.58 Q1999.68 1478.84 1999.68 1475.53 Q1999.68 1472.48 1997.52 1470.77 Q1995.39 1469.03 1991.57 1469.03 L1987.55 1469.03 L1987.55 1465.19 L1991.76 1465.19 Q1995.21 1465.19 1997.04 1463.82 Q1998.87 1462.43 1998.87 1459.84 Q1998.87 1457.18 1996.97 1455.77 Q1995.09 1454.33 1991.57 1454.33 Q1989.65 1454.33 1987.45 1454.75 Q1985.26 1455.16 1982.62 1456.04 L1982.62 1451.88 Q1985.28 1451.14 1987.59 1450.77 Q1989.93 1450.39 1991.99 1450.39 Q1997.32 1450.39 2000.42 1452.83 Q2003.52 1455.23 2003.52 1459.35 Q2003.52 1462.22 2001.88 1464.21 Q2000.23 1466.18 1997.2 1466.95 Z" fill="#000000" fill-rule="nonzero" fill-opacity="1" /><path clip-path="url(#clip780)" d="M2023.2 1454.1 Q2019.58 1454.1 2017.76 1457.66 Q2015.95 1461.2 2015.95 1468.33 Q2015.95 1475.44 2017.76 1479.01 Q2019.58 1482.55 2023.2 1482.55 Q2026.83 1482.55 2028.63 1479.01 Q2030.46 1475.44 2030.46 1468.33 Q2030.46 1461.2 2028.63 1457.66 Q2026.83 1454.1 2023.2 1454.1 M2023.2 1450.39 Q2029.01 1450.39 2032.06 1455 Q2035.14 1459.58 2035.14 1468.33 Q2035.14 1477.06 2032.06 1481.67 Q2029.01 1486.25 2023.2 1486.25 Q2017.39 1486.25 2014.31 1481.67 Q2011.25 1477.06 2011.25 1468.33 Q2011.25 1459.58 2014.31 1455 Q2017.39 1450.39 2023.2 1450.39 Z" fill="#000000" fill-rule="nonzero" fill-opacity="1" /><path clip-path="url(#clip780)" d="M1020.87 1522.08 L1020.87 1528.35 Q1017.21 1526.6 1013.96 1525.74 Q1010.72 1524.88 1007.69 1524.88 Q1002.44 1524.88 999.578 1526.92 Q996.745 1528.96 996.745 1532.71 Q996.745 1535.87 998.623 1537.49 Q1000.53 1539.08 1005.82 1540.07 L1009.7 1540.86 Q1016.89 1542.23 1020.3 1545.7 Q1023.74 1549.14 1023.74 1554.93 Q1023.74 1561.84 1019.09 1565.4 Q1014.47 1568.97 1005.53 1568.97 Q1002.16 1568.97 998.336 1568.2 Q994.549 1567.44 990.475 1565.94 L990.475 1559.32 Q994.39 1561.52 998.145 1562.63 Q1001.9 1563.75 1005.53 1563.75 Q1011.04 1563.75 1014.03 1561.58 Q1017.02 1559.42 1017.02 1555.41 Q1017.02 1551.91 1014.86 1549.93 Q1012.72 1547.96 1007.82 1546.97 L1003.91 1546.21 Q996.713 1544.78 993.498 1541.72 Q990.284 1538.67 990.284 1533.22 Q990.284 1526.92 994.708 1523.29 Q999.164 1519.66 1006.96 1519.66 Q1010.3 1519.66 1013.77 1520.27 Q1017.24 1520.87 1020.87 1522.08 Z" fill="#000000" fill-rule="nonzero" fill-opacity="1" /><path clip-path="url(#clip780)" d="M1039.3 1522.27 L1039.3 1532.4 L1051.36 1532.4 L1051.36 1536.95 L1039.3 1536.95 L1039.3 1556.3 Q1039.3 1560.66 1040.48 1561.9 Q1041.69 1563.14 1045.35 1563.14 L1051.36 1563.14 L1051.36 1568.04 L1045.35 1568.04 Q1038.57 1568.04 1035.99 1565.53 Q1033.41 1562.98 1033.41 1556.3 L1033.41 1536.95 L1029.11 1536.95 L1029.11 1532.4 L1033.41 1532.4 L1033.41 1522.27 L1039.3 1522.27 Z" fill="#000000" fill-rule="nonzero" fill-opacity="1" /><path clip-path="url(#clip780)" d="M1075.27 1550.12 Q1068.17 1550.12 1065.43 1551.75 Q1062.69 1553.37 1062.69 1557.29 Q1062.69 1560.4 1064.73 1562.25 Q1066.8 1564.07 1070.33 1564.07 Q1075.2 1564.07 1078.13 1560.63 Q1081.09 1557.16 1081.09 1551.43 L1081.09 1550.12 L1075.27 1550.12 M1086.95 1547.71 L1086.95 1568.04 L1081.09 1568.04 L1081.09 1562.63 Q1079.09 1565.88 1076.09 1567.44 Q1073.1 1568.97 1068.77 1568.97 Q1063.3 1568.97 1060.05 1565.91 Q1056.84 1562.82 1056.84 1557.67 Q1056.84 1551.65 1060.85 1548.6 Q1064.89 1545.54 1072.88 1545.54 L1081.09 1545.54 L1081.09 1544.97 Q1081.09 1540.93 1078.42 1538.73 Q1075.78 1536.5 1070.97 1536.5 Q1067.91 1536.5 1065.02 1537.23 Q1062.12 1537.97 1059.45 1539.43 L1059.45 1534.02 Q1062.66 1532.78 1065.69 1532.17 Q1068.71 1531.54 1071.57 1531.54 Q1079.31 1531.54 1083.13 1535.55 Q1086.95 1539.56 1086.95 1547.71 Z" fill="#000000" fill-rule="nonzero" fill-opacity="1" /><path clip-path="url(#clip780)" d="M1128.64 1546.53 L1128.64 1568.04 L1122.79 1568.04 L1122.79 1546.72 Q1122.79 1541.66 1120.81 1539.14 Q1118.84 1536.63 1114.89 1536.63 Q1110.15 1536.63 1107.41 1539.65 Q1104.68 1542.68 1104.68 1547.9 L1104.68 1568.04 L1098.79 1568.04 L1098.79 1532.4 L1104.68 1532.4 L1104.68 1537.93 Q1106.78 1534.72 1109.61 1533.13 Q1112.47 1531.54 1116.2 1531.54 Q1122.34 1531.54 1125.49 1535.36 Q1128.64 1539.14 1128.64 1546.53 Z" fill="#000000" fill-rule="nonzero" fill-opacity="1" /><path clip-path="url(#clip780)" d="M1163.78 1537.81 L1163.78 1518.52 L1169.64 1518.52 L1169.64 1568.04 L1163.78 1568.04 L1163.78 1562.7 Q1161.94 1565.88 1159.1 1567.44 Q1156.3 1568.97 1152.35 1568.97 Q1145.89 1568.97 1141.82 1563.81 Q1137.78 1558.65 1137.78 1550.25 Q1137.78 1541.85 1141.82 1536.69 Q1145.89 1531.54 1152.35 1531.54 Q1156.3 1531.54 1159.1 1533.1 Q1161.94 1534.62 1163.78 1537.81 M1143.82 1550.25 Q1143.82 1556.71 1146.47 1560.4 Q1149.14 1564.07 1153.79 1564.07 Q1158.43 1564.07 1161.11 1560.4 Q1163.78 1556.71 1163.78 1550.25 Q1163.78 1543.79 1161.11 1540.13 Q1158.43 1536.44 1153.79 1536.44 Q1149.14 1536.44 1146.47 1540.13 Q1143.82 1543.79 1143.82 1550.25 Z" fill="#000000" fill-rule="nonzero" fill-opacity="1" /><path clip-path="url(#clip780)" d="M1197.9 1550.12 Q1190.8 1550.12 1188.07 1551.75 Q1185.33 1553.37 1185.33 1557.29 Q1185.33 1560.4 1187.37 1562.25 Q1189.43 1564.07 1192.97 1564.07 Q1197.84 1564.07 1200.77 1560.63 Q1203.73 1557.16 1203.73 1551.43 L1203.73 1550.12 L1197.9 1550.12 M1209.58 1547.71 L1209.58 1568.04 L1203.73 1568.04 L1203.73 1562.63 Q1201.72 1565.88 1198.73 1567.44 Q1195.74 1568.97 1191.41 1568.97 Q1185.93 1568.97 1182.69 1565.91 Q1179.47 1562.82 1179.47 1557.67 Q1179.47 1551.65 1183.48 1548.6 Q1187.53 1545.54 1195.51 1545.54 L1203.73 1545.54 L1203.73 1544.97 Q1203.73 1540.93 1201.05 1538.73 Q1198.41 1536.5 1193.6 1536.5 Q1190.55 1536.5 1187.65 1537.23 Q1184.76 1537.97 1182.08 1539.43 L1182.08 1534.02 Q1185.3 1532.78 1188.32 1532.17 Q1191.34 1531.54 1194.21 1531.54 Q1201.94 1531.54 1205.76 1535.55 Q1209.58 1539.56 1209.58 1547.71 Z" fill="#000000" fill-rule="nonzero" fill-opacity="1" /><path clip-path="url(#clip780)" d="M1242.3 1537.87 Q1241.32 1537.3 1240.14 1537.04 Q1238.99 1536.76 1237.59 1536.76 Q1232.63 1536.76 1229.95 1540 Q1227.31 1543.22 1227.31 1549.27 L1227.31 1568.04 L1221.42 1568.04 L1221.42 1532.4 L1227.31 1532.4 L1227.31 1537.93 Q1229.16 1534.69 1232.12 1533.13 Q1235.08 1531.54 1239.31 1531.54 Q1239.91 1531.54 1240.65 1531.63 Q1241.38 1531.7 1242.27 1531.85 L1242.3 1537.87 Z" fill="#000000" fill-rule="nonzero" fill-opacity="1" /><path clip-path="url(#clip780)" d="M1270.76 1537.81 L1270.76 1518.52 L1276.61 1518.52 L1276.61 1568.04 L1270.76 1568.04 L1270.76 1562.7 Q1268.91 1565.88 1266.08 1567.44 Q1263.28 1568.97 1259.33 1568.97 Q1252.87 1568.97 1248.8 1563.81 Q1244.75 1558.65 1244.75 1550.25 Q1244.75 1541.85 1248.8 1536.69 Q1252.87 1531.54 1259.33 1531.54 Q1263.28 1531.54 1266.08 1533.1 Q1268.91 1534.62 1270.76 1537.81 M1250.8 1550.25 Q1250.8 1556.71 1253.44 1560.4 Q1256.12 1564.07 1260.76 1564.07 Q1265.41 1564.07 1268.08 1560.4 Q1270.76 1556.71 1270.76 1550.25 Q1270.76 1543.79 1268.08 1540.13 Q1265.41 1536.44 1260.76 1536.44 Q1256.12 1536.44 1253.44 1540.13 Q1250.8 1543.79 1250.8 1550.25 Z" fill="#000000" fill-rule="nonzero" fill-opacity="1" /><path clip-path="url(#clip780)" d="M1316.08 1525.81 L1316.08 1562.76 L1323.85 1562.76 Q1333.68 1562.76 1338.23 1558.3 Q1342.82 1553.85 1342.82 1544.24 Q1342.82 1534.69 1338.23 1530.26 Q1333.68 1525.81 1323.85 1525.81 L1316.08 1525.81 M1309.65 1520.52 L1322.86 1520.52 Q1336.67 1520.52 1343.13 1526.28 Q1349.6 1532.01 1349.6 1544.24 Q1349.6 1556.52 1343.1 1562.28 Q1336.61 1568.04 1322.86 1568.04 L1309.65 1568.04 L1309.65 1520.52 Z" fill="#000000" fill-rule="nonzero" fill-opacity="1" /><path clip-path="url(#clip780)" d="M1390.08 1548.76 L1390.08 1551.62 L1363.16 1551.62 Q1363.54 1557.67 1366.78 1560.85 Q1370.06 1564 1375.89 1564 Q1379.26 1564 1382.41 1563.17 Q1385.59 1562.35 1388.71 1560.69 L1388.71 1566.23 Q1385.56 1567.57 1382.25 1568.27 Q1378.94 1568.97 1375.54 1568.97 Q1367.01 1568.97 1362.01 1564 Q1357.04 1559.04 1357.04 1550.57 Q1357.04 1541.82 1361.75 1536.69 Q1366.5 1531.54 1374.52 1531.54 Q1381.71 1531.54 1385.88 1536.18 Q1390.08 1540.8 1390.08 1548.76 M1384.23 1547.04 Q1384.16 1542.23 1381.52 1539.37 Q1378.91 1536.5 1374.58 1536.5 Q1369.68 1536.5 1366.72 1539.27 Q1363.79 1542.04 1363.35 1547.07 L1384.23 1547.04 Z" fill="#000000" fill-rule="nonzero" fill-opacity="1" /><path clip-path="url(#clip780)" d="M1395.49 1532.4 L1401.7 1532.4 L1412.84 1562.31 L1423.98 1532.4 L1430.19 1532.4 L1416.82 1568.04 L1408.86 1568.04 L1395.49 1532.4 Z" fill="#000000" fill-rule="nonzero" fill-opacity="1" /><path clip-path="url(#clip780)" d="M1438.27 1532.4 L1444.13 1532.4 L1444.13 1568.04 L1438.27 1568.04 L1438.27 1532.4 M1438.27 1518.52 L1444.13 1518.52 L1444.13 1525.93 L1438.27 1525.93 L1438.27 1518.52 Z" fill="#000000" fill-rule="nonzero" fill-opacity="1" /><path clip-path="url(#clip780)" d="M1472.58 1550.12 Q1465.48 1550.12 1462.75 1551.75 Q1460.01 1553.37 1460.01 1557.29 Q1460.01 1560.4 1462.05 1562.25 Q1464.12 1564.07 1467.65 1564.07 Q1472.52 1564.07 1475.45 1560.63 Q1478.41 1557.16 1478.41 1551.43 L1478.41 1550.12 L1472.58 1550.12 M1484.26 1547.71 L1484.26 1568.04 L1478.41 1568.04 L1478.41 1562.63 Q1476.4 1565.88 1473.41 1567.44 Q1470.42 1568.97 1466.09 1568.97 Q1460.61 1568.97 1457.37 1565.91 Q1454.15 1562.82 1454.15 1557.67 Q1454.15 1551.65 1458.16 1548.6 Q1462.21 1545.54 1470.19 1545.54 L1478.41 1545.54 L1478.41 1544.97 Q1478.41 1540.93 1475.73 1538.73 Q1473.09 1536.5 1468.28 1536.5 Q1465.23 1536.5 1462.33 1537.23 Q1459.44 1537.97 1456.76 1539.43 L1456.76 1534.02 Q1459.98 1532.78 1463 1532.17 Q1466.02 1531.54 1468.89 1531.54 Q1476.62 1531.54 1480.44 1535.55 Q1484.26 1539.56 1484.26 1547.71 Z" fill="#000000" fill-rule="nonzero" fill-opacity="1" /><path clip-path="url(#clip780)" d="M1502.12 1522.27 L1502.12 1532.4 L1514.18 1532.4 L1514.18 1536.95 L1502.12 1536.95 L1502.12 1556.3 Q1502.12 1560.66 1503.3 1561.9 Q1504.51 1563.14 1508.17 1563.14 L1514.18 1563.14 L1514.18 1568.04 L1508.17 1568.04 Q1501.39 1568.04 1498.81 1565.53 Q1496.23 1562.98 1496.23 1556.3 L1496.23 1536.95 L1491.93 1536.95 L1491.93 1532.4 L1496.23 1532.4 L1496.23 1522.27 L1502.12 1522.27 Z" fill="#000000" fill-rule="nonzero" fill-opacity="1" /><path clip-path="url(#clip780)" d="M1521.88 1532.4 L1527.74 1532.4 L1527.74 1568.04 L1521.88 1568.04 L1521.88 1532.4 M1521.88 1518.52 L1527.74 1518.52 L1527.74 1525.93 L1521.88 1525.93 L1521.88 1518.52 Z" fill="#000000" fill-rule="nonzero" fill-opacity="1" /><path clip-path="url(#clip780)" d="M1553.81 1536.5 Q1549.1 1536.5 1546.36 1540.19 Q1543.62 1543.85 1543.62 1550.25 Q1543.62 1556.65 1546.33 1560.34 Q1549.07 1564 1553.81 1564 Q1558.49 1564 1561.22 1560.31 Q1563.96 1556.62 1563.96 1550.25 Q1563.96 1543.92 1561.22 1540.23 Q1558.49 1536.5 1553.81 1536.5 M1553.81 1531.54 Q1561.45 1531.54 1565.81 1536.5 Q1570.17 1541.47 1570.17 1550.25 Q1570.17 1559 1565.81 1564 Q1561.45 1568.97 1553.81 1568.97 Q1546.14 1568.97 1541.78 1564 Q1537.45 1559 1537.45 1550.25 Q1537.45 1541.47 1541.78 1536.5 Q1546.14 1531.54 1553.81 1531.54 Z" fill="#000000" fill-rule="nonzero" fill-opacity="1" /><path clip-path="url(#clip780)" d="M1609.51 1546.53 L1609.51 1568.04 L1603.65 1568.04 L1603.65 1546.72 Q1603.65 1541.66 1601.68 1539.14 Q1599.7 1536.63 1595.76 1536.63 Q1591.02 1536.63 1588.28 1539.65 Q1585.54 1542.68 1585.54 1547.9 L1585.54 1568.04 L1579.65 1568.04 L1579.65 1532.4 L1585.54 1532.4 L1585.54 1537.93 Q1587.64 1534.72 1590.47 1533.13 Q1593.34 1531.54 1597.06 1531.54 Q1603.21 1531.54 1606.36 1535.36 Q1609.51 1539.14 1609.51 1546.53 Z" fill="#000000" fill-rule="nonzero" fill-opacity="1" /><polyline clip-path="url(#clip780)" style="stroke:#000000; stroke-linecap:round; stroke-linejoin:round; stroke-width:4; stroke-opacity:1; fill:none" points="310.028,1423.18 310.028,123.472 "/>
<polyline clip-path="url(#clip780)" style="stroke:#000000; stroke-linecap:round; stroke-linejoin:round; stroke-width:4; stroke-opacity:1; fill:none" points="310.028,1396.06 328.925,1396.06 "/>
<polyline clip-path="url(#clip780)" style="stroke:#000000; stroke-linecap:round; stroke-linejoin:round; stroke-width:4; stroke-opacity:1; fill:none" points="310.028,1065.34 328.925,1065.34 "/>
<polyline clip-path="url(#clip780)" style="stroke:#000000; stroke-linecap:round; stroke-linejoin:round; stroke-width:4; stroke-opacity:1; fill:none" points="310.028,734.617 328.925,734.617 "/>
<polyline clip-path="url(#clip780)" style="stroke:#000000; stroke-linecap:round; stroke-linejoin:round; stroke-width:4; stroke-opacity:1; fill:none" points="310.028,403.897 328.925,403.897 "/>
<path clip-path="url(#clip780)" d="M126.205 1381.85 Q122.593 1381.85 120.765 1385.42 Q118.959 1388.96 118.959 1396.09 Q118.959 1403.2 120.765 1406.76 Q122.593 1410.3 126.205 1410.3 Q129.839 1410.3 131.644 1406.76 Q133.473 1403.2 133.473 1396.09 Q133.473 1388.96 131.644 1385.42 Q129.839 1381.85 126.205 1381.85 M126.205 1378.15 Q132.015 1378.15 135.07 1382.76 Q138.149 1387.34 138.149 1396.09 Q138.149 1404.82 135.07 1409.42 Q132.015 1414.01 126.205 1414.01 Q120.394 1414.01 117.316 1409.42 Q114.26 1404.82 114.26 1396.09 Q114.26 1387.34 117.316 1382.76 Q120.394 1378.15 126.205 1378.15 Z" fill="#000000" fill-rule="nonzero" fill-opacity="1" /><path clip-path="url(#clip780)" d="M146.366 1407.46 L151.251 1407.46 L151.251 1413.34 L146.366 1413.34 L146.366 1407.46 Z" fill="#000000" fill-rule="nonzero" fill-opacity="1" /><path clip-path="url(#clip780)" d="M171.436 1381.85 Q167.825 1381.85 165.996 1385.42 Q164.19 1388.96 164.19 1396.09 Q164.19 1403.2 165.996 1406.76 Q167.825 1410.3 171.436 1410.3 Q175.07 1410.3 176.876 1406.76 Q178.704 1403.2 178.704 1396.09 Q178.704 1388.96 176.876 1385.42 Q175.07 1381.85 171.436 1381.85 M171.436 1378.15 Q177.246 1378.15 180.301 1382.76 Q183.38 1387.34 183.38 1396.09 Q183.38 1404.82 180.301 1409.42 Q177.246 1414.01 171.436 1414.01 Q165.626 1414.01 162.547 1409.42 Q159.491 1404.82 159.491 1396.09 Q159.491 1387.34 162.547 1382.76 Q165.626 1378.15 171.436 1378.15 Z" fill="#000000" fill-rule="nonzero" fill-opacity="1" /><path clip-path="url(#clip780)" d="M201.598 1381.85 Q197.987 1381.85 196.158 1385.42 Q194.352 1388.96 194.352 1396.09 Q194.352 1403.2 196.158 1406.76 Q197.987 1410.3 201.598 1410.3 Q205.232 1410.3 207.037 1406.76 Q208.866 1403.2 208.866 1396.09 Q208.866 1388.96 207.037 1385.42 Q205.232 1381.85 201.598 1381.85 M201.598 1378.15 Q207.408 1378.15 210.463 1382.76 Q213.542 1387.34 213.542 1396.09 Q213.542 1404.82 210.463 1409.42 Q207.408 1414.01 201.598 1414.01 Q195.787 1414.01 192.709 1409.42 Q189.653 1404.82 189.653 1396.09 Q189.653 1387.34 192.709 1382.76 Q195.787 1378.15 201.598 1378.15 Z" fill="#000000" fill-rule="nonzero" fill-opacity="1" /><path clip-path="url(#clip780)" d="M231.76 1381.85 Q228.148 1381.85 226.32 1385.42 Q224.514 1388.96 224.514 1396.09 Q224.514 1403.2 226.32 1406.76 Q228.148 1410.3 231.76 1410.3 Q235.394 1410.3 237.199 1406.76 Q239.028 1403.2 239.028 1396.09 Q239.028 1388.96 237.199 1385.42 Q235.394 1381.85 231.76 1381.85 M231.76 1378.15 Q237.57 1378.15 240.625 1382.76 Q243.704 1387.34 243.704 1396.09 Q243.704 1404.82 240.625 1409.42 Q237.57 1414.01 231.76 1414.01 Q225.949 1414.01 222.871 1409.42 Q219.815 1404.82 219.815 1396.09 Q219.815 1387.34 222.871 1382.76 Q225.949 1378.15 231.76 1378.15 Z" fill="#000000" fill-rule="nonzero" fill-opacity="1" /><path clip-path="url(#clip780)" d="M262.5 1394.19 Q259.352 1394.19 257.5 1396.35 Q255.671 1398.5 255.671 1402.25 Q255.671 1405.97 257.5 1408.15 Q259.352 1410.3 262.5 1410.3 Q265.648 1410.3 267.477 1408.15 Q269.329 1405.97 269.329 1402.25 Q269.329 1398.5 267.477 1396.35 Q265.648 1394.19 262.5 1394.19 M271.782 1379.54 L271.782 1383.8 Q270.023 1382.97 268.218 1382.53 Q266.435 1382.09 264.676 1382.09 Q260.046 1382.09 257.593 1385.21 Q255.162 1388.34 254.815 1394.66 Q256.181 1392.64 258.241 1391.58 Q260.301 1390.49 262.778 1390.49 Q267.986 1390.49 270.995 1393.66 Q274.028 1396.81 274.028 1402.25 Q274.028 1407.57 270.88 1410.79 Q267.732 1414.01 262.5 1414.01 Q256.505 1414.01 253.333 1409.42 Q250.162 1404.82 250.162 1396.09 Q250.162 1387.9 254.051 1383.04 Q257.94 1378.15 264.491 1378.15 Q266.25 1378.15 268.032 1378.5 Q269.838 1378.85 271.782 1379.54 Z" fill="#000000" fill-rule="nonzero" fill-opacity="1" /><path clip-path="url(#clip780)" d="M126.459 1051.14 Q122.848 1051.14 121.019 1054.7 Q119.214 1058.24 119.214 1065.37 Q119.214 1072.48 121.019 1076.04 Q122.848 1079.58 126.459 1079.58 Q130.093 1079.58 131.899 1076.04 Q133.728 1072.48 133.728 1065.37 Q133.728 1058.24 131.899 1054.7 Q130.093 1051.14 126.459 1051.14 M126.459 1047.43 Q132.269 1047.43 135.325 1052.04 Q138.404 1056.62 138.404 1065.37 Q138.404 1074.1 135.325 1078.7 Q132.269 1083.29 126.459 1083.29 Q120.649 1083.29 117.57 1078.7 Q114.515 1074.1 114.515 1065.37 Q114.515 1056.62 117.57 1052.04 Q120.649 1047.43 126.459 1047.43 Z" fill="#000000" fill-rule="nonzero" fill-opacity="1" /><path clip-path="url(#clip780)" d="M146.621 1076.74 L151.505 1076.74 L151.505 1082.62 L146.621 1082.62 L146.621 1076.74 Z" fill="#000000" fill-rule="nonzero" fill-opacity="1" /><path clip-path="url(#clip780)" d="M171.69 1051.14 Q168.079 1051.14 166.251 1054.7 Q164.445 1058.24 164.445 1065.37 Q164.445 1072.48 166.251 1076.04 Q168.079 1079.58 171.69 1079.58 Q175.325 1079.58 177.13 1076.04 Q178.959 1072.48 178.959 1065.37 Q178.959 1058.24 177.13 1054.7 Q175.325 1051.14 171.69 1051.14 M171.69 1047.43 Q177.501 1047.43 180.556 1052.04 Q183.635 1056.62 183.635 1065.37 Q183.635 1074.1 180.556 1078.7 Q177.501 1083.29 171.69 1083.29 Q165.88 1083.29 162.802 1078.7 Q159.746 1074.1 159.746 1065.37 Q159.746 1056.62 162.802 1052.04 Q165.88 1047.43 171.69 1047.43 Z" fill="#000000" fill-rule="nonzero" fill-opacity="1" /><path clip-path="url(#clip780)" d="M201.852 1051.14 Q198.241 1051.14 196.412 1054.7 Q194.607 1058.24 194.607 1065.37 Q194.607 1072.48 196.412 1076.04 Q198.241 1079.58 201.852 1079.58 Q205.487 1079.58 207.292 1076.04 Q209.121 1072.48 209.121 1065.37 Q209.121 1058.24 207.292 1054.7 Q205.487 1051.14 201.852 1051.14 M201.852 1047.43 Q207.662 1047.43 210.718 1052.04 Q213.797 1056.62 213.797 1065.37 Q213.797 1074.1 210.718 1078.7 Q207.662 1083.29 201.852 1083.29 Q196.042 1083.29 192.963 1078.7 Q189.908 1074.1 189.908 1065.37 Q189.908 1056.62 192.963 1052.04 Q196.042 1047.43 201.852 1047.43 Z" fill="#000000" fill-rule="nonzero" fill-opacity="1" /><path clip-path="url(#clip780)" d="M232.014 1051.14 Q228.403 1051.14 226.574 1054.7 Q224.769 1058.24 224.769 1065.37 Q224.769 1072.48 226.574 1076.04 Q228.403 1079.58 232.014 1079.58 Q235.648 1079.58 237.454 1076.04 Q239.283 1072.48 239.283 1065.37 Q239.283 1058.24 237.454 1054.7 Q235.648 1051.14 232.014 1051.14 M232.014 1047.43 Q237.824 1047.43 240.88 1052.04 Q243.959 1056.62 243.959 1065.37 Q243.959 1074.1 240.88 1078.7 Q237.824 1083.29 232.014 1083.29 Q226.204 1083.29 223.125 1078.7 Q220.07 1074.1 220.07 1065.37 Q220.07 1056.62 223.125 1052.04 Q226.204 1047.43 232.014 1047.43 Z" fill="#000000" fill-rule="nonzero" fill-opacity="1" /><path clip-path="url(#clip780)" d="M262.176 1066.2 Q258.843 1066.2 256.921 1067.99 Q255.023 1069.77 255.023 1072.89 Q255.023 1076.02 256.921 1077.8 Q258.843 1079.58 262.176 1079.58 Q265.509 1079.58 267.431 1077.8 Q269.352 1076 269.352 1072.89 Q269.352 1069.77 267.431 1067.99 Q265.532 1066.2 262.176 1066.2 M257.5 1064.21 Q254.491 1063.47 252.801 1061.41 Q251.134 1059.35 251.134 1056.39 Q251.134 1052.25 254.074 1049.84 Q257.037 1047.43 262.176 1047.43 Q267.338 1047.43 270.278 1049.84 Q273.218 1052.25 273.218 1056.39 Q273.218 1059.35 271.528 1061.41 Q269.861 1063.47 266.875 1064.21 Q270.255 1065 272.13 1067.29 Q274.028 1069.58 274.028 1072.89 Q274.028 1077.92 270.949 1080.6 Q267.894 1083.29 262.176 1083.29 Q256.458 1083.29 253.38 1080.6 Q250.324 1077.92 250.324 1072.89 Q250.324 1069.58 252.222 1067.29 Q254.121 1065 257.5 1064.21 M255.787 1056.83 Q255.787 1059.51 257.454 1061.02 Q259.144 1062.52 262.176 1062.52 Q265.185 1062.52 266.875 1061.02 Q268.588 1059.51 268.588 1056.83 Q268.588 1054.14 266.875 1052.64 Q265.185 1051.14 262.176 1051.14 Q259.144 1051.14 257.454 1052.64 Q255.787 1054.14 255.787 1056.83 Z" fill="#000000" fill-rule="nonzero" fill-opacity="1" /><path clip-path="url(#clip780)" d="M126.367 720.416 Q122.755 720.416 120.927 723.98 Q119.121 727.522 119.121 734.652 Q119.121 741.758 120.927 745.323 Q122.755 748.865 126.367 748.865 Q130.001 748.865 131.806 745.323 Q133.635 741.758 133.635 734.652 Q133.635 727.522 131.806 723.98 Q130.001 720.416 126.367 720.416 M126.367 716.712 Q132.177 716.712 135.232 721.318 Q138.311 725.902 138.311 734.652 Q138.311 743.378 135.232 747.985 Q132.177 752.568 126.367 752.568 Q120.556 752.568 117.478 747.985 Q114.422 743.378 114.422 734.652 Q114.422 725.902 117.478 721.318 Q120.556 716.712 126.367 716.712 Z" fill="#000000" fill-rule="nonzero" fill-opacity="1" /><path clip-path="url(#clip780)" d="M146.529 746.017 L151.413 746.017 L151.413 751.897 L146.529 751.897 L146.529 746.017 Z" fill="#000000" fill-rule="nonzero" fill-opacity="1" /><path clip-path="url(#clip780)" d="M171.598 720.416 Q167.987 720.416 166.158 723.98 Q164.352 727.522 164.352 734.652 Q164.352 741.758 166.158 745.323 Q167.987 748.865 171.598 748.865 Q175.232 748.865 177.038 745.323 Q178.866 741.758 178.866 734.652 Q178.866 727.522 177.038 723.98 Q175.232 720.416 171.598 720.416 M171.598 716.712 Q177.408 716.712 180.464 721.318 Q183.542 725.902 183.542 734.652 Q183.542 743.378 180.464 747.985 Q177.408 752.568 171.598 752.568 Q165.788 752.568 162.709 747.985 Q159.653 743.378 159.653 734.652 Q159.653 725.902 162.709 721.318 Q165.788 716.712 171.598 716.712 Z" fill="#000000" fill-rule="nonzero" fill-opacity="1" /><path clip-path="url(#clip780)" d="M201.76 720.416 Q198.149 720.416 196.32 723.98 Q194.514 727.522 194.514 734.652 Q194.514 741.758 196.32 745.323 Q198.149 748.865 201.76 748.865 Q205.394 748.865 207.199 745.323 Q209.028 741.758 209.028 734.652 Q209.028 727.522 207.199 723.98 Q205.394 720.416 201.76 720.416 M201.76 716.712 Q207.57 716.712 210.625 721.318 Q213.704 725.902 213.704 734.652 Q213.704 743.378 210.625 747.985 Q207.57 752.568 201.76 752.568 Q195.95 752.568 192.871 747.985 Q189.815 743.378 189.815 734.652 Q189.815 725.902 192.871 721.318 Q195.95 716.712 201.76 716.712 Z" fill="#000000" fill-rule="nonzero" fill-opacity="1" /><path clip-path="url(#clip780)" d="M222.732 747.962 L230.371 747.962 L230.371 721.596 L222.061 723.263 L222.061 719.004 L230.324 717.337 L235 717.337 L235 747.962 L242.639 747.962 L242.639 751.897 L222.732 751.897 L222.732 747.962 Z" fill="#000000" fill-rule="nonzero" fill-opacity="1" /><path clip-path="url(#clip780)" d="M262.083 720.416 Q258.472 720.416 256.644 723.98 Q254.838 727.522 254.838 734.652 Q254.838 741.758 256.644 745.323 Q258.472 748.865 262.083 748.865 Q265.718 748.865 267.523 745.323 Q269.352 741.758 269.352 734.652 Q269.352 727.522 267.523 723.98 Q265.718 720.416 262.083 720.416 M262.083 716.712 Q267.894 716.712 270.949 721.318 Q274.028 725.902 274.028 734.652 Q274.028 743.378 270.949 747.985 Q267.894 752.568 262.083 752.568 Q256.273 752.568 253.195 747.985 Q250.139 743.378 250.139 734.652 Q250.139 725.902 253.195 721.318 Q256.273 716.712 262.083 716.712 Z" fill="#000000" fill-rule="nonzero" fill-opacity="1" /><path clip-path="url(#clip780)" d="M127.964 389.696 Q124.353 389.696 122.524 393.261 Q120.718 396.803 120.718 403.932 Q120.718 411.039 122.524 414.603 Q124.353 418.145 127.964 418.145 Q131.598 418.145 133.404 414.603 Q135.232 411.039 135.232 403.932 Q135.232 396.803 133.404 393.261 Q131.598 389.696 127.964 389.696 M127.964 385.992 Q133.774 385.992 136.829 390.599 Q139.908 395.182 139.908 403.932 Q139.908 412.659 136.829 417.265 Q133.774 421.849 127.964 421.849 Q122.154 421.849 119.075 417.265 Q116.019 412.659 116.019 403.932 Q116.019 395.182 119.075 390.599 Q122.154 385.992 127.964 385.992 Z" fill="#000000" fill-rule="nonzero" fill-opacity="1" /><path clip-path="url(#clip780)" d="M148.126 415.298 L153.01 415.298 L153.01 421.177 L148.126 421.177 L148.126 415.298 Z" fill="#000000" fill-rule="nonzero" fill-opacity="1" /><path clip-path="url(#clip780)" d="M173.195 389.696 Q169.584 389.696 167.755 393.261 Q165.95 396.803 165.95 403.932 Q165.95 411.039 167.755 414.603 Q169.584 418.145 173.195 418.145 Q176.829 418.145 178.635 414.603 Q180.464 411.039 180.464 403.932 Q180.464 396.803 178.635 393.261 Q176.829 389.696 173.195 389.696 M173.195 385.992 Q179.005 385.992 182.061 390.599 Q185.139 395.182 185.139 403.932 Q185.139 412.659 182.061 417.265 Q179.005 421.849 173.195 421.849 Q167.385 421.849 164.306 417.265 Q161.251 412.659 161.251 403.932 Q161.251 395.182 164.306 390.599 Q167.385 385.992 173.195 385.992 Z" fill="#000000" fill-rule="nonzero" fill-opacity="1" /><path clip-path="url(#clip780)" d="M203.357 389.696 Q199.746 389.696 197.917 393.261 Q196.112 396.803 196.112 403.932 Q196.112 411.039 197.917 414.603 Q199.746 418.145 203.357 418.145 Q206.991 418.145 208.797 414.603 Q210.625 411.039 210.625 403.932 Q210.625 396.803 208.797 393.261 Q206.991 389.696 203.357 389.696 M203.357 385.992 Q209.167 385.992 212.223 390.599 Q215.301 395.182 215.301 403.932 Q215.301 412.659 212.223 417.265 Q209.167 421.849 203.357 421.849 Q197.547 421.849 194.468 417.265 Q191.413 412.659 191.413 403.932 Q191.413 395.182 194.468 390.599 Q197.547 385.992 203.357 385.992 Z" fill="#000000" fill-rule="nonzero" fill-opacity="1" /><path clip-path="url(#clip780)" d="M224.329 417.242 L231.968 417.242 L231.968 390.877 L223.658 392.543 L223.658 388.284 L231.922 386.617 L236.597 386.617 L236.597 417.242 L244.236 417.242 L244.236 421.177 L224.329 421.177 L224.329 417.242 Z" fill="#000000" fill-rule="nonzero" fill-opacity="1" /><path clip-path="url(#clip780)" d="M257.708 417.242 L274.028 417.242 L274.028 421.177 L252.083 421.177 L252.083 417.242 Q254.746 414.488 259.329 409.858 Q263.935 405.205 265.116 403.863 Q267.361 401.34 268.241 399.603 Q269.144 397.844 269.144 396.154 Q269.144 393.4 267.199 391.664 Q265.278 389.928 262.176 389.928 Q259.977 389.928 257.523 390.691 Q255.093 391.455 252.315 393.006 L252.315 388.284 Q255.139 387.15 257.593 386.571 Q260.046 385.992 262.083 385.992 Q267.454 385.992 270.648 388.678 Q273.843 391.363 273.843 395.853 Q273.843 397.983 273.032 399.904 Q272.245 401.803 270.139 404.395 Q269.56 405.066 266.458 408.284 Q263.357 411.478 257.708 417.242 Z" fill="#000000" fill-rule="nonzero" fill-opacity="1" /><path clip-path="url(#clip780)" d="M16.4842 974.673 L16.4842 965.093 L48.8219 952.966 L16.4842 940.776 L16.4842 931.196 L64.0042 931.196 L64.0042 937.466 L22.277 937.466 L54.8694 949.72 L54.8694 956.181 L22.277 968.435 L64.0042 968.435 L64.0042 974.673 L16.4842 974.673 Z" fill="#000000" fill-rule="nonzero" fill-opacity="1" /><path clip-path="url(#clip780)" d="M44.7161 888.195 L47.5806 888.195 L47.5806 915.122 Q53.6281 914.74 56.8109 911.494 Q59.9619 908.215 59.9619 902.391 Q59.9619 899.017 59.1344 895.866 Q58.3069 892.683 56.6518 889.564 L62.1899 889.564 Q63.5267 892.715 64.227 896.025 Q64.9272 899.335 64.9272 902.741 Q64.9272 911.271 59.9619 916.268 Q54.9967 921.233 46.5303 921.233 Q37.7774 921.233 32.6531 916.523 Q27.4968 911.78 27.4968 903.759 Q27.4968 896.566 32.1438 892.397 Q36.7589 888.195 44.7161 888.195 M42.9973 894.052 Q38.1912 894.115 35.3266 896.757 Q32.4621 899.367 32.4621 903.696 Q32.4621 908.597 35.2312 911.557 Q38.0002 914.486 43.0292 914.931 L42.9973 894.052 Z" fill="#000000" fill-rule="nonzero" fill-opacity="1" /><path clip-path="url(#clip780)" d="M46.0847 862.382 Q46.0847 869.48 47.7079 872.217 Q49.3312 874.954 53.2461 874.954 Q56.3653 874.954 58.2114 872.917 Q60.0256 870.849 60.0256 867.316 Q60.0256 862.446 56.5881 859.518 Q53.1188 856.558 47.3897 856.558 L46.0847 856.558 L46.0847 862.382 M43.6657 850.701 L64.0042 850.701 L64.0042 856.558 L58.5933 856.558 Q61.8398 858.563 63.3994 861.555 Q64.9272 864.547 64.9272 868.875 Q64.9272 874.35 61.8716 877.596 Q58.7843 880.811 53.6281 880.811 Q47.6125 880.811 44.5569 876.801 Q41.5014 872.758 41.5014 864.769 L41.5014 856.558 L40.9285 856.558 Q36.8862 856.558 34.6901 859.231 Q32.4621 861.873 32.4621 866.679 Q32.4621 869.735 33.1941 872.631 Q33.9262 875.527 35.3903 878.201 L29.9795 878.201 Q28.7381 874.986 28.1334 871.963 Q27.4968 868.939 27.4968 866.074 Q27.4968 858.34 31.5072 854.521 Q35.5176 850.701 43.6657 850.701 Z" fill="#000000" fill-rule="nonzero" fill-opacity="1" /><path clip-path="url(#clip780)" d="M42.4881 809.006 L64.0042 809.006 L64.0042 814.862 L42.679 814.862 Q37.6183 814.862 35.1038 816.836 Q32.5894 818.809 32.5894 822.756 Q32.5894 827.498 35.6131 830.235 Q38.6368 832.973 43.8567 832.973 L64.0042 832.973 L64.0042 838.861 L28.3562 838.861 L28.3562 832.973 L33.8944 832.973 Q30.6797 830.872 29.0883 828.039 Q27.4968 825.175 27.4968 821.451 Q27.4968 815.308 31.3163 812.157 Q35.1038 809.006 42.4881 809.006 Z" fill="#000000" fill-rule="nonzero" fill-opacity="1" /><path clip-path="url(#clip780)" d="M41.7242 753.815 Q42.4244 751.746 44.7161 749.805 Q47.0077 747.831 51.0181 745.858 L64.0042 739.333 L64.0042 746.24 L51.8138 752.319 Q47.0395 754.674 45.48 756.902 Q43.9204 759.099 43.9204 762.918 L43.9204 769.92 L64.0042 769.92 L64.0042 776.35 L16.4842 776.35 L16.4842 761.836 Q16.4842 753.688 19.8898 749.677 Q23.2955 745.667 30.1704 745.667 Q34.6582 745.667 37.6183 747.768 Q40.5784 749.837 41.7242 753.815 M21.7677 769.92 L38.6368 769.92 L38.6368 761.836 Q38.6368 757.189 36.5043 754.834 Q34.34 752.446 30.1704 752.446 Q26.0009 752.446 23.9002 754.834 Q21.7677 757.189 21.7677 761.836 L21.7677 769.92 Z" fill="#000000" fill-rule="nonzero" fill-opacity="1" /><path clip-path="url(#clip780)" d="M44.7161 703.749 L47.5806 703.749 L47.5806 730.676 Q53.6281 730.294 56.8109 727.047 Q59.9619 723.769 59.9619 717.944 Q59.9619 714.571 59.1344 711.419 Q58.3069 708.237 56.6518 705.117 L62.1899 705.117 Q63.5267 708.268 64.227 711.579 Q64.9272 714.889 64.9272 718.294 Q64.9272 726.824 59.9619 731.822 Q54.9967 736.787 46.5303 736.787 Q37.7774 736.787 32.6531 732.076 Q27.4968 727.334 27.4968 719.313 Q27.4968 712.12 32.1438 707.95 Q36.7589 703.749 44.7161 703.749 M42.9973 709.605 Q38.1912 709.669 35.3266 712.311 Q32.4621 714.921 32.4621 719.249 Q32.4621 724.151 35.2312 727.111 Q38.0002 730.039 43.0292 730.485 L42.9973 709.605 Z" fill="#000000" fill-rule="nonzero" fill-opacity="1" /><path clip-path="url(#clip780)" d="M18.2347 688.344 L28.3562 688.344 L28.3562 676.281 L32.9077 676.281 L32.9077 688.344 L52.2594 688.344 Q56.6199 688.344 57.8613 687.166 Q59.1026 685.957 59.1026 682.296 L59.1026 676.281 L64.0042 676.281 L64.0042 682.296 Q64.0042 689.076 61.4897 691.654 Q58.9434 694.232 52.2594 694.232 L32.9077 694.232 L32.9077 698.529 L28.3562 698.529 L28.3562 694.232 L18.2347 694.232 L18.2347 688.344 Z" fill="#000000" fill-rule="nonzero" fill-opacity="1" /><path clip-path="url(#clip780)" d="M49.9359 669.183 L28.3562 669.183 L28.3562 663.327 L49.7131 663.327 Q54.7739 663.327 57.3202 661.353 Q59.8346 659.38 59.8346 655.433 Q59.8346 650.691 56.8109 647.953 Q53.7872 645.184 48.5673 645.184 L28.3562 645.184 L28.3562 639.328 L64.0042 639.328 L64.0042 645.184 L58.5296 645.184 Q61.7762 647.317 63.3676 650.15 Q64.9272 652.95 64.9272 656.674 Q64.9272 662.817 61.1078 666 Q57.2883 669.183 49.9359 669.183 M27.4968 654.446 L27.4968 654.446 Z" fill="#000000" fill-rule="nonzero" fill-opacity="1" /><path clip-path="url(#clip780)" d="M33.8307 606.608 Q33.2578 607.595 33.0032 608.772 Q32.7167 609.918 32.7167 611.319 Q32.7167 616.284 35.9632 618.958 Q39.1779 621.599 45.2253 621.599 L64.0042 621.599 L64.0042 627.488 L28.3562 627.488 L28.3562 621.599 L33.8944 621.599 Q30.6479 619.753 29.0883 616.793 Q27.4968 613.833 27.4968 609.6 Q27.4968 608.995 27.5923 608.263 Q27.656 607.531 27.8151 606.64 L33.8307 606.608 Z" fill="#000000" fill-rule="nonzero" fill-opacity="1" /><path clip-path="url(#clip780)" d="M42.4881 571.979 L64.0042 571.979 L64.0042 577.835 L42.679 577.835 Q37.6183 577.835 35.1038 579.809 Q32.5894 581.782 32.5894 585.729 Q32.5894 590.471 35.6131 593.208 Q38.6368 595.946 43.8567 595.946 L64.0042 595.946 L64.0042 601.834 L28.3562 601.834 L28.3562 595.946 L33.8944 595.946 Q30.6797 593.845 29.0883 591.012 Q27.4968 588.148 27.4968 584.424 Q27.4968 578.281 31.3163 575.13 Q35.1038 571.979 42.4881 571.979 Z" fill="#000000" fill-rule="nonzero" fill-opacity="1" /><path clip-path="url(#clip780)" d="M1063.16 18.8205 L1063.16 41.5461 L1073.45 41.5461 Q1079.16 41.5461 1082.28 38.5889 Q1085.4 35.6318 1085.4 30.163 Q1085.4 24.7348 1082.28 21.7777 Q1079.16 18.8205 1073.45 18.8205 L1063.16 18.8205 M1054.98 12.096 L1073.45 12.096 Q1083.62 12.096 1088.8 16.714 Q1094.03 21.2916 1094.03 30.163 Q1094.03 39.1155 1088.8 43.6931 Q1083.62 48.2706 1073.45 48.2706 L1063.16 48.2706 L1063.16 72.576 L1054.98 72.576 L1054.98 12.096 Z" fill="#000000" fill-rule="nonzero" fill-opacity="1" /><path clip-path="url(#clip780)" d="M1121.57 49.7694 Q1112.54 49.7694 1109.06 51.8354 Q1105.57 53.9013 1105.57 58.8839 Q1105.57 62.8538 1108.17 65.2034 Q1110.8 67.5124 1115.3 67.5124 Q1121.49 67.5124 1125.22 63.1374 Q1128.99 58.7219 1128.99 51.4303 L1128.99 49.7694 L1121.57 49.7694 M1136.44 46.6907 L1136.44 72.576 L1128.99 72.576 L1128.99 65.6895 Q1126.44 69.8214 1122.63 71.8063 Q1118.82 73.7508 1113.31 73.7508 Q1106.34 73.7508 1102.21 69.8619 Q1098.12 65.9325 1098.12 59.3701 Q1098.12 51.7138 1103.22 47.825 Q1108.37 43.9361 1118.54 43.9361 L1128.99 43.9361 L1128.99 43.2069 Q1128.99 38.0623 1125.59 35.2672 Q1122.22 32.4315 1116.11 32.4315 Q1112.22 32.4315 1108.53 33.3632 Q1104.84 34.295 1101.44 36.1584 L1101.44 29.2718 Q1105.53 27.692 1109.38 26.9223 Q1113.23 26.1121 1116.88 26.1121 Q1126.72 26.1121 1131.58 31.2163 Q1136.44 36.3204 1136.44 46.6907 Z" fill="#000000" fill-rule="nonzero" fill-opacity="1" /><path clip-path="url(#clip780)" d="M1178.09 34.1734 Q1176.83 33.4443 1175.33 33.1202 Q1173.87 32.7556 1172.09 32.7556 Q1165.77 32.7556 1162.37 36.8875 Q1159.01 40.9789 1159.01 48.6757 L1159.01 72.576 L1151.51 72.576 L1151.51 27.2059 L1159.01 27.2059 L1159.01 34.2544 Q1161.35 30.1225 1165.12 28.1376 Q1168.89 26.1121 1174.28 26.1121 Q1175.05 26.1121 1175.98 26.2337 Q1176.91 26.3147 1178.04 26.5172 L1178.09 34.1734 Z" fill="#000000" fill-rule="nonzero" fill-opacity="1" /><path clip-path="url(#clip780)" d="M1222.89 48.0275 L1222.89 51.6733 L1188.62 51.6733 Q1189.1 59.3701 1193.24 63.421 Q1197.41 67.4314 1204.82 67.4314 Q1209.12 67.4314 1213.13 66.3781 Q1217.18 65.3249 1221.15 63.2184 L1221.15 70.267 Q1217.14 71.9684 1212.92 72.8596 Q1208.71 73.7508 1204.38 73.7508 Q1193.52 73.7508 1187.16 67.4314 Q1180.84 61.1119 1180.84 50.3365 Q1180.84 39.1965 1186.84 32.6746 Q1192.87 26.1121 1203.08 26.1121 Q1212.23 26.1121 1217.54 32.0264 Q1222.89 37.9003 1222.89 48.0275 M1215.43 45.84 Q1215.35 39.7232 1211.99 36.0774 Q1208.67 32.4315 1203.16 32.4315 Q1196.92 32.4315 1193.15 35.9558 Q1189.43 39.4801 1188.86 45.8805 L1215.43 45.84 Z" fill="#000000" fill-rule="nonzero" fill-opacity="1" /><path clip-path="url(#clip780)" d="M1242.49 14.324 L1242.49 27.2059 L1257.85 27.2059 L1257.85 32.9987 L1242.49 32.9987 L1242.49 57.6282 Q1242.49 63.1779 1243.99 64.7578 Q1245.53 66.3376 1250.19 66.3376 L1257.85 66.3376 L1257.85 72.576 L1250.19 72.576 Q1241.56 72.576 1238.28 69.3758 Q1235 66.1351 1235 57.6282 L1235 32.9987 L1229.53 32.9987 L1229.53 27.2059 L1235 27.2059 L1235 14.324 L1242.49 14.324 Z" fill="#000000" fill-rule="nonzero" fill-opacity="1" /><path clip-path="url(#clip780)" d="M1285.23 32.4315 Q1279.24 32.4315 1275.75 37.1306 Q1272.27 41.7891 1272.27 49.9314 Q1272.27 58.0738 1275.71 62.7728 Q1279.2 67.4314 1285.23 67.4314 Q1291.19 67.4314 1294.67 62.7323 Q1298.15 58.0333 1298.15 49.9314 Q1298.15 41.8701 1294.67 37.1711 Q1291.19 32.4315 1285.23 32.4315 M1285.23 26.1121 Q1294.95 26.1121 1300.5 32.4315 Q1306.05 38.7509 1306.05 49.9314 Q1306.05 61.0714 1300.5 67.4314 Q1294.95 73.7508 1285.23 73.7508 Q1275.47 73.7508 1269.92 67.4314 Q1264.41 61.0714 1264.41 49.9314 Q1264.41 38.7509 1269.92 32.4315 Q1275.47 26.1121 1285.23 26.1121 Z" fill="#000000" fill-rule="nonzero" fill-opacity="1" /><path clip-path="url(#clip780)" d="M1345.1 12.096 L1379.86 12.096 L1379.86 18.9825 L1353.29 18.9825 L1353.29 36.8065 L1377.27 36.8065 L1377.27 43.6931 L1353.29 43.6931 L1353.29 72.576 L1345.1 72.576 L1345.1 12.096 Z" fill="#000000" fill-rule="nonzero" fill-opacity="1" /><path clip-path="url(#clip780)" d="M1412.75 34.1734 Q1411.5 33.4443 1410 33.1202 Q1408.54 32.7556 1406.76 32.7556 Q1400.44 32.7556 1397.04 36.8875 Q1393.67 40.9789 1393.67 48.6757 L1393.67 72.576 L1386.18 72.576 L1386.18 27.2059 L1393.67 27.2059 L1393.67 34.2544 Q1396.02 30.1225 1399.79 28.1376 Q1403.56 26.1121 1408.95 26.1121 Q1409.72 26.1121 1410.65 26.2337 Q1411.58 26.3147 1412.71 26.5172 L1412.75 34.1734 Z" fill="#000000" fill-rule="nonzero" fill-opacity="1" /><path clip-path="url(#clip780)" d="M1436.33 32.4315 Q1430.33 32.4315 1426.85 37.1306 Q1423.37 41.7891 1423.37 49.9314 Q1423.37 58.0738 1426.81 62.7728 Q1430.29 67.4314 1436.33 67.4314 Q1442.29 67.4314 1445.77 62.7323 Q1449.25 58.0333 1449.25 49.9314 Q1449.25 41.8701 1445.77 37.1711 Q1442.29 32.4315 1436.33 32.4315 M1436.33 26.1121 Q1446.05 26.1121 1451.6 32.4315 Q1457.15 38.7509 1457.15 49.9314 Q1457.15 61.0714 1451.6 67.4314 Q1446.05 73.7508 1436.33 73.7508 Q1426.57 73.7508 1421.02 67.4314 Q1415.51 61.0714 1415.51 49.9314 Q1415.51 38.7509 1421.02 32.4315 Q1426.57 26.1121 1436.33 26.1121 Z" fill="#000000" fill-rule="nonzero" fill-opacity="1" /><path clip-path="url(#clip780)" d="M1507.22 45.1919 L1507.22 72.576 L1499.77 72.576 L1499.77 45.4349 Q1499.77 38.994 1497.26 35.7938 Q1494.74 32.5936 1489.72 32.5936 Q1483.69 32.5936 1480.2 36.4419 Q1476.72 40.2903 1476.72 46.9338 L1476.72 72.576 L1469.22 72.576 L1469.22 27.2059 L1476.72 27.2059 L1476.72 34.2544 Q1479.39 30.163 1483 28.1376 Q1486.64 26.1121 1491.38 26.1121 Q1499.2 26.1121 1503.21 30.9732 Q1507.22 35.7938 1507.22 45.1919 Z" fill="#000000" fill-rule="nonzero" fill-opacity="1" /><path clip-path="url(#clip780)" d="M1529.46 14.324 L1529.46 27.2059 L1544.81 27.2059 L1544.81 32.9987 L1529.46 32.9987 L1529.46 57.6282 Q1529.46 63.1779 1530.96 64.7578 Q1532.5 66.3376 1537.16 66.3376 L1544.81 66.3376 L1544.81 72.576 L1537.16 72.576 Q1528.53 72.576 1525.25 69.3758 Q1521.97 66.1351 1521.97 57.6282 L1521.97 32.9987 L1516.5 32.9987 L1516.5 27.2059 L1521.97 27.2059 L1521.97 14.324 L1529.46 14.324 Z" fill="#000000" fill-rule="nonzero" fill-opacity="1" /><circle clip-path="url(#clip781)" cx="366.058" cy="1386.4" r="14.4" fill="#009af9" fill-rule="evenodd" fill-opacity="1" stroke="#000000" stroke-opacity="1" stroke-width="3.2"/>
<circle clip-path="url(#clip781)" cx="366.657" cy="1374.2" r="14.4" fill="#009af9" fill-rule="evenodd" fill-opacity="1" stroke="#000000" stroke-opacity="1" stroke-width="3.2"/>
<circle clip-path="url(#clip781)" cx="367.47" cy="1361.82" r="14.4" fill="#009af9" fill-rule="evenodd" fill-opacity="1" stroke="#000000" stroke-opacity="1" stroke-width="3.2"/>
<circle clip-path="url(#clip781)" cx="368.49" cy="1349.43" r="14.4" fill="#009af9" fill-rule="evenodd" fill-opacity="1" stroke="#000000" stroke-opacity="1" stroke-width="3.2"/>
<circle clip-path="url(#clip781)" cx="369.827" cy="1337.04" r="14.4" fill="#009af9" fill-rule="evenodd" fill-opacity="1" stroke="#000000" stroke-opacity="1" stroke-width="3.2"/>
<circle clip-path="url(#clip781)" cx="371.421" cy="1324.66" r="14.4" fill="#009af9" fill-rule="evenodd" fill-opacity="1" stroke="#000000" stroke-opacity="1" stroke-width="3.2"/>
<circle clip-path="url(#clip781)" cx="373.227" cy="1312.27" r="14.4" fill="#009af9" fill-rule="evenodd" fill-opacity="1" stroke="#000000" stroke-opacity="1" stroke-width="3.2"/>
<circle clip-path="url(#clip781)" cx="375.238" cy="1299.88" r="14.4" fill="#009af9" fill-rule="evenodd" fill-opacity="1" stroke="#000000" stroke-opacity="1" stroke-width="3.2"/>
<circle clip-path="url(#clip781)" cx="377.466" cy="1287.49" r="14.4" fill="#009af9" fill-rule="evenodd" fill-opacity="1" stroke="#000000" stroke-opacity="1" stroke-width="3.2"/>
<circle clip-path="url(#clip781)" cx="379.893" cy="1275.11" r="14.4" fill="#009af9" fill-rule="evenodd" fill-opacity="1" stroke="#000000" stroke-opacity="1" stroke-width="3.2"/>
<circle clip-path="url(#clip781)" cx="382.523" cy="1262.72" r="14.4" fill="#009af9" fill-rule="evenodd" fill-opacity="1" stroke="#000000" stroke-opacity="1" stroke-width="3.2"/>
<circle clip-path="url(#clip781)" cx="385.353" cy="1250.33" r="14.4" fill="#009af9" fill-rule="evenodd" fill-opacity="1" stroke="#000000" stroke-opacity="1" stroke-width="3.2"/>
<circle clip-path="url(#clip781)" cx="388.386" cy="1237.95" r="14.4" fill="#009af9" fill-rule="evenodd" fill-opacity="1" stroke="#000000" stroke-opacity="1" stroke-width="3.2"/>
<circle clip-path="url(#clip781)" cx="391.618" cy="1225.56" r="14.4" fill="#009af9" fill-rule="evenodd" fill-opacity="1" stroke="#000000" stroke-opacity="1" stroke-width="3.2"/>
<circle clip-path="url(#clip781)" cx="395.042" cy="1213.17" r="14.4" fill="#009af9" fill-rule="evenodd" fill-opacity="1" stroke="#000000" stroke-opacity="1" stroke-width="3.2"/>
<circle clip-path="url(#clip781)" cx="398.666" cy="1200.78" r="14.4" fill="#009af9" fill-rule="evenodd" fill-opacity="1" stroke="#000000" stroke-opacity="1" stroke-width="3.2"/>
<circle clip-path="url(#clip781)" cx="402.466" cy="1188.4" r="14.4" fill="#009af9" fill-rule="evenodd" fill-opacity="1" stroke="#000000" stroke-opacity="1" stroke-width="3.2"/>
<circle clip-path="url(#clip781)" cx="406.5" cy="1176.01" r="14.4" fill="#009af9" fill-rule="evenodd" fill-opacity="1" stroke="#000000" stroke-opacity="1" stroke-width="3.2"/>
<circle clip-path="url(#clip781)" cx="410.772" cy="1163.62" r="14.4" fill="#009af9" fill-rule="evenodd" fill-opacity="1" stroke="#000000" stroke-opacity="1" stroke-width="3.2"/>
<circle clip-path="url(#clip781)" cx="415.237" cy="1151.24" r="14.4" fill="#009af9" fill-rule="evenodd" fill-opacity="1" stroke="#000000" stroke-opacity="1" stroke-width="3.2"/>
<circle clip-path="url(#clip781)" cx="419.886" cy="1138.85" r="14.4" fill="#009af9" fill-rule="evenodd" fill-opacity="1" stroke="#000000" stroke-opacity="1" stroke-width="3.2"/>
<circle clip-path="url(#clip781)" cx="424.714" cy="1126.46" r="14.4" fill="#009af9" fill-rule="evenodd" fill-opacity="1" stroke="#000000" stroke-opacity="1" stroke-width="3.2"/>
<circle clip-path="url(#clip781)" cx="429.722" cy="1114.07" r="14.4" fill="#009af9" fill-rule="evenodd" fill-opacity="1" stroke="#000000" stroke-opacity="1" stroke-width="3.2"/>
<circle clip-path="url(#clip781)" cx="434.91" cy="1101.69" r="14.4" fill="#009af9" fill-rule="evenodd" fill-opacity="1" stroke="#000000" stroke-opacity="1" stroke-width="3.2"/>
<circle clip-path="url(#clip781)" cx="440.267" cy="1089.3" r="14.4" fill="#009af9" fill-rule="evenodd" fill-opacity="1" stroke="#000000" stroke-opacity="1" stroke-width="3.2"/>
<circle clip-path="url(#clip781)" cx="445.785" cy="1076.91" r="14.4" fill="#009af9" fill-rule="evenodd" fill-opacity="1" stroke="#000000" stroke-opacity="1" stroke-width="3.2"/>
<circle clip-path="url(#clip781)" cx="451.493" cy="1064.52" r="14.4" fill="#009af9" fill-rule="evenodd" fill-opacity="1" stroke="#000000" stroke-opacity="1" stroke-width="3.2"/>
<circle clip-path="url(#clip781)" cx="457.445" cy="1052.14" r="14.4" fill="#009af9" fill-rule="evenodd" fill-opacity="1" stroke="#000000" stroke-opacity="1" stroke-width="3.2"/>
<circle clip-path="url(#clip781)" cx="463.575" cy="1039.75" r="14.4" fill="#009af9" fill-rule="evenodd" fill-opacity="1" stroke="#000000" stroke-opacity="1" stroke-width="3.2"/>
<circle clip-path="url(#clip781)" cx="469.872" cy="1027.36" r="14.4" fill="#009af9" fill-rule="evenodd" fill-opacity="1" stroke="#000000" stroke-opacity="1" stroke-width="3.2"/>
<circle clip-path="url(#clip781)" cx="476.331" cy="1014.98" r="14.4" fill="#009af9" fill-rule="evenodd" fill-opacity="1" stroke="#000000" stroke-opacity="1" stroke-width="3.2"/>
<circle clip-path="url(#clip781)" cx="482.946" cy="1002.59" r="14.4" fill="#009af9" fill-rule="evenodd" fill-opacity="1" stroke="#000000" stroke-opacity="1" stroke-width="3.2"/>
<circle clip-path="url(#clip781)" cx="489.715" cy="990.201" r="14.4" fill="#009af9" fill-rule="evenodd" fill-opacity="1" stroke="#000000" stroke-opacity="1" stroke-width="3.2"/>
<circle clip-path="url(#clip781)" cx="496.634" cy="977.814" r="14.4" fill="#009af9" fill-rule="evenodd" fill-opacity="1" stroke="#000000" stroke-opacity="1" stroke-width="3.2"/>
<circle clip-path="url(#clip781)" cx="503.695" cy="965.427" r="14.4" fill="#009af9" fill-rule="evenodd" fill-opacity="1" stroke="#000000" stroke-opacity="1" stroke-width="3.2"/>
<circle clip-path="url(#clip781)" cx="510.907" cy="953.039" r="14.4" fill="#009af9" fill-rule="evenodd" fill-opacity="1" stroke="#000000" stroke-opacity="1" stroke-width="3.2"/>
<circle clip-path="url(#clip781)" cx="518.258" cy="940.652" r="14.4" fill="#009af9" fill-rule="evenodd" fill-opacity="1" stroke="#000000" stroke-opacity="1" stroke-width="3.2"/>
<circle clip-path="url(#clip781)" cx="525.746" cy="928.265" r="14.4" fill="#009af9" fill-rule="evenodd" fill-opacity="1" stroke="#000000" stroke-opacity="1" stroke-width="3.2"/>
<circle clip-path="url(#clip781)" cx="533.367" cy="915.878" r="14.4" fill="#009af9" fill-rule="evenodd" fill-opacity="1" stroke="#000000" stroke-opacity="1" stroke-width="3.2"/>
<circle clip-path="url(#clip781)" cx="541.122" cy="903.491" r="14.4" fill="#009af9" fill-rule="evenodd" fill-opacity="1" stroke="#000000" stroke-opacity="1" stroke-width="3.2"/>
<circle clip-path="url(#clip781)" cx="549.003" cy="891.103" r="14.4" fill="#009af9" fill-rule="evenodd" fill-opacity="1" stroke="#000000" stroke-opacity="1" stroke-width="3.2"/>
<circle clip-path="url(#clip781)" cx="557.072" cy="878.716" r="14.4" fill="#009af9" fill-rule="evenodd" fill-opacity="1" stroke="#000000" stroke-opacity="1" stroke-width="3.2"/>
<circle clip-path="url(#clip781)" cx="565.298" cy="866.329" r="14.4" fill="#009af9" fill-rule="evenodd" fill-opacity="1" stroke="#000000" stroke-opacity="1" stroke-width="3.2"/>
<circle clip-path="url(#clip781)" cx="573.655" cy="853.942" r="14.4" fill="#009af9" fill-rule="evenodd" fill-opacity="1" stroke="#000000" stroke-opacity="1" stroke-width="3.2"/>
<circle clip-path="url(#clip781)" cx="582.146" cy="841.554" r="14.4" fill="#009af9" fill-rule="evenodd" fill-opacity="1" stroke="#000000" stroke-opacity="1" stroke-width="3.2"/>
<circle clip-path="url(#clip781)" cx="590.81" cy="829.167" r="14.4" fill="#009af9" fill-rule="evenodd" fill-opacity="1" stroke="#000000" stroke-opacity="1" stroke-width="3.2"/>
<circle clip-path="url(#clip781)" cx="599.599" cy="816.78" r="14.4" fill="#009af9" fill-rule="evenodd" fill-opacity="1" stroke="#000000" stroke-opacity="1" stroke-width="3.2"/>
<circle clip-path="url(#clip781)" cx="608.512" cy="804.393" r="14.4" fill="#009af9" fill-rule="evenodd" fill-opacity="1" stroke="#000000" stroke-opacity="1" stroke-width="3.2"/>
<circle clip-path="url(#clip781)" cx="617.543" cy="792.005" r="14.4" fill="#009af9" fill-rule="evenodd" fill-opacity="1" stroke="#000000" stroke-opacity="1" stroke-width="3.2"/>
<circle clip-path="url(#clip781)" cx="626.731" cy="779.618" r="14.4" fill="#009af9" fill-rule="evenodd" fill-opacity="1" stroke="#000000" stroke-opacity="1" stroke-width="3.2"/>
<circle clip-path="url(#clip781)" cx="636.106" cy="767.231" r="14.4" fill="#009af9" fill-rule="evenodd" fill-opacity="1" stroke="#000000" stroke-opacity="1" stroke-width="3.2"/>
<circle clip-path="url(#clip781)" cx="645.613" cy="754.844" r="14.4" fill="#009af9" fill-rule="evenodd" fill-opacity="1" stroke="#000000" stroke-opacity="1" stroke-width="3.2"/>
<circle clip-path="url(#clip781)" cx="655.244" cy="742.456" r="14.4" fill="#009af9" fill-rule="evenodd" fill-opacity="1" stroke="#000000" stroke-opacity="1" stroke-width="3.2"/>
<circle clip-path="url(#clip781)" cx="665.001" cy="730.069" r="14.4" fill="#009af9" fill-rule="evenodd" fill-opacity="1" stroke="#000000" stroke-opacity="1" stroke-width="3.2"/>
<circle clip-path="url(#clip781)" cx="674.9" cy="717.682" r="14.4" fill="#009af9" fill-rule="evenodd" fill-opacity="1" stroke="#000000" stroke-opacity="1" stroke-width="3.2"/>
<circle clip-path="url(#clip781)" cx="684.985" cy="705.295" r="14.4" fill="#009af9" fill-rule="evenodd" fill-opacity="1" stroke="#000000" stroke-opacity="1" stroke-width="3.2"/>
<circle clip-path="url(#clip781)" cx="695.194" cy="692.908" r="14.4" fill="#009af9" fill-rule="evenodd" fill-opacity="1" stroke="#000000" stroke-opacity="1" stroke-width="3.2"/>
<circle clip-path="url(#clip781)" cx="705.524" cy="680.52" r="14.4" fill="#009af9" fill-rule="evenodd" fill-opacity="1" stroke="#000000" stroke-opacity="1" stroke-width="3.2"/>
<circle clip-path="url(#clip781)" cx="715.972" cy="668.133" r="14.4" fill="#009af9" fill-rule="evenodd" fill-opacity="1" stroke="#000000" stroke-opacity="1" stroke-width="3.2"/>
<circle clip-path="url(#clip781)" cx="726.535" cy="655.746" r="14.4" fill="#009af9" fill-rule="evenodd" fill-opacity="1" stroke="#000000" stroke-opacity="1" stroke-width="3.2"/>
<circle clip-path="url(#clip781)" cx="737.208" cy="643.359" r="14.4" fill="#009af9" fill-rule="evenodd" fill-opacity="1" stroke="#000000" stroke-opacity="1" stroke-width="3.2"/>
<circle clip-path="url(#clip781)" cx="747.989" cy="630.971" r="14.4" fill="#009af9" fill-rule="evenodd" fill-opacity="1" stroke="#000000" stroke-opacity="1" stroke-width="3.2"/>
<circle clip-path="url(#clip781)" cx="758.875" cy="618.584" r="14.4" fill="#009af9" fill-rule="evenodd" fill-opacity="1" stroke="#000000" stroke-opacity="1" stroke-width="3.2"/>
<circle clip-path="url(#clip781)" cx="769.881" cy="606.197" r="14.4" fill="#009af9" fill-rule="evenodd" fill-opacity="1" stroke="#000000" stroke-opacity="1" stroke-width="3.2"/>
<circle clip-path="url(#clip781)" cx="781.004" cy="593.81" r="14.4" fill="#009af9" fill-rule="evenodd" fill-opacity="1" stroke="#000000" stroke-opacity="1" stroke-width="3.2"/>
<circle clip-path="url(#clip781)" cx="792.298" cy="581.422" r="14.4" fill="#009af9" fill-rule="evenodd" fill-opacity="1" stroke="#000000" stroke-opacity="1" stroke-width="3.2"/>
<circle clip-path="url(#clip781)" cx="803.893" cy="569.035" r="14.4" fill="#009af9" fill-rule="evenodd" fill-opacity="1" stroke="#000000" stroke-opacity="1" stroke-width="3.2"/>
<circle clip-path="url(#clip781)" cx="815.647" cy="556.648" r="14.4" fill="#009af9" fill-rule="evenodd" fill-opacity="1" stroke="#000000" stroke-opacity="1" stroke-width="3.2"/>
<circle clip-path="url(#clip781)" cx="827.559" cy="544.261" r="14.4" fill="#009af9" fill-rule="evenodd" fill-opacity="1" stroke="#000000" stroke-opacity="1" stroke-width="3.2"/>
<circle clip-path="url(#clip781)" cx="839.629" cy="531.873" r="14.4" fill="#009af9" fill-rule="evenodd" fill-opacity="1" stroke="#000000" stroke-opacity="1" stroke-width="3.2"/>
<circle clip-path="url(#clip781)" cx="851.847" cy="519.486" r="14.4" fill="#009af9" fill-rule="evenodd" fill-opacity="1" stroke="#000000" stroke-opacity="1" stroke-width="3.2"/>
<circle clip-path="url(#clip781)" cx="864.491" cy="507.099" r="14.4" fill="#009af9" fill-rule="evenodd" fill-opacity="1" stroke="#000000" stroke-opacity="1" stroke-width="3.2"/>
<circle clip-path="url(#clip781)" cx="877.896" cy="494.712" r="14.4" fill="#009af9" fill-rule="evenodd" fill-opacity="1" stroke="#000000" stroke-opacity="1" stroke-width="3.2"/>
<circle clip-path="url(#clip781)" cx="892.031" cy="482.325" r="14.4" fill="#009af9" fill-rule="evenodd" fill-opacity="1" stroke="#000000" stroke-opacity="1" stroke-width="3.2"/>
<circle clip-path="url(#clip781)" cx="906.873" cy="469.937" r="14.4" fill="#009af9" fill-rule="evenodd" fill-opacity="1" stroke="#000000" stroke-opacity="1" stroke-width="3.2"/>
<circle clip-path="url(#clip781)" cx="922.398" cy="457.55" r="14.4" fill="#009af9" fill-rule="evenodd" fill-opacity="1" stroke="#000000" stroke-opacity="1" stroke-width="3.2"/>
<circle clip-path="url(#clip781)" cx="938.584" cy="445.163" r="14.4" fill="#009af9" fill-rule="evenodd" fill-opacity="1" stroke="#000000" stroke-opacity="1" stroke-width="3.2"/>
<circle clip-path="url(#clip781)" cx="955.412" cy="432.776" r="14.4" fill="#009af9" fill-rule="evenodd" fill-opacity="1" stroke="#000000" stroke-opacity="1" stroke-width="3.2"/>
<circle clip-path="url(#clip781)" cx="973.479" cy="420.388" r="14.4" fill="#009af9" fill-rule="evenodd" fill-opacity="1" stroke="#000000" stroke-opacity="1" stroke-width="3.2"/>
<circle clip-path="url(#clip781)" cx="992.687" cy="408.001" r="14.4" fill="#009af9" fill-rule="evenodd" fill-opacity="1" stroke="#000000" stroke-opacity="1" stroke-width="3.2"/>
<circle clip-path="url(#clip781)" cx="1012.95" cy="395.614" r="14.4" fill="#009af9" fill-rule="evenodd" fill-opacity="1" stroke="#000000" stroke-opacity="1" stroke-width="3.2"/>
<circle clip-path="url(#clip781)" cx="1034.26" cy="383.227" r="14.4" fill="#009af9" fill-rule="evenodd" fill-opacity="1" stroke="#000000" stroke-opacity="1" stroke-width="3.2"/>
<circle clip-path="url(#clip781)" cx="1059.55" cy="370.839" r="14.4" fill="#009af9" fill-rule="evenodd" fill-opacity="1" stroke="#000000" stroke-opacity="1" stroke-width="3.2"/>
<circle clip-path="url(#clip781)" cx="1089.62" cy="358.452" r="14.4" fill="#009af9" fill-rule="evenodd" fill-opacity="1" stroke="#000000" stroke-opacity="1" stroke-width="3.2"/>
<circle clip-path="url(#clip781)" cx="1124.21" cy="346.065" r="14.4" fill="#009af9" fill-rule="evenodd" fill-opacity="1" stroke="#000000" stroke-opacity="1" stroke-width="3.2"/>
<circle clip-path="url(#clip781)" cx="1163.04" cy="333.678" r="14.4" fill="#009af9" fill-rule="evenodd" fill-opacity="1" stroke="#000000" stroke-opacity="1" stroke-width="3.2"/>
<circle clip-path="url(#clip781)" cx="1205.8" cy="321.29" r="14.4" fill="#009af9" fill-rule="evenodd" fill-opacity="1" stroke="#000000" stroke-opacity="1" stroke-width="3.2"/>
<circle clip-path="url(#clip781)" cx="1252.2" cy="308.903" r="14.4" fill="#009af9" fill-rule="evenodd" fill-opacity="1" stroke="#000000" stroke-opacity="1" stroke-width="3.2"/>
<circle clip-path="url(#clip781)" cx="1301.91" cy="296.516" r="14.4" fill="#009af9" fill-rule="evenodd" fill-opacity="1" stroke="#000000" stroke-opacity="1" stroke-width="3.2"/>
<circle clip-path="url(#clip781)" cx="1356.11" cy="284.129" r="14.4" fill="#009af9" fill-rule="evenodd" fill-opacity="1" stroke="#000000" stroke-opacity="1" stroke-width="3.2"/>
<circle clip-path="url(#clip781)" cx="1415.97" cy="271.742" r="14.4" fill="#009af9" fill-rule="evenodd" fill-opacity="1" stroke="#000000" stroke-opacity="1" stroke-width="3.2"/>
<circle clip-path="url(#clip781)" cx="1481.62" cy="259.354" r="14.4" fill="#009af9" fill-rule="evenodd" fill-opacity="1" stroke="#000000" stroke-opacity="1" stroke-width="3.2"/>
<circle clip-path="url(#clip781)" cx="1555.75" cy="246.967" r="14.4" fill="#009af9" fill-rule="evenodd" fill-opacity="1" stroke="#000000" stroke-opacity="1" stroke-width="3.2"/>
<circle clip-path="url(#clip781)" cx="1636.98" cy="234.58" r="14.4" fill="#009af9" fill-rule="evenodd" fill-opacity="1" stroke="#000000" stroke-opacity="1" stroke-width="3.2"/>
<circle clip-path="url(#clip781)" cx="1724.52" cy="222.193" r="14.4" fill="#009af9" fill-rule="evenodd" fill-opacity="1" stroke="#000000" stroke-opacity="1" stroke-width="3.2"/>
<circle clip-path="url(#clip781)" cx="1817.64" cy="209.805" r="14.4" fill="#009af9" fill-rule="evenodd" fill-opacity="1" stroke="#000000" stroke-opacity="1" stroke-width="3.2"/>
<circle clip-path="url(#clip781)" cx="1915.67" cy="197.418" r="14.4" fill="#009af9" fill-rule="evenodd" fill-opacity="1" stroke="#000000" stroke-opacity="1" stroke-width="3.2"/>
<circle clip-path="url(#clip781)" cx="2018.03" cy="185.031" r="14.4" fill="#009af9" fill-rule="evenodd" fill-opacity="1" stroke="#000000" stroke-opacity="1" stroke-width="3.2"/>
<circle clip-path="url(#clip781)" cx="2124.2" cy="172.644" r="14.4" fill="#009af9" fill-rule="evenodd" fill-opacity="1" stroke="#000000" stroke-opacity="1" stroke-width="3.2"/>
<circle clip-path="url(#clip781)" cx="2233.73" cy="160.256" r="14.4" fill="#009af9" fill-rule="evenodd" fill-opacity="1" stroke="#000000" stroke-opacity="1" stroke-width="3.2"/>
<circle clip-path="url(#clip781)" cx="395.771" cy="1355.86" r="14.4" fill="#ff0000" fill-rule="evenodd" fill-opacity="1" stroke="#000000" stroke-opacity="1" stroke-width="3.2"/>
<circle clip-path="url(#clip781)" cx="396.678" cy="1345.68" r="14.4" fill="#ff0000" fill-rule="evenodd" fill-opacity="1" stroke="#000000" stroke-opacity="1" stroke-width="3.2"/>
<circle clip-path="url(#clip781)" cx="397.741" cy="1335.44" r="14.4" fill="#ff0000" fill-rule="evenodd" fill-opacity="1" stroke="#000000" stroke-opacity="1" stroke-width="3.2"/>
<circle clip-path="url(#clip781)" cx="398.967" cy="1325.55" r="14.4" fill="#ff0000" fill-rule="evenodd" fill-opacity="1" stroke="#000000" stroke-opacity="1" stroke-width="3.2"/>
<circle clip-path="url(#clip781)" cx="400.634" cy="1318.28" r="14.4" fill="#ff0000" fill-rule="evenodd" fill-opacity="1" stroke="#000000" stroke-opacity="1" stroke-width="3.2"/>
<circle clip-path="url(#clip781)" cx="402.546" cy="1312.11" r="14.4" fill="#ff0000" fill-rule="evenodd" fill-opacity="1" stroke="#000000" stroke-opacity="1" stroke-width="3.2"/>
<circle clip-path="url(#clip781)" cx="404.583" cy="1305.92" r="14.4" fill="#ff0000" fill-rule="evenodd" fill-opacity="1" stroke="#000000" stroke-opacity="1" stroke-width="3.2"/>
<circle clip-path="url(#clip781)" cx="406.739" cy="1299.76" r="14.4" fill="#ff0000" fill-rule="evenodd" fill-opacity="1" stroke="#000000" stroke-opacity="1" stroke-width="3.2"/>
<circle clip-path="url(#clip781)" cx="409.009" cy="1293.56" r="14.4" fill="#ff0000" fill-rule="evenodd" fill-opacity="1" stroke="#000000" stroke-opacity="1" stroke-width="3.2"/>
<circle clip-path="url(#clip781)" cx="411.397" cy="1287.38" r="14.4" fill="#ff0000" fill-rule="evenodd" fill-opacity="1" stroke="#000000" stroke-opacity="1" stroke-width="3.2"/>
<circle clip-path="url(#clip781)" cx="413.902" cy="1281.21" r="14.4" fill="#ff0000" fill-rule="evenodd" fill-opacity="1" stroke="#000000" stroke-opacity="1" stroke-width="3.2"/>
<circle clip-path="url(#clip781)" cx="416.522" cy="1275.04" r="14.4" fill="#ff0000" fill-rule="evenodd" fill-opacity="1" stroke="#000000" stroke-opacity="1" stroke-width="3.2"/>
<circle clip-path="url(#clip781)" cx="419.255" cy="1268.86" r="14.4" fill="#ff0000" fill-rule="evenodd" fill-opacity="1" stroke="#000000" stroke-opacity="1" stroke-width="3.2"/>
<circle clip-path="url(#clip781)" cx="422.092" cy="1262.67" r="14.4" fill="#ff0000" fill-rule="evenodd" fill-opacity="1" stroke="#000000" stroke-opacity="1" stroke-width="3.2"/>
<circle clip-path="url(#clip781)" cx="425.046" cy="1256.5" r="14.4" fill="#ff0000" fill-rule="evenodd" fill-opacity="1" stroke="#000000" stroke-opacity="1" stroke-width="3.2"/>
<circle clip-path="url(#clip781)" cx="428.104" cy="1250.32" r="14.4" fill="#ff0000" fill-rule="evenodd" fill-opacity="1" stroke="#000000" stroke-opacity="1" stroke-width="3.2"/>
<circle clip-path="url(#clip781)" cx="431.285" cy="1244.15" r="14.4" fill="#ff0000" fill-rule="evenodd" fill-opacity="1" stroke="#000000" stroke-opacity="1" stroke-width="3.2"/>
<circle clip-path="url(#clip781)" cx="434.49" cy="1237.93" r="14.4" fill="#ff0000" fill-rule="evenodd" fill-opacity="1" stroke="#000000" stroke-opacity="1" stroke-width="3.2"/>
<circle clip-path="url(#clip781)" cx="437.714" cy="1231.61" r="14.4" fill="#ff0000" fill-rule="evenodd" fill-opacity="1" stroke="#000000" stroke-opacity="1" stroke-width="3.2"/>
<circle clip-path="url(#clip781)" cx="441.026" cy="1225.31" r="14.4" fill="#ff0000" fill-rule="evenodd" fill-opacity="1" stroke="#000000" stroke-opacity="1" stroke-width="3.2"/>
<circle clip-path="url(#clip781)" cx="444.445" cy="1219.04" r="14.4" fill="#ff0000" fill-rule="evenodd" fill-opacity="1" stroke="#000000" stroke-opacity="1" stroke-width="3.2"/>
<circle clip-path="url(#clip781)" cx="447.969" cy="1212.77" r="14.4" fill="#ff0000" fill-rule="evenodd" fill-opacity="1" stroke="#000000" stroke-opacity="1" stroke-width="3.2"/>
<circle clip-path="url(#clip781)" cx="451.601" cy="1206.48" r="14.4" fill="#ff0000" fill-rule="evenodd" fill-opacity="1" stroke="#000000" stroke-opacity="1" stroke-width="3.2"/>
<circle clip-path="url(#clip781)" cx="455.324" cy="1200.04" r="14.4" fill="#ff0000" fill-rule="evenodd" fill-opacity="1" stroke="#000000" stroke-opacity="1" stroke-width="3.2"/>
<circle clip-path="url(#clip781)" cx="459.163" cy="1193.75" r="14.4" fill="#ff0000" fill-rule="evenodd" fill-opacity="1" stroke="#000000" stroke-opacity="1" stroke-width="3.2"/>
<circle clip-path="url(#clip781)" cx="463.102" cy="1187.65" r="14.4" fill="#ff0000" fill-rule="evenodd" fill-opacity="1" stroke="#000000" stroke-opacity="1" stroke-width="3.2"/>
<circle clip-path="url(#clip781)" cx="467.171" cy="1181.02" r="14.4" fill="#ff0000" fill-rule="evenodd" fill-opacity="1" stroke="#000000" stroke-opacity="1" stroke-width="3.2"/>
<circle clip-path="url(#clip781)" cx="471.368" cy="1172.58" r="14.4" fill="#ff0000" fill-rule="evenodd" fill-opacity="1" stroke="#000000" stroke-opacity="1" stroke-width="3.2"/>
<circle clip-path="url(#clip781)" cx="475.703" cy="1163.86" r="14.4" fill="#ff0000" fill-rule="evenodd" fill-opacity="1" stroke="#000000" stroke-opacity="1" stroke-width="3.2"/>
<circle clip-path="url(#clip781)" cx="480.14" cy="1155.09" r="14.4" fill="#ff0000" fill-rule="evenodd" fill-opacity="1" stroke="#000000" stroke-opacity="1" stroke-width="3.2"/>
<circle clip-path="url(#clip781)" cx="484.673" cy="1146.31" r="14.4" fill="#ff0000" fill-rule="evenodd" fill-opacity="1" stroke="#000000" stroke-opacity="1" stroke-width="3.2"/>
<circle clip-path="url(#clip781)" cx="489.307" cy="1137.55" r="14.4" fill="#ff0000" fill-rule="evenodd" fill-opacity="1" stroke="#000000" stroke-opacity="1" stroke-width="3.2"/>
<circle clip-path="url(#clip781)" cx="494.043" cy="1128.76" r="14.4" fill="#ff0000" fill-rule="evenodd" fill-opacity="1" stroke="#000000" stroke-opacity="1" stroke-width="3.2"/>
<circle clip-path="url(#clip781)" cx="498.863" cy="1119.98" r="14.4" fill="#ff0000" fill-rule="evenodd" fill-opacity="1" stroke="#000000" stroke-opacity="1" stroke-width="3.2"/>
<circle clip-path="url(#clip781)" cx="503.779" cy="1111.18" r="14.4" fill="#ff0000" fill-rule="evenodd" fill-opacity="1" stroke="#000000" stroke-opacity="1" stroke-width="3.2"/>
<circle clip-path="url(#clip781)" cx="508.784" cy="1102.45" r="14.4" fill="#ff0000" fill-rule="evenodd" fill-opacity="1" stroke="#000000" stroke-opacity="1" stroke-width="3.2"/>
<circle clip-path="url(#clip781)" cx="513.89" cy="1093.69" r="14.4" fill="#ff0000" fill-rule="evenodd" fill-opacity="1" stroke="#000000" stroke-opacity="1" stroke-width="3.2"/>
<circle clip-path="url(#clip781)" cx="519.082" cy="1084.92" r="14.4" fill="#ff0000" fill-rule="evenodd" fill-opacity="1" stroke="#000000" stroke-opacity="1" stroke-width="3.2"/>
<circle clip-path="url(#clip781)" cx="524.363" cy="1076.15" r="14.4" fill="#ff0000" fill-rule="evenodd" fill-opacity="1" stroke="#000000" stroke-opacity="1" stroke-width="3.2"/>
<circle clip-path="url(#clip781)" cx="529.725" cy="1067.38" r="14.4" fill="#ff0000" fill-rule="evenodd" fill-opacity="1" stroke="#000000" stroke-opacity="1" stroke-width="3.2"/>
<circle clip-path="url(#clip781)" cx="535.173" cy="1058.6" r="14.4" fill="#ff0000" fill-rule="evenodd" fill-opacity="1" stroke="#000000" stroke-opacity="1" stroke-width="3.2"/>
<circle clip-path="url(#clip781)" cx="540.397" cy="1049.7" r="14.4" fill="#ff0000" fill-rule="evenodd" fill-opacity="1" stroke="#000000" stroke-opacity="1" stroke-width="3.2"/>
<circle clip-path="url(#clip781)" cx="545.579" cy="1040.75" r="14.4" fill="#ff0000" fill-rule="evenodd" fill-opacity="1" stroke="#000000" stroke-opacity="1" stroke-width="3.2"/>
<circle clip-path="url(#clip781)" cx="550.862" cy="1031.78" r="14.4" fill="#ff0000" fill-rule="evenodd" fill-opacity="1" stroke="#000000" stroke-opacity="1" stroke-width="3.2"/>
<circle clip-path="url(#clip781)" cx="556.307" cy="1022.64" r="14.4" fill="#ff0000" fill-rule="evenodd" fill-opacity="1" stroke="#000000" stroke-opacity="1" stroke-width="3.2"/>
<circle clip-path="url(#clip781)" cx="562.281" cy="1012.67" r="14.4" fill="#ff0000" fill-rule="evenodd" fill-opacity="1" stroke="#000000" stroke-opacity="1" stroke-width="3.2"/>
<circle clip-path="url(#clip781)" cx="568.33" cy="1002.69" r="14.4" fill="#ff0000" fill-rule="evenodd" fill-opacity="1" stroke="#000000" stroke-opacity="1" stroke-width="3.2"/>
<circle clip-path="url(#clip781)" cx="574.472" cy="992.7" r="14.4" fill="#ff0000" fill-rule="evenodd" fill-opacity="1" stroke="#000000" stroke-opacity="1" stroke-width="3.2"/>
<circle clip-path="url(#clip781)" cx="580.695" cy="982.705" r="14.4" fill="#ff0000" fill-rule="evenodd" fill-opacity="1" stroke="#000000" stroke-opacity="1" stroke-width="3.2"/>
<circle clip-path="url(#clip781)" cx="587.263" cy="972.697" r="14.4" fill="#ff0000" fill-rule="evenodd" fill-opacity="1" stroke="#000000" stroke-opacity="1" stroke-width="3.2"/>
<circle clip-path="url(#clip781)" cx="594.319" cy="962.636" r="14.4" fill="#ff0000" fill-rule="evenodd" fill-opacity="1" stroke="#000000" stroke-opacity="1" stroke-width="3.2"/>
<circle clip-path="url(#clip781)" cx="601.469" cy="952.596" r="14.4" fill="#ff0000" fill-rule="evenodd" fill-opacity="1" stroke="#000000" stroke-opacity="1" stroke-width="3.2"/>
<circle clip-path="url(#clip781)" cx="608.699" cy="942.523" r="14.4" fill="#ff0000" fill-rule="evenodd" fill-opacity="1" stroke="#000000" stroke-opacity="1" stroke-width="3.2"/>
<circle clip-path="url(#clip781)" cx="616.016" cy="932.468" r="14.4" fill="#ff0000" fill-rule="evenodd" fill-opacity="1" stroke="#000000" stroke-opacity="1" stroke-width="3.2"/>
<circle clip-path="url(#clip781)" cx="623.396" cy="922.595" r="14.4" fill="#ff0000" fill-rule="evenodd" fill-opacity="1" stroke="#000000" stroke-opacity="1" stroke-width="3.2"/>
<circle clip-path="url(#clip781)" cx="630.82" cy="913.026" r="14.4" fill="#ff0000" fill-rule="evenodd" fill-opacity="1" stroke="#000000" stroke-opacity="1" stroke-width="3.2"/>
<circle clip-path="url(#clip781)" cx="638.329" cy="903.508" r="14.4" fill="#ff0000" fill-rule="evenodd" fill-opacity="1" stroke="#000000" stroke-opacity="1" stroke-width="3.2"/>
<circle clip-path="url(#clip781)" cx="645.921" cy="893.973" r="14.4" fill="#ff0000" fill-rule="evenodd" fill-opacity="1" stroke="#000000" stroke-opacity="1" stroke-width="3.2"/>
<circle clip-path="url(#clip781)" cx="653.594" cy="884.436" r="14.4" fill="#ff0000" fill-rule="evenodd" fill-opacity="1" stroke="#000000" stroke-opacity="1" stroke-width="3.2"/>
<circle clip-path="url(#clip781)" cx="661.346" cy="874.901" r="14.4" fill="#ff0000" fill-rule="evenodd" fill-opacity="1" stroke="#000000" stroke-opacity="1" stroke-width="3.2"/>
<circle clip-path="url(#clip781)" cx="669.177" cy="865.374" r="14.4" fill="#ff0000" fill-rule="evenodd" fill-opacity="1" stroke="#000000" stroke-opacity="1" stroke-width="3.2"/>
<circle clip-path="url(#clip781)" cx="677.085" cy="855.855" r="14.4" fill="#ff0000" fill-rule="evenodd" fill-opacity="1" stroke="#000000" stroke-opacity="1" stroke-width="3.2"/>
<circle clip-path="url(#clip781)" cx="685.072" cy="846.328" r="14.4" fill="#ff0000" fill-rule="evenodd" fill-opacity="1" stroke="#000000" stroke-opacity="1" stroke-width="3.2"/>
<circle clip-path="url(#clip781)" cx="693.081" cy="836.842" r="14.4" fill="#ff0000" fill-rule="evenodd" fill-opacity="1" stroke="#000000" stroke-opacity="1" stroke-width="3.2"/>
<circle clip-path="url(#clip781)" cx="701.111" cy="827.411" r="14.4" fill="#ff0000" fill-rule="evenodd" fill-opacity="1" stroke="#000000" stroke-opacity="1" stroke-width="3.2"/>
<circle clip-path="url(#clip781)" cx="709.187" cy="817.564" r="14.4" fill="#ff0000" fill-rule="evenodd" fill-opacity="1" stroke="#000000" stroke-opacity="1" stroke-width="3.2"/>
<circle clip-path="url(#clip781)" cx="717.653" cy="806.71" r="14.4" fill="#ff0000" fill-rule="evenodd" fill-opacity="1" stroke="#000000" stroke-opacity="1" stroke-width="3.2"/>
<circle clip-path="url(#clip781)" cx="726.217" cy="795.85" r="14.4" fill="#ff0000" fill-rule="evenodd" fill-opacity="1" stroke="#000000" stroke-opacity="1" stroke-width="3.2"/>
<circle clip-path="url(#clip781)" cx="734.89" cy="784.894" r="14.4" fill="#ff0000" fill-rule="evenodd" fill-opacity="1" stroke="#000000" stroke-opacity="1" stroke-width="3.2"/>
<circle clip-path="url(#clip781)" cx="743.643" cy="774.124" r="14.4" fill="#ff0000" fill-rule="evenodd" fill-opacity="1" stroke="#000000" stroke-opacity="1" stroke-width="3.2"/>
<circle clip-path="url(#clip781)" cx="752.498" cy="763.267" r="14.4" fill="#ff0000" fill-rule="evenodd" fill-opacity="1" stroke="#000000" stroke-opacity="1" stroke-width="3.2"/>
<circle clip-path="url(#clip781)" cx="759.044" cy="757.992" r="14.4" fill="#ff0000" fill-rule="evenodd" fill-opacity="1" stroke="#000000" stroke-opacity="1" stroke-width="3.2"/>
<circle clip-path="url(#clip781)" cx="765.196" cy="754.431" r="14.4" fill="#ff0000" fill-rule="evenodd" fill-opacity="1" stroke="#000000" stroke-opacity="1" stroke-width="3.2"/>
<circle clip-path="url(#clip781)" cx="771.692" cy="750.798" r="14.4" fill="#ff0000" fill-rule="evenodd" fill-opacity="1" stroke="#000000" stroke-opacity="1" stroke-width="3.2"/>
<circle clip-path="url(#clip781)" cx="778.541" cy="747.197" r="14.4" fill="#ff0000" fill-rule="evenodd" fill-opacity="1" stroke="#000000" stroke-opacity="1" stroke-width="3.2"/>
<circle clip-path="url(#clip781)" cx="785.745" cy="743.655" r="14.4" fill="#ff0000" fill-rule="evenodd" fill-opacity="1" stroke="#000000" stroke-opacity="1" stroke-width="3.2"/>
<circle clip-path="url(#clip781)" cx="793.274" cy="740.101" r="14.4" fill="#ff0000" fill-rule="evenodd" fill-opacity="1" stroke="#000000" stroke-opacity="1" stroke-width="3.2"/>
<circle clip-path="url(#clip781)" cx="801.162" cy="736.591" r="14.4" fill="#ff0000" fill-rule="evenodd" fill-opacity="1" stroke="#000000" stroke-opacity="1" stroke-width="3.2"/>
<circle clip-path="url(#clip781)" cx="808.387" cy="740.813" r="14.4" fill="#ff0000" fill-rule="evenodd" fill-opacity="1" stroke="#000000" stroke-opacity="1" stroke-width="3.2"/>
<circle clip-path="url(#clip781)" cx="816.155" cy="745.881" r="14.4" fill="#ff0000" fill-rule="evenodd" fill-opacity="1" stroke="#000000" stroke-opacity="1" stroke-width="3.2"/>
<circle clip-path="url(#clip781)" cx="824.561" cy="750.981" r="14.4" fill="#ff0000" fill-rule="evenodd" fill-opacity="1" stroke="#000000" stroke-opacity="1" stroke-width="3.2"/>
<circle clip-path="url(#clip781)" cx="833.613" cy="755.989" r="14.4" fill="#ff0000" fill-rule="evenodd" fill-opacity="1" stroke="#000000" stroke-opacity="1" stroke-width="3.2"/>
<circle clip-path="url(#clip781)" cx="844.182" cy="758.336" r="14.4" fill="#ff0000" fill-rule="evenodd" fill-opacity="1" stroke="#000000" stroke-opacity="1" stroke-width="3.2"/>
<circle clip-path="url(#clip781)" cx="857.366" cy="760.652" r="14.4" fill="#ff0000" fill-rule="evenodd" fill-opacity="1" stroke="#000000" stroke-opacity="1" stroke-width="3.2"/>
<circle clip-path="url(#clip781)" cx="873.201" cy="763.043" r="14.4" fill="#ff0000" fill-rule="evenodd" fill-opacity="1" stroke="#000000" stroke-opacity="1" stroke-width="3.2"/>
<circle clip-path="url(#clip781)" cx="891.574" cy="765.439" r="14.4" fill="#ff0000" fill-rule="evenodd" fill-opacity="1" stroke="#000000" stroke-opacity="1" stroke-width="3.2"/>
<circle clip-path="url(#clip781)" cx="912.322" cy="767.76" r="14.4" fill="#ff0000" fill-rule="evenodd" fill-opacity="1" stroke="#000000" stroke-opacity="1" stroke-width="3.2"/>
<circle clip-path="url(#clip781)" cx="935.472" cy="770.356" r="14.4" fill="#ff0000" fill-rule="evenodd" fill-opacity="1" stroke="#000000" stroke-opacity="1" stroke-width="3.2"/>
<circle clip-path="url(#clip781)" cx="960.524" cy="772.491" r="14.4" fill="#ff0000" fill-rule="evenodd" fill-opacity="1" stroke="#000000" stroke-opacity="1" stroke-width="3.2"/>
<circle clip-path="url(#clip781)" cx="988.439" cy="764.691" r="14.4" fill="#ff0000" fill-rule="evenodd" fill-opacity="1" stroke="#000000" stroke-opacity="1" stroke-width="3.2"/>
<circle clip-path="url(#clip781)" cx="1021" cy="750.805" r="14.4" fill="#ff0000" fill-rule="evenodd" fill-opacity="1" stroke="#000000" stroke-opacity="1" stroke-width="3.2"/>
<circle clip-path="url(#clip781)" cx="1061.8" cy="744.246" r="14.4" fill="#ff0000" fill-rule="evenodd" fill-opacity="1" stroke="#000000" stroke-opacity="1" stroke-width="3.2"/>
<circle clip-path="url(#clip781)" cx="1113.54" cy="750.882" r="14.4" fill="#ff0000" fill-rule="evenodd" fill-opacity="1" stroke="#000000" stroke-opacity="1" stroke-width="3.2"/>
<circle clip-path="url(#clip781)" cx="1169.16" cy="757.518" r="14.4" fill="#ff0000" fill-rule="evenodd" fill-opacity="1" stroke="#000000" stroke-opacity="1" stroke-width="3.2"/>
<circle clip-path="url(#clip781)" cx="1228.26" cy="764.155" r="14.4" fill="#ff0000" fill-rule="evenodd" fill-opacity="1" stroke="#000000" stroke-opacity="1" stroke-width="3.2"/>
<circle clip-path="url(#clip781)" cx="1290.5" cy="770.791" r="14.4" fill="#ff0000" fill-rule="evenodd" fill-opacity="1" stroke="#000000" stroke-opacity="1" stroke-width="3.2"/>
<circle clip-path="url(#clip781)" cx="1355.54" cy="777.428" r="14.4" fill="#ff0000" fill-rule="evenodd" fill-opacity="1" stroke="#000000" stroke-opacity="1" stroke-width="3.2"/>
<circle clip-path="url(#clip781)" cx="1423.1" cy="784.064" r="14.4" fill="#ff0000" fill-rule="evenodd" fill-opacity="1" stroke="#000000" stroke-opacity="1" stroke-width="3.2"/>
<circle clip-path="url(#clip781)" cx="1492.9" cy="790.701" r="14.4" fill="#ff0000" fill-rule="evenodd" fill-opacity="1" stroke="#000000" stroke-opacity="1" stroke-width="3.2"/>
<circle clip-path="url(#clip781)" cx="1564.72" cy="797.337" r="14.4" fill="#ff0000" fill-rule="evenodd" fill-opacity="1" stroke="#000000" stroke-opacity="1" stroke-width="3.2"/>
<path clip-path="url(#clip780)" d="M376.019 322.316 L756.885 322.316 L756.885 166.796 L376.019 166.796  Z" fill="#ffffff" fill-rule="evenodd" fill-opacity="1"/>
<polyline clip-path="url(#clip780)" style="stroke:#000000; stroke-linecap:round; stroke-linejoin:round; stroke-width:4; stroke-opacity:1; fill:none" points="376.019,322.316 756.885,322.316 756.885,166.796 376.019,166.796 376.019,322.316 "/>
<circle clip-path="url(#clip780)" cx="464.007" cy="218.636" r="20.48" fill="#009af9" fill-rule="evenodd" fill-opacity="1" stroke="#000000" stroke-opacity="1" stroke-width="4.55111"/>
<path clip-path="url(#clip780)" d="M551.996 201.356 L581.232 201.356 L581.232 205.291 L568.963 205.291 L568.963 235.916 L564.264 235.916 L564.264 205.291 L551.996 205.291 L551.996 201.356 Z" fill="#000000" fill-rule="nonzero" fill-opacity="1" /><path clip-path="url(#clip780)" d="M593.616 213.971 Q592.898 213.555 592.042 213.37 Q591.208 213.161 590.19 213.161 Q586.579 213.161 584.634 215.522 Q582.713 217.86 582.713 222.258 L582.713 235.916 L578.431 235.916 L578.431 209.99 L582.713 209.99 L582.713 214.018 Q584.056 211.657 586.208 210.522 Q588.361 209.365 591.44 209.365 Q591.88 209.365 592.412 209.434 Q592.944 209.481 593.593 209.596 L593.616 213.971 Z" fill="#000000" fill-rule="nonzero" fill-opacity="1" /><path clip-path="url(#clip780)" d="M609.866 222.883 Q604.704 222.883 602.713 224.064 Q600.722 225.244 600.722 228.092 Q600.722 230.36 602.204 231.703 Q603.708 233.022 606.278 233.022 Q609.819 233.022 611.949 230.522 Q614.102 227.999 614.102 223.832 L614.102 222.883 L609.866 222.883 M618.361 221.124 L618.361 235.916 L614.102 235.916 L614.102 231.981 Q612.643 234.342 610.467 235.476 Q608.292 236.587 605.143 236.587 Q601.162 236.587 598.801 234.365 Q596.463 232.119 596.463 228.369 Q596.463 223.994 599.38 221.772 Q602.319 219.55 608.13 219.55 L614.102 219.55 L614.102 219.133 Q614.102 216.194 612.157 214.596 Q610.236 212.976 606.741 212.976 Q604.518 212.976 602.412 213.508 Q600.305 214.041 598.361 215.106 L598.361 211.17 Q600.699 210.268 602.898 209.828 Q605.097 209.365 607.18 209.365 Q612.805 209.365 615.583 212.282 Q618.361 215.198 618.361 221.124 Z" fill="#000000" fill-rule="nonzero" fill-opacity="1" /><path clip-path="url(#clip780)" d="M627.134 209.99 L631.393 209.99 L631.393 235.916 L627.134 235.916 L627.134 209.99 M627.134 199.897 L631.393 199.897 L631.393 205.291 L627.134 205.291 L627.134 199.897 Z" fill="#000000" fill-rule="nonzero" fill-opacity="1" /><path clip-path="url(#clip780)" d="M661.856 220.268 L661.856 235.916 L657.597 235.916 L657.597 220.407 Q657.597 216.726 656.162 214.897 Q654.726 213.069 651.856 213.069 Q648.407 213.069 646.416 215.268 Q644.426 217.467 644.426 221.263 L644.426 235.916 L640.143 235.916 L640.143 209.99 L644.426 209.99 L644.426 214.018 Q645.953 211.68 648.014 210.522 Q650.097 209.365 652.805 209.365 Q657.273 209.365 659.564 212.143 Q661.856 214.897 661.856 220.268 Z" fill="#000000" fill-rule="nonzero" fill-opacity="1" /><path clip-path="url(#clip780)" d="M670.351 209.99 L674.611 209.99 L674.611 235.916 L670.351 235.916 L670.351 209.99 M670.351 199.897 L674.611 199.897 L674.611 205.291 L670.351 205.291 L670.351 199.897 Z" fill="#000000" fill-rule="nonzero" fill-opacity="1" /><path clip-path="url(#clip780)" d="M705.073 220.268 L705.073 235.916 L700.814 235.916 L700.814 220.407 Q700.814 216.726 699.379 214.897 Q697.944 213.069 695.073 213.069 Q691.624 213.069 689.634 215.268 Q687.643 217.467 687.643 221.263 L687.643 235.916 L683.361 235.916 L683.361 209.99 L687.643 209.99 L687.643 214.018 Q689.171 211.68 691.231 210.522 Q693.314 209.365 696.023 209.365 Q700.49 209.365 702.782 212.143 Q705.073 214.897 705.073 220.268 Z" fill="#000000" fill-rule="nonzero" fill-opacity="1" /><path clip-path="url(#clip780)" d="M730.629 222.652 Q730.629 218.022 728.708 215.476 Q726.809 212.93 723.36 212.93 Q719.934 212.93 718.013 215.476 Q716.115 218.022 716.115 222.652 Q716.115 227.258 718.013 229.805 Q719.934 232.351 723.36 232.351 Q726.809 232.351 728.708 229.805 Q730.629 227.258 730.629 222.652 M734.888 232.698 Q734.888 239.318 731.948 242.536 Q729.008 245.777 722.944 245.777 Q720.698 245.777 718.708 245.43 Q716.717 245.105 714.842 244.411 L714.842 240.268 Q716.717 241.286 718.546 241.772 Q720.374 242.258 722.272 242.258 Q726.462 242.258 728.546 240.059 Q730.629 237.883 730.629 233.462 L730.629 231.356 Q729.309 233.647 727.249 234.781 Q725.189 235.916 722.319 235.916 Q717.55 235.916 714.634 232.281 Q711.717 228.647 711.717 222.652 Q711.717 216.633 714.634 212.999 Q717.55 209.365 722.319 209.365 Q725.189 209.365 727.249 210.499 Q729.309 211.633 730.629 213.925 L730.629 209.99 L734.888 209.99 L734.888 232.698 Z" fill="#000000" fill-rule="nonzero" fill-opacity="1" /><circle clip-path="url(#clip780)" cx="464.007" cy="270.476" r="20.48" fill="#ff0000" fill-rule="evenodd" fill-opacity="1" stroke="#000000" stroke-opacity="1" stroke-width="4.55111"/>
<path clip-path="url(#clip780)" d="M551.996 253.196 L581.232 253.196 L581.232 257.131 L568.963 257.131 L568.963 287.756 L564.264 287.756 L564.264 257.131 L551.996 257.131 L551.996 253.196 Z" fill="#000000" fill-rule="nonzero" fill-opacity="1" /><path clip-path="url(#clip780)" d="M599.68 273.728 L599.68 275.811 L580.097 275.811 Q580.375 280.209 582.736 282.524 Q585.12 284.816 589.356 284.816 Q591.81 284.816 594.102 284.214 Q596.417 283.612 598.685 282.409 L598.685 286.436 Q596.393 287.408 593.986 287.918 Q591.579 288.427 589.102 288.427 Q582.898 288.427 579.264 284.816 Q575.653 281.205 575.653 275.047 Q575.653 268.682 579.079 264.955 Q582.528 261.205 588.361 261.205 Q593.593 261.205 596.625 264.585 Q599.68 267.941 599.68 273.728 M595.421 272.478 Q595.375 268.983 593.454 266.899 Q591.556 264.816 588.407 264.816 Q584.843 264.816 582.69 266.83 Q580.56 268.844 580.236 272.501 L595.421 272.478 Z" fill="#000000" fill-rule="nonzero" fill-opacity="1" /><path clip-path="url(#clip780)" d="M623.199 262.594 L623.199 266.622 Q621.393 265.696 619.449 265.233 Q617.504 264.77 615.421 264.77 Q612.25 264.77 610.653 265.742 Q609.079 266.714 609.079 268.659 Q609.079 270.14 610.213 270.997 Q611.347 271.83 614.773 272.594 L616.231 272.918 Q620.768 273.89 622.666 275.672 Q624.588 277.432 624.588 280.603 Q624.588 284.214 621.717 286.321 Q618.87 288.427 613.87 288.427 Q611.787 288.427 609.518 288.01 Q607.273 287.617 604.773 286.807 L604.773 282.409 Q607.134 283.635 609.426 284.26 Q611.717 284.862 613.963 284.862 Q616.972 284.862 618.592 283.844 Q620.213 282.802 620.213 280.927 Q620.213 279.191 619.032 278.265 Q617.875 277.339 613.917 276.483 L612.435 276.135 Q608.477 275.302 606.717 273.589 Q604.958 271.853 604.958 268.844 Q604.958 265.186 607.551 263.196 Q610.143 261.205 614.912 261.205 Q617.273 261.205 619.356 261.552 Q621.44 261.899 623.199 262.594 Z" fill="#000000" fill-rule="nonzero" fill-opacity="1" /><path clip-path="url(#clip780)" d="M635.583 254.469 L635.583 261.83 L644.356 261.83 L644.356 265.14 L635.583 265.14 L635.583 279.214 Q635.583 282.385 636.44 283.288 Q637.319 284.191 639.981 284.191 L644.356 284.191 L644.356 287.756 L639.981 287.756 Q635.051 287.756 633.176 285.927 Q631.301 284.075 631.301 279.214 L631.301 265.14 L628.176 265.14 L628.176 261.83 L631.301 261.83 L631.301 254.469 L635.583 254.469 Z" fill="#000000" fill-rule="nonzero" fill-opacity="1" /></svg>
