<?xml version="1.0" encoding="utf-8"?>
<svg xmlns="http://www.w3.org/2000/svg" xmlns:xlink="http://www.w3.org/1999/xlink" width="600" height="400" viewBox="0 0 2400 1600">
<defs>
  <clipPath id="clip390">
    <rect x="0" y="0" width="2400" height="1600"/>
  </clipPath>
</defs>
<path clip-path="url(#clip390)" d="M0 1600 L2400 1600 L2400 0 L0 0  Z" fill="#ffffff" fill-rule="evenodd" fill-opacity="1"/>
<defs>
  <clipPath id="clip391">
    <rect x="400" y="123" width="1891" height="1301"/>
  </clipPath>
</defs>
<path clip-path="url(#clip390)" d="M310.028 1423.18 L2289.76 1423.18 L2289.76 123.472 L310.028 123.472  Z" fill="#ffffff" fill-rule="evenodd" fill-opacity="1"/>
<defs>
  <clipPath id="clip392">
    <rect x="310" y="123" width="1981" height="1301"/>
  </clipPath>
</defs>
<polyline clip-path="url(#clip392)" style="stroke:#000000; stroke-linecap:round; stroke-linejoin:round; stroke-width:2; stroke-opacity:0.1; fill:none" points="354.552,1423.18 354.552,123.472 "/>
<polyline clip-path="url(#clip392)" style="stroke:#000000; stroke-linecap:round; stroke-linejoin:round; stroke-width:2; stroke-opacity:0.1; fill:none" points="758.337,1423.18 758.337,123.472 "/>
<polyline clip-path="url(#clip392)" style="stroke:#000000; stroke-linecap:round; stroke-linejoin:round; stroke-width:2; stroke-opacity:0.1; fill:none" points="1162.12,1423.18 1162.12,123.472 "/>
<polyline clip-path="url(#clip392)" style="stroke:#000000; stroke-linecap:round; stroke-linejoin:round; stroke-width:2; stroke-opacity:0.1; fill:none" points="1565.91,1423.18 1565.91,123.472 "/>
<polyline clip-path="url(#clip392)" style="stroke:#000000; stroke-linecap:round; stroke-linejoin:round; stroke-width:2; stroke-opacity:0.1; fill:none" points="1969.69,1423.18 1969.69,123.472 "/>
<polyline clip-path="url(#clip392)" style="stroke:#000000; stroke-linecap:round; stroke-linejoin:round; stroke-width:2; stroke-opacity:0.1; fill:none" points="310.028,1414.11 2289.76,1414.11 "/>
<polyline clip-path="url(#clip392)" style="stroke:#000000; stroke-linecap:round; stroke-linejoin:round; stroke-width:2; stroke-opacity:0.1; fill:none" points="310.028,1078.56 2289.76,1078.56 "/>
<polyline clip-path="url(#clip392)" style="stroke:#000000; stroke-linecap:round; stroke-linejoin:round; stroke-width:2; stroke-opacity:0.1; fill:none" points="310.028,743.007 2289.76,743.007 "/>
<polyline clip-path="url(#clip392)" style="stroke:#000000; stroke-linecap:round; stroke-linejoin:round; stroke-width:2; stroke-opacity:0.1; fill:none" points="310.028,407.455 2289.76,407.455 "/>
<polyline clip-path="url(#clip390)" style="stroke:#000000; stroke-linecap:round; stroke-linejoin:round; stroke-width:4; stroke-opacity:1; fill:none" points="310.028,1423.18 2289.76,1423.18 "/>
<polyline clip-path="url(#clip390)" style="stroke:#000000; stroke-linecap:round; stroke-linejoin:round; stroke-width:4; stroke-opacity:1; fill:none" points="354.552,1423.18 354.552,1404.28 "/>
<polyline clip-path="url(#clip390)" style="stroke:#000000; stroke-linecap:round; stroke-linejoin:round; stroke-width:4; stroke-opacity:1; fill:none" points="758.337,1423.18 758.337,1404.28 "/>
<polyline clip-path="url(#clip390)" style="stroke:#000000; stroke-linecap:round; stroke-linejoin:round; stroke-width:4; stroke-opacity:1; fill:none" points="1162.12,1423.18 1162.12,1404.28 "/>
<polyline clip-path="url(#clip390)" style="stroke:#000000; stroke-linecap:round; stroke-linejoin:round; stroke-width:4; stroke-opacity:1; fill:none" points="1565.91,1423.18 1565.91,1404.28 "/>
<polyline clip-path="url(#clip390)" style="stroke:#000000; stroke-linecap:round; stroke-linejoin:round; stroke-width:4; stroke-opacity:1; fill:none" points="1969.69,1423.18 1969.69,1404.28 "/>
<path clip-path="url(#clip390)" d="M301.774 1454.1 Q298.163 1454.1 296.335 1457.66 Q294.529 1461.2 294.529 1468.33 Q294.529 1475.44 296.335 1479.01 Q298.163 1482.55 301.774 1482.55 Q305.409 1482.55 307.214 1479.01 Q309.043 1475.44 309.043 1468.33 Q309.043 1461.2 307.214 1457.66 Q305.409 1454.1 301.774 1454.1 M301.774 1450.39 Q307.585 1450.39 310.64 1455 Q313.719 1459.58 313.719 1468.33 Q313.719 1477.06 310.64 1481.67 Q307.585 1486.25 301.774 1486.25 Q295.964 1486.25 292.886 1481.67 Q289.83 1477.06 289.83 1468.33 Q289.83 1459.58 292.886 1455 Q295.964 1450.39 301.774 1450.39 Z" fill="#000000" fill-rule="nonzero" fill-opacity="1" /><path clip-path="url(#clip390)" d="M321.936 1479.7 L326.821 1479.7 L326.821 1485.58 L321.936 1485.58 L321.936 1479.7 Z" fill="#000000" fill-rule="nonzero" fill-opacity="1" /><path clip-path="url(#clip390)" d="M347.006 1454.1 Q343.395 1454.1 341.566 1457.66 Q339.76 1461.2 339.76 1468.33 Q339.76 1475.44 341.566 1479.01 Q343.395 1482.55 347.006 1482.55 Q350.64 1482.55 352.446 1479.01 Q354.274 1475.44 354.274 1468.33 Q354.274 1461.2 352.446 1457.66 Q350.64 1454.1 347.006 1454.1 M347.006 1450.39 Q352.816 1450.39 355.871 1455 Q358.95 1459.58 358.95 1468.33 Q358.95 1477.06 355.871 1481.67 Q352.816 1486.25 347.006 1486.25 Q341.196 1486.25 338.117 1481.67 Q335.061 1477.06 335.061 1468.33 Q335.061 1459.58 338.117 1455 Q341.196 1450.39 347.006 1450.39 Z" fill="#000000" fill-rule="nonzero" fill-opacity="1" /><path clip-path="url(#clip390)" d="M367.978 1481.64 L375.617 1481.64 L375.617 1455.28 L367.307 1456.95 L367.307 1452.69 L375.57 1451.02 L380.246 1451.02 L380.246 1481.64 L387.885 1481.64 L387.885 1485.58 L367.978 1485.58 L367.978 1481.64 Z" fill="#000000" fill-rule="nonzero" fill-opacity="1" /><path clip-path="url(#clip390)" d="M407.329 1454.1 Q403.718 1454.1 401.89 1457.66 Q400.084 1461.2 400.084 1468.33 Q400.084 1475.44 401.89 1479.01 Q403.718 1482.55 407.329 1482.55 Q410.964 1482.55 412.769 1479.01 Q414.598 1475.44 414.598 1468.33 Q414.598 1461.2 412.769 1457.66 Q410.964 1454.1 407.329 1454.1 M407.329 1450.39 Q413.14 1450.39 416.195 1455 Q419.274 1459.58 419.274 1468.33 Q419.274 1477.06 416.195 1481.67 Q413.14 1486.25 407.329 1486.25 Q401.519 1486.25 398.441 1481.67 Q395.385 1477.06 395.385 1468.33 Q395.385 1459.58 398.441 1455 Q401.519 1450.39 407.329 1450.39 Z" fill="#000000" fill-rule="nonzero" fill-opacity="1" /><path clip-path="url(#clip390)" d="M706.057 1454.1 Q702.446 1454.1 700.618 1457.66 Q698.812 1461.2 698.812 1468.33 Q698.812 1475.44 700.618 1479.01 Q702.446 1482.55 706.057 1482.55 Q709.692 1482.55 711.497 1479.01 Q713.326 1475.44 713.326 1468.33 Q713.326 1461.2 711.497 1457.66 Q709.692 1454.1 706.057 1454.1 M706.057 1450.39 Q711.868 1450.39 714.923 1455 Q718.002 1459.58 718.002 1468.33 Q718.002 1477.06 714.923 1481.67 Q711.868 1486.25 706.057 1486.25 Q700.247 1486.25 697.169 1481.67 Q694.113 1477.06 694.113 1468.33 Q694.113 1459.58 697.169 1455 Q700.247 1450.39 706.057 1450.39 Z" fill="#000000" fill-rule="nonzero" fill-opacity="1" /><path clip-path="url(#clip390)" d="M726.219 1479.7 L731.104 1479.7 L731.104 1485.58 L726.219 1485.58 L726.219 1479.7 Z" fill="#000000" fill-rule="nonzero" fill-opacity="1" /><path clip-path="url(#clip390)" d="M751.289 1454.1 Q747.678 1454.1 745.849 1457.66 Q744.043 1461.2 744.043 1468.33 Q744.043 1475.44 745.849 1479.01 Q747.678 1482.55 751.289 1482.55 Q754.923 1482.55 756.728 1479.01 Q758.557 1475.44 758.557 1468.33 Q758.557 1461.2 756.728 1457.66 Q754.923 1454.1 751.289 1454.1 M751.289 1450.39 Q757.099 1450.39 760.154 1455 Q763.233 1459.58 763.233 1468.33 Q763.233 1477.06 760.154 1481.67 Q757.099 1486.25 751.289 1486.25 Q745.479 1486.25 742.4 1481.67 Q739.344 1477.06 739.344 1468.33 Q739.344 1459.58 742.4 1455 Q745.479 1450.39 751.289 1450.39 Z" fill="#000000" fill-rule="nonzero" fill-opacity="1" /><path clip-path="url(#clip390)" d="M772.261 1481.64 L779.9 1481.64 L779.9 1455.28 L771.59 1456.95 L771.59 1452.69 L779.853 1451.02 L784.529 1451.02 L784.529 1481.64 L792.168 1481.64 L792.168 1485.58 L772.261 1485.58 L772.261 1481.64 Z" fill="#000000" fill-rule="nonzero" fill-opacity="1" /><path clip-path="url(#clip390)" d="M801.659 1451.02 L820.015 1451.02 L820.015 1454.96 L805.941 1454.96 L805.941 1463.43 Q806.96 1463.08 807.978 1462.92 Q808.997 1462.73 810.015 1462.73 Q815.802 1462.73 819.182 1465.9 Q822.561 1469.08 822.561 1474.49 Q822.561 1480.07 819.089 1483.17 Q815.617 1486.25 809.298 1486.25 Q807.122 1486.25 804.853 1485.88 Q802.608 1485.51 800.2 1484.77 L800.2 1480.07 Q802.284 1481.2 804.506 1481.76 Q806.728 1482.32 809.205 1482.32 Q813.21 1482.32 815.548 1480.21 Q817.886 1478.1 817.886 1474.49 Q817.886 1470.88 815.548 1468.77 Q813.21 1466.67 809.205 1466.67 Q807.33 1466.67 805.455 1467.08 Q803.603 1467.5 801.659 1468.38 L801.659 1451.02 Z" fill="#000000" fill-rule="nonzero" fill-opacity="1" /><path clip-path="url(#clip390)" d="M1109.35 1454.1 Q1105.73 1454.1 1103.91 1457.66 Q1102.1 1461.2 1102.1 1468.33 Q1102.1 1475.44 1103.91 1479.01 Q1105.73 1482.55 1109.35 1482.55 Q1112.98 1482.55 1114.78 1479.01 Q1116.61 1475.44 1116.61 1468.33 Q1116.61 1461.2 1114.78 1457.66 Q1112.98 1454.1 1109.35 1454.1 M1109.35 1450.39 Q1115.16 1450.39 1118.21 1455 Q1121.29 1459.58 1121.29 1468.33 Q1121.29 1477.06 1118.21 1481.67 Q1115.16 1486.25 1109.35 1486.25 Q1103.53 1486.25 1100.46 1481.67 Q1097.4 1477.06 1097.4 1468.33 Q1097.4 1459.58 1100.46 1455 Q1103.53 1450.39 1109.35 1450.39 Z" fill="#000000" fill-rule="nonzero" fill-opacity="1" /><path clip-path="url(#clip390)" d="M1129.51 1479.7 L1134.39 1479.7 L1134.39 1485.58 L1129.51 1485.58 L1129.51 1479.7 Z" fill="#000000" fill-rule="nonzero" fill-opacity="1" /><path clip-path="url(#clip390)" d="M1154.58 1454.1 Q1150.97 1454.1 1149.14 1457.66 Q1147.33 1461.2 1147.33 1468.33 Q1147.33 1475.44 1149.14 1479.01 Q1150.97 1482.55 1154.58 1482.55 Q1158.21 1482.55 1160.02 1479.01 Q1161.84 1475.44 1161.84 1468.33 Q1161.84 1461.2 1160.02 1457.66 Q1158.21 1454.1 1154.58 1454.1 M1154.58 1450.39 Q1160.39 1450.39 1163.44 1455 Q1166.52 1459.58 1166.52 1468.33 Q1166.52 1477.06 1163.44 1481.67 Q1160.39 1486.25 1154.58 1486.25 Q1148.77 1486.25 1145.69 1481.67 Q1142.63 1477.06 1142.63 1468.33 Q1142.63 1459.58 1145.69 1455 Q1148.77 1450.39 1154.58 1450.39 Z" fill="#000000" fill-rule="nonzero" fill-opacity="1" /><path clip-path="url(#clip390)" d="M1178.77 1481.64 L1195.09 1481.64 L1195.09 1485.58 L1173.14 1485.58 L1173.14 1481.64 Q1175.8 1478.89 1180.39 1474.26 Q1184.99 1469.61 1186.17 1468.27 Q1188.42 1465.74 1189.3 1464.01 Q1190.2 1462.25 1190.2 1460.56 Q1190.2 1457.8 1188.26 1456.07 Q1186.34 1454.33 1183.23 1454.33 Q1181.03 1454.33 1178.58 1455.09 Q1176.15 1455.86 1173.37 1457.41 L1173.37 1452.69 Q1176.2 1451.55 1178.65 1450.97 Q1181.1 1450.39 1183.14 1450.39 Q1188.51 1450.39 1191.71 1453.08 Q1194.9 1455.77 1194.9 1460.26 Q1194.9 1462.39 1194.09 1464.31 Q1193.3 1466.2 1191.2 1468.8 Q1190.62 1469.47 1187.52 1472.69 Q1184.41 1475.88 1178.77 1481.64 Z" fill="#000000" fill-rule="nonzero" fill-opacity="1" /><path clip-path="url(#clip390)" d="M1214.9 1454.1 Q1211.29 1454.1 1209.46 1457.66 Q1207.65 1461.2 1207.65 1468.33 Q1207.65 1475.44 1209.46 1479.01 Q1211.29 1482.55 1214.9 1482.55 Q1218.53 1482.55 1220.34 1479.01 Q1222.17 1475.44 1222.17 1468.33 Q1222.17 1461.2 1220.34 1457.66 Q1218.53 1454.1 1214.9 1454.1 M1214.9 1450.39 Q1220.71 1450.39 1223.77 1455 Q1226.84 1459.58 1226.84 1468.33 Q1226.84 1477.06 1223.77 1481.67 Q1220.71 1486.25 1214.9 1486.25 Q1209.09 1486.25 1206.01 1481.67 Q1202.96 1477.06 1202.96 1468.33 Q1202.96 1459.58 1206.01 1455 Q1209.09 1450.39 1214.9 1450.39 Z" fill="#000000" fill-rule="nonzero" fill-opacity="1" /><path clip-path="url(#clip390)" d="M1513.63 1454.1 Q1510.02 1454.1 1508.19 1457.66 Q1506.38 1461.2 1506.38 1468.33 Q1506.38 1475.44 1508.19 1479.01 Q1510.02 1482.55 1513.63 1482.55 Q1517.26 1482.55 1519.07 1479.01 Q1520.9 1475.44 1520.9 1468.33 Q1520.9 1461.2 1519.07 1457.66 Q1517.26 1454.1 1513.63 1454.1 M1513.63 1450.39 Q1519.44 1450.39 1522.49 1455 Q1525.57 1459.58 1525.57 1468.33 Q1525.57 1477.06 1522.49 1481.67 Q1519.44 1486.25 1513.63 1486.25 Q1507.82 1486.25 1504.74 1481.67 Q1501.68 1477.06 1501.68 1468.33 Q1501.68 1459.58 1504.74 1455 Q1507.82 1450.39 1513.63 1450.39 Z" fill="#000000" fill-rule="nonzero" fill-opacity="1" /><path clip-path="url(#clip390)" d="M1533.79 1479.7 L1538.67 1479.7 L1538.67 1485.58 L1533.79 1485.58 L1533.79 1479.7 Z" fill="#000000" fill-rule="nonzero" fill-opacity="1" /><path clip-path="url(#clip390)" d="M1558.86 1454.1 Q1555.25 1454.1 1553.42 1457.66 Q1551.61 1461.2 1551.61 1468.33 Q1551.61 1475.44 1553.42 1479.01 Q1555.25 1482.55 1558.86 1482.55 Q1562.49 1482.55 1564.3 1479.01 Q1566.13 1475.44 1566.13 1468.33 Q1566.13 1461.2 1564.3 1457.66 Q1562.49 1454.1 1558.86 1454.1 M1558.86 1450.39 Q1564.67 1450.39 1567.72 1455 Q1570.8 1459.58 1570.8 1468.33 Q1570.8 1477.06 1567.72 1481.67 Q1564.67 1486.25 1558.86 1486.25 Q1553.05 1486.25 1549.97 1481.67 Q1546.91 1477.06 1546.91 1468.33 Q1546.91 1459.58 1549.97 1455 Q1553.05 1450.39 1558.86 1450.39 Z" fill="#000000" fill-rule="nonzero" fill-opacity="1" /><path clip-path="url(#clip390)" d="M1583.05 1481.64 L1599.37 1481.64 L1599.37 1485.58 L1577.42 1485.58 L1577.42 1481.64 Q1580.09 1478.89 1584.67 1474.26 Q1589.28 1469.61 1590.46 1468.27 Q1592.7 1465.74 1593.58 1464.01 Q1594.48 1462.25 1594.48 1460.56 Q1594.48 1457.8 1592.54 1456.07 Q1590.62 1454.33 1587.52 1454.33 Q1585.32 1454.33 1582.86 1455.09 Q1580.43 1455.86 1577.66 1457.41 L1577.66 1452.69 Q1580.48 1451.55 1582.93 1450.97 Q1585.39 1450.39 1587.42 1450.39 Q1592.79 1450.39 1595.99 1453.08 Q1599.18 1455.77 1599.18 1460.26 Q1599.18 1462.39 1598.37 1464.31 Q1597.59 1466.2 1595.48 1468.8 Q1594.9 1469.47 1591.8 1472.69 Q1588.7 1475.88 1583.05 1481.64 Z" fill="#000000" fill-rule="nonzero" fill-opacity="1" /><path clip-path="url(#clip390)" d="M1609.23 1451.02 L1627.59 1451.02 L1627.59 1454.96 L1613.51 1454.96 L1613.51 1463.43 Q1614.53 1463.08 1615.55 1462.92 Q1616.57 1462.73 1617.59 1462.73 Q1623.37 1462.73 1626.75 1465.9 Q1630.13 1469.08 1630.13 1474.49 Q1630.13 1480.07 1626.66 1483.17 Q1623.19 1486.25 1616.87 1486.25 Q1614.69 1486.25 1612.42 1485.88 Q1610.18 1485.51 1607.77 1484.77 L1607.77 1480.07 Q1609.85 1481.2 1612.08 1481.76 Q1614.3 1482.32 1616.78 1482.32 Q1620.78 1482.32 1623.12 1480.21 Q1625.46 1478.1 1625.46 1474.49 Q1625.46 1470.88 1623.12 1468.77 Q1620.78 1466.67 1616.78 1466.67 Q1614.9 1466.67 1613.03 1467.08 Q1611.17 1467.5 1609.23 1468.38 L1609.23 1451.02 Z" fill="#000000" fill-rule="nonzero" fill-opacity="1" /><path clip-path="url(#clip390)" d="M1916.92 1454.1 Q1913.3 1454.1 1911.48 1457.66 Q1909.67 1461.2 1909.67 1468.33 Q1909.67 1475.44 1911.48 1479.01 Q1913.3 1482.55 1916.92 1482.55 Q1920.55 1482.55 1922.36 1479.01 Q1924.18 1475.44 1924.18 1468.33 Q1924.18 1461.2 1922.36 1457.66 Q1920.55 1454.1 1916.92 1454.1 M1916.92 1450.39 Q1922.73 1450.39 1925.78 1455 Q1928.86 1459.58 1928.86 1468.33 Q1928.86 1477.06 1925.78 1481.67 Q1922.73 1486.25 1916.92 1486.25 Q1911.11 1486.25 1908.03 1481.67 Q1904.97 1477.06 1904.97 1468.33 Q1904.97 1459.58 1908.03 1455 Q1911.11 1450.39 1916.92 1450.39 Z" fill="#000000" fill-rule="nonzero" fill-opacity="1" /><path clip-path="url(#clip390)" d="M1937.08 1479.7 L1941.96 1479.7 L1941.96 1485.58 L1937.08 1485.58 L1937.08 1479.7 Z" fill="#000000" fill-rule="nonzero" fill-opacity="1" /><path clip-path="url(#clip390)" d="M1962.15 1454.1 Q1958.54 1454.1 1956.71 1457.66 Q1954.9 1461.2 1954.9 1468.33 Q1954.9 1475.44 1956.71 1479.01 Q1958.54 1482.55 1962.15 1482.55 Q1965.78 1482.55 1967.59 1479.01 Q1969.42 1475.44 1969.42 1468.33 Q1969.42 1461.2 1967.59 1457.66 Q1965.78 1454.1 1962.15 1454.1 M1962.15 1450.39 Q1967.96 1450.39 1971.01 1455 Q1974.09 1459.58 1974.09 1468.33 Q1974.09 1477.06 1971.01 1481.67 Q1967.96 1486.25 1962.15 1486.25 Q1956.34 1486.25 1953.26 1481.67 Q1950.2 1477.06 1950.2 1468.33 Q1950.2 1459.58 1953.26 1455 Q1956.34 1450.39 1962.15 1450.39 Z" fill="#000000" fill-rule="nonzero" fill-opacity="1" /><path clip-path="url(#clip390)" d="M1996.48 1466.95 Q1999.83 1467.66 2001.71 1469.93 Q2003.6 1472.2 2003.6 1475.53 Q2003.6 1480.65 2000.09 1483.45 Q1996.57 1486.25 1990.09 1486.25 Q1987.91 1486.25 1985.6 1485.81 Q1983.3 1485.39 1980.85 1484.54 L1980.85 1480.02 Q1982.79 1481.16 1985.11 1481.74 Q1987.42 1482.32 1989.95 1482.32 Q1994.35 1482.32 1996.64 1480.58 Q1998.95 1478.84 1998.95 1475.53 Q1998.95 1472.48 1996.8 1470.77 Q1994.67 1469.03 1990.85 1469.03 L1986.82 1469.03 L1986.82 1465.19 L1991.04 1465.19 Q1994.48 1465.19 1996.31 1463.82 Q1998.14 1462.43 1998.14 1459.84 Q1998.14 1457.18 1996.24 1455.77 Q1994.37 1454.33 1990.85 1454.33 Q1988.93 1454.33 1986.73 1454.75 Q1984.53 1455.16 1981.89 1456.04 L1981.89 1451.88 Q1984.55 1451.14 1986.87 1450.77 Q1989.21 1450.39 1991.27 1450.39 Q1996.59 1450.39 1999.69 1452.83 Q2002.79 1455.23 2002.79 1459.35 Q2002.79 1462.22 2001.15 1464.21 Q1999.51 1466.18 1996.48 1466.95 Z" fill="#000000" fill-rule="nonzero" fill-opacity="1" /><path clip-path="url(#clip390)" d="M2022.47 1454.1 Q2018.86 1454.1 2017.03 1457.66 Q2015.23 1461.2 2015.23 1468.33 Q2015.23 1475.44 2017.03 1479.01 Q2018.86 1482.55 2022.47 1482.55 Q2026.1 1482.55 2027.91 1479.01 Q2029.74 1475.44 2029.74 1468.33 Q2029.74 1461.2 2027.91 1457.66 Q2026.1 1454.1 2022.47 1454.1 M2022.47 1450.39 Q2028.28 1450.39 2031.34 1455 Q2034.42 1459.58 2034.42 1468.33 Q2034.42 1477.06 2031.34 1481.67 Q2028.28 1486.25 2022.47 1486.25 Q2016.66 1486.25 2013.58 1481.67 Q2010.53 1477.06 2010.53 1468.33 Q2010.53 1459.58 2013.58 1455 Q2016.66 1450.39 2022.47 1450.39 Z" fill="#000000" fill-rule="nonzero" fill-opacity="1" /><path clip-path="url(#clip390)" d="M1020.87 1522.08 L1020.87 1528.35 Q1017.21 1526.6 1013.96 1525.74 Q1010.72 1524.88 1007.69 1524.88 Q1002.44 1524.88 999.578 1526.92 Q996.745 1528.96 996.745 1532.71 Q996.745 1535.87 998.623 1537.49 Q1000.53 1539.08 1005.82 1540.07 L1009.7 1540.86 Q1016.89 1542.23 1020.3 1545.7 Q1023.74 1549.14 1023.74 1554.93 Q1023.74 1561.84 1019.09 1565.4 Q1014.47 1568.97 1005.53 1568.97 Q1002.16 1568.97 998.336 1568.2 Q994.549 1567.44 990.475 1565.94 L990.475 1559.32 Q994.39 1561.52 998.145 1562.63 Q1001.9 1563.75 1005.53 1563.75 Q1011.04 1563.75 1014.03 1561.58 Q1017.02 1559.42 1017.02 1555.41 Q1017.02 1551.91 1014.86 1549.93 Q1012.72 1547.96 1007.82 1546.97 L1003.91 1546.21 Q996.713 1544.78 993.498 1541.72 Q990.284 1538.67 990.284 1533.22 Q990.284 1526.92 994.708 1523.29 Q999.164 1519.66 1006.96 1519.66 Q1010.3 1519.66 1013.77 1520.27 Q1017.24 1520.87 1020.87 1522.08 Z" fill="#000000" fill-rule="nonzero" fill-opacity="1" /><path clip-path="url(#clip390)" d="M1039.3 1522.27 L1039.3 1532.4 L1051.36 1532.4 L1051.36 1536.95 L1039.3 1536.95 L1039.3 1556.3 Q1039.3 1560.66 1040.48 1561.9 Q1041.69 1563.14 1045.35 1563.14 L1051.36 1563.14 L1051.36 1568.04 L1045.35 1568.04 Q1038.57 1568.04 1035.99 1565.53 Q1033.41 1562.98 1033.41 1556.3 L1033.41 1536.95 L1029.11 1536.95 L1029.11 1532.4 L1033.41 1532.4 L1033.41 1522.27 L1039.3 1522.27 Z" fill="#000000" fill-rule="nonzero" fill-opacity="1" /><path clip-path="url(#clip390)" d="M1075.27 1550.12 Q1068.17 1550.12 1065.43 1551.75 Q1062.69 1553.37 1062.69 1557.29 Q1062.69 1560.4 1064.73 1562.25 Q1066.8 1564.07 1070.33 1564.07 Q1075.2 1564.07 1078.13 1560.63 Q1081.09 1557.16 1081.09 1551.43 L1081.09 1550.12 L1075.27 1550.12 M1086.95 1547.71 L1086.95 1568.04 L1081.09 1568.04 L1081.09 1562.63 Q1079.09 1565.88 1076.09 1567.44 Q1073.1 1568.97 1068.77 1568.97 Q1063.3 1568.97 1060.05 1565.91 Q1056.84 1562.82 1056.84 1557.67 Q1056.84 1551.65 1060.85 1548.6 Q1064.89 1545.54 1072.88 1545.54 L1081.09 1545.54 L1081.09 1544.97 Q1081.09 1540.93 1078.42 1538.73 Q1075.78 1536.5 1070.97 1536.5 Q1067.91 1536.5 1065.02 1537.23 Q1062.12 1537.97 1059.45 1539.43 L1059.45 1534.02 Q1062.66 1532.78 1065.69 1532.17 Q1068.71 1531.54 1071.57 1531.54 Q1079.31 1531.54 1083.13 1535.55 Q1086.95 1539.56 1086.95 1547.71 Z" fill="#000000" fill-rule="nonzero" fill-opacity="1" /><path clip-path="url(#clip390)" d="M1128.64 1546.53 L1128.64 1568.04 L1122.79 1568.04 L1122.79 1546.72 Q1122.79 1541.66 1120.81 1539.14 Q1118.84 1536.63 1114.89 1536.63 Q1110.15 1536.63 1107.41 1539.65 Q1104.68 1542.68 1104.68 1547.9 L1104.68 1568.04 L1098.79 1568.04 L1098.79 1532.4 L1104.68 1532.4 L1104.68 1537.93 Q1106.78 1534.72 1109.61 1533.13 Q1112.47 1531.54 1116.2 1531.54 Q1122.34 1531.54 1125.49 1535.36 Q1128.64 1539.14 1128.64 1546.53 Z" fill="#000000" fill-rule="nonzero" fill-opacity="1" /><path clip-path="url(#clip390)" d="M1163.78 1537.81 L1163.78 1518.52 L1169.64 1518.52 L1169.64 1568.04 L1163.78 1568.04 L1163.78 1562.7 Q1161.94 1565.88 1159.1 1567.44 Q1156.3 1568.97 1152.35 1568.97 Q1145.89 1568.97 1141.82 1563.81 Q1137.78 1558.65 1137.78 1550.25 Q1137.78 1541.85 1141.82 1536.69 Q1145.89 1531.54 1152.35 1531.54 Q1156.3 1531.54 1159.1 1533.1 Q1161.94 1534.62 1163.78 1537.81 M1143.82 1550.25 Q1143.82 1556.71 1146.47 1560.4 Q1149.14 1564.07 1153.79 1564.07 Q1158.43 1564.07 1161.11 1560.4 Q1163.78 1556.71 1163.78 1550.25 Q1163.78 1543.79 1161.11 1540.13 Q1158.43 1536.44 1153.79 1536.44 Q1149.14 1536.44 1146.47 1540.13 Q1143.82 1543.79 1143.82 1550.25 Z" fill="#000000" fill-rule="nonzero" fill-opacity="1" /><path clip-path="url(#clip390)" d="M1197.9 1550.12 Q1190.8 1550.12 1188.07 1551.75 Q1185.33 1553.37 1185.33 1557.29 Q1185.33 1560.4 1187.37 1562.25 Q1189.43 1564.07 1192.97 1564.07 Q1197.84 1564.07 1200.77 1560.63 Q1203.73 1557.16 1203.73 1551.43 L1203.73 1550.12 L1197.9 1550.12 M1209.58 1547.71 L1209.58 1568.04 L1203.73 1568.04 L1203.73 1562.63 Q1201.72 1565.88 1198.73 1567.44 Q1195.74 1568.97 1191.41 1568.97 Q1185.93 1568.97 1182.69 1565.91 Q1179.47 1562.82 1179.47 1557.67 Q1179.47 1551.65 1183.48 1548.6 Q1187.53 1545.54 1195.51 1545.54 L1203.73 1545.54 L1203.73 1544.97 Q1203.73 1540.93 1201.05 1538.73 Q1198.41 1536.5 1193.6 1536.5 Q1190.55 1536.5 1187.65 1537.23 Q1184.76 1537.97 1182.08 1539.43 L1182.08 1534.02 Q1185.3 1532.78 1188.32 1532.17 Q1191.34 1531.54 1194.21 1531.54 Q1201.94 1531.54 1205.76 1535.55 Q1209.58 1539.56 1209.58 1547.71 Z" fill="#000000" fill-rule="nonzero" fill-opacity="1" /><path clip-path="url(#clip390)" d="M1242.3 1537.87 Q1241.32 1537.3 1240.14 1537.04 Q1238.99 1536.76 1237.59 1536.76 Q1232.63 1536.76 1229.95 1540 Q1227.31 1543.22 1227.31 1549.27 L1227.31 1568.04 L1221.42 1568.04 L1221.42 1532.4 L1227.31 1532.4 L1227.31 1537.93 Q1229.16 1534.69 1232.12 1533.13 Q1235.08 1531.54 1239.31 1531.54 Q1239.91 1531.54 1240.65 1531.63 Q1241.38 1531.7 1242.27 1531.85 L1242.3 1537.87 Z" fill="#000000" fill-rule="nonzero" fill-opacity="1" /><path clip-path="url(#clip390)" d="M1270.76 1537.81 L1270.76 1518.52 L1276.61 1518.52 L1276.61 1568.04 L1270.76 1568.04 L1270.76 1562.7 Q1268.91 1565.88 1266.08 1567.44 Q1263.28 1568.97 1259.33 1568.97 Q1252.87 1568.97 1248.8 1563.81 Q1244.75 1558.65 1244.75 1550.25 Q1244.75 1541.85 1248.8 1536.69 Q1252.87 1531.54 1259.33 1531.54 Q1263.28 1531.54 1266.08 1533.1 Q1268.91 1534.62 1270.76 1537.81 M1250.8 1550.25 Q1250.8 1556.71 1253.44 1560.4 Q1256.12 1564.07 1260.76 1564.07 Q1265.41 1564.07 1268.08 1560.4 Q1270.76 1556.71 1270.76 1550.25 Q1270.76 1543.79 1268.08 1540.13 Q1265.41 1536.44 1260.76 1536.44 Q1256.12 1536.44 1253.44 1540.13 Q1250.8 1543.79 1250.8 1550.25 Z" fill="#000000" fill-rule="nonzero" fill-opacity="1" /><path clip-path="url(#clip390)" d="M1316.08 1525.81 L1316.08 1562.76 L1323.85 1562.76 Q1333.68 1562.76 1338.23 1558.3 Q1342.82 1553.85 1342.82 1544.24 Q1342.82 1534.69 1338.23 1530.26 Q1333.68 1525.81 1323.85 1525.81 L1316.08 1525.81 M1309.65 1520.52 L1322.86 1520.52 Q1336.67 1520.52 1343.13 1526.28 Q1349.6 1532.01 1349.6 1544.24 Q1349.6 1556.52 1343.1 1562.28 Q1336.61 1568.04 1322.86 1568.04 L1309.65 1568.04 L1309.65 1520.52 Z" fill="#000000" fill-rule="nonzero" fill-opacity="1" /><path clip-path="url(#clip390)" d="M1390.08 1548.76 L1390.08 1551.62 L1363.16 1551.62 Q1363.54 1557.67 1366.78 1560.85 Q1370.06 1564 1375.89 1564 Q1379.26 1564 1382.41 1563.17 Q1385.59 1562.35 1388.71 1560.69 L1388.71 1566.23 Q1385.56 1567.57 1382.25 1568.27 Q1378.94 1568.97 1375.54 1568.97 Q1367.01 1568.97 1362.01 1564 Q1357.04 1559.04 1357.04 1550.57 Q1357.04 1541.82 1361.75 1536.69 Q1366.5 1531.54 1374.52 1531.54 Q1381.71 1531.54 1385.88 1536.18 Q1390.08 1540.8 1390.08 1548.76 M1384.23 1547.04 Q1384.16 1542.23 1381.52 1539.37 Q1378.91 1536.5 1374.58 1536.5 Q1369.68 1536.5 1366.72 1539.27 Q1363.79 1542.04 1363.35 1547.07 L1384.23 1547.04 Z" fill="#000000" fill-rule="nonzero" fill-opacity="1" /><path clip-path="url(#clip390)" d="M1395.49 1532.4 L1401.7 1532.4 L1412.84 1562.31 L1423.98 1532.4 L1430.19 1532.4 L1416.82 1568.04 L1408.86 1568.04 L1395.49 1532.4 Z" fill="#000000" fill-rule="nonzero" fill-opacity="1" /><path clip-path="url(#clip390)" d="M1438.27 1532.4 L1444.13 1532.4 L1444.13 1568.04 L1438.27 1568.04 L1438.27 1532.4 M1438.27 1518.52 L1444.13 1518.52 L1444.13 1525.93 L1438.27 1525.93 L1438.27 1518.52 Z" fill="#000000" fill-rule="nonzero" fill-opacity="1" /><path clip-path="url(#clip390)" d="M1472.58 1550.12 Q1465.48 1550.12 1462.75 1551.75 Q1460.01 1553.37 1460.01 1557.29 Q1460.01 1560.4 1462.05 1562.25 Q1464.12 1564.07 1467.65 1564.07 Q1472.52 1564.07 1475.45 1560.63 Q1478.41 1557.16 1478.41 1551.43 L1478.41 1550.12 L1472.58 1550.12 M1484.26 1547.71 L1484.26 1568.04 L1478.41 1568.04 L1478.41 1562.63 Q1476.4 1565.88 1473.41 1567.44 Q1470.42 1568.97 1466.09 1568.97 Q1460.61 1568.97 1457.37 1565.91 Q1454.15 1562.82 1454.15 1557.67 Q1454.15 1551.65 1458.16 1548.6 Q1462.21 1545.54 1470.19 1545.54 L1478.41 1545.54 L1478.41 1544.97 Q1478.41 1540.93 1475.73 1538.73 Q1473.09 1536.5 1468.28 1536.5 Q1465.23 1536.5 1462.33 1537.23 Q1459.44 1537.97 1456.76 1539.43 L1456.76 1534.02 Q1459.98 1532.78 1463 1532.17 Q1466.02 1531.54 1468.89 1531.54 Q1476.62 1531.54 1480.44 1535.55 Q1484.26 1539.56 1484.26 1547.71 Z" fill="#000000" fill-rule="nonzero" fill-opacity="1" /><path clip-path="url(#clip390)" d="M1502.12 1522.27 L1502.12 1532.4 L1514.18 1532.4 L1514.18 1536.95 L1502.12 1536.95 L1502.12 1556.3 Q1502.12 1560.66 1503.3 1561.9 Q1504.51 1563.14 1508.17 1563.14 L1514.18 1563.14 L1514.18 1568.04 L1508.17 1568.04 Q1501.39 1568.04 1498.81 1565.53 Q1496.23 1562.98 1496.23 1556.3 L1496.23 1536.95 L1491.93 1536.95 L1491.93 1532.4 L1496.23 1532.4 L1496.23 1522.27 L1502.12 1522.27 Z" fill="#000000" fill-rule="nonzero" fill-opacity="1" /><path clip-path="url(#clip390)" d="M1521.88 1532.4 L1527.74 1532.4 L1527.74 1568.04 L1521.88 1568.04 L1521.88 1532.4 M1521.88 1518.52 L1527.74 1518.52 L1527.74 1525.93 L1521.88 1525.93 L1521.88 1518.52 Z" fill="#000000" fill-rule="nonzero" fill-opacity="1" /><path clip-path="url(#clip390)" d="M1553.81 1536.5 Q1549.1 1536.5 1546.36 1540.19 Q1543.62 1543.85 1543.62 1550.25 Q1543.62 1556.65 1546.33 1560.34 Q1549.07 1564 1553.81 1564 Q1558.49 1564 1561.22 1560.31 Q1563.96 1556.62 1563.96 1550.25 Q1563.96 1543.92 1561.22 1540.23 Q1558.49 1536.5 1553.81 1536.5 M1553.81 1531.54 Q1561.45 1531.54 1565.81 1536.5 Q1570.17 1541.47 1570.17 1550.25 Q1570.17 1559 1565.81 1564 Q1561.45 1568.97 1553.81 1568.97 Q1546.14 1568.97 1541.78 1564 Q1537.45 1559 1537.45 1550.25 Q1537.45 1541.47 1541.78 1536.5 Q1546.14 1531.54 1553.81 1531.54 Z" fill="#000000" fill-rule="nonzero" fill-opacity="1" /><path clip-path="url(#clip390)" d="M1609.51 1546.53 L1609.51 1568.04 L1603.65 1568.04 L1603.65 1546.72 Q1603.65 1541.66 1601.68 1539.14 Q1599.7 1536.63 1595.76 1536.63 Q1591.02 1536.63 1588.28 1539.65 Q1585.54 1542.68 1585.54 1547.9 L1585.54 1568.04 L1579.65 1568.04 L1579.65 1532.4 L1585.54 1532.4 L1585.54 1537.93 Q1587.64 1534.72 1590.47 1533.13 Q1593.34 1531.54 1597.06 1531.54 Q1603.21 1531.54 1606.36 1535.36 Q1609.51 1539.14 1609.51 1546.53 Z" fill="#000000" fill-rule="nonzero" fill-opacity="1" /><polyline clip-path="url(#clip390)" style="stroke:#000000; stroke-linecap:round; stroke-linejoin:round; stroke-width:4; stroke-opacity:1; fill:none" points="310.028,1423.18 310.028,123.472 "/>
<polyline clip-path="url(#clip390)" style="stroke:#000000; stroke-linecap:round; stroke-linejoin:round; stroke-width:4; stroke-opacity:1; fill:none" points="310.028,1414.11 328.925,1414.11 "/>
<polyline clip-path="url(#clip390)" style="stroke:#000000; stroke-linecap:round; stroke-linejoin:round; stroke-width:4; stroke-opacity:1; fill:none" points="310.028,1078.56 328.925,1078.56 "/>
<polyline clip-path="url(#clip390)" style="stroke:#000000; stroke-linecap:round; stroke-linejoin:round; stroke-width:4; stroke-opacity:1; fill:none" points="310.028,743.007 328.925,743.007 "/>
<polyline clip-path="url(#clip390)" style="stroke:#000000; stroke-linecap:round; stroke-linejoin:round; stroke-width:4; stroke-opacity:1; fill:none" points="310.028,407.455 328.925,407.455 "/>
<path clip-path="url(#clip390)" d="M126.205 1399.91 Q122.593 1399.91 120.765 1403.47 Q118.959 1407.02 118.959 1414.14 Q118.959 1421.25 120.765 1424.82 Q122.593 1428.36 126.205 1428.36 Q129.839 1428.36 131.644 1424.82 Q133.473 1421.25 133.473 1414.14 Q133.473 1407.02 131.644 1403.47 Q129.839 1399.91 126.205 1399.91 M126.205 1396.21 Q132.015 1396.21 135.07 1400.81 Q138.149 1405.39 138.149 1414.14 Q138.149 1422.87 135.07 1427.48 Q132.015 1432.06 126.205 1432.06 Q120.394 1432.06 117.316 1427.48 Q114.26 1422.87 114.26 1414.14 Q114.26 1405.39 117.316 1400.81 Q120.394 1396.21 126.205 1396.21 Z" fill="#000000" fill-rule="nonzero" fill-opacity="1" /><path clip-path="url(#clip390)" d="M146.366 1425.51 L151.251 1425.51 L151.251 1431.39 L146.366 1431.39 L146.366 1425.51 Z" fill="#000000" fill-rule="nonzero" fill-opacity="1" /><path clip-path="url(#clip390)" d="M171.436 1399.91 Q167.825 1399.91 165.996 1403.47 Q164.19 1407.02 164.19 1414.14 Q164.19 1421.25 165.996 1424.82 Q167.825 1428.36 171.436 1428.36 Q175.07 1428.36 176.876 1424.82 Q178.704 1421.25 178.704 1414.14 Q178.704 1407.02 176.876 1403.47 Q175.07 1399.91 171.436 1399.91 M171.436 1396.21 Q177.246 1396.21 180.301 1400.81 Q183.38 1405.39 183.38 1414.14 Q183.38 1422.87 180.301 1427.48 Q177.246 1432.06 171.436 1432.06 Q165.626 1432.06 162.547 1427.48 Q159.491 1422.87 159.491 1414.14 Q159.491 1405.39 162.547 1400.81 Q165.626 1396.21 171.436 1396.21 Z" fill="#000000" fill-rule="nonzero" fill-opacity="1" /><path clip-path="url(#clip390)" d="M201.598 1399.91 Q197.987 1399.91 196.158 1403.47 Q194.352 1407.02 194.352 1414.14 Q194.352 1421.25 196.158 1424.82 Q197.987 1428.36 201.598 1428.36 Q205.232 1428.36 207.037 1424.82 Q208.866 1421.25 208.866 1414.14 Q208.866 1407.02 207.037 1403.47 Q205.232 1399.91 201.598 1399.91 M201.598 1396.21 Q207.408 1396.21 210.463 1400.81 Q213.542 1405.39 213.542 1414.14 Q213.542 1422.87 210.463 1427.48 Q207.408 1432.06 201.598 1432.06 Q195.787 1432.06 192.709 1427.48 Q189.653 1422.87 189.653 1414.14 Q189.653 1405.39 192.709 1400.81 Q195.787 1396.21 201.598 1396.21 Z" fill="#000000" fill-rule="nonzero" fill-opacity="1" /><path clip-path="url(#clip390)" d="M231.76 1399.91 Q228.148 1399.91 226.32 1403.47 Q224.514 1407.02 224.514 1414.14 Q224.514 1421.25 226.32 1424.82 Q228.148 1428.36 231.76 1428.36 Q235.394 1428.36 237.199 1424.82 Q239.028 1421.25 239.028 1414.14 Q239.028 1407.02 237.199 1403.47 Q235.394 1399.91 231.76 1399.91 M231.76 1396.21 Q237.57 1396.21 240.625 1400.81 Q243.704 1405.39 243.704 1414.14 Q243.704 1422.87 240.625 1427.48 Q237.57 1432.06 231.76 1432.06 Q225.949 1432.06 222.871 1427.48 Q219.815 1422.87 219.815 1414.14 Q219.815 1405.39 222.871 1400.81 Q225.949 1396.21 231.76 1396.21 Z" fill="#000000" fill-rule="nonzero" fill-opacity="1" /><path clip-path="url(#clip390)" d="M262.5 1412.25 Q259.352 1412.25 257.5 1414.4 Q255.671 1416.55 255.671 1420.3 Q255.671 1424.03 257.5 1426.21 Q259.352 1428.36 262.5 1428.36 Q265.648 1428.36 267.477 1426.21 Q269.329 1424.03 269.329 1420.3 Q269.329 1416.55 267.477 1414.4 Q265.648 1412.25 262.5 1412.25 M271.782 1397.59 L271.782 1401.85 Q270.023 1401.02 268.218 1400.58 Q266.435 1400.14 264.676 1400.14 Q260.046 1400.14 257.593 1403.27 Q255.162 1406.39 254.815 1412.71 Q256.181 1410.7 258.241 1409.63 Q260.301 1408.54 262.778 1408.54 Q267.986 1408.54 270.995 1411.71 Q274.028 1414.86 274.028 1420.3 Q274.028 1425.63 270.88 1428.84 Q267.732 1432.06 262.5 1432.06 Q256.505 1432.06 253.333 1427.48 Q250.162 1422.87 250.162 1414.14 Q250.162 1405.95 254.051 1401.09 Q257.94 1396.21 264.491 1396.21 Q266.25 1396.21 268.032 1396.55 Q269.838 1396.9 271.782 1397.59 Z" fill="#000000" fill-rule="nonzero" fill-opacity="1" /><path clip-path="url(#clip390)" d="M126.459 1064.36 Q122.848 1064.36 121.019 1067.92 Q119.214 1071.46 119.214 1078.59 Q119.214 1085.7 121.019 1089.26 Q122.848 1092.81 126.459 1092.81 Q130.093 1092.81 131.899 1089.26 Q133.728 1085.7 133.728 1078.59 Q133.728 1071.46 131.899 1067.92 Q130.093 1064.36 126.459 1064.36 M126.459 1060.65 Q132.269 1060.65 135.325 1065.26 Q138.404 1069.84 138.404 1078.59 Q138.404 1087.32 135.325 1091.93 Q132.269 1096.51 126.459 1096.51 Q120.649 1096.51 117.57 1091.93 Q114.515 1087.32 114.515 1078.59 Q114.515 1069.84 117.57 1065.26 Q120.649 1060.65 126.459 1060.65 Z" fill="#000000" fill-rule="nonzero" fill-opacity="1" /><path clip-path="url(#clip390)" d="M146.621 1089.96 L151.505 1089.96 L151.505 1095.84 L146.621 1095.84 L146.621 1089.96 Z" fill="#000000" fill-rule="nonzero" fill-opacity="1" /><path clip-path="url(#clip390)" d="M171.69 1064.36 Q168.079 1064.36 166.251 1067.92 Q164.445 1071.46 164.445 1078.59 Q164.445 1085.7 166.251 1089.26 Q168.079 1092.81 171.69 1092.81 Q175.325 1092.81 177.13 1089.26 Q178.959 1085.7 178.959 1078.59 Q178.959 1071.46 177.13 1067.92 Q175.325 1064.36 171.69 1064.36 M171.69 1060.65 Q177.501 1060.65 180.556 1065.26 Q183.635 1069.84 183.635 1078.59 Q183.635 1087.32 180.556 1091.93 Q177.501 1096.51 171.69 1096.51 Q165.88 1096.51 162.802 1091.93 Q159.746 1087.32 159.746 1078.59 Q159.746 1069.84 162.802 1065.26 Q165.88 1060.65 171.69 1060.65 Z" fill="#000000" fill-rule="nonzero" fill-opacity="1" /><path clip-path="url(#clip390)" d="M201.852 1064.36 Q198.241 1064.36 196.412 1067.92 Q194.607 1071.46 194.607 1078.59 Q194.607 1085.7 196.412 1089.26 Q198.241 1092.81 201.852 1092.81 Q205.487 1092.81 207.292 1089.26 Q209.121 1085.7 209.121 1078.59 Q209.121 1071.46 207.292 1067.92 Q205.487 1064.36 201.852 1064.36 M201.852 1060.65 Q207.662 1060.65 210.718 1065.26 Q213.797 1069.84 213.797 1078.59 Q213.797 1087.32 210.718 1091.93 Q207.662 1096.51 201.852 1096.51 Q196.042 1096.51 192.963 1091.93 Q189.908 1087.32 189.908 1078.59 Q189.908 1069.84 192.963 1065.26 Q196.042 1060.65 201.852 1060.65 Z" fill="#000000" fill-rule="nonzero" fill-opacity="1" /><path clip-path="url(#clip390)" d="M232.014 1064.36 Q228.403 1064.36 226.574 1067.92 Q224.769 1071.46 224.769 1078.59 Q224.769 1085.7 226.574 1089.26 Q228.403 1092.81 232.014 1092.81 Q235.648 1092.81 237.454 1089.26 Q239.283 1085.7 239.283 1078.59 Q239.283 1071.46 237.454 1067.92 Q235.648 1064.36 232.014 1064.36 M232.014 1060.65 Q237.824 1060.65 240.88 1065.26 Q243.959 1069.84 243.959 1078.59 Q243.959 1087.32 240.88 1091.93 Q237.824 1096.51 232.014 1096.51 Q226.204 1096.51 223.125 1091.93 Q220.07 1087.32 220.07 1078.59 Q220.07 1069.84 223.125 1065.26 Q226.204 1060.65 232.014 1060.65 Z" fill="#000000" fill-rule="nonzero" fill-opacity="1" /><path clip-path="url(#clip390)" d="M262.176 1079.43 Q258.843 1079.43 256.921 1081.21 Q255.023 1082.99 255.023 1086.12 Q255.023 1089.24 256.921 1091.02 Q258.843 1092.81 262.176 1092.81 Q265.509 1092.81 267.431 1091.02 Q269.352 1089.22 269.352 1086.12 Q269.352 1082.99 267.431 1081.21 Q265.532 1079.43 262.176 1079.43 M257.5 1077.44 Q254.491 1076.7 252.801 1074.63 Q251.134 1072.57 251.134 1069.61 Q251.134 1065.47 254.074 1063.06 Q257.037 1060.65 262.176 1060.65 Q267.338 1060.65 270.278 1063.06 Q273.218 1065.47 273.218 1069.61 Q273.218 1072.57 271.528 1074.63 Q269.861 1076.7 266.875 1077.44 Q270.255 1078.22 272.13 1080.51 Q274.028 1082.81 274.028 1086.12 Q274.028 1091.14 270.949 1093.82 Q267.894 1096.51 262.176 1096.51 Q256.458 1096.51 253.38 1093.82 Q250.324 1091.14 250.324 1086.12 Q250.324 1082.81 252.222 1080.51 Q254.121 1078.22 257.5 1077.44 M255.787 1070.05 Q255.787 1072.74 257.454 1074.24 Q259.144 1075.75 262.176 1075.75 Q265.185 1075.75 266.875 1074.24 Q268.588 1072.74 268.588 1070.05 Q268.588 1067.37 266.875 1065.86 Q265.185 1064.36 262.176 1064.36 Q259.144 1064.36 257.454 1065.86 Q255.787 1067.37 255.787 1070.05 Z" fill="#000000" fill-rule="nonzero" fill-opacity="1" /><path clip-path="url(#clip390)" d="M126.367 728.805 Q122.755 728.805 120.927 732.37 Q119.121 735.912 119.121 743.041 Q119.121 750.148 120.927 753.713 Q122.755 757.254 126.367 757.254 Q130.001 757.254 131.806 753.713 Q133.635 750.148 133.635 743.041 Q133.635 735.912 131.806 732.37 Q130.001 728.805 126.367 728.805 M126.367 725.102 Q132.177 725.102 135.232 729.708 Q138.311 734.291 138.311 743.041 Q138.311 751.768 135.232 756.375 Q132.177 760.958 126.367 760.958 Q120.556 760.958 117.478 756.375 Q114.422 751.768 114.422 743.041 Q114.422 734.291 117.478 729.708 Q120.556 725.102 126.367 725.102 Z" fill="#000000" fill-rule="nonzero" fill-opacity="1" /><path clip-path="url(#clip390)" d="M146.529 754.407 L151.413 754.407 L151.413 760.287 L146.529 760.287 L146.529 754.407 Z" fill="#000000" fill-rule="nonzero" fill-opacity="1" /><path clip-path="url(#clip390)" d="M171.598 728.805 Q167.987 728.805 166.158 732.37 Q164.352 735.912 164.352 743.041 Q164.352 750.148 166.158 753.713 Q167.987 757.254 171.598 757.254 Q175.232 757.254 177.038 753.713 Q178.866 750.148 178.866 743.041 Q178.866 735.912 177.038 732.37 Q175.232 728.805 171.598 728.805 M171.598 725.102 Q177.408 725.102 180.464 729.708 Q183.542 734.291 183.542 743.041 Q183.542 751.768 180.464 756.375 Q177.408 760.958 171.598 760.958 Q165.788 760.958 162.709 756.375 Q159.653 751.768 159.653 743.041 Q159.653 734.291 162.709 729.708 Q165.788 725.102 171.598 725.102 Z" fill="#000000" fill-rule="nonzero" fill-opacity="1" /><path clip-path="url(#clip390)" d="M201.76 728.805 Q198.149 728.805 196.32 732.37 Q194.514 735.912 194.514 743.041 Q194.514 750.148 196.32 753.713 Q198.149 757.254 201.76 757.254 Q205.394 757.254 207.199 753.713 Q209.028 750.148 209.028 743.041 Q209.028 735.912 207.199 732.37 Q205.394 728.805 201.76 728.805 M201.76 725.102 Q207.57 725.102 210.625 729.708 Q213.704 734.291 213.704 743.041 Q213.704 751.768 210.625 756.375 Q207.57 760.958 201.76 760.958 Q195.95 760.958 192.871 756.375 Q189.815 751.768 189.815 743.041 Q189.815 734.291 192.871 729.708 Q195.95 725.102 201.76 725.102 Z" fill="#000000" fill-rule="nonzero" fill-opacity="1" /><path clip-path="url(#clip390)" d="M222.732 756.352 L230.371 756.352 L230.371 729.986 L222.061 731.653 L222.061 727.393 L230.324 725.727 L235 725.727 L235 756.352 L242.639 756.352 L242.639 760.287 L222.732 760.287 L222.732 756.352 Z" fill="#000000" fill-rule="nonzero" fill-opacity="1" /><path clip-path="url(#clip390)" d="M262.083 728.805 Q258.472 728.805 256.644 732.37 Q254.838 735.912 254.838 743.041 Q254.838 750.148 256.644 753.713 Q258.472 757.254 262.083 757.254 Q265.718 757.254 267.523 753.713 Q269.352 750.148 269.352 743.041 Q269.352 735.912 267.523 732.37 Q265.718 728.805 262.083 728.805 M262.083 725.102 Q267.894 725.102 270.949 729.708 Q274.028 734.291 274.028 743.041 Q274.028 751.768 270.949 756.375 Q267.894 760.958 262.083 760.958 Q256.273 760.958 253.195 756.375 Q250.139 751.768 250.139 743.041 Q250.139 734.291 253.195 729.708 Q256.273 725.102 262.083 725.102 Z" fill="#000000" fill-rule="nonzero" fill-opacity="1" /><path clip-path="url(#clip390)" d="M127.964 393.254 Q124.353 393.254 122.524 396.818 Q120.718 400.36 120.718 407.49 Q120.718 414.596 122.524 418.161 Q124.353 421.703 127.964 421.703 Q131.598 421.703 133.404 418.161 Q135.232 414.596 135.232 407.49 Q135.232 400.36 133.404 396.818 Q131.598 393.254 127.964 393.254 M127.964 389.55 Q133.774 389.55 136.829 394.156 Q139.908 398.74 139.908 407.49 Q139.908 416.216 136.829 420.823 Q133.774 425.406 127.964 425.406 Q122.154 425.406 119.075 420.823 Q116.019 416.216 116.019 407.49 Q116.019 398.74 119.075 394.156 Q122.154 389.55 127.964 389.55 Z" fill="#000000" fill-rule="nonzero" fill-opacity="1" /><path clip-path="url(#clip390)" d="M148.126 418.855 L153.01 418.855 L153.01 424.735 L148.126 424.735 L148.126 418.855 Z" fill="#000000" fill-rule="nonzero" fill-opacity="1" /><path clip-path="url(#clip390)" d="M173.195 393.254 Q169.584 393.254 167.755 396.818 Q165.95 400.36 165.95 407.49 Q165.95 414.596 167.755 418.161 Q169.584 421.703 173.195 421.703 Q176.829 421.703 178.635 418.161 Q180.464 414.596 180.464 407.49 Q180.464 400.36 178.635 396.818 Q176.829 393.254 173.195 393.254 M173.195 389.55 Q179.005 389.55 182.061 394.156 Q185.139 398.74 185.139 407.49 Q185.139 416.216 182.061 420.823 Q179.005 425.406 173.195 425.406 Q167.385 425.406 164.306 420.823 Q161.251 416.216 161.251 407.49 Q161.251 398.74 164.306 394.156 Q167.385 389.55 173.195 389.55 Z" fill="#000000" fill-rule="nonzero" fill-opacity="1" /><path clip-path="url(#clip390)" d="M203.357 393.254 Q199.746 393.254 197.917 396.818 Q196.112 400.36 196.112 407.49 Q196.112 414.596 197.917 418.161 Q199.746 421.703 203.357 421.703 Q206.991 421.703 208.797 418.161 Q210.625 414.596 210.625 407.49 Q210.625 400.36 208.797 396.818 Q206.991 393.254 203.357 393.254 M203.357 389.55 Q209.167 389.55 212.223 394.156 Q215.301 398.74 215.301 407.49 Q215.301 416.216 212.223 420.823 Q209.167 425.406 203.357 425.406 Q197.547 425.406 194.468 420.823 Q191.413 416.216 191.413 407.49 Q191.413 398.74 194.468 394.156 Q197.547 389.55 203.357 389.55 Z" fill="#000000" fill-rule="nonzero" fill-opacity="1" /><path clip-path="url(#clip390)" d="M224.329 420.8 L231.968 420.8 L231.968 394.434 L223.658 396.101 L223.658 391.842 L231.922 390.175 L236.597 390.175 L236.597 420.8 L244.236 420.8 L244.236 424.735 L224.329 424.735 L224.329 420.8 Z" fill="#000000" fill-rule="nonzero" fill-opacity="1" /><path clip-path="url(#clip390)" d="M257.708 420.8 L274.028 420.8 L274.028 424.735 L252.083 424.735 L252.083 420.8 Q254.746 418.045 259.329 413.416 Q263.935 408.763 265.116 407.42 Q267.361 404.897 268.241 403.161 Q269.144 401.402 269.144 399.712 Q269.144 396.957 267.199 395.221 Q265.278 393.485 262.176 393.485 Q259.977 393.485 257.523 394.249 Q255.093 395.013 252.315 396.564 L252.315 391.842 Q255.139 390.707 257.593 390.129 Q260.046 389.55 262.083 389.55 Q267.454 389.55 270.648 392.235 Q273.843 394.92 273.843 399.411 Q273.843 401.541 273.032 403.462 Q272.245 405.36 270.139 407.953 Q269.56 408.624 266.458 411.841 Q263.357 415.036 257.708 420.8 Z" fill="#000000" fill-rule="nonzero" fill-opacity="1" /><path clip-path="url(#clip390)" d="M16.4842 974.673 L16.4842 965.093 L48.8219 952.966 L16.4842 940.776 L16.4842 931.196 L64.0042 931.196 L64.0042 937.466 L22.277 937.466 L54.8694 949.72 L54.8694 956.181 L22.277 968.435 L64.0042 968.435 L64.0042 974.673 L16.4842 974.673 Z" fill="#000000" fill-rule="nonzero" fill-opacity="1" /><path clip-path="url(#clip390)" d="M44.7161 888.195 L47.5806 888.195 L47.5806 915.122 Q53.6281 914.74 56.8109 911.494 Q59.9619 908.215 59.9619 902.391 Q59.9619 899.017 59.1344 895.866 Q58.3069 892.683 56.6518 889.564 L62.1899 889.564 Q63.5267 892.715 64.227 896.025 Q64.9272 899.335 64.9272 902.741 Q64.9272 911.271 59.9619 916.268 Q54.9967 921.233 46.5303 921.233 Q37.7774 921.233 32.6531 916.523 Q27.4968 911.78 27.4968 903.759 Q27.4968 896.566 32.1438 892.397 Q36.7589 888.195 44.7161 888.195 M42.9973 894.052 Q38.1912 894.115 35.3266 896.757 Q32.4621 899.367 32.4621 903.696 Q32.4621 908.597 35.2312 911.557 Q38.0002 914.486 43.0292 914.931 L42.9973 894.052 Z" fill="#000000" fill-rule="nonzero" fill-opacity="1" /><path clip-path="url(#clip390)" d="M46.0847 862.382 Q46.0847 869.48 47.7079 872.217 Q49.3312 874.954 53.2461 874.954 Q56.3653 874.954 58.2114 872.917 Q60.0256 870.849 60.0256 867.316 Q60.0256 862.446 56.5881 859.518 Q53.1188 856.558 47.3897 856.558 L46.0847 856.558 L46.0847 862.382 M43.6657 850.701 L64.0042 850.701 L64.0042 856.558 L58.5933 856.558 Q61.8398 858.563 63.3994 861.555 Q64.9272 864.547 64.9272 868.875 Q64.9272 874.35 61.8716 877.596 Q58.7843 880.811 53.6281 880.811 Q47.6125 880.811 44.5569 876.801 Q41.5014 872.758 41.5014 864.769 L41.5014 856.558 L40.9285 856.558 Q36.8862 856.558 34.6901 859.231 Q32.4621 861.873 32.4621 866.679 Q32.4621 869.735 33.1941 872.631 Q33.9262 875.527 35.3903 878.201 L29.9795 878.201 Q28.7381 874.986 28.1334 871.963 Q27.4968 868.939 27.4968 866.074 Q27.4968 858.34 31.5072 854.521 Q35.5176 850.701 43.6657 850.701 Z" fill="#000000" fill-rule="nonzero" fill-opacity="1" /><path clip-path="url(#clip390)" d="M42.4881 809.006 L64.0042 809.006 L64.0042 814.862 L42.679 814.862 Q37.6183 814.862 35.1038 816.836 Q32.5894 818.809 32.5894 822.756 Q32.5894 827.498 35.6131 830.235 Q38.6368 832.973 43.8567 832.973 L64.0042 832.973 L64.0042 838.861 L28.3562 838.861 L28.3562 832.973 L33.8944 832.973 Q30.6797 830.872 29.0883 828.039 Q27.4968 825.175 27.4968 821.451 Q27.4968 815.308 31.3163 812.157 Q35.1038 809.006 42.4881 809.006 Z" fill="#000000" fill-rule="nonzero" fill-opacity="1" /><path clip-path="url(#clip390)" d="M41.7242 753.815 Q42.4244 751.746 44.7161 749.805 Q47.0077 747.831 51.0181 745.858 L64.0042 739.333 L64.0042 746.24 L51.8138 752.319 Q47.0395 754.674 45.48 756.902 Q43.9204 759.099 43.9204 762.918 L43.9204 769.92 L64.0042 769.92 L64.0042 776.35 L16.4842 776.35 L16.4842 761.836 Q16.4842 753.688 19.8898 749.677 Q23.2955 745.667 30.1704 745.667 Q34.6582 745.667 37.6183 747.768 Q40.5784 749.837 41.7242 753.815 M21.7677 769.92 L38.6368 769.92 L38.6368 761.836 Q38.6368 757.189 36.5043 754.834 Q34.34 752.446 30.1704 752.446 Q26.0009 752.446 23.9002 754.834 Q21.7677 757.189 21.7677 761.836 L21.7677 769.92 Z" fill="#000000" fill-rule="nonzero" fill-opacity="1" /><path clip-path="url(#clip390)" d="M44.7161 703.749 L47.5806 703.749 L47.5806 730.676 Q53.6281 730.294 56.8109 727.047 Q59.9619 723.769 59.9619 717.944 Q59.9619 714.571 59.1344 711.419 Q58.3069 708.237 56.6518 705.117 L62.1899 705.117 Q63.5267 708.268 64.227 711.579 Q64.9272 714.889 64.9272 718.294 Q64.9272 726.824 59.9619 731.822 Q54.9967 736.787 46.5303 736.787 Q37.7774 736.787 32.6531 732.076 Q27.4968 727.334 27.4968 719.313 Q27.4968 712.12 32.1438 707.95 Q36.7589 703.749 44.7161 703.749 M42.9973 709.605 Q38.1912 709.669 35.3266 712.311 Q32.4621 714.921 32.4621 719.249 Q32.4621 724.151 35.2312 727.111 Q38.0002 730.039 43.0292 730.485 L42.9973 709.605 Z" fill="#000000" fill-rule="nonzero" fill-opacity="1" /><path clip-path="url(#clip390)" d="M18.2347 688.344 L28.3562 688.344 L28.3562 676.281 L32.9077 676.281 L32.9077 688.344 L52.2594 688.344 Q56.6199 688.344 57.8613 687.166 Q59.1026 685.957 59.1026 682.296 L59.1026 676.281 L64.0042 676.281 L64.0042 682.296 Q64.0042 689.076 61.4897 691.654 Q58.9434 694.232 52.2594 694.232 L32.9077 694.232 L32.9077 698.529 L28.3562 698.529 L28.3562 694.232 L18.2347 694.232 L18.2347 688.344 Z" fill="#000000" fill-rule="nonzero" fill-opacity="1" /><path clip-path="url(#clip390)" d="M49.9359 669.183 L28.3562 669.183 L28.3562 663.327 L49.7131 663.327 Q54.7739 663.327 57.3202 661.353 Q59.8346 659.38 59.8346 655.433 Q59.8346 650.691 56.8109 647.953 Q53.7872 645.184 48.5673 645.184 L28.3562 645.184 L28.3562 639.328 L64.0042 639.328 L64.0042 645.184 L58.5296 645.184 Q61.7762 647.317 63.3676 650.15 Q64.9272 652.95 64.9272 656.674 Q64.9272 662.817 61.1078 666 Q57.2883 669.183 49.9359 669.183 M27.4968 654.446 L27.4968 654.446 Z" fill="#000000" fill-rule="nonzero" fill-opacity="1" /><path clip-path="url(#clip390)" d="M33.8307 606.608 Q33.2578 607.595 33.0032 608.772 Q32.7167 609.918 32.7167 611.319 Q32.7167 616.284 35.9632 618.958 Q39.1779 621.599 45.2253 621.599 L64.0042 621.599 L64.0042 627.488 L28.3562 627.488 L28.3562 621.599 L33.8944 621.599 Q30.6479 619.753 29.0883 616.793 Q27.4968 613.833 27.4968 609.6 Q27.4968 608.995 27.5923 608.263 Q27.656 607.531 27.8151 606.64 L33.8307 606.608 Z" fill="#000000" fill-rule="nonzero" fill-opacity="1" /><path clip-path="url(#clip390)" d="M42.4881 571.979 L64.0042 571.979 L64.0042 577.835 L42.679 577.835 Q37.6183 577.835 35.1038 579.809 Q32.5894 581.782 32.5894 585.729 Q32.5894 590.471 35.6131 593.208 Q38.6368 595.946 43.8567 595.946 L64.0042 595.946 L64.0042 601.834 L28.3562 601.834 L28.3562 595.946 L33.8944 595.946 Q30.6797 593.845 29.0883 591.012 Q27.4968 588.148 27.4968 584.424 Q27.4968 578.281 31.3163 575.13 Q35.1038 571.979 42.4881 571.979 Z" fill="#000000" fill-rule="nonzero" fill-opacity="1" /><path clip-path="url(#clip390)" d="M1063.16 18.8205 L1063.16 41.5461 L1073.45 41.5461 Q1079.16 41.5461 1082.28 38.5889 Q1085.4 35.6318 1085.4 30.163 Q1085.4 24.7348 1082.28 21.7777 Q1079.16 18.8205 1073.45 18.8205 L1063.16 18.8205 M1054.98 12.096 L1073.45 12.096 Q1083.62 12.096 1088.8 16.714 Q1094.03 21.2916 1094.03 30.163 Q1094.03 39.1155 1088.8 43.6931 Q1083.62 48.2706 1073.45 48.2706 L1063.16 48.2706 L1063.16 72.576 L1054.98 72.576 L1054.98 12.096 Z" fill="#000000" fill-rule="nonzero" fill-opacity="1" /><path clip-path="url(#clip390)" d="M1121.57 49.7694 Q1112.54 49.7694 1109.06 51.8354 Q1105.57 53.9013 1105.57 58.8839 Q1105.57 62.8538 1108.17 65.2034 Q1110.8 67.5124 1115.3 67.5124 Q1121.49 67.5124 1125.22 63.1374 Q1128.99 58.7219 1128.99 51.4303 L1128.99 49.7694 L1121.57 49.7694 M1136.44 46.6907 L1136.44 72.576 L1128.99 72.576 L1128.99 65.6895 Q1126.44 69.8214 1122.63 71.8063 Q1118.82 73.7508 1113.31 73.7508 Q1106.34 73.7508 1102.21 69.8619 Q1098.12 65.9325 1098.12 59.3701 Q1098.12 51.7138 1103.22 47.825 Q1108.37 43.9361 1118.54 43.9361 L1128.99 43.9361 L1128.99 43.2069 Q1128.99 38.0623 1125.59 35.2672 Q1122.22 32.4315 1116.11 32.4315 Q1112.22 32.4315 1108.53 33.3632 Q1104.84 34.295 1101.44 36.1584 L1101.44 29.2718 Q1105.53 27.692 1109.38 26.9223 Q1113.23 26.1121 1116.88 26.1121 Q1126.72 26.1121 1131.58 31.2163 Q1136.44 36.3204 1136.44 46.6907 Z" fill="#000000" fill-rule="nonzero" fill-opacity="1" /><path clip-path="url(#clip390)" d="M1178.09 34.1734 Q1176.83 33.4443 1175.33 33.1202 Q1173.87 32.7556 1172.09 32.7556 Q1165.77 32.7556 1162.37 36.8875 Q1159.01 40.9789 1159.01 48.6757 L1159.01 72.576 L1151.51 72.576 L1151.51 27.2059 L1159.01 27.2059 L1159.01 34.2544 Q1161.35 30.1225 1165.12 28.1376 Q1168.89 26.1121 1174.28 26.1121 Q1175.05 26.1121 1175.98 26.2337 Q1176.91 26.3147 1178.04 26.5172 L1178.09 34.1734 Z" fill="#000000" fill-rule="nonzero" fill-opacity="1" /><path clip-path="url(#clip390)" d="M1222.89 48.0275 L1222.89 51.6733 L1188.62 51.6733 Q1189.1 59.3701 1193.24 63.421 Q1197.41 67.4314 1204.82 67.4314 Q1209.12 67.4314 1213.13 66.3781 Q1217.18 65.3249 1221.15 63.2184 L1221.15 70.267 Q1217.14 71.9684 1212.92 72.8596 Q1208.71 73.7508 1204.38 73.7508 Q1193.52 73.7508 1187.16 67.4314 Q1180.84 61.1119 1180.84 50.3365 Q1180.84 39.1965 1186.84 32.6746 Q1192.87 26.1121 1203.08 26.1121 Q1212.23 26.1121 1217.54 32.0264 Q1222.89 37.9003 1222.89 48.0275 M1215.43 45.84 Q1215.35 39.7232 1211.99 36.0774 Q1208.67 32.4315 1203.16 32.4315 Q1196.92 32.4315 1193.15 35.9558 Q1189.43 39.4801 1188.86 45.8805 L1215.43 45.84 Z" fill="#000000" fill-rule="nonzero" fill-opacity="1" /><path clip-path="url(#clip390)" d="M1242.49 14.324 L1242.49 27.2059 L1257.85 27.2059 L1257.85 32.9987 L1242.49 32.9987 L1242.49 57.6282 Q1242.49 63.1779 1243.99 64.7578 Q1245.53 66.3376 1250.19 66.3376 L1257.85 66.3376 L1257.85 72.576 L1250.19 72.576 Q1241.56 72.576 1238.28 69.3758 Q1235 66.1351 1235 57.6282 L1235 32.9987 L1229.53 32.9987 L1229.53 27.2059 L1235 27.2059 L1235 14.324 L1242.49 14.324 Z" fill="#000000" fill-rule="nonzero" fill-opacity="1" /><path clip-path="url(#clip390)" d="M1285.23 32.4315 Q1279.24 32.4315 1275.75 37.1306 Q1272.27 41.7891 1272.27 49.9314 Q1272.27 58.0738 1275.71 62.7728 Q1279.2 67.4314 1285.23 67.4314 Q1291.19 67.4314 1294.67 62.7323 Q1298.15 58.0333 1298.15 49.9314 Q1298.15 41.8701 1294.67 37.1711 Q1291.19 32.4315 1285.23 32.4315 M1285.23 26.1121 Q1294.95 26.1121 1300.5 32.4315 Q1306.05 38.7509 1306.05 49.9314 Q1306.05 61.0714 1300.5 67.4314 Q1294.95 73.7508 1285.23 73.7508 Q1275.47 73.7508 1269.92 67.4314 Q1264.41 61.0714 1264.41 49.9314 Q1264.41 38.7509 1269.92 32.4315 Q1275.47 26.1121 1285.23 26.1121 Z" fill="#000000" fill-rule="nonzero" fill-opacity="1" /><path clip-path="url(#clip390)" d="M1345.1 12.096 L1379.86 12.096 L1379.86 18.9825 L1353.29 18.9825 L1353.29 36.8065 L1377.27 36.8065 L1377.27 43.6931 L1353.29 43.6931 L1353.29 72.576 L1345.1 72.576 L1345.1 12.096 Z" fill="#000000" fill-rule="nonzero" fill-opacity="1" /><path clip-path="url(#clip390)" d="M1412.75 34.1734 Q1411.5 33.4443 1410 33.1202 Q1408.54 32.7556 1406.76 32.7556 Q1400.44 32.7556 1397.04 36.8875 Q1393.67 40.9789 1393.67 48.6757 L1393.67 72.576 L1386.18 72.576 L1386.18 27.2059 L1393.67 27.2059 L1393.67 34.2544 Q1396.02 30.1225 1399.79 28.1376 Q1403.56 26.1121 1408.95 26.1121 Q1409.72 26.1121 1410.65 26.2337 Q1411.58 26.3147 1412.71 26.5172 L1412.75 34.1734 Z" fill="#000000" fill-rule="nonzero" fill-opacity="1" /><path clip-path="url(#clip390)" d="M1436.33 32.4315 Q1430.33 32.4315 1426.85 37.1306 Q1423.37 41.7891 1423.37 49.9314 Q1423.37 58.0738 1426.81 62.7728 Q1430.29 67.4314 1436.33 67.4314 Q1442.29 67.4314 1445.77 62.7323 Q1449.25 58.0333 1449.25 49.9314 Q1449.25 41.8701 1445.77 37.1711 Q1442.29 32.4315 1436.33 32.4315 M1436.33 26.1121 Q1446.05 26.1121 1451.6 32.4315 Q1457.15 38.7509 1457.15 49.9314 Q1457.15 61.0714 1451.6 67.4314 Q1446.05 73.7508 1436.33 73.7508 Q1426.57 73.7508 1421.02 67.4314 Q1415.51 61.0714 1415.51 49.9314 Q1415.51 38.7509 1421.02 32.4315 Q1426.57 26.1121 1436.33 26.1121 Z" fill="#000000" fill-rule="nonzero" fill-opacity="1" /><path clip-path="url(#clip390)" d="M1507.22 45.1919 L1507.22 72.576 L1499.77 72.576 L1499.77 45.4349 Q1499.77 38.994 1497.26 35.7938 Q1494.74 32.5936 1489.72 32.5936 Q1483.69 32.5936 1480.2 36.4419 Q1476.72 40.2903 1476.72 46.9338 L1476.72 72.576 L1469.22 72.576 L1469.22 27.2059 L1476.72 27.2059 L1476.72 34.2544 Q1479.39 30.163 1483 28.1376 Q1486.64 26.1121 1491.38 26.1121 Q1499.2 26.1121 1503.21 30.9732 Q1507.22 35.7938 1507.22 45.1919 Z" fill="#000000" fill-rule="nonzero" fill-opacity="1" /><path clip-path="url(#clip390)" d="M1529.46 14.324 L1529.46 27.2059 L1544.81 27.2059 L1544.81 32.9987 L1529.46 32.9987 L1529.46 57.6282 Q1529.46 63.1779 1530.96 64.7578 Q1532.5 66.3376 1537.16 66.3376 L1544.81 66.3376 L1544.81 72.576 L1537.16 72.576 Q1528.53 72.576 1525.25 69.3758 Q1521.97 66.1351 1521.97 57.6282 L1521.97 32.9987 L1516.5 32.9987 L1516.5 27.2059 L1521.97 27.2059 L1521.97 14.324 L1529.46 14.324 Z" fill="#000000" fill-rule="nonzero" fill-opacity="1" /><circle clip-path="url(#clip392)" cx="366.058" cy="1386.4" r="14.4" fill="#009af9" fill-rule="evenodd" fill-opacity="1" stroke="#000000" stroke-opacity="1" stroke-width="3.2"/>
<circle clip-path="url(#clip392)" cx="367.047" cy="1374.05" r="14.4" fill="#009af9" fill-rule="evenodd" fill-opacity="1" stroke="#000000" stroke-opacity="1" stroke-width="3.2"/>
<circle clip-path="url(#clip392)" cx="368.228" cy="1361.66" r="14.4" fill="#009af9" fill-rule="evenodd" fill-opacity="1" stroke="#000000" stroke-opacity="1" stroke-width="3.2"/>
<circle clip-path="url(#clip392)" cx="369.596" cy="1349.27" r="14.4" fill="#009af9" fill-rule="evenodd" fill-opacity="1" stroke="#000000" stroke-opacity="1" stroke-width="3.2"/>
<circle clip-path="url(#clip392)" cx="371.141" cy="1336.89" r="14.4" fill="#009af9" fill-rule="evenodd" fill-opacity="1" stroke="#000000" stroke-opacity="1" stroke-width="3.2"/>
<circle clip-path="url(#clip392)" cx="372.879" cy="1324.5" r="14.4" fill="#009af9" fill-rule="evenodd" fill-opacity="1" stroke="#000000" stroke-opacity="1" stroke-width="3.2"/>
<circle clip-path="url(#clip392)" cx="374.801" cy="1312.11" r="14.4" fill="#009af9" fill-rule="evenodd" fill-opacity="1" stroke="#000000" stroke-opacity="1" stroke-width="3.2"/>
<circle clip-path="url(#clip392)" cx="376.895" cy="1299.73" r="14.4" fill="#009af9" fill-rule="evenodd" fill-opacity="1" stroke="#000000" stroke-opacity="1" stroke-width="3.2"/>
<circle clip-path="url(#clip392)" cx="379.175" cy="1287.35" r="14.4" fill="#009af9" fill-rule="evenodd" fill-opacity="1" stroke="#000000" stroke-opacity="1" stroke-width="3.2"/>
<circle clip-path="url(#clip392)" cx="381.723" cy="1274.96" r="14.4" fill="#009af9" fill-rule="evenodd" fill-opacity="1" stroke="#000000" stroke-opacity="1" stroke-width="3.2"/>
<circle clip-path="url(#clip392)" cx="384.623" cy="1262.57" r="14.4" fill="#009af9" fill-rule="evenodd" fill-opacity="1" stroke="#000000" stroke-opacity="1" stroke-width="3.2"/>
<circle clip-path="url(#clip392)" cx="387.708" cy="1250.19" r="14.4" fill="#009af9" fill-rule="evenodd" fill-opacity="1" stroke="#000000" stroke-opacity="1" stroke-width="3.2"/>
<circle clip-path="url(#clip392)" cx="390.999" cy="1237.81" r="14.4" fill="#009af9" fill-rule="evenodd" fill-opacity="1" stroke="#000000" stroke-opacity="1" stroke-width="3.2"/>
<circle clip-path="url(#clip392)" cx="394.477" cy="1225.41" r="14.4" fill="#009af9" fill-rule="evenodd" fill-opacity="1" stroke="#000000" stroke-opacity="1" stroke-width="3.2"/>
<circle clip-path="url(#clip392)" cx="398.121" cy="1213.03" r="14.4" fill="#009af9" fill-rule="evenodd" fill-opacity="1" stroke="#000000" stroke-opacity="1" stroke-width="3.2"/>
<circle clip-path="url(#clip392)" cx="401.957" cy="1200.65" r="14.4" fill="#009af9" fill-rule="evenodd" fill-opacity="1" stroke="#000000" stroke-opacity="1" stroke-width="3.2"/>
<circle clip-path="url(#clip392)" cx="405.971" cy="1188.26" r="14.4" fill="#009af9" fill-rule="evenodd" fill-opacity="1" stroke="#000000" stroke-opacity="1" stroke-width="3.2"/>
<circle clip-path="url(#clip392)" cx="410.16" cy="1175.87" r="14.4" fill="#009af9" fill-rule="evenodd" fill-opacity="1" stroke="#000000" stroke-opacity="1" stroke-width="3.2"/>
<circle clip-path="url(#clip392)" cx="414.524" cy="1163.49" r="14.4" fill="#009af9" fill-rule="evenodd" fill-opacity="1" stroke="#000000" stroke-opacity="1" stroke-width="3.2"/>
<circle clip-path="url(#clip392)" cx="419.057" cy="1151.1" r="14.4" fill="#009af9" fill-rule="evenodd" fill-opacity="1" stroke="#000000" stroke-opacity="1" stroke-width="3.2"/>
<circle clip-path="url(#clip392)" cx="423.756" cy="1138.72" r="14.4" fill="#009af9" fill-rule="evenodd" fill-opacity="1" stroke="#000000" stroke-opacity="1" stroke-width="3.2"/>
<circle clip-path="url(#clip392)" cx="428.628" cy="1126.33" r="14.4" fill="#009af9" fill-rule="evenodd" fill-opacity="1" stroke="#000000" stroke-opacity="1" stroke-width="3.2"/>
<circle clip-path="url(#clip392)" cx="433.657" cy="1113.95" r="14.4" fill="#009af9" fill-rule="evenodd" fill-opacity="1" stroke="#000000" stroke-opacity="1" stroke-width="3.2"/>
<circle clip-path="url(#clip392)" cx="438.85" cy="1101.56" r="14.4" fill="#009af9" fill-rule="evenodd" fill-opacity="1" stroke="#000000" stroke-opacity="1" stroke-width="3.2"/>
<circle clip-path="url(#clip392)" cx="444.194" cy="1089.18" r="14.4" fill="#009af9" fill-rule="evenodd" fill-opacity="1" stroke="#000000" stroke-opacity="1" stroke-width="3.2"/>
<circle clip-path="url(#clip392)" cx="449.784" cy="1076.79" r="14.4" fill="#009af9" fill-rule="evenodd" fill-opacity="1" stroke="#000000" stroke-opacity="1" stroke-width="3.2"/>
<circle clip-path="url(#clip392)" cx="455.576" cy="1064.4" r="14.4" fill="#009af9" fill-rule="evenodd" fill-opacity="1" stroke="#000000" stroke-opacity="1" stroke-width="3.2"/>
<circle clip-path="url(#clip392)" cx="461.536" cy="1052.02" r="14.4" fill="#009af9" fill-rule="evenodd" fill-opacity="1" stroke="#000000" stroke-opacity="1" stroke-width="3.2"/>
<circle clip-path="url(#clip392)" cx="467.635" cy="1039.64" r="14.4" fill="#009af9" fill-rule="evenodd" fill-opacity="1" stroke="#000000" stroke-opacity="1" stroke-width="3.2"/>
<circle clip-path="url(#clip392)" cx="473.882" cy="1027.25" r="14.4" fill="#009af9" fill-rule="evenodd" fill-opacity="1" stroke="#000000" stroke-opacity="1" stroke-width="3.2"/>
<circle clip-path="url(#clip392)" cx="480.277" cy="1014.87" r="14.4" fill="#009af9" fill-rule="evenodd" fill-opacity="1" stroke="#000000" stroke-opacity="1" stroke-width="3.2"/>
<circle clip-path="url(#clip392)" cx="486.815" cy="1002.48" r="14.4" fill="#009af9" fill-rule="evenodd" fill-opacity="1" stroke="#000000" stroke-opacity="1" stroke-width="3.2"/>
<circle clip-path="url(#clip392)" cx="493.594" cy="990.09" r="14.4" fill="#009af9" fill-rule="evenodd" fill-opacity="1" stroke="#000000" stroke-opacity="1" stroke-width="3.2"/>
<circle clip-path="url(#clip392)" cx="500.565" cy="977.707" r="14.4" fill="#009af9" fill-rule="evenodd" fill-opacity="1" stroke="#000000" stroke-opacity="1" stroke-width="3.2"/>
<circle clip-path="url(#clip392)" cx="507.677" cy="965.318" r="14.4" fill="#009af9" fill-rule="evenodd" fill-opacity="1" stroke="#000000" stroke-opacity="1" stroke-width="3.2"/>
<circle clip-path="url(#clip392)" cx="514.911" cy="952.936" r="14.4" fill="#009af9" fill-rule="evenodd" fill-opacity="1" stroke="#000000" stroke-opacity="1" stroke-width="3.2"/>
<circle clip-path="url(#clip392)" cx="522.291" cy="940.549" r="14.4" fill="#009af9" fill-rule="evenodd" fill-opacity="1" stroke="#000000" stroke-opacity="1" stroke-width="3.2"/>
<circle clip-path="url(#clip392)" cx="529.789" cy="928.162" r="14.4" fill="#009af9" fill-rule="evenodd" fill-opacity="1" stroke="#000000" stroke-opacity="1" stroke-width="3.2"/>
<circle clip-path="url(#clip392)" cx="537.426" cy="915.776" r="14.4" fill="#009af9" fill-rule="evenodd" fill-opacity="1" stroke="#000000" stroke-opacity="1" stroke-width="3.2"/>
<circle clip-path="url(#clip392)" cx="545.177" cy="903.391" r="14.4" fill="#009af9" fill-rule="evenodd" fill-opacity="1" stroke="#000000" stroke-opacity="1" stroke-width="3.2"/>
<circle clip-path="url(#clip392)" cx="553.048" cy="891.006" r="14.4" fill="#009af9" fill-rule="evenodd" fill-opacity="1" stroke="#000000" stroke-opacity="1" stroke-width="3.2"/>
<circle clip-path="url(#clip392)" cx="561.034" cy="878.62" r="14.4" fill="#009af9" fill-rule="evenodd" fill-opacity="1" stroke="#000000" stroke-opacity="1" stroke-width="3.2"/>
<circle clip-path="url(#clip392)" cx="569.136" cy="866.233" r="14.4" fill="#009af9" fill-rule="evenodd" fill-opacity="1" stroke="#000000" stroke-opacity="1" stroke-width="3.2"/>
<circle clip-path="url(#clip392)" cx="577.383" cy="853.851" r="14.4" fill="#009af9" fill-rule="evenodd" fill-opacity="1" stroke="#000000" stroke-opacity="1" stroke-width="3.2"/>
<circle clip-path="url(#clip392)" cx="585.827" cy="841.465" r="14.4" fill="#009af9" fill-rule="evenodd" fill-opacity="1" stroke="#000000" stroke-opacity="1" stroke-width="3.2"/>
<circle clip-path="url(#clip392)" cx="594.401" cy="829.082" r="14.4" fill="#009af9" fill-rule="evenodd" fill-opacity="1" stroke="#000000" stroke-opacity="1" stroke-width="3.2"/>
<circle clip-path="url(#clip392)" cx="603.128" cy="816.699" r="14.4" fill="#009af9" fill-rule="evenodd" fill-opacity="1" stroke="#000000" stroke-opacity="1" stroke-width="3.2"/>
<circle clip-path="url(#clip392)" cx="612.007" cy="804.306" r="14.4" fill="#009af9" fill-rule="evenodd" fill-opacity="1" stroke="#000000" stroke-opacity="1" stroke-width="3.2"/>
<circle clip-path="url(#clip392)" cx="620.994" cy="791.927" r="14.4" fill="#009af9" fill-rule="evenodd" fill-opacity="1" stroke="#000000" stroke-opacity="1" stroke-width="3.2"/>
<circle clip-path="url(#clip392)" cx="630.091" cy="779.537" r="14.4" fill="#009af9" fill-rule="evenodd" fill-opacity="1" stroke="#000000" stroke-opacity="1" stroke-width="3.2"/>
<circle clip-path="url(#clip392)" cx="639.368" cy="767.16" r="14.4" fill="#009af9" fill-rule="evenodd" fill-opacity="1" stroke="#000000" stroke-opacity="1" stroke-width="3.2"/>
<circle clip-path="url(#clip392)" cx="648.818" cy="754.775" r="14.4" fill="#009af9" fill-rule="evenodd" fill-opacity="1" stroke="#000000" stroke-opacity="1" stroke-width="3.2"/>
<circle clip-path="url(#clip392)" cx="658.404" cy="742.38" r="14.4" fill="#009af9" fill-rule="evenodd" fill-opacity="1" stroke="#000000" stroke-opacity="1" stroke-width="3.2"/>
<circle clip-path="url(#clip392)" cx="668.101" cy="730.002" r="14.4" fill="#009af9" fill-rule="evenodd" fill-opacity="1" stroke="#000000" stroke-opacity="1" stroke-width="3.2"/>
<circle clip-path="url(#clip392)" cx="677.899" cy="717.615" r="14.4" fill="#009af9" fill-rule="evenodd" fill-opacity="1" stroke="#000000" stroke-opacity="1" stroke-width="3.2"/>
<circle clip-path="url(#clip392)" cx="687.87" cy="705.226" r="14.4" fill="#009af9" fill-rule="evenodd" fill-opacity="1" stroke="#000000" stroke-opacity="1" stroke-width="3.2"/>
<circle clip-path="url(#clip392)" cx="698.007" cy="692.838" r="14.4" fill="#009af9" fill-rule="evenodd" fill-opacity="1" stroke="#000000" stroke-opacity="1" stroke-width="3.2"/>
<circle clip-path="url(#clip392)" cx="708.262" cy="680.454" r="14.4" fill="#009af9" fill-rule="evenodd" fill-opacity="1" stroke="#000000" stroke-opacity="1" stroke-width="3.2"/>
<circle clip-path="url(#clip392)" cx="718.625" cy="668.07" r="14.4" fill="#009af9" fill-rule="evenodd" fill-opacity="1" stroke="#000000" stroke-opacity="1" stroke-width="3.2"/>
<circle clip-path="url(#clip392)" cx="729.102" cy="655.683" r="14.4" fill="#009af9" fill-rule="evenodd" fill-opacity="1" stroke="#000000" stroke-opacity="1" stroke-width="3.2"/>
<circle clip-path="url(#clip392)" cx="739.679" cy="643.303" r="14.4" fill="#009af9" fill-rule="evenodd" fill-opacity="1" stroke="#000000" stroke-opacity="1" stroke-width="3.2"/>
<circle clip-path="url(#clip392)" cx="750.368" cy="630.91" r="14.4" fill="#009af9" fill-rule="evenodd" fill-opacity="1" stroke="#000000" stroke-opacity="1" stroke-width="3.2"/>
<circle clip-path="url(#clip392)" cx="761.151" cy="618.534" r="14.4" fill="#009af9" fill-rule="evenodd" fill-opacity="1" stroke="#000000" stroke-opacity="1" stroke-width="3.2"/>
<circle clip-path="url(#clip392)" cx="772.034" cy="606.143" r="14.4" fill="#009af9" fill-rule="evenodd" fill-opacity="1" stroke="#000000" stroke-opacity="1" stroke-width="3.2"/>
<circle clip-path="url(#clip392)" cx="783.026" cy="593.76" r="14.4" fill="#009af9" fill-rule="evenodd" fill-opacity="1" stroke="#000000" stroke-opacity="1" stroke-width="3.2"/>
<circle clip-path="url(#clip392)" cx="794.252" cy="581.365" r="14.4" fill="#009af9" fill-rule="evenodd" fill-opacity="1" stroke="#000000" stroke-opacity="1" stroke-width="3.2"/>
<circle clip-path="url(#clip392)" cx="805.773" cy="568.991" r="14.4" fill="#009af9" fill-rule="evenodd" fill-opacity="1" stroke="#000000" stroke-opacity="1" stroke-width="3.2"/>
<circle clip-path="url(#clip392)" cx="817.452" cy="556.598" r="14.4" fill="#009af9" fill-rule="evenodd" fill-opacity="1" stroke="#000000" stroke-opacity="1" stroke-width="3.2"/>
<circle clip-path="url(#clip392)" cx="829.28" cy="544.211" r="14.4" fill="#009af9" fill-rule="evenodd" fill-opacity="1" stroke="#000000" stroke-opacity="1" stroke-width="3.2"/>
<circle clip-path="url(#clip392)" cx="841.248" cy="531.825" r="14.4" fill="#009af9" fill-rule="evenodd" fill-opacity="1" stroke="#000000" stroke-opacity="1" stroke-width="3.2"/>
<circle clip-path="url(#clip392)" cx="853.392" cy="519.444" r="14.4" fill="#009af9" fill-rule="evenodd" fill-opacity="1" stroke="#000000" stroke-opacity="1" stroke-width="3.2"/>
<circle clip-path="url(#clip392)" cx="866.187" cy="507.062" r="14.4" fill="#009af9" fill-rule="evenodd" fill-opacity="1" stroke="#000000" stroke-opacity="1" stroke-width="3.2"/>
<circle clip-path="url(#clip392)" cx="879.703" cy="494.667" r="14.4" fill="#009af9" fill-rule="evenodd" fill-opacity="1" stroke="#000000" stroke-opacity="1" stroke-width="3.2"/>
<circle clip-path="url(#clip392)" cx="893.909" cy="482.293" r="14.4" fill="#009af9" fill-rule="evenodd" fill-opacity="1" stroke="#000000" stroke-opacity="1" stroke-width="3.2"/>
<circle clip-path="url(#clip392)" cx="908.797" cy="469.903" r="14.4" fill="#009af9" fill-rule="evenodd" fill-opacity="1" stroke="#000000" stroke-opacity="1" stroke-width="3.2"/>
<circle clip-path="url(#clip392)" cx="924.331" cy="457.522" r="14.4" fill="#009af9" fill-rule="evenodd" fill-opacity="1" stroke="#000000" stroke-opacity="1" stroke-width="3.2"/>
<circle clip-path="url(#clip392)" cx="940.495" cy="445.136" r="14.4" fill="#009af9" fill-rule="evenodd" fill-opacity="1" stroke="#000000" stroke-opacity="1" stroke-width="3.2"/>
<circle clip-path="url(#clip392)" cx="957.412" cy="432.739" r="14.4" fill="#009af9" fill-rule="evenodd" fill-opacity="1" stroke="#000000" stroke-opacity="1" stroke-width="3.2"/>
<circle clip-path="url(#clip392)" cx="975.608" cy="420.362" r="14.4" fill="#009af9" fill-rule="evenodd" fill-opacity="1" stroke="#000000" stroke-opacity="1" stroke-width="3.2"/>
<circle clip-path="url(#clip392)" cx="994.853" cy="407.976" r="14.4" fill="#009af9" fill-rule="evenodd" fill-opacity="1" stroke="#000000" stroke-opacity="1" stroke-width="3.2"/>
<circle clip-path="url(#clip392)" cx="1015.14" cy="395.582" r="14.4" fill="#009af9" fill-rule="evenodd" fill-opacity="1" stroke="#000000" stroke-opacity="1" stroke-width="3.2"/>
<circle clip-path="url(#clip392)" cx="1036.84" cy="383.198" r="14.4" fill="#009af9" fill-rule="evenodd" fill-opacity="1" stroke="#000000" stroke-opacity="1" stroke-width="3.2"/>
<circle clip-path="url(#clip392)" cx="1063.03" cy="370.811" r="14.4" fill="#009af9" fill-rule="evenodd" fill-opacity="1" stroke="#000000" stroke-opacity="1" stroke-width="3.2"/>
<circle clip-path="url(#clip392)" cx="1093.82" cy="358.427" r="14.4" fill="#009af9" fill-rule="evenodd" fill-opacity="1" stroke="#000000" stroke-opacity="1" stroke-width="3.2"/>
<circle clip-path="url(#clip392)" cx="1128.93" cy="346.052" r="14.4" fill="#009af9" fill-rule="evenodd" fill-opacity="1" stroke="#000000" stroke-opacity="1" stroke-width="3.2"/>
<circle clip-path="url(#clip392)" cx="1168.09" cy="333.66" r="14.4" fill="#009af9" fill-rule="evenodd" fill-opacity="1" stroke="#000000" stroke-opacity="1" stroke-width="3.2"/>
<circle clip-path="url(#clip392)" cx="1211.01" cy="321.279" r="14.4" fill="#009af9" fill-rule="evenodd" fill-opacity="1" stroke="#000000" stroke-opacity="1" stroke-width="3.2"/>
<circle clip-path="url(#clip392)" cx="1257.43" cy="308.886" r="14.4" fill="#009af9" fill-rule="evenodd" fill-opacity="1" stroke="#000000" stroke-opacity="1" stroke-width="3.2"/>
<circle clip-path="url(#clip392)" cx="1307.06" cy="296.499" r="14.4" fill="#009af9" fill-rule="evenodd" fill-opacity="1" stroke="#000000" stroke-opacity="1" stroke-width="3.2"/>
<circle clip-path="url(#clip392)" cx="1361.75" cy="284.114" r="14.4" fill="#009af9" fill-rule="evenodd" fill-opacity="1" stroke="#000000" stroke-opacity="1" stroke-width="3.2"/>
<circle clip-path="url(#clip392)" cx="1421.62" cy="271.727" r="14.4" fill="#009af9" fill-rule="evenodd" fill-opacity="1" stroke="#000000" stroke-opacity="1" stroke-width="3.2"/>
<circle clip-path="url(#clip392)" cx="1487.74" cy="259.342" r="14.4" fill="#009af9" fill-rule="evenodd" fill-opacity="1" stroke="#000000" stroke-opacity="1" stroke-width="3.2"/>
<circle clip-path="url(#clip392)" cx="1561.81" cy="246.957" r="14.4" fill="#009af9" fill-rule="evenodd" fill-opacity="1" stroke="#000000" stroke-opacity="1" stroke-width="3.2"/>
<circle clip-path="url(#clip392)" cx="1642.71" cy="234.57" r="14.4" fill="#009af9" fill-rule="evenodd" fill-opacity="1" stroke="#000000" stroke-opacity="1" stroke-width="3.2"/>
<circle clip-path="url(#clip392)" cx="1729.69" cy="222.184" r="14.4" fill="#009af9" fill-rule="evenodd" fill-opacity="1" stroke="#000000" stroke-opacity="1" stroke-width="3.2"/>
<circle clip-path="url(#clip392)" cx="1822.05" cy="209.799" r="14.4" fill="#009af9" fill-rule="evenodd" fill-opacity="1" stroke="#000000" stroke-opacity="1" stroke-width="3.2"/>
<circle clip-path="url(#clip392)" cx="1919.16" cy="197.413" r="14.4" fill="#009af9" fill-rule="evenodd" fill-opacity="1" stroke="#000000" stroke-opacity="1" stroke-width="3.2"/>
<circle clip-path="url(#clip392)" cx="2020.46" cy="185.028" r="14.4" fill="#009af9" fill-rule="evenodd" fill-opacity="1" stroke="#000000" stroke-opacity="1" stroke-width="3.2"/>
<circle clip-path="url(#clip392)" cx="2125.47" cy="172.642" r="14.4" fill="#009af9" fill-rule="evenodd" fill-opacity="1" stroke="#000000" stroke-opacity="1" stroke-width="3.2"/>
<circle clip-path="url(#clip392)" cx="2233.73" cy="160.256" r="14.4" fill="#009af9" fill-rule="evenodd" fill-opacity="1" stroke="#000000" stroke-opacity="1" stroke-width="3.2"/>
<circle clip-path="url(#clip392)" cx="395.148" cy="1367.1" r="14.4" fill="#ff0000" fill-rule="evenodd" fill-opacity="1" stroke="#000000" stroke-opacity="1" stroke-width="3.2"/>
<circle clip-path="url(#clip392)" cx="396.354" cy="1357.34" r="14.4" fill="#ff0000" fill-rule="evenodd" fill-opacity="1" stroke="#000000" stroke-opacity="1" stroke-width="3.2"/>
<circle clip-path="url(#clip392)" cx="397.665" cy="1347.49" r="14.4" fill="#ff0000" fill-rule="evenodd" fill-opacity="1" stroke="#000000" stroke-opacity="1" stroke-width="3.2"/>
<circle clip-path="url(#clip392)" cx="399.111" cy="1337.68" r="14.4" fill="#ff0000" fill-rule="evenodd" fill-opacity="1" stroke="#000000" stroke-opacity="1" stroke-width="3.2"/>
<circle clip-path="url(#clip392)" cx="400.646" cy="1327.81" r="14.4" fill="#ff0000" fill-rule="evenodd" fill-opacity="1" stroke="#000000" stroke-opacity="1" stroke-width="3.2"/>
<circle clip-path="url(#clip392)" cx="402.33" cy="1317.98" r="14.4" fill="#ff0000" fill-rule="evenodd" fill-opacity="1" stroke="#000000" stroke-opacity="1" stroke-width="3.2"/>
<circle clip-path="url(#clip392)" cx="404.127" cy="1308.18" r="14.4" fill="#ff0000" fill-rule="evenodd" fill-opacity="1" stroke="#000000" stroke-opacity="1" stroke-width="3.2"/>
<circle clip-path="url(#clip392)" cx="406.023" cy="1298.3" r="14.4" fill="#ff0000" fill-rule="evenodd" fill-opacity="1" stroke="#000000" stroke-opacity="1" stroke-width="3.2"/>
<circle clip-path="url(#clip392)" cx="408.048" cy="1288.47" r="14.4" fill="#ff0000" fill-rule="evenodd" fill-opacity="1" stroke="#000000" stroke-opacity="1" stroke-width="3.2"/>
<circle clip-path="url(#clip392)" cx="410.343" cy="1279.84" r="14.4" fill="#ff0000" fill-rule="evenodd" fill-opacity="1" stroke="#000000" stroke-opacity="1" stroke-width="3.2"/>
<circle clip-path="url(#clip392)" cx="413.054" cy="1273.35" r="14.4" fill="#ff0000" fill-rule="evenodd" fill-opacity="1" stroke="#000000" stroke-opacity="1" stroke-width="3.2"/>
<circle clip-path="url(#clip392)" cx="415.869" cy="1266.96" r="14.4" fill="#ff0000" fill-rule="evenodd" fill-opacity="1" stroke="#000000" stroke-opacity="1" stroke-width="3.2"/>
<circle clip-path="url(#clip392)" cx="418.809" cy="1260.45" r="14.4" fill="#ff0000" fill-rule="evenodd" fill-opacity="1" stroke="#000000" stroke-opacity="1" stroke-width="3.2"/>
<circle clip-path="url(#clip392)" cx="421.86" cy="1253.99" r="14.4" fill="#ff0000" fill-rule="evenodd" fill-opacity="1" stroke="#000000" stroke-opacity="1" stroke-width="3.2"/>
<circle clip-path="url(#clip392)" cx="425.004" cy="1247.65" r="14.4" fill="#ff0000" fill-rule="evenodd" fill-opacity="1" stroke="#000000" stroke-opacity="1" stroke-width="3.2"/>
<circle clip-path="url(#clip392)" cx="428.25" cy="1241.28" r="14.4" fill="#ff0000" fill-rule="evenodd" fill-opacity="1" stroke="#000000" stroke-opacity="1" stroke-width="3.2"/>
<circle clip-path="url(#clip392)" cx="431.612" cy="1234.9" r="14.4" fill="#ff0000" fill-rule="evenodd" fill-opacity="1" stroke="#000000" stroke-opacity="1" stroke-width="3.2"/>
<circle clip-path="url(#clip392)" cx="435.07" cy="1228.56" r="14.4" fill="#ff0000" fill-rule="evenodd" fill-opacity="1" stroke="#000000" stroke-opacity="1" stroke-width="3.2"/>
<circle clip-path="url(#clip392)" cx="438.633" cy="1222.25" r="14.4" fill="#ff0000" fill-rule="evenodd" fill-opacity="1" stroke="#000000" stroke-opacity="1" stroke-width="3.2"/>
<circle clip-path="url(#clip392)" cx="442.287" cy="1215.97" r="14.4" fill="#ff0000" fill-rule="evenodd" fill-opacity="1" stroke="#000000" stroke-opacity="1" stroke-width="3.2"/>
<circle clip-path="url(#clip392)" cx="446.046" cy="1209.7" r="14.4" fill="#ff0000" fill-rule="evenodd" fill-opacity="1" stroke="#000000" stroke-opacity="1" stroke-width="3.2"/>
<circle clip-path="url(#clip392)" cx="449.895" cy="1203.43" r="14.4" fill="#ff0000" fill-rule="evenodd" fill-opacity="1" stroke="#000000" stroke-opacity="1" stroke-width="3.2"/>
<circle clip-path="url(#clip392)" cx="453.839" cy="1197.2" r="14.4" fill="#ff0000" fill-rule="evenodd" fill-opacity="1" stroke="#000000" stroke-opacity="1" stroke-width="3.2"/>
<circle clip-path="url(#clip392)" cx="457.877" cy="1190.97" r="14.4" fill="#ff0000" fill-rule="evenodd" fill-opacity="1" stroke="#000000" stroke-opacity="1" stroke-width="3.2"/>
<circle clip-path="url(#clip392)" cx="462.004" cy="1184.8" r="14.4" fill="#ff0000" fill-rule="evenodd" fill-opacity="1" stroke="#000000" stroke-opacity="1" stroke-width="3.2"/>
<circle clip-path="url(#clip392)" cx="466.113" cy="1178.52" r="14.4" fill="#ff0000" fill-rule="evenodd" fill-opacity="1" stroke="#000000" stroke-opacity="1" stroke-width="3.2"/>
<circle clip-path="url(#clip392)" cx="470.237" cy="1172.32" r="14.4" fill="#ff0000" fill-rule="evenodd" fill-opacity="1" stroke="#000000" stroke-opacity="1" stroke-width="3.2"/>
<circle clip-path="url(#clip392)" cx="474.47" cy="1165.93" r="14.4" fill="#ff0000" fill-rule="evenodd" fill-opacity="1" stroke="#000000" stroke-opacity="1" stroke-width="3.2"/>
<circle clip-path="url(#clip392)" cx="478.775" cy="1159.61" r="14.4" fill="#ff0000" fill-rule="evenodd" fill-opacity="1" stroke="#000000" stroke-opacity="1" stroke-width="3.2"/>
<circle clip-path="url(#clip392)" cx="483.179" cy="1153.43" r="14.4" fill="#ff0000" fill-rule="evenodd" fill-opacity="1" stroke="#000000" stroke-opacity="1" stroke-width="3.2"/>
<circle clip-path="url(#clip392)" cx="487.655" cy="1147.13" r="14.4" fill="#ff0000" fill-rule="evenodd" fill-opacity="1" stroke="#000000" stroke-opacity="1" stroke-width="3.2"/>
<circle clip-path="url(#clip392)" cx="492.214" cy="1140.71" r="14.4" fill="#ff0000" fill-rule="evenodd" fill-opacity="1" stroke="#000000" stroke-opacity="1" stroke-width="3.2"/>
<circle clip-path="url(#clip392)" cx="496.938" cy="1132.8" r="14.4" fill="#ff0000" fill-rule="evenodd" fill-opacity="1" stroke="#000000" stroke-opacity="1" stroke-width="3.2"/>
<circle clip-path="url(#clip392)" cx="501.782" cy="1124.05" r="14.4" fill="#ff0000" fill-rule="evenodd" fill-opacity="1" stroke="#000000" stroke-opacity="1" stroke-width="3.2"/>
<circle clip-path="url(#clip392)" cx="506.722" cy="1115.33" r="14.4" fill="#ff0000" fill-rule="evenodd" fill-opacity="1" stroke="#000000" stroke-opacity="1" stroke-width="3.2"/>
<circle clip-path="url(#clip392)" cx="511.73" cy="1106.56" r="14.4" fill="#ff0000" fill-rule="evenodd" fill-opacity="1" stroke="#000000" stroke-opacity="1" stroke-width="3.2"/>
<circle clip-path="url(#clip392)" cx="516.829" cy="1097.84" r="14.4" fill="#ff0000" fill-rule="evenodd" fill-opacity="1" stroke="#000000" stroke-opacity="1" stroke-width="3.2"/>
<circle clip-path="url(#clip392)" cx="521.99" cy="1089.06" r="14.4" fill="#ff0000" fill-rule="evenodd" fill-opacity="1" stroke="#000000" stroke-opacity="1" stroke-width="3.2"/>
<circle clip-path="url(#clip392)" cx="527.269" cy="1080.34" r="14.4" fill="#ff0000" fill-rule="evenodd" fill-opacity="1" stroke="#000000" stroke-opacity="1" stroke-width="3.2"/>
<circle clip-path="url(#clip392)" cx="532.595" cy="1071.61" r="14.4" fill="#ff0000" fill-rule="evenodd" fill-opacity="1" stroke="#000000" stroke-opacity="1" stroke-width="3.2"/>
<circle clip-path="url(#clip392)" cx="538.004" cy="1062.87" r="14.4" fill="#ff0000" fill-rule="evenodd" fill-opacity="1" stroke="#000000" stroke-opacity="1" stroke-width="3.2"/>
<circle clip-path="url(#clip392)" cx="543.491" cy="1054.13" r="14.4" fill="#ff0000" fill-rule="evenodd" fill-opacity="1" stroke="#000000" stroke-opacity="1" stroke-width="3.2"/>
<circle clip-path="url(#clip392)" cx="549.055" cy="1045.4" r="14.4" fill="#ff0000" fill-rule="evenodd" fill-opacity="1" stroke="#000000" stroke-opacity="1" stroke-width="3.2"/>
<circle clip-path="url(#clip392)" cx="554.554" cy="1036.6" r="14.4" fill="#ff0000" fill-rule="evenodd" fill-opacity="1" stroke="#000000" stroke-opacity="1" stroke-width="3.2"/>
<circle clip-path="url(#clip392)" cx="559.874" cy="1027.68" r="14.4" fill="#ff0000" fill-rule="evenodd" fill-opacity="1" stroke="#000000" stroke-opacity="1" stroke-width="3.2"/>
<circle clip-path="url(#clip392)" cx="565.278" cy="1018.71" r="14.4" fill="#ff0000" fill-rule="evenodd" fill-opacity="1" stroke="#000000" stroke-opacity="1" stroke-width="3.2"/>
<circle clip-path="url(#clip392)" cx="571.062" cy="1009.17" r="14.4" fill="#ff0000" fill-rule="evenodd" fill-opacity="1" stroke="#000000" stroke-opacity="1" stroke-width="3.2"/>
<circle clip-path="url(#clip392)" cx="577.156" cy="999.217" r="14.4" fill="#ff0000" fill-rule="evenodd" fill-opacity="1" stroke="#000000" stroke-opacity="1" stroke-width="3.2"/>
<circle clip-path="url(#clip392)" cx="583.327" cy="989.23" r="14.4" fill="#ff0000" fill-rule="evenodd" fill-opacity="1" stroke="#000000" stroke-opacity="1" stroke-width="3.2"/>
<circle clip-path="url(#clip392)" cx="589.569" cy="979.237" r="14.4" fill="#ff0000" fill-rule="evenodd" fill-opacity="1" stroke="#000000" stroke-opacity="1" stroke-width="3.2"/>
<circle clip-path="url(#clip392)" cx="596.293" cy="969.211" r="14.4" fill="#ff0000" fill-rule="evenodd" fill-opacity="1" stroke="#000000" stroke-opacity="1" stroke-width="3.2"/>
<circle clip-path="url(#clip392)" cx="603.385" cy="959.157" r="14.4" fill="#ff0000" fill-rule="evenodd" fill-opacity="1" stroke="#000000" stroke-opacity="1" stroke-width="3.2"/>
<circle clip-path="url(#clip392)" cx="610.579" cy="949.096" r="14.4" fill="#ff0000" fill-rule="evenodd" fill-opacity="1" stroke="#000000" stroke-opacity="1" stroke-width="3.2"/>
<circle clip-path="url(#clip392)" cx="617.838" cy="939.064" r="14.4" fill="#ff0000" fill-rule="evenodd" fill-opacity="1" stroke="#000000" stroke-opacity="1" stroke-width="3.2"/>
<circle clip-path="url(#clip392)" cx="625.176" cy="928.976" r="14.4" fill="#ff0000" fill-rule="evenodd" fill-opacity="1" stroke="#000000" stroke-opacity="1" stroke-width="3.2"/>
<circle clip-path="url(#clip392)" cx="632.566" cy="919.181" r="14.4" fill="#ff0000" fill-rule="evenodd" fill-opacity="1" stroke="#000000" stroke-opacity="1" stroke-width="3.2"/>
<circle clip-path="url(#clip392)" cx="640.006" cy="909.624" r="14.4" fill="#ff0000" fill-rule="evenodd" fill-opacity="1" stroke="#000000" stroke-opacity="1" stroke-width="3.2"/>
<circle clip-path="url(#clip392)" cx="647.53" cy="900.061" r="14.4" fill="#ff0000" fill-rule="evenodd" fill-opacity="1" stroke="#000000" stroke-opacity="1" stroke-width="3.2"/>
<circle clip-path="url(#clip392)" cx="655.125" cy="890.522" r="14.4" fill="#ff0000" fill-rule="evenodd" fill-opacity="1" stroke="#000000" stroke-opacity="1" stroke-width="3.2"/>
<circle clip-path="url(#clip392)" cx="662.796" cy="880.973" r="14.4" fill="#ff0000" fill-rule="evenodd" fill-opacity="1" stroke="#000000" stroke-opacity="1" stroke-width="3.2"/>
<circle clip-path="url(#clip392)" cx="670.532" cy="871.411" r="14.4" fill="#ff0000" fill-rule="evenodd" fill-opacity="1" stroke="#000000" stroke-opacity="1" stroke-width="3.2"/>
<circle clip-path="url(#clip392)" cx="678.344" cy="861.846" r="14.4" fill="#ff0000" fill-rule="evenodd" fill-opacity="1" stroke="#000000" stroke-opacity="1" stroke-width="3.2"/>
<circle clip-path="url(#clip392)" cx="686.215" cy="852.275" r="14.4" fill="#ff0000" fill-rule="evenodd" fill-opacity="1" stroke="#000000" stroke-opacity="1" stroke-width="3.2"/>
<circle clip-path="url(#clip392)" cx="694.17" cy="842.67" r="14.4" fill="#ff0000" fill-rule="evenodd" fill-opacity="1" stroke="#000000" stroke-opacity="1" stroke-width="3.2"/>
<circle clip-path="url(#clip392)" cx="702.156" cy="833.065" r="14.4" fill="#ff0000" fill-rule="evenodd" fill-opacity="1" stroke="#000000" stroke-opacity="1" stroke-width="3.2"/>
<circle clip-path="url(#clip392)" cx="710.226" cy="822.931" r="14.4" fill="#ff0000" fill-rule="evenodd" fill-opacity="1" stroke="#000000" stroke-opacity="1" stroke-width="3.2"/>
<circle clip-path="url(#clip392)" cx="718.547" cy="812.134" r="14.4" fill="#ff0000" fill-rule="evenodd" fill-opacity="1" stroke="#000000" stroke-opacity="1" stroke-width="3.2"/>
<circle clip-path="url(#clip392)" cx="726.972" cy="801.285" r="14.4" fill="#ff0000" fill-rule="evenodd" fill-opacity="1" stroke="#000000" stroke-opacity="1" stroke-width="3.2"/>
<circle clip-path="url(#clip392)" cx="735.505" cy="790.366" r="14.4" fill="#ff0000" fill-rule="evenodd" fill-opacity="1" stroke="#000000" stroke-opacity="1" stroke-width="3.2"/>
<circle clip-path="url(#clip392)" cx="744.127" cy="779.378" r="14.4" fill="#ff0000" fill-rule="evenodd" fill-opacity="1" stroke="#000000" stroke-opacity="1" stroke-width="3.2"/>
<circle clip-path="url(#clip392)" cx="752.246" cy="769.719" r="14.4" fill="#ff0000" fill-rule="evenodd" fill-opacity="1" stroke="#000000" stroke-opacity="1" stroke-width="3.2"/>
<circle clip-path="url(#clip392)" cx="758.04" cy="766.097" r="14.4" fill="#ff0000" fill-rule="evenodd" fill-opacity="1" stroke="#000000" stroke-opacity="1" stroke-width="3.2"/>
<circle clip-path="url(#clip392)" cx="764.154" cy="762.397" r="14.4" fill="#ff0000" fill-rule="evenodd" fill-opacity="1" stroke="#000000" stroke-opacity="1" stroke-width="3.2"/>
<circle clip-path="url(#clip392)" cx="770.601" cy="758.733" r="14.4" fill="#ff0000" fill-rule="evenodd" fill-opacity="1" stroke="#000000" stroke-opacity="1" stroke-width="3.2"/>
<circle clip-path="url(#clip392)" cx="777.367" cy="754.996" r="14.4" fill="#ff0000" fill-rule="evenodd" fill-opacity="1" stroke="#000000" stroke-opacity="1" stroke-width="3.2"/>
<circle clip-path="url(#clip392)" cx="784.445" cy="751.242" r="14.4" fill="#ff0000" fill-rule="evenodd" fill-opacity="1" stroke="#000000" stroke-opacity="1" stroke-width="3.2"/>
<circle clip-path="url(#clip392)" cx="791.752" cy="747.354" r="14.4" fill="#ff0000" fill-rule="evenodd" fill-opacity="1" stroke="#000000" stroke-opacity="1" stroke-width="3.2"/>
<circle clip-path="url(#clip392)" cx="799.275" cy="745.707" r="14.4" fill="#ff0000" fill-rule="evenodd" fill-opacity="1" stroke="#000000" stroke-opacity="1" stroke-width="3.2"/>
<circle clip-path="url(#clip392)" cx="806.231" cy="750.493" r="14.4" fill="#ff0000" fill-rule="evenodd" fill-opacity="1" stroke="#000000" stroke-opacity="1" stroke-width="3.2"/>
<circle clip-path="url(#clip392)" cx="813.832" cy="755.387" r="14.4" fill="#ff0000" fill-rule="evenodd" fill-opacity="1" stroke="#000000" stroke-opacity="1" stroke-width="3.2"/>
<circle clip-path="url(#clip392)" cx="822.259" cy="760.594" r="14.4" fill="#ff0000" fill-rule="evenodd" fill-opacity="1" stroke="#000000" stroke-opacity="1" stroke-width="3.2"/>
<circle clip-path="url(#clip392)" cx="831.189" cy="764.731" r="14.4" fill="#ff0000" fill-rule="evenodd" fill-opacity="1" stroke="#000000" stroke-opacity="1" stroke-width="3.2"/>
<circle clip-path="url(#clip392)" cx="842.18" cy="766.991" r="14.4" fill="#ff0000" fill-rule="evenodd" fill-opacity="1" stroke="#000000" stroke-opacity="1" stroke-width="3.2"/>
<circle clip-path="url(#clip392)" cx="855.727" cy="769.249" r="14.4" fill="#ff0000" fill-rule="evenodd" fill-opacity="1" stroke="#000000" stroke-opacity="1" stroke-width="3.2"/>
<circle clip-path="url(#clip392)" cx="871.692" cy="771.306" r="14.4" fill="#ff0000" fill-rule="evenodd" fill-opacity="1" stroke="#000000" stroke-opacity="1" stroke-width="3.2"/>
<circle clip-path="url(#clip392)" cx="890.283" cy="774.027" r="14.4" fill="#ff0000" fill-rule="evenodd" fill-opacity="1" stroke="#000000" stroke-opacity="1" stroke-width="3.2"/>
<circle clip-path="url(#clip392)" cx="911.07" cy="776.49" r="14.4" fill="#ff0000" fill-rule="evenodd" fill-opacity="1" stroke="#000000" stroke-opacity="1" stroke-width="3.2"/>
<circle clip-path="url(#clip392)" cx="933.941" cy="778.685" r="14.4" fill="#ff0000" fill-rule="evenodd" fill-opacity="1" stroke="#000000" stroke-opacity="1" stroke-width="3.2"/>
<circle clip-path="url(#clip392)" cx="959.085" cy="781.106" r="14.4" fill="#ff0000" fill-rule="evenodd" fill-opacity="1" stroke="#000000" stroke-opacity="1" stroke-width="3.2"/>
<circle clip-path="url(#clip392)" cx="987.514" cy="768.564" r="14.4" fill="#ff0000" fill-rule="evenodd" fill-opacity="1" stroke="#000000" stroke-opacity="1" stroke-width="3.2"/>
<circle clip-path="url(#clip392)" cx="1020.65" cy="754.724" r="14.4" fill="#ff0000" fill-rule="evenodd" fill-opacity="1" stroke="#000000" stroke-opacity="1" stroke-width="3.2"/>
<circle clip-path="url(#clip392)" cx="1064.3" cy="753.559" r="14.4" fill="#ff0000" fill-rule="evenodd" fill-opacity="1" stroke="#000000" stroke-opacity="1" stroke-width="3.2"/>
<circle clip-path="url(#clip392)" cx="1115.88" cy="760.193" r="14.4" fill="#ff0000" fill-rule="evenodd" fill-opacity="1" stroke="#000000" stroke-opacity="1" stroke-width="3.2"/>
<circle clip-path="url(#clip392)" cx="1171.18" cy="766.828" r="14.4" fill="#ff0000" fill-rule="evenodd" fill-opacity="1" stroke="#000000" stroke-opacity="1" stroke-width="3.2"/>
<circle clip-path="url(#clip392)" cx="1229.86" cy="773.464" r="14.4" fill="#ff0000" fill-rule="evenodd" fill-opacity="1" stroke="#000000" stroke-opacity="1" stroke-width="3.2"/>
<circle clip-path="url(#clip392)" cx="1291.55" cy="780.1" r="14.4" fill="#ff0000" fill-rule="evenodd" fill-opacity="1" stroke="#000000" stroke-opacity="1" stroke-width="3.2"/>
<circle clip-path="url(#clip392)" cx="1355.96" cy="786.735" r="14.4" fill="#ff0000" fill-rule="evenodd" fill-opacity="1" stroke="#000000" stroke-opacity="1" stroke-width="3.2"/>
<circle clip-path="url(#clip392)" cx="1422.81" cy="793.371" r="14.4" fill="#ff0000" fill-rule="evenodd" fill-opacity="1" stroke="#000000" stroke-opacity="1" stroke-width="3.2"/>
<circle clip-path="url(#clip392)" cx="1491.84" cy="800.006" r="14.4" fill="#ff0000" fill-rule="evenodd" fill-opacity="1" stroke="#000000" stroke-opacity="1" stroke-width="3.2"/>
<circle clip-path="url(#clip392)" cx="1562.84" cy="806.642" r="14.4" fill="#ff0000" fill-rule="evenodd" fill-opacity="1" stroke="#000000" stroke-opacity="1" stroke-width="3.2"/>
<path clip-path="url(#clip390)" d="M376.019 322.316 L756.885 322.316 L756.885 166.796 L376.019 166.796  Z" fill="#ffffff" fill-rule="evenodd" fill-opacity="1"/>
<polyline clip-path="url(#clip390)" style="stroke:#000000; stroke-linecap:round; stroke-linejoin:round; stroke-width:4; stroke-opacity:1; fill:none" points="376.019,322.316 756.885,322.316 756.885,166.796 376.019,166.796 376.019,322.316 "/>
<circle clip-path="url(#clip390)" cx="464.007" cy="218.636" r="20.48" fill="#009af9" fill-rule="evenodd" fill-opacity="1" stroke="#000000" stroke-opacity="1" stroke-width="4.55111"/>
<path clip-path="url(#clip390)" d="M551.996 201.356 L581.232 201.356 L581.232 205.291 L568.963 205.291 L568.963 235.916 L564.264 235.916 L564.264 205.291 L551.996 205.291 L551.996 201.356 Z" fill="#000000" fill-rule="nonzero" fill-opacity="1" /><path clip-path="url(#clip390)" d="M593.616 213.971 Q592.898 213.555 592.042 213.37 Q591.208 213.161 590.19 213.161 Q586.579 213.161 584.634 215.522 Q582.713 217.86 582.713 222.258 L582.713 235.916 L578.431 235.916 L578.431 209.99 L582.713 209.99 L582.713 214.018 Q584.056 211.657 586.208 210.522 Q588.361 209.365 591.44 209.365 Q591.88 209.365 592.412 209.434 Q592.944 209.481 593.593 209.596 L593.616 213.971 Z" fill="#000000" fill-rule="nonzero" fill-opacity="1" /><path clip-path="url(#clip390)" d="M609.866 222.883 Q604.704 222.883 602.713 224.064 Q600.722 225.244 600.722 228.092 Q600.722 230.36 602.204 231.703 Q603.708 233.022 606.278 233.022 Q609.819 233.022 611.949 230.522 Q614.102 227.999 614.102 223.832 L614.102 222.883 L609.866 222.883 M618.361 221.124 L618.361 235.916 L614.102 235.916 L614.102 231.981 Q612.643 234.342 610.467 235.476 Q608.292 236.587 605.143 236.587 Q601.162 236.587 598.801 234.365 Q596.463 232.119 596.463 228.369 Q596.463 223.994 599.38 221.772 Q602.319 219.55 608.13 219.55 L614.102 219.55 L614.102 219.133 Q614.102 216.194 612.157 214.596 Q610.236 212.976 606.741 212.976 Q604.518 212.976 602.412 213.508 Q600.305 214.041 598.361 215.106 L598.361 211.17 Q600.699 210.268 602.898 209.828 Q605.097 209.365 607.18 209.365 Q612.805 209.365 615.583 212.282 Q618.361 215.198 618.361 221.124 Z" fill="#000000" fill-rule="nonzero" fill-opacity="1" /><path clip-path="url(#clip390)" d="M627.134 209.99 L631.393 209.99 L631.393 235.916 L627.134 235.916 L627.134 209.99 M627.134 199.897 L631.393 199.897 L631.393 205.291 L627.134 205.291 L627.134 199.897 Z" fill="#000000" fill-rule="nonzero" fill-opacity="1" /><path clip-path="url(#clip390)" d="M661.856 220.268 L661.856 235.916 L657.597 235.916 L657.597 220.407 Q657.597 216.726 656.162 214.897 Q654.726 213.069 651.856 213.069 Q648.407 213.069 646.416 215.268 Q644.426 217.467 644.426 221.263 L644.426 235.916 L640.143 235.916 L640.143 209.99 L644.426 209.99 L644.426 214.018 Q645.953 211.68 648.014 210.522 Q650.097 209.365 652.805 209.365 Q657.273 209.365 659.564 212.143 Q661.856 214.897 661.856 220.268 Z" fill="#000000" fill-rule="nonzero" fill-opacity="1" /><path clip-path="url(#clip390)" d="M670.351 209.99 L674.611 209.99 L674.611 235.916 L670.351 235.916 L670.351 209.99 M670.351 199.897 L674.611 199.897 L674.611 205.291 L670.351 205.291 L670.351 199.897 Z" fill="#000000" fill-rule="nonzero" fill-opacity="1" /><path clip-path="url(#clip390)" d="M705.073 220.268 L705.073 235.916 L700.814 235.916 L700.814 220.407 Q700.814 216.726 699.379 214.897 Q697.944 213.069 695.073 213.069 Q691.624 213.069 689.634 215.268 Q687.643 217.467 687.643 221.263 L687.643 235.916 L683.361 235.916 L683.361 209.99 L687.643 209.99 L687.643 214.018 Q689.171 211.68 691.231 210.522 Q693.314 209.365 696.023 209.365 Q700.49 209.365 702.782 212.143 Q705.073 214.897 705.073 220.268 Z" fill="#000000" fill-rule="nonzero" fill-opacity="1" /><path clip-path="url(#clip390)" d="M730.629 222.652 Q730.629 218.022 728.708 215.476 Q726.809 212.93 723.36 212.93 Q719.934 212.93 718.013 215.476 Q716.115 218.022 716.115 222.652 Q716.115 227.258 718.013 229.805 Q719.934 232.351 723.36 232.351 Q726.809 232.351 728.708 229.805 Q730.629 227.258 730.629 222.652 M734.888 232.698 Q734.888 239.318 731.948 242.536 Q729.008 245.777 722.944 245.777 Q720.698 245.777 718.708 245.43 Q716.717 245.105 714.842 244.411 L714.842 240.268 Q716.717 241.286 718.546 241.772 Q720.374 242.258 722.272 242.258 Q726.462 242.258 728.546 240.059 Q730.629 237.883 730.629 233.462 L730.629 231.356 Q729.309 233.647 727.249 234.781 Q725.189 235.916 722.319 235.916 Q717.55 235.916 714.634 232.281 Q711.717 228.647 711.717 222.652 Q711.717 216.633 714.634 212.999 Q717.55 209.365 722.319 209.365 Q725.189 209.365 727.249 210.499 Q729.309 211.633 730.629 213.925 L730.629 209.99 L734.888 209.99 L734.888 232.698 Z" fill="#000000" fill-rule="nonzero" fill-opacity="1" /><circle clip-path="url(#clip390)" cx="464.007" cy="270.476" r="20.48" fill="#ff0000" fill-rule="evenodd" fill-opacity="1" stroke="#000000" stroke-opacity="1" stroke-width="4.55111"/>
<path clip-path="url(#clip390)" d="M551.996 253.196 L581.232 253.196 L581.232 257.131 L568.963 257.131 L568.963 287.756 L564.264 287.756 L564.264 257.131 L551.996 257.131 L551.996 253.196 Z" fill="#000000" fill-rule="nonzero" fill-opacity="1" /><path clip-path="url(#clip390)" d="M599.68 273.728 L599.68 275.811 L580.097 275.811 Q580.375 280.209 582.736 282.524 Q585.12 284.816 589.356 284.816 Q591.81 284.816 594.102 284.214 Q596.417 283.612 598.685 282.409 L598.685 286.436 Q596.393 287.408 593.986 287.918 Q591.579 288.427 589.102 288.427 Q582.898 288.427 579.264 284.816 Q575.653 281.205 575.653 275.047 Q575.653 268.682 579.079 264.955 Q582.528 261.205 588.361 261.205 Q593.593 261.205 596.625 264.585 Q599.68 267.941 599.68 273.728 M595.421 272.478 Q595.375 268.983 593.454 266.899 Q591.556 264.816 588.407 264.816 Q584.843 264.816 582.69 266.83 Q580.56 268.844 580.236 272.501 L595.421 272.478 Z" fill="#000000" fill-rule="nonzero" fill-opacity="1" /><path clip-path="url(#clip390)" d="M623.199 262.594 L623.199 266.622 Q621.393 265.696 619.449 265.233 Q617.504 264.77 615.421 264.77 Q612.25 264.77 610.653 265.742 Q609.079 266.714 609.079 268.659 Q609.079 270.14 610.213 270.997 Q611.347 271.83 614.773 272.594 L616.231 272.918 Q620.768 273.89 622.666 275.672 Q624.588 277.432 624.588 280.603 Q624.588 284.214 621.717 286.321 Q618.87 288.427 613.87 288.427 Q611.787 288.427 609.518 288.01 Q607.273 287.617 604.773 286.807 L604.773 282.409 Q607.134 283.635 609.426 284.26 Q611.717 284.862 613.963 284.862 Q616.972 284.862 618.592 283.844 Q620.213 282.802 620.213 280.927 Q620.213 279.191 619.032 278.265 Q617.875 277.339 613.917 276.483 L612.435 276.135 Q608.477 275.302 606.717 273.589 Q604.958 271.853 604.958 268.844 Q604.958 265.186 607.551 263.196 Q610.143 261.205 614.912 261.205 Q617.273 261.205 619.356 261.552 Q621.44 261.899 623.199 262.594 Z" fill="#000000" fill-rule="nonzero" fill-opacity="1" /><path clip-path="url(#clip390)" d="M635.583 254.469 L635.583 261.83 L644.356 261.83 L644.356 265.14 L635.583 265.14 L635.583 279.214 Q635.583 282.385 636.44 283.288 Q637.319 284.191 639.981 284.191 L644.356 284.191 L644.356 287.756 L639.981 287.756 Q635.051 287.756 633.176 285.927 Q631.301 284.075 631.301 279.214 L631.301 265.14 L628.176 265.14 L628.176 261.83 L631.301 261.83 L631.301 254.469 L635.583 254.469 Z" fill="#000000" fill-rule="nonzero" fill-opacity="1" /></svg>
