<?xml version="1.0" encoding="utf-8"?>
<svg xmlns="http://www.w3.org/2000/svg" xmlns:xlink="http://www.w3.org/1999/xlink" width="600" height="400" viewBox="0 0 2400 1600">
<defs>
  <clipPath id="clip380">
    <rect x="0" y="0" width="2400" height="1600"/>
  </clipPath>
</defs>
<path clip-path="url(#clip380)" d="M0 1600 L2400 1600 L2400 0 L0 0  Z" fill="#ffffff" fill-rule="evenodd" fill-opacity="1"/>
<defs>
  <clipPath id="clip381">
    <rect x="340" y="123" width="2013" height="1299"/>
  </clipPath>
</defs>
<path clip-path="url(#clip380)" d="M340.514 1421.43 L2352.76 1421.43 L2352.76 123.472 L340.514 123.472  Z" fill="#ffffff" fill-rule="evenodd" fill-opacity="1"/>
<polyline clip-path="url(#clip381)" style="stroke:#000000; stroke-linecap:round; stroke-linejoin:round; stroke-width:2; stroke-opacity:0.1; fill:none" points="600.431,1421.43 600.431,123.472 "/>
<polyline clip-path="url(#clip381)" style="stroke:#000000; stroke-linecap:round; stroke-linejoin:round; stroke-width:2; stroke-opacity:0.1; fill:none" points="973.533,1421.43 973.533,123.472 "/>
<polyline clip-path="url(#clip381)" style="stroke:#000000; stroke-linecap:round; stroke-linejoin:round; stroke-width:2; stroke-opacity:0.1; fill:none" points="1346.63,1421.43 1346.63,123.472 "/>
<polyline clip-path="url(#clip381)" style="stroke:#000000; stroke-linecap:round; stroke-linejoin:round; stroke-width:2; stroke-opacity:0.1; fill:none" points="1719.74,1421.43 1719.74,123.472 "/>
<polyline clip-path="url(#clip381)" style="stroke:#000000; stroke-linecap:round; stroke-linejoin:round; stroke-width:2; stroke-opacity:0.1; fill:none" points="2092.84,1421.43 2092.84,123.472 "/>
<polyline clip-path="url(#clip381)" style="stroke:#000000; stroke-linecap:round; stroke-linejoin:round; stroke-width:2; stroke-opacity:0.1; fill:none" points="340.514,1421.43 2352.76,1421.43 "/>
<polyline clip-path="url(#clip381)" style="stroke:#000000; stroke-linecap:round; stroke-linejoin:round; stroke-width:2; stroke-opacity:0.1; fill:none" points="340.514,1223.2 2352.76,1223.2 "/>
<polyline clip-path="url(#clip381)" style="stroke:#000000; stroke-linecap:round; stroke-linejoin:round; stroke-width:2; stroke-opacity:0.1; fill:none" points="340.514,1024.98 2352.76,1024.98 "/>
<polyline clip-path="url(#clip381)" style="stroke:#000000; stroke-linecap:round; stroke-linejoin:round; stroke-width:2; stroke-opacity:0.1; fill:none" points="340.514,826.751 2352.76,826.751 "/>
<polyline clip-path="url(#clip381)" style="stroke:#000000; stroke-linecap:round; stroke-linejoin:round; stroke-width:2; stroke-opacity:0.1; fill:none" points="340.514,628.525 2352.76,628.525 "/>
<polyline clip-path="url(#clip381)" style="stroke:#000000; stroke-linecap:round; stroke-linejoin:round; stroke-width:2; stroke-opacity:0.1; fill:none" points="340.514,430.299 2352.76,430.299 "/>
<polyline clip-path="url(#clip381)" style="stroke:#000000; stroke-linecap:round; stroke-linejoin:round; stroke-width:2; stroke-opacity:0.1; fill:none" points="340.514,232.073 2352.76,232.073 "/>
<polyline clip-path="url(#clip380)" style="stroke:#000000; stroke-linecap:round; stroke-linejoin:round; stroke-width:4; stroke-opacity:1; fill:none" points="340.514,1421.43 2352.76,1421.43 "/>
<polyline clip-path="url(#clip380)" style="stroke:#000000; stroke-linecap:round; stroke-linejoin:round; stroke-width:4; stroke-opacity:1; fill:none" points="600.431,1421.43 600.431,1402.53 "/>
<polyline clip-path="url(#clip380)" style="stroke:#000000; stroke-linecap:round; stroke-linejoin:round; stroke-width:4; stroke-opacity:1; fill:none" points="973.533,1421.43 973.533,1402.53 "/>
<polyline clip-path="url(#clip380)" style="stroke:#000000; stroke-linecap:round; stroke-linejoin:round; stroke-width:4; stroke-opacity:1; fill:none" points="1346.63,1421.43 1346.63,1402.53 "/>
<polyline clip-path="url(#clip380)" style="stroke:#000000; stroke-linecap:round; stroke-linejoin:round; stroke-width:4; stroke-opacity:1; fill:none" points="1719.74,1421.43 1719.74,1402.53 "/>
<polyline clip-path="url(#clip380)" style="stroke:#000000; stroke-linecap:round; stroke-linejoin:round; stroke-width:4; stroke-opacity:1; fill:none" points="2092.84,1421.43 2092.84,1402.53 "/>
<path clip-path="url(#clip380)" d="M595.791 1482.47 L601.192 1477.07 L582.549 1458.43 L577.852 1465.48 L574.84 1462.47 L579.505 1455.45 L582.811 1452.14 L604.466 1473.8 L609.868 1468.39 L612.65 1471.18 L598.574 1485.25 L595.791 1482.47 Z" fill="#000000" fill-rule="nonzero" fill-opacity="1" /><path clip-path="url(#clip380)" d="M971.43 1479.93 L982.969 1468.39 L985.752 1471.18 L970.235 1486.69 L967.452 1483.91 Q967.387 1480.08 967.354 1473.57 Q967.321 1467.02 967.207 1465.24 Q967.01 1461.86 966.405 1460.01 Q965.799 1458.13 964.604 1456.94 Q962.656 1454.99 960.054 1455.14 Q957.468 1455.27 955.274 1457.46 Q953.719 1459.02 952.525 1461.29 Q951.346 1463.55 950.479 1466.61 L947.139 1463.27 Q948.334 1460.47 949.66 1458.33 Q950.986 1456.18 952.426 1454.74 Q956.224 1450.95 960.381 1450.59 Q964.539 1450.23 967.714 1453.4 Q969.22 1454.91 970.006 1456.84 Q970.791 1458.74 971.135 1462.06 Q971.201 1462.94 971.282 1467.41 Q971.348 1471.86 971.43 1479.93 Z" fill="#000000" fill-rule="nonzero" fill-opacity="1" /><path clip-path="url(#clip380)" d="M1340.64 1463.04 Q1343.52 1461.18 1346.45 1461.45 Q1349.39 1461.72 1351.75 1464.07 Q1355.37 1467.69 1354.86 1472.16 Q1354.35 1476.63 1349.77 1481.21 Q1348.23 1482.75 1346.28 1484.07 Q1344.37 1485.4 1342.03 1486.53 L1338.84 1483.34 Q1341.01 1482.77 1343.06 1481.54 Q1345.1 1480.31 1346.89 1478.53 Q1350 1475.42 1350.39 1472.57 Q1350.8 1469.7 1348.46 1467.36 Q1346.3 1465.2 1343.57 1465.51 Q1340.83 1465.79 1338.13 1468.49 L1335.28 1471.34 L1332.57 1468.62 L1335.55 1465.64 Q1337.98 1463.21 1338.31 1460.95 Q1338.62 1458.67 1336.79 1456.84 Q1334.91 1454.96 1332.57 1455.3 Q1330.23 1455.61 1327.74 1458.1 Q1326.38 1459.46 1325.12 1461.31 Q1323.86 1463.16 1322.61 1465.64 L1319.67 1462.7 Q1321.03 1460.29 1322.4 1458.39 Q1323.79 1456.48 1325.25 1455.02 Q1329.01 1451.26 1332.93 1450.78 Q1336.82 1450.29 1339.74 1453.2 Q1341.77 1455.23 1342.01 1457.8 Q1342.24 1460.36 1340.64 1463.04 Z" fill="#000000" fill-rule="nonzero" fill-opacity="1" /><path clip-path="url(#clip380)" d="M1703.62 1456.4 L1708.32 1477.79 L1716.67 1469.44 L1703.62 1456.4 M1699.87 1454.38 L1704.03 1450.23 L1719.96 1466.15 L1723.44 1462.67 L1726.19 1465.42 L1722.71 1468.9 L1728.47 1474.66 L1725.18 1477.95 L1719.42 1472.19 L1708.39 1483.22 L1705.19 1480.03 L1699.87 1454.38 Z" fill="#000000" fill-rule="nonzero" fill-opacity="1" /><path clip-path="url(#clip380)" d="M2065.84 1461.52 L2078.82 1448.54 L2081.6 1451.32 L2071.65 1461.27 L2077.64 1467.26 Q2078.12 1466.3 2078.72 1465.46 Q2079.31 1464.61 2080.03 1463.89 Q2084.12 1459.8 2088.75 1459.65 Q2093.39 1459.51 2097.22 1463.34 Q2101.16 1467.28 2100.9 1471.93 Q2100.62 1476.56 2096.15 1481.03 Q2094.61 1482.57 2092.75 1483.91 Q2090.9 1485.24 2088.67 1486.42 L2085.35 1483.09 Q2087.63 1482.42 2089.59 1481.24 Q2091.55 1480.06 2093.3 1478.31 Q2096.14 1475.48 2096.3 1472.34 Q2096.46 1469.2 2093.91 1466.64 Q2091.36 1464.09 2088.21 1464.25 Q2085.07 1464.42 2082.24 1467.25 Q2080.91 1468.57 2079.88 1470.19 Q2078.87 1471.8 2078.12 1473.8 L2065.84 1461.52 Z" fill="#000000" fill-rule="nonzero" fill-opacity="1" /><path clip-path="url(#clip380)" d="M1116.8 1521.4 L1144.11 1521.4 L1144.11 1526.81 L1123.23 1526.81 L1123.23 1540.81 L1142.07 1540.81 L1142.07 1546.23 L1123.23 1546.23 L1123.23 1568.92 L1116.8 1568.92 L1116.8 1521.4 Z" fill="#000000" fill-rule="nonzero" fill-opacity="1" /><path clip-path="url(#clip380)" d="M1165.53 1537.38 Q1160.82 1537.38 1158.08 1541.07 Q1155.35 1544.73 1155.35 1551.13 Q1155.35 1557.52 1158.05 1561.22 Q1160.79 1564.88 1165.53 1564.88 Q1170.21 1564.88 1172.95 1561.18 Q1175.68 1557.49 1175.68 1551.13 Q1175.68 1544.79 1172.95 1541.1 Q1170.21 1537.38 1165.53 1537.38 M1165.53 1532.41 Q1173.17 1532.41 1177.53 1537.38 Q1181.89 1542.34 1181.89 1551.13 Q1181.89 1559.88 1177.53 1564.88 Q1173.17 1569.84 1165.53 1569.84 Q1157.86 1569.84 1153.5 1564.88 Q1149.17 1559.88 1149.17 1551.13 Q1149.17 1542.34 1153.5 1537.38 Q1157.86 1532.41 1165.53 1532.41 Z" fill="#000000" fill-rule="nonzero" fill-opacity="1" /><path clip-path="url(#clip380)" d="M1191.6 1519.39 L1197.45 1519.39 L1197.45 1568.92 L1191.6 1568.92 L1191.6 1519.39 Z" fill="#000000" fill-rule="nonzero" fill-opacity="1" /><path clip-path="url(#clip380)" d="M1233.17 1538.68 L1233.17 1519.39 L1239.02 1519.39 L1239.02 1568.92 L1233.17 1568.92 L1233.17 1563.57 Q1231.32 1566.75 1228.49 1568.31 Q1225.69 1569.84 1221.74 1569.84 Q1215.28 1569.84 1211.2 1564.69 Q1207.16 1559.53 1207.16 1551.13 Q1207.16 1542.72 1211.2 1537.57 Q1215.28 1532.41 1221.74 1532.41 Q1225.69 1532.41 1228.49 1533.97 Q1231.32 1535.5 1233.17 1538.68 M1213.21 1551.13 Q1213.21 1557.59 1215.85 1561.28 Q1218.52 1564.94 1223.17 1564.94 Q1227.82 1564.94 1230.49 1561.28 Q1233.17 1557.59 1233.17 1551.13 Q1233.17 1544.67 1230.49 1541.01 Q1227.82 1537.31 1223.17 1537.31 Q1218.52 1537.31 1215.85 1541.01 Q1213.21 1544.67 1213.21 1551.13 Z" fill="#000000" fill-rule="nonzero" fill-opacity="1" /><path clip-path="url(#clip380)" d="M1282.21 1521.4 L1287.62 1521.4 L1271.07 1574.97 L1265.66 1574.97 L1282.21 1521.4 Z" fill="#000000" fill-rule="nonzero" fill-opacity="1" /><path clip-path="url(#clip380)" d="M1314.74 1521.4 L1324.32 1521.4 L1336.45 1553.74 L1348.64 1521.4 L1358.22 1521.4 L1358.22 1568.92 L1351.95 1568.92 L1351.95 1527.19 L1339.7 1559.78 L1333.24 1559.78 L1320.98 1527.19 L1320.98 1568.92 L1314.74 1568.92 L1314.74 1521.4 Z" fill="#000000" fill-rule="nonzero" fill-opacity="1" /><path clip-path="url(#clip380)" d="M1401.22 1549.63 L1401.22 1552.5 L1374.29 1552.5 Q1374.68 1558.54 1377.92 1561.73 Q1381.2 1564.88 1387.03 1564.88 Q1390.4 1564.88 1393.55 1564.05 Q1396.73 1563.22 1399.85 1561.57 L1399.85 1567.1 Q1396.7 1568.44 1393.39 1569.14 Q1390.08 1569.84 1386.68 1569.84 Q1378.15 1569.84 1373.15 1564.88 Q1368.18 1559.91 1368.18 1551.44 Q1368.18 1542.69 1372.89 1537.57 Q1377.64 1532.41 1385.66 1532.41 Q1392.85 1532.41 1397.02 1537.06 Q1401.22 1541.67 1401.22 1549.63 M1395.36 1547.91 Q1395.3 1543.11 1392.66 1540.24 Q1390.05 1537.38 1385.72 1537.38 Q1380.82 1537.38 1377.86 1540.15 Q1374.93 1542.91 1374.48 1547.94 L1395.36 1547.91 Z" fill="#000000" fill-rule="nonzero" fill-opacity="1" /><path clip-path="url(#clip380)" d="M1438.59 1540.11 Q1440.78 1536.17 1443.84 1534.29 Q1446.89 1532.41 1451.03 1532.41 Q1456.6 1532.41 1459.63 1536.33 Q1462.65 1540.21 1462.65 1547.4 L1462.65 1568.92 L1456.76 1568.92 L1456.76 1547.59 Q1456.76 1542.47 1454.95 1539.99 Q1453.13 1537.5 1449.41 1537.5 Q1444.86 1537.5 1442.22 1540.53 Q1439.57 1543.55 1439.57 1548.77 L1439.57 1568.92 L1433.69 1568.92 L1433.69 1547.59 Q1433.69 1542.44 1431.87 1539.99 Q1430.06 1537.5 1426.27 1537.5 Q1421.78 1537.5 1419.14 1540.56 Q1416.5 1543.58 1416.5 1548.77 L1416.5 1568.92 L1410.61 1568.92 L1410.61 1533.27 L1416.5 1533.27 L1416.5 1538.81 Q1418.5 1535.53 1421.3 1533.97 Q1424.11 1532.41 1427.96 1532.41 Q1431.84 1532.41 1434.55 1534.38 Q1437.28 1536.36 1438.59 1540.11 Z" fill="#000000" fill-rule="nonzero" fill-opacity="1" /><path clip-path="url(#clip380)" d="M1499.92 1551.13 Q1499.92 1544.67 1497.25 1541.01 Q1494.61 1537.31 1489.96 1537.31 Q1485.31 1537.31 1482.64 1541.01 Q1480 1544.67 1480 1551.13 Q1480 1557.59 1482.64 1561.28 Q1485.31 1564.94 1489.96 1564.94 Q1494.61 1564.94 1497.25 1561.28 Q1499.92 1557.59 1499.92 1551.13 M1480 1538.68 Q1481.84 1535.5 1484.64 1533.97 Q1487.48 1532.41 1491.39 1532.41 Q1497.88 1532.41 1501.93 1537.57 Q1506 1542.72 1506 1551.13 Q1506 1559.53 1501.93 1564.69 Q1497.88 1569.84 1491.39 1569.84 Q1487.48 1569.84 1484.64 1568.31 Q1481.84 1566.75 1480 1563.57 L1480 1568.92 L1474.11 1568.92 L1474.11 1519.39 L1480 1519.39 L1480 1538.68 Z" fill="#000000" fill-rule="nonzero" fill-opacity="1" /><path clip-path="url(#clip380)" d="M1546.2 1549.63 L1546.2 1552.5 L1519.27 1552.5 Q1519.65 1558.54 1522.9 1561.73 Q1526.18 1564.88 1532 1564.88 Q1535.38 1564.88 1538.53 1564.05 Q1541.71 1563.22 1544.83 1561.57 L1544.83 1567.1 Q1541.68 1568.44 1538.37 1569.14 Q1535.06 1569.84 1531.65 1569.84 Q1523.12 1569.84 1518.13 1564.88 Q1513.16 1559.91 1513.16 1551.44 Q1513.16 1542.69 1517.87 1537.57 Q1522.61 1532.41 1530.64 1532.41 Q1537.83 1532.41 1542 1537.06 Q1546.2 1541.67 1546.2 1549.63 M1540.34 1547.91 Q1540.28 1543.11 1537.64 1540.24 Q1535.03 1537.38 1530.7 1537.38 Q1525.8 1537.38 1522.84 1540.15 Q1519.91 1542.91 1519.46 1547.94 L1540.34 1547.91 Z" fill="#000000" fill-rule="nonzero" fill-opacity="1" /><path clip-path="url(#clip380)" d="M1576.47 1538.75 Q1575.48 1538.17 1574.3 1537.92 Q1573.16 1537.63 1571.76 1537.63 Q1566.79 1537.63 1564.12 1540.88 Q1561.48 1544.09 1561.48 1550.14 L1561.48 1568.92 L1555.59 1568.92 L1555.59 1533.27 L1561.48 1533.27 L1561.48 1538.81 Q1563.32 1535.56 1566.28 1534 Q1569.24 1532.41 1573.48 1532.41 Q1574.08 1532.41 1574.81 1532.51 Q1575.55 1532.57 1576.44 1532.73 L1576.47 1538.75 Z" fill="#000000" fill-rule="nonzero" fill-opacity="1" /><polyline clip-path="url(#clip380)" style="stroke:#000000; stroke-linecap:round; stroke-linejoin:round; stroke-width:4; stroke-opacity:1; fill:none" points="340.514,1421.43 340.514,123.472 "/>
<polyline clip-path="url(#clip380)" style="stroke:#000000; stroke-linecap:round; stroke-linejoin:round; stroke-width:4; stroke-opacity:1; fill:none" points="340.514,1421.43 359.411,1421.43 "/>
<polyline clip-path="url(#clip380)" style="stroke:#000000; stroke-linecap:round; stroke-linejoin:round; stroke-width:4; stroke-opacity:1; fill:none" points="340.514,1223.2 359.411,1223.2 "/>
<polyline clip-path="url(#clip380)" style="stroke:#000000; stroke-linecap:round; stroke-linejoin:round; stroke-width:4; stroke-opacity:1; fill:none" points="340.514,1024.98 359.411,1024.98 "/>
<polyline clip-path="url(#clip380)" style="stroke:#000000; stroke-linecap:round; stroke-linejoin:round; stroke-width:4; stroke-opacity:1; fill:none" points="340.514,826.751 359.411,826.751 "/>
<polyline clip-path="url(#clip380)" style="stroke:#000000; stroke-linecap:round; stroke-linejoin:round; stroke-width:4; stroke-opacity:1; fill:none" points="340.514,628.525 359.411,628.525 "/>
<polyline clip-path="url(#clip380)" style="stroke:#000000; stroke-linecap:round; stroke-linejoin:round; stroke-width:4; stroke-opacity:1; fill:none" points="340.514,430.299 359.411,430.299 "/>
<polyline clip-path="url(#clip380)" style="stroke:#000000; stroke-linecap:round; stroke-linejoin:round; stroke-width:4; stroke-opacity:1; fill:none" points="340.514,232.073 359.411,232.073 "/>
<path clip-path="url(#clip380)" d="M126.691 1407.23 Q123.08 1407.23 121.251 1410.79 Q119.445 1414.34 119.445 1421.46 Q119.445 1428.57 121.251 1432.14 Q123.08 1435.68 126.691 1435.68 Q130.325 1435.68 132.13 1432.14 Q133.959 1428.57 133.959 1421.46 Q133.959 1414.34 132.13 1410.79 Q130.325 1407.23 126.691 1407.23 M126.691 1403.52 Q132.501 1403.52 135.556 1408.13 Q138.635 1412.71 138.635 1421.46 Q138.635 1430.19 135.556 1434.8 Q132.501 1439.38 126.691 1439.38 Q120.88 1439.38 117.802 1434.8 Q114.746 1430.19 114.746 1421.46 Q114.746 1412.71 117.802 1408.13 Q120.88 1403.52 126.691 1403.52 Z" fill="#000000" fill-rule="nonzero" fill-opacity="1" /><path clip-path="url(#clip380)" d="M146.853 1432.83 L151.737 1432.83 L151.737 1438.71 L146.853 1438.71 L146.853 1432.83 Z" fill="#000000" fill-rule="nonzero" fill-opacity="1" /><path clip-path="url(#clip380)" d="M171.922 1407.23 Q168.311 1407.23 166.482 1410.79 Q164.677 1414.34 164.677 1421.46 Q164.677 1428.57 166.482 1432.14 Q168.311 1435.68 171.922 1435.68 Q175.556 1435.68 177.362 1432.14 Q179.19 1428.57 179.19 1421.46 Q179.19 1414.34 177.362 1410.79 Q175.556 1407.23 171.922 1407.23 M171.922 1403.52 Q177.732 1403.52 180.788 1408.13 Q183.866 1412.71 183.866 1421.46 Q183.866 1430.19 180.788 1434.8 Q177.732 1439.38 171.922 1439.38 Q166.112 1439.38 163.033 1434.8 Q159.978 1430.19 159.978 1421.46 Q159.978 1412.71 163.033 1408.13 Q166.112 1403.52 171.922 1403.52 Z" fill="#000000" fill-rule="nonzero" fill-opacity="1" /><path clip-path="url(#clip380)" d="M202.084 1407.23 Q198.473 1407.23 196.644 1410.79 Q194.838 1414.34 194.838 1421.46 Q194.838 1428.57 196.644 1432.14 Q198.473 1435.68 202.084 1435.68 Q205.718 1435.68 207.524 1432.14 Q209.352 1428.57 209.352 1421.46 Q209.352 1414.34 207.524 1410.79 Q205.718 1407.23 202.084 1407.23 M202.084 1403.52 Q207.894 1403.52 210.949 1408.13 Q214.028 1412.71 214.028 1421.46 Q214.028 1430.19 210.949 1434.8 Q207.894 1439.38 202.084 1439.38 Q196.274 1439.38 193.195 1434.8 Q190.139 1430.19 190.139 1421.46 Q190.139 1412.71 193.195 1408.13 Q196.274 1403.52 202.084 1403.52 Z" fill="#000000" fill-rule="nonzero" fill-opacity="1" /><path clip-path="url(#clip380)" d="M232.246 1407.23 Q228.635 1407.23 226.806 1410.79 Q225 1414.34 225 1421.46 Q225 1428.57 226.806 1432.14 Q228.635 1435.68 232.246 1435.68 Q235.88 1435.68 237.685 1432.14 Q239.514 1428.57 239.514 1421.46 Q239.514 1414.34 237.685 1410.79 Q235.88 1407.23 232.246 1407.23 M232.246 1403.52 Q238.056 1403.52 241.111 1408.13 Q244.19 1412.71 244.19 1421.46 Q244.19 1430.19 241.111 1434.8 Q238.056 1439.38 232.246 1439.38 Q226.435 1439.38 223.357 1434.8 Q220.301 1430.19 220.301 1421.46 Q220.301 1412.71 223.357 1408.13 Q226.435 1403.52 232.246 1403.52 Z" fill="#000000" fill-rule="nonzero" fill-opacity="1" /><path clip-path="url(#clip380)" d="M262.408 1407.23 Q258.796 1407.23 256.968 1410.79 Q255.162 1414.34 255.162 1421.46 Q255.162 1428.57 256.968 1432.14 Q258.796 1435.68 262.408 1435.68 Q266.042 1435.68 267.847 1432.14 Q269.676 1428.57 269.676 1421.46 Q269.676 1414.34 267.847 1410.79 Q266.042 1407.23 262.408 1407.23 M262.408 1403.52 Q268.218 1403.52 271.273 1408.13 Q274.352 1412.71 274.352 1421.46 Q274.352 1430.19 271.273 1434.8 Q268.218 1439.38 262.408 1439.38 Q256.597 1439.38 253.519 1434.8 Q250.463 1430.19 250.463 1421.46 Q250.463 1412.71 253.519 1408.13 Q256.597 1403.52 262.408 1403.52 Z" fill="#000000" fill-rule="nonzero" fill-opacity="1" /><path clip-path="url(#clip380)" d="M292.569 1407.23 Q288.958 1407.23 287.13 1410.79 Q285.324 1414.34 285.324 1421.46 Q285.324 1428.57 287.13 1432.14 Q288.958 1435.68 292.569 1435.68 Q296.204 1435.68 298.009 1432.14 Q299.838 1428.57 299.838 1421.46 Q299.838 1414.34 298.009 1410.79 Q296.204 1407.23 292.569 1407.23 M292.569 1403.52 Q298.38 1403.52 301.435 1408.13 Q304.514 1412.71 304.514 1421.46 Q304.514 1430.19 301.435 1434.8 Q298.38 1439.38 292.569 1439.38 Q286.759 1439.38 283.681 1434.8 Q280.625 1430.19 280.625 1421.46 Q280.625 1412.71 283.681 1408.13 Q286.759 1403.52 292.569 1403.52 Z" fill="#000000" fill-rule="nonzero" fill-opacity="1" /><path clip-path="url(#clip380)" d="M128.288 1209 Q124.677 1209 122.848 1212.57 Q121.043 1216.11 121.043 1223.24 Q121.043 1230.34 122.848 1233.91 Q124.677 1237.45 128.288 1237.45 Q131.922 1237.45 133.728 1233.91 Q135.556 1230.34 135.556 1223.24 Q135.556 1216.11 133.728 1212.57 Q131.922 1209 128.288 1209 M128.288 1205.3 Q134.098 1205.3 137.154 1209.91 Q140.232 1214.49 140.232 1223.24 Q140.232 1231.97 137.154 1236.57 Q134.098 1241.16 128.288 1241.16 Q122.478 1241.16 119.399 1236.57 Q116.343 1231.97 116.343 1223.24 Q116.343 1214.49 119.399 1209.91 Q122.478 1205.3 128.288 1205.3 Z" fill="#000000" fill-rule="nonzero" fill-opacity="1" /><path clip-path="url(#clip380)" d="M148.45 1234.6 L153.334 1234.6 L153.334 1240.48 L148.45 1240.48 L148.45 1234.6 Z" fill="#000000" fill-rule="nonzero" fill-opacity="1" /><path clip-path="url(#clip380)" d="M173.519 1209 Q169.908 1209 168.079 1212.57 Q166.274 1216.11 166.274 1223.24 Q166.274 1230.34 168.079 1233.91 Q169.908 1237.45 173.519 1237.45 Q177.153 1237.45 178.959 1233.91 Q180.788 1230.34 180.788 1223.24 Q180.788 1216.11 178.959 1212.57 Q177.153 1209 173.519 1209 M173.519 1205.3 Q179.329 1205.3 182.385 1209.91 Q185.463 1214.49 185.463 1223.24 Q185.463 1231.97 182.385 1236.57 Q179.329 1241.16 173.519 1241.16 Q167.709 1241.16 164.63 1236.57 Q161.575 1231.97 161.575 1223.24 Q161.575 1214.49 164.63 1209.91 Q167.709 1205.3 173.519 1205.3 Z" fill="#000000" fill-rule="nonzero" fill-opacity="1" /><path clip-path="url(#clip380)" d="M203.681 1209 Q200.07 1209 198.241 1212.57 Q196.436 1216.11 196.436 1223.24 Q196.436 1230.34 198.241 1233.91 Q200.07 1237.45 203.681 1237.45 Q207.315 1237.45 209.121 1233.91 Q210.949 1230.34 210.949 1223.24 Q210.949 1216.11 209.121 1212.57 Q207.315 1209 203.681 1209 M203.681 1205.3 Q209.491 1205.3 212.547 1209.91 Q215.625 1214.49 215.625 1223.24 Q215.625 1231.97 212.547 1236.57 Q209.491 1241.16 203.681 1241.16 Q197.871 1241.16 194.792 1236.57 Q191.737 1231.97 191.737 1223.24 Q191.737 1214.49 194.792 1209.91 Q197.871 1205.3 203.681 1205.3 Z" fill="#000000" fill-rule="nonzero" fill-opacity="1" /><path clip-path="url(#clip380)" d="M233.843 1209 Q230.232 1209 228.403 1212.57 Q226.598 1216.11 226.598 1223.24 Q226.598 1230.34 228.403 1233.91 Q230.232 1237.45 233.843 1237.45 Q237.477 1237.45 239.283 1233.91 Q241.111 1230.34 241.111 1223.24 Q241.111 1216.11 239.283 1212.57 Q237.477 1209 233.843 1209 M233.843 1205.3 Q239.653 1205.3 242.709 1209.91 Q245.787 1214.49 245.787 1223.24 Q245.787 1231.97 242.709 1236.57 Q239.653 1241.16 233.843 1241.16 Q228.033 1241.16 224.954 1236.57 Q221.898 1231.97 221.898 1223.24 Q221.898 1214.49 224.954 1209.91 Q228.033 1205.3 233.843 1205.3 Z" fill="#000000" fill-rule="nonzero" fill-opacity="1" /><path clip-path="url(#clip380)" d="M264.005 1209 Q260.394 1209 258.565 1212.57 Q256.759 1216.11 256.759 1223.24 Q256.759 1230.34 258.565 1233.91 Q260.394 1237.45 264.005 1237.45 Q267.639 1237.45 269.445 1233.91 Q271.273 1230.34 271.273 1223.24 Q271.273 1216.11 269.445 1212.57 Q267.639 1209 264.005 1209 M264.005 1205.3 Q269.815 1205.3 272.87 1209.91 Q275.949 1214.49 275.949 1223.24 Q275.949 1231.97 272.87 1236.57 Q269.815 1241.16 264.005 1241.16 Q258.195 1241.16 255.116 1236.57 Q252.06 1231.97 252.06 1223.24 Q252.06 1214.49 255.116 1209.91 Q258.195 1205.3 264.005 1205.3 Z" fill="#000000" fill-rule="nonzero" fill-opacity="1" /><path clip-path="url(#clip380)" d="M288.194 1236.55 L304.514 1236.55 L304.514 1240.48 L282.569 1240.48 L282.569 1236.55 Q285.231 1233.79 289.815 1229.16 Q294.421 1224.51 295.602 1223.17 Q297.847 1220.65 298.727 1218.91 Q299.63 1217.15 299.63 1215.46 Q299.63 1212.71 297.685 1210.97 Q295.764 1209.23 292.662 1209.23 Q290.463 1209.23 288.009 1210 Q285.579 1210.76 282.801 1212.31 L282.801 1207.59 Q285.625 1206.46 288.079 1205.88 Q290.532 1205.3 292.569 1205.3 Q297.94 1205.3 301.134 1207.98 Q304.329 1210.67 304.329 1215.16 Q304.329 1217.29 303.518 1219.21 Q302.731 1221.11 300.625 1223.7 Q300.046 1224.37 296.944 1227.59 Q293.843 1230.78 288.194 1236.55 Z" fill="#000000" fill-rule="nonzero" fill-opacity="1" /><path clip-path="url(#clip380)" d="M126.205 1010.78 Q122.593 1010.78 120.765 1014.34 Q118.959 1017.88 118.959 1025.01 Q118.959 1032.12 120.765 1035.68 Q122.593 1039.23 126.205 1039.23 Q129.839 1039.23 131.644 1035.68 Q133.473 1032.12 133.473 1025.01 Q133.473 1017.88 131.644 1014.34 Q129.839 1010.78 126.205 1010.78 M126.205 1007.07 Q132.015 1007.07 135.07 1011.68 Q138.149 1016.26 138.149 1025.01 Q138.149 1033.74 135.07 1038.35 Q132.015 1042.93 126.205 1042.93 Q120.394 1042.93 117.316 1038.35 Q114.26 1033.74 114.26 1025.01 Q114.26 1016.26 117.316 1011.68 Q120.394 1007.07 126.205 1007.07 Z" fill="#000000" fill-rule="nonzero" fill-opacity="1" /><path clip-path="url(#clip380)" d="M146.366 1036.38 L151.251 1036.38 L151.251 1042.26 L146.366 1042.26 L146.366 1036.38 Z" fill="#000000" fill-rule="nonzero" fill-opacity="1" /><path clip-path="url(#clip380)" d="M171.436 1010.78 Q167.825 1010.78 165.996 1014.34 Q164.19 1017.88 164.19 1025.01 Q164.19 1032.12 165.996 1035.68 Q167.825 1039.23 171.436 1039.23 Q175.07 1039.23 176.876 1035.68 Q178.704 1032.12 178.704 1025.01 Q178.704 1017.88 176.876 1014.34 Q175.07 1010.78 171.436 1010.78 M171.436 1007.07 Q177.246 1007.07 180.301 1011.68 Q183.38 1016.26 183.38 1025.01 Q183.38 1033.74 180.301 1038.35 Q177.246 1042.93 171.436 1042.93 Q165.626 1042.93 162.547 1038.35 Q159.491 1033.74 159.491 1025.01 Q159.491 1016.26 162.547 1011.68 Q165.626 1007.07 171.436 1007.07 Z" fill="#000000" fill-rule="nonzero" fill-opacity="1" /><path clip-path="url(#clip380)" d="M201.598 1010.78 Q197.987 1010.78 196.158 1014.34 Q194.352 1017.88 194.352 1025.01 Q194.352 1032.12 196.158 1035.68 Q197.987 1039.23 201.598 1039.23 Q205.232 1039.23 207.037 1035.68 Q208.866 1032.12 208.866 1025.01 Q208.866 1017.88 207.037 1014.34 Q205.232 1010.78 201.598 1010.78 M201.598 1007.07 Q207.408 1007.07 210.463 1011.68 Q213.542 1016.26 213.542 1025.01 Q213.542 1033.74 210.463 1038.35 Q207.408 1042.93 201.598 1042.93 Q195.787 1042.93 192.709 1038.35 Q189.653 1033.74 189.653 1025.01 Q189.653 1016.26 192.709 1011.68 Q195.787 1007.07 201.598 1007.07 Z" fill="#000000" fill-rule="nonzero" fill-opacity="1" /><path clip-path="url(#clip380)" d="M231.76 1010.78 Q228.148 1010.78 226.32 1014.34 Q224.514 1017.88 224.514 1025.01 Q224.514 1032.12 226.32 1035.68 Q228.148 1039.23 231.76 1039.23 Q235.394 1039.23 237.199 1035.68 Q239.028 1032.12 239.028 1025.01 Q239.028 1017.88 237.199 1014.34 Q235.394 1010.78 231.76 1010.78 M231.76 1007.07 Q237.57 1007.07 240.625 1011.68 Q243.704 1016.26 243.704 1025.01 Q243.704 1033.74 240.625 1038.35 Q237.57 1042.93 231.76 1042.93 Q225.949 1042.93 222.871 1038.35 Q219.815 1033.74 219.815 1025.01 Q219.815 1016.26 222.871 1011.68 Q225.949 1007.07 231.76 1007.07 Z" fill="#000000" fill-rule="nonzero" fill-opacity="1" /><path clip-path="url(#clip380)" d="M261.921 1010.78 Q258.31 1010.78 256.482 1014.34 Q254.676 1017.88 254.676 1025.01 Q254.676 1032.12 256.482 1035.68 Q258.31 1039.23 261.921 1039.23 Q265.556 1039.23 267.361 1035.68 Q269.19 1032.12 269.19 1025.01 Q269.19 1017.88 267.361 1014.34 Q265.556 1010.78 261.921 1010.78 M261.921 1007.07 Q267.732 1007.07 270.787 1011.68 Q273.866 1016.26 273.866 1025.01 Q273.866 1033.74 270.787 1038.35 Q267.732 1042.93 261.921 1042.93 Q256.111 1042.93 253.033 1038.35 Q249.977 1033.74 249.977 1025.01 Q249.977 1016.26 253.033 1011.68 Q256.111 1007.07 261.921 1007.07 Z" fill="#000000" fill-rule="nonzero" fill-opacity="1" /><path clip-path="url(#clip380)" d="M294.93 1011.77 L283.125 1030.22 L294.93 1030.22 L294.93 1011.77 M293.704 1007.7 L299.583 1007.7 L299.583 1030.22 L304.514 1030.22 L304.514 1034.11 L299.583 1034.11 L299.583 1042.26 L294.93 1042.26 L294.93 1034.11 L279.329 1034.11 L279.329 1029.6 L293.704 1007.7 Z" fill="#000000" fill-rule="nonzero" fill-opacity="1" /><path clip-path="url(#clip380)" d="M126.529 812.55 Q122.918 812.55 121.089 816.115 Q119.283 819.656 119.283 826.786 Q119.283 833.893 121.089 837.457 Q122.918 840.999 126.529 840.999 Q130.163 840.999 131.968 837.457 Q133.797 833.893 133.797 826.786 Q133.797 819.656 131.968 816.115 Q130.163 812.55 126.529 812.55 M126.529 808.846 Q132.339 808.846 135.394 813.453 Q138.473 818.036 138.473 826.786 Q138.473 835.513 135.394 840.119 Q132.339 844.703 126.529 844.703 Q120.718 844.703 117.64 840.119 Q114.584 835.513 114.584 826.786 Q114.584 818.036 117.64 813.453 Q120.718 808.846 126.529 808.846 Z" fill="#000000" fill-rule="nonzero" fill-opacity="1" /><path clip-path="url(#clip380)" d="M146.691 838.152 L151.575 838.152 L151.575 844.031 L146.691 844.031 L146.691 838.152 Z" fill="#000000" fill-rule="nonzero" fill-opacity="1" /><path clip-path="url(#clip380)" d="M171.76 812.55 Q168.149 812.55 166.32 816.115 Q164.515 819.656 164.515 826.786 Q164.515 833.893 166.32 837.457 Q168.149 840.999 171.76 840.999 Q175.394 840.999 177.2 837.457 Q179.028 833.893 179.028 826.786 Q179.028 819.656 177.2 816.115 Q175.394 812.55 171.76 812.55 M171.76 808.846 Q177.57 808.846 180.626 813.453 Q183.704 818.036 183.704 826.786 Q183.704 835.513 180.626 840.119 Q177.57 844.703 171.76 844.703 Q165.95 844.703 162.871 840.119 Q159.815 835.513 159.815 826.786 Q159.815 818.036 162.871 813.453 Q165.95 808.846 171.76 808.846 Z" fill="#000000" fill-rule="nonzero" fill-opacity="1" /><path clip-path="url(#clip380)" d="M201.922 812.55 Q198.311 812.55 196.482 816.115 Q194.676 819.656 194.676 826.786 Q194.676 833.893 196.482 837.457 Q198.311 840.999 201.922 840.999 Q205.556 840.999 207.362 837.457 Q209.19 833.893 209.19 826.786 Q209.19 819.656 207.362 816.115 Q205.556 812.55 201.922 812.55 M201.922 808.846 Q207.732 808.846 210.787 813.453 Q213.866 818.036 213.866 826.786 Q213.866 835.513 210.787 840.119 Q207.732 844.703 201.922 844.703 Q196.112 844.703 193.033 840.119 Q189.977 835.513 189.977 826.786 Q189.977 818.036 193.033 813.453 Q196.112 808.846 201.922 808.846 Z" fill="#000000" fill-rule="nonzero" fill-opacity="1" /><path clip-path="url(#clip380)" d="M232.084 812.55 Q228.473 812.55 226.644 816.115 Q224.838 819.656 224.838 826.786 Q224.838 833.893 226.644 837.457 Q228.473 840.999 232.084 840.999 Q235.718 840.999 237.523 837.457 Q239.352 833.893 239.352 826.786 Q239.352 819.656 237.523 816.115 Q235.718 812.55 232.084 812.55 M232.084 808.846 Q237.894 808.846 240.949 813.453 Q244.028 818.036 244.028 826.786 Q244.028 835.513 240.949 840.119 Q237.894 844.703 232.084 844.703 Q226.273 844.703 223.195 840.119 Q220.139 835.513 220.139 826.786 Q220.139 818.036 223.195 813.453 Q226.273 808.846 232.084 808.846 Z" fill="#000000" fill-rule="nonzero" fill-opacity="1" /><path clip-path="url(#clip380)" d="M262.245 812.55 Q258.634 812.55 256.806 816.115 Q255 819.656 255 826.786 Q255 833.893 256.806 837.457 Q258.634 840.999 262.245 840.999 Q265.88 840.999 267.685 837.457 Q269.514 833.893 269.514 826.786 Q269.514 819.656 267.685 816.115 Q265.88 812.55 262.245 812.55 M262.245 808.846 Q268.056 808.846 271.111 813.453 Q274.19 818.036 274.19 826.786 Q274.19 835.513 271.111 840.119 Q268.056 844.703 262.245 844.703 Q256.435 844.703 253.357 840.119 Q250.301 835.513 250.301 826.786 Q250.301 818.036 253.357 813.453 Q256.435 808.846 262.245 808.846 Z" fill="#000000" fill-rule="nonzero" fill-opacity="1" /><path clip-path="url(#clip380)" d="M292.986 824.888 Q289.838 824.888 287.986 827.041 Q286.157 829.193 286.157 832.943 Q286.157 836.67 287.986 838.846 Q289.838 840.999 292.986 840.999 Q296.134 840.999 297.963 838.846 Q299.815 836.67 299.815 832.943 Q299.815 829.193 297.963 827.041 Q296.134 824.888 292.986 824.888 M302.268 810.235 L302.268 814.494 Q300.509 813.661 298.704 813.221 Q296.921 812.782 295.162 812.782 Q290.532 812.782 288.079 815.907 Q285.648 819.031 285.301 825.351 Q286.667 823.337 288.727 822.272 Q290.787 821.184 293.264 821.184 Q298.472 821.184 301.481 824.356 Q304.514 827.504 304.514 832.943 Q304.514 838.268 301.366 841.485 Q298.218 844.703 292.986 844.703 Q286.991 844.703 283.819 840.119 Q280.648 835.513 280.648 826.786 Q280.648 818.592 284.537 813.731 Q288.426 808.846 294.977 808.846 Q296.736 808.846 298.518 809.194 Q300.324 809.541 302.268 810.235 Z" fill="#000000" fill-rule="nonzero" fill-opacity="1" /><path clip-path="url(#clip380)" d="M126.783 614.324 Q123.172 614.324 121.343 617.889 Q119.538 621.43 119.538 628.56 Q119.538 635.666 121.343 639.231 Q123.172 642.773 126.783 642.773 Q130.417 642.773 132.223 639.231 Q134.052 635.666 134.052 628.56 Q134.052 621.43 132.223 617.889 Q130.417 614.324 126.783 614.324 M126.783 610.62 Q132.593 610.62 135.649 615.227 Q138.728 619.81 138.728 628.56 Q138.728 637.287 135.649 641.893 Q132.593 646.476 126.783 646.476 Q120.973 646.476 117.894 641.893 Q114.839 637.287 114.839 628.56 Q114.839 619.81 117.894 615.227 Q120.973 610.62 126.783 610.62 Z" fill="#000000" fill-rule="nonzero" fill-opacity="1" /><path clip-path="url(#clip380)" d="M146.945 639.926 L151.829 639.926 L151.829 645.805 L146.945 645.805 L146.945 639.926 Z" fill="#000000" fill-rule="nonzero" fill-opacity="1" /><path clip-path="url(#clip380)" d="M172.014 614.324 Q168.403 614.324 166.575 617.889 Q164.769 621.43 164.769 628.56 Q164.769 635.666 166.575 639.231 Q168.403 642.773 172.014 642.773 Q175.649 642.773 177.454 639.231 Q179.283 635.666 179.283 628.56 Q179.283 621.43 177.454 617.889 Q175.649 614.324 172.014 614.324 M172.014 610.62 Q177.825 610.62 180.88 615.227 Q183.959 619.81 183.959 628.56 Q183.959 637.287 180.88 641.893 Q177.825 646.476 172.014 646.476 Q166.204 646.476 163.126 641.893 Q160.07 637.287 160.07 628.56 Q160.07 619.81 163.126 615.227 Q166.204 610.62 172.014 610.62 Z" fill="#000000" fill-rule="nonzero" fill-opacity="1" /><path clip-path="url(#clip380)" d="M202.176 614.324 Q198.565 614.324 196.737 617.889 Q194.931 621.43 194.931 628.56 Q194.931 635.666 196.737 639.231 Q198.565 642.773 202.176 642.773 Q205.811 642.773 207.616 639.231 Q209.445 635.666 209.445 628.56 Q209.445 621.43 207.616 617.889 Q205.811 614.324 202.176 614.324 M202.176 610.62 Q207.987 610.62 211.042 615.227 Q214.121 619.81 214.121 628.56 Q214.121 637.287 211.042 641.893 Q207.987 646.476 202.176 646.476 Q196.366 646.476 193.288 641.893 Q190.232 637.287 190.232 628.56 Q190.232 619.81 193.288 615.227 Q196.366 610.62 202.176 610.62 Z" fill="#000000" fill-rule="nonzero" fill-opacity="1" /><path clip-path="url(#clip380)" d="M232.338 614.324 Q228.727 614.324 226.898 617.889 Q225.093 621.43 225.093 628.56 Q225.093 635.666 226.898 639.231 Q228.727 642.773 232.338 642.773 Q235.972 642.773 237.778 639.231 Q239.607 635.666 239.607 628.56 Q239.607 621.43 237.778 617.889 Q235.972 614.324 232.338 614.324 M232.338 610.62 Q238.148 610.62 241.204 615.227 Q244.283 619.81 244.283 628.56 Q244.283 637.287 241.204 641.893 Q238.148 646.476 232.338 646.476 Q226.528 646.476 223.449 641.893 Q220.394 637.287 220.394 628.56 Q220.394 619.81 223.449 615.227 Q226.528 610.62 232.338 610.62 Z" fill="#000000" fill-rule="nonzero" fill-opacity="1" /><path clip-path="url(#clip380)" d="M262.5 614.324 Q258.889 614.324 257.06 617.889 Q255.255 621.43 255.255 628.56 Q255.255 635.666 257.06 639.231 Q258.889 642.773 262.5 642.773 Q266.134 642.773 267.94 639.231 Q269.769 635.666 269.769 628.56 Q269.769 621.43 267.94 617.889 Q266.134 614.324 262.5 614.324 M262.5 610.62 Q268.31 610.62 271.366 615.227 Q274.444 619.81 274.444 628.56 Q274.444 637.287 271.366 641.893 Q268.31 646.476 262.5 646.476 Q256.69 646.476 253.611 641.893 Q250.556 637.287 250.556 628.56 Q250.556 619.81 253.611 615.227 Q256.69 610.62 262.5 610.62 Z" fill="#000000" fill-rule="nonzero" fill-opacity="1" /><path clip-path="url(#clip380)" d="M292.662 629.393 Q289.329 629.393 287.407 631.176 Q285.509 632.958 285.509 636.083 Q285.509 639.208 287.407 640.99 Q289.329 642.773 292.662 642.773 Q295.995 642.773 297.917 640.99 Q299.838 639.185 299.838 636.083 Q299.838 632.958 297.917 631.176 Q296.018 629.393 292.662 629.393 M287.986 627.403 Q284.977 626.662 283.287 624.602 Q281.62 622.541 281.62 619.578 Q281.62 615.435 284.56 613.028 Q287.523 610.62 292.662 610.62 Q297.824 610.62 300.764 613.028 Q303.704 615.435 303.704 619.578 Q303.704 622.541 302.014 624.602 Q300.347 626.662 297.361 627.403 Q300.741 628.19 302.616 630.481 Q304.514 632.773 304.514 636.083 Q304.514 641.106 301.435 643.791 Q298.38 646.476 292.662 646.476 Q286.944 646.476 283.866 643.791 Q280.81 641.106 280.81 636.083 Q280.81 632.773 282.708 630.481 Q284.606 628.19 287.986 627.403 M286.273 620.018 Q286.273 622.703 287.94 624.208 Q289.63 625.713 292.662 625.713 Q295.671 625.713 297.361 624.208 Q299.074 622.703 299.074 620.018 Q299.074 617.333 297.361 615.828 Q295.671 614.324 292.662 614.324 Q289.63 614.324 287.94 615.828 Q286.273 617.333 286.273 620.018 Z" fill="#000000" fill-rule="nonzero" fill-opacity="1" /><path clip-path="url(#clip380)" d="M126.691 416.098 Q123.08 416.098 121.251 419.662 Q119.445 423.204 119.445 430.334 Q119.445 437.44 121.251 441.005 Q123.08 444.547 126.691 444.547 Q130.325 444.547 132.13 441.005 Q133.959 437.44 133.959 430.334 Q133.959 423.204 132.13 419.662 Q130.325 416.098 126.691 416.098 M126.691 412.394 Q132.501 412.394 135.556 417 Q138.635 421.584 138.635 430.334 Q138.635 439.061 135.556 443.667 Q132.501 448.25 126.691 448.25 Q120.88 448.25 117.802 443.667 Q114.746 439.061 114.746 430.334 Q114.746 421.584 117.802 417 Q120.88 412.394 126.691 412.394 Z" fill="#000000" fill-rule="nonzero" fill-opacity="1" /><path clip-path="url(#clip380)" d="M146.853 441.699 L151.737 441.699 L151.737 447.579 L146.853 447.579 L146.853 441.699 Z" fill="#000000" fill-rule="nonzero" fill-opacity="1" /><path clip-path="url(#clip380)" d="M171.922 416.098 Q168.311 416.098 166.482 419.662 Q164.677 423.204 164.677 430.334 Q164.677 437.44 166.482 441.005 Q168.311 444.547 171.922 444.547 Q175.556 444.547 177.362 441.005 Q179.19 437.44 179.19 430.334 Q179.19 423.204 177.362 419.662 Q175.556 416.098 171.922 416.098 M171.922 412.394 Q177.732 412.394 180.788 417 Q183.866 421.584 183.866 430.334 Q183.866 439.061 180.788 443.667 Q177.732 448.25 171.922 448.25 Q166.112 448.25 163.033 443.667 Q159.978 439.061 159.978 430.334 Q159.978 421.584 163.033 417 Q166.112 412.394 171.922 412.394 Z" fill="#000000" fill-rule="nonzero" fill-opacity="1" /><path clip-path="url(#clip380)" d="M202.084 416.098 Q198.473 416.098 196.644 419.662 Q194.838 423.204 194.838 430.334 Q194.838 437.44 196.644 441.005 Q198.473 444.547 202.084 444.547 Q205.718 444.547 207.524 441.005 Q209.352 437.44 209.352 430.334 Q209.352 423.204 207.524 419.662 Q205.718 416.098 202.084 416.098 M202.084 412.394 Q207.894 412.394 210.949 417 Q214.028 421.584 214.028 430.334 Q214.028 439.061 210.949 443.667 Q207.894 448.25 202.084 448.25 Q196.274 448.25 193.195 443.667 Q190.139 439.061 190.139 430.334 Q190.139 421.584 193.195 417 Q196.274 412.394 202.084 412.394 Z" fill="#000000" fill-rule="nonzero" fill-opacity="1" /><path clip-path="url(#clip380)" d="M232.246 416.098 Q228.635 416.098 226.806 419.662 Q225 423.204 225 430.334 Q225 437.44 226.806 441.005 Q228.635 444.547 232.246 444.547 Q235.88 444.547 237.685 441.005 Q239.514 437.44 239.514 430.334 Q239.514 423.204 237.685 419.662 Q235.88 416.098 232.246 416.098 M232.246 412.394 Q238.056 412.394 241.111 417 Q244.19 421.584 244.19 430.334 Q244.19 439.061 241.111 443.667 Q238.056 448.25 232.246 448.25 Q226.435 448.25 223.357 443.667 Q220.301 439.061 220.301 430.334 Q220.301 421.584 223.357 417 Q226.435 412.394 232.246 412.394 Z" fill="#000000" fill-rule="nonzero" fill-opacity="1" /><path clip-path="url(#clip380)" d="M253.218 443.644 L260.857 443.644 L260.857 417.278 L252.546 418.945 L252.546 414.686 L260.81 413.019 L265.486 413.019 L265.486 443.644 L273.125 443.644 L273.125 447.579 L253.218 447.579 L253.218 443.644 Z" fill="#000000" fill-rule="nonzero" fill-opacity="1" /><path clip-path="url(#clip380)" d="M292.569 416.098 Q288.958 416.098 287.13 419.662 Q285.324 423.204 285.324 430.334 Q285.324 437.44 287.13 441.005 Q288.958 444.547 292.569 444.547 Q296.204 444.547 298.009 441.005 Q299.838 437.44 299.838 430.334 Q299.838 423.204 298.009 419.662 Q296.204 416.098 292.569 416.098 M292.569 412.394 Q298.38 412.394 301.435 417 Q304.514 421.584 304.514 430.334 Q304.514 439.061 301.435 443.667 Q298.38 448.25 292.569 448.25 Q286.759 448.25 283.681 443.667 Q280.625 439.061 280.625 430.334 Q280.625 421.584 283.681 417 Q286.759 412.394 292.569 412.394 Z" fill="#000000" fill-rule="nonzero" fill-opacity="1" /><path clip-path="url(#clip380)" d="M128.288 217.872 Q124.677 217.872 122.848 221.436 Q121.043 224.978 121.043 232.108 Q121.043 239.214 122.848 242.779 Q124.677 246.32 128.288 246.32 Q131.922 246.32 133.728 242.779 Q135.556 239.214 135.556 232.108 Q135.556 224.978 133.728 221.436 Q131.922 217.872 128.288 217.872 M128.288 214.168 Q134.098 214.168 137.154 218.774 Q140.232 223.358 140.232 232.108 Q140.232 240.834 137.154 245.441 Q134.098 250.024 128.288 250.024 Q122.478 250.024 119.399 245.441 Q116.343 240.834 116.343 232.108 Q116.343 223.358 119.399 218.774 Q122.478 214.168 128.288 214.168 Z" fill="#000000" fill-rule="nonzero" fill-opacity="1" /><path clip-path="url(#clip380)" d="M148.45 243.473 L153.334 243.473 L153.334 249.353 L148.45 249.353 L148.45 243.473 Z" fill="#000000" fill-rule="nonzero" fill-opacity="1" /><path clip-path="url(#clip380)" d="M173.519 217.872 Q169.908 217.872 168.079 221.436 Q166.274 224.978 166.274 232.108 Q166.274 239.214 168.079 242.779 Q169.908 246.32 173.519 246.32 Q177.153 246.32 178.959 242.779 Q180.788 239.214 180.788 232.108 Q180.788 224.978 178.959 221.436 Q177.153 217.872 173.519 217.872 M173.519 214.168 Q179.329 214.168 182.385 218.774 Q185.463 223.358 185.463 232.108 Q185.463 240.834 182.385 245.441 Q179.329 250.024 173.519 250.024 Q167.709 250.024 164.63 245.441 Q161.575 240.834 161.575 232.108 Q161.575 223.358 164.63 218.774 Q167.709 214.168 173.519 214.168 Z" fill="#000000" fill-rule="nonzero" fill-opacity="1" /><path clip-path="url(#clip380)" d="M203.681 217.872 Q200.07 217.872 198.241 221.436 Q196.436 224.978 196.436 232.108 Q196.436 239.214 198.241 242.779 Q200.07 246.32 203.681 246.32 Q207.315 246.32 209.121 242.779 Q210.949 239.214 210.949 232.108 Q210.949 224.978 209.121 221.436 Q207.315 217.872 203.681 217.872 M203.681 214.168 Q209.491 214.168 212.547 218.774 Q215.625 223.358 215.625 232.108 Q215.625 240.834 212.547 245.441 Q209.491 250.024 203.681 250.024 Q197.871 250.024 194.792 245.441 Q191.737 240.834 191.737 232.108 Q191.737 223.358 194.792 218.774 Q197.871 214.168 203.681 214.168 Z" fill="#000000" fill-rule="nonzero" fill-opacity="1" /><path clip-path="url(#clip380)" d="M233.843 217.872 Q230.232 217.872 228.403 221.436 Q226.598 224.978 226.598 232.108 Q226.598 239.214 228.403 242.779 Q230.232 246.32 233.843 246.32 Q237.477 246.32 239.283 242.779 Q241.111 239.214 241.111 232.108 Q241.111 224.978 239.283 221.436 Q237.477 217.872 233.843 217.872 M233.843 214.168 Q239.653 214.168 242.709 218.774 Q245.787 223.358 245.787 232.108 Q245.787 240.834 242.709 245.441 Q239.653 250.024 233.843 250.024 Q228.033 250.024 224.954 245.441 Q221.898 240.834 221.898 232.108 Q221.898 223.358 224.954 218.774 Q228.033 214.168 233.843 214.168 Z" fill="#000000" fill-rule="nonzero" fill-opacity="1" /><path clip-path="url(#clip380)" d="M254.815 245.418 L262.454 245.418 L262.454 219.052 L254.144 220.719 L254.144 216.459 L262.408 214.793 L267.083 214.793 L267.083 245.418 L274.722 245.418 L274.722 249.353 L254.815 249.353 L254.815 245.418 Z" fill="#000000" fill-rule="nonzero" fill-opacity="1" /><path clip-path="url(#clip380)" d="M288.194 245.418 L304.514 245.418 L304.514 249.353 L282.569 249.353 L282.569 245.418 Q285.231 242.663 289.815 238.033 Q294.421 233.381 295.602 232.038 Q297.847 229.515 298.727 227.779 Q299.63 226.02 299.63 224.33 Q299.63 221.575 297.685 219.839 Q295.764 218.103 292.662 218.103 Q290.463 218.103 288.009 218.867 Q285.579 219.631 282.801 221.182 L282.801 216.459 Q285.625 215.325 288.079 214.747 Q290.532 214.168 292.569 214.168 Q297.94 214.168 301.134 216.853 Q304.329 219.538 304.329 224.029 Q304.329 226.159 303.518 228.08 Q302.731 229.978 300.625 232.571 Q300.046 233.242 296.944 236.459 Q293.843 239.654 288.194 245.418 Z" fill="#000000" fill-rule="nonzero" fill-opacity="1" /><path clip-path="url(#clip380)" d="M18.0438 829.265 L24.314 829.265 Q22.5634 832.925 21.704 836.172 Q20.8447 839.418 20.8447 842.442 Q20.8447 847.694 22.8817 850.558 Q24.9187 853.391 28.6745 853.391 Q31.8255 853.391 33.4488 851.513 Q35.0402 849.603 36.0269 844.32 L36.8226 840.437 Q38.1912 833.244 41.6605 829.838 Q45.098 826.4 50.8908 826.4 Q57.7976 826.4 61.3624 831.047 Q64.9272 835.662 64.9272 844.606 Q64.9272 847.98 64.1633 851.8 Q63.3994 855.587 61.9035 859.661 L55.2831 859.661 Q57.4793 855.746 58.5933 851.991 Q59.7073 848.235 59.7073 844.606 Q59.7073 839.1 57.543 836.108 Q55.3786 833.116 51.3682 833.116 Q47.8671 833.116 45.8937 835.281 Q43.9204 837.413 42.9337 842.315 L42.1698 846.23 Q40.7375 853.423 37.682 856.637 Q34.6264 859.852 29.1837 859.852 Q22.8817 859.852 19.2532 855.428 Q15.6248 850.972 15.6248 843.174 Q15.6248 839.832 16.2295 836.363 Q16.8343 832.893 18.0438 829.265 Z" fill="#000000" fill-rule="nonzero" fill-opacity="1" /><path clip-path="url(#clip380)" d="M29.7248 790.975 L35.1993 790.975 Q33.8307 793.458 33.1623 795.972 Q32.4621 798.455 32.4621 801.001 Q32.4621 806.699 36.0905 809.85 Q39.6872 813.001 46.212 813.001 Q52.7369 813.001 56.3653 809.85 Q59.9619 806.699 59.9619 801.001 Q59.9619 798.455 59.2935 795.972 Q58.5933 793.458 57.2247 790.975 L62.6355 790.975 Q63.7814 793.426 64.3543 796.068 Q64.9272 798.678 64.9272 801.638 Q64.9272 809.69 59.8664 814.433 Q54.8057 819.175 46.212 819.175 Q37.491 819.175 32.4939 814.401 Q27.4968 809.595 27.4968 801.256 Q27.4968 798.55 28.0697 795.972 Q28.6108 793.394 29.7248 790.975 Z" fill="#000000" fill-rule="nonzero" fill-opacity="1" /><path clip-path="url(#clip380)" d="M32.4621 766.976 Q32.4621 771.687 36.1542 774.424 Q39.8145 777.162 46.212 777.162 Q52.6095 777.162 56.3017 774.456 Q59.9619 771.719 59.9619 766.976 Q59.9619 762.298 56.2698 759.56 Q52.5777 756.823 46.212 756.823 Q39.8781 756.823 36.186 759.56 Q32.4621 762.298 32.4621 766.976 M27.4968 766.976 Q27.4968 759.338 32.4621 754.977 Q37.4273 750.617 46.212 750.617 Q54.9649 750.617 59.9619 754.977 Q64.9272 759.338 64.9272 766.976 Q64.9272 774.647 59.9619 779.008 Q54.9649 783.336 46.212 783.336 Q37.4273 783.336 32.4621 779.008 Q27.4968 774.647 27.4968 766.976 Z" fill="#000000" fill-rule="nonzero" fill-opacity="1" /><path clip-path="url(#clip380)" d="M33.8307 720.252 Q33.2578 721.239 33.0032 722.417 Q32.7167 723.562 32.7167 724.963 Q32.7167 729.928 35.9632 732.602 Q39.1779 735.243 45.2253 735.243 L64.0042 735.243 L64.0042 741.132 L28.3562 741.132 L28.3562 735.243 L33.8944 735.243 Q30.6479 733.397 29.0883 730.437 Q27.4968 727.477 27.4968 723.244 Q27.4968 722.639 27.5923 721.907 Q27.656 721.175 27.8151 720.284 L33.8307 720.252 Z" fill="#000000" fill-rule="nonzero" fill-opacity="1" /><path clip-path="url(#clip380)" d="M44.7161 685.05 L47.5806 685.05 L47.5806 711.977 Q53.6281 711.595 56.8109 708.348 Q59.9619 705.07 59.9619 699.245 Q59.9619 695.872 59.1344 692.721 Q58.3069 689.538 56.6518 686.418 L62.1899 686.418 Q63.5267 689.57 64.227 692.88 Q64.9272 696.19 64.9272 699.595 Q64.9272 708.126 59.9619 713.123 Q54.9967 718.088 46.5303 718.088 Q37.7774 718.088 32.6531 713.377 Q27.4968 708.635 27.4968 700.614 Q27.4968 693.421 32.1438 689.251 Q36.7589 685.05 44.7161 685.05 M42.9973 690.906 Q38.1912 690.97 35.3266 693.612 Q32.4621 696.222 32.4621 700.55 Q32.4621 705.452 35.2312 708.412 Q38.0002 711.34 43.0292 711.786 L42.9973 690.906 Z" fill="#000000" fill-rule="nonzero" fill-opacity="1" /><path clip-path="url(#clip380)" d="M1191.44 16.7545 L1191.44 25.383 Q1187.31 21.5346 1182.61 19.6307 Q1177.96 17.7268 1172.69 17.7268 Q1162.32 17.7268 1156.81 24.0867 Q1151.3 30.4061 1151.3 42.3968 Q1151.3 54.3469 1156.81 60.7069 Q1162.32 67.0263 1172.69 67.0263 Q1177.96 67.0263 1182.61 65.1223 Q1187.31 63.2184 1191.44 59.3701 L1191.44 67.9175 Q1187.15 70.8341 1182.33 72.2924 Q1177.55 73.7508 1172.2 73.7508 Q1158.47 73.7508 1150.57 65.3654 Q1142.67 56.9395 1142.67 42.3968 Q1142.67 27.8135 1150.57 19.4281 Q1158.47 11.0023 1172.2 11.0023 Q1177.63 11.0023 1182.41 12.4606 Q1187.23 13.8784 1191.44 16.7545 Z" fill="#000000" fill-rule="nonzero" fill-opacity="1" /><path clip-path="url(#clip380)" d="M1219.68 72.576 L1196.59 12.096 L1205.14 12.096 L1224.3 63.0159 L1243.5 12.096 L1252.01 12.096 L1228.96 72.576 L1219.68 72.576 Z" fill="#000000" fill-rule="nonzero" fill-opacity="1" /><path clip-path="url(#clip380)" d="M1323.46 14.0809 L1323.46 22.0612 Q1318.81 19.8332 1314.67 18.7395 Q1310.54 17.6457 1306.69 17.6457 Q1300.01 17.6457 1296.36 20.2383 Q1292.76 22.8309 1292.76 27.611 Q1292.76 31.6214 1295.15 33.6873 Q1297.58 35.7128 1304.3 36.9686 L1309.24 37.9813 Q1318.4 39.7232 1322.73 44.1387 Q1327.11 48.5136 1327.11 55.8863 Q1327.11 64.6767 1321.2 69.2137 Q1315.32 73.7508 1303.94 73.7508 Q1299.64 73.7508 1294.78 72.7785 Q1289.96 71.8063 1284.78 69.9024 L1284.78 61.4765 Q1289.76 64.2716 1294.54 65.6895 Q1299.32 67.1073 1303.94 67.1073 Q1310.95 67.1073 1314.75 64.3527 Q1318.56 61.598 1318.56 56.4939 Q1318.56 52.0379 1315.81 49.5264 Q1313.09 47.0148 1306.85 45.759 L1301.87 44.7868 Q1292.72 42.9639 1288.63 39.075 Q1284.53 35.1862 1284.53 28.2591 Q1284.53 20.2383 1290.17 15.6203 Q1295.84 11.0023 1305.76 11.0023 Q1310.01 11.0023 1314.43 11.7719 Q1318.85 12.5416 1323.46 14.0809 Z" fill="#000000" fill-rule="nonzero" fill-opacity="1" /><path clip-path="url(#clip380)" d="M1372.2 28.9478 L1372.2 35.9153 Q1369.04 34.1734 1365.84 33.3227 Q1362.68 32.4315 1359.44 32.4315 Q1352.18 32.4315 1348.17 37.0496 Q1344.16 41.6271 1344.16 49.9314 Q1344.16 58.2358 1348.17 62.8538 Q1352.18 67.4314 1359.44 67.4314 Q1362.68 67.4314 1365.84 66.5807 Q1369.04 65.6895 1372.2 63.9476 L1372.2 70.8341 Q1369.08 72.2924 1365.71 73.0216 Q1362.39 73.7508 1358.63 73.7508 Q1348.38 73.7508 1342.34 67.3098 Q1336.31 60.8689 1336.31 49.9314 Q1336.31 38.832 1342.38 32.472 Q1348.5 26.1121 1359.11 26.1121 Q1362.55 26.1121 1365.84 26.8413 Q1369.12 27.5299 1372.2 28.9478 Z" fill="#000000" fill-rule="nonzero" fill-opacity="1" /><path clip-path="url(#clip380)" d="M1402.74 32.4315 Q1396.74 32.4315 1393.26 37.1306 Q1389.78 41.7891 1389.78 49.9314 Q1389.78 58.0738 1393.22 62.7728 Q1396.7 67.4314 1402.74 67.4314 Q1408.69 67.4314 1412.18 62.7323 Q1415.66 58.0333 1415.66 49.9314 Q1415.66 41.8701 1412.18 37.1711 Q1408.69 32.4315 1402.74 32.4315 M1402.74 26.1121 Q1412.46 26.1121 1418.01 32.4315 Q1423.56 38.7509 1423.56 49.9314 Q1423.56 61.0714 1418.01 67.4314 Q1412.46 73.7508 1402.74 73.7508 Q1392.98 73.7508 1387.43 67.4314 Q1381.92 61.0714 1381.92 49.9314 Q1381.92 38.7509 1387.43 32.4315 Q1392.98 26.1121 1402.74 26.1121 Z" fill="#000000" fill-rule="nonzero" fill-opacity="1" /><path clip-path="url(#clip380)" d="M1462.21 34.1734 Q1460.95 33.4443 1459.45 33.1202 Q1457.99 32.7556 1456.21 32.7556 Q1449.89 32.7556 1446.49 36.8875 Q1443.13 40.9789 1443.13 48.6757 L1443.13 72.576 L1435.63 72.576 L1435.63 27.2059 L1443.13 27.2059 L1443.13 34.2544 Q1445.48 30.1225 1449.24 28.1376 Q1453.01 26.1121 1458.4 26.1121 Q1459.17 26.1121 1460.1 26.2337 Q1461.03 26.3147 1462.17 26.5172 L1462.21 34.1734 Z" fill="#000000" fill-rule="nonzero" fill-opacity="1" /><path clip-path="url(#clip380)" d="M1507.01 48.0275 L1507.01 51.6733 L1472.74 51.6733 Q1473.23 59.3701 1477.36 63.421 Q1481.53 67.4314 1488.94 67.4314 Q1493.24 67.4314 1497.25 66.3781 Q1501.3 65.3249 1505.27 63.2184 L1505.27 70.267 Q1501.26 71.9684 1497.04 72.8596 Q1492.83 73.7508 1488.5 73.7508 Q1477.64 73.7508 1471.28 67.4314 Q1464.96 61.1119 1464.96 50.3365 Q1464.96 39.1965 1470.96 32.6746 Q1476.99 26.1121 1487.2 26.1121 Q1496.36 26.1121 1501.66 32.0264 Q1507.01 37.9003 1507.01 48.0275 M1499.56 45.84 Q1499.48 39.7232 1496.11 36.0774 Q1492.79 32.4315 1487.28 32.4315 Q1481.04 32.4315 1477.28 35.9558 Q1473.55 39.4801 1472.98 45.8805 L1499.56 45.84 Z" fill="#000000" fill-rule="nonzero" fill-opacity="1" /><path clip-path="url(#clip380)" d="M1548.17 28.5427 L1548.17 35.5912 Q1545.01 33.9709 1541.6 33.1607 Q1538.2 32.3505 1534.56 32.3505 Q1529.01 32.3505 1526.21 34.0519 Q1523.46 35.7533 1523.46 39.156 Q1523.46 41.7486 1525.44 43.2475 Q1527.43 44.7058 1533.42 46.0426 L1535.97 46.6097 Q1543.91 48.3111 1547.24 51.4303 Q1550.6 54.509 1550.6 60.0587 Q1550.6 66.3781 1545.57 70.0644 Q1540.59 73.7508 1531.84 73.7508 Q1528.2 73.7508 1524.23 73.0216 Q1520.3 72.3329 1515.92 70.9151 L1515.92 63.2184 Q1520.05 65.3654 1524.06 66.4591 Q1528.07 67.5124 1532 67.5124 Q1537.27 67.5124 1540.11 65.73 Q1542.94 63.9071 1542.94 60.6258 Q1542.94 57.5877 1540.88 55.9673 Q1538.85 54.3469 1531.92 52.8481 L1529.33 52.2405 Q1522.4 50.7821 1519.32 47.7845 Q1516.25 44.7463 1516.25 39.4801 Q1516.25 33.0797 1520.78 29.5959 Q1525.32 26.1121 1533.67 26.1121 Q1537.8 26.1121 1541.44 26.7198 Q1545.09 27.3274 1548.17 28.5427 Z" fill="#000000" fill-rule="nonzero" fill-opacity="1" /><path clip-path="url(#clip381)" d="M451.191 710.132 L451.191 1421.43 L749.672 1421.43 L749.672 710.132 L451.191 710.132 L451.191 710.132  Z" fill="#009af9" fill-rule="evenodd" fill-opacity="1"/>
<polyline clip-path="url(#clip381)" style="stroke:#000000; stroke-linecap:round; stroke-linejoin:round; stroke-width:4; stroke-opacity:1; fill:none" points="451.191,710.132 451.191,1421.43 749.672,1421.43 749.672,710.132 451.191,710.132 "/>
<path clip-path="url(#clip381)" d="M824.292 123.472 L824.292 1421.43 L1122.77 1421.43 L1122.77 123.472 L824.292 123.472 L824.292 123.472  Z" fill="#009af9" fill-rule="evenodd" fill-opacity="1"/>
<polyline clip-path="url(#clip381)" style="stroke:#000000; stroke-linecap:round; stroke-linejoin:round; stroke-width:4; stroke-opacity:1; fill:none" points="824.292,123.472 824.292,1421.43 1122.77,1421.43 1122.77,123.472 824.292,123.472 "/>
<path clip-path="url(#clip381)" d="M1197.39 453.091 L1197.39 1421.43 L1495.88 1421.43 L1495.88 453.091 L1197.39 453.091 L1197.39 453.091  Z" fill="#009af9" fill-rule="evenodd" fill-opacity="1"/>
<polyline clip-path="url(#clip381)" style="stroke:#000000; stroke-linecap:round; stroke-linejoin:round; stroke-width:4; stroke-opacity:1; fill:none" points="1197.39,453.091 1197.39,1421.43 1495.88,1421.43 1495.88,453.091 1197.39,453.091 "/>
<path clip-path="url(#clip381)" d="M1570.5 343.044 L1570.5 1421.43 L1868.98 1421.43 L1868.98 343.044 L1570.5 343.044 L1570.5 343.044  Z" fill="#009af9" fill-rule="evenodd" fill-opacity="1"/>
<polyline clip-path="url(#clip381)" style="stroke:#000000; stroke-linecap:round; stroke-linejoin:round; stroke-width:4; stroke-opacity:1; fill:none" points="1570.5,343.044 1570.5,1421.43 1868.98,1421.43 1868.98,343.044 1570.5,343.044 "/>
<path clip-path="url(#clip381)" d="M1943.6 622.738 L1943.6 1421.43 L2242.08 1421.43 L2242.08 622.738 L1943.6 622.738 L1943.6 622.738  Z" fill="#009af9" fill-rule="evenodd" fill-opacity="1"/>
<polyline clip-path="url(#clip381)" style="stroke:#000000; stroke-linecap:round; stroke-linejoin:round; stroke-width:4; stroke-opacity:1; fill:none" points="1943.6,622.738 1943.6,1421.43 2242.08,1421.43 2242.08,622.738 1943.6,622.738 "/>
<circle clip-path="url(#clip381)" style="fill:#009af9; stroke:none; fill-opacity:0" cx="600.431" cy="710.132" r="2"/>
<circle clip-path="url(#clip381)" style="fill:#009af9; stroke:none; fill-opacity:0" cx="973.533" cy="123.472" r="2"/>
<circle clip-path="url(#clip381)" style="fill:#009af9; stroke:none; fill-opacity:0" cx="1346.63" cy="453.091" r="2"/>
<circle clip-path="url(#clip381)" style="fill:#009af9; stroke:none; fill-opacity:0" cx="1719.74" cy="343.044" r="2"/>
<circle clip-path="url(#clip381)" style="fill:#009af9; stroke:none; fill-opacity:0" cx="2092.84" cy="622.738" r="2"/>
</svg>
