<svg xmlns="http://www.w3.org/2000/svg" xmlns:xlink="http://www.w3.org/1999/xlink" width="600" height="400" viewBox="0 0 2400 1600">
<defs>
  <clipPath id="clip390">
    <rect x="0" y="0" width="2400" height="1600"></rect>
  </clipPath>
</defs>
<path clip-path="url(#clip390)" d="M0 1600 L2400 1600 L2400 0 L0 0  Z" fill="#ffffff" fill-rule="evenodd" fill-opacity="1"></path>
<defs>
  <clipPath id="clip391">
    <rect x="480" y="0" width="1681" height="1600"></rect>
  </clipPath>
</defs>
<path clip-path="url(#clip390)" d="M248.547 1423.18 L2352.76 1423.18 L2352.76 123.472 L248.547 123.472  Z" fill="#ffffff" fill-rule="evenodd" fill-opacity="1"></path>
<defs>
  <clipPath id="clip392">
    <rect x="248" y="123" width="2105" height="1301"></rect>
  </clipPath>
</defs>
<polyline clip-path="url(#clip392)" style="stroke:#000000; stroke-linecap:round; stroke-linejoin:round; stroke-width:2; stroke-opacity:0.1; fill:none" points="300.009,1423.18 300.009,123.472 "></polyline>
<polyline clip-path="url(#clip392)" style="stroke:#000000; stroke-linecap:round; stroke-linejoin:round; stroke-width:2; stroke-opacity:0.1; fill:none" points="865.443,1423.18 865.443,123.472 "></polyline>
<polyline clip-path="url(#clip392)" style="stroke:#000000; stroke-linecap:round; stroke-linejoin:round; stroke-width:2; stroke-opacity:0.1; fill:none" points="1437.09,1423.18 1437.09,123.472 "></polyline>
<polyline clip-path="url(#clip392)" style="stroke:#000000; stroke-linecap:round; stroke-linejoin:round; stroke-width:2; stroke-opacity:0.1; fill:none" points="1999.42,1423.18 1999.42,123.472 "></polyline>
<polyline clip-path="url(#clip392)" style="stroke:#000000; stroke-linecap:round; stroke-linejoin:round; stroke-width:2; stroke-opacity:0.1; fill:none" points="248.547,1272.64 2352.76,1272.64 "></polyline>
<polyline clip-path="url(#clip392)" style="stroke:#000000; stroke-linecap:round; stroke-linejoin:round; stroke-width:2; stroke-opacity:0.1; fill:none" points="248.547,1004.68 2352.76,1004.68 "></polyline>
<polyline clip-path="url(#clip392)" style="stroke:#000000; stroke-linecap:round; stroke-linejoin:round; stroke-width:2; stroke-opacity:0.1; fill:none" points="248.547,736.727 2352.76,736.727 "></polyline>
<polyline clip-path="url(#clip392)" style="stroke:#000000; stroke-linecap:round; stroke-linejoin:round; stroke-width:2; stroke-opacity:0.1; fill:none" points="248.547,468.772 2352.76,468.772 "></polyline>
<polyline clip-path="url(#clip392)" style="stroke:#000000; stroke-linecap:round; stroke-linejoin:round; stroke-width:2; stroke-opacity:0.1; fill:none" points="248.547,200.818 2352.76,200.818 "></polyline>
<polyline clip-path="url(#clip390)" style="stroke:#000000; stroke-linecap:round; stroke-linejoin:round; stroke-width:4; stroke-opacity:1; fill:none" points="248.547,1423.18 2352.76,1423.18 "></polyline>
<polyline clip-path="url(#clip390)" style="stroke:#000000; stroke-linecap:round; stroke-linejoin:round; stroke-width:4; stroke-opacity:1; fill:none" points="300.009,1423.18 300.009,1404.28 "></polyline>
<polyline clip-path="url(#clip390)" style="stroke:#000000; stroke-linecap:round; stroke-linejoin:round; stroke-width:4; stroke-opacity:1; fill:none" points="865.443,1423.18 865.443,1404.28 "></polyline>
<polyline clip-path="url(#clip390)" style="stroke:#000000; stroke-linecap:round; stroke-linejoin:round; stroke-width:4; stroke-opacity:1; fill:none" points="1437.09,1423.18 1437.09,1404.28 "></polyline>
<polyline clip-path="url(#clip390)" style="stroke:#000000; stroke-linecap:round; stroke-linejoin:round; stroke-width:4; stroke-opacity:1; fill:none" points="1999.42,1423.18 1999.42,1404.28 "></polyline>
<path clip-path="url(#clip390)" d="M171.804 1481.64 L188.123 1481.64 L188.123 1485.58 L166.179 1485.58 L166.179 1481.64 Q168.841 1478.89 173.424 1474.26 Q178.031 1469.61 179.211 1468.27 Q181.457 1465.74 182.336 1464.01 Q183.239 1462.25 183.239 1460.56 Q183.239 1457.8 181.295 1456.07 Q179.373 1454.33 176.271 1454.33 Q174.072 1454.33 171.619 1455.09 Q169.188 1455.86 166.41 1457.41 L166.41 1452.69 Q169.234 1451.55 171.688 1450.97 Q174.142 1450.39 176.179 1450.39 Q181.549 1450.39 184.744 1453.08 Q187.938 1455.77 187.938 1460.26 Q187.938 1462.39 187.128 1464.31 Q186.341 1466.2 184.234 1468.8 Q183.656 1469.47 180.554 1472.69 Q177.452 1475.88 171.804 1481.64 Z" fill="#000000" fill-rule="nonzero" fill-opacity="1"></path><path clip-path="url(#clip390)" d="M207.938 1454.1 Q204.327 1454.1 202.498 1457.66 Q200.693 1461.2 200.693 1468.33 Q200.693 1475.44 202.498 1479.01 Q204.327 1482.55 207.938 1482.55 Q211.572 1482.55 213.378 1479.01 Q215.206 1475.44 215.206 1468.33 Q215.206 1461.2 213.378 1457.66 Q211.572 1454.1 207.938 1454.1 M207.938 1450.39 Q213.748 1450.39 216.804 1455 Q219.882 1459.58 219.882 1468.33 Q219.882 1477.06 216.804 1481.67 Q213.748 1486.25 207.938 1486.25 Q202.128 1486.25 199.049 1481.67 Q195.994 1477.06 195.994 1468.33 Q195.994 1459.58 199.049 1455 Q202.128 1450.39 207.938 1450.39 Z" fill="#000000" fill-rule="nonzero" fill-opacity="1"></path><path clip-path="url(#clip390)" d="M232.128 1481.64 L248.447 1481.64 L248.447 1485.58 L226.503 1485.58 L226.503 1481.64 Q229.165 1478.89 233.748 1474.26 Q238.354 1469.61 239.535 1468.27 Q241.78 1465.74 242.66 1464.01 Q243.563 1462.25 243.563 1460.56 Q243.563 1457.8 241.618 1456.07 Q239.697 1454.33 236.595 1454.33 Q234.396 1454.33 231.942 1455.09 Q229.512 1455.86 226.734 1457.41 L226.734 1452.69 Q229.558 1451.55 232.012 1450.97 Q234.466 1450.39 236.503 1450.39 Q241.873 1450.39 245.067 1453.08 Q248.262 1455.77 248.262 1460.26 Q248.262 1462.39 247.452 1464.31 Q246.665 1466.2 244.558 1468.8 Q243.979 1469.47 240.878 1472.69 Q237.776 1475.88 232.128 1481.64 Z" fill="#000000" fill-rule="nonzero" fill-opacity="1"></path><path clip-path="url(#clip390)" d="M271.109 1455.09 L259.303 1473.54 L271.109 1473.54 L271.109 1455.09 M269.882 1451.02 L275.762 1451.02 L275.762 1473.54 L280.692 1473.54 L280.692 1477.43 L275.762 1477.43 L275.762 1485.58 L271.109 1485.58 L271.109 1477.43 L255.507 1477.43 L255.507 1472.92 L269.882 1451.02 Z" fill="#000000" fill-rule="nonzero" fill-opacity="1"></path><path clip-path="url(#clip390)" d="M285.669 1470.7 L298.146 1470.7 L298.146 1474.49 L285.669 1474.49 L285.669 1470.7 Z" fill="#000000" fill-rule="nonzero" fill-opacity="1"></path><path clip-path="url(#clip390)" d="M315.53 1454.1 Q311.919 1454.1 310.09 1457.66 Q308.285 1461.2 308.285 1468.33 Q308.285 1475.44 310.09 1479.01 Q311.919 1482.55 315.53 1482.55 Q319.164 1482.55 320.97 1479.01 Q322.798 1475.44 322.798 1468.33 Q322.798 1461.2 320.97 1457.66 Q319.164 1454.1 315.53 1454.1 M315.53 1450.39 Q321.34 1450.39 324.396 1455 Q327.474 1459.58 327.474 1468.33 Q327.474 1477.06 324.396 1481.67 Q321.34 1486.25 315.53 1486.25 Q309.72 1486.25 306.641 1481.67 Q303.586 1477.06 303.586 1468.33 Q303.586 1459.58 306.641 1455 Q309.72 1450.39 315.53 1450.39 Z" fill="#000000" fill-rule="nonzero" fill-opacity="1"></path><path clip-path="url(#clip390)" d="M336.502 1481.64 L344.141 1481.64 L344.141 1455.28 L335.831 1456.95 L335.831 1452.69 L344.095 1451.02 L348.77 1451.02 L348.77 1481.64 L356.409 1481.64 L356.409 1485.58 L336.502 1485.58 L336.502 1481.64 Z" fill="#000000" fill-rule="nonzero" fill-opacity="1"></path><path clip-path="url(#clip390)" d="M363.099 1470.7 L375.576 1470.7 L375.576 1474.49 L363.099 1474.49 L363.099 1470.7 Z" fill="#000000" fill-rule="nonzero" fill-opacity="1"></path><path clip-path="url(#clip390)" d="M392.96 1454.1 Q389.349 1454.1 387.52 1457.66 Q385.715 1461.2 385.715 1468.33 Q385.715 1475.44 387.52 1479.01 Q389.349 1482.55 392.96 1482.55 Q396.594 1482.55 398.4 1479.01 Q400.229 1475.44 400.229 1468.33 Q400.229 1461.2 398.4 1457.66 Q396.594 1454.1 392.96 1454.1 M392.96 1450.39 Q398.77 1450.39 401.826 1455 Q404.904 1459.58 404.904 1468.33 Q404.904 1477.06 401.826 1481.67 Q398.77 1486.25 392.96 1486.25 Q387.15 1486.25 384.071 1481.67 Q381.016 1477.06 381.016 1468.33 Q381.016 1459.58 384.071 1455 Q387.15 1450.39 392.96 1450.39 Z" fill="#000000" fill-rule="nonzero" fill-opacity="1"></path><path clip-path="url(#clip390)" d="M413.932 1481.64 L421.571 1481.64 L421.571 1455.28 L413.261 1456.95 L413.261 1452.69 L421.525 1451.02 L426.201 1451.02 L426.201 1481.64 L433.839 1481.64 L433.839 1485.58 L413.932 1485.58 L413.932 1481.64 Z" fill="#000000" fill-rule="nonzero" fill-opacity="1"></path><path clip-path="url(#clip390)" d="M737.238 1481.64 L753.557 1481.64 L753.557 1485.58 L731.613 1485.58 L731.613 1481.64 Q734.275 1478.89 738.858 1474.26 Q743.465 1469.61 744.645 1468.27 Q746.891 1465.74 747.77 1464.01 Q748.673 1462.25 748.673 1460.56 Q748.673 1457.8 746.729 1456.07 Q744.807 1454.33 741.705 1454.33 Q739.506 1454.33 737.053 1455.09 Q734.622 1455.86 731.844 1457.41 L731.844 1452.69 Q734.668 1451.55 737.122 1450.97 Q739.576 1450.39 741.613 1450.39 Q746.983 1450.39 750.178 1453.08 Q753.372 1455.77 753.372 1460.26 Q753.372 1462.39 752.562 1464.31 Q751.775 1466.2 749.668 1468.8 Q749.09 1469.47 745.988 1472.69 Q742.886 1475.88 737.238 1481.64 Z" fill="#000000" fill-rule="nonzero" fill-opacity="1"></path><path clip-path="url(#clip390)" d="M773.372 1454.1 Q769.761 1454.1 767.932 1457.66 Q766.127 1461.2 766.127 1468.33 Q766.127 1475.44 767.932 1479.01 Q769.761 1482.55 773.372 1482.55 Q777.006 1482.55 778.812 1479.01 Q780.64 1475.44 780.64 1468.33 Q780.64 1461.2 778.812 1457.66 Q777.006 1454.1 773.372 1454.1 M773.372 1450.39 Q779.182 1450.39 782.238 1455 Q785.316 1459.58 785.316 1468.33 Q785.316 1477.06 782.238 1481.67 Q779.182 1486.25 773.372 1486.25 Q767.562 1486.25 764.483 1481.67 Q761.428 1477.06 761.428 1468.33 Q761.428 1459.58 764.483 1455 Q767.562 1450.39 773.372 1450.39 Z" fill="#000000" fill-rule="nonzero" fill-opacity="1"></path><path clip-path="url(#clip390)" d="M797.562 1481.64 L813.881 1481.64 L813.881 1485.58 L791.937 1485.58 L791.937 1481.64 Q794.599 1478.89 799.182 1474.26 Q803.788 1469.61 804.969 1468.27 Q807.214 1465.74 808.094 1464.01 Q808.997 1462.25 808.997 1460.56 Q808.997 1457.8 807.052 1456.07 Q805.131 1454.33 802.029 1454.33 Q799.83 1454.33 797.376 1455.09 Q794.946 1455.86 792.168 1457.41 L792.168 1452.69 Q794.992 1451.55 797.446 1450.97 Q799.9 1450.39 801.937 1450.39 Q807.307 1450.39 810.501 1453.08 Q813.696 1455.77 813.696 1460.26 Q813.696 1462.39 812.886 1464.31 Q812.099 1466.2 809.992 1468.8 Q809.413 1469.47 806.312 1472.69 Q803.21 1475.88 797.562 1481.64 Z" fill="#000000" fill-rule="nonzero" fill-opacity="1"></path><path clip-path="url(#clip390)" d="M836.543 1455.09 L824.737 1473.54 L836.543 1473.54 L836.543 1455.09 M835.316 1451.02 L841.196 1451.02 L841.196 1473.54 L846.126 1473.54 L846.126 1477.43 L841.196 1477.43 L841.196 1485.58 L836.543 1485.58 L836.543 1477.43 L820.941 1477.43 L820.941 1472.92 L835.316 1451.02 Z" fill="#000000" fill-rule="nonzero" fill-opacity="1"></path><path clip-path="url(#clip390)" d="M851.103 1470.7 L863.58 1470.7 L863.58 1474.49 L851.103 1474.49 L851.103 1470.7 Z" fill="#000000" fill-rule="nonzero" fill-opacity="1"></path><path clip-path="url(#clip390)" d="M880.964 1454.1 Q877.353 1454.1 875.524 1457.66 Q873.719 1461.2 873.719 1468.33 Q873.719 1475.44 875.524 1479.01 Q877.353 1482.55 880.964 1482.55 Q884.598 1482.55 886.404 1479.01 Q888.232 1475.44 888.232 1468.33 Q888.232 1461.2 886.404 1457.66 Q884.598 1454.1 880.964 1454.1 M880.964 1450.39 Q886.774 1450.39 889.83 1455 Q892.908 1459.58 892.908 1468.33 Q892.908 1477.06 889.83 1481.67 Q886.774 1486.25 880.964 1486.25 Q875.154 1486.25 872.075 1481.67 Q869.02 1477.06 869.02 1468.33 Q869.02 1459.58 872.075 1455 Q875.154 1450.39 880.964 1450.39 Z" fill="#000000" fill-rule="nonzero" fill-opacity="1"></path><path clip-path="url(#clip390)" d="M899.945 1451.02 L922.167 1451.02 L922.167 1453.01 L909.621 1485.58 L904.737 1485.58 L916.542 1454.96 L899.945 1454.96 L899.945 1451.02 Z" fill="#000000" fill-rule="nonzero" fill-opacity="1"></path><path clip-path="url(#clip390)" d="M928.533 1470.7 L941.01 1470.7 L941.01 1474.49 L928.533 1474.49 L928.533 1470.7 Z" fill="#000000" fill-rule="nonzero" fill-opacity="1"></path><path clip-path="url(#clip390)" d="M958.394 1454.1 Q954.783 1454.1 952.954 1457.66 Q951.149 1461.2 951.149 1468.33 Q951.149 1475.44 952.954 1479.01 Q954.783 1482.55 958.394 1482.55 Q962.028 1482.55 963.834 1479.01 Q965.663 1475.44 965.663 1468.33 Q965.663 1461.2 963.834 1457.66 Q962.028 1454.1 958.394 1454.1 M958.394 1450.39 Q964.204 1450.39 967.26 1455 Q970.338 1459.58 970.338 1468.33 Q970.338 1477.06 967.26 1481.67 Q964.204 1486.25 958.394 1486.25 Q952.584 1486.25 949.505 1481.67 Q946.45 1477.06 946.45 1468.33 Q946.45 1459.58 949.505 1455 Q952.584 1450.39 958.394 1450.39 Z" fill="#000000" fill-rule="nonzero" fill-opacity="1"></path><path clip-path="url(#clip390)" d="M979.366 1481.64 L987.005 1481.64 L987.005 1455.28 L978.695 1456.95 L978.695 1452.69 L986.959 1451.02 L991.635 1451.02 L991.635 1481.64 L999.273 1481.64 L999.273 1485.58 L979.366 1485.58 L979.366 1481.64 Z" fill="#000000" fill-rule="nonzero" fill-opacity="1"></path><path clip-path="url(#clip390)" d="M1308.89 1481.64 L1325.2 1481.64 L1325.2 1485.58 L1303.26 1485.58 L1303.26 1481.64 Q1305.92 1478.89 1310.51 1474.26 Q1315.11 1469.61 1316.29 1468.27 Q1318.54 1465.74 1319.42 1464.01 Q1320.32 1462.25 1320.32 1460.56 Q1320.32 1457.8 1318.38 1456.07 Q1316.45 1454.33 1313.35 1454.33 Q1311.15 1454.33 1308.7 1455.09 Q1306.27 1455.86 1303.49 1457.41 L1303.49 1452.69 Q1306.32 1451.55 1308.77 1450.97 Q1311.22 1450.39 1313.26 1450.39 Q1318.63 1450.39 1321.83 1453.08 Q1325.02 1455.77 1325.02 1460.26 Q1325.02 1462.39 1324.21 1464.31 Q1323.42 1466.2 1321.32 1468.8 Q1320.74 1469.47 1317.64 1472.69 Q1314.53 1475.88 1308.89 1481.64 Z" fill="#000000" fill-rule="nonzero" fill-opacity="1"></path><path clip-path="url(#clip390)" d="M1345.02 1454.1 Q1341.41 1454.1 1339.58 1457.66 Q1337.77 1461.2 1337.77 1468.33 Q1337.77 1475.44 1339.58 1479.01 Q1341.41 1482.55 1345.02 1482.55 Q1348.65 1482.55 1350.46 1479.01 Q1352.29 1475.44 1352.29 1468.33 Q1352.29 1461.2 1350.46 1457.66 Q1348.65 1454.1 1345.02 1454.1 M1345.02 1450.39 Q1350.83 1450.39 1353.89 1455 Q1356.96 1459.58 1356.96 1468.33 Q1356.96 1477.06 1353.89 1481.67 Q1350.83 1486.25 1345.02 1486.25 Q1339.21 1486.25 1336.13 1481.67 Q1333.08 1477.06 1333.08 1468.33 Q1333.08 1459.58 1336.13 1455 Q1339.21 1450.39 1345.02 1450.39 Z" fill="#000000" fill-rule="nonzero" fill-opacity="1"></path><path clip-path="url(#clip390)" d="M1369.21 1481.64 L1385.53 1481.64 L1385.53 1485.58 L1363.58 1485.58 L1363.58 1481.64 Q1366.25 1478.89 1370.83 1474.26 Q1375.44 1469.61 1376.62 1468.27 Q1378.86 1465.74 1379.74 1464.01 Q1380.64 1462.25 1380.64 1460.56 Q1380.64 1457.8 1378.7 1456.07 Q1376.78 1454.33 1373.68 1454.33 Q1371.48 1454.33 1369.02 1455.09 Q1366.59 1455.86 1363.82 1457.41 L1363.82 1452.69 Q1366.64 1451.55 1369.09 1450.97 Q1371.55 1450.39 1373.58 1450.39 Q1378.95 1450.39 1382.15 1453.08 Q1385.34 1455.77 1385.34 1460.26 Q1385.34 1462.39 1384.53 1464.31 Q1383.75 1466.2 1381.64 1468.8 Q1381.06 1469.47 1377.96 1472.69 Q1374.86 1475.88 1369.21 1481.64 Z" fill="#000000" fill-rule="nonzero" fill-opacity="1"></path><path clip-path="url(#clip390)" d="M1395.39 1451.02 L1413.75 1451.02 L1413.75 1454.96 L1399.67 1454.96 L1399.67 1463.43 Q1400.69 1463.08 1401.71 1462.92 Q1402.73 1462.73 1403.75 1462.73 Q1409.53 1462.73 1412.91 1465.9 Q1416.29 1469.08 1416.29 1474.49 Q1416.29 1480.07 1412.82 1483.17 Q1409.35 1486.25 1403.03 1486.25 Q1400.85 1486.25 1398.58 1485.88 Q1396.34 1485.51 1393.93 1484.77 L1393.93 1480.07 Q1396.01 1481.2 1398.24 1481.76 Q1400.46 1482.32 1402.94 1482.32 Q1406.94 1482.32 1409.28 1480.21 Q1411.62 1478.1 1411.62 1474.49 Q1411.62 1470.88 1409.28 1468.77 Q1406.94 1466.67 1402.94 1466.67 Q1401.06 1466.67 1399.19 1467.08 Q1397.33 1467.5 1395.39 1468.38 L1395.39 1451.02 Z" fill="#000000" fill-rule="nonzero" fill-opacity="1"></path><path clip-path="url(#clip390)" d="M1422.75 1470.7 L1435.23 1470.7 L1435.23 1474.49 L1422.75 1474.49 L1422.75 1470.7 Z" fill="#000000" fill-rule="nonzero" fill-opacity="1"></path><path clip-path="url(#clip390)" d="M1452.61 1454.1 Q1449 1454.1 1447.17 1457.66 Q1445.37 1461.2 1445.37 1468.33 Q1445.37 1475.44 1447.17 1479.01 Q1449 1482.55 1452.61 1482.55 Q1456.25 1482.55 1458.05 1479.01 Q1459.88 1475.44 1459.88 1468.33 Q1459.88 1461.2 1458.05 1457.66 Q1456.25 1454.1 1452.61 1454.1 M1452.61 1450.39 Q1458.42 1450.39 1461.48 1455 Q1464.56 1459.58 1464.56 1468.33 Q1464.56 1477.06 1461.48 1481.67 Q1458.42 1486.25 1452.61 1486.25 Q1446.8 1486.25 1443.72 1481.67 Q1440.67 1477.06 1440.67 1468.33 Q1440.67 1459.58 1443.72 1455 Q1446.8 1450.39 1452.61 1450.39 Z" fill="#000000" fill-rule="nonzero" fill-opacity="1"></path><path clip-path="url(#clip390)" d="M1473.58 1481.64 L1481.22 1481.64 L1481.22 1455.28 L1472.91 1456.95 L1472.91 1452.69 L1481.18 1451.02 L1485.85 1451.02 L1485.85 1481.64 L1493.49 1481.64 L1493.49 1485.58 L1473.58 1485.58 L1473.58 1481.64 Z" fill="#000000" fill-rule="nonzero" fill-opacity="1"></path><path clip-path="url(#clip390)" d="M1500.18 1470.7 L1512.66 1470.7 L1512.66 1474.49 L1500.18 1474.49 L1500.18 1470.7 Z" fill="#000000" fill-rule="nonzero" fill-opacity="1"></path><path clip-path="url(#clip390)" d="M1530.04 1454.1 Q1526.43 1454.1 1524.6 1457.66 Q1522.8 1461.2 1522.8 1468.33 Q1522.8 1475.44 1524.6 1479.01 Q1526.43 1482.55 1530.04 1482.55 Q1533.68 1482.55 1535.48 1479.01 Q1537.31 1475.44 1537.31 1468.33 Q1537.31 1461.2 1535.48 1457.66 Q1533.68 1454.1 1530.04 1454.1 M1530.04 1450.39 Q1535.85 1450.39 1538.91 1455 Q1541.99 1459.58 1541.99 1468.33 Q1541.99 1477.06 1538.91 1481.67 Q1535.85 1486.25 1530.04 1486.25 Q1524.23 1486.25 1521.15 1481.67 Q1518.1 1477.06 1518.1 1468.33 Q1518.1 1459.58 1521.15 1455 Q1524.23 1450.39 1530.04 1450.39 Z" fill="#000000" fill-rule="nonzero" fill-opacity="1"></path><path clip-path="url(#clip390)" d="M1551.01 1481.64 L1558.65 1481.64 L1558.65 1455.28 L1550.34 1456.95 L1550.34 1452.69 L1558.61 1451.02 L1563.28 1451.02 L1563.28 1481.64 L1570.92 1481.64 L1570.92 1485.58 L1551.01 1485.58 L1551.01 1481.64 Z" fill="#000000" fill-rule="nonzero" fill-opacity="1"></path><path clip-path="url(#clip390)" d="M1871.21 1481.64 L1887.53 1481.64 L1887.53 1485.58 L1865.59 1485.58 L1865.59 1481.64 Q1868.25 1478.89 1872.83 1474.26 Q1877.44 1469.61 1878.62 1468.27 Q1880.87 1465.74 1881.74 1464.01 Q1882.65 1462.25 1882.65 1460.56 Q1882.65 1457.8 1880.7 1456.07 Q1878.78 1454.33 1875.68 1454.33 Q1873.48 1454.33 1871.03 1455.09 Q1868.6 1455.86 1865.82 1457.41 L1865.82 1452.69 Q1868.64 1451.55 1871.1 1450.97 Q1873.55 1450.39 1875.59 1450.39 Q1880.96 1450.39 1884.15 1453.08 Q1887.35 1455.77 1887.35 1460.26 Q1887.35 1462.39 1886.54 1464.31 Q1885.75 1466.2 1883.64 1468.8 Q1883.06 1469.47 1879.96 1472.69 Q1876.86 1475.88 1871.21 1481.64 Z" fill="#000000" fill-rule="nonzero" fill-opacity="1"></path><path clip-path="url(#clip390)" d="M1907.35 1454.1 Q1903.74 1454.1 1901.91 1457.66 Q1900.1 1461.2 1900.1 1468.33 Q1900.1 1475.44 1901.91 1479.01 Q1903.74 1482.55 1907.35 1482.55 Q1910.98 1482.55 1912.79 1479.01 Q1914.62 1475.44 1914.62 1468.33 Q1914.62 1461.2 1912.79 1457.66 Q1910.98 1454.1 1907.35 1454.1 M1907.35 1450.39 Q1913.16 1450.39 1916.21 1455 Q1919.29 1459.58 1919.29 1468.33 Q1919.29 1477.06 1916.21 1481.67 Q1913.16 1486.25 1907.35 1486.25 Q1901.54 1486.25 1898.46 1481.67 Q1895.4 1477.06 1895.4 1468.33 Q1895.4 1459.58 1898.46 1455 Q1901.54 1450.39 1907.35 1450.39 Z" fill="#000000" fill-rule="nonzero" fill-opacity="1"></path><path clip-path="url(#clip390)" d="M1931.54 1481.64 L1947.86 1481.64 L1947.86 1485.58 L1925.91 1485.58 L1925.91 1481.64 Q1928.57 1478.89 1933.16 1474.26 Q1937.76 1469.61 1938.94 1468.27 Q1941.19 1465.74 1942.07 1464.01 Q1942.97 1462.25 1942.97 1460.56 Q1942.97 1457.8 1941.03 1456.07 Q1939.11 1454.33 1936 1454.33 Q1933.8 1454.33 1931.35 1455.09 Q1928.92 1455.86 1926.14 1457.41 L1926.14 1452.69 Q1928.97 1451.55 1931.42 1450.97 Q1933.87 1450.39 1935.91 1450.39 Q1941.28 1450.39 1944.48 1453.08 Q1947.67 1455.77 1947.67 1460.26 Q1947.67 1462.39 1946.86 1464.31 Q1946.07 1466.2 1943.97 1468.8 Q1943.39 1469.47 1940.29 1472.69 Q1937.18 1475.88 1931.54 1481.64 Z" fill="#000000" fill-rule="nonzero" fill-opacity="1"></path><path clip-path="url(#clip390)" d="M1957.72 1451.02 L1976.07 1451.02 L1976.07 1454.96 L1962 1454.96 L1962 1463.43 Q1963.02 1463.08 1964.04 1462.92 Q1965.05 1462.73 1966.07 1462.73 Q1971.86 1462.73 1975.24 1465.9 Q1978.62 1469.08 1978.62 1474.49 Q1978.62 1480.07 1975.15 1483.17 Q1971.68 1486.25 1965.36 1486.25 Q1963.18 1486.25 1960.91 1485.88 Q1958.67 1485.51 1956.26 1484.77 L1956.26 1480.07 Q1958.34 1481.2 1960.56 1481.76 Q1962.79 1482.32 1965.26 1482.32 Q1969.27 1482.32 1971.61 1480.21 Q1973.94 1478.1 1973.94 1474.49 Q1973.94 1470.88 1971.61 1468.77 Q1969.27 1466.67 1965.26 1466.67 Q1963.39 1466.67 1961.51 1467.08 Q1959.66 1467.5 1957.72 1468.38 L1957.72 1451.02 Z" fill="#000000" fill-rule="nonzero" fill-opacity="1"></path><path clip-path="url(#clip390)" d="M1985.08 1470.7 L1997.55 1470.7 L1997.55 1474.49 L1985.08 1474.49 L1985.08 1470.7 Z" fill="#000000" fill-rule="nonzero" fill-opacity="1"></path><path clip-path="url(#clip390)" d="M2014.94 1454.1 Q2011.33 1454.1 2009.5 1457.66 Q2007.69 1461.2 2007.69 1468.33 Q2007.69 1475.44 2009.5 1479.01 Q2011.33 1482.55 2014.94 1482.55 Q2018.57 1482.55 2020.38 1479.01 Q2022.21 1475.44 2022.21 1468.33 Q2022.21 1461.2 2020.38 1457.66 Q2018.57 1454.1 2014.94 1454.1 M2014.94 1450.39 Q2020.75 1450.39 2023.8 1455 Q2026.88 1459.58 2026.88 1468.33 Q2026.88 1477.06 2023.8 1481.67 Q2020.75 1486.25 2014.94 1486.25 Q2009.13 1486.25 2006.05 1481.67 Q2002.99 1477.06 2002.99 1468.33 Q2002.99 1459.58 2006.05 1455 Q2009.13 1450.39 2014.94 1450.39 Z" fill="#000000" fill-rule="nonzero" fill-opacity="1"></path><path clip-path="url(#clip390)" d="M2033.92 1451.02 L2056.14 1451.02 L2056.14 1453.01 L2043.6 1485.58 L2038.71 1485.58 L2050.52 1454.96 L2033.92 1454.96 L2033.92 1451.02 Z" fill="#000000" fill-rule="nonzero" fill-opacity="1"></path><path clip-path="url(#clip390)" d="M2062.51 1470.7 L2074.98 1470.7 L2074.98 1474.49 L2062.51 1474.49 L2062.51 1470.7 Z" fill="#000000" fill-rule="nonzero" fill-opacity="1"></path><path clip-path="url(#clip390)" d="M2092.37 1454.1 Q2088.76 1454.1 2086.93 1457.66 Q2085.12 1461.2 2085.12 1468.33 Q2085.12 1475.44 2086.93 1479.01 Q2088.76 1482.55 2092.37 1482.55 Q2096 1482.55 2097.81 1479.01 Q2099.64 1475.44 2099.64 1468.33 Q2099.64 1461.2 2097.81 1457.66 Q2096 1454.1 2092.37 1454.1 M2092.37 1450.39 Q2098.18 1450.39 2101.23 1455 Q2104.31 1459.58 2104.31 1468.33 Q2104.31 1477.06 2101.23 1481.67 Q2098.18 1486.25 2092.37 1486.25 Q2086.56 1486.25 2083.48 1481.67 Q2080.42 1477.06 2080.42 1468.33 Q2080.42 1459.58 2083.48 1455 Q2086.56 1450.39 2092.37 1450.39 Z" fill="#000000" fill-rule="nonzero" fill-opacity="1"></path><path clip-path="url(#clip390)" d="M2113.34 1481.64 L2120.98 1481.64 L2120.98 1455.28 L2112.67 1456.95 L2112.67 1452.69 L2120.93 1451.02 L2125.61 1451.02 L2125.61 1481.64 L2133.25 1481.64 L2133.25 1485.58 L2113.34 1485.58 L2113.34 1481.64 Z" fill="#000000" fill-rule="nonzero" fill-opacity="1"></path><path clip-path="url(#clip390)" d="M1234.11 1525.81 L1234.11 1562.76 L1241.88 1562.76 Q1251.71 1562.76 1256.27 1558.3 Q1260.85 1553.85 1260.85 1544.24 Q1260.85 1534.69 1256.27 1530.26 Q1251.71 1525.81 1241.88 1525.81 L1234.11 1525.81 M1227.68 1520.52 L1240.89 1520.52 Q1254.71 1520.52 1261.17 1526.28 Q1267.63 1532.01 1267.63 1544.24 Q1267.63 1556.52 1261.14 1562.28 Q1254.64 1568.04 1240.89 1568.04 L1227.68 1568.04 L1227.68 1520.52 Z" fill="#000000" fill-rule="nonzero" fill-opacity="1"></path><path clip-path="url(#clip390)" d="M1293.82 1550.12 Q1286.73 1550.12 1283.99 1551.75 Q1281.25 1553.37 1281.25 1557.29 Q1281.25 1560.4 1283.29 1562.25 Q1285.36 1564.07 1288.89 1564.07 Q1293.76 1564.07 1296.69 1560.63 Q1299.65 1557.16 1299.65 1551.43 L1299.65 1550.12 L1293.82 1550.12 M1305.51 1547.71 L1305.51 1568.04 L1299.65 1568.04 L1299.65 1562.63 Q1297.64 1565.88 1294.65 1567.44 Q1291.66 1568.97 1287.33 1568.97 Q1281.86 1568.97 1278.61 1565.91 Q1275.4 1562.82 1275.4 1557.67 Q1275.4 1551.65 1279.41 1548.6 Q1283.45 1545.54 1291.44 1545.54 L1299.65 1545.54 L1299.65 1544.97 Q1299.65 1540.93 1296.98 1538.73 Q1294.33 1536.5 1289.53 1536.5 Q1286.47 1536.5 1283.58 1537.23 Q1280.68 1537.97 1278.01 1539.43 L1278.01 1534.02 Q1281.22 1532.78 1284.24 1532.17 Q1287.27 1531.54 1290.13 1531.54 Q1297.87 1531.54 1301.69 1535.55 Q1305.51 1539.56 1305.51 1547.71 Z" fill="#000000" fill-rule="nonzero" fill-opacity="1"></path><path clip-path="url(#clip390)" d="M1323.36 1522.27 L1323.36 1532.4 L1335.42 1532.4 L1335.42 1536.95 L1323.36 1536.95 L1323.36 1556.3 Q1323.36 1560.66 1324.54 1561.9 Q1325.75 1563.14 1329.41 1563.14 L1335.42 1563.14 L1335.42 1568.04 L1329.41 1568.04 Q1322.63 1568.04 1320.05 1565.53 Q1317.47 1562.98 1317.47 1556.3 L1317.47 1536.95 L1313.18 1536.95 L1313.18 1532.4 L1317.47 1532.4 L1317.47 1522.27 L1323.36 1522.27 Z" fill="#000000" fill-rule="nonzero" fill-opacity="1"></path><path clip-path="url(#clip390)" d="M1373.62 1548.76 L1373.62 1551.62 L1346.69 1551.62 Q1347.07 1557.67 1350.32 1560.85 Q1353.6 1564 1359.42 1564 Q1362.8 1564 1365.95 1563.17 Q1369.13 1562.35 1372.25 1560.69 L1372.25 1566.23 Q1369.1 1567.57 1365.79 1568.27 Q1362.48 1568.97 1359.07 1568.97 Q1350.54 1568.97 1345.55 1564 Q1340.58 1559.04 1340.58 1550.57 Q1340.58 1541.82 1345.29 1536.69 Q1350.03 1531.54 1358.05 1531.54 Q1365.25 1531.54 1369.42 1536.18 Q1373.62 1540.8 1373.62 1548.76 M1367.76 1547.04 Q1367.7 1542.23 1365.06 1539.37 Q1362.45 1536.5 1358.12 1536.5 Q1353.22 1536.5 1350.26 1539.27 Q1347.33 1542.04 1346.88 1547.07 L1367.76 1547.04 Z" fill="#000000" fill-rule="nonzero" fill-opacity="1"></path><polyline clip-path="url(#clip390)" style="stroke:#000000; stroke-linecap:round; stroke-linejoin:round; stroke-width:4; stroke-opacity:1; fill:none" points="248.547,1423.18 248.547,123.472 "></polyline>
<polyline clip-path="url(#clip390)" style="stroke:#000000; stroke-linecap:round; stroke-linejoin:round; stroke-width:4; stroke-opacity:1; fill:none" points="248.547,1272.64 267.444,1272.64 "></polyline>
<polyline clip-path="url(#clip390)" style="stroke:#000000; stroke-linecap:round; stroke-linejoin:round; stroke-width:4; stroke-opacity:1; fill:none" points="248.547,1004.68 267.444,1004.68 "></polyline>
<polyline clip-path="url(#clip390)" style="stroke:#000000; stroke-linecap:round; stroke-linejoin:round; stroke-width:4; stroke-opacity:1; fill:none" points="248.547,736.727 267.444,736.727 "></polyline>
<polyline clip-path="url(#clip390)" style="stroke:#000000; stroke-linecap:round; stroke-linejoin:round; stroke-width:4; stroke-opacity:1; fill:none" points="248.547,468.772 267.444,468.772 "></polyline>
<polyline clip-path="url(#clip390)" style="stroke:#000000; stroke-linecap:round; stroke-linejoin:round; stroke-width:4; stroke-opacity:1; fill:none" points="248.547,200.818 267.444,200.818 "></polyline>
<path clip-path="url(#clip390)" d="M126.205 1258.43 Q122.593 1258.43 120.765 1262 Q118.959 1265.54 118.959 1272.67 Q118.959 1279.78 120.765 1283.34 Q122.593 1286.88 126.205 1286.88 Q129.839 1286.88 131.644 1283.34 Q133.473 1279.78 133.473 1272.67 Q133.473 1265.54 131.644 1262 Q129.839 1258.43 126.205 1258.43 M126.205 1254.73 Q132.015 1254.73 135.07 1259.34 Q138.149 1263.92 138.149 1272.67 Q138.149 1281.4 135.07 1286 Q132.015 1290.59 126.205 1290.59 Q120.394 1290.59 117.316 1286 Q114.26 1281.4 114.26 1272.67 Q114.26 1263.92 117.316 1259.34 Q120.394 1254.73 126.205 1254.73 Z" fill="#000000" fill-rule="nonzero" fill-opacity="1"></path><path clip-path="url(#clip390)" d="M146.366 1284.04 L151.251 1284.04 L151.251 1289.92 L146.366 1289.92 L146.366 1284.04 Z" fill="#000000" fill-rule="nonzero" fill-opacity="1"></path><path clip-path="url(#clip390)" d="M160.255 1255.36 L182.477 1255.36 L182.477 1257.35 L169.931 1289.92 L165.047 1289.92 L176.852 1259.29 L160.255 1259.29 L160.255 1255.36 Z" fill="#000000" fill-rule="nonzero" fill-opacity="1"></path><path clip-path="url(#clip390)" d="M191.644 1255.36 L210 1255.36 L210 1259.29 L195.926 1259.29 L195.926 1267.76 Q196.945 1267.42 197.963 1267.25 Q198.982 1267.07 200 1267.07 Q205.787 1267.07 209.167 1270.24 Q212.547 1273.41 212.547 1278.83 Q212.547 1284.41 209.074 1287.51 Q205.602 1290.59 199.283 1290.59 Q197.107 1290.59 194.838 1290.22 Q192.593 1289.85 190.186 1289.11 L190.186 1284.41 Q192.269 1285.54 194.491 1286.1 Q196.713 1286.65 199.19 1286.65 Q203.195 1286.65 205.533 1284.55 Q207.871 1282.44 207.871 1278.83 Q207.871 1275.22 205.533 1273.11 Q203.195 1271 199.19 1271 Q197.315 1271 195.44 1271.42 Q193.588 1271.84 191.644 1272.72 L191.644 1255.36 Z" fill="#000000" fill-rule="nonzero" fill-opacity="1"></path><path clip-path="url(#clip390)" d="M116.019 1018.03 L123.658 1018.03 L123.658 991.661 L115.348 993.327 L115.348 989.068 L123.612 987.401 L128.288 987.401 L128.288 1018.03 L135.927 1018.03 L135.927 1021.96 L116.019 1021.96 L116.019 1018.03 Z" fill="#000000" fill-rule="nonzero" fill-opacity="1"></path><path clip-path="url(#clip390)" d="M145.371 1016.08 L150.255 1016.08 L150.255 1021.96 L145.371 1021.96 L145.371 1016.08 Z" fill="#000000" fill-rule="nonzero" fill-opacity="1"></path><path clip-path="url(#clip390)" d="M170.44 990.48 Q166.829 990.48 165.001 994.045 Q163.195 997.587 163.195 1004.72 Q163.195 1011.82 165.001 1015.39 Q166.829 1018.93 170.44 1018.93 Q174.075 1018.93 175.88 1015.39 Q177.709 1011.82 177.709 1004.72 Q177.709 997.587 175.88 994.045 Q174.075 990.48 170.44 990.48 M170.44 986.776 Q176.251 986.776 179.306 991.383 Q182.385 995.966 182.385 1004.72 Q182.385 1013.44 179.306 1018.05 Q176.251 1022.63 170.44 1022.63 Q164.63 1022.63 161.552 1018.05 Q158.496 1013.44 158.496 1004.72 Q158.496 995.966 161.552 991.383 Q164.63 986.776 170.44 986.776 Z" fill="#000000" fill-rule="nonzero" fill-opacity="1"></path><path clip-path="url(#clip390)" d="M200.602 990.48 Q196.991 990.48 195.163 994.045 Q193.357 997.587 193.357 1004.72 Q193.357 1011.82 195.163 1015.39 Q196.991 1018.93 200.602 1018.93 Q204.237 1018.93 206.042 1015.39 Q207.871 1011.82 207.871 1004.72 Q207.871 997.587 206.042 994.045 Q204.237 990.48 200.602 990.48 M200.602 986.776 Q206.412 986.776 209.468 991.383 Q212.547 995.966 212.547 1004.72 Q212.547 1013.44 209.468 1018.05 Q206.412 1022.63 200.602 1022.63 Q194.792 1022.63 191.713 1018.05 Q188.658 1013.44 188.658 1004.72 Q188.658 995.966 191.713 991.383 Q194.792 986.776 200.602 986.776 Z" fill="#000000" fill-rule="nonzero" fill-opacity="1"></path><path clip-path="url(#clip390)" d="M117.015 750.072 L124.654 750.072 L124.654 723.706 L116.343 725.373 L116.343 721.114 L124.607 719.447 L129.283 719.447 L129.283 750.072 L136.922 750.072 L136.922 754.007 L117.015 754.007 L117.015 750.072 Z" fill="#000000" fill-rule="nonzero" fill-opacity="1"></path><path clip-path="url(#clip390)" d="M146.366 748.127 L151.251 748.127 L151.251 754.007 L146.366 754.007 L146.366 748.127 Z" fill="#000000" fill-rule="nonzero" fill-opacity="1"></path><path clip-path="url(#clip390)" d="M165.464 750.072 L181.783 750.072 L181.783 754.007 L159.839 754.007 L159.839 750.072 Q162.501 747.317 167.084 742.687 Q171.69 738.035 172.871 736.692 Q175.116 734.169 175.996 732.433 Q176.899 730.674 176.899 728.984 Q176.899 726.229 174.954 724.493 Q173.033 722.757 169.931 722.757 Q167.732 722.757 165.278 723.521 Q162.848 724.285 160.07 725.836 L160.07 721.114 Q162.894 719.979 165.348 719.401 Q167.802 718.822 169.839 718.822 Q175.209 718.822 178.403 721.507 Q181.598 724.192 181.598 728.683 Q181.598 730.813 180.788 732.734 Q180.001 734.632 177.894 737.225 Q177.315 737.896 174.214 741.113 Q171.112 744.308 165.464 750.072 Z" fill="#000000" fill-rule="nonzero" fill-opacity="1"></path><path clip-path="url(#clip390)" d="M191.644 719.447 L210 719.447 L210 723.382 L195.926 723.382 L195.926 731.854 Q196.945 731.507 197.963 731.345 Q198.982 731.16 200 731.16 Q205.787 731.16 209.167 734.331 Q212.547 737.502 212.547 742.919 Q212.547 748.498 209.074 751.599 Q205.602 754.678 199.283 754.678 Q197.107 754.678 194.838 754.308 Q192.593 753.937 190.186 753.197 L190.186 748.498 Q192.269 749.632 194.491 750.187 Q196.713 750.743 199.19 750.743 Q203.195 750.743 205.533 748.637 Q207.871 746.53 207.871 742.919 Q207.871 739.308 205.533 737.201 Q203.195 735.095 199.19 735.095 Q197.315 735.095 195.44 735.512 Q193.588 735.928 191.644 736.808 L191.644 719.447 Z" fill="#000000" fill-rule="nonzero" fill-opacity="1"></path><path clip-path="url(#clip390)" d="M116.019 482.117 L123.658 482.117 L123.658 455.752 L115.348 457.418 L115.348 453.159 L123.612 451.492 L128.288 451.492 L128.288 482.117 L135.927 482.117 L135.927 486.052 L116.019 486.052 L116.019 482.117 Z" fill="#000000" fill-rule="nonzero" fill-opacity="1"></path><path clip-path="url(#clip390)" d="M145.371 480.173 L150.255 480.173 L150.255 486.052 L145.371 486.052 L145.371 480.173 Z" fill="#000000" fill-rule="nonzero" fill-opacity="1"></path><path clip-path="url(#clip390)" d="M160.487 451.492 L178.843 451.492 L178.843 455.427 L164.769 455.427 L164.769 463.9 Q165.788 463.552 166.806 463.39 Q167.825 463.205 168.843 463.205 Q174.63 463.205 178.01 466.376 Q181.389 469.548 181.389 474.964 Q181.389 480.543 177.917 483.645 Q174.445 486.724 168.126 486.724 Q165.95 486.724 163.681 486.353 Q161.436 485.983 159.028 485.242 L159.028 480.543 Q161.112 481.677 163.334 482.233 Q165.556 482.788 168.033 482.788 Q172.038 482.788 174.376 480.682 Q176.714 478.575 176.714 474.964 Q176.714 471.353 174.376 469.247 Q172.038 467.14 168.033 467.14 Q166.158 467.14 164.283 467.557 Q162.431 467.974 160.487 468.853 L160.487 451.492 Z" fill="#000000" fill-rule="nonzero" fill-opacity="1"></path><path clip-path="url(#clip390)" d="M200.602 454.571 Q196.991 454.571 195.163 458.136 Q193.357 461.677 193.357 468.807 Q193.357 475.913 195.163 479.478 Q196.991 483.02 200.602 483.02 Q204.237 483.02 206.042 479.478 Q207.871 475.913 207.871 468.807 Q207.871 461.677 206.042 458.136 Q204.237 454.571 200.602 454.571 M200.602 450.867 Q206.412 450.867 209.468 455.474 Q212.547 460.057 212.547 468.807 Q212.547 477.534 209.468 482.14 Q206.412 486.724 200.602 486.724 Q194.792 486.724 191.713 482.14 Q188.658 477.534 188.658 468.807 Q188.658 460.057 191.713 455.474 Q194.792 450.867 200.602 450.867 Z" fill="#000000" fill-rule="nonzero" fill-opacity="1"></path><path clip-path="url(#clip390)" d="M117.015 214.163 L124.654 214.163 L124.654 187.797 L116.343 189.464 L116.343 185.204 L124.607 183.538 L129.283 183.538 L129.283 214.163 L136.922 214.163 L136.922 218.098 L117.015 218.098 L117.015 214.163 Z" fill="#000000" fill-rule="nonzero" fill-opacity="1"></path><path clip-path="url(#clip390)" d="M146.366 212.218 L151.251 212.218 L151.251 218.098 L146.366 218.098 L146.366 212.218 Z" fill="#000000" fill-rule="nonzero" fill-opacity="1"></path><path clip-path="url(#clip390)" d="M160.255 183.538 L182.477 183.538 L182.477 185.528 L169.931 218.098 L165.047 218.098 L176.852 187.473 L160.255 187.473 L160.255 183.538 Z" fill="#000000" fill-rule="nonzero" fill-opacity="1"></path><path clip-path="url(#clip390)" d="M191.644 183.538 L210 183.538 L210 187.473 L195.926 187.473 L195.926 195.945 Q196.945 195.598 197.963 195.436 Q198.982 195.251 200 195.251 Q205.787 195.251 209.167 198.422 Q212.547 201.593 212.547 207.01 Q212.547 212.588 209.074 215.69 Q205.602 218.769 199.283 218.769 Q197.107 218.769 194.838 218.399 Q192.593 218.028 190.186 217.288 L190.186 212.588 Q192.269 213.723 194.491 214.278 Q196.713 214.834 199.19 214.834 Q203.195 214.834 205.533 212.727 Q207.871 210.621 207.871 207.01 Q207.871 203.399 205.533 201.292 Q203.195 199.186 199.19 199.186 Q197.315 199.186 195.44 199.602 Q193.588 200.019 191.644 200.899 L191.644 183.538 Z" fill="#000000" fill-rule="nonzero" fill-opacity="1"></path><path clip-path="url(#clip390)" d="M20.1444 1416.72 L26.9239 1416.72 Q23.9002 1419.97 22.4043 1423.66 Q20.9083 1427.32 20.9083 1431.46 Q20.9083 1439.61 25.9054 1443.94 Q30.8707 1448.27 40.2919 1448.27 Q49.6813 1448.27 54.6784 1443.94 Q59.6436 1439.61 59.6436 1431.46 Q59.6436 1427.32 58.1477 1423.66 Q56.6518 1419.97 53.6281 1416.72 L60.3439 1416.72 Q62.6355 1420.1 63.7814 1423.89 Q64.9272 1427.64 64.9272 1431.84 Q64.9272 1442.63 58.3387 1448.84 Q51.7183 1455.05 40.2919 1455.05 Q28.8336 1455.05 22.2451 1448.84 Q15.6248 1442.63 15.6248 1431.84 Q15.6248 1427.58 16.7706 1423.82 Q17.8846 1420.03 20.1444 1416.72 Z" fill="#000000" fill-rule="nonzero" fill-opacity="1"></path><path clip-path="url(#clip390)" d="M32.4621 1393.23 Q32.4621 1397.95 36.1542 1400.68 Q39.8145 1403.42 46.212 1403.42 Q52.6095 1403.42 56.3017 1400.71 Q59.9619 1397.98 59.9619 1393.23 Q59.9619 1388.56 56.2698 1385.82 Q52.5777 1383.08 46.212 1383.08 Q39.8781 1383.08 36.186 1385.82 Q32.4621 1388.56 32.4621 1393.23 M27.4968 1393.23 Q27.4968 1385.6 32.4621 1381.24 Q37.4273 1376.87 46.212 1376.87 Q54.9649 1376.87 59.9619 1381.24 Q64.9272 1385.6 64.9272 1393.23 Q64.9272 1400.91 59.9619 1405.27 Q54.9649 1409.59 46.212 1409.59 Q37.4273 1409.59 32.4621 1405.27 Q27.4968 1400.91 27.4968 1393.23 Z" fill="#000000" fill-rule="nonzero" fill-opacity="1"></path><path clip-path="url(#clip390)" d="M35.1993 1339.41 Q31.2526 1337.22 29.3747 1334.16 Q27.4968 1331.11 27.4968 1326.97 Q27.4968 1321.4 31.4117 1318.37 Q35.2948 1315.35 42.4881 1315.35 L64.0042 1315.35 L64.0042 1321.24 L42.679 1321.24 Q37.5546 1321.24 35.072 1323.05 Q32.5894 1324.87 32.5894 1328.59 Q32.5894 1333.14 35.6131 1335.78 Q38.6368 1338.43 43.8567 1338.43 L64.0042 1338.43 L64.0042 1344.31 L42.679 1344.31 Q37.5228 1344.31 35.072 1346.13 Q32.5894 1347.94 32.5894 1351.73 Q32.5894 1356.22 35.6449 1358.86 Q38.6686 1361.5 43.8567 1361.5 L64.0042 1361.5 L64.0042 1367.39 L28.3562 1367.39 L28.3562 1361.5 L33.8944 1361.5 Q30.616 1359.5 29.0564 1356.7 Q27.4968 1353.89 27.4968 1350.04 Q27.4968 1346.16 29.4702 1343.45 Q31.4436 1340.72 35.1993 1339.41 Z" fill="#000000" fill-rule="nonzero" fill-opacity="1"></path><path clip-path="url(#clip390)" d="M58.657 1298 L77.5631 1298 L77.5631 1303.89 L28.3562 1303.89 L28.3562 1298 L33.7671 1298 Q30.5842 1296.16 29.0564 1293.36 Q27.4968 1290.52 27.4968 1286.61 Q27.4968 1280.12 32.6531 1276.07 Q37.8093 1272 46.212 1272 Q54.6147 1272 59.771 1276.07 Q64.9272 1280.12 64.9272 1286.61 Q64.9272 1290.52 63.3994 1293.36 Q61.8398 1296.16 58.657 1298 M46.212 1278.08 Q39.7508 1278.08 36.0905 1280.75 Q32.3984 1283.39 32.3984 1288.04 Q32.3984 1292.69 36.0905 1295.36 Q39.7508 1298 46.212 1298 Q52.6732 1298 56.3653 1295.36 Q60.0256 1292.69 60.0256 1288.04 Q60.0256 1283.39 56.3653 1280.75 Q52.6732 1278.08 46.212 1278.08 Z" fill="#000000" fill-rule="nonzero" fill-opacity="1"></path><path clip-path="url(#clip390)" d="M32.4621 1248.48 Q32.4621 1253.19 36.1542 1255.93 Q39.8145 1258.66 46.212 1258.66 Q52.6095 1258.66 56.3017 1255.96 Q59.9619 1253.22 59.9619 1248.48 Q59.9619 1243.8 56.2698 1241.06 Q52.5777 1238.32 46.212 1238.32 Q39.8781 1238.32 36.186 1241.06 Q32.4621 1243.8 32.4621 1248.48 M27.4968 1248.48 Q27.4968 1240.84 32.4621 1236.48 Q37.4273 1232.12 46.212 1232.12 Q54.9649 1232.12 59.9619 1236.48 Q64.9272 1240.84 64.9272 1248.48 Q64.9272 1256.15 59.9619 1260.51 Q54.9649 1264.84 46.212 1264.84 Q37.4273 1264.84 32.4621 1260.51 Q27.4968 1256.15 27.4968 1248.48 Z" fill="#000000" fill-rule="nonzero" fill-opacity="1"></path><path clip-path="url(#clip390)" d="M49.9359 1223.02 L28.3562 1223.02 L28.3562 1217.16 L49.7131 1217.16 Q54.7739 1217.16 57.3202 1215.19 Q59.8346 1213.21 59.8346 1209.27 Q59.8346 1204.52 56.8109 1201.79 Q53.7872 1199.02 48.5673 1199.02 L28.3562 1199.02 L28.3562 1193.16 L64.0042 1193.16 L64.0042 1199.02 L58.5296 1199.02 Q61.7762 1201.15 63.3676 1203.98 Q64.9272 1206.78 64.9272 1210.51 Q64.9272 1216.65 61.1078 1219.83 Q57.2883 1223.02 49.9359 1223.02 M27.4968 1208.28 L27.4968 1208.28 Z" fill="#000000" fill-rule="nonzero" fill-opacity="1"></path><path clip-path="url(#clip390)" d="M42.4881 1151.46 L64.0042 1151.46 L64.0042 1157.32 L42.679 1157.32 Q37.6183 1157.32 35.1038 1159.29 Q32.5894 1161.27 32.5894 1165.21 Q32.5894 1169.96 35.6131 1172.69 Q38.6368 1175.43 43.8567 1175.43 L64.0042 1175.43 L64.0042 1181.32 L28.3562 1181.32 L28.3562 1175.43 L33.8944 1175.43 Q30.6797 1173.33 29.0883 1170.5 Q27.4968 1167.63 27.4968 1163.91 Q27.4968 1157.77 31.3163 1154.62 Q35.1038 1151.46 42.4881 1151.46 Z" fill="#000000" fill-rule="nonzero" fill-opacity="1"></path><path clip-path="url(#clip390)" d="M33.7671 1116.33 L14.479 1116.33 L14.479 1110.47 L64.0042 1110.47 L64.0042 1116.33 L58.657 1116.33 Q61.8398 1118.17 63.3994 1121 Q64.9272 1123.81 64.9272 1127.75 Q64.9272 1134.21 59.771 1138.29 Q54.6147 1142.33 46.212 1142.33 Q37.8093 1142.33 32.6531 1138.29 Q27.4968 1134.21 27.4968 1127.75 Q27.4968 1123.81 29.0564 1121 Q30.5842 1118.17 33.7671 1116.33 M46.212 1136.28 Q52.6732 1136.28 56.3653 1133.64 Q60.0256 1130.97 60.0256 1126.32 Q60.0256 1121.67 56.3653 1119 Q52.6732 1116.33 46.212 1116.33 Q39.7508 1116.33 36.0905 1119 Q32.3984 1121.67 32.3984 1126.32 Q32.3984 1130.97 36.0905 1133.64 Q39.7508 1136.28 46.212 1136.28 Z" fill="#000000" fill-rule="nonzero" fill-opacity="1"></path><path clip-path="url(#clip390)" d="M21.7677 1071 L39.6235 1071 L39.6235 1062.92 Q39.6235 1058.43 37.3 1055.98 Q34.9765 1053.53 30.6797 1053.53 Q26.4147 1053.53 24.0912 1055.98 Q21.7677 1058.43 21.7677 1062.92 L21.7677 1071 M16.4842 1077.43 L16.4842 1062.92 Q16.4842 1054.93 20.1126 1050.85 Q23.7092 1046.75 30.6797 1046.75 Q37.7138 1046.75 41.3104 1050.85 Q44.907 1054.93 44.907 1062.92 L44.907 1071 L64.0042 1071 L64.0042 1077.43 L16.4842 1077.43 Z" fill="#000000" fill-rule="nonzero" fill-opacity="1"></path><path clip-path="url(#clip390)" d="M32.4621 1026.89 Q32.4621 1031.6 36.1542 1034.34 Q39.8145 1037.07 46.212 1037.07 Q52.6095 1037.07 56.3017 1034.37 Q59.9619 1031.63 59.9619 1026.89 Q59.9619 1022.21 56.2698 1019.47 Q52.5777 1016.73 46.212 1016.73 Q39.8781 1016.73 36.186 1019.47 Q32.4621 1022.21 32.4621 1026.89 M27.4968 1026.89 Q27.4968 1019.25 32.4621 1014.89 Q37.4273 1010.53 46.212 1010.53 Q54.9649 1010.53 59.9619 1014.89 Q64.9272 1019.25 64.9272 1026.89 Q64.9272 1034.56 59.9619 1038.92 Q54.9649 1043.25 46.212 1043.25 Q37.4273 1043.25 32.4621 1038.92 Q27.4968 1034.56 27.4968 1026.89 Z" fill="#000000" fill-rule="nonzero" fill-opacity="1"></path><path clip-path="url(#clip390)" d="M33.8307 980.164 Q33.2578 981.15 33.0032 982.328 Q32.7167 983.474 32.7167 984.874 Q32.7167 989.84 35.9632 992.513 Q39.1779 995.155 45.2253 995.155 L64.0042 995.155 L64.0042 1001.04 L28.3562 1001.04 L28.3562 995.155 L33.8944 995.155 Q30.6479 993.309 29.0883 990.349 Q27.4968 987.389 27.4968 983.156 Q27.4968 982.551 27.5923 981.819 Q27.656 981.087 27.8151 980.196 L33.8307 980.164 Z" fill="#000000" fill-rule="nonzero" fill-opacity="1"></path><path clip-path="url(#clip390)" d="M18.2347 968.228 L28.3562 968.228 L28.3562 956.165 L32.9077 956.165 L32.9077 968.228 L52.2594 968.228 Q56.6199 968.228 57.8613 967.05 Q59.1026 965.841 59.1026 962.181 L59.1026 956.165 L64.0042 956.165 L64.0042 962.181 Q64.0042 968.96 61.4897 971.538 Q58.9434 974.116 52.2594 974.116 L32.9077 974.116 L32.9077 978.413 L28.3562 978.413 L28.3562 974.116 L18.2347 974.116 L18.2347 968.228 Z" fill="#000000" fill-rule="nonzero" fill-opacity="1"></path><path clip-path="url(#clip390)" d="M14.479 930.416 L19.3487 930.416 L19.3487 936.018 Q19.3487 939.169 20.6219 940.41 Q21.895 941.619 25.2052 941.619 L28.3562 941.619 L28.3562 931.975 L32.9077 931.975 L32.9077 941.619 L64.0042 941.619 L64.0042 947.508 L32.9077 947.508 L32.9077 953.109 L28.3562 953.109 L28.3562 947.508 L25.8736 947.508 Q19.9216 947.508 17.2162 944.739 Q14.479 941.969 14.479 935.954 L14.479 930.416 Z" fill="#000000" fill-rule="nonzero" fill-opacity="1"></path><path clip-path="url(#clip390)" d="M32.4621 911.701 Q32.4621 916.411 36.1542 919.148 Q39.8145 921.886 46.212 921.886 Q52.6095 921.886 56.3017 919.18 Q59.9619 916.443 59.9619 911.701 Q59.9619 907.022 56.2698 904.284 Q52.5777 901.547 46.212 901.547 Q39.8781 901.547 36.186 904.284 Q32.4621 907.022 32.4621 911.701 M27.4968 911.701 Q27.4968 904.062 32.4621 899.701 Q37.4273 895.341 46.212 895.341 Q54.9649 895.341 59.9619 899.701 Q64.9272 904.062 64.9272 911.701 Q64.9272 919.371 59.9619 923.732 Q54.9649 928.06 46.212 928.06 Q37.4273 928.06 32.4621 923.732 Q27.4968 919.371 27.4968 911.701 Z" fill="#000000" fill-rule="nonzero" fill-opacity="1"></path><path clip-path="url(#clip390)" d="M14.479 885.633 L14.479 879.777 L64.0042 879.777 L64.0042 885.633 L14.479 885.633 Z" fill="#000000" fill-rule="nonzero" fill-opacity="1"></path><path clip-path="url(#clip390)" d="M28.3562 867.523 L28.3562 861.666 L64.0042 861.666 L64.0042 867.523 L28.3562 867.523 M14.479 867.523 L14.479 861.666 L21.895 861.666 L21.895 867.523 L14.479 867.523 Z" fill="#000000" fill-rule="nonzero" fill-opacity="1"></path><path clip-path="url(#clip390)" d="M32.4621 835.599 Q32.4621 840.309 36.1542 843.046 Q39.8145 845.784 46.212 845.784 Q52.6095 845.784 56.3017 843.078 Q59.9619 840.341 59.9619 835.599 Q59.9619 830.92 56.2698 828.182 Q52.5777 825.445 46.212 825.445 Q39.8781 825.445 36.186 828.182 Q32.4621 830.92 32.4621 835.599 M27.4968 835.599 Q27.4968 827.96 32.4621 823.599 Q37.4273 819.239 46.212 819.239 Q54.9649 819.239 59.9619 823.599 Q64.9272 827.96 64.9272 835.599 Q64.9272 843.269 59.9619 847.63 Q54.9649 851.958 46.212 851.958 Q37.4273 851.958 32.4621 847.63 Q27.4968 843.269 27.4968 835.599 Z" fill="#000000" fill-rule="nonzero" fill-opacity="1"></path><path clip-path="url(#clip390)" d="M20.1444 752.972 L26.9239 752.972 Q23.9002 756.218 22.4043 759.91 Q20.9083 763.571 20.9083 767.708 Q20.9083 775.856 25.9054 780.185 Q30.8707 784.514 40.2919 784.514 Q49.6813 784.514 54.6784 780.185 Q59.6436 775.856 59.6436 767.708 Q59.6436 763.571 58.1477 759.91 Q56.6518 756.218 53.6281 752.972 L60.3439 752.972 Q62.6355 756.345 63.7814 760.133 Q64.9272 763.889 64.9272 768.09 Q64.9272 778.88 58.3387 785.087 Q51.7183 791.293 40.2919 791.293 Q28.8336 791.293 22.2451 785.087 Q15.6248 778.88 15.6248 768.09 Q15.6248 763.825 16.7706 760.069 Q17.8846 756.282 20.1444 752.972 Z" fill="#000000" fill-rule="nonzero" fill-opacity="1"></path><path clip-path="url(#clip390)" d="M49.9359 743.901 L28.3562 743.901 L28.3562 738.044 L49.7131 738.044 Q54.7739 738.044 57.3202 736.071 Q59.8346 734.097 59.8346 730.151 Q59.8346 725.408 56.8109 722.671 Q53.7872 719.902 48.5673 719.902 L28.3562 719.902 L28.3562 714.045 L64.0042 714.045 L64.0042 719.902 L58.5296 719.902 Q61.7762 722.034 63.3676 724.867 Q64.9272 727.668 64.9272 731.392 Q64.9272 737.535 61.1078 740.718 Q57.2883 743.901 49.9359 743.901 M27.4968 729.164 L27.4968 729.164 Z" fill="#000000" fill-rule="nonzero" fill-opacity="1"></path><path clip-path="url(#clip390)" d="M35.1993 674.228 Q31.2526 672.032 29.3747 668.976 Q27.4968 665.921 27.4968 661.783 Q27.4968 656.213 31.4117 653.189 Q35.2948 650.165 42.4881 650.165 L64.0042 650.165 L64.0042 656.054 L42.679 656.054 Q37.5546 656.054 35.072 657.868 Q32.5894 659.682 32.5894 663.406 Q32.5894 667.958 35.6131 670.599 Q38.6368 673.241 43.8567 673.241 L64.0042 673.241 L64.0042 679.129 L42.679 679.129 Q37.5228 679.129 35.072 680.944 Q32.5894 682.758 32.5894 686.545 Q32.5894 691.033 35.6449 693.675 Q38.6686 696.317 43.8567 696.317 L64.0042 696.317 L64.0042 702.205 L28.3562 702.205 L28.3562 696.317 L33.8944 696.317 Q30.616 694.312 29.0564 691.511 Q27.4968 688.71 27.4968 684.859 Q27.4968 680.975 29.4702 678.27 Q31.4436 675.533 35.1993 674.228 Z" fill="#000000" fill-rule="nonzero" fill-opacity="1"></path><path clip-path="url(#clip390)" d="M35.1993 610.73 Q31.2526 608.534 29.3747 605.478 Q27.4968 602.423 27.4968 598.285 Q27.4968 592.715 31.4117 589.691 Q35.2948 586.668 42.4881 586.668 L64.0042 586.668 L64.0042 592.556 L42.679 592.556 Q37.5546 592.556 35.072 594.37 Q32.5894 596.184 32.5894 599.908 Q32.5894 604.46 35.6131 607.101 Q38.6368 609.743 43.8567 609.743 L64.0042 609.743 L64.0042 615.632 L42.679 615.632 Q37.5228 615.632 35.072 617.446 Q32.5894 619.26 32.5894 623.048 Q32.5894 627.535 35.6449 630.177 Q38.6686 632.819 43.8567 632.819 L64.0042 632.819 L64.0042 638.707 L28.3562 638.707 L28.3562 632.819 L33.8944 632.819 Q30.616 630.814 29.0564 628.013 Q27.4968 625.212 27.4968 621.361 Q27.4968 617.478 29.4702 614.772 Q31.4436 612.035 35.1993 610.73 Z" fill="#000000" fill-rule="nonzero" fill-opacity="1"></path><path clip-path="url(#clip390)" d="M49.9359 575.591 L28.3562 575.591 L28.3562 569.735 L49.7131 569.735 Q54.7739 569.735 57.3202 567.761 Q59.8346 565.788 59.8346 561.841 Q59.8346 557.099 56.8109 554.362 Q53.7872 551.593 48.5673 551.593 L28.3562 551.593 L28.3562 545.736 L64.0042 545.736 L64.0042 551.593 L58.5296 551.593 Q61.7762 553.725 63.3676 556.558 Q64.9272 559.359 64.9272 563.083 Q64.9272 569.226 61.1078 572.408 Q57.2883 575.591 49.9359 575.591 M27.4968 560.855 L27.4968 560.855 Z" fill="#000000" fill-rule="nonzero" fill-opacity="1"></path><path clip-path="url(#clip390)" d="M14.479 533.673 L14.479 527.817 L64.0042 527.817 L64.0042 533.673 L14.479 533.673 Z" fill="#000000" fill-rule="nonzero" fill-opacity="1"></path><path clip-path="url(#clip390)" d="M46.0847 499.362 Q46.0847 506.46 47.7079 509.197 Q49.3312 511.934 53.2461 511.934 Q56.3653 511.934 58.2114 509.897 Q60.0256 507.828 60.0256 504.295 Q60.0256 499.426 56.5881 496.497 Q53.1188 493.537 47.3897 493.537 L46.0847 493.537 L46.0847 499.362 M43.6657 487.681 L64.0042 487.681 L64.0042 493.537 L58.5933 493.537 Q61.8398 495.542 63.3994 498.534 Q64.9272 501.526 64.9272 505.855 Q64.9272 511.329 61.8716 514.576 Q58.7843 517.791 53.6281 517.791 Q47.6125 517.791 44.5569 513.78 Q41.5014 509.738 41.5014 501.749 L41.5014 493.537 L40.9285 493.537 Q36.8862 493.537 34.6901 496.211 Q32.4621 498.853 32.4621 503.659 Q32.4621 506.714 33.1941 509.611 Q33.9262 512.507 35.3903 515.181 L29.9795 515.181 Q28.7381 511.966 28.1334 508.942 Q27.4968 505.919 27.4968 503.054 Q27.4968 495.32 31.5072 491.5 Q35.5176 487.681 43.6657 487.681 Z" fill="#000000" fill-rule="nonzero" fill-opacity="1"></path><path clip-path="url(#clip390)" d="M18.2347 469.825 L28.3562 469.825 L28.3562 457.762 L32.9077 457.762 L32.9077 469.825 L52.2594 469.825 Q56.6199 469.825 57.8613 468.647 Q59.1026 467.438 59.1026 463.778 L59.1026 457.762 L64.0042 457.762 L64.0042 463.778 Q64.0042 470.557 61.4897 473.135 Q58.9434 475.713 52.2594 475.713 L32.9077 475.713 L32.9077 480.01 L28.3562 480.01 L28.3562 475.713 L18.2347 475.713 L18.2347 469.825 Z" fill="#000000" fill-rule="nonzero" fill-opacity="1"></path><path clip-path="url(#clip390)" d="M28.3562 450.059 L28.3562 444.203 L64.0042 444.203 L64.0042 450.059 L28.3562 450.059 M14.479 450.059 L14.479 444.203 L21.895 444.203 L21.895 450.059 L14.479 450.059 Z" fill="#000000" fill-rule="nonzero" fill-opacity="1"></path><path clip-path="url(#clip390)" d="M28.3562 436.15 L28.3562 429.944 L58.275 418.804 L28.3562 407.664 L28.3562 401.457 L64.0042 414.825 L64.0042 422.782 L28.3562 436.15 Z" fill="#000000" fill-rule="nonzero" fill-opacity="1"></path><path clip-path="url(#clip390)" d="M44.7161 362.881 L47.5806 362.881 L47.5806 389.808 Q53.6281 389.426 56.8109 386.18 Q59.9619 382.901 59.9619 377.077 Q59.9619 373.703 59.1344 370.552 Q58.3069 367.369 56.6518 364.25 L62.1899 364.25 Q63.5267 367.401 64.227 370.711 Q64.9272 374.021 64.9272 377.427 Q64.9272 385.957 59.9619 390.954 Q54.9967 395.919 46.5303 395.919 Q37.7774 395.919 32.6531 391.209 Q27.4968 386.466 27.4968 378.445 Q27.4968 371.252 32.1438 367.083 Q36.7589 362.881 44.7161 362.881 M42.9973 368.738 Q38.1912 368.801 35.3266 371.443 Q32.4621 374.053 32.4621 378.382 Q32.4621 383.283 35.2312 386.243 Q38.0002 389.172 43.0292 389.617 L42.9973 368.738 Z" fill="#000000" fill-rule="nonzero" fill-opacity="1"></path><path clip-path="url(#clip390)" d="M41.7242 309.759 Q42.4244 307.69 44.7161 305.749 Q47.0077 303.776 51.0181 301.802 L64.0042 295.277 L64.0042 302.184 L51.8138 308.263 Q47.0395 310.619 45.48 312.847 Q43.9204 315.043 43.9204 318.862 L43.9204 325.865 L64.0042 325.865 L64.0042 332.294 L16.4842 332.294 L16.4842 317.78 Q16.4842 309.632 19.8898 305.622 Q23.2955 301.611 30.1704 301.611 Q34.6582 301.611 37.6183 303.712 Q40.5784 305.781 41.7242 309.759 M21.7677 325.865 L38.6368 325.865 L38.6368 317.78 Q38.6368 313.133 36.5043 310.778 Q34.34 308.391 30.1704 308.391 Q26.0009 308.391 23.9002 310.778 Q21.7677 313.133 21.7677 317.78 L21.7677 325.865 Z" fill="#000000" fill-rule="nonzero" fill-opacity="1"></path><path clip-path="url(#clip390)" d="M44.7161 259.693 L47.5806 259.693 L47.5806 286.62 Q53.6281 286.238 56.8109 282.992 Q59.9619 279.713 59.9619 273.889 Q59.9619 270.515 59.1344 267.364 Q58.3069 264.181 56.6518 261.062 L62.1899 261.062 Q63.5267 264.213 64.227 267.523 Q64.9272 270.833 64.9272 274.239 Q64.9272 282.769 59.9619 287.766 Q54.9967 292.731 46.5303 292.731 Q37.7774 292.731 32.6531 288.02 Q27.4968 283.278 27.4968 275.257 Q27.4968 268.064 32.1438 263.894 Q36.7589 259.693 44.7161 259.693 M42.9973 265.549 Q38.1912 265.613 35.3266 268.255 Q32.4621 270.865 32.4621 275.194 Q32.4621 280.095 35.2312 283.055 Q38.0002 285.983 43.0292 286.429 L42.9973 265.549 Z" fill="#000000" fill-rule="nonzero" fill-opacity="1"></path><path clip-path="url(#clip390)" d="M18.2347 244.288 L28.3562 244.288 L28.3562 232.225 L32.9077 232.225 L32.9077 244.288 L52.2594 244.288 Q56.6199 244.288 57.8613 243.11 Q59.1026 241.901 59.1026 238.241 L59.1026 232.225 L64.0042 232.225 L64.0042 238.241 Q64.0042 245.02 61.4897 247.598 Q58.9434 250.176 52.2594 250.176 L32.9077 250.176 L32.9077 254.473 L28.3562 254.473 L28.3562 250.176 L18.2347 250.176 L18.2347 244.288 Z" fill="#000000" fill-rule="nonzero" fill-opacity="1"></path><path clip-path="url(#clip390)" d="M49.9359 225.127 L28.3562 225.127 L28.3562 219.271 L49.7131 219.271 Q54.7739 219.271 57.3202 217.297 Q59.8346 215.324 59.8346 211.377 Q59.8346 206.635 56.8109 203.898 Q53.7872 201.129 48.5673 201.129 L28.3562 201.129 L28.3562 195.272 L64.0042 195.272 L64.0042 201.129 L58.5296 201.129 Q61.7762 203.261 63.3676 206.094 Q64.9272 208.895 64.9272 212.619 Q64.9272 218.762 61.1078 221.944 Q57.2883 225.127 49.9359 225.127 M27.4968 210.391 L27.4968 210.391 Z" fill="#000000" fill-rule="nonzero" fill-opacity="1"></path><path clip-path="url(#clip390)" d="M33.8307 162.552 Q33.2578 163.539 33.0032 164.717 Q32.7167 165.863 32.7167 167.263 Q32.7167 172.228 35.9632 174.902 Q39.1779 177.544 45.2253 177.544 L64.0042 177.544 L64.0042 183.432 L28.3562 183.432 L28.3562 177.544 L33.8944 177.544 Q30.6479 175.698 29.0883 172.737 Q27.4968 169.777 27.4968 165.544 Q27.4968 164.939 27.5923 164.207 Q27.656 163.475 27.8151 162.584 L33.8307 162.552 Z" fill="#000000" fill-rule="nonzero" fill-opacity="1"></path><path clip-path="url(#clip390)" d="M42.4881 127.923 L64.0042 127.923 L64.0042 133.779 L42.679 133.779 Q37.6183 133.779 35.1038 135.753 Q32.5894 137.726 32.5894 141.673 Q32.5894 146.415 35.6131 149.153 Q38.6368 151.89 43.8567 151.89 L64.0042 151.89 L64.0042 157.778 L28.3562 157.778 L28.3562 151.89 L33.8944 151.89 Q30.6797 149.789 29.0883 146.956 Q27.4968 144.092 27.4968 140.368 Q27.4968 134.225 31.3163 131.074 Q35.1038 127.923 42.4881 127.923 Z" fill="#000000" fill-rule="nonzero" fill-opacity="1"></path><path clip-path="url(#clip390)" d="M29.4065 93.5163 L34.9447 93.5163 Q33.6716 95.9989 33.035 98.6725 Q32.3984 101.346 32.3984 104.211 Q32.3984 108.571 33.7352 110.767 Q35.072 112.932 37.7456 112.932 Q39.7826 112.932 40.9603 111.372 Q42.1061 109.812 43.1565 105.102 L43.6021 103.097 Q44.9389 96.8583 47.3897 94.2483 Q49.8086 91.6065 54.1691 91.6065 Q59.1344 91.6065 62.0308 95.5533 Q64.9272 99.4682 64.9272 106.343 Q64.9272 109.208 64.3543 112.327 Q63.8132 115.414 62.6992 118.852 L56.6518 118.852 Q58.3387 115.605 59.198 112.454 Q60.0256 109.303 60.0256 106.216 Q60.0256 102.078 58.6251 99.8501 Q57.1929 97.6221 54.6147 97.6221 Q52.2276 97.6221 50.9545 99.2454 Q49.6813 100.837 48.5037 106.28 L48.0262 108.317 Q46.8804 113.759 44.5251 116.178 Q42.138 118.597 38.0002 118.597 Q32.9713 118.597 30.2341 115.032 Q27.4968 111.468 27.4968 104.911 Q27.4968 101.664 27.9743 98.7998 Q28.4517 95.9352 29.4065 93.5163 Z" fill="#000000" fill-rule="nonzero" fill-opacity="1"></path><path clip-path="url(#clip390)" d="M1144.53 18.8205 L1144.53 41.5461 L1154.82 41.5461 Q1160.53 41.5461 1163.65 38.5889 Q1166.77 35.6318 1166.77 30.163 Q1166.77 24.7348 1163.65 21.7777 Q1160.53 18.8205 1154.82 18.8205 L1144.53 18.8205 M1136.35 12.096 L1154.82 12.096 Q1164.99 12.096 1170.17 16.714 Q1175.4 21.2916 1175.4 30.163 Q1175.4 39.1155 1170.17 43.6931 Q1164.99 48.2706 1154.82 48.2706 L1144.53 48.2706 L1144.53 72.576 L1136.35 72.576 L1136.35 12.096 Z" fill="#000000" fill-rule="nonzero" fill-opacity="1"></path><path clip-path="url(#clip390)" d="M1200.67 32.4315 Q1194.68 32.4315 1191.2 37.1306 Q1187.71 41.7891 1187.71 49.9314 Q1187.71 58.0738 1191.16 62.7728 Q1194.64 67.4314 1200.67 67.4314 Q1206.63 67.4314 1210.11 62.7323 Q1213.6 58.0333 1213.6 49.9314 Q1213.6 41.8701 1210.11 37.1711 Q1206.63 32.4315 1200.67 32.4315 M1200.67 26.1121 Q1210.4 26.1121 1215.95 32.4315 Q1221.5 38.7509 1221.5 49.9314 Q1221.5 61.0714 1215.95 67.4314 Q1210.4 73.7508 1200.67 73.7508 Q1190.91 73.7508 1185.36 67.4314 Q1179.85 61.0714 1179.85 49.9314 Q1179.85 38.7509 1185.36 32.4315 Q1190.91 26.1121 1200.67 26.1121 Z" fill="#000000" fill-rule="nonzero" fill-opacity="1"></path><path clip-path="url(#clip390)" d="M1260.14 34.1734 Q1258.89 33.4443 1257.39 33.1202 Q1255.93 32.7556 1254.15 32.7556 Q1247.83 32.7556 1244.42 36.8875 Q1241.06 40.9789 1241.06 48.6757 L1241.06 72.576 L1233.57 72.576 L1233.57 27.2059 L1241.06 27.2059 L1241.06 34.2544 Q1243.41 30.1225 1247.18 28.1376 Q1250.95 26.1121 1256.33 26.1121 Q1257.1 26.1121 1258.04 26.2337 Q1258.97 26.3147 1260.1 26.5172 L1260.14 34.1734 Z" fill="#000000" fill-rule="nonzero" fill-opacity="1"></path><path clip-path="url(#clip390)" d="M1275.33 14.324 L1275.33 27.2059 L1290.69 27.2059 L1290.69 32.9987 L1275.33 32.9987 L1275.33 57.6282 Q1275.33 63.1779 1276.83 64.7578 Q1278.37 66.3376 1283.03 66.3376 L1290.69 66.3376 L1290.69 72.576 L1283.03 72.576 Q1274.4 72.576 1271.12 69.3758 Q1267.84 66.1351 1267.84 57.6282 L1267.84 32.9987 L1262.37 32.9987 L1262.37 27.2059 L1267.84 27.2059 L1267.84 14.324 L1275.33 14.324 Z" fill="#000000" fill-rule="nonzero" fill-opacity="1"></path><path clip-path="url(#clip390)" d="M1323.46 9.54393 L1323.46 15.7418 L1316.33 15.7418 Q1312.32 15.7418 1310.74 17.3622 Q1309.2 18.9825 1309.2 23.1955 L1309.2 27.2059 L1321.47 27.2059 L1321.47 32.9987 L1309.2 32.9987 L1309.2 72.576 L1301.7 72.576 L1301.7 32.9987 L1294.57 32.9987 L1294.57 27.2059 L1301.7 27.2059 L1301.7 24.0462 Q1301.7 16.471 1305.23 13.0277 Q1308.75 9.54393 1316.41 9.54393 L1323.46 9.54393 Z" fill="#000000" fill-rule="nonzero" fill-opacity="1"></path><path clip-path="url(#clip390)" d="M1347.28 32.4315 Q1341.28 32.4315 1337.8 37.1306 Q1334.31 41.7891 1334.31 49.9314 Q1334.31 58.0738 1337.76 62.7728 Q1341.24 67.4314 1347.28 67.4314 Q1353.23 67.4314 1356.72 62.7323 Q1360.2 58.0333 1360.2 49.9314 Q1360.2 41.8701 1356.72 37.1711 Q1353.23 32.4315 1347.28 32.4315 M1347.28 26.1121 Q1357 26.1121 1362.55 32.4315 Q1368.1 38.7509 1368.1 49.9314 Q1368.1 61.0714 1362.55 67.4314 Q1357 73.7508 1347.28 73.7508 Q1337.51 73.7508 1331.96 67.4314 Q1326.46 61.0714 1326.46 49.9314 Q1326.46 38.7509 1331.96 32.4315 Q1337.51 26.1121 1347.28 26.1121 Z" fill="#000000" fill-rule="nonzero" fill-opacity="1"></path><path clip-path="url(#clip390)" d="M1380.45 9.54393 L1387.91 9.54393 L1387.91 72.576 L1380.45 72.576 L1380.45 9.54393 Z" fill="#000000" fill-rule="nonzero" fill-opacity="1"></path><path clip-path="url(#clip390)" d="M1403.5 27.2059 L1410.96 27.2059 L1410.96 72.576 L1403.5 72.576 L1403.5 27.2059 M1403.5 9.54393 L1410.96 9.54393 L1410.96 18.9825 L1403.5 18.9825 L1403.5 9.54393 Z" fill="#000000" fill-rule="nonzero" fill-opacity="1"></path><path clip-path="url(#clip390)" d="M1444.13 32.4315 Q1438.14 32.4315 1434.66 37.1306 Q1431.17 41.7891 1431.17 49.9314 Q1431.17 58.0738 1434.61 62.7728 Q1438.1 67.4314 1444.13 67.4314 Q1450.09 67.4314 1453.57 62.7323 Q1457.06 58.0333 1457.06 49.9314 Q1457.06 41.8701 1453.57 37.1711 Q1450.09 32.4315 1444.13 32.4315 M1444.13 26.1121 Q1453.86 26.1121 1459.41 32.4315 Q1464.96 38.7509 1464.96 49.9314 Q1464.96 61.0714 1459.41 67.4314 Q1453.86 73.7508 1444.13 73.7508 Q1434.37 73.7508 1428.82 67.4314 Q1423.31 61.0714 1423.31 49.9314 Q1423.31 38.7509 1428.82 32.4315 Q1434.37 26.1121 1444.13 26.1121 Z" fill="#000000" fill-rule="nonzero" fill-opacity="1"></path><polyline clip-path="url(#clip392)" style="stroke:#009af9; stroke-linecap:round; stroke-linejoin:round; stroke-width:4; stroke-opacity:1; fill:none" points="308.1,1067.95 311.207,1073.53 314.313,1089.88 323.634,1071.77 326.74,1085.73 329.847,1075.74 332.954,1106.07 336.061,1126.17 348.488,1151.18 351.595,1173.1 354.701,1182.53 357.808,1180.99 367.129,1143.8 370.235,1150.4 373.342,1224.63 376.449,1221.74 379.556,1226.49 388.876,1170.72 391.983,1220.81 395.09,1246.57 398.196,1253.64 401.303,1254.64 410.624,1281.97 413.73,1251.45 416.837,1264.83 419.944,1235.7 423.051,1220.28 432.371,1206.28 435.478,1247.82 438.585,1214.78 441.691,1193.31 444.798,1210.05 457.225,1224.27 460.332,1242.8 463.439,1279.3 466.546,1298.91 475.866,1271.55 478.973,1228.77 482.079,1252.12 485.186,1242.68 488.293,1234.54 497.613,1261.43 500.72,1291.97 503.827,1281.4 506.934,1256.39 510.04,1249.19 519.231,1229.38 522.338,1242.28 525.445,1250.09 528.552,1283.16 531.658,1292.01 540.979,1305.93 544.086,1328.04 547.192,1308.87 550.299,1291.09 553.406,1314.25 562.726,1310.58 565.833,1325.24 568.94,1303.61 572.047,1309.64 584.474,1330.07 587.581,1336.96 590.687,1332.16 593.794,1346.82 596.901,1346.45 606.221,1331.4 609.328,1310.81 612.435,1326.89 615.542,1331.05 618.648,1366.53 627.969,1377.51 631.075,1364.42 634.182,1379.72 637.289,1379.97 640.396,1384.56 649.716,1370.21 652.823,1351.63 655.93,1359.94 659.036,1375.61 662.143,1348.04 671.464,1365.6 674.57,1386.4 677.677,1369.98 680.784,1346.93 683.891,1337.33 693.211,1323.55 696.318,1342.03 699.425,1346.29 702.531,1338.11 705.638,1311.74 714.959,1224.96 718.065,1149.97 721.172,1207.02 724.279,1233.41 727.386,1237.58 736.706,1226.57 739.813,1241.16 742.92,1226.17 746.026,1266.42 749.133,1248.77 761.56,1253.7 764.667,1276.27 767.774,1256.21 770.881,1256.98 780.201,1240.73 783.308,1253.97 786.414,1221.14 789.521,1210.36 792.628,1239.77 801.948,1232.1 805.055,1231.99 808.162,1172.23 811.269,1188.76 814.375,1220.09 823.696,1241.08 826.803,1243.79 833.016,1243.42 836.123,1254.68 845.443,1246.18 848.55,1238.01 851.657,1210.38 854.764,1179.41 857.87,1189.23 867.191,1195.64 870.298,1165.49 873.404,1159.5 879.618,1147.18 888.938,1128.59 892.045,1106.62 895.152,1057.46 898.259,1037.42 901.365,992.921 910.686,983.105 913.792,956.046 916.899,971.621 920.006,1020.45 923.113,1029.51 932.433,1015.65 935.54,1010 938.647,1048.95 941.753,1033.93 944.86,1004.83 954.181,1020.48 957.287,1043.73 960.394,1028.84 963.501,1082.83 966.608,1127.07 975.928,1149.65 979.035,1144.71 982.142,1188.47 985.248,1146.24 988.355,1152.53 997.675,1163.42 1000.78,1133.34 1003.89,1145.12 1007,1108.36 1010.1,1105.7 1019.42,1069.84 1022.53,1091.64 1025.64,1068.25 1028.74,1089.55 1031.85,1053.77 1041.17,1061.1 1044.28,1074.29 1047.38,1100.7 1050.49,1067.6 1053.6,1064.86 1066.02,1109.2 1069.13,1104.35 1072.24,1111.65 1075.35,1141.46 1084.67,1117.73 1087.77,1111.3 1090.88,1078.13 1093.99,1076.7 1097.09,1052.58 1106.41,1061.43 1109.52,1060.9 1112.63,1073.19 1115.73,1063.46 1118.84,1089.6 1128.16,1085.23 1131.27,1084.23 1134.37,1110.31 1137.48,1083.91 1140.59,1060.94 1149.91,1059.3 1153.01,1111.38 1156.12,1090.22 1159.23,1100.73 1162.33,1082.85 1171.66,1091.52 1174.76,1092.52 1177.87,1085.19 1180.98,1087.45 1184.08,1062.36 1193.4,1034.03 1196.51,1031.55 1199.62,1019.08 1202.72,1025.26 1205.83,1019.92 1215.15,1015.01 1218.26,1002.24 1221.36,1028.3 1224.47,1018.33 1227.58,1016.21 1236.9,995.865 1240,1016.87 1243.11,1016.59 1246.22,1045.47 1249.32,1042.76 1258.77,1046.48 1261.88,1012.28 1264.99,1027.38 1268.09,1012.27 1271.2,985.061 1280.52,931.061 1283.63,950.359 1286.74,922.463 1289.84,972.104 1292.95,974.082 1302.27,965.468 1305.38,955.703 1308.48,959.735 1311.59,940.44 1314.7,911.177 1324.02,828.435 1327.12,839.119 1330.23,804.084 1336.44,794.923 1345.76,818.432 1348.87,834.824 1351.98,818.815 1355.08,816.922 1358.19,784.716 1367.51,719.068 1370.62,763.434 1373.73,758.349 1376.83,763.254 1379.94,759.772 1389.26,668.519 1392.37,667.126 1395.47,771.192 1398.58,778.883 1401.69,653.446 1411.01,634.176 1414.11,598.187 1420.33,572.809 1423.43,609.997 1432.75,635.856 1435.86,658.581 1442.07,665.781 1445.18,578.581 1454.5,516.896 1457.61,540.274 1460.72,588.377 1466.93,614.141 1476.25,662.736 1479.36,655.578 1482.46,593.134 1485.57,551.411 1488.68,584.545 1501.1,535.456 1504.21,563.393 1507.32,538.451 1510.42,539.907 1519.74,596.623 1522.85,571.748 1525.96,593.438 1529.06,567.716 1532.17,586.116 1541.49,628.12 1544.6,583.885 1547.71,538.04 1550.81,548.964 1553.92,560.564 1563.24,512.883 1566.35,571.316 1569.45,516.366 1572.56,465.592 1575.67,435.574 1588.09,382.933 1591.2,435.21 1594.31,489.248 1597.41,568.135 1606.73,612.567 1609.84,689.37 1612.95,658.172 1616.05,696.334 1619.16,662.305 1628.48,751.748 1631.59,763.59 1634.69,708.611 1637.8,769.246 1640.91,739.718 1650.1,827.416 1653.21,809.584 1656.31,775.073 1659.42,818.259 1662.53,762.027 1671.85,740.132 1674.95,768.506 1678.06,730.474 1681.17,753.342 1684.27,732.278 1693.59,682.149 1696.7,696.56 1699.81,741.881 1702.91,770.042 1706.02,808.702 1715.34,842.07 1718.45,830.932 1721.56,859.601 1724.66,962.494 1727.77,1007.08 1737.09,999.579 1740.2,1040.27 1743.3,897.669 1746.41,957.78 1749.52,933.623 1758.84,912.836 1761.94,898.705 1765.05,929.898 1768.16,925.804 1780.58,950.656 1783.69,914.332 1786.8,859.555 1789.9,825.21 1793.01,797.611 1802.33,778.42 1805.44,785.499 1808.55,794.115 1811.65,803.068 1814.76,779.828 1824.08,783.053 1827.19,789.678 1830.29,776.78 1833.4,731.157 1836.51,742.967 1845.83,690.227 1848.93,672.187 1852.04,682.55 1855.15,670.794 1858.25,633.851 1867.57,622.632 1870.68,622.869 1873.79,670.419 1876.89,644.199 1880,666.131 1892.43,594.765 1895.53,613.698 1898.64,647.134 1901.75,662.051 1911.07,656.594 1914.18,660.497 1917.28,656.249 1920.39,663.852 1923.5,618.936 1932.82,598.17 1935.92,599.967 1939.03,592.793 1942.14,606.336 1945.24,656.649 1954.56,596.271 1957.67,638.885 1960.78,605.782 1966.99,617.537 1976.31,603.651 1979.42,570.767 1982.52,518.977 1985.63,496.979 1988.74,516.705 1998.06,484.767 2001.17,534.017 2004.27,538.101 2007.38,507.126 2019.81,506.396 2022.91,460.833 2026.02,468.989 2029.13,453.592 2032.23,468.05 2041.55,456.314 2044.66,464.053 2047.77,459.45 2050.87,411.096 2053.98,406.232 2063.3,418.693 2066.41,398.286 2069.51,352.419 2072.62,387.16 2075.73,403.561 2085.05,445.596 2088.16,470.92 2091.26,479.049 2094.37,479.548 2097.48,527.296 2106.8,482.535 2109.9,504.569 2113.01,515.389 2116.12,496.107 2119.22,552.828 2128.54,546.277 2131.65,513.197 2134.76,457.129 2137.86,488.2 2140.97,478.93 2150.29,444.488 2153.4,496.099 2156.5,521.369 2159.61,519.654 2162.72,442.884 2172.04,433.336 2175.15,418.68 2178.25,425.477 2181.36,398.437 2184.47,411.581 2196.89,419.913 2200,430.431 2203.11,437.021 2206.21,397.88 2215.53,386.57 2218.64,403.967 2221.75,416.022 2224.85,384.849 2227.96,370.947 2237.28,339.846 2240.39,329.225 2243.49,339.232 2246.6,280.667 2249.71,250.698 2259.03,195.696 2262.14,214.458 2265.24,221.653 2268.35,194.224 2271.46,160.482 2280.78,160.256 2283.88,206.778 2286.99,208.242 2290.1,214.415 2293.2,240.965 "></polyline>
</svg>