<svg xmlns="http://www.w3.org/2000/svg" xmlns:xlink="http://www.w3.org/1999/xlink" width="600" height="400" viewBox="0 0 2400 1600">
<defs>
  <clipPath id="clip430">
    <rect x="0" y="0" width="2400" height="1600"></rect>
  </clipPath>
</defs>
<path clip-path="url(#clip430)" d="M0 1600 L2400 1600 L2400 0 L0 0  Z" fill="#ffffff" fill-rule="evenodd" fill-opacity="1"></path>
<defs>
  <clipPath id="clip431">
    <rect x="480" y="0" width="1681" height="1600"></rect>
  </clipPath>
</defs>
<path clip-path="url(#clip430)" d="M249.542 1354.85 L2352.76 1354.85 L2352.76 123.472 L249.542 123.472  Z" fill="#ffffff" fill-rule="evenodd" fill-opacity="1"></path>
<defs>
  <clipPath id="clip432">
    <rect x="249" y="123" width="2104" height="1232"></rect>
  </clipPath>
</defs>
<polyline clip-path="url(#clip432)" style="stroke:#000000; stroke-linecap:round; stroke-linejoin:round; stroke-width:2; stroke-opacity:0.1; fill:none" points="475.332,1354.85 475.332,123.472 "></polyline>
<polyline clip-path="url(#clip432)" style="stroke:#000000; stroke-linecap:round; stroke-linejoin:round; stroke-width:2; stroke-opacity:0.1; fill:none" points="750.604,1354.85 750.604,123.472 "></polyline>
<polyline clip-path="url(#clip432)" style="stroke:#000000; stroke-linecap:round; stroke-linejoin:round; stroke-width:2; stroke-opacity:0.1; fill:none" points="1025.88,1354.85 1025.88,123.472 "></polyline>
<polyline clip-path="url(#clip432)" style="stroke:#000000; stroke-linecap:round; stroke-linejoin:round; stroke-width:2; stroke-opacity:0.1; fill:none" points="1301.15,1354.85 1301.15,123.472 "></polyline>
<polyline clip-path="url(#clip432)" style="stroke:#000000; stroke-linecap:round; stroke-linejoin:round; stroke-width:2; stroke-opacity:0.1; fill:none" points="1576.42,1354.85 1576.42,123.472 "></polyline>
<polyline clip-path="url(#clip432)" style="stroke:#000000; stroke-linecap:round; stroke-linejoin:round; stroke-width:2; stroke-opacity:0.1; fill:none" points="1851.69,1354.85 1851.69,123.472 "></polyline>
<polyline clip-path="url(#clip432)" style="stroke:#000000; stroke-linecap:round; stroke-linejoin:round; stroke-width:2; stroke-opacity:0.1; fill:none" points="2126.97,1354.85 2126.97,123.472 "></polyline>
<polyline clip-path="url(#clip432)" style="stroke:#000000; stroke-linecap:round; stroke-linejoin:round; stroke-width:2; stroke-opacity:0.1; fill:none" points="249.542,1354.85 2352.76,1354.85 "></polyline>
<polyline clip-path="url(#clip432)" style="stroke:#000000; stroke-linecap:round; stroke-linejoin:round; stroke-width:2; stroke-opacity:0.1; fill:none" points="249.542,1144.11 2352.76,1144.11 "></polyline>
<polyline clip-path="url(#clip432)" style="stroke:#000000; stroke-linecap:round; stroke-linejoin:round; stroke-width:2; stroke-opacity:0.1; fill:none" points="249.542,933.373 2352.76,933.373 "></polyline>
<polyline clip-path="url(#clip432)" style="stroke:#000000; stroke-linecap:round; stroke-linejoin:round; stroke-width:2; stroke-opacity:0.1; fill:none" points="249.542,722.632 2352.76,722.632 "></polyline>
<polyline clip-path="url(#clip432)" style="stroke:#000000; stroke-linecap:round; stroke-linejoin:round; stroke-width:2; stroke-opacity:0.1; fill:none" points="249.542,511.892 2352.76,511.892 "></polyline>
<polyline clip-path="url(#clip432)" style="stroke:#000000; stroke-linecap:round; stroke-linejoin:round; stroke-width:2; stroke-opacity:0.1; fill:none" points="249.542,301.151 2352.76,301.151 "></polyline>
<polyline clip-path="url(#clip430)" style="stroke:#000000; stroke-linecap:round; stroke-linejoin:round; stroke-width:4; stroke-opacity:1; fill:none" points="249.542,1354.85 2352.76,1354.85 "></polyline>
<polyline clip-path="url(#clip430)" style="stroke:#000000; stroke-linecap:round; stroke-linejoin:round; stroke-width:4; stroke-opacity:1; fill:none" points="475.332,1354.85 475.332,1335.96 "></polyline>
<polyline clip-path="url(#clip430)" style="stroke:#000000; stroke-linecap:round; stroke-linejoin:round; stroke-width:4; stroke-opacity:1; fill:none" points="750.604,1354.85 750.604,1335.96 "></polyline>
<polyline clip-path="url(#clip430)" style="stroke:#000000; stroke-linecap:round; stroke-linejoin:round; stroke-width:4; stroke-opacity:1; fill:none" points="1025.88,1354.85 1025.88,1335.96 "></polyline>
<polyline clip-path="url(#clip430)" style="stroke:#000000; stroke-linecap:round; stroke-linejoin:round; stroke-width:4; stroke-opacity:1; fill:none" points="1301.15,1354.85 1301.15,1335.96 "></polyline>
<polyline clip-path="url(#clip430)" style="stroke:#000000; stroke-linecap:round; stroke-linejoin:round; stroke-width:4; stroke-opacity:1; fill:none" points="1576.42,1354.85 1576.42,1335.96 "></polyline>
<polyline clip-path="url(#clip430)" style="stroke:#000000; stroke-linecap:round; stroke-linejoin:round; stroke-width:4; stroke-opacity:1; fill:none" points="1851.69,1354.85 1851.69,1335.96 "></polyline>
<polyline clip-path="url(#clip430)" style="stroke:#000000; stroke-linecap:round; stroke-linejoin:round; stroke-width:4; stroke-opacity:1; fill:none" points="2126.97,1354.85 2126.97,1335.96 "></polyline>
<path clip-path="url(#clip430)" d="M476.107 1426.42 L488.769 1426.42 L488.769 1418.92 Q488.769 1415.14 487.218 1413.34 Q485.644 1411.51 482.426 1411.51 Q479.186 1411.51 477.658 1413.34 Q476.107 1415.14 476.107 1418.92 L476.107 1426.42 M461.894 1426.42 L472.311 1426.42 L472.311 1419.49 Q472.311 1416.07 471.038 1414.4 Q469.741 1412.71 467.102 1412.71 Q464.487 1412.71 463.19 1414.4 Q461.894 1416.07 461.894 1419.49 L461.894 1426.42 M458.052 1431.09 L458.052 1419.15 Q458.052 1413.8 460.274 1410.91 Q462.496 1408.01 466.593 1408.01 Q469.764 1408.01 471.639 1409.49 Q473.514 1410.98 473.977 1413.85 Q474.718 1410.4 477.079 1408.5 Q479.417 1406.58 482.936 1406.58 Q487.565 1406.58 490.088 1409.73 Q492.612 1412.87 492.612 1418.68 L492.612 1431.09 L458.052 1431.09 Z" fill="#000000" fill-rule="nonzero" fill-opacity="1"></path><path clip-path="url(#clip430)" d="M476.107 1393.89 L488.769 1393.89 L488.769 1386.39 Q488.769 1382.62 487.218 1380.81 Q485.644 1378.99 482.426 1378.99 Q479.186 1378.99 477.658 1380.81 Q476.107 1382.62 476.107 1386.39 L476.107 1393.89 M461.894 1393.89 L472.311 1393.89 L472.311 1386.97 Q472.311 1383.55 471.038 1381.88 Q469.741 1380.19 467.102 1380.19 Q464.487 1380.19 463.19 1381.88 Q461.894 1383.55 461.894 1386.97 L461.894 1393.89 M458.052 1398.57 L458.052 1386.62 Q458.052 1381.28 460.274 1378.38 Q462.496 1375.49 466.593 1375.49 Q469.764 1375.49 471.639 1376.97 Q473.514 1378.45 473.977 1381.32 Q474.718 1377.87 477.079 1375.98 Q479.417 1374.05 482.936 1374.05 Q487.565 1374.05 490.088 1377.2 Q492.612 1380.35 492.612 1386.16 L492.612 1398.57 L458.052 1398.57 Z" fill="#000000" fill-rule="nonzero" fill-opacity="1"></path><path clip-path="url(#clip430)" d="M733.324 1495.79 L733.324 1491.11 L763.949 1491.11 L763.949 1474.29 L767.884 1474.29 L767.884 1495.79 L733.324 1495.79 Z" fill="#000000" fill-rule="nonzero" fill-opacity="1"></path><path clip-path="url(#clip430)" d="M762.953 1445.81 L753.671 1445.81 L753.671 1453.45 L749.829 1453.45 L749.829 1441.18 L764.666 1441.18 Q766.588 1443.89 767.583 1447.16 Q768.555 1450.42 768.555 1454.12 Q768.555 1462.23 763.833 1466.81 Q759.088 1471.37 750.639 1471.37 Q742.167 1471.37 737.444 1466.81 Q732.699 1462.23 732.699 1454.12 Q732.699 1450.74 733.532 1447.71 Q734.366 1444.66 735.986 1442.09 L740.963 1442.09 Q738.764 1444.68 737.653 1447.6 Q736.542 1450.51 736.542 1453.73 Q736.542 1460.07 740.083 1463.27 Q743.625 1466.44 750.639 1466.44 Q757.629 1466.44 761.171 1463.27 Q764.713 1460.07 764.713 1453.73 Q764.713 1451.25 764.296 1449.31 Q763.856 1447.36 762.953 1445.81 Z" fill="#000000" fill-rule="nonzero" fill-opacity="1"></path><path clip-path="url(#clip430)" d="M767.884 1423.73 L733.324 1436.92 L733.324 1432.04 L762.421 1421.09 L733.324 1410.12 L733.324 1405.26 L767.884 1418.43 L767.884 1423.73 Z" fill="#000000" fill-rule="nonzero" fill-opacity="1"></path><path clip-path="url(#clip430)" d="M733.324 1400.21 L733.324 1393.92 L762.236 1378.59 L733.324 1378.59 L733.324 1374.05 L767.884 1374.05 L767.884 1380.35 L738.972 1395.67 L767.884 1395.67 L767.884 1400.21 L733.324 1400.21 Z" fill="#000000" fill-rule="nonzero" fill-opacity="1"></path><path clip-path="url(#clip430)" d="M1008.6 1497.69 L1008.6 1491.39 L1037.51 1476.07 L1008.6 1476.07 L1008.6 1471.53 L1043.16 1471.53 L1043.16 1477.83 L1014.24 1493.15 L1043.16 1493.15 L1043.16 1497.69 L1008.6 1497.69 Z" fill="#000000" fill-rule="nonzero" fill-opacity="1"></path><path clip-path="url(#clip430)" d="M1043.16 1453.31 L1008.6 1466.51 L1008.6 1461.62 L1037.69 1450.67 L1008.6 1439.7 L1008.6 1434.84 L1043.16 1448.01 L1043.16 1453.31 Z" fill="#000000" fill-rule="nonzero" fill-opacity="1"></path><path clip-path="url(#clip430)" d="M1013.2 1421.28 L1030.4 1427.62 L1030.4 1414.91 L1013.2 1421.28 M1008.6 1423.92 L1008.6 1418.61 L1043.16 1405.44 L1043.16 1410.3 L1034.29 1413.45 L1034.29 1429.03 L1043.16 1432.18 L1043.16 1437.11 L1008.6 1423.92 Z" fill="#000000" fill-rule="nonzero" fill-opacity="1"></path><path clip-path="url(#clip430)" d="M1008.6 1402.06 L1008.6 1397.04 L1021.44 1388.45 L1008.6 1379.82 L1008.6 1374.8 L1025.19 1385.91 L1043.16 1374.05 L1043.16 1379.08 L1028.46 1388.8 L1043.16 1398.59 L1043.16 1403.64 L1024.71 1391.3 L1008.6 1402.06 Z" fill="#000000" fill-rule="nonzero" fill-opacity="1"></path><path clip-path="url(#clip430)" d="M1302.23 1463.17 Q1302.73 1461.67 1304.4 1460.26 Q1306.07 1458.82 1308.98 1457.39 L1318.43 1452.64 L1318.43 1457.67 L1309.56 1462.09 Q1306.09 1463.8 1304.96 1465.42 Q1303.82 1467.02 1303.82 1469.79 L1303.82 1474.89 L1318.43 1474.89 L1318.43 1479.56 L1283.87 1479.56 L1283.87 1469.01 Q1283.87 1463.08 1286.35 1460.17 Q1288.82 1457.25 1293.82 1457.25 Q1297.09 1457.25 1299.24 1458.78 Q1301.39 1460.28 1302.23 1463.17 M1287.71 1474.89 L1299.98 1474.89 L1299.98 1469.01 Q1299.98 1465.63 1298.43 1463.92 Q1296.86 1462.18 1293.82 1462.18 Q1290.79 1462.18 1289.26 1463.92 Q1287.71 1465.63 1287.71 1469.01 L1287.71 1474.89 Z" fill="#000000" fill-rule="nonzero" fill-opacity="1"></path><path clip-path="url(#clip430)" d="M1283.87 1446.62 L1283.87 1441.95 L1318.43 1441.95 L1318.43 1446.62 L1283.87 1446.62 Z" fill="#000000" fill-rule="nonzero" fill-opacity="1"></path><path clip-path="url(#clip430)" d="M1318.43 1423.73 L1283.87 1436.92 L1283.87 1432.04 L1312.97 1421.09 L1283.87 1410.12 L1283.87 1405.26 L1318.43 1418.43 L1318.43 1423.73 Z" fill="#000000" fill-rule="nonzero" fill-opacity="1"></path><path clip-path="url(#clip430)" d="M1283.87 1400.21 L1283.87 1393.92 L1312.78 1378.59 L1283.87 1378.59 L1283.87 1374.05 L1318.43 1374.05 L1318.43 1380.35 L1289.52 1395.67 L1318.43 1395.67 L1318.43 1400.21 L1283.87 1400.21 Z" fill="#000000" fill-rule="nonzero" fill-opacity="1"></path><path clip-path="url(#clip430)" d="M1577.5 1472.62 Q1578.01 1471.11 1579.67 1469.7 Q1581.34 1468.27 1584.26 1466.83 L1593.7 1462.09 L1593.7 1467.11 L1584.84 1471.53 Q1581.36 1473.24 1580.23 1474.86 Q1579.1 1476.46 1579.1 1479.24 L1579.1 1484.33 L1593.7 1484.33 L1593.7 1489.01 L1559.14 1489.01 L1559.14 1478.45 Q1559.14 1472.53 1561.62 1469.61 Q1564.1 1466.69 1569.1 1466.69 Q1572.36 1466.69 1574.51 1468.22 Q1576.66 1469.73 1577.5 1472.62 M1562.98 1484.33 L1575.25 1484.33 L1575.25 1478.45 Q1575.25 1475.07 1573.7 1473.36 Q1572.13 1471.62 1569.1 1471.62 Q1566.06 1471.62 1564.53 1473.36 Q1562.98 1475.07 1562.98 1478.45 L1562.98 1484.33 Z" fill="#000000" fill-rule="nonzero" fill-opacity="1"></path><path clip-path="url(#clip430)" d="M1559.14 1456.07 L1559.14 1451.39 L1573.75 1451.39 L1559.14 1435.88 L1559.14 1429.86 L1575.25 1447.02 L1593.7 1428.64 L1593.7 1434.8 L1577.06 1451.39 L1593.7 1451.39 L1593.7 1456.07 L1559.14 1456.07 Z" fill="#000000" fill-rule="nonzero" fill-opacity="1"></path><path clip-path="url(#clip430)" d="M1559.14 1424.98 L1559.14 1420.3 L1589.77 1420.3 L1589.77 1403.48 L1593.7 1403.48 L1593.7 1424.98 L1559.14 1424.98 Z" fill="#000000" fill-rule="nonzero" fill-opacity="1"></path><path clip-path="url(#clip430)" d="M1577.2 1393.89 L1589.86 1393.89 L1589.86 1386.39 Q1589.86 1382.62 1588.31 1380.81 Q1586.73 1378.99 1583.52 1378.99 Q1580.28 1378.99 1578.75 1380.81 Q1577.2 1382.62 1577.2 1386.39 L1577.2 1393.89 M1562.98 1393.89 L1573.4 1393.89 L1573.4 1386.97 Q1573.4 1383.55 1572.13 1381.88 Q1570.83 1380.19 1568.19 1380.19 Q1565.58 1380.19 1564.28 1381.88 Q1562.98 1383.55 1562.98 1386.97 L1562.98 1393.89 M1559.14 1398.57 L1559.14 1386.62 Q1559.14 1381.28 1561.36 1378.38 Q1563.59 1375.49 1567.68 1375.49 Q1570.85 1375.49 1572.73 1376.97 Q1574.6 1378.45 1575.07 1381.32 Q1575.81 1377.87 1578.17 1375.98 Q1580.51 1374.05 1584.03 1374.05 Q1588.66 1374.05 1591.18 1377.2 Q1593.7 1380.35 1593.7 1386.16 L1593.7 1398.57 L1559.14 1398.57 Z" fill="#000000" fill-rule="nonzero" fill-opacity="1"></path><path clip-path="url(#clip430)" d="M1835.55 1452.69 L1840.11 1452.69 Q1838.84 1455.35 1838.21 1457.71 Q1837.59 1460.07 1837.59 1462.27 Q1837.59 1466.09 1839.07 1468.17 Q1840.55 1470.23 1843.28 1470.23 Q1845.57 1470.23 1846.75 1468.87 Q1847.91 1467.48 1848.63 1463.64 L1849.21 1460.81 Q1850.2 1455.58 1852.72 1453.11 Q1855.22 1450.61 1859.44 1450.61 Q1864.46 1450.61 1867.05 1453.98 Q1869.65 1457.34 1869.65 1463.85 Q1869.65 1466.3 1869.09 1469.08 Q1868.53 1471.83 1867.45 1474.79 L1862.63 1474.79 Q1864.23 1471.95 1865.04 1469.22 Q1865.85 1466.48 1865.85 1463.85 Q1865.85 1459.84 1864.27 1457.67 Q1862.7 1455.49 1859.78 1455.49 Q1857.24 1455.49 1855.8 1457.06 Q1854.37 1458.61 1853.65 1462.18 L1853.09 1465.03 Q1852.05 1470.26 1849.83 1472.6 Q1847.61 1474.93 1843.65 1474.93 Q1839.07 1474.93 1836.43 1471.72 Q1833.79 1468.48 1833.79 1462.8 Q1833.79 1460.37 1834.23 1457.85 Q1834.67 1455.33 1835.55 1452.69 Z" fill="#000000" fill-rule="nonzero" fill-opacity="1"></path><path clip-path="url(#clip430)" d="M1837.59 1429.29 Q1837.59 1434.38 1841.38 1437.39 Q1845.18 1440.37 1851.73 1440.37 Q1858.26 1440.37 1862.05 1437.39 Q1865.85 1434.38 1865.85 1429.29 Q1865.85 1424.19 1862.05 1421.23 Q1858.26 1418.24 1851.73 1418.24 Q1845.18 1418.24 1841.38 1421.23 Q1837.59 1424.19 1837.59 1429.29 M1833.79 1429.29 Q1833.79 1422.02 1838.67 1417.67 Q1843.53 1413.31 1851.73 1413.31 Q1859.9 1413.31 1864.78 1417.67 Q1869.65 1422.02 1869.65 1429.29 Q1869.65 1436.58 1864.78 1440.95 Q1859.92 1445.3 1851.73 1445.3 Q1843.53 1445.3 1838.67 1440.95 Q1833.79 1436.58 1833.79 1429.29 Z" fill="#000000" fill-rule="nonzero" fill-opacity="1"></path><path clip-path="url(#clip430)" d="M1834.41 1406 L1834.41 1386.14 L1838.35 1386.14 L1838.35 1401.32 L1848.53 1401.32 L1848.53 1387.62 L1852.47 1387.62 L1852.47 1401.32 L1868.97 1401.32 L1868.97 1406 L1834.41 1406 Z" fill="#000000" fill-rule="nonzero" fill-opacity="1"></path><path clip-path="url(#clip430)" d="M1834.41 1378.73 L1834.41 1374.05 L1868.97 1374.05 L1868.97 1378.73 L1834.41 1378.73 Z" fill="#000000" fill-rule="nonzero" fill-opacity="1"></path><path clip-path="url(#clip430)" d="M2112.86 1512.36 Q2112.86 1517.46 2116.65 1520.47 Q2120.45 1523.45 2127 1523.45 Q2133.53 1523.45 2137.33 1520.47 Q2141.12 1517.46 2141.12 1512.36 Q2141.12 1507.27 2137.33 1504.31 Q2133.53 1501.32 2127 1501.32 Q2120.45 1501.32 2116.65 1504.31 Q2112.86 1507.27 2112.86 1512.36 M2109.06 1512.36 Q2109.06 1505.1 2113.95 1500.74 Q2118.81 1496.39 2127 1496.39 Q2135.17 1496.39 2140.06 1500.74 Q2144.92 1505.1 2144.92 1512.36 Q2144.92 1519.66 2140.06 1524.03 Q2135.2 1528.38 2127 1528.38 Q2118.81 1528.38 2113.95 1524.03 Q2109.06 1519.66 2109.06 1512.36 Z" fill="#000000" fill-rule="nonzero" fill-opacity="1"></path><path clip-path="url(#clip430)" d="M2110.96 1485.05 L2118.32 1485.05 L2118.32 1476.28 L2121.63 1476.28 L2121.63 1485.05 L2135.7 1485.05 Q2138.88 1485.05 2139.78 1484.19 Q2140.68 1483.31 2140.68 1480.65 L2140.68 1476.28 L2144.25 1476.28 L2144.25 1480.65 Q2144.25 1485.58 2142.42 1487.46 Q2140.57 1489.33 2135.7 1489.33 L2121.63 1489.33 L2121.63 1492.46 L2118.32 1492.46 L2118.32 1489.33 L2110.96 1489.33 L2110.96 1485.05 Z" fill="#000000" fill-rule="nonzero" fill-opacity="1"></path><path clip-path="url(#clip430)" d="M2128.6 1449.12 L2144.25 1449.12 L2144.25 1453.38 L2128.74 1453.38 Q2125.06 1453.38 2123.23 1454.82 Q2121.4 1456.25 2121.4 1459.12 Q2121.4 1462.57 2123.6 1464.56 Q2125.8 1466.55 2129.59 1466.55 L2144.25 1466.55 L2144.25 1470.84 L2108.23 1470.84 L2108.23 1466.55 L2122.35 1466.55 Q2120.01 1465.03 2118.85 1462.97 Q2117.7 1460.88 2117.7 1458.17 Q2117.7 1453.71 2120.47 1451.42 Q2123.23 1449.12 2128.6 1449.12 Z" fill="#000000" fill-rule="nonzero" fill-opacity="1"></path><path clip-path="url(#clip430)" d="M2130.22 1418.45 L2132.3 1418.45 L2132.3 1438.04 Q2136.7 1437.76 2139.01 1435.4 Q2141.31 1433.01 2141.31 1428.78 Q2141.31 1426.32 2140.7 1424.03 Q2140.1 1421.72 2138.9 1419.45 L2142.93 1419.45 Q2143.9 1421.74 2144.41 1424.15 Q2144.92 1426.55 2144.92 1429.03 Q2144.92 1435.23 2141.31 1438.87 Q2137.7 1442.48 2131.54 1442.48 Q2125.17 1442.48 2121.45 1439.05 Q2117.7 1435.61 2117.7 1429.77 Q2117.7 1424.54 2121.08 1421.51 Q2124.43 1418.45 2130.22 1418.45 M2128.97 1422.71 Q2125.47 1422.76 2123.39 1424.68 Q2121.31 1426.58 2121.31 1429.73 Q2121.31 1433.29 2123.32 1435.44 Q2125.33 1437.57 2128.99 1437.9 L2128.97 1422.71 Z" fill="#000000" fill-rule="nonzero" fill-opacity="1"></path><path clip-path="url(#clip430)" d="M2122.3 1396.44 Q2121.89 1397.16 2121.7 1398.01 Q2121.49 1398.85 2121.49 1399.86 Q2121.49 1403.48 2123.85 1405.42 Q2126.19 1407.34 2130.59 1407.34 L2144.25 1407.34 L2144.25 1411.62 L2118.32 1411.62 L2118.32 1407.34 L2122.35 1407.34 Q2119.99 1406 2118.85 1403.85 Q2117.7 1401.69 2117.7 1398.61 Q2117.7 1398.17 2117.77 1397.64 Q2117.81 1397.11 2117.93 1396.46 L2122.3 1396.44 Z" fill="#000000" fill-rule="nonzero" fill-opacity="1"></path><path clip-path="url(#clip430)" d="M2119.08 1375.44 L2123.11 1375.44 Q2122.19 1377.25 2121.72 1379.19 Q2121.26 1381.14 2121.26 1383.22 Q2121.26 1386.39 2122.23 1387.99 Q2123.2 1389.56 2125.15 1389.56 Q2126.63 1389.56 2127.49 1388.43 Q2128.32 1387.3 2129.08 1383.87 L2129.41 1382.41 Q2130.38 1377.87 2132.16 1375.98 Q2133.92 1374.05 2137.09 1374.05 Q2140.7 1374.05 2142.81 1376.92 Q2144.92 1379.77 2144.92 1384.77 Q2144.92 1386.86 2144.5 1389.12 Q2144.11 1391.37 2143.3 1393.87 L2138.9 1393.87 Q2140.13 1391.51 2140.75 1389.22 Q2141.35 1386.92 2141.35 1384.68 Q2141.35 1381.67 2140.33 1380.05 Q2139.29 1378.43 2137.42 1378.43 Q2135.68 1378.43 2134.76 1379.61 Q2133.83 1380.77 2132.97 1384.73 L2132.63 1386.21 Q2131.79 1390.17 2130.08 1391.92 Q2128.34 1393.68 2125.33 1393.68 Q2121.68 1393.68 2119.69 1391.09 Q2117.7 1388.5 2117.7 1383.73 Q2117.7 1381.37 2118.04 1379.29 Q2118.39 1377.2 2119.08 1375.44 Z" fill="#000000" fill-rule="nonzero" fill-opacity="1"></path><path clip-path="url(#clip430)" d="M1234.87 1561.02 L1226.15 1584.67 L1243.62 1584.67 L1234.87 1561.02 M1231.24 1554.69 L1238.53 1554.69 L1256.64 1602.21 L1249.95 1602.21 L1245.62 1590.02 L1224.2 1590.02 L1219.87 1602.21 L1213.1 1602.21 L1231.24 1554.69 Z" fill="#000000" fill-rule="nonzero" fill-opacity="1"></path><path clip-path="url(#clip430)" d="M1286.05 1567.61 L1286.05 1573.15 Q1283.56 1571.87 1280.89 1571.24 Q1278.22 1570.6 1275.35 1570.6 Q1270.99 1570.6 1268.8 1571.94 Q1266.63 1573.27 1266.63 1575.95 Q1266.63 1577.98 1268.19 1579.16 Q1269.75 1580.31 1274.46 1581.36 L1276.47 1581.8 Q1282.7 1583.14 1285.31 1585.59 Q1287.96 1588.01 1287.96 1592.37 Q1287.96 1597.34 1284.01 1600.23 Q1280.09 1603.13 1273.22 1603.13 Q1270.35 1603.13 1267.24 1602.56 Q1264.15 1602.02 1260.71 1600.9 L1260.71 1594.85 Q1263.96 1596.54 1267.11 1597.4 Q1270.26 1598.23 1273.35 1598.23 Q1277.48 1598.23 1279.71 1596.83 Q1281.94 1595.4 1281.94 1592.82 Q1281.94 1590.43 1280.32 1589.16 Q1278.73 1587.88 1273.28 1586.71 L1271.25 1586.23 Q1265.8 1585.08 1263.38 1582.73 Q1260.97 1580.34 1260.97 1576.2 Q1260.97 1571.17 1264.53 1568.44 Q1268.1 1565.7 1274.65 1565.7 Q1277.9 1565.7 1280.76 1566.18 Q1283.63 1566.65 1286.05 1567.61 Z" fill="#000000" fill-rule="nonzero" fill-opacity="1"></path><path clip-path="url(#clip430)" d="M1320.01 1567.61 L1320.01 1573.15 Q1317.52 1571.87 1314.85 1571.24 Q1312.18 1570.6 1309.31 1570.6 Q1304.95 1570.6 1302.76 1571.94 Q1300.59 1573.27 1300.59 1575.95 Q1300.59 1577.98 1302.15 1579.16 Q1303.71 1580.31 1308.42 1581.36 L1310.43 1581.8 Q1316.67 1583.14 1319.28 1585.59 Q1321.92 1588.01 1321.92 1592.37 Q1321.92 1597.34 1317.97 1600.23 Q1314.06 1603.13 1307.18 1603.13 Q1304.32 1603.13 1301.2 1602.56 Q1298.11 1602.02 1294.67 1600.9 L1294.67 1594.85 Q1297.92 1596.54 1301.07 1597.4 Q1304.22 1598.23 1307.31 1598.23 Q1311.45 1598.23 1313.67 1596.83 Q1315.9 1595.4 1315.9 1592.82 Q1315.9 1590.43 1314.28 1589.16 Q1312.69 1587.88 1307.24 1586.71 L1305.21 1586.23 Q1299.76 1585.08 1297.35 1582.73 Q1294.93 1580.34 1294.93 1576.2 Q1294.93 1571.17 1298.49 1568.44 Q1302.06 1565.7 1308.61 1565.7 Q1311.86 1565.7 1314.72 1566.18 Q1317.59 1566.65 1320.01 1567.61 Z" fill="#000000" fill-rule="nonzero" fill-opacity="1"></path><path clip-path="url(#clip430)" d="M1361.73 1582.92 L1361.73 1585.78 L1334.81 1585.78 Q1335.19 1591.83 1338.44 1595.01 Q1341.71 1598.16 1347.54 1598.16 Q1350.91 1598.16 1354.06 1597.34 Q1357.25 1596.51 1360.37 1594.85 L1360.37 1600.39 Q1357.21 1601.73 1353.9 1602.43 Q1350.59 1603.13 1347.19 1603.13 Q1338.66 1603.13 1333.66 1598.16 Q1328.7 1593.2 1328.7 1584.73 Q1328.7 1575.98 1333.41 1570.86 Q1338.15 1565.7 1346.17 1565.7 Q1353.36 1565.7 1357.53 1570.35 Q1361.73 1574.96 1361.73 1582.92 M1355.88 1581.2 Q1355.81 1576.39 1353.17 1573.53 Q1350.56 1570.66 1346.23 1570.66 Q1341.33 1570.66 1338.37 1573.43 Q1335.44 1576.2 1335 1581.23 L1355.88 1581.2 Z" fill="#000000" fill-rule="nonzero" fill-opacity="1"></path><path clip-path="url(#clip430)" d="M1377.14 1556.44 L1377.14 1566.56 L1389.2 1566.56 L1389.2 1571.11 L1377.14 1571.11 L1377.14 1590.46 Q1377.14 1594.82 1378.32 1596.06 Q1379.53 1597.3 1383.19 1597.3 L1389.2 1597.3 L1389.2 1602.21 L1383.19 1602.21 Q1376.41 1602.21 1373.83 1599.69 Q1371.25 1597.15 1371.25 1590.46 L1371.25 1571.11 L1366.95 1571.11 L1366.95 1566.56 L1371.25 1566.56 L1371.25 1556.44 L1377.14 1556.44 Z" fill="#000000" fill-rule="nonzero" fill-opacity="1"></path><polyline clip-path="url(#clip430)" style="stroke:#000000; stroke-linecap:round; stroke-linejoin:round; stroke-width:4; stroke-opacity:1; fill:none" points="249.542,1354.85 249.542,123.472 "></polyline>
<polyline clip-path="url(#clip430)" style="stroke:#000000; stroke-linecap:round; stroke-linejoin:round; stroke-width:4; stroke-opacity:1; fill:none" points="249.542,1354.85 268.44,1354.85 "></polyline>
<polyline clip-path="url(#clip430)" style="stroke:#000000; stroke-linecap:round; stroke-linejoin:round; stroke-width:4; stroke-opacity:1; fill:none" points="249.542,1144.11 268.44,1144.11 "></polyline>
<polyline clip-path="url(#clip430)" style="stroke:#000000; stroke-linecap:round; stroke-linejoin:round; stroke-width:4; stroke-opacity:1; fill:none" points="249.542,933.373 268.44,933.373 "></polyline>
<polyline clip-path="url(#clip430)" style="stroke:#000000; stroke-linecap:round; stroke-linejoin:round; stroke-width:4; stroke-opacity:1; fill:none" points="249.542,722.632 268.44,722.632 "></polyline>
<polyline clip-path="url(#clip430)" style="stroke:#000000; stroke-linecap:round; stroke-linejoin:round; stroke-width:4; stroke-opacity:1; fill:none" points="249.542,511.892 268.44,511.892 "></polyline>
<polyline clip-path="url(#clip430)" style="stroke:#000000; stroke-linecap:round; stroke-linejoin:round; stroke-width:4; stroke-opacity:1; fill:none" points="249.542,301.151 268.44,301.151 "></polyline>
<path clip-path="url(#clip430)" d="M126.205 1340.65 Q122.593 1340.65 120.765 1344.22 Q118.959 1347.76 118.959 1354.89 Q118.959 1362 120.765 1365.56 Q122.593 1369.1 126.205 1369.1 Q129.839 1369.1 131.644 1365.56 Q133.473 1362 133.473 1354.89 Q133.473 1347.76 131.644 1344.22 Q129.839 1340.65 126.205 1340.65 M126.205 1336.95 Q132.015 1336.95 135.07 1341.56 Q138.149 1346.14 138.149 1354.89 Q138.149 1363.62 135.07 1368.22 Q132.015 1372.81 126.205 1372.81 Q120.394 1372.81 117.316 1368.22 Q114.26 1363.62 114.26 1354.89 Q114.26 1346.14 117.316 1341.56 Q120.394 1336.95 126.205 1336.95 Z" fill="#000000" fill-rule="nonzero" fill-opacity="1"></path><path clip-path="url(#clip430)" d="M146.366 1366.25 L151.251 1366.25 L151.251 1372.13 L146.366 1372.13 L146.366 1366.25 Z" fill="#000000" fill-rule="nonzero" fill-opacity="1"></path><path clip-path="url(#clip430)" d="M171.436 1340.65 Q167.825 1340.65 165.996 1344.22 Q164.19 1347.76 164.19 1354.89 Q164.19 1362 165.996 1365.56 Q167.825 1369.1 171.436 1369.1 Q175.07 1369.1 176.876 1365.56 Q178.704 1362 178.704 1354.89 Q178.704 1347.76 176.876 1344.22 Q175.07 1340.65 171.436 1340.65 M171.436 1336.95 Q177.246 1336.95 180.301 1341.56 Q183.38 1346.14 183.38 1354.89 Q183.38 1363.62 180.301 1368.22 Q177.246 1372.81 171.436 1372.81 Q165.626 1372.81 162.547 1368.22 Q159.491 1363.62 159.491 1354.89 Q159.491 1346.14 162.547 1341.56 Q165.626 1336.95 171.436 1336.95 Z" fill="#000000" fill-rule="nonzero" fill-opacity="1"></path><path clip-path="url(#clip430)" d="M201.598 1340.65 Q197.987 1340.65 196.158 1344.22 Q194.352 1347.76 194.352 1354.89 Q194.352 1362 196.158 1365.56 Q197.987 1369.1 201.598 1369.1 Q205.232 1369.1 207.037 1365.56 Q208.866 1362 208.866 1354.89 Q208.866 1347.76 207.037 1344.22 Q205.232 1340.65 201.598 1340.65 M201.598 1336.95 Q207.408 1336.95 210.463 1341.56 Q213.542 1346.14 213.542 1354.89 Q213.542 1363.62 210.463 1368.22 Q207.408 1372.81 201.598 1372.81 Q195.787 1372.81 192.709 1368.22 Q189.653 1363.62 189.653 1354.89 Q189.653 1346.14 192.709 1341.56 Q195.787 1336.95 201.598 1336.95 Z" fill="#000000" fill-rule="nonzero" fill-opacity="1"></path><path clip-path="url(#clip430)" d="M127.2 1129.91 Q123.589 1129.91 121.76 1133.48 Q119.955 1137.02 119.955 1144.15 Q119.955 1151.26 121.76 1154.82 Q123.589 1158.36 127.2 1158.36 Q130.834 1158.36 132.64 1154.82 Q134.468 1151.26 134.468 1144.15 Q134.468 1137.02 132.64 1133.48 Q130.834 1129.91 127.2 1129.91 M127.2 1126.21 Q133.01 1126.21 136.066 1130.82 Q139.144 1135.4 139.144 1144.15 Q139.144 1152.88 136.066 1157.48 Q133.01 1162.07 127.2 1162.07 Q121.39 1162.07 118.311 1157.48 Q115.256 1152.88 115.256 1144.15 Q115.256 1135.4 118.311 1130.82 Q121.39 1126.21 127.2 1126.21 Z" fill="#000000" fill-rule="nonzero" fill-opacity="1"></path><path clip-path="url(#clip430)" d="M147.362 1155.51 L152.246 1155.51 L152.246 1161.39 L147.362 1161.39 L147.362 1155.51 Z" fill="#000000" fill-rule="nonzero" fill-opacity="1"></path><path clip-path="url(#clip430)" d="M172.431 1129.91 Q168.82 1129.91 166.991 1133.48 Q165.186 1137.02 165.186 1144.15 Q165.186 1151.26 166.991 1154.82 Q168.82 1158.36 172.431 1158.36 Q176.065 1158.36 177.871 1154.82 Q179.7 1151.26 179.7 1144.15 Q179.7 1137.02 177.871 1133.48 Q176.065 1129.91 172.431 1129.91 M172.431 1126.21 Q178.241 1126.21 181.297 1130.82 Q184.376 1135.4 184.376 1144.15 Q184.376 1152.88 181.297 1157.48 Q178.241 1162.07 172.431 1162.07 Q166.621 1162.07 163.542 1157.48 Q160.487 1152.88 160.487 1144.15 Q160.487 1135.4 163.542 1130.82 Q166.621 1126.21 172.431 1126.21 Z" fill="#000000" fill-rule="nonzero" fill-opacity="1"></path><path clip-path="url(#clip430)" d="M192.639 1126.83 L210.996 1126.83 L210.996 1130.77 L196.922 1130.77 L196.922 1139.24 Q197.94 1138.89 198.959 1138.73 Q199.977 1138.55 200.996 1138.55 Q206.783 1138.55 210.162 1141.72 Q213.542 1144.89 213.542 1150.31 Q213.542 1155.88 210.07 1158.99 Q206.598 1162.07 200.278 1162.07 Q198.102 1162.07 195.834 1161.69 Q193.588 1161.32 191.181 1160.58 L191.181 1155.88 Q193.264 1157.02 195.487 1157.57 Q197.709 1158.13 200.186 1158.13 Q204.19 1158.13 206.528 1156.02 Q208.866 1153.92 208.866 1150.31 Q208.866 1146.69 206.528 1144.59 Q204.19 1142.48 200.186 1142.48 Q198.311 1142.48 196.436 1142.9 Q194.584 1143.32 192.639 1144.19 L192.639 1126.83 Z" fill="#000000" fill-rule="nonzero" fill-opacity="1"></path><path clip-path="url(#clip430)" d="M126.205 919.172 Q122.593 919.172 120.765 922.737 Q118.959 926.278 118.959 933.408 Q118.959 940.514 120.765 944.079 Q122.593 947.621 126.205 947.621 Q129.839 947.621 131.644 944.079 Q133.473 940.514 133.473 933.408 Q133.473 926.278 131.644 922.737 Q129.839 919.172 126.205 919.172 M126.205 915.468 Q132.015 915.468 135.07 920.075 Q138.149 924.658 138.149 933.408 Q138.149 942.135 135.07 946.741 Q132.015 951.324 126.205 951.324 Q120.394 951.324 117.316 946.741 Q114.26 942.135 114.26 933.408 Q114.26 924.658 117.316 920.075 Q120.394 915.468 126.205 915.468 Z" fill="#000000" fill-rule="nonzero" fill-opacity="1"></path><path clip-path="url(#clip430)" d="M146.366 944.774 L151.251 944.774 L151.251 950.653 L146.366 950.653 L146.366 944.774 Z" fill="#000000" fill-rule="nonzero" fill-opacity="1"></path><path clip-path="url(#clip430)" d="M162.246 946.718 L169.885 946.718 L169.885 920.352 L161.575 922.019 L161.575 917.76 L169.839 916.093 L174.514 916.093 L174.514 946.718 L182.153 946.718 L182.153 950.653 L162.246 950.653 L162.246 946.718 Z" fill="#000000" fill-rule="nonzero" fill-opacity="1"></path><path clip-path="url(#clip430)" d="M201.598 919.172 Q197.987 919.172 196.158 922.737 Q194.352 926.278 194.352 933.408 Q194.352 940.514 196.158 944.079 Q197.987 947.621 201.598 947.621 Q205.232 947.621 207.037 944.079 Q208.866 940.514 208.866 933.408 Q208.866 926.278 207.037 922.737 Q205.232 919.172 201.598 919.172 M201.598 915.468 Q207.408 915.468 210.463 920.075 Q213.542 924.658 213.542 933.408 Q213.542 942.135 210.463 946.741 Q207.408 951.324 201.598 951.324 Q195.787 951.324 192.709 946.741 Q189.653 942.135 189.653 933.408 Q189.653 924.658 192.709 920.075 Q195.787 915.468 201.598 915.468 Z" fill="#000000" fill-rule="nonzero" fill-opacity="1"></path><path clip-path="url(#clip430)" d="M127.2 708.431 Q123.589 708.431 121.76 711.996 Q119.955 715.538 119.955 722.667 Q119.955 729.774 121.76 733.338 Q123.589 736.88 127.2 736.88 Q130.834 736.88 132.64 733.338 Q134.468 729.774 134.468 722.667 Q134.468 715.538 132.64 711.996 Q130.834 708.431 127.2 708.431 M127.2 704.727 Q133.01 704.727 136.066 709.334 Q139.144 713.917 139.144 722.667 Q139.144 731.394 136.066 736 Q133.01 740.584 127.2 740.584 Q121.39 740.584 118.311 736 Q115.256 731.394 115.256 722.667 Q115.256 713.917 118.311 709.334 Q121.39 704.727 127.2 704.727 Z" fill="#000000" fill-rule="nonzero" fill-opacity="1"></path><path clip-path="url(#clip430)" d="M147.362 734.033 L152.246 734.033 L152.246 739.912 L147.362 739.912 L147.362 734.033 Z" fill="#000000" fill-rule="nonzero" fill-opacity="1"></path><path clip-path="url(#clip430)" d="M163.241 735.977 L170.88 735.977 L170.88 709.612 L162.57 711.278 L162.57 707.019 L170.834 705.352 L175.51 705.352 L175.51 735.977 L183.149 735.977 L183.149 739.912 L163.241 739.912 L163.241 735.977 Z" fill="#000000" fill-rule="nonzero" fill-opacity="1"></path><path clip-path="url(#clip430)" d="M192.639 705.352 L210.996 705.352 L210.996 709.288 L196.922 709.288 L196.922 717.76 Q197.94 717.413 198.959 717.251 Q199.977 717.065 200.996 717.065 Q206.783 717.065 210.162 720.237 Q213.542 723.408 213.542 728.825 Q213.542 734.403 210.07 737.505 Q206.598 740.584 200.278 740.584 Q198.102 740.584 195.834 740.213 Q193.588 739.843 191.181 739.102 L191.181 734.403 Q193.264 735.538 195.487 736.093 Q197.709 736.649 200.186 736.649 Q204.19 736.649 206.528 734.542 Q208.866 732.436 208.866 728.825 Q208.866 725.213 206.528 723.107 Q204.19 721.001 200.186 721.001 Q198.311 721.001 196.436 721.417 Q194.584 721.834 192.639 722.714 L192.639 705.352 Z" fill="#000000" fill-rule="nonzero" fill-opacity="1"></path><path clip-path="url(#clip430)" d="M126.205 497.69 Q122.593 497.69 120.765 501.255 Q118.959 504.797 118.959 511.927 Q118.959 519.033 120.765 522.598 Q122.593 526.139 126.205 526.139 Q129.839 526.139 131.644 522.598 Q133.473 519.033 133.473 511.927 Q133.473 504.797 131.644 501.255 Q129.839 497.69 126.205 497.69 M126.205 493.987 Q132.015 493.987 135.07 498.593 Q138.149 503.177 138.149 511.927 Q138.149 520.653 135.07 525.26 Q132.015 529.843 126.205 529.843 Q120.394 529.843 117.316 525.26 Q114.26 520.653 114.26 511.927 Q114.26 503.177 117.316 498.593 Q120.394 493.987 126.205 493.987 Z" fill="#000000" fill-rule="nonzero" fill-opacity="1"></path><path clip-path="url(#clip430)" d="M146.366 523.292 L151.251 523.292 L151.251 529.172 L146.366 529.172 L146.366 523.292 Z" fill="#000000" fill-rule="nonzero" fill-opacity="1"></path><path clip-path="url(#clip430)" d="M165.464 525.237 L181.783 525.237 L181.783 529.172 L159.839 529.172 L159.839 525.237 Q162.501 522.482 167.084 517.852 Q171.69 513.2 172.871 511.857 Q175.116 509.334 175.996 507.598 Q176.899 505.839 176.899 504.149 Q176.899 501.394 174.954 499.658 Q173.033 497.922 169.931 497.922 Q167.732 497.922 165.278 498.686 Q162.848 499.45 160.07 501.001 L160.07 496.278 Q162.894 495.144 165.348 494.565 Q167.802 493.987 169.839 493.987 Q175.209 493.987 178.403 496.672 Q181.598 499.357 181.598 503.848 Q181.598 505.977 180.788 507.899 Q180.001 509.797 177.894 512.389 Q177.315 513.061 174.214 516.278 Q171.112 519.473 165.464 525.237 Z" fill="#000000" fill-rule="nonzero" fill-opacity="1"></path><path clip-path="url(#clip430)" d="M201.598 497.69 Q197.987 497.69 196.158 501.255 Q194.352 504.797 194.352 511.927 Q194.352 519.033 196.158 522.598 Q197.987 526.139 201.598 526.139 Q205.232 526.139 207.037 522.598 Q208.866 519.033 208.866 511.927 Q208.866 504.797 207.037 501.255 Q205.232 497.69 201.598 497.69 M201.598 493.987 Q207.408 493.987 210.463 498.593 Q213.542 503.177 213.542 511.927 Q213.542 520.653 210.463 525.26 Q207.408 529.843 201.598 529.843 Q195.787 529.843 192.709 525.26 Q189.653 520.653 189.653 511.927 Q189.653 503.177 192.709 498.593 Q195.787 493.987 201.598 493.987 Z" fill="#000000" fill-rule="nonzero" fill-opacity="1"></path><path clip-path="url(#clip430)" d="M127.2 286.95 Q123.589 286.95 121.76 290.515 Q119.955 294.056 119.955 301.186 Q119.955 308.292 121.76 311.857 Q123.589 315.399 127.2 315.399 Q130.834 315.399 132.64 311.857 Q134.468 308.292 134.468 301.186 Q134.468 294.056 132.64 290.515 Q130.834 286.95 127.2 286.95 M127.2 283.246 Q133.01 283.246 136.066 287.853 Q139.144 292.436 139.144 301.186 Q139.144 309.913 136.066 314.519 Q133.01 319.102 127.2 319.102 Q121.39 319.102 118.311 314.519 Q115.256 309.913 115.256 301.186 Q115.256 292.436 118.311 287.853 Q121.39 283.246 127.2 283.246 Z" fill="#000000" fill-rule="nonzero" fill-opacity="1"></path><path clip-path="url(#clip430)" d="M147.362 312.551 L152.246 312.551 L152.246 318.431 L147.362 318.431 L147.362 312.551 Z" fill="#000000" fill-rule="nonzero" fill-opacity="1"></path><path clip-path="url(#clip430)" d="M166.459 314.496 L182.778 314.496 L182.778 318.431 L160.834 318.431 L160.834 314.496 Q163.496 311.741 168.079 307.112 Q172.686 302.459 173.866 301.116 Q176.112 298.593 176.991 296.857 Q177.894 295.098 177.894 293.408 Q177.894 290.653 175.95 288.917 Q174.028 287.181 170.927 287.181 Q168.727 287.181 166.274 287.945 Q163.843 288.709 161.065 290.26 L161.065 285.538 Q163.89 284.403 166.343 283.825 Q168.797 283.246 170.834 283.246 Q176.204 283.246 179.399 285.931 Q182.593 288.616 182.593 293.107 Q182.593 295.237 181.783 297.158 Q180.996 299.056 178.889 301.649 Q178.311 302.32 175.209 305.538 Q172.107 308.732 166.459 314.496 Z" fill="#000000" fill-rule="nonzero" fill-opacity="1"></path><path clip-path="url(#clip430)" d="M192.639 283.871 L210.996 283.871 L210.996 287.806 L196.922 287.806 L196.922 296.278 Q197.94 295.931 198.959 295.769 Q199.977 295.584 200.996 295.584 Q206.783 295.584 210.162 298.755 Q213.542 301.927 213.542 307.343 Q213.542 312.922 210.07 316.024 Q206.598 319.102 200.278 319.102 Q198.102 319.102 195.834 318.732 Q193.588 318.362 191.181 317.621 L191.181 312.922 Q193.264 314.056 195.487 314.612 Q197.709 315.167 200.186 315.167 Q204.19 315.167 206.528 313.061 Q208.866 310.954 208.866 307.343 Q208.866 303.732 206.528 301.626 Q204.19 299.519 200.186 299.519 Q198.311 299.519 196.436 299.936 Q194.584 300.352 192.639 301.232 L192.639 283.871 Z" fill="#000000" fill-rule="nonzero" fill-opacity="1"></path><path clip-path="url(#clip430)" d="M41.7242 990.943 Q42.4244 988.874 44.7161 986.933 Q47.0077 984.959 51.0181 982.986 L64.0042 976.461 L64.0042 983.368 L51.8138 989.447 Q47.0395 991.802 45.48 994.03 Q43.9204 996.227 43.9204 1000.05 L43.9204 1007.05 L64.0042 1007.05 L64.0042 1013.48 L16.4842 1013.48 L16.4842 998.964 Q16.4842 990.816 19.8898 986.805 Q23.2955 982.795 30.1704 982.795 Q34.6582 982.795 37.6183 984.896 Q40.5784 986.964 41.7242 990.943 M21.7677 1007.05 L38.6368 1007.05 L38.6368 998.964 Q38.6368 994.317 36.5043 991.961 Q34.34 989.574 30.1704 989.574 Q26.0009 989.574 23.9002 991.961 Q21.7677 994.317 21.7677 998.964 L21.7677 1007.05 Z" fill="#000000" fill-rule="nonzero" fill-opacity="1"></path><path clip-path="url(#clip430)" d="M28.3562 968.44 L28.3562 962.584 L64.0042 962.584 L64.0042 968.44 L28.3562 968.44 M14.479 968.44 L14.479 962.584 L21.895 962.584 L21.895 968.44 L14.479 968.44 Z" fill="#000000" fill-rule="nonzero" fill-opacity="1"></path><path clip-path="url(#clip430)" d="M29.4065 927.604 L34.9447 927.604 Q33.6716 930.087 33.035 932.76 Q32.3984 935.434 32.3984 938.299 Q32.3984 942.659 33.7352 944.855 Q35.072 947.02 37.7456 947.02 Q39.7826 947.02 40.9603 945.46 Q42.1061 943.9 43.1565 939.19 L43.6021 937.185 Q44.9389 930.946 47.3897 928.336 Q49.8086 925.694 54.1691 925.694 Q59.1344 925.694 62.0308 929.641 Q64.9272 933.556 64.9272 940.431 Q64.9272 943.296 64.3543 946.415 Q63.8132 949.502 62.6992 952.94 L56.6518 952.94 Q58.3387 949.693 59.198 946.542 Q60.0256 943.391 60.0256 940.304 Q60.0256 936.166 58.6251 933.938 Q57.1929 931.71 54.6147 931.71 Q52.2276 931.71 50.9545 933.333 Q49.6813 934.925 48.5037 940.367 L48.0262 942.404 Q46.8804 947.847 44.5251 950.266 Q42.138 952.685 38.0002 952.685 Q32.9713 952.685 30.2341 949.12 Q27.4968 945.555 27.4968 938.999 Q27.4968 935.752 27.9743 932.888 Q28.4517 930.023 29.4065 927.604 Z" fill="#000000" fill-rule="nonzero" fill-opacity="1"></path><path clip-path="url(#clip430)" d="M14.479 916.592 L14.479 910.703 L43.7294 910.703 L28.3562 893.229 L28.3562 885.75 L45.0344 904.656 L64.0042 884.954 L64.0042 892.593 L46.5939 910.703 L64.0042 910.703 L64.0042 916.592 L14.479 916.592 Z" fill="#000000" fill-rule="nonzero" fill-opacity="1"></path><path clip-path="url(#clip430)" d="M20.1444 822.061 L26.9239 822.061 Q23.9002 825.307 22.4043 828.999 Q20.9083 832.66 20.9083 836.797 Q20.9083 844.945 25.9054 849.274 Q30.8707 853.603 40.2919 853.603 Q49.6813 853.603 54.6784 849.274 Q59.6436 844.945 59.6436 836.797 Q59.6436 832.66 58.1477 828.999 Q56.6518 825.307 53.6281 822.061 L60.3439 822.061 Q62.6355 825.435 63.7814 829.222 Q64.9272 832.978 64.9272 837.179 Q64.9272 847.969 58.3387 854.176 Q51.7183 860.382 40.2919 860.382 Q28.8336 860.382 22.2451 854.176 Q15.6248 847.969 15.6248 837.179 Q15.6248 832.914 16.7706 829.159 Q17.8846 825.371 20.1444 822.061 Z" fill="#000000" fill-rule="nonzero" fill-opacity="1"></path><path clip-path="url(#clip430)" d="M32.4621 798.571 Q32.4621 803.282 36.1542 806.019 Q39.8145 808.756 46.212 808.756 Q52.6095 808.756 56.3017 806.051 Q59.9619 803.314 59.9619 798.571 Q59.9619 793.893 56.2698 791.155 Q52.5777 788.418 46.212 788.418 Q39.8781 788.418 36.186 791.155 Q32.4621 793.893 32.4621 798.571 M27.4968 798.571 Q27.4968 790.932 32.4621 786.572 Q37.4273 782.211 46.212 782.211 Q54.9649 782.211 59.9619 786.572 Q64.9272 790.932 64.9272 798.571 Q64.9272 806.242 59.9619 810.603 Q54.9649 814.931 46.212 814.931 Q37.4273 814.931 32.4621 810.603 Q27.4968 806.242 27.4968 798.571 Z" fill="#000000" fill-rule="nonzero" fill-opacity="1"></path><path clip-path="url(#clip430)" d="M42.4881 742.871 L64.0042 742.871 L64.0042 748.728 L42.679 748.728 Q37.6183 748.728 35.1038 750.701 Q32.5894 752.675 32.5894 756.621 Q32.5894 761.364 35.6131 764.101 Q38.6368 766.838 43.8567 766.838 L64.0042 766.838 L64.0042 772.727 L28.3562 772.727 L28.3562 766.838 L33.8944 766.838 Q30.6797 764.738 29.0883 761.905 Q27.4968 759.04 27.4968 755.316 Q27.4968 749.173 31.3163 746.022 Q35.1038 742.871 42.4881 742.871 Z" fill="#000000" fill-rule="nonzero" fill-opacity="1"></path><path clip-path="url(#clip430)" d="M18.2347 725.398 L28.3562 725.398 L28.3562 713.335 L32.9077 713.335 L32.9077 725.398 L52.2594 725.398 Q56.6199 725.398 57.8613 724.22 Q59.1026 723.01 59.1026 719.35 L59.1026 713.335 L64.0042 713.335 L64.0042 719.35 Q64.0042 726.13 61.4897 728.708 Q58.9434 731.286 52.2594 731.286 L32.9077 731.286 L32.9077 735.583 L28.3562 735.583 L28.3562 731.286 L18.2347 731.286 L18.2347 725.398 Z" fill="#000000" fill-rule="nonzero" fill-opacity="1"></path><path clip-path="url(#clip430)" d="M33.8307 684.975 Q33.2578 685.962 33.0032 687.14 Q32.7167 688.285 32.7167 689.686 Q32.7167 694.651 35.9632 697.325 Q39.1779 699.967 45.2253 699.967 L64.0042 699.967 L64.0042 705.855 L28.3562 705.855 L28.3562 699.967 L33.8944 699.967 Q30.6479 698.12 29.0883 695.16 Q27.4968 692.2 27.4968 687.967 Q27.4968 687.362 27.5923 686.63 Q27.656 685.898 27.8151 685.007 L33.8307 684.975 Z" fill="#000000" fill-rule="nonzero" fill-opacity="1"></path><path clip-path="url(#clip430)" d="M28.3562 678.832 L28.3562 672.976 L64.0042 672.976 L64.0042 678.832 L28.3562 678.832 M14.479 678.832 L14.479 672.976 L21.895 672.976 L21.895 678.832 L14.479 678.832 Z" fill="#000000" fill-rule="nonzero" fill-opacity="1"></path><path clip-path="url(#clip430)" d="M46.212 635.132 Q39.7508 635.132 36.0905 637.805 Q32.3984 640.447 32.3984 645.094 Q32.3984 649.741 36.0905 652.415 Q39.7508 655.056 46.212 655.056 Q52.6732 655.056 56.3653 652.415 Q60.0256 649.741 60.0256 645.094 Q60.0256 640.447 56.3653 637.805 Q52.6732 635.132 46.212 635.132 M33.7671 655.056 Q30.5842 653.21 29.0564 650.409 Q27.4968 647.577 27.4968 643.662 Q27.4968 637.169 32.6531 633.127 Q37.8093 629.053 46.212 629.053 Q54.6147 629.053 59.771 633.127 Q64.9272 637.169 64.9272 643.662 Q64.9272 647.577 63.3994 650.409 Q61.8398 653.21 58.657 655.056 L64.0042 655.056 L64.0042 660.945 L14.479 660.945 L14.479 655.056 L33.7671 655.056 Z" fill="#000000" fill-rule="nonzero" fill-opacity="1"></path><path clip-path="url(#clip430)" d="M49.9359 619.95 L28.3562 619.95 L28.3562 614.093 L49.7131 614.093 Q54.7739 614.093 57.3202 612.12 Q59.8346 610.146 59.8346 606.2 Q59.8346 601.457 56.8109 598.72 Q53.7872 595.951 48.5673 595.951 L28.3562 595.951 L28.3562 590.094 L64.0042 590.094 L64.0042 595.951 L58.5296 595.951 Q61.7762 598.083 63.3676 600.916 Q64.9272 603.717 64.9272 607.441 Q64.9272 613.584 61.1078 616.767 Q57.2883 619.95 49.9359 619.95 M27.4968 605.213 L27.4968 605.213 Z" fill="#000000" fill-rule="nonzero" fill-opacity="1"></path><path clip-path="url(#clip430)" d="M18.2347 572.239 L28.3562 572.239 L28.3562 560.176 L32.9077 560.176 L32.9077 572.239 L52.2594 572.239 Q56.6199 572.239 57.8613 571.061 Q59.1026 569.851 59.1026 566.191 L59.1026 560.176 L64.0042 560.176 L64.0042 566.191 Q64.0042 572.971 61.4897 575.549 Q58.9434 578.127 52.2594 578.127 L32.9077 578.127 L32.9077 582.424 L28.3562 582.424 L28.3562 578.127 L18.2347 578.127 L18.2347 572.239 Z" fill="#000000" fill-rule="nonzero" fill-opacity="1"></path><path clip-path="url(#clip430)" d="M28.3562 552.473 L28.3562 546.617 L64.0042 546.617 L64.0042 552.473 L28.3562 552.473 M14.479 552.473 L14.479 546.617 L21.895 546.617 L21.895 552.473 L14.479 552.473 Z" fill="#000000" fill-rule="nonzero" fill-opacity="1"></path><path clip-path="url(#clip430)" d="M32.4621 520.549 Q32.4621 525.26 36.1542 527.997 Q39.8145 530.734 46.212 530.734 Q52.6095 530.734 56.3017 528.029 Q59.9619 525.292 59.9619 520.549 Q59.9619 515.87 56.2698 513.133 Q52.5777 510.396 46.212 510.396 Q39.8781 510.396 36.186 513.133 Q32.4621 515.87 32.4621 520.549 M27.4968 520.549 Q27.4968 512.91 32.4621 508.55 Q37.4273 504.189 46.212 504.189 Q54.9649 504.189 59.9619 508.55 Q64.9272 512.91 64.9272 520.549 Q64.9272 528.22 59.9619 532.58 Q54.9649 536.909 46.212 536.909 Q37.4273 536.909 32.4621 532.58 Q27.4968 528.22 27.4968 520.549 Z" fill="#000000" fill-rule="nonzero" fill-opacity="1"></path><path clip-path="url(#clip430)" d="M42.4881 464.849 L64.0042 464.849 L64.0042 470.706 L42.679 470.706 Q37.6183 470.706 35.1038 472.679 Q32.5894 474.652 32.5894 478.599 Q32.5894 483.342 35.6131 486.079 Q38.6368 488.816 43.8567 488.816 L64.0042 488.816 L64.0042 494.704 L28.3562 494.704 L28.3562 488.816 L33.8944 488.816 Q30.6797 486.715 29.0883 483.883 Q27.4968 481.018 27.4968 477.294 Q27.4968 471.151 31.3163 468 Q35.1038 464.849 42.4881 464.849 Z" fill="#000000" fill-rule="nonzero" fill-opacity="1"></path><path clip-path="url(#clip430)" d="M980.702 44.2197 Q983.335 45.1109 985.806 48.0275 Q988.318 50.9442 990.829 56.0483 L999.134 72.576 L990.343 72.576 L982.606 57.061 Q979.608 50.9847 976.773 48.9997 Q973.978 47.0148 969.117 47.0148 L960.205 47.0148 L960.205 72.576 L952.022 72.576 L952.022 12.096 L970.494 12.096 Q980.864 12.096 985.968 16.4305 Q991.073 20.7649 991.073 29.5149 Q991.073 35.2267 988.399 38.994 Q985.766 42.7613 980.702 44.2197 M960.205 18.8205 L960.205 40.2903 L970.494 40.2903 Q976.408 40.2903 979.406 37.5762 Q982.444 34.8216 982.444 29.5149 Q982.444 24.2082 979.406 21.5346 Q976.408 18.8205 970.494 18.8205 L960.205 18.8205 Z" fill="#000000" fill-rule="nonzero" fill-opacity="1"></path><path clip-path="url(#clip430)" d="M1009.34 27.2059 L1016.8 27.2059 L1016.8 72.576 L1009.34 72.576 L1009.34 27.2059 M1009.34 9.54393 L1016.8 9.54393 L1016.8 18.9825 L1009.34 18.9825 L1009.34 9.54393 Z" fill="#000000" fill-rule="nonzero" fill-opacity="1"></path><path clip-path="url(#clip430)" d="M1061.32 28.5427 L1061.32 35.5912 Q1058.16 33.9709 1054.75 33.1607 Q1051.35 32.3505 1047.7 32.3505 Q1042.15 32.3505 1039.36 34.0519 Q1036.6 35.7533 1036.6 39.156 Q1036.6 41.7486 1038.59 43.2475 Q1040.57 44.7058 1046.57 46.0426 L1049.12 46.6097 Q1057.06 48.3111 1060.38 51.4303 Q1063.75 54.509 1063.75 60.0587 Q1063.75 66.3781 1058.72 70.0644 Q1053.74 73.7508 1044.99 73.7508 Q1041.34 73.7508 1037.37 73.0216 Q1033.44 72.3329 1029.07 70.9151 L1029.07 63.2184 Q1033.2 65.3654 1037.21 66.4591 Q1041.22 67.5124 1045.15 67.5124 Q1050.42 67.5124 1053.25 65.73 Q1056.09 63.9071 1056.09 60.6258 Q1056.09 57.5877 1054.02 55.9673 Q1052 54.3469 1045.07 52.8481 L1042.48 52.2405 Q1035.55 50.7821 1032.47 47.7845 Q1029.39 44.7463 1029.39 39.4801 Q1029.39 33.0797 1033.93 29.5959 Q1038.47 26.1121 1046.81 26.1121 Q1050.94 26.1121 1054.59 26.7198 Q1058.24 27.3274 1061.32 28.5427 Z" fill="#000000" fill-rule="nonzero" fill-opacity="1"></path><path clip-path="url(#clip430)" d="M1075.33 9.54393 L1082.83 9.54393 L1082.83 46.7717 L1105.06 27.2059 L1114.58 27.2059 L1090.52 48.4326 L1115.6 72.576 L1105.88 72.576 L1082.83 50.4176 L1082.83 72.576 L1075.33 72.576 L1075.33 9.54393 Z" fill="#000000" fill-rule="nonzero" fill-opacity="1"></path><path clip-path="url(#clip430)" d="M1195.64 16.7545 L1195.64 25.383 Q1191.51 21.5346 1186.81 19.6307 Q1182.15 17.7268 1176.89 17.7268 Q1166.52 17.7268 1161.01 24.0867 Q1155.5 30.4061 1155.5 42.3968 Q1155.5 54.3469 1161.01 60.7069 Q1166.52 67.0263 1176.89 67.0263 Q1182.15 67.0263 1186.81 65.1223 Q1191.51 63.2184 1195.64 59.3701 L1195.64 67.9175 Q1191.35 70.8341 1186.53 72.2924 Q1181.75 73.7508 1176.4 73.7508 Q1162.67 73.7508 1154.77 65.3654 Q1146.87 56.9395 1146.87 42.3968 Q1146.87 27.8135 1154.77 19.4281 Q1162.67 11.0023 1176.4 11.0023 Q1181.83 11.0023 1186.61 12.4606 Q1191.43 13.8784 1195.64 16.7545 Z" fill="#000000" fill-rule="nonzero" fill-opacity="1"></path><path clip-path="url(#clip430)" d="M1225.54 32.4315 Q1219.54 32.4315 1216.06 37.1306 Q1212.58 41.7891 1212.58 49.9314 Q1212.58 58.0738 1216.02 62.7728 Q1219.5 67.4314 1225.54 67.4314 Q1231.49 67.4314 1234.98 62.7323 Q1238.46 58.0333 1238.46 49.9314 Q1238.46 41.8701 1234.98 37.1711 Q1231.49 32.4315 1225.54 32.4315 M1225.54 26.1121 Q1235.26 26.1121 1240.81 32.4315 Q1246.36 38.7509 1246.36 49.9314 Q1246.36 61.0714 1240.81 67.4314 Q1235.26 73.7508 1225.54 73.7508 Q1215.78 73.7508 1210.23 67.4314 Q1204.72 61.0714 1204.72 49.9314 Q1204.72 38.7509 1210.23 32.4315 Q1215.78 26.1121 1225.54 26.1121 Z" fill="#000000" fill-rule="nonzero" fill-opacity="1"></path><path clip-path="url(#clip430)" d="M1296.43 45.1919 L1296.43 72.576 L1288.98 72.576 L1288.98 45.4349 Q1288.98 38.994 1286.46 35.7938 Q1283.95 32.5936 1278.93 32.5936 Q1272.89 32.5936 1269.41 36.4419 Q1265.93 40.2903 1265.93 46.9338 L1265.93 72.576 L1258.43 72.576 L1258.43 27.2059 L1265.93 27.2059 L1265.93 34.2544 Q1268.6 30.163 1272.21 28.1376 Q1275.85 26.1121 1280.59 26.1121 Q1288.41 26.1121 1292.42 30.9732 Q1296.43 35.7938 1296.43 45.1919 Z" fill="#000000" fill-rule="nonzero" fill-opacity="1"></path><path clip-path="url(#clip430)" d="M1318.67 14.324 L1318.67 27.2059 L1334.02 27.2059 L1334.02 32.9987 L1318.67 32.9987 L1318.67 57.6282 Q1318.67 63.1779 1320.17 64.7578 Q1321.71 66.3376 1326.37 66.3376 L1334.02 66.3376 L1334.02 72.576 L1326.37 72.576 Q1317.74 72.576 1314.46 69.3758 Q1311.17 66.1351 1311.17 57.6282 L1311.17 32.9987 L1305.71 32.9987 L1305.71 27.2059 L1311.17 27.2059 L1311.17 14.324 L1318.67 14.324 Z" fill="#000000" fill-rule="nonzero" fill-opacity="1"></path><path clip-path="url(#clip430)" d="M1370.12 34.1734 Q1368.86 33.4443 1367.36 33.1202 Q1365.9 32.7556 1364.12 32.7556 Q1357.8 32.7556 1354.4 36.8875 Q1351.04 40.9789 1351.04 48.6757 L1351.04 72.576 L1343.54 72.576 L1343.54 27.2059 L1351.04 27.2059 L1351.04 34.2544 Q1353.39 30.1225 1357.15 28.1376 Q1360.92 26.1121 1366.31 26.1121 Q1367.08 26.1121 1368.01 26.2337 Q1368.94 26.3147 1370.08 26.5172 L1370.12 34.1734 Z" fill="#000000" fill-rule="nonzero" fill-opacity="1"></path><path clip-path="url(#clip430)" d="M1377.93 27.2059 L1385.39 27.2059 L1385.39 72.576 L1377.93 72.576 L1377.93 27.2059 M1377.93 9.54393 L1385.39 9.54393 L1385.39 18.9825 L1377.93 18.9825 L1377.93 9.54393 Z" fill="#000000" fill-rule="nonzero" fill-opacity="1"></path><path clip-path="url(#clip430)" d="M1433.55 49.9314 Q1433.55 41.7081 1430.15 37.0496 Q1426.79 32.3505 1420.87 32.3505 Q1414.96 32.3505 1411.56 37.0496 Q1408.19 41.7081 1408.19 49.9314 Q1408.19 58.1548 1411.56 62.8538 Q1414.96 67.5124 1420.87 67.5124 Q1426.79 67.5124 1430.15 62.8538 Q1433.55 58.1548 1433.55 49.9314 M1408.19 34.0924 Q1410.54 30.0415 1414.11 28.0971 Q1417.71 26.1121 1422.7 26.1121 Q1430.96 26.1121 1436.1 32.6746 Q1441.29 39.2371 1441.29 49.9314 Q1441.29 60.6258 1436.1 67.1883 Q1430.96 73.7508 1422.7 73.7508 Q1417.71 73.7508 1414.11 71.8063 Q1410.54 69.8214 1408.19 65.7705 L1408.19 72.576 L1400.7 72.576 L1400.7 9.54393 L1408.19 9.54393 L1408.19 34.0924 Z" fill="#000000" fill-rule="nonzero" fill-opacity="1"></path><path clip-path="url(#clip430)" d="M1452.88 54.671 L1452.88 27.2059 L1460.33 27.2059 L1460.33 54.3874 Q1460.33 60.8284 1462.84 64.0691 Q1465.35 67.2693 1470.38 67.2693 Q1476.41 67.2693 1479.9 63.421 Q1483.42 59.5726 1483.42 52.9291 L1483.42 27.2059 L1490.87 27.2059 L1490.87 72.576 L1483.42 72.576 L1483.42 65.6084 Q1480.71 69.7404 1477.1 71.7658 Q1473.54 73.7508 1468.8 73.7508 Q1460.98 73.7508 1456.93 68.8897 Q1452.88 64.0286 1452.88 54.671 M1471.63 26.1121 L1471.63 26.1121 Z" fill="#000000" fill-rule="nonzero" fill-opacity="1"></path><path clip-path="url(#clip430)" d="M1513.6 14.324 L1513.6 27.2059 L1528.95 27.2059 L1528.95 32.9987 L1513.6 32.9987 L1513.6 57.6282 Q1513.6 63.1779 1515.1 64.7578 Q1516.64 66.3376 1521.3 66.3376 L1528.95 66.3376 L1528.95 72.576 L1521.3 72.576 Q1512.67 72.576 1509.39 69.3758 Q1506.1 66.1351 1506.1 57.6282 L1506.1 32.9987 L1500.64 32.9987 L1500.64 27.2059 L1506.1 27.2059 L1506.1 14.324 L1513.6 14.324 Z" fill="#000000" fill-rule="nonzero" fill-opacity="1"></path><path clip-path="url(#clip430)" d="M1538.75 27.2059 L1546.21 27.2059 L1546.21 72.576 L1538.75 72.576 L1538.75 27.2059 M1538.75 9.54393 L1546.21 9.54393 L1546.21 18.9825 L1538.75 18.9825 L1538.75 9.54393 Z" fill="#000000" fill-rule="nonzero" fill-opacity="1"></path><path clip-path="url(#clip430)" d="M1579.39 32.4315 Q1573.39 32.4315 1569.91 37.1306 Q1566.42 41.7891 1566.42 49.9314 Q1566.42 58.0738 1569.87 62.7728 Q1573.35 67.4314 1579.39 67.4314 Q1585.34 67.4314 1588.82 62.7323 Q1592.31 58.0333 1592.31 49.9314 Q1592.31 41.8701 1588.82 37.1711 Q1585.34 32.4315 1579.39 32.4315 M1579.39 26.1121 Q1589.11 26.1121 1594.66 32.4315 Q1600.21 38.7509 1600.21 49.9314 Q1600.21 61.0714 1594.66 67.4314 Q1589.11 73.7508 1579.39 73.7508 Q1569.62 73.7508 1564.07 67.4314 Q1558.56 61.0714 1558.56 49.9314 Q1558.56 38.7509 1564.07 32.4315 Q1569.62 26.1121 1579.39 26.1121 Z" fill="#000000" fill-rule="nonzero" fill-opacity="1"></path><path clip-path="url(#clip430)" d="M1650.28 45.1919 L1650.28 72.576 L1642.82 72.576 L1642.82 45.4349 Q1642.82 38.994 1640.31 35.7938 Q1637.8 32.5936 1632.78 32.5936 Q1626.74 32.5936 1623.26 36.4419 Q1619.77 40.2903 1619.77 46.9338 L1619.77 72.576 L1612.28 72.576 L1612.28 27.2059 L1619.77 27.2059 L1619.77 34.2544 Q1622.45 30.163 1626.05 28.1376 Q1629.7 26.1121 1634.44 26.1121 Q1642.26 26.1121 1646.27 30.9732 Q1650.28 35.7938 1650.28 45.1919 Z" fill="#000000" fill-rule="nonzero" fill-opacity="1"></path><path clip-path="url(#clip432)" d="M365.223 123.472 L365.223 1354.85 L585.441 1354.85 L585.441 123.472 L365.223 123.472 L365.223 123.472  Z" fill="#009af9" fill-rule="evenodd" fill-opacity="1"></path>
<polyline clip-path="url(#clip432)" style="stroke:#000000; stroke-linecap:round; stroke-linejoin:round; stroke-width:4; stroke-opacity:1; fill:none" points="365.223,123.472 365.223,1354.85 585.441,1354.85 585.441,123.472 365.223,123.472 "></polyline>
<path clip-path="url(#clip432)" d="M640.495 1098.38 L640.495 1354.85 L860.713 1354.85 L860.713 1098.38 L640.495 1098.38 L640.495 1098.38  Z" fill="#009af9" fill-rule="evenodd" fill-opacity="1"></path>
<polyline clip-path="url(#clip432)" style="stroke:#000000; stroke-linecap:round; stroke-linejoin:round; stroke-width:4; stroke-opacity:1; fill:none" points="640.495,1098.38 640.495,1354.85 860.713,1354.85 860.713,1098.38 640.495,1098.38 "></polyline>
<path clip-path="url(#clip432)" d="M915.767 1088.05 L915.767 1354.85 L1135.99 1354.85 L1135.99 1088.05 L915.767 1088.05 L915.767 1088.05  Z" fill="#009af9" fill-rule="evenodd" fill-opacity="1"></path>
<polyline clip-path="url(#clip432)" style="stroke:#000000; stroke-linecap:round; stroke-linejoin:round; stroke-width:4; stroke-opacity:1; fill:none" points="915.767,1088.05 915.767,1354.85 1135.99,1354.85 1135.99,1088.05 915.767,1088.05 "></polyline>
<path clip-path="url(#clip432)" d="M1191.04 603.637 L1191.04 1354.85 L1411.26 1354.85 L1411.26 603.637 L1191.04 603.637 L1191.04 603.637  Z" fill="#009af9" fill-rule="evenodd" fill-opacity="1"></path>
<polyline clip-path="url(#clip432)" style="stroke:#000000; stroke-linecap:round; stroke-linejoin:round; stroke-width:4; stroke-opacity:1; fill:none" points="1191.04,603.637 1191.04,1354.85 1411.26,1354.85 1411.26,603.637 1191.04,603.637 "></polyline>
<path clip-path="url(#clip432)" d="M1466.31 1127.66 L1466.31 1354.85 L1686.53 1354.85 L1686.53 1127.66 L1466.31 1127.66 L1466.31 1127.66  Z" fill="#009af9" fill-rule="evenodd" fill-opacity="1"></path>
<polyline clip-path="url(#clip432)" style="stroke:#000000; stroke-linecap:round; stroke-linejoin:round; stroke-width:4; stroke-opacity:1; fill:none" points="1466.31,1127.66 1466.31,1354.85 1686.53,1354.85 1686.53,1127.66 1466.31,1127.66 "></polyline>
<path clip-path="url(#clip432)" d="M1741.58 421.369 L1741.58 1354.85 L1961.8 1354.85 L1961.8 421.369 L1741.58 421.369 L1741.58 421.369  Z" fill="#009af9" fill-rule="evenodd" fill-opacity="1"></path>
<polyline clip-path="url(#clip432)" style="stroke:#000000; stroke-linecap:round; stroke-linejoin:round; stroke-width:4; stroke-opacity:1; fill:none" points="1741.58,421.369 1741.58,1354.85 1961.8,1354.85 1961.8,421.369 1741.58,421.369 "></polyline>
<path clip-path="url(#clip432)" d="M2016.86 806.594 L2016.86 1354.85 L2237.08 1354.85 L2237.08 806.594 L2016.86 806.594 L2016.86 806.594  Z" fill="#009af9" fill-rule="evenodd" fill-opacity="1"></path>
<polyline clip-path="url(#clip432)" style="stroke:#000000; stroke-linecap:round; stroke-linejoin:round; stroke-width:4; stroke-opacity:1; fill:none" points="2016.86,806.594 2016.86,1354.85 2237.08,1354.85 2237.08,806.594 2016.86,806.594 "></polyline>
<circle clip-path="url(#clip432)" style="fill:#009af9; stroke:none; fill-opacity:0" cx="475.332" cy="123.472" r="2"></circle>
<circle clip-path="url(#clip432)" style="fill:#009af9; stroke:none; fill-opacity:0" cx="750.604" cy="1098.38" r="2"></circle>
<circle clip-path="url(#clip432)" style="fill:#009af9; stroke:none; fill-opacity:0" cx="1025.88" cy="1088.05" r="2"></circle>
<circle clip-path="url(#clip432)" style="fill:#009af9; stroke:none; fill-opacity:0" cx="1301.15" cy="603.637" r="2"></circle>
<circle clip-path="url(#clip432)" style="fill:#009af9; stroke:none; fill-opacity:0" cx="1576.42" cy="1127.66" r="2"></circle>
<circle clip-path="url(#clip432)" style="fill:#009af9; stroke:none; fill-opacity:0" cx="1851.69" cy="421.369" r="2"></circle>
<circle clip-path="url(#clip432)" style="fill:#009af9; stroke:none; fill-opacity:0" cx="2126.97" cy="806.594" r="2"></circle>
</svg>