<?xml version="1.0" encoding="utf-8"?>
<svg xmlns="http://www.w3.org/2000/svg" xmlns:xlink="http://www.w3.org/1999/xlink" width="600" height="400" viewBox="0 0 2400 1600">
<defs>
  <clipPath id="clip760">
    <rect x="0" y="0" width="2400" height="1600"/>
  </clipPath>
</defs>
<path clip-path="url(#clip760)" d="M0 1600 L2400 1600 L2400 0 L0 0  Z" fill="#ffffff" fill-rule="evenodd" fill-opacity="1"/>
<defs>
  <clipPath id="clip761">
    <rect x="480" y="0" width="1681" height="1600"/>
  </clipPath>
</defs>
<path clip-path="url(#clip760)" d="M247.459 1423.18 L2352.76 1423.18 L2352.76 123.472 L247.459 123.472  Z" fill="#ffffff" fill-rule="evenodd" fill-opacity="1"/>
<defs>
  <clipPath id="clip762">
    <rect x="247" y="123" width="2106" height="1301"/>
  </clipPath>
</defs>
<polyline clip-path="url(#clip762)" style="stroke:#000000; stroke-linecap:round; stroke-linejoin:round; stroke-width:2; stroke-opacity:0.1; fill:none" points="323.412,1423.18 323.412,123.472 "/>
<polyline clip-path="url(#clip762)" style="stroke:#000000; stroke-linecap:round; stroke-linejoin:round; stroke-width:2; stroke-opacity:0.1; fill:none" points="814.488,1423.18 814.488,123.472 "/>
<polyline clip-path="url(#clip762)" style="stroke:#000000; stroke-linecap:round; stroke-linejoin:round; stroke-width:2; stroke-opacity:0.1; fill:none" points="1311.02,1423.18 1311.02,123.472 "/>
<polyline clip-path="url(#clip762)" style="stroke:#000000; stroke-linecap:round; stroke-linejoin:round; stroke-width:2; stroke-opacity:0.1; fill:none" points="1813.01,1423.18 1813.01,123.472 "/>
<polyline clip-path="url(#clip762)" style="stroke:#000000; stroke-linecap:round; stroke-linejoin:round; stroke-width:2; stroke-opacity:0.1; fill:none" points="2315,1423.18 2315,123.472 "/>
<polyline clip-path="url(#clip762)" style="stroke:#000000; stroke-linecap:round; stroke-linejoin:round; stroke-width:2; stroke-opacity:0.1; fill:none" points="247.459,1291.79 2352.76,1291.79 "/>
<polyline clip-path="url(#clip762)" style="stroke:#000000; stroke-linecap:round; stroke-linejoin:round; stroke-width:2; stroke-opacity:0.1; fill:none" points="247.459,1044.87 2352.76,1044.87 "/>
<polyline clip-path="url(#clip762)" style="stroke:#000000; stroke-linecap:round; stroke-linejoin:round; stroke-width:2; stroke-opacity:0.1; fill:none" points="247.459,797.961 2352.76,797.961 "/>
<polyline clip-path="url(#clip762)" style="stroke:#000000; stroke-linecap:round; stroke-linejoin:round; stroke-width:2; stroke-opacity:0.1; fill:none" points="247.459,551.047 2352.76,551.047 "/>
<polyline clip-path="url(#clip762)" style="stroke:#000000; stroke-linecap:round; stroke-linejoin:round; stroke-width:2; stroke-opacity:0.1; fill:none" points="247.459,304.132 2352.76,304.132 "/>
<polyline clip-path="url(#clip760)" style="stroke:#000000; stroke-linecap:round; stroke-linejoin:round; stroke-width:4; stroke-opacity:1; fill:none" points="247.459,1423.18 2352.76,1423.18 "/>
<polyline clip-path="url(#clip760)" style="stroke:#000000; stroke-linecap:round; stroke-linejoin:round; stroke-width:4; stroke-opacity:1; fill:none" points="323.412,1423.18 323.412,1404.28 "/>
<polyline clip-path="url(#clip760)" style="stroke:#000000; stroke-linecap:round; stroke-linejoin:round; stroke-width:4; stroke-opacity:1; fill:none" points="814.488,1423.18 814.488,1404.28 "/>
<polyline clip-path="url(#clip760)" style="stroke:#000000; stroke-linecap:round; stroke-linejoin:round; stroke-width:4; stroke-opacity:1; fill:none" points="1311.02,1423.18 1311.02,1404.28 "/>
<polyline clip-path="url(#clip760)" style="stroke:#000000; stroke-linecap:round; stroke-linejoin:round; stroke-width:4; stroke-opacity:1; fill:none" points="1813.01,1423.18 1813.01,1404.28 "/>
<polyline clip-path="url(#clip760)" style="stroke:#000000; stroke-linecap:round; stroke-linejoin:round; stroke-width:4; stroke-opacity:1; fill:none" points="2315,1423.18 2315,1404.28 "/>
<path clip-path="url(#clip760)" d="M195.206 1481.64 L211.526 1481.64 L211.526 1485.58 L189.581 1485.58 L189.581 1481.64 Q192.244 1478.89 196.827 1474.26 Q201.433 1469.61 202.614 1468.27 Q204.859 1465.74 205.739 1464.01 Q206.642 1462.25 206.642 1460.56 Q206.642 1457.8 204.697 1456.07 Q202.776 1454.33 199.674 1454.33 Q197.475 1454.33 195.021 1455.09 Q192.591 1455.86 189.813 1457.41 L189.813 1452.69 Q192.637 1451.55 195.091 1450.97 Q197.544 1450.39 199.581 1450.39 Q204.952 1450.39 208.146 1453.08 Q211.341 1455.77 211.341 1460.26 Q211.341 1462.39 210.53 1464.31 Q209.743 1466.2 207.637 1468.8 Q207.058 1469.47 203.956 1472.69 Q200.855 1475.88 195.206 1481.64 Z" fill="#000000" fill-rule="nonzero" fill-opacity="1" /><path clip-path="url(#clip760)" d="M231.341 1454.1 Q227.729 1454.1 225.901 1457.66 Q224.095 1461.2 224.095 1468.33 Q224.095 1475.44 225.901 1479.01 Q227.729 1482.55 231.341 1482.55 Q234.975 1482.55 236.78 1479.01 Q238.609 1475.44 238.609 1468.33 Q238.609 1461.2 236.78 1457.66 Q234.975 1454.1 231.341 1454.1 M231.341 1450.39 Q237.151 1450.39 240.206 1455 Q243.285 1459.58 243.285 1468.33 Q243.285 1477.06 240.206 1481.67 Q237.151 1486.25 231.341 1486.25 Q225.53 1486.25 222.452 1481.67 Q219.396 1477.06 219.396 1468.33 Q219.396 1459.58 222.452 1455 Q225.53 1450.39 231.341 1450.39 Z" fill="#000000" fill-rule="nonzero" fill-opacity="1" /><path clip-path="url(#clip760)" d="M255.53 1481.64 L271.85 1481.64 L271.85 1485.58 L249.905 1485.58 L249.905 1481.64 Q252.567 1478.89 257.151 1474.26 Q261.757 1469.61 262.938 1468.27 Q265.183 1465.74 266.063 1464.01 Q266.965 1462.25 266.965 1460.56 Q266.965 1457.8 265.021 1456.07 Q263.1 1454.33 259.998 1454.33 Q257.799 1454.33 255.345 1455.09 Q252.914 1455.86 250.137 1457.41 L250.137 1452.69 Q252.961 1451.55 255.414 1450.97 Q257.868 1450.39 259.905 1450.39 Q265.276 1450.39 268.47 1453.08 Q271.664 1455.77 271.664 1460.26 Q271.664 1462.39 270.854 1464.31 Q270.067 1466.2 267.961 1468.8 Q267.382 1469.47 264.28 1472.69 Q261.178 1475.88 255.53 1481.64 Z" fill="#000000" fill-rule="nonzero" fill-opacity="1" /><path clip-path="url(#clip760)" d="M285.692 1481.64 L302.011 1481.64 L302.011 1485.58 L280.067 1485.58 L280.067 1481.64 Q282.729 1478.89 287.312 1474.26 Q291.919 1469.61 293.099 1468.27 Q295.345 1465.74 296.224 1464.01 Q297.127 1462.25 297.127 1460.56 Q297.127 1457.8 295.183 1456.07 Q293.261 1454.33 290.16 1454.33 Q287.961 1454.33 285.507 1455.09 Q283.076 1455.86 280.299 1457.41 L280.299 1452.69 Q283.123 1451.55 285.576 1450.97 Q288.03 1450.39 290.067 1450.39 Q295.437 1450.39 298.632 1453.08 Q301.826 1455.77 301.826 1460.26 Q301.826 1462.39 301.016 1464.31 Q300.229 1466.2 298.123 1468.8 Q297.544 1469.47 294.442 1472.69 Q291.34 1475.88 285.692 1481.64 Z" fill="#000000" fill-rule="nonzero" fill-opacity="1" /><path clip-path="url(#clip760)" d="M309.072 1470.7 L321.548 1470.7 L321.548 1474.49 L309.072 1474.49 L309.072 1470.7 Z" fill="#000000" fill-rule="nonzero" fill-opacity="1" /><path clip-path="url(#clip760)" d="M338.933 1454.1 Q335.321 1454.1 333.493 1457.66 Q331.687 1461.2 331.687 1468.33 Q331.687 1475.44 333.493 1479.01 Q335.321 1482.55 338.933 1482.55 Q342.567 1482.55 344.372 1479.01 Q346.201 1475.44 346.201 1468.33 Q346.201 1461.2 344.372 1457.66 Q342.567 1454.1 338.933 1454.1 M338.933 1450.39 Q344.743 1450.39 347.798 1455 Q350.877 1459.58 350.877 1468.33 Q350.877 1477.06 347.798 1481.67 Q344.743 1486.25 338.933 1486.25 Q333.122 1486.25 330.044 1481.67 Q326.988 1477.06 326.988 1468.33 Q326.988 1459.58 330.044 1455 Q333.122 1450.39 338.933 1450.39 Z" fill="#000000" fill-rule="nonzero" fill-opacity="1" /><path clip-path="url(#clip760)" d="M359.905 1481.64 L367.544 1481.64 L367.544 1455.28 L359.233 1456.95 L359.233 1452.69 L367.497 1451.02 L372.173 1451.02 L372.173 1481.64 L379.812 1481.64 L379.812 1485.58 L359.905 1485.58 L359.905 1481.64 Z" fill="#000000" fill-rule="nonzero" fill-opacity="1" /><path clip-path="url(#clip760)" d="M386.502 1470.7 L398.979 1470.7 L398.979 1474.49 L386.502 1474.49 L386.502 1470.7 Z" fill="#000000" fill-rule="nonzero" fill-opacity="1" /><path clip-path="url(#clip760)" d="M416.363 1454.1 Q412.752 1454.1 410.923 1457.66 Q409.117 1461.2 409.117 1468.33 Q409.117 1475.44 410.923 1479.01 Q412.752 1482.55 416.363 1482.55 Q419.997 1482.55 421.802 1479.01 Q423.631 1475.44 423.631 1468.33 Q423.631 1461.2 421.802 1457.66 Q419.997 1454.1 416.363 1454.1 M416.363 1450.39 Q422.173 1450.39 425.228 1455 Q428.307 1459.58 428.307 1468.33 Q428.307 1477.06 425.228 1481.67 Q422.173 1486.25 416.363 1486.25 Q410.553 1486.25 407.474 1481.67 Q404.418 1477.06 404.418 1468.33 Q404.418 1459.58 407.474 1455 Q410.553 1450.39 416.363 1450.39 Z" fill="#000000" fill-rule="nonzero" fill-opacity="1" /><path clip-path="url(#clip760)" d="M437.335 1481.64 L444.974 1481.64 L444.974 1455.28 L436.664 1456.95 L436.664 1452.69 L444.927 1451.02 L449.603 1451.02 L449.603 1481.64 L457.242 1481.64 L457.242 1485.58 L437.335 1485.58 L437.335 1481.64 Z" fill="#000000" fill-rule="nonzero" fill-opacity="1" /><path clip-path="url(#clip760)" d="M686.282 1481.64 L702.602 1481.64 L702.602 1485.58 L680.657 1485.58 L680.657 1481.64 Q683.319 1478.89 687.903 1474.26 Q692.509 1469.61 693.69 1468.27 Q695.935 1465.74 696.815 1464.01 Q697.718 1462.25 697.718 1460.56 Q697.718 1457.8 695.773 1456.07 Q693.852 1454.33 690.75 1454.33 Q688.551 1454.33 686.097 1455.09 Q683.667 1455.86 680.889 1457.41 L680.889 1452.69 Q683.713 1451.55 686.167 1450.97 Q688.62 1450.39 690.657 1450.39 Q696.028 1450.39 699.222 1453.08 Q702.417 1455.77 702.417 1460.26 Q702.417 1462.39 701.606 1464.31 Q700.819 1466.2 698.713 1468.8 Q698.134 1469.47 695.032 1472.69 Q691.931 1475.88 686.282 1481.64 Z" fill="#000000" fill-rule="nonzero" fill-opacity="1" /><path clip-path="url(#clip760)" d="M722.416 1454.1 Q718.805 1454.1 716.977 1457.66 Q715.171 1461.2 715.171 1468.33 Q715.171 1475.44 716.977 1479.01 Q718.805 1482.55 722.416 1482.55 Q726.051 1482.55 727.856 1479.01 Q729.685 1475.44 729.685 1468.33 Q729.685 1461.2 727.856 1457.66 Q726.051 1454.1 722.416 1454.1 M722.416 1450.39 Q728.227 1450.39 731.282 1455 Q734.361 1459.58 734.361 1468.33 Q734.361 1477.06 731.282 1481.67 Q728.227 1486.25 722.416 1486.25 Q716.606 1486.25 713.528 1481.67 Q710.472 1477.06 710.472 1468.33 Q710.472 1459.58 713.528 1455 Q716.606 1450.39 722.416 1450.39 Z" fill="#000000" fill-rule="nonzero" fill-opacity="1" /><path clip-path="url(#clip760)" d="M746.606 1481.64 L762.926 1481.64 L762.926 1485.58 L740.981 1485.58 L740.981 1481.64 Q743.643 1478.89 748.227 1474.26 Q752.833 1469.61 754.014 1468.27 Q756.259 1465.74 757.139 1464.01 Q758.041 1462.25 758.041 1460.56 Q758.041 1457.8 756.097 1456.07 Q754.176 1454.33 751.074 1454.33 Q748.875 1454.33 746.421 1455.09 Q743.99 1455.86 741.213 1457.41 L741.213 1452.69 Q744.037 1451.55 746.49 1450.97 Q748.944 1450.39 750.981 1450.39 Q756.351 1450.39 759.546 1453.08 Q762.74 1455.77 762.74 1460.26 Q762.74 1462.39 761.93 1464.31 Q761.143 1466.2 759.037 1468.8 Q758.458 1469.47 755.356 1472.69 Q752.254 1475.88 746.606 1481.64 Z" fill="#000000" fill-rule="nonzero" fill-opacity="1" /><path clip-path="url(#clip760)" d="M776.768 1481.64 L793.087 1481.64 L793.087 1485.58 L771.143 1485.58 L771.143 1481.64 Q773.805 1478.89 778.388 1474.26 Q782.995 1469.61 784.175 1468.27 Q786.421 1465.74 787.3 1464.01 Q788.203 1462.25 788.203 1460.56 Q788.203 1457.8 786.259 1456.07 Q784.337 1454.33 781.236 1454.33 Q779.037 1454.33 776.583 1455.09 Q774.152 1455.86 771.375 1457.41 L771.375 1452.69 Q774.199 1451.55 776.652 1450.97 Q779.106 1450.39 781.143 1450.39 Q786.513 1450.39 789.708 1453.08 Q792.902 1455.77 792.902 1460.26 Q792.902 1462.39 792.092 1464.31 Q791.305 1466.2 789.199 1468.8 Q788.62 1469.47 785.518 1472.69 Q782.416 1475.88 776.768 1481.64 Z" fill="#000000" fill-rule="nonzero" fill-opacity="1" /><path clip-path="url(#clip760)" d="M800.148 1470.7 L812.624 1470.7 L812.624 1474.49 L800.148 1474.49 L800.148 1470.7 Z" fill="#000000" fill-rule="nonzero" fill-opacity="1" /><path clip-path="url(#clip760)" d="M830.009 1454.1 Q826.397 1454.1 824.569 1457.66 Q822.763 1461.2 822.763 1468.33 Q822.763 1475.44 824.569 1479.01 Q826.397 1482.55 830.009 1482.55 Q833.643 1482.55 835.448 1479.01 Q837.277 1475.44 837.277 1468.33 Q837.277 1461.2 835.448 1457.66 Q833.643 1454.1 830.009 1454.1 M830.009 1450.39 Q835.819 1450.39 838.874 1455 Q841.953 1459.58 841.953 1468.33 Q841.953 1477.06 838.874 1481.67 Q835.819 1486.25 830.009 1486.25 Q824.198 1486.25 821.12 1481.67 Q818.064 1477.06 818.064 1468.33 Q818.064 1459.58 821.12 1455 Q824.198 1450.39 830.009 1450.39 Z" fill="#000000" fill-rule="nonzero" fill-opacity="1" /><path clip-path="url(#clip760)" d="M863.018 1455.09 L851.212 1473.54 L863.018 1473.54 L863.018 1455.09 M861.791 1451.02 L867.67 1451.02 L867.67 1473.54 L872.601 1473.54 L872.601 1477.43 L867.67 1477.43 L867.67 1485.58 L863.018 1485.58 L863.018 1477.43 L847.416 1477.43 L847.416 1472.92 L861.791 1451.02 Z" fill="#000000" fill-rule="nonzero" fill-opacity="1" /><path clip-path="url(#clip760)" d="M877.578 1470.7 L890.054 1470.7 L890.054 1474.49 L877.578 1474.49 L877.578 1470.7 Z" fill="#000000" fill-rule="nonzero" fill-opacity="1" /><path clip-path="url(#clip760)" d="M907.439 1454.1 Q903.828 1454.1 901.999 1457.66 Q900.193 1461.2 900.193 1468.33 Q900.193 1475.44 901.999 1479.01 Q903.828 1482.55 907.439 1482.55 Q911.073 1482.55 912.878 1479.01 Q914.707 1475.44 914.707 1468.33 Q914.707 1461.2 912.878 1457.66 Q911.073 1454.1 907.439 1454.1 M907.439 1450.39 Q913.249 1450.39 916.304 1455 Q919.383 1459.58 919.383 1468.33 Q919.383 1477.06 916.304 1481.67 Q913.249 1486.25 907.439 1486.25 Q901.628 1486.25 898.55 1481.67 Q895.494 1477.06 895.494 1468.33 Q895.494 1459.58 898.55 1455 Q901.628 1450.39 907.439 1450.39 Z" fill="#000000" fill-rule="nonzero" fill-opacity="1" /><path clip-path="url(#clip760)" d="M928.411 1481.64 L936.05 1481.64 L936.05 1455.28 L927.739 1456.95 L927.739 1452.69 L936.003 1451.02 L940.679 1451.02 L940.679 1481.64 L948.318 1481.64 L948.318 1485.58 L928.411 1485.58 L928.411 1481.64 Z" fill="#000000" fill-rule="nonzero" fill-opacity="1" /><path clip-path="url(#clip760)" d="M1182.81 1481.64 L1199.13 1481.64 L1199.13 1485.58 L1177.19 1485.58 L1177.19 1481.64 Q1179.85 1478.89 1184.44 1474.26 Q1189.04 1469.61 1190.22 1468.27 Q1192.47 1465.74 1193.35 1464.01 Q1194.25 1462.25 1194.25 1460.56 Q1194.25 1457.8 1192.31 1456.07 Q1190.38 1454.33 1187.28 1454.33 Q1185.08 1454.33 1182.63 1455.09 Q1180.2 1455.86 1177.42 1457.41 L1177.42 1452.69 Q1180.25 1451.55 1182.7 1450.97 Q1185.15 1450.39 1187.19 1450.39 Q1192.56 1450.39 1195.75 1453.08 Q1198.95 1455.77 1198.95 1460.26 Q1198.95 1462.39 1198.14 1464.31 Q1197.35 1466.2 1195.25 1468.8 Q1194.67 1469.47 1191.56 1472.69 Q1188.46 1475.88 1182.81 1481.64 Z" fill="#000000" fill-rule="nonzero" fill-opacity="1" /><path clip-path="url(#clip760)" d="M1218.95 1454.1 Q1215.34 1454.1 1213.51 1457.66 Q1211.7 1461.2 1211.7 1468.33 Q1211.7 1475.44 1213.51 1479.01 Q1215.34 1482.55 1218.95 1482.55 Q1222.58 1482.55 1224.39 1479.01 Q1226.22 1475.44 1226.22 1468.33 Q1226.22 1461.2 1224.39 1457.66 Q1222.58 1454.1 1218.95 1454.1 M1218.95 1450.39 Q1224.76 1450.39 1227.81 1455 Q1230.89 1459.58 1230.89 1468.33 Q1230.89 1477.06 1227.81 1481.67 Q1224.76 1486.25 1218.95 1486.25 Q1213.14 1486.25 1210.06 1481.67 Q1207 1477.06 1207 1468.33 Q1207 1459.58 1210.06 1455 Q1213.14 1450.39 1218.95 1450.39 Z" fill="#000000" fill-rule="nonzero" fill-opacity="1" /><path clip-path="url(#clip760)" d="M1243.14 1481.64 L1259.46 1481.64 L1259.46 1485.58 L1237.51 1485.58 L1237.51 1481.64 Q1240.18 1478.89 1244.76 1474.26 Q1249.37 1469.61 1250.55 1468.27 Q1252.79 1465.74 1253.67 1464.01 Q1254.57 1462.25 1254.57 1460.56 Q1254.57 1457.8 1252.63 1456.07 Q1250.71 1454.33 1247.61 1454.33 Q1245.41 1454.33 1242.95 1455.09 Q1240.52 1455.86 1237.75 1457.41 L1237.75 1452.69 Q1240.57 1451.55 1243.02 1450.97 Q1245.48 1450.39 1247.51 1450.39 Q1252.88 1450.39 1256.08 1453.08 Q1259.27 1455.77 1259.27 1460.26 Q1259.27 1462.39 1258.46 1464.31 Q1257.68 1466.2 1255.57 1468.8 Q1254.99 1469.47 1251.89 1472.69 Q1248.79 1475.88 1243.14 1481.64 Z" fill="#000000" fill-rule="nonzero" fill-opacity="1" /><path clip-path="url(#clip760)" d="M1273.3 1481.64 L1289.62 1481.64 L1289.62 1485.58 L1267.68 1485.58 L1267.68 1481.64 Q1270.34 1478.89 1274.92 1474.26 Q1279.53 1469.61 1280.71 1468.27 Q1282.95 1465.74 1283.83 1464.01 Q1284.74 1462.25 1284.74 1460.56 Q1284.74 1457.8 1282.79 1456.07 Q1280.87 1454.33 1277.77 1454.33 Q1275.57 1454.33 1273.12 1455.09 Q1270.68 1455.86 1267.91 1457.41 L1267.91 1452.69 Q1270.73 1451.55 1273.18 1450.97 Q1275.64 1450.39 1277.68 1450.39 Q1283.05 1450.39 1286.24 1453.08 Q1289.43 1455.77 1289.43 1460.26 Q1289.43 1462.39 1288.62 1464.31 Q1287.84 1466.2 1285.73 1468.8 Q1285.15 1469.47 1282.05 1472.69 Q1278.95 1475.88 1273.3 1481.64 Z" fill="#000000" fill-rule="nonzero" fill-opacity="1" /><path clip-path="url(#clip760)" d="M1296.68 1470.7 L1309.16 1470.7 L1309.16 1474.49 L1296.68 1474.49 L1296.68 1470.7 Z" fill="#000000" fill-rule="nonzero" fill-opacity="1" /><path clip-path="url(#clip760)" d="M1326.54 1454.1 Q1322.93 1454.1 1321.1 1457.66 Q1319.3 1461.2 1319.3 1468.33 Q1319.3 1475.44 1321.1 1479.01 Q1322.93 1482.55 1326.54 1482.55 Q1330.18 1482.55 1331.98 1479.01 Q1333.81 1475.44 1333.81 1468.33 Q1333.81 1461.2 1331.98 1457.66 Q1330.18 1454.1 1326.54 1454.1 M1326.54 1450.39 Q1332.35 1450.39 1335.41 1455 Q1338.49 1459.58 1338.49 1468.33 Q1338.49 1477.06 1335.41 1481.67 Q1332.35 1486.25 1326.54 1486.25 Q1320.73 1486.25 1317.65 1481.67 Q1314.6 1477.06 1314.6 1468.33 Q1314.6 1459.58 1317.65 1455 Q1320.73 1450.39 1326.54 1450.39 Z" fill="#000000" fill-rule="nonzero" fill-opacity="1" /><path clip-path="url(#clip760)" d="M1345.52 1451.02 L1367.74 1451.02 L1367.74 1453.01 L1355.2 1485.58 L1350.31 1485.58 L1362.12 1454.96 L1345.52 1454.96 L1345.52 1451.02 Z" fill="#000000" fill-rule="nonzero" fill-opacity="1" /><path clip-path="url(#clip760)" d="M1374.11 1470.7 L1386.59 1470.7 L1386.59 1474.49 L1374.11 1474.49 L1374.11 1470.7 Z" fill="#000000" fill-rule="nonzero" fill-opacity="1" /><path clip-path="url(#clip760)" d="M1403.97 1454.1 Q1400.36 1454.1 1398.53 1457.66 Q1396.73 1461.2 1396.73 1468.33 Q1396.73 1475.44 1398.53 1479.01 Q1400.36 1482.55 1403.97 1482.55 Q1407.61 1482.55 1409.41 1479.01 Q1411.24 1475.44 1411.24 1468.33 Q1411.24 1461.2 1409.41 1457.66 Q1407.61 1454.1 1403.97 1454.1 M1403.97 1450.39 Q1409.78 1450.39 1412.84 1455 Q1415.92 1459.58 1415.92 1468.33 Q1415.92 1477.06 1412.84 1481.67 Q1409.78 1486.25 1403.97 1486.25 Q1398.16 1486.25 1395.08 1481.67 Q1392.03 1477.06 1392.03 1468.33 Q1392.03 1459.58 1395.08 1455 Q1398.16 1450.39 1403.97 1450.39 Z" fill="#000000" fill-rule="nonzero" fill-opacity="1" /><path clip-path="url(#clip760)" d="M1424.94 1481.64 L1432.58 1481.64 L1432.58 1455.28 L1424.27 1456.95 L1424.27 1452.69 L1432.54 1451.02 L1437.21 1451.02 L1437.21 1481.64 L1444.85 1481.64 L1444.85 1485.58 L1424.94 1485.58 L1424.94 1481.64 Z" fill="#000000" fill-rule="nonzero" fill-opacity="1" /><path clip-path="url(#clip760)" d="M1684.8 1481.64 L1701.12 1481.64 L1701.12 1485.58 L1679.18 1485.58 L1679.18 1481.64 Q1681.84 1478.89 1686.42 1474.26 Q1691.03 1469.61 1692.21 1468.27 Q1694.46 1465.74 1695.34 1464.01 Q1696.24 1462.25 1696.24 1460.56 Q1696.24 1457.8 1694.29 1456.07 Q1692.37 1454.33 1689.27 1454.33 Q1687.07 1454.33 1684.62 1455.09 Q1682.19 1455.86 1679.41 1457.41 L1679.41 1452.69 Q1682.23 1451.55 1684.69 1450.97 Q1687.14 1450.39 1689.18 1450.39 Q1694.55 1450.39 1697.74 1453.08 Q1700.94 1455.77 1700.94 1460.26 Q1700.94 1462.39 1700.13 1464.31 Q1699.34 1466.2 1697.23 1468.8 Q1696.66 1469.47 1693.55 1472.69 Q1690.45 1475.88 1684.8 1481.64 Z" fill="#000000" fill-rule="nonzero" fill-opacity="1" /><path clip-path="url(#clip760)" d="M1720.94 1454.1 Q1717.33 1454.1 1715.5 1457.66 Q1713.69 1461.2 1713.69 1468.33 Q1713.69 1475.44 1715.5 1479.01 Q1717.33 1482.55 1720.94 1482.55 Q1724.57 1482.55 1726.38 1479.01 Q1728.21 1475.44 1728.21 1468.33 Q1728.21 1461.2 1726.38 1457.66 Q1724.57 1454.1 1720.94 1454.1 M1720.94 1450.39 Q1726.75 1450.39 1729.8 1455 Q1732.88 1459.58 1732.88 1468.33 Q1732.88 1477.06 1729.8 1481.67 Q1726.75 1486.25 1720.94 1486.25 Q1715.13 1486.25 1712.05 1481.67 Q1708.99 1477.06 1708.99 1468.33 Q1708.99 1459.58 1712.05 1455 Q1715.13 1450.39 1720.94 1450.39 Z" fill="#000000" fill-rule="nonzero" fill-opacity="1" /><path clip-path="url(#clip760)" d="M1745.13 1481.64 L1761.45 1481.64 L1761.45 1485.58 L1739.5 1485.58 L1739.5 1481.64 Q1742.16 1478.89 1746.75 1474.26 Q1751.35 1469.61 1752.53 1468.27 Q1754.78 1465.74 1755.66 1464.01 Q1756.56 1462.25 1756.56 1460.56 Q1756.56 1457.8 1754.62 1456.07 Q1752.7 1454.33 1749.59 1454.33 Q1747.4 1454.33 1744.94 1455.09 Q1742.51 1455.86 1739.73 1457.41 L1739.73 1452.69 Q1742.56 1451.55 1745.01 1450.97 Q1747.47 1450.39 1749.5 1450.39 Q1754.87 1450.39 1758.07 1453.08 Q1761.26 1455.77 1761.26 1460.26 Q1761.26 1462.39 1760.45 1464.31 Q1759.66 1466.2 1757.56 1468.8 Q1756.98 1469.47 1753.88 1472.69 Q1750.78 1475.88 1745.13 1481.64 Z" fill="#000000" fill-rule="nonzero" fill-opacity="1" /><path clip-path="url(#clip760)" d="M1775.29 1481.64 L1791.61 1481.64 L1791.61 1485.58 L1769.66 1485.58 L1769.66 1481.64 Q1772.33 1478.89 1776.91 1474.26 Q1781.52 1469.61 1782.7 1468.27 Q1784.94 1465.74 1785.82 1464.01 Q1786.72 1462.25 1786.72 1460.56 Q1786.72 1457.8 1784.78 1456.07 Q1782.86 1454.33 1779.76 1454.33 Q1777.56 1454.33 1775.1 1455.09 Q1772.67 1455.86 1769.9 1457.41 L1769.9 1452.69 Q1772.72 1451.55 1775.17 1450.97 Q1777.63 1450.39 1779.66 1450.39 Q1785.03 1450.39 1788.23 1453.08 Q1791.42 1455.77 1791.42 1460.26 Q1791.42 1462.39 1790.61 1464.31 Q1789.83 1466.2 1787.72 1468.8 Q1787.14 1469.47 1784.04 1472.69 Q1780.94 1475.88 1775.29 1481.64 Z" fill="#000000" fill-rule="nonzero" fill-opacity="1" /><path clip-path="url(#clip760)" d="M1798.67 1470.7 L1811.15 1470.7 L1811.15 1474.49 L1798.67 1474.49 L1798.67 1470.7 Z" fill="#000000" fill-rule="nonzero" fill-opacity="1" /><path clip-path="url(#clip760)" d="M1819.34 1481.64 L1826.98 1481.64 L1826.98 1455.28 L1818.67 1456.95 L1818.67 1452.69 L1826.93 1451.02 L1831.61 1451.02 L1831.61 1481.64 L1839.25 1481.64 L1839.25 1485.58 L1819.34 1485.58 L1819.34 1481.64 Z" fill="#000000" fill-rule="nonzero" fill-opacity="1" /><path clip-path="url(#clip760)" d="M1858.69 1454.1 Q1855.08 1454.1 1853.25 1457.66 Q1851.45 1461.2 1851.45 1468.33 Q1851.45 1475.44 1853.25 1479.01 Q1855.08 1482.55 1858.69 1482.55 Q1862.33 1482.55 1864.13 1479.01 Q1865.96 1475.44 1865.96 1468.33 Q1865.96 1461.2 1864.13 1457.66 Q1862.33 1454.1 1858.69 1454.1 M1858.69 1450.39 Q1864.5 1450.39 1867.56 1455 Q1870.64 1459.58 1870.64 1468.33 Q1870.64 1477.06 1867.56 1481.67 Q1864.5 1486.25 1858.69 1486.25 Q1852.88 1486.25 1849.8 1481.67 Q1846.75 1477.06 1846.75 1468.33 Q1846.75 1459.58 1849.8 1455 Q1852.88 1450.39 1858.69 1450.39 Z" fill="#000000" fill-rule="nonzero" fill-opacity="1" /><path clip-path="url(#clip760)" d="M1876.1 1470.7 L1888.58 1470.7 L1888.58 1474.49 L1876.1 1474.49 L1876.1 1470.7 Z" fill="#000000" fill-rule="nonzero" fill-opacity="1" /><path clip-path="url(#clip760)" d="M1905.96 1454.1 Q1902.35 1454.1 1900.52 1457.66 Q1898.71 1461.2 1898.71 1468.33 Q1898.71 1475.44 1900.52 1479.01 Q1902.35 1482.55 1905.96 1482.55 Q1909.59 1482.55 1911.4 1479.01 Q1913.23 1475.44 1913.23 1468.33 Q1913.23 1461.2 1911.4 1457.66 Q1909.59 1454.1 1905.96 1454.1 M1905.96 1450.39 Q1911.77 1450.39 1914.83 1455 Q1917.9 1459.58 1917.9 1468.33 Q1917.9 1477.06 1914.83 1481.67 Q1911.77 1486.25 1905.96 1486.25 Q1900.15 1486.25 1897.07 1481.67 Q1894.02 1477.06 1894.02 1468.33 Q1894.02 1459.58 1897.07 1455 Q1900.15 1450.39 1905.96 1450.39 Z" fill="#000000" fill-rule="nonzero" fill-opacity="1" /><path clip-path="url(#clip760)" d="M1926.93 1481.64 L1934.57 1481.64 L1934.57 1455.28 L1926.26 1456.95 L1926.26 1452.69 L1934.52 1451.02 L1939.2 1451.02 L1939.2 1481.64 L1946.84 1481.64 L1946.84 1485.58 L1926.93 1485.58 L1926.93 1481.64 Z" fill="#000000" fill-rule="nonzero" fill-opacity="1" /><path clip-path="url(#clip760)" d="M2186.79 1481.64 L2203.11 1481.64 L2203.11 1485.58 L2181.17 1485.58 L2181.17 1481.64 Q2183.83 1478.89 2188.41 1474.26 Q2193.02 1469.61 2194.2 1468.27 Q2196.45 1465.74 2197.32 1464.01 Q2198.23 1462.25 2198.23 1460.56 Q2198.23 1457.8 2196.28 1456.07 Q2194.36 1454.33 2191.26 1454.33 Q2189.06 1454.33 2186.61 1455.09 Q2184.18 1455.86 2181.4 1457.41 L2181.4 1452.69 Q2184.22 1451.55 2186.68 1450.97 Q2189.13 1450.39 2191.17 1450.39 Q2196.54 1450.39 2199.73 1453.08 Q2202.93 1455.77 2202.93 1460.26 Q2202.93 1462.39 2202.12 1464.31 Q2201.33 1466.2 2199.22 1468.8 Q2198.64 1469.47 2195.54 1472.69 Q2192.44 1475.88 2186.79 1481.64 Z" fill="#000000" fill-rule="nonzero" fill-opacity="1" /><path clip-path="url(#clip760)" d="M2222.93 1454.1 Q2219.32 1454.1 2217.49 1457.66 Q2215.68 1461.2 2215.68 1468.33 Q2215.68 1475.44 2217.49 1479.01 Q2219.32 1482.55 2222.93 1482.55 Q2226.56 1482.55 2228.37 1479.01 Q2230.19 1475.44 2230.19 1468.33 Q2230.19 1461.2 2228.37 1457.66 Q2226.56 1454.1 2222.93 1454.1 M2222.93 1450.39 Q2228.74 1450.39 2231.79 1455 Q2234.87 1459.58 2234.87 1468.33 Q2234.87 1477.06 2231.79 1481.67 Q2228.74 1486.25 2222.93 1486.25 Q2217.12 1486.25 2214.04 1481.67 Q2210.98 1477.06 2210.98 1468.33 Q2210.98 1459.58 2214.04 1455 Q2217.12 1450.39 2222.93 1450.39 Z" fill="#000000" fill-rule="nonzero" fill-opacity="1" /><path clip-path="url(#clip760)" d="M2247.12 1481.64 L2263.44 1481.64 L2263.44 1485.58 L2241.49 1485.58 L2241.49 1481.64 Q2244.15 1478.89 2248.74 1474.26 Q2253.34 1469.61 2254.52 1468.27 Q2256.77 1465.74 2257.65 1464.01 Q2258.55 1462.25 2258.55 1460.56 Q2258.55 1457.8 2256.61 1456.07 Q2254.69 1454.33 2251.58 1454.33 Q2249.38 1454.33 2246.93 1455.09 Q2244.5 1455.86 2241.72 1457.41 L2241.72 1452.69 Q2244.55 1451.55 2247 1450.97 Q2249.45 1450.39 2251.49 1450.39 Q2256.86 1450.39 2260.06 1453.08 Q2263.25 1455.77 2263.25 1460.26 Q2263.25 1462.39 2262.44 1464.31 Q2261.65 1466.2 2259.55 1468.8 Q2258.97 1469.47 2255.87 1472.69 Q2252.76 1475.88 2247.12 1481.64 Z" fill="#000000" fill-rule="nonzero" fill-opacity="1" /><path clip-path="url(#clip760)" d="M2287.42 1466.95 Q2290.77 1467.66 2292.65 1469.93 Q2294.55 1472.2 2294.55 1475.53 Q2294.55 1480.65 2291.03 1483.45 Q2287.51 1486.25 2281.03 1486.25 Q2278.85 1486.25 2276.54 1485.81 Q2274.25 1485.39 2271.79 1484.54 L2271.79 1480.02 Q2273.74 1481.16 2276.05 1481.74 Q2278.37 1482.32 2280.89 1482.32 Q2285.29 1482.32 2287.58 1480.58 Q2289.89 1478.84 2289.89 1475.53 Q2289.89 1472.48 2287.74 1470.77 Q2285.61 1469.03 2281.79 1469.03 L2277.76 1469.03 L2277.76 1465.19 L2281.98 1465.19 Q2285.43 1465.19 2287.25 1463.82 Q2289.08 1462.43 2289.08 1459.84 Q2289.08 1457.18 2287.19 1455.77 Q2285.31 1454.33 2281.79 1454.33 Q2279.87 1454.33 2277.67 1454.75 Q2275.47 1455.16 2272.83 1456.04 L2272.83 1451.88 Q2275.5 1451.14 2277.81 1450.77 Q2280.15 1450.39 2282.21 1450.39 Q2287.53 1450.39 2290.63 1452.83 Q2293.74 1455.23 2293.74 1459.35 Q2293.74 1462.22 2292.09 1464.21 Q2290.45 1466.18 2287.42 1466.95 Z" fill="#000000" fill-rule="nonzero" fill-opacity="1" /><path clip-path="url(#clip760)" d="M2300.66 1470.7 L2313.13 1470.7 L2313.13 1474.49 L2300.66 1474.49 L2300.66 1470.7 Z" fill="#000000" fill-rule="nonzero" fill-opacity="1" /><path clip-path="url(#clip760)" d="M2330.52 1454.1 Q2326.91 1454.1 2325.08 1457.66 Q2323.27 1461.2 2323.27 1468.33 Q2323.27 1475.44 2325.08 1479.01 Q2326.91 1482.55 2330.52 1482.55 Q2334.15 1482.55 2335.96 1479.01 Q2337.79 1475.44 2337.79 1468.33 Q2337.79 1461.2 2335.96 1457.66 Q2334.15 1454.1 2330.52 1454.1 M2330.52 1450.39 Q2336.33 1450.39 2339.38 1455 Q2342.46 1459.58 2342.46 1468.33 Q2342.46 1477.06 2339.38 1481.67 Q2336.33 1486.25 2330.52 1486.25 Q2324.71 1486.25 2321.63 1481.67 Q2318.57 1477.06 2318.57 1468.33 Q2318.57 1459.58 2321.63 1455 Q2324.71 1450.39 2330.52 1450.39 Z" fill="#000000" fill-rule="nonzero" fill-opacity="1" /><path clip-path="url(#clip760)" d="M2351.49 1481.64 L2359.13 1481.64 L2359.13 1455.28 L2350.82 1456.95 L2350.82 1452.69 L2359.08 1451.02 L2363.76 1451.02 L2363.76 1481.64 L2371.4 1481.64 L2371.4 1485.58 L2351.49 1485.58 L2351.49 1481.64 Z" fill="#000000" fill-rule="nonzero" fill-opacity="1" /><path clip-path="url(#clip760)" d="M2378.09 1470.7 L2390.56 1470.7 L2390.56 1474.49 L2378.09 1474.49 L2378.09 1470.7 Z" fill="#000000" fill-rule="nonzero" fill-opacity="1" /><path clip-path="url(#clip760)" d="M2407.95 1454.1 Q2404.34 1454.1 2402.51 1457.66 Q2400.7 1461.2 2400.7 1468.33 Q2400.7 1475.44 2402.51 1479.01 Q2404.34 1482.55 2407.95 1482.55 Q2411.58 1482.55 2413.39 1479.01 Q2415.22 1475.44 2415.22 1468.33 Q2415.22 1461.2 2413.39 1457.66 Q2411.58 1454.1 2407.95 1454.1 M2407.95 1450.39 Q2413.76 1450.39 2416.81 1455 Q2419.89 1459.58 2419.89 1468.33 Q2419.89 1477.06 2416.81 1481.67 Q2413.76 1486.25 2407.95 1486.25 Q2402.14 1486.25 2399.06 1481.67 Q2396 1477.06 2396 1468.33 Q2396 1459.58 2399.06 1455 Q2402.14 1450.39 2407.95 1450.39 Z" fill="#000000" fill-rule="nonzero" fill-opacity="1" /><path clip-path="url(#clip760)" d="M2428.92 1481.64 L2436.56 1481.64 L2436.56 1455.28 L2428.25 1456.95 L2428.25 1452.69 L2436.51 1451.02 L2441.19 1451.02 L2441.19 1481.64 L2448.83 1481.64 L2448.83 1485.58 L2428.92 1485.58 L2428.92 1481.64 Z" fill="#000000" fill-rule="nonzero" fill-opacity="1" /><path clip-path="url(#clip760)" d="M1233.57 1525.81 L1233.57 1562.76 L1241.34 1562.76 Q1251.17 1562.76 1255.72 1558.3 Q1260.31 1553.85 1260.31 1544.24 Q1260.31 1534.69 1255.72 1530.26 Q1251.17 1525.81 1241.34 1525.81 L1233.57 1525.81 M1227.14 1520.52 L1240.35 1520.52 Q1254.16 1520.52 1260.62 1526.28 Q1267.09 1532.01 1267.09 1544.24 Q1267.09 1556.52 1260.59 1562.28 Q1254.1 1568.04 1240.35 1568.04 L1227.14 1568.04 L1227.14 1520.52 Z" fill="#000000" fill-rule="nonzero" fill-opacity="1" /><path clip-path="url(#clip760)" d="M1293.28 1550.12 Q1286.18 1550.12 1283.45 1551.75 Q1280.71 1553.37 1280.71 1557.29 Q1280.71 1560.4 1282.74 1562.25 Q1284.81 1564.07 1288.35 1564.07 Q1293.22 1564.07 1296.14 1560.63 Q1299.1 1557.16 1299.1 1551.43 L1299.1 1550.12 L1293.28 1550.12 M1304.96 1547.71 L1304.96 1568.04 L1299.1 1568.04 L1299.1 1562.63 Q1297.1 1565.88 1294.11 1567.44 Q1291.12 1568.97 1286.79 1568.97 Q1281.31 1568.97 1278.07 1565.91 Q1274.85 1562.82 1274.85 1557.67 Q1274.85 1551.65 1278.86 1548.6 Q1282.9 1545.54 1290.89 1545.54 L1299.1 1545.54 L1299.1 1544.97 Q1299.1 1540.93 1296.43 1538.73 Q1293.79 1536.5 1288.98 1536.5 Q1285.93 1536.5 1283.03 1537.23 Q1280.13 1537.97 1277.46 1539.43 L1277.46 1534.02 Q1280.68 1532.78 1283.7 1532.17 Q1286.72 1531.54 1289.59 1531.54 Q1297.32 1531.54 1301.14 1535.55 Q1304.96 1539.56 1304.96 1547.71 Z" fill="#000000" fill-rule="nonzero" fill-opacity="1" /><path clip-path="url(#clip760)" d="M1322.82 1522.27 L1322.82 1532.4 L1334.88 1532.4 L1334.88 1536.95 L1322.82 1536.95 L1322.82 1556.3 Q1322.82 1560.66 1323.99 1561.9 Q1325.2 1563.14 1328.86 1563.14 L1334.88 1563.14 L1334.88 1568.04 L1328.86 1568.04 Q1322.08 1568.04 1319.51 1565.53 Q1316.93 1562.98 1316.93 1556.3 L1316.93 1536.95 L1312.63 1536.95 L1312.63 1532.4 L1316.93 1532.4 L1316.93 1522.27 L1322.82 1522.27 Z" fill="#000000" fill-rule="nonzero" fill-opacity="1" /><path clip-path="url(#clip760)" d="M1373.07 1548.76 L1373.07 1551.62 L1346.15 1551.62 Q1346.53 1557.67 1349.78 1560.85 Q1353.05 1564 1358.88 1564 Q1362.25 1564 1365.4 1563.17 Q1368.59 1562.35 1371.71 1560.69 L1371.71 1566.23 Q1368.55 1567.57 1365.24 1568.27 Q1361.93 1568.97 1358.53 1568.97 Q1350 1568.97 1345 1564 Q1340.04 1559.04 1340.04 1550.57 Q1340.04 1541.82 1344.75 1536.69 Q1349.49 1531.54 1357.51 1531.54 Q1364.7 1531.54 1368.87 1536.18 Q1373.07 1540.8 1373.07 1548.76 M1367.22 1547.04 Q1367.15 1542.23 1364.51 1539.37 Q1361.9 1536.5 1357.57 1536.5 Q1352.67 1536.5 1349.71 1539.27 Q1346.78 1542.04 1346.34 1547.07 L1367.22 1547.04 Z" fill="#000000" fill-rule="nonzero" fill-opacity="1" /><polyline clip-path="url(#clip760)" style="stroke:#000000; stroke-linecap:round; stroke-linejoin:round; stroke-width:4; stroke-opacity:1; fill:none" points="247.459,1423.18 247.459,123.472 "/>
<polyline clip-path="url(#clip760)" style="stroke:#000000; stroke-linecap:round; stroke-linejoin:round; stroke-width:4; stroke-opacity:1; fill:none" points="247.459,1291.79 266.356,1291.79 "/>
<polyline clip-path="url(#clip760)" style="stroke:#000000; stroke-linecap:round; stroke-linejoin:round; stroke-width:4; stroke-opacity:1; fill:none" points="247.459,1044.87 266.356,1044.87 "/>
<polyline clip-path="url(#clip760)" style="stroke:#000000; stroke-linecap:round; stroke-linejoin:round; stroke-width:4; stroke-opacity:1; fill:none" points="247.459,797.961 266.356,797.961 "/>
<polyline clip-path="url(#clip760)" style="stroke:#000000; stroke-linecap:round; stroke-linejoin:round; stroke-width:4; stroke-opacity:1; fill:none" points="247.459,551.047 266.356,551.047 "/>
<polyline clip-path="url(#clip760)" style="stroke:#000000; stroke-linecap:round; stroke-linejoin:round; stroke-width:4; stroke-opacity:1; fill:none" points="247.459,304.132 266.356,304.132 "/>
<path clip-path="url(#clip760)" d="M114.931 1305.13 L122.57 1305.13 L122.57 1278.77 L114.26 1280.43 L114.26 1276.18 L122.524 1274.51 L127.2 1274.51 L127.2 1305.13 L134.839 1305.13 L134.839 1309.07 L114.931 1309.07 L114.931 1305.13 Z" fill="#000000" fill-rule="nonzero" fill-opacity="1" /><path clip-path="url(#clip760)" d="M144.283 1303.19 L149.167 1303.19 L149.167 1309.07 L144.283 1309.07 L144.283 1303.19 Z" fill="#000000" fill-rule="nonzero" fill-opacity="1" /><path clip-path="url(#clip760)" d="M169.352 1277.59 Q165.741 1277.59 163.913 1281.15 Q162.107 1284.69 162.107 1291.82 Q162.107 1298.93 163.913 1302.49 Q165.741 1306.04 169.352 1306.04 Q172.987 1306.04 174.792 1302.49 Q176.621 1298.93 176.621 1291.82 Q176.621 1284.69 174.792 1281.15 Q172.987 1277.59 169.352 1277.59 M169.352 1273.88 Q175.163 1273.88 178.218 1278.49 Q181.297 1283.07 181.297 1291.82 Q181.297 1300.55 178.218 1305.16 Q175.163 1309.74 169.352 1309.74 Q163.542 1309.74 160.464 1305.16 Q157.408 1300.55 157.408 1291.82 Q157.408 1283.07 160.464 1278.49 Q163.542 1273.88 169.352 1273.88 Z" fill="#000000" fill-rule="nonzero" fill-opacity="1" /><path clip-path="url(#clip760)" d="M199.514 1277.59 Q195.903 1277.59 194.075 1281.15 Q192.269 1284.69 192.269 1291.82 Q192.269 1298.93 194.075 1302.49 Q195.903 1306.04 199.514 1306.04 Q203.149 1306.04 204.954 1302.49 Q206.783 1298.93 206.783 1291.82 Q206.783 1284.69 204.954 1281.15 Q203.149 1277.59 199.514 1277.59 M199.514 1273.88 Q205.324 1273.88 208.38 1278.49 Q211.459 1283.07 211.459 1291.82 Q211.459 1300.55 208.38 1305.16 Q205.324 1309.74 199.514 1309.74 Q193.704 1309.74 190.625 1305.16 Q187.57 1300.55 187.57 1291.82 Q187.57 1283.07 190.625 1278.49 Q193.704 1273.88 199.514 1273.88 Z" fill="#000000" fill-rule="nonzero" fill-opacity="1" /><path clip-path="url(#clip760)" d="M115.927 1058.22 L123.566 1058.22 L123.566 1031.85 L115.256 1033.52 L115.256 1029.26 L123.519 1027.59 L128.195 1027.59 L128.195 1058.22 L135.834 1058.22 L135.834 1062.15 L115.927 1062.15 L115.927 1058.22 Z" fill="#000000" fill-rule="nonzero" fill-opacity="1" /><path clip-path="url(#clip760)" d="M145.279 1056.28 L150.163 1056.28 L150.163 1062.15 L145.279 1062.15 L145.279 1056.28 Z" fill="#000000" fill-rule="nonzero" fill-opacity="1" /><path clip-path="url(#clip760)" d="M170.348 1030.67 Q166.737 1030.67 164.908 1034.24 Q163.102 1037.78 163.102 1044.91 Q163.102 1052.02 164.908 1055.58 Q166.737 1059.12 170.348 1059.12 Q173.982 1059.12 175.788 1055.58 Q177.616 1052.02 177.616 1044.91 Q177.616 1037.78 175.788 1034.24 Q173.982 1030.67 170.348 1030.67 M170.348 1026.97 Q176.158 1026.97 179.214 1031.58 Q182.292 1036.16 182.292 1044.91 Q182.292 1053.64 179.214 1058.24 Q176.158 1062.83 170.348 1062.83 Q164.538 1062.83 161.459 1058.24 Q158.403 1053.64 158.403 1044.91 Q158.403 1036.16 161.459 1031.58 Q164.538 1026.97 170.348 1026.97 Z" fill="#000000" fill-rule="nonzero" fill-opacity="1" /><path clip-path="url(#clip760)" d="M190.556 1027.59 L208.912 1027.59 L208.912 1031.53 L194.838 1031.53 L194.838 1040 Q195.857 1039.66 196.875 1039.49 Q197.894 1039.31 198.912 1039.31 Q204.699 1039.31 208.079 1042.48 Q211.459 1045.65 211.459 1051.07 Q211.459 1056.65 207.987 1059.75 Q204.514 1062.83 198.195 1062.83 Q196.019 1062.83 193.75 1062.46 Q191.505 1062.09 189.098 1061.34 L189.098 1056.65 Q191.181 1057.78 193.403 1058.34 Q195.625 1058.89 198.102 1058.89 Q202.107 1058.89 204.445 1056.78 Q206.783 1054.68 206.783 1051.07 Q206.783 1047.46 204.445 1045.35 Q202.107 1043.24 198.102 1043.24 Q196.227 1043.24 194.352 1043.66 Q192.5 1044.08 190.556 1044.96 L190.556 1027.59 Z" fill="#000000" fill-rule="nonzero" fill-opacity="1" /><path clip-path="url(#clip760)" d="M114.931 811.306 L122.57 811.306 L122.57 784.94 L114.26 786.607 L114.26 782.347 L122.524 780.681 L127.2 780.681 L127.2 811.306 L134.839 811.306 L134.839 815.241 L114.931 815.241 L114.931 811.306 Z" fill="#000000" fill-rule="nonzero" fill-opacity="1" /><path clip-path="url(#clip760)" d="M144.283 809.361 L149.167 809.361 L149.167 815.241 L144.283 815.241 L144.283 809.361 Z" fill="#000000" fill-rule="nonzero" fill-opacity="1" /><path clip-path="url(#clip760)" d="M160.163 811.306 L167.802 811.306 L167.802 784.94 L159.491 786.607 L159.491 782.347 L167.755 780.681 L172.431 780.681 L172.431 811.306 L180.07 811.306 L180.07 815.241 L160.163 815.241 L160.163 811.306 Z" fill="#000000" fill-rule="nonzero" fill-opacity="1" /><path clip-path="url(#clip760)" d="M199.514 783.759 Q195.903 783.759 194.075 787.324 Q192.269 790.866 192.269 797.995 Q192.269 805.102 194.075 808.667 Q195.903 812.208 199.514 812.208 Q203.149 812.208 204.954 808.667 Q206.783 805.102 206.783 797.995 Q206.783 790.866 204.954 787.324 Q203.149 783.759 199.514 783.759 M199.514 780.056 Q205.324 780.056 208.38 784.662 Q211.459 789.245 211.459 797.995 Q211.459 806.722 208.38 811.329 Q205.324 815.912 199.514 815.912 Q193.704 815.912 190.625 811.329 Q187.57 806.722 187.57 797.995 Q187.57 789.245 190.625 784.662 Q193.704 780.056 199.514 780.056 Z" fill="#000000" fill-rule="nonzero" fill-opacity="1" /><path clip-path="url(#clip760)" d="M115.927 564.391 L123.566 564.391 L123.566 538.026 L115.256 539.692 L115.256 535.433 L123.519 533.767 L128.195 533.767 L128.195 564.391 L135.834 564.391 L135.834 568.327 L115.927 568.327 L115.927 564.391 Z" fill="#000000" fill-rule="nonzero" fill-opacity="1" /><path clip-path="url(#clip760)" d="M145.279 562.447 L150.163 562.447 L150.163 568.327 L145.279 568.327 L145.279 562.447 Z" fill="#000000" fill-rule="nonzero" fill-opacity="1" /><path clip-path="url(#clip760)" d="M161.158 564.391 L168.797 564.391 L168.797 538.026 L160.487 539.692 L160.487 535.433 L168.751 533.767 L173.427 533.767 L173.427 564.391 L181.065 564.391 L181.065 568.327 L161.158 568.327 L161.158 564.391 Z" fill="#000000" fill-rule="nonzero" fill-opacity="1" /><path clip-path="url(#clip760)" d="M190.556 533.767 L208.912 533.767 L208.912 537.702 L194.838 537.702 L194.838 546.174 Q195.857 545.827 196.875 545.665 Q197.894 545.479 198.912 545.479 Q204.699 545.479 208.079 548.651 Q211.459 551.822 211.459 557.239 Q211.459 562.817 207.987 565.919 Q204.514 568.998 198.195 568.998 Q196.019 568.998 193.75 568.627 Q191.505 568.257 189.098 567.516 L189.098 562.817 Q191.181 563.952 193.403 564.507 Q195.625 565.063 198.102 565.063 Q202.107 565.063 204.445 562.956 Q206.783 560.85 206.783 557.239 Q206.783 553.628 204.445 551.521 Q202.107 549.415 198.102 549.415 Q196.227 549.415 194.352 549.831 Q192.5 550.248 190.556 551.128 L190.556 533.767 Z" fill="#000000" fill-rule="nonzero" fill-opacity="1" /><path clip-path="url(#clip760)" d="M114.931 317.477 L122.57 317.477 L122.57 291.112 L114.26 292.778 L114.26 288.519 L122.524 286.852 L127.2 286.852 L127.2 317.477 L134.839 317.477 L134.839 321.412 L114.931 321.412 L114.931 317.477 Z" fill="#000000" fill-rule="nonzero" fill-opacity="1" /><path clip-path="url(#clip760)" d="M144.283 315.533 L149.167 315.533 L149.167 321.412 L144.283 321.412 L144.283 315.533 Z" fill="#000000" fill-rule="nonzero" fill-opacity="1" /><path clip-path="url(#clip760)" d="M163.38 317.477 L179.7 317.477 L179.7 321.412 L157.755 321.412 L157.755 317.477 Q160.417 314.723 165.001 310.093 Q169.607 305.44 170.788 304.098 Q173.033 301.575 173.913 299.838 Q174.815 298.079 174.815 296.389 Q174.815 293.635 172.871 291.899 Q170.95 290.163 167.848 290.163 Q165.649 290.163 163.195 290.926 Q160.765 291.69 157.987 293.241 L157.987 288.519 Q160.811 287.385 163.265 286.806 Q165.718 286.227 167.755 286.227 Q173.126 286.227 176.32 288.913 Q179.514 291.598 179.514 296.088 Q179.514 298.218 178.704 300.139 Q177.917 302.038 175.811 304.63 Q175.232 305.301 172.13 308.519 Q169.028 311.713 163.38 317.477 Z" fill="#000000" fill-rule="nonzero" fill-opacity="1" /><path clip-path="url(#clip760)" d="M199.514 289.931 Q195.903 289.931 194.075 293.496 Q192.269 297.038 192.269 304.167 Q192.269 311.274 194.075 314.838 Q195.903 318.38 199.514 318.38 Q203.149 318.38 204.954 314.838 Q206.783 311.274 206.783 304.167 Q206.783 297.038 204.954 293.496 Q203.149 289.931 199.514 289.931 M199.514 286.227 Q205.324 286.227 208.38 290.834 Q211.459 295.417 211.459 304.167 Q211.459 312.894 208.38 317.5 Q205.324 322.084 199.514 322.084 Q193.704 322.084 190.625 317.5 Q187.57 312.894 187.57 304.167 Q187.57 295.417 190.625 290.834 Q193.704 286.227 199.514 286.227 Z" fill="#000000" fill-rule="nonzero" fill-opacity="1" /><path clip-path="url(#clip760)" d="M20.1444 1240.54 L26.9239 1240.54 Q23.9002 1243.78 22.4043 1247.48 Q20.9083 1251.14 20.9083 1255.27 Q20.9083 1263.42 25.9054 1267.75 Q30.8707 1272.08 40.2919 1272.08 Q49.6813 1272.08 54.6784 1267.75 Q59.6436 1263.42 59.6436 1255.27 Q59.6436 1251.14 58.1477 1247.48 Q56.6518 1243.78 53.6281 1240.54 L60.3439 1240.54 Q62.6355 1243.91 63.7814 1247.7 Q64.9272 1251.45 64.9272 1255.66 Q64.9272 1266.45 58.3387 1272.65 Q51.7183 1278.86 40.2919 1278.86 Q28.8336 1278.86 22.2451 1272.65 Q15.6248 1266.45 15.6248 1255.66 Q15.6248 1251.39 16.7706 1247.63 Q17.8846 1243.85 20.1444 1240.54 Z" fill="#000000" fill-rule="nonzero" fill-opacity="1" /><path clip-path="url(#clip760)" d="M32.4621 1217.05 Q32.4621 1221.76 36.1542 1224.5 Q39.8145 1227.23 46.212 1227.23 Q52.6095 1227.23 56.3017 1224.53 Q59.9619 1221.79 59.9619 1217.05 Q59.9619 1212.37 56.2698 1209.63 Q52.5777 1206.89 46.212 1206.89 Q39.8781 1206.89 36.186 1209.63 Q32.4621 1212.37 32.4621 1217.05 M27.4968 1217.05 Q27.4968 1209.41 32.4621 1205.05 Q37.4273 1200.69 46.212 1200.69 Q54.9649 1200.69 59.9619 1205.05 Q64.9272 1209.41 64.9272 1217.05 Q64.9272 1224.72 59.9619 1229.08 Q54.9649 1233.41 46.212 1233.41 Q37.4273 1233.41 32.4621 1229.08 Q27.4968 1224.72 27.4968 1217.05 Z" fill="#000000" fill-rule="nonzero" fill-opacity="1" /><path clip-path="url(#clip760)" d="M35.1993 1163.23 Q31.2526 1161.03 29.3747 1157.97 Q27.4968 1154.92 27.4968 1150.78 Q27.4968 1145.21 31.4117 1142.19 Q35.2948 1139.16 42.4881 1139.16 L64.0042 1139.16 L64.0042 1145.05 L42.679 1145.05 Q37.5546 1145.05 35.072 1146.87 Q32.5894 1148.68 32.5894 1152.4 Q32.5894 1156.96 35.6131 1159.6 Q38.6368 1162.24 43.8567 1162.24 L64.0042 1162.24 L64.0042 1168.13 L42.679 1168.13 Q37.5228 1168.13 35.072 1169.94 Q32.5894 1171.76 32.5894 1175.54 Q32.5894 1180.03 35.6449 1182.67 Q38.6686 1185.31 43.8567 1185.31 L64.0042 1185.31 L64.0042 1191.2 L28.3562 1191.2 L28.3562 1185.31 L33.8944 1185.31 Q30.616 1183.31 29.0564 1180.51 Q27.4968 1177.71 27.4968 1173.86 Q27.4968 1169.97 29.4702 1167.27 Q31.4436 1164.53 35.1993 1163.23 Z" fill="#000000" fill-rule="nonzero" fill-opacity="1" /><path clip-path="url(#clip760)" d="M58.657 1121.82 L77.5631 1121.82 L77.5631 1127.7 L28.3562 1127.7 L28.3562 1121.82 L33.7671 1121.82 Q30.5842 1119.97 29.0564 1117.17 Q27.4968 1114.34 27.4968 1110.42 Q27.4968 1103.93 32.6531 1099.89 Q37.8093 1095.81 46.212 1095.81 Q54.6147 1095.81 59.771 1099.89 Q64.9272 1103.93 64.9272 1110.42 Q64.9272 1114.34 63.3994 1117.17 Q61.8398 1119.97 58.657 1121.82 M46.212 1101.89 Q39.7508 1101.89 36.0905 1104.57 Q32.3984 1107.21 32.3984 1111.85 Q32.3984 1116.5 36.0905 1119.17 Q39.7508 1121.82 46.212 1121.82 Q52.6732 1121.82 56.3653 1119.17 Q60.0256 1116.5 60.0256 1111.85 Q60.0256 1107.21 56.3653 1104.57 Q52.6732 1101.89 46.212 1101.89 Z" fill="#000000" fill-rule="nonzero" fill-opacity="1" /><path clip-path="url(#clip760)" d="M32.4621 1072.29 Q32.4621 1077 36.1542 1079.74 Q39.8145 1082.48 46.212 1082.48 Q52.6095 1082.48 56.3017 1079.77 Q59.9619 1077.03 59.9619 1072.29 Q59.9619 1067.61 56.2698 1064.88 Q52.5777 1062.14 46.212 1062.14 Q39.8781 1062.14 36.186 1064.88 Q32.4621 1067.61 32.4621 1072.29 M27.4968 1072.29 Q27.4968 1064.65 32.4621 1060.29 Q37.4273 1055.93 46.212 1055.93 Q54.9649 1055.93 59.9619 1060.29 Q64.9272 1064.65 64.9272 1072.29 Q64.9272 1079.96 59.9619 1084.32 Q54.9649 1088.65 46.212 1088.65 Q37.4273 1088.65 32.4621 1084.32 Q27.4968 1079.96 27.4968 1072.29 Z" fill="#000000" fill-rule="nonzero" fill-opacity="1" /><path clip-path="url(#clip760)" d="M49.9359 1046.83 L28.3562 1046.83 L28.3562 1040.97 L49.7131 1040.97 Q54.7739 1040.97 57.3202 1039 Q59.8346 1037.03 59.8346 1033.08 Q59.8346 1028.34 56.8109 1025.6 Q53.7872 1022.83 48.5673 1022.83 L28.3562 1022.83 L28.3562 1016.97 L64.0042 1016.97 L64.0042 1022.83 L58.5296 1022.83 Q61.7762 1024.96 63.3676 1027.8 Q64.9272 1030.6 64.9272 1034.32 Q64.9272 1040.46 61.1078 1043.65 Q57.2883 1046.83 49.9359 1046.83 M27.4968 1032.09 L27.4968 1032.09 Z" fill="#000000" fill-rule="nonzero" fill-opacity="1" /><path clip-path="url(#clip760)" d="M42.4881 975.278 L64.0042 975.278 L64.0042 981.134 L42.679 981.134 Q37.6183 981.134 35.1038 983.108 Q32.5894 985.081 32.5894 989.028 Q32.5894 993.77 35.6131 996.508 Q38.6368 999.245 43.8567 999.245 L64.0042 999.245 L64.0042 1005.13 L28.3562 1005.13 L28.3562 999.245 L33.8944 999.245 Q30.6797 997.144 29.0883 994.311 Q27.4968 991.447 27.4968 987.723 Q27.4968 981.58 31.3163 978.429 Q35.1038 975.278 42.4881 975.278 Z" fill="#000000" fill-rule="nonzero" fill-opacity="1" /><path clip-path="url(#clip760)" d="M33.7671 940.139 L14.479 940.139 L14.479 934.283 L64.0042 934.283 L64.0042 940.139 L58.657 940.139 Q61.8398 941.985 63.3994 944.818 Q64.9272 947.619 64.9272 951.566 Q64.9272 958.027 59.771 962.101 Q54.6147 966.143 46.212 966.143 Q37.8093 966.143 32.6531 962.101 Q27.4968 958.027 27.4968 951.566 Q27.4968 947.619 29.0564 944.818 Q30.5842 941.985 33.7671 940.139 M46.212 960.096 Q52.6732 960.096 56.3653 957.454 Q60.0256 954.78 60.0256 950.133 Q60.0256 945.487 56.3653 942.813 Q52.6732 940.139 46.212 940.139 Q39.7508 940.139 36.0905 942.813 Q32.3984 945.487 32.3984 950.133 Q32.3984 954.78 36.0905 957.454 Q39.7508 960.096 46.212 960.096 Z" fill="#000000" fill-rule="nonzero" fill-opacity="1" /><path clip-path="url(#clip760)" d="M20.1444 865.661 L26.9239 865.661 Q23.9002 868.907 22.4043 872.599 Q20.9083 876.259 20.9083 880.397 Q20.9083 888.545 25.9054 892.874 Q30.8707 897.203 40.2919 897.203 Q49.6813 897.203 54.6784 892.874 Q59.6436 888.545 59.6436 880.397 Q59.6436 876.259 58.1477 872.599 Q56.6518 868.907 53.6281 865.661 L60.3439 865.661 Q62.6355 869.034 63.7814 872.822 Q64.9272 876.578 64.9272 880.779 Q64.9272 891.569 58.3387 897.776 Q51.7183 903.982 40.2919 903.982 Q28.8336 903.982 22.2451 897.776 Q15.6248 891.569 15.6248 880.779 Q15.6248 876.514 16.7706 872.758 Q17.8846 868.971 20.1444 865.661 Z" fill="#000000" fill-rule="nonzero" fill-opacity="1" /><path clip-path="url(#clip760)" d="M49.9359 856.589 L28.3562 856.589 L28.3562 850.733 L49.7131 850.733 Q54.7739 850.733 57.3202 848.76 Q59.8346 846.786 59.8346 842.84 Q59.8346 838.097 56.8109 835.36 Q53.7872 832.591 48.5673 832.591 L28.3562 832.591 L28.3562 826.734 L64.0042 826.734 L64.0042 832.591 L58.5296 832.591 Q61.7762 834.723 63.3676 837.556 Q64.9272 840.357 64.9272 844.081 Q64.9272 850.224 61.1078 853.407 Q57.2883 856.589 49.9359 856.589 M27.4968 841.853 L27.4968 841.853 Z" fill="#000000" fill-rule="nonzero" fill-opacity="1" /><path clip-path="url(#clip760)" d="M35.1993 786.917 Q31.2526 784.721 29.3747 781.665 Q27.4968 778.61 27.4968 774.472 Q27.4968 768.902 31.4117 765.878 Q35.2948 762.854 42.4881 762.854 L64.0042 762.854 L64.0042 768.743 L42.679 768.743 Q37.5546 768.743 35.072 770.557 Q32.5894 772.371 32.5894 776.095 Q32.5894 780.647 35.6131 783.288 Q38.6368 785.93 43.8567 785.93 L64.0042 785.93 L64.0042 791.818 L42.679 791.818 Q37.5228 791.818 35.072 793.633 Q32.5894 795.447 32.5894 799.234 Q32.5894 803.722 35.6449 806.364 Q38.6686 809.006 43.8567 809.006 L64.0042 809.006 L64.0042 814.894 L28.3562 814.894 L28.3562 809.006 L33.8944 809.006 Q30.616 807.001 29.0564 804.2 Q27.4968 801.399 27.4968 797.547 Q27.4968 793.664 29.4702 790.959 Q31.4436 788.222 35.1993 786.917 Z" fill="#000000" fill-rule="nonzero" fill-opacity="1" /><path clip-path="url(#clip760)" d="M49.9359 751.778 L28.3562 751.778 L28.3562 745.922 L49.7131 745.922 Q54.7739 745.922 57.3202 743.948 Q59.8346 741.975 59.8346 738.028 Q59.8346 733.286 56.8109 730.548 Q53.7872 727.779 48.5673 727.779 L28.3562 727.779 L28.3562 721.923 L64.0042 721.923 L64.0042 727.779 L58.5296 727.779 Q61.7762 729.912 63.3676 732.745 Q64.9272 735.546 64.9272 739.269 Q64.9272 745.412 61.1078 748.595 Q57.2883 751.778 49.9359 751.778 M27.4968 737.041 L27.4968 737.041 Z" fill="#000000" fill-rule="nonzero" fill-opacity="1" /><path clip-path="url(#clip760)" d="M14.479 709.86 L14.479 704.003 L64.0042 704.003 L64.0042 709.86 L14.479 709.86 Z" fill="#000000" fill-rule="nonzero" fill-opacity="1" /><path clip-path="url(#clip760)" d="M46.0847 675.549 Q46.0847 682.646 47.7079 685.384 Q49.3312 688.121 53.2461 688.121 Q56.3653 688.121 58.2114 686.084 Q60.0256 684.015 60.0256 680.482 Q60.0256 675.612 56.5881 672.684 Q53.1188 669.724 47.3897 669.724 L46.0847 669.724 L46.0847 675.549 M43.6657 663.868 L64.0042 663.868 L64.0042 669.724 L58.5933 669.724 Q61.8398 671.729 63.3994 674.721 Q64.9272 677.713 64.9272 682.042 Q64.9272 687.516 61.8716 690.763 Q58.7843 693.977 53.6281 693.977 Q47.6125 693.977 44.5569 689.967 Q41.5014 685.925 41.5014 677.936 L41.5014 669.724 L40.9285 669.724 Q36.8862 669.724 34.6901 672.398 Q32.4621 675.039 32.4621 679.846 Q32.4621 682.901 33.1941 685.798 Q33.9262 688.694 35.3903 691.368 L29.9795 691.368 Q28.7381 688.153 28.1334 685.129 Q27.4968 682.105 27.4968 679.241 Q27.4968 671.507 31.5072 667.687 Q35.5176 663.868 43.6657 663.868 Z" fill="#000000" fill-rule="nonzero" fill-opacity="1" /><path clip-path="url(#clip760)" d="M18.2347 646.012 L28.3562 646.012 L28.3562 633.949 L32.9077 633.949 L32.9077 646.012 L52.2594 646.012 Q56.6199 646.012 57.8613 644.834 Q59.1026 643.625 59.1026 639.964 L59.1026 633.949 L64.0042 633.949 L64.0042 639.964 Q64.0042 646.744 61.4897 649.322 Q58.9434 651.9 52.2594 651.9 L32.9077 651.9 L32.9077 656.197 L28.3562 656.197 L28.3562 651.9 L18.2347 651.9 L18.2347 646.012 Z" fill="#000000" fill-rule="nonzero" fill-opacity="1" /><path clip-path="url(#clip760)" d="M28.3562 626.246 L28.3562 620.39 L64.0042 620.39 L64.0042 626.246 L28.3562 626.246 M14.479 626.246 L14.479 620.39 L21.895 620.39 L21.895 626.246 L14.479 626.246 Z" fill="#000000" fill-rule="nonzero" fill-opacity="1" /><path clip-path="url(#clip760)" d="M28.3562 612.337 L28.3562 606.131 L58.275 594.991 L28.3562 583.851 L28.3562 577.644 L64.0042 591.012 L64.0042 598.969 L28.3562 612.337 Z" fill="#000000" fill-rule="nonzero" fill-opacity="1" /><path clip-path="url(#clip760)" d="M44.7161 539.068 L47.5806 539.068 L47.5806 565.995 Q53.6281 565.613 56.8109 562.366 Q59.9619 559.088 59.9619 553.264 Q59.9619 549.89 59.1344 546.739 Q58.3069 543.556 56.6518 540.437 L62.1899 540.437 Q63.5267 543.588 64.227 546.898 Q64.9272 550.208 64.9272 553.614 Q64.9272 562.144 59.9619 567.141 Q54.9967 572.106 46.5303 572.106 Q37.7774 572.106 32.6531 567.395 Q27.4968 562.653 27.4968 554.632 Q27.4968 547.439 32.1438 543.269 Q36.7589 539.068 44.7161 539.068 M42.9973 544.924 Q38.1912 544.988 35.3266 547.63 Q32.4621 550.24 32.4621 554.568 Q32.4621 559.47 35.2312 562.43 Q38.0002 565.358 43.0292 565.804 L42.9973 544.924 Z" fill="#000000" fill-rule="nonzero" fill-opacity="1" /><path clip-path="url(#clip760)" d="M41.7242 485.946 Q42.4244 483.877 44.7161 481.936 Q47.0077 479.962 51.0181 477.989 L64.0042 471.464 L64.0042 478.371 L51.8138 484.45 Q47.0395 486.806 45.48 489.034 Q43.9204 491.23 43.9204 495.049 L43.9204 502.051 L64.0042 502.051 L64.0042 508.481 L16.4842 508.481 L16.4842 493.967 Q16.4842 485.819 19.8898 481.808 Q23.2955 477.798 30.1704 477.798 Q34.6582 477.798 37.6183 479.899 Q40.5784 481.968 41.7242 485.946 M21.7677 502.051 L38.6368 502.051 L38.6368 493.967 Q38.6368 489.32 36.5043 486.965 Q34.34 484.578 30.1704 484.578 Q26.0009 484.578 23.9002 486.965 Q21.7677 489.32 21.7677 493.967 L21.7677 502.051 Z" fill="#000000" fill-rule="nonzero" fill-opacity="1" /><path clip-path="url(#clip760)" d="M44.7161 435.88 L47.5806 435.88 L47.5806 462.807 Q53.6281 462.425 56.8109 459.178 Q59.9619 455.9 59.9619 450.075 Q59.9619 446.702 59.1344 443.551 Q58.3069 440.368 56.6518 437.249 L62.1899 437.249 Q63.5267 440.4 64.227 443.71 Q64.9272 447.02 64.9272 450.426 Q64.9272 458.956 59.9619 463.953 Q54.9967 468.918 46.5303 468.918 Q37.7774 468.918 32.6531 464.207 Q27.4968 459.465 27.4968 451.444 Q27.4968 444.251 32.1438 440.081 Q36.7589 435.88 44.7161 435.88 M42.9973 441.736 Q38.1912 441.8 35.3266 444.442 Q32.4621 447.052 32.4621 451.38 Q32.4621 456.282 35.2312 459.242 Q38.0002 462.17 43.0292 462.616 L42.9973 441.736 Z" fill="#000000" fill-rule="nonzero" fill-opacity="1" /><path clip-path="url(#clip760)" d="M18.2347 420.475 L28.3562 420.475 L28.3562 408.412 L32.9077 408.412 L32.9077 420.475 L52.2594 420.475 Q56.6199 420.475 57.8613 419.297 Q59.1026 418.088 59.1026 414.427 L59.1026 408.412 L64.0042 408.412 L64.0042 414.427 Q64.0042 421.207 61.4897 423.785 Q58.9434 426.363 52.2594 426.363 L32.9077 426.363 L32.9077 430.66 L28.3562 430.66 L28.3562 426.363 L18.2347 426.363 L18.2347 420.475 Z" fill="#000000" fill-rule="nonzero" fill-opacity="1" /><path clip-path="url(#clip760)" d="M49.9359 401.314 L28.3562 401.314 L28.3562 395.458 L49.7131 395.458 Q54.7739 395.458 57.3202 393.484 Q59.8346 391.511 59.8346 387.564 Q59.8346 382.822 56.8109 380.084 Q53.7872 377.315 48.5673 377.315 L28.3562 377.315 L28.3562 371.459 L64.0042 371.459 L64.0042 377.315 L58.5296 377.315 Q61.7762 379.448 63.3676 382.281 Q64.9272 385.082 64.9272 388.805 Q64.9272 394.948 61.1078 398.131 Q57.2883 401.314 49.9359 401.314 M27.4968 386.577 L27.4968 386.577 Z" fill="#000000" fill-rule="nonzero" fill-opacity="1" /><path clip-path="url(#clip760)" d="M33.8307 338.739 Q33.2578 339.726 33.0032 340.904 Q32.7167 342.049 32.7167 343.45 Q32.7167 348.415 35.9632 351.089 Q39.1779 353.73 45.2253 353.73 L64.0042 353.73 L64.0042 359.619 L28.3562 359.619 L28.3562 353.73 L33.8944 353.73 Q30.6479 351.884 29.0883 348.924 Q27.4968 345.964 27.4968 341.731 Q27.4968 341.126 27.5923 340.394 Q27.656 339.662 27.8151 338.771 L33.8307 338.739 Z" fill="#000000" fill-rule="nonzero" fill-opacity="1" /><path clip-path="url(#clip760)" d="M42.4881 304.11 L64.0042 304.11 L64.0042 309.966 L42.679 309.966 Q37.6183 309.966 35.1038 311.94 Q32.5894 313.913 32.5894 317.86 Q32.5894 322.602 35.6131 325.339 Q38.6368 328.077 43.8567 328.077 L64.0042 328.077 L64.0042 333.965 L28.3562 333.965 L28.3562 328.077 L33.8944 328.077 Q30.6797 325.976 29.0883 323.143 Q27.4968 320.279 27.4968 316.555 Q27.4968 310.412 31.3163 307.261 Q35.1038 304.11 42.4881 304.11 Z" fill="#000000" fill-rule="nonzero" fill-opacity="1" /><path clip-path="url(#clip760)" d="M29.4065 269.703 L34.9447 269.703 Q33.6716 272.186 33.035 274.859 Q32.3984 277.533 32.3984 280.397 Q32.3984 284.758 33.7352 286.954 Q35.072 289.119 37.7456 289.119 Q39.7826 289.119 40.9603 287.559 Q42.1061 285.999 43.1565 281.289 L43.6021 279.283 Q44.9389 273.045 47.3897 270.435 Q49.8086 267.793 54.1691 267.793 Q59.1344 267.793 62.0308 271.74 Q64.9272 275.655 64.9272 282.53 Q64.9272 285.395 64.3543 288.514 Q63.8132 291.601 62.6992 295.039 L56.6518 295.039 Q58.3387 291.792 59.198 288.641 Q60.0256 285.49 60.0256 282.403 Q60.0256 278.265 58.6251 276.037 Q57.1929 273.809 54.6147 273.809 Q52.2276 273.809 50.9545 275.432 Q49.6813 277.024 48.5037 282.466 L48.0262 284.503 Q46.8804 289.946 44.5251 292.365 Q42.138 294.784 38.0002 294.784 Q32.9713 294.784 30.2341 291.219 Q27.4968 287.654 27.4968 281.098 Q27.4968 277.851 27.9743 274.987 Q28.4517 272.122 29.4065 269.703 Z" fill="#000000" fill-rule="nonzero" fill-opacity="1" /><path clip-path="url(#clip760)" d="M1143.99 18.8205 L1143.99 41.5461 L1154.27 41.5461 Q1159.99 41.5461 1163.11 38.5889 Q1166.22 35.6318 1166.22 30.163 Q1166.22 24.7348 1163.11 21.7777 Q1159.99 18.8205 1154.27 18.8205 L1143.99 18.8205 M1135.8 12.096 L1154.27 12.096 Q1164.44 12.096 1169.63 16.714 Q1174.85 21.2916 1174.85 30.163 Q1174.85 39.1155 1169.63 43.6931 Q1164.44 48.2706 1154.27 48.2706 L1143.99 48.2706 L1143.99 72.576 L1135.8 72.576 L1135.8 12.096 Z" fill="#000000" fill-rule="nonzero" fill-opacity="1" /><path clip-path="url(#clip760)" d="M1200.13 32.4315 Q1194.14 32.4315 1190.65 37.1306 Q1187.17 41.7891 1187.17 49.9314 Q1187.17 58.0738 1190.61 62.7728 Q1194.1 67.4314 1200.13 67.4314 Q1206.09 67.4314 1209.57 62.7323 Q1213.05 58.0333 1213.05 49.9314 Q1213.05 41.8701 1209.57 37.1711 Q1206.09 32.4315 1200.13 32.4315 M1200.13 26.1121 Q1209.85 26.1121 1215.4 32.4315 Q1220.95 38.7509 1220.95 49.9314 Q1220.95 61.0714 1215.4 67.4314 Q1209.85 73.7508 1200.13 73.7508 Q1190.37 73.7508 1184.82 67.4314 Q1179.31 61.0714 1179.31 49.9314 Q1179.31 38.7509 1184.82 32.4315 Q1190.37 26.1121 1200.13 26.1121 Z" fill="#000000" fill-rule="nonzero" fill-opacity="1" /><path clip-path="url(#clip760)" d="M1259.6 34.1734 Q1258.34 33.4443 1256.84 33.1202 Q1255.39 32.7556 1253.6 32.7556 Q1247.28 32.7556 1243.88 36.8875 Q1240.52 40.9789 1240.52 48.6757 L1240.52 72.576 L1233.02 72.576 L1233.02 27.2059 L1240.52 27.2059 L1240.52 34.2544 Q1242.87 30.1225 1246.64 28.1376 Q1250.4 26.1121 1255.79 26.1121 Q1256.56 26.1121 1257.49 26.2337 Q1258.42 26.3147 1259.56 26.5172 L1259.6 34.1734 Z" fill="#000000" fill-rule="nonzero" fill-opacity="1" /><path clip-path="url(#clip760)" d="M1274.79 14.324 L1274.79 27.2059 L1290.14 27.2059 L1290.14 32.9987 L1274.79 32.9987 L1274.79 57.6282 Q1274.79 63.1779 1276.29 64.7578 Q1277.83 66.3376 1282.49 66.3376 L1290.14 66.3376 L1290.14 72.576 L1282.49 72.576 Q1273.86 72.576 1270.58 69.3758 Q1267.29 66.1351 1267.29 57.6282 L1267.29 32.9987 L1261.83 32.9987 L1261.83 27.2059 L1267.29 27.2059 L1267.29 14.324 L1274.79 14.324 Z" fill="#000000" fill-rule="nonzero" fill-opacity="1" /><path clip-path="url(#clip760)" d="M1322.91 9.54393 L1322.91 15.7418 L1315.78 15.7418 Q1311.77 15.7418 1310.19 17.3622 Q1308.65 18.9825 1308.65 23.1955 L1308.65 27.2059 L1320.93 27.2059 L1320.93 32.9987 L1308.65 32.9987 L1308.65 72.576 L1301.16 72.576 L1301.16 32.9987 L1294.03 32.9987 L1294.03 27.2059 L1301.16 27.2059 L1301.16 24.0462 Q1301.16 16.471 1304.68 13.0277 Q1308.21 9.54393 1315.87 9.54393 L1322.91 9.54393 Z" fill="#000000" fill-rule="nonzero" fill-opacity="1" /><path clip-path="url(#clip760)" d="M1346.73 32.4315 Q1340.74 32.4315 1337.25 37.1306 Q1333.77 41.7891 1333.77 49.9314 Q1333.77 58.0738 1337.21 62.7728 Q1340.7 67.4314 1346.73 67.4314 Q1352.69 67.4314 1356.17 62.7323 Q1359.66 58.0333 1359.66 49.9314 Q1359.66 41.8701 1356.17 37.1711 Q1352.69 32.4315 1346.73 32.4315 M1346.73 26.1121 Q1356.46 26.1121 1362.01 32.4315 Q1367.55 38.7509 1367.55 49.9314 Q1367.55 61.0714 1362.01 67.4314 Q1356.46 73.7508 1346.73 73.7508 Q1336.97 73.7508 1331.42 67.4314 Q1325.91 61.0714 1325.91 49.9314 Q1325.91 38.7509 1331.42 32.4315 Q1336.97 26.1121 1346.73 26.1121 Z" fill="#000000" fill-rule="nonzero" fill-opacity="1" /><path clip-path="url(#clip760)" d="M1379.91 9.54393 L1387.36 9.54393 L1387.36 72.576 L1379.91 72.576 L1379.91 9.54393 Z" fill="#000000" fill-rule="nonzero" fill-opacity="1" /><path clip-path="url(#clip760)" d="M1402.96 27.2059 L1410.41 27.2059 L1410.41 72.576 L1402.96 72.576 L1402.96 27.2059 M1402.96 9.54393 L1410.41 9.54393 L1410.41 18.9825 L1402.96 18.9825 L1402.96 9.54393 Z" fill="#000000" fill-rule="nonzero" fill-opacity="1" /><path clip-path="url(#clip760)" d="M1443.59 32.4315 Q1437.59 32.4315 1434.11 37.1306 Q1430.63 41.7891 1430.63 49.9314 Q1430.63 58.0738 1434.07 62.7728 Q1437.55 67.4314 1443.59 67.4314 Q1449.55 67.4314 1453.03 62.7323 Q1456.51 58.0333 1456.51 49.9314 Q1456.51 41.8701 1453.03 37.1711 Q1449.55 32.4315 1443.59 32.4315 M1443.59 26.1121 Q1453.31 26.1121 1458.86 32.4315 Q1464.41 38.7509 1464.41 49.9314 Q1464.41 61.0714 1458.86 67.4314 Q1453.31 73.7508 1443.59 73.7508 Q1433.83 73.7508 1428.28 67.4314 Q1422.77 61.0714 1422.77 49.9314 Q1422.77 38.7509 1428.28 32.4315 Q1433.83 26.1121 1443.59 26.1121 Z" fill="#000000" fill-rule="nonzero" fill-opacity="1" /><polyline clip-path="url(#clip762)" style="stroke:#009af9; stroke-linecap:round; stroke-linejoin:round; stroke-width:4; stroke-opacity:1; fill:none" points="307.043,1278.22 312.499,1273.03 317.955,1278.89 334.325,1256.74 339.781,1243.53 345.237,1190.47 350.694,1193.12 356.15,1138.24 372.519,1127.39 377.976,1138.59 383.432,1165.11 388.889,1169.04 394.345,1159.45 416.171,1180.39 421.627,1175.59 427.083,1211.29 432.54,1237.65 448.909,1276.39 454.365,1210.07 459.822,1220.52 465.278,1166.28 470.735,1138.21 487.104,1109.51 492.56,1095.38 498.017,1056.16 503.473,1092.5 508.929,1120.41 525.299,1130.26 530.755,1143.23 536.211,1153.87 541.668,1199.36 547.124,1213.66 563.493,1256.04 568.95,1225.68 574.406,1233.43 579.863,1225.28 585.319,1246.22 607.145,1290.58 612.601,1296.56 618.057,1386.4 623.514,1197.29 639.883,1221.06 645.339,1217.16 650.796,1162.86 656.252,1109.83 661.709,1052.57 678.078,1030.76 683.534,1104.11 688.991,1105.86 694.447,1091.03 699.903,1097.32 716.273,1063.91 721.729,1009.93 727.185,1038.17 732.642,978.712 738.098,989.226 754.467,959.547 759.924,962.021 765.38,968.862 770.837,937.73 776.293,882.958 792.662,874.397 798.119,862.801 803.575,816.079 809.031,866.576 814.488,808.988 830.857,833.213 836.313,819.502 841.77,717.084 847.226,678.513 852.683,641.152 869.052,714.619 874.508,706.891 879.965,665.664 885.421,664.495 907.247,706.365 912.703,633.761 918.159,587.724 923.616,620.208 929.072,703.826 945.441,650.747 950.898,696.956 956.354,715.66 961.811,601.932 967.267,698.954 983.636,744.95 989.093,744.611 994.549,640.419 1000.01,716.081 1005.46,707.56 1021.83,749.09 1027.29,757.588 1032.74,748.909 1038.2,705.207 1043.66,681.893 1060.03,616.283 1065.48,662.315 1070.94,841.716 1076.39,896.947 1081.85,830.694 1098.22,725.793 1103.68,664.968 1109.13,684.836 1114.59,679.629 1120.05,623.66 1141.87,689.054 1147.33,732.738 1152.78,732.98 1158.24,756.464 1174.61,761.699 1180.07,709.366 1185.52,739.488 1190.98,838.557 1196.44,872.978 1212.8,974.054 1218.26,1029.39 1223.72,1012.91 1229.17,1042.08 1234.63,1095.41 1256.46,941.044 1261.91,923.418 1267.37,843.11 1272.83,770.915 1289.19,743.683 1294.65,836.074 1300.11,836.901 1305.56,857.825 1311.02,783.792 1332.85,821.578 1338.3,814.152 1343.76,799.629 1349.21,801.52 1365.58,793.618 1371.04,849.432 1376.5,852.252 1381.95,849.648 1387.41,791.123 1403.78,870.684 1409.24,860.781 1414.69,903.724 1420.15,891.723 1425.6,881.944 1441.97,845.415 1447.43,854.867 1452.89,829.294 1458.34,791.539 1463.8,742.702 1480.17,759.402 1485.62,797.739 1491.08,796.945 1496.54,887.642 1501.99,878.867 1518.36,876.378 1523.82,847.268 1529.28,830.036 1534.73,857.528 1540.19,832.059 1556.56,825.218 1562.01,774.997 1567.47,765.641 1572.93,755.111 1578.38,730.321 1594.75,772.239 1600.21,779.785 1605.67,777.529 1611.12,744.347 1616.58,842.095 1632.95,866.328 1638.4,914.482 1643.86,961.795 1649.32,887.892 1654.77,939.599 1676.6,943.499 1682.06,900.441 1687.51,873.701 1692.97,847.229 1709.34,819.047 1714.79,955.748 1720.25,877.484 1725.71,911.052 1731.16,882.825 1747.53,896.723 1752.99,927.521 1758.44,975.088 1763.9,913.258 1769.36,977.736 1785.73,1014.1 1791.18,1046.05 1796.64,974.362 1802.1,1017.95 1807.55,1071.94 1823.92,995.274 1829.38,915.391 1834.83,922.194 1840.29,982.88 1845.75,1031.67 1862.12,1009.52 1867.57,960.348 1873.03,946.16 1878.49,836.186 1883.94,897.768 1900.31,824.124 1905.77,795.887 1911.22,811.793 1916.68,820.934 1922.14,706.182 1938.51,620.137 1943.96,598.384 1949.42,551.743 1954.88,534.074 1960.33,445.769 1976.7,460.715 1982.16,486.523 1987.61,559.689 1993.07,555.04 1998.53,520.254 2014.9,468.396 2020.35,438.27 2025.81,514.05 2031.26,426.928 2036.72,515.355 2053.09,480.632 2058.55,439.324 2064,425.101 2069.46,377.484 2074.92,327.478 2091.29,285.42 2096.74,233.772 2102.2,230.926 2113.11,222.782 2129.48,234.538 2134.94,246.044 2140.39,175.577 2145.85,163.365 2151.31,160.256 2167.67,205.678 2173.13,282.712 2178.59,256.223 2184.04,233.938 2189.5,313.338 2205.87,249.988 2211.33,201.581 2216.78,190.62 2222.24,268.777 2227.7,319.127 2244.06,310.722 2249.52,288.729 2254.98,221.128 2260.43,256.047 2265.89,211.856 2287.72,191.801 2293.17,246.706 "/>
</svg>
