<?xml version="1.0" encoding="utf-8"?>
<svg xmlns="http://www.w3.org/2000/svg" xmlns:xlink="http://www.w3.org/1999/xlink" width="600" height="400" viewBox="0 0 2400 1600">
<defs>
  <clipPath id="clip790">
    <rect x="0" y="0" width="2400" height="1600"/>
  </clipPath>
</defs>
<path clip-path="url(#clip790)" d="M0 1600 L2400 1600 L2400 0 L0 0  Z" fill="#ffffff" fill-rule="evenodd" fill-opacity="1"/>
<defs>
  <clipPath id="clip791">
    <rect x="247" y="123" width="2106" height="1301"/>
  </clipPath>
</defs>
<path clip-path="url(#clip790)" d="M219.38 1354.85 L2352.76 1354.85 L2352.76 123.472 L219.38 123.472  Z" fill="#ffffff" fill-rule="evenodd" fill-opacity="1"/>
<defs>
  <clipPath id="clip792">
    <rect x="219" y="123" width="2134" height="1232"/>
  </clipPath>
</defs>
<polyline clip-path="url(#clip792)" style="stroke:#000000; stroke-linecap:round; stroke-linejoin:round; stroke-width:2; stroke-opacity:0.1; fill:none" points="467.664,1354.85 467.664,123.472 "/>
<polyline clip-path="url(#clip792)" style="stroke:#000000; stroke-linecap:round; stroke-linejoin:round; stroke-width:2; stroke-opacity:0.1; fill:none" points="795.026,1354.85 795.026,123.472 "/>
<polyline clip-path="url(#clip792)" style="stroke:#000000; stroke-linecap:round; stroke-linejoin:round; stroke-width:2; stroke-opacity:0.1; fill:none" points="1122.39,1354.85 1122.39,123.472 "/>
<polyline clip-path="url(#clip792)" style="stroke:#000000; stroke-linecap:round; stroke-linejoin:round; stroke-width:2; stroke-opacity:0.1; fill:none" points="1449.75,1354.85 1449.75,123.472 "/>
<polyline clip-path="url(#clip792)" style="stroke:#000000; stroke-linecap:round; stroke-linejoin:round; stroke-width:2; stroke-opacity:0.1; fill:none" points="1777.11,1354.85 1777.11,123.472 "/>
<polyline clip-path="url(#clip792)" style="stroke:#000000; stroke-linecap:round; stroke-linejoin:round; stroke-width:2; stroke-opacity:0.1; fill:none" points="2104.47,1354.85 2104.47,123.472 "/>
<polyline clip-path="url(#clip792)" style="stroke:#000000; stroke-linecap:round; stroke-linejoin:round; stroke-width:2; stroke-opacity:0.1; fill:none" points="219.38,1354.85 2352.76,1354.85 "/>
<polyline clip-path="url(#clip792)" style="stroke:#000000; stroke-linecap:round; stroke-linejoin:round; stroke-width:2; stroke-opacity:0.1; fill:none" points="219.38,1023.75 2352.76,1023.75 "/>
<polyline clip-path="url(#clip792)" style="stroke:#000000; stroke-linecap:round; stroke-linejoin:round; stroke-width:2; stroke-opacity:0.1; fill:none" points="219.38,692.643 2352.76,692.643 "/>
<polyline clip-path="url(#clip792)" style="stroke:#000000; stroke-linecap:round; stroke-linejoin:round; stroke-width:2; stroke-opacity:0.1; fill:none" points="219.38,361.538 2352.76,361.538 "/>
<polyline clip-path="url(#clip790)" style="stroke:#000000; stroke-linecap:round; stroke-linejoin:round; stroke-width:4; stroke-opacity:1; fill:none" points="219.38,1354.85 2352.76,1354.85 "/>
<polyline clip-path="url(#clip790)" style="stroke:#000000; stroke-linecap:round; stroke-linejoin:round; stroke-width:4; stroke-opacity:1; fill:none" points="467.664,1354.85 467.664,1335.96 "/>
<polyline clip-path="url(#clip790)" style="stroke:#000000; stroke-linecap:round; stroke-linejoin:round; stroke-width:4; stroke-opacity:1; fill:none" points="795.026,1354.85 795.026,1335.96 "/>
<polyline clip-path="url(#clip790)" style="stroke:#000000; stroke-linecap:round; stroke-linejoin:round; stroke-width:4; stroke-opacity:1; fill:none" points="1122.39,1354.85 1122.39,1335.96 "/>
<polyline clip-path="url(#clip790)" style="stroke:#000000; stroke-linecap:round; stroke-linejoin:round; stroke-width:4; stroke-opacity:1; fill:none" points="1449.75,1354.85 1449.75,1335.96 "/>
<polyline clip-path="url(#clip790)" style="stroke:#000000; stroke-linecap:round; stroke-linejoin:round; stroke-width:4; stroke-opacity:1; fill:none" points="1777.11,1354.85 1777.11,1335.96 "/>
<polyline clip-path="url(#clip790)" style="stroke:#000000; stroke-linecap:round; stroke-linejoin:round; stroke-width:4; stroke-opacity:1; fill:none" points="2104.47,1354.85 2104.47,1335.96 "/>
<path clip-path="url(#clip790)" d="M453.046 1440.05 L457.977 1440.05 Q455.778 1442.41 454.69 1445.1 Q453.602 1447.76 453.602 1450.77 Q453.602 1456.69 457.236 1459.84 Q460.847 1462.99 467.699 1462.99 Q474.528 1462.99 478.162 1459.84 Q481.773 1456.69 481.773 1450.77 Q481.773 1447.76 480.685 1445.1 Q479.597 1442.41 477.398 1440.05 L482.282 1440.05 Q483.949 1442.5 484.782 1445.26 Q485.616 1447.99 485.616 1451.04 Q485.616 1458.89 480.824 1463.41 Q476.009 1467.92 467.699 1467.92 Q459.366 1467.92 454.574 1463.41 Q449.759 1458.89 449.759 1451.04 Q449.759 1447.94 450.593 1445.21 Q451.403 1442.46 453.046 1440.05 Z" fill="#000000" fill-rule="nonzero" fill-opacity="1" /><path clip-path="url(#clip790)" d="M484.944 1423.92 L450.384 1437.11 L450.384 1432.23 L479.481 1421.28 L450.384 1410.3 L450.384 1405.44 L484.944 1418.61 L484.944 1423.92 Z" fill="#000000" fill-rule="nonzero" fill-opacity="1" /><path clip-path="url(#clip790)" d="M450.384 1402.06 L450.384 1397.04 L463.231 1388.45 L450.384 1379.82 L450.384 1374.8 L466.981 1385.91 L484.944 1374.05 L484.944 1379.08 L470.245 1388.8 L484.944 1398.59 L484.944 1403.64 L466.495 1391.3 L450.384 1402.06 Z" fill="#000000" fill-rule="nonzero" fill-opacity="1" /><path clip-path="url(#clip790)" d="M777.746 1428.17 L777.746 1423.5 L809.898 1423.5 Q816.148 1423.5 818.972 1425.88 Q821.796 1428.24 821.796 1433.5 L821.796 1435.28 L817.861 1435.28 L817.861 1433.82 Q817.861 1430.72 816.125 1429.45 Q814.389 1428.17 809.898 1428.17 L777.746 1428.17 Z" fill="#000000" fill-rule="nonzero" fill-opacity="1" /><path clip-path="url(#clip790)" d="M777.746 1414.19 L777.746 1407.9 L806.658 1392.57 L777.746 1392.57 L777.746 1388.04 L812.306 1388.04 L812.306 1394.33 L783.394 1409.66 L812.306 1409.66 L812.306 1414.19 L777.746 1414.19 Z" fill="#000000" fill-rule="nonzero" fill-opacity="1" /><path clip-path="url(#clip790)" d="M777.746 1378.73 L777.746 1374.05 L809.898 1374.05 Q816.148 1374.05 818.972 1376.44 Q821.796 1378.8 821.796 1384.05 L821.796 1385.84 L817.861 1385.84 L817.861 1384.38 Q817.861 1381.28 816.125 1380 Q814.389 1378.73 809.898 1378.73 L777.746 1378.73 Z" fill="#000000" fill-rule="nonzero" fill-opacity="1" /><path clip-path="url(#clip790)" d="M1105.11 1432.55 L1105.11 1427.87 L1119.71 1427.87 L1105.11 1412.36 L1105.11 1406.35 L1121.22 1423.5 L1139.67 1405.12 L1139.67 1411.28 L1123.02 1427.87 L1139.67 1427.87 L1139.67 1432.55 L1105.11 1432.55 Z" fill="#000000" fill-rule="nonzero" fill-opacity="1" /><path clip-path="url(#clip790)" d="M1108.28 1390.03 Q1108.28 1395.12 1112.07 1398.13 Q1115.87 1401.11 1122.42 1401.11 Q1128.95 1401.11 1132.75 1398.13 Q1136.54 1395.12 1136.54 1390.03 Q1136.54 1384.93 1132.75 1381.97 Q1128.95 1378.99 1122.42 1378.99 Q1115.87 1378.99 1112.07 1381.97 Q1108.28 1384.93 1108.28 1390.03 M1104.48 1390.03 Q1104.48 1382.76 1109.37 1378.41 Q1114.23 1374.05 1122.42 1374.05 Q1130.59 1374.05 1135.48 1378.41 Q1140.34 1382.76 1140.34 1390.03 Q1140.34 1397.32 1135.48 1401.69 Q1130.62 1406.05 1122.42 1406.05 Q1114.23 1406.05 1109.37 1401.69 Q1104.48 1397.32 1104.48 1390.03 Z" fill="#000000" fill-rule="nonzero" fill-opacity="1" /><path clip-path="url(#clip790)" d="M1432.47 1475.33 L1432.47 1468.36 L1455.99 1459.54 L1432.47 1450.67 L1432.47 1443.71 L1467.03 1443.71 L1467.03 1448.27 L1436.68 1448.27 L1460.39 1457.18 L1460.39 1461.88 L1436.68 1470.79 L1467.03 1470.79 L1467.03 1475.33 L1432.47 1475.33 Z" fill="#000000" fill-rule="nonzero" fill-opacity="1" /><path clip-path="url(#clip790)" d="M1450.83 1418.04 Q1451.33 1416.53 1453 1415.12 Q1454.67 1413.68 1457.58 1412.25 L1467.03 1407.5 L1467.03 1412.53 L1458.16 1416.95 Q1454.69 1418.66 1453.56 1420.28 Q1452.42 1421.88 1452.42 1424.66 L1452.42 1429.75 L1467.03 1429.75 L1467.03 1434.42 L1432.47 1434.42 L1432.47 1423.87 Q1432.47 1417.94 1434.95 1415.03 Q1437.42 1412.11 1442.42 1412.11 Q1445.69 1412.11 1447.84 1413.64 Q1449.99 1415.14 1450.83 1418.04 M1436.31 1429.75 L1448.58 1429.75 L1448.58 1423.87 Q1448.58 1420.49 1447.03 1418.78 Q1445.45 1417.04 1442.42 1417.04 Q1439.39 1417.04 1437.86 1418.78 Q1436.31 1420.49 1436.31 1423.87 L1436.31 1429.75 Z" fill="#000000" fill-rule="nonzero" fill-opacity="1" /><path clip-path="url(#clip790)" d="M1432.47 1401.48 L1432.47 1396.81 L1447.08 1396.81 L1432.47 1381.3 L1432.47 1375.28 L1448.58 1392.43 L1467.03 1374.05 L1467.03 1380.21 L1450.39 1396.81 L1467.03 1396.81 L1467.03 1401.48 L1432.47 1401.48 Z" fill="#000000" fill-rule="nonzero" fill-opacity="1" /><path clip-path="url(#clip790)" d="M1759.83 1489.35 L1759.83 1484.63 L1789.04 1477.36 L1759.83 1470.12 L1759.83 1464.86 L1789.04 1457.6 L1759.83 1450.35 L1759.83 1445.61 L1794.39 1454.29 L1794.39 1460.17 L1764.39 1467.46 L1794.39 1474.82 L1794.39 1480.7 L1759.83 1489.35 Z" fill="#000000" fill-rule="nonzero" fill-opacity="1" /><path clip-path="url(#clip790)" d="M1759.83 1439.4 L1759.83 1432.43 L1783.35 1423.61 L1759.83 1414.75 L1759.83 1407.78 L1794.39 1407.78 L1794.39 1412.34 L1764.04 1412.34 L1787.75 1421.25 L1787.75 1425.95 L1764.04 1434.86 L1794.39 1434.86 L1794.39 1439.4 L1759.83 1439.4 Z" fill="#000000" fill-rule="nonzero" fill-opacity="1" /><path clip-path="url(#clip790)" d="M1759.83 1403.29 L1759.83 1374.05 L1763.77 1374.05 L1763.77 1386.32 L1794.39 1386.32 L1794.39 1391.02 L1763.77 1391.02 L1763.77 1403.29 L1759.83 1403.29 Z" fill="#000000" fill-rule="nonzero" fill-opacity="1" /><path clip-path="url(#clip790)" d="M2090.36 1512.36 Q2090.36 1517.46 2094.16 1520.47 Q2097.96 1523.45 2104.51 1523.45 Q2111.03 1523.45 2114.83 1520.47 Q2118.63 1517.46 2118.63 1512.36 Q2118.63 1507.27 2114.83 1504.31 Q2111.03 1501.32 2104.51 1501.32 Q2097.96 1501.32 2094.16 1504.31 Q2090.36 1507.27 2090.36 1512.36 M2086.57 1512.36 Q2086.57 1505.1 2091.45 1500.74 Q2096.31 1496.39 2104.51 1496.39 Q2112.68 1496.39 2117.56 1500.74 Q2122.42 1505.1 2122.42 1512.36 Q2122.42 1519.66 2117.56 1524.03 Q2112.7 1528.38 2104.51 1528.38 Q2096.31 1528.38 2091.45 1524.03 Q2086.57 1519.66 2086.57 1512.36 Z" fill="#000000" fill-rule="nonzero" fill-opacity="1" /><path clip-path="url(#clip790)" d="M2088.46 1485.05 L2095.83 1485.05 L2095.83 1476.28 L2099.14 1476.28 L2099.14 1485.05 L2113.21 1485.05 Q2116.38 1485.05 2117.28 1484.19 Q2118.19 1483.31 2118.19 1480.65 L2118.19 1476.28 L2121.75 1476.28 L2121.75 1480.65 Q2121.75 1485.58 2119.92 1487.46 Q2118.07 1489.33 2113.21 1489.33 L2099.14 1489.33 L2099.14 1492.46 L2095.83 1492.46 L2095.83 1489.33 L2088.46 1489.33 L2088.46 1485.05 Z" fill="#000000" fill-rule="nonzero" fill-opacity="1" /><path clip-path="url(#clip790)" d="M2106.1 1449.12 L2121.75 1449.12 L2121.75 1453.38 L2106.24 1453.38 Q2102.56 1453.38 2100.73 1454.82 Q2098.9 1456.25 2098.9 1459.12 Q2098.9 1462.57 2101.1 1464.56 Q2103.3 1466.55 2107.1 1466.55 L2121.75 1466.55 L2121.75 1470.84 L2085.73 1470.84 L2085.73 1466.55 L2099.85 1466.55 Q2097.52 1465.03 2096.36 1462.97 Q2095.2 1460.88 2095.2 1458.17 Q2095.2 1453.71 2097.98 1451.42 Q2100.73 1449.12 2106.1 1449.12 Z" fill="#000000" fill-rule="nonzero" fill-opacity="1" /><path clip-path="url(#clip790)" d="M2107.72 1418.45 L2109.81 1418.45 L2109.81 1438.04 Q2114.21 1437.76 2116.52 1435.4 Q2118.81 1433.01 2118.81 1428.78 Q2118.81 1426.32 2118.21 1424.03 Q2117.61 1421.72 2116.4 1419.45 L2120.43 1419.45 Q2121.4 1421.74 2121.91 1424.15 Q2122.42 1426.55 2122.42 1429.03 Q2122.42 1435.23 2118.81 1438.87 Q2115.2 1442.48 2109.04 1442.48 Q2102.68 1442.48 2098.95 1439.05 Q2095.2 1435.61 2095.2 1429.77 Q2095.2 1424.54 2098.58 1421.51 Q2101.94 1418.45 2107.72 1418.45 M2106.47 1422.71 Q2102.98 1422.76 2100.9 1424.68 Q2098.81 1426.58 2098.81 1429.73 Q2098.81 1433.29 2100.83 1435.44 Q2102.84 1437.57 2106.5 1437.9 L2106.47 1422.71 Z" fill="#000000" fill-rule="nonzero" fill-opacity="1" /><path clip-path="url(#clip790)" d="M2099.81 1396.44 Q2099.39 1397.16 2099.21 1398.01 Q2099 1398.85 2099 1399.86 Q2099 1403.48 2101.36 1405.42 Q2103.7 1407.34 2108.09 1407.34 L2121.75 1407.34 L2121.75 1411.62 L2095.83 1411.62 L2095.83 1407.34 L2099.85 1407.34 Q2097.49 1406 2096.36 1403.85 Q2095.2 1401.69 2095.2 1398.61 Q2095.2 1398.17 2095.27 1397.64 Q2095.32 1397.11 2095.43 1396.46 L2099.81 1396.44 Z" fill="#000000" fill-rule="nonzero" fill-opacity="1" /><path clip-path="url(#clip790)" d="M2096.59 1375.44 L2100.62 1375.44 Q2099.69 1377.25 2099.23 1379.19 Q2098.77 1381.14 2098.77 1383.22 Q2098.77 1386.39 2099.74 1387.99 Q2100.71 1389.56 2102.65 1389.56 Q2104.14 1389.56 2104.99 1388.43 Q2105.83 1387.3 2106.59 1383.87 L2106.91 1382.41 Q2107.89 1377.87 2109.67 1375.98 Q2111.43 1374.05 2114.6 1374.05 Q2118.21 1374.05 2120.32 1376.92 Q2122.42 1379.77 2122.42 1384.77 Q2122.42 1386.86 2122.01 1389.12 Q2121.61 1391.37 2120.8 1393.87 L2116.4 1393.87 Q2117.63 1391.51 2118.26 1389.22 Q2118.86 1386.92 2118.86 1384.68 Q2118.86 1381.67 2117.84 1380.05 Q2116.8 1378.43 2114.92 1378.43 Q2113.19 1378.43 2112.26 1379.61 Q2111.34 1380.77 2110.48 1384.73 L2110.13 1386.21 Q2109.3 1390.17 2107.59 1391.92 Q2105.85 1393.68 2102.84 1393.68 Q2099.18 1393.68 2097.19 1391.09 Q2095.2 1388.5 2095.2 1383.73 Q2095.2 1381.37 2095.55 1379.29 Q2095.9 1377.2 2096.59 1375.44 Z" fill="#000000" fill-rule="nonzero" fill-opacity="1" /><path clip-path="url(#clip790)" d="M1219.79 1561.02 L1211.06 1584.67 L1228.54 1584.67 L1219.79 1561.02 M1216.16 1554.69 L1223.45 1554.69 L1241.56 1602.21 L1234.87 1602.21 L1230.54 1590.02 L1209.12 1590.02 L1204.79 1602.21 L1198.01 1602.21 L1216.16 1554.69 Z" fill="#000000" fill-rule="nonzero" fill-opacity="1" /><path clip-path="url(#clip790)" d="M1270.97 1567.61 L1270.97 1573.15 Q1268.48 1571.87 1265.81 1571.24 Q1263.14 1570.6 1260.27 1570.6 Q1255.91 1570.6 1253.71 1571.94 Q1251.55 1573.27 1251.55 1575.95 Q1251.55 1577.98 1253.11 1579.16 Q1254.67 1580.31 1259.38 1581.36 L1261.39 1581.8 Q1267.62 1583.14 1270.23 1585.59 Q1272.88 1588.01 1272.88 1592.37 Q1272.88 1597.34 1268.93 1600.23 Q1265.01 1603.13 1258.14 1603.13 Q1255.27 1603.13 1252.15 1602.56 Q1249.07 1602.02 1245.63 1600.9 L1245.63 1594.85 Q1248.88 1596.54 1252.03 1597.4 Q1255.18 1598.23 1258.27 1598.23 Q1262.4 1598.23 1264.63 1596.83 Q1266.86 1595.4 1266.86 1592.82 Q1266.86 1590.43 1265.24 1589.16 Q1263.64 1587.88 1258.2 1586.71 L1256.17 1586.23 Q1250.72 1585.08 1248.3 1582.73 Q1245.88 1580.34 1245.88 1576.2 Q1245.88 1571.17 1249.45 1568.44 Q1253.01 1565.7 1259.57 1565.7 Q1262.82 1565.7 1265.68 1566.18 Q1268.55 1566.65 1270.97 1567.61 Z" fill="#000000" fill-rule="nonzero" fill-opacity="1" /><path clip-path="url(#clip790)" d="M1304.93 1567.61 L1304.93 1573.15 Q1302.44 1571.87 1299.77 1571.24 Q1297.1 1570.6 1294.23 1570.6 Q1289.87 1570.6 1287.68 1571.94 Q1285.51 1573.27 1285.51 1575.95 Q1285.51 1577.98 1287.07 1579.16 Q1288.63 1580.31 1293.34 1581.36 L1295.35 1581.8 Q1301.58 1583.14 1304.19 1585.59 Q1306.84 1588.01 1306.84 1592.37 Q1306.84 1597.34 1302.89 1600.23 Q1298.97 1603.13 1292.1 1603.13 Q1289.23 1603.13 1286.12 1602.56 Q1283.03 1602.02 1279.59 1600.9 L1279.59 1594.85 Q1282.84 1596.54 1285.99 1597.4 Q1289.14 1598.23 1292.23 1598.23 Q1296.36 1598.23 1298.59 1596.83 Q1300.82 1595.4 1300.82 1592.82 Q1300.82 1590.43 1299.2 1589.16 Q1297.61 1587.88 1292.16 1586.71 L1290.13 1586.23 Q1284.68 1585.08 1282.26 1582.73 Q1279.85 1580.34 1279.85 1576.2 Q1279.85 1571.17 1283.41 1568.44 Q1286.98 1565.7 1293.53 1565.7 Q1296.78 1565.7 1299.64 1566.18 Q1302.51 1566.65 1304.93 1567.61 Z" fill="#000000" fill-rule="nonzero" fill-opacity="1" /><path clip-path="url(#clip790)" d="M1346.65 1582.92 L1346.65 1585.78 L1319.73 1585.78 Q1320.11 1591.83 1323.36 1595.01 Q1326.63 1598.16 1332.46 1598.16 Q1335.83 1598.16 1338.98 1597.34 Q1342.17 1596.51 1345.29 1594.85 L1345.29 1600.39 Q1342.13 1601.73 1338.82 1602.43 Q1335.51 1603.13 1332.11 1603.13 Q1323.58 1603.13 1318.58 1598.16 Q1313.62 1593.2 1313.62 1584.73 Q1313.62 1575.98 1318.33 1570.86 Q1323.07 1565.7 1331.09 1565.7 Q1338.28 1565.7 1342.45 1570.35 Q1346.65 1574.96 1346.65 1582.92 M1340.8 1581.2 Q1340.73 1576.39 1338.09 1573.53 Q1335.48 1570.66 1331.15 1570.66 Q1326.25 1570.66 1323.29 1573.43 Q1320.36 1576.2 1319.92 1581.23 L1340.8 1581.2 Z" fill="#000000" fill-rule="nonzero" fill-opacity="1" /><path clip-path="url(#clip790)" d="M1362.06 1556.44 L1362.06 1566.56 L1374.12 1566.56 L1374.12 1571.11 L1362.06 1571.11 L1362.06 1590.46 Q1362.06 1594.82 1363.24 1596.06 Q1364.45 1597.3 1368.11 1597.3 L1374.12 1597.3 L1374.12 1602.21 L1368.11 1602.21 Q1361.33 1602.21 1358.75 1599.69 Q1356.17 1597.15 1356.17 1590.46 L1356.17 1571.11 L1351.87 1571.11 L1351.87 1566.56 L1356.17 1566.56 L1356.17 1556.44 L1362.06 1556.44 Z" fill="#000000" fill-rule="nonzero" fill-opacity="1" /><polyline clip-path="url(#clip790)" style="stroke:#000000; stroke-linecap:round; stroke-linejoin:round; stroke-width:4; stroke-opacity:1; fill:none" points="219.38,1354.85 219.38,123.472 "/>
<polyline clip-path="url(#clip790)" style="stroke:#000000; stroke-linecap:round; stroke-linejoin:round; stroke-width:4; stroke-opacity:1; fill:none" points="219.38,1354.85 238.278,1354.85 "/>
<polyline clip-path="url(#clip790)" style="stroke:#000000; stroke-linecap:round; stroke-linejoin:round; stroke-width:4; stroke-opacity:1; fill:none" points="219.38,1023.75 238.278,1023.75 "/>
<polyline clip-path="url(#clip790)" style="stroke:#000000; stroke-linecap:round; stroke-linejoin:round; stroke-width:4; stroke-opacity:1; fill:none" points="219.38,692.643 238.278,692.643 "/>
<polyline clip-path="url(#clip790)" style="stroke:#000000; stroke-linecap:round; stroke-linejoin:round; stroke-width:4; stroke-opacity:1; fill:none" points="219.38,361.538 238.278,361.538 "/>
<path clip-path="url(#clip790)" d="M126.205 1340.65 Q122.593 1340.65 120.765 1344.22 Q118.959 1347.76 118.959 1354.89 Q118.959 1362 120.765 1365.56 Q122.593 1369.1 126.205 1369.1 Q129.839 1369.1 131.644 1365.56 Q133.473 1362 133.473 1354.89 Q133.473 1347.76 131.644 1344.22 Q129.839 1340.65 126.205 1340.65 M126.205 1336.95 Q132.015 1336.95 135.07 1341.56 Q138.149 1346.14 138.149 1354.89 Q138.149 1363.62 135.07 1368.22 Q132.015 1372.81 126.205 1372.81 Q120.394 1372.81 117.316 1368.22 Q114.26 1363.62 114.26 1354.89 Q114.26 1346.14 117.316 1341.56 Q120.394 1336.95 126.205 1336.95 Z" fill="#000000" fill-rule="nonzero" fill-opacity="1" /><path clip-path="url(#clip790)" d="M146.366 1366.25 L151.251 1366.25 L151.251 1372.13 L146.366 1372.13 L146.366 1366.25 Z" fill="#000000" fill-rule="nonzero" fill-opacity="1" /><path clip-path="url(#clip790)" d="M171.436 1340.65 Q167.825 1340.65 165.996 1344.22 Q164.19 1347.76 164.19 1354.89 Q164.19 1362 165.996 1365.56 Q167.825 1369.1 171.436 1369.1 Q175.07 1369.1 176.876 1365.56 Q178.704 1362 178.704 1354.89 Q178.704 1347.76 176.876 1344.22 Q175.07 1340.65 171.436 1340.65 M171.436 1336.95 Q177.246 1336.95 180.301 1341.56 Q183.38 1346.14 183.38 1354.89 Q183.38 1363.62 180.301 1368.22 Q177.246 1372.81 171.436 1372.81 Q165.626 1372.81 162.547 1368.22 Q159.491 1363.62 159.491 1354.89 Q159.491 1346.14 162.547 1341.56 Q165.626 1336.95 171.436 1336.95 Z" fill="#000000" fill-rule="nonzero" fill-opacity="1" /><path clip-path="url(#clip790)" d="M127.431 1009.55 Q123.82 1009.55 121.992 1013.11 Q120.186 1016.65 120.186 1023.78 Q120.186 1030.89 121.992 1034.45 Q123.82 1038 127.431 1038 Q131.066 1038 132.871 1034.45 Q134.7 1030.89 134.7 1023.78 Q134.7 1016.65 132.871 1013.11 Q131.066 1009.55 127.431 1009.55 M127.431 1005.84 Q133.242 1005.84 136.297 1010.45 Q139.376 1015.03 139.376 1023.78 Q139.376 1032.51 136.297 1037.12 Q133.242 1041.7 127.431 1041.7 Q121.621 1041.7 118.543 1037.12 Q115.487 1032.51 115.487 1023.78 Q115.487 1015.03 118.543 1010.45 Q121.621 1005.84 127.431 1005.84 Z" fill="#000000" fill-rule="nonzero" fill-opacity="1" /><path clip-path="url(#clip790)" d="M147.593 1035.15 L152.478 1035.15 L152.478 1041.03 L147.593 1041.03 L147.593 1035.15 Z" fill="#000000" fill-rule="nonzero" fill-opacity="1" /><path clip-path="url(#clip790)" d="M163.473 1037.09 L171.112 1037.09 L171.112 1010.73 L162.802 1012.39 L162.802 1008.14 L171.065 1006.47 L175.741 1006.47 L175.741 1037.09 L183.38 1037.09 L183.38 1041.03 L163.473 1041.03 L163.473 1037.09 Z" fill="#000000" fill-rule="nonzero" fill-opacity="1" /><path clip-path="url(#clip790)" d="M127.802 678.442 Q124.191 678.442 122.362 682.007 Q120.556 685.548 120.556 692.678 Q120.556 699.784 122.362 703.349 Q124.191 706.891 127.802 706.891 Q131.436 706.891 133.242 703.349 Q135.07 699.784 135.07 692.678 Q135.07 685.548 133.242 682.007 Q131.436 678.442 127.802 678.442 M127.802 674.738 Q133.612 674.738 136.667 679.345 Q139.746 683.928 139.746 692.678 Q139.746 701.405 136.667 706.011 Q133.612 710.595 127.802 710.595 Q121.992 710.595 118.913 706.011 Q115.857 701.405 115.857 692.678 Q115.857 683.928 118.913 679.345 Q121.992 674.738 127.802 674.738 Z" fill="#000000" fill-rule="nonzero" fill-opacity="1" /><path clip-path="url(#clip790)" d="M147.964 704.044 L152.848 704.044 L152.848 709.923 L147.964 709.923 L147.964 704.044 Z" fill="#000000" fill-rule="nonzero" fill-opacity="1" /><path clip-path="url(#clip790)" d="M167.061 705.988 L183.38 705.988 L183.38 709.923 L161.436 709.923 L161.436 705.988 Q164.098 703.233 168.681 698.604 Q173.288 693.951 174.468 692.608 Q176.714 690.085 177.593 688.349 Q178.496 686.59 178.496 684.9 Q178.496 682.146 176.551 680.409 Q174.63 678.673 171.528 678.673 Q169.329 678.673 166.876 679.437 Q164.445 680.201 161.667 681.752 L161.667 677.03 Q164.491 675.896 166.945 675.317 Q169.399 674.738 171.436 674.738 Q176.806 674.738 180.001 677.423 Q183.195 680.109 183.195 684.599 Q183.195 686.729 182.385 688.65 Q181.598 690.548 179.491 693.141 Q178.913 693.812 175.811 697.03 Q172.709 700.224 167.061 705.988 Z" fill="#000000" fill-rule="nonzero" fill-opacity="1" /><path clip-path="url(#clip790)" d="M126.853 347.336 Q123.242 347.336 121.413 350.901 Q119.607 354.443 119.607 361.572 Q119.607 368.679 121.413 372.243 Q123.242 375.785 126.853 375.785 Q130.487 375.785 132.292 372.243 Q134.121 368.679 134.121 361.572 Q134.121 354.443 132.292 350.901 Q130.487 347.336 126.853 347.336 M126.853 343.633 Q132.663 343.633 135.718 348.239 Q138.797 352.822 138.797 361.572 Q138.797 370.299 135.718 374.906 Q132.663 379.489 126.853 379.489 Q121.043 379.489 117.964 374.906 Q114.908 370.299 114.908 361.572 Q114.908 352.822 117.964 348.239 Q121.043 343.633 126.853 343.633 Z" fill="#000000" fill-rule="nonzero" fill-opacity="1" /><path clip-path="url(#clip790)" d="M147.015 372.938 L151.899 372.938 L151.899 378.818 L147.015 378.818 L147.015 372.938 Z" fill="#000000" fill-rule="nonzero" fill-opacity="1" /><path clip-path="url(#clip790)" d="M176.251 360.183 Q179.607 360.901 181.482 363.169 Q183.38 365.438 183.38 368.771 Q183.38 373.887 179.862 376.688 Q176.343 379.489 169.862 379.489 Q167.686 379.489 165.371 379.049 Q163.079 378.632 160.626 377.776 L160.626 373.262 Q162.57 374.396 164.885 374.975 Q167.2 375.554 169.723 375.554 Q174.121 375.554 176.413 373.818 Q178.727 372.081 178.727 368.771 Q178.727 365.716 176.575 364.003 Q174.445 362.267 170.626 362.267 L166.598 362.267 L166.598 358.424 L170.811 358.424 Q174.26 358.424 176.089 357.058 Q177.917 355.669 177.917 353.077 Q177.917 350.415 176.019 349.003 Q174.144 347.568 170.626 347.568 Q168.704 347.568 166.505 347.984 Q164.306 348.401 161.667 349.281 L161.667 345.114 Q164.329 344.373 166.644 344.003 Q168.982 343.633 171.042 343.633 Q176.366 343.633 179.468 346.063 Q182.57 348.47 182.57 352.591 Q182.57 355.461 180.926 357.452 Q179.283 359.419 176.251 360.183 Z" fill="#000000" fill-rule="nonzero" fill-opacity="1" /><path clip-path="url(#clip790)" d="M20.1444 898.608 L26.9239 898.608 Q23.9002 901.855 22.4043 905.547 Q20.9083 909.207 20.9083 913.345 Q20.9083 921.493 25.9054 925.822 Q30.8707 930.15 40.2919 930.15 Q49.6813 930.15 54.6784 925.822 Q59.6436 921.493 59.6436 913.345 Q59.6436 909.207 58.1477 905.547 Q56.6518 901.855 53.6281 898.608 L60.3439 898.608 Q62.6355 901.982 63.7814 905.77 Q64.9272 909.526 64.9272 913.727 Q64.9272 924.517 58.3387 930.723 Q51.7183 936.93 40.2919 936.93 Q28.8336 936.93 22.2451 930.723 Q15.6248 924.517 15.6248 913.727 Q15.6248 909.462 16.7706 905.706 Q17.8846 901.919 20.1444 898.608 Z" fill="#000000" fill-rule="nonzero" fill-opacity="1" /><path clip-path="url(#clip790)" d="M32.4621 875.119 Q32.4621 879.83 36.1542 882.567 Q39.8145 885.304 46.212 885.304 Q52.6095 885.304 56.3017 882.599 Q59.9619 879.861 59.9619 875.119 Q59.9619 870.44 56.2698 867.703 Q52.5777 864.966 46.212 864.966 Q39.8781 864.966 36.186 867.703 Q32.4621 870.44 32.4621 875.119 M27.4968 875.119 Q27.4968 867.48 32.4621 863.12 Q37.4273 858.759 46.212 858.759 Q54.9649 858.759 59.9619 863.12 Q64.9272 867.48 64.9272 875.119 Q64.9272 882.79 59.9619 887.15 Q54.9649 891.479 46.212 891.479 Q37.4273 891.479 32.4621 887.15 Q27.4968 882.79 27.4968 875.119 Z" fill="#000000" fill-rule="nonzero" fill-opacity="1" /><path clip-path="url(#clip790)" d="M42.4881 819.419 L64.0042 819.419 L64.0042 825.275 L42.679 825.275 Q37.6183 825.275 35.1038 827.249 Q32.5894 829.222 32.5894 833.169 Q32.5894 837.911 35.6131 840.649 Q38.6368 843.386 43.8567 843.386 L64.0042 843.386 L64.0042 849.274 L28.3562 849.274 L28.3562 843.386 L33.8944 843.386 Q30.6797 841.285 29.0883 838.452 Q27.4968 835.588 27.4968 831.864 Q27.4968 825.721 31.3163 822.57 Q35.1038 819.419 42.4881 819.419 Z" fill="#000000" fill-rule="nonzero" fill-opacity="1" /><path clip-path="url(#clip790)" d="M18.2347 801.945 L28.3562 801.945 L28.3562 789.882 L32.9077 789.882 L32.9077 801.945 L52.2594 801.945 Q56.6199 801.945 57.8613 800.767 Q59.1026 799.558 59.1026 795.898 L59.1026 789.882 L64.0042 789.882 L64.0042 795.898 Q64.0042 802.677 61.4897 805.255 Q58.9434 807.833 52.2594 807.833 L32.9077 807.833 L32.9077 812.13 L28.3562 812.13 L28.3562 807.833 L18.2347 807.833 L18.2347 801.945 Z" fill="#000000" fill-rule="nonzero" fill-opacity="1" /><path clip-path="url(#clip790)" d="M33.8307 761.523 Q33.2578 762.51 33.0032 763.687 Q32.7167 764.833 32.7167 766.234 Q32.7167 771.199 35.9632 773.872 Q39.1779 776.514 45.2253 776.514 L64.0042 776.514 L64.0042 782.402 L28.3562 782.402 L28.3562 776.514 L33.8944 776.514 Q30.6479 774.668 29.0883 771.708 Q27.4968 768.748 27.4968 764.515 Q27.4968 763.91 27.5923 763.178 Q27.656 762.446 27.8151 761.555 L33.8307 761.523 Z" fill="#000000" fill-rule="nonzero" fill-opacity="1" /><path clip-path="url(#clip790)" d="M28.3562 755.38 L28.3562 749.524 L64.0042 749.524 L64.0042 755.38 L28.3562 755.38 M14.479 755.38 L14.479 749.524 L21.895 749.524 L21.895 755.38 L14.479 755.38 Z" fill="#000000" fill-rule="nonzero" fill-opacity="1" /><path clip-path="url(#clip790)" d="M46.212 711.679 Q39.7508 711.679 36.0905 714.353 Q32.3984 716.995 32.3984 721.642 Q32.3984 726.289 36.0905 728.962 Q39.7508 731.604 46.212 731.604 Q52.6732 731.604 56.3653 728.962 Q60.0256 726.289 60.0256 721.642 Q60.0256 716.995 56.3653 714.353 Q52.6732 711.679 46.212 711.679 M33.7671 731.604 Q30.5842 729.758 29.0564 726.957 Q27.4968 724.124 27.4968 720.209 Q27.4968 713.716 32.6531 709.674 Q37.8093 705.6 46.212 705.6 Q54.6147 705.6 59.771 709.674 Q64.9272 713.716 64.9272 720.209 Q64.9272 724.124 63.3994 726.957 Q61.8398 729.758 58.657 731.604 L64.0042 731.604 L64.0042 737.492 L14.479 737.492 L14.479 731.604 L33.7671 731.604 Z" fill="#000000" fill-rule="nonzero" fill-opacity="1" /><path clip-path="url(#clip790)" d="M49.9359 696.497 L28.3562 696.497 L28.3562 690.641 L49.7131 690.641 Q54.7739 690.641 57.3202 688.667 Q59.8346 686.694 59.8346 682.747 Q59.8346 678.005 56.8109 675.268 Q53.7872 672.498 48.5673 672.498 L28.3562 672.498 L28.3562 666.642 L64.0042 666.642 L64.0042 672.498 L58.5296 672.498 Q61.7762 674.631 63.3676 677.464 Q64.9272 680.265 64.9272 683.989 Q64.9272 690.132 61.1078 693.314 Q57.2883 696.497 49.9359 696.497 M27.4968 681.761 L27.4968 681.761 Z" fill="#000000" fill-rule="nonzero" fill-opacity="1" /><path clip-path="url(#clip790)" d="M18.2347 648.786 L28.3562 648.786 L28.3562 636.723 L32.9077 636.723 L32.9077 648.786 L52.2594 648.786 Q56.6199 648.786 57.8613 647.609 Q59.1026 646.399 59.1026 642.739 L59.1026 636.723 L64.0042 636.723 L64.0042 642.739 Q64.0042 649.518 61.4897 652.096 Q58.9434 654.675 52.2594 654.675 L32.9077 654.675 L32.9077 658.971 L28.3562 658.971 L28.3562 654.675 L18.2347 654.675 L18.2347 648.786 Z" fill="#000000" fill-rule="nonzero" fill-opacity="1" /><path clip-path="url(#clip790)" d="M28.3562 629.021 L28.3562 623.164 L64.0042 623.164 L64.0042 629.021 L28.3562 629.021 M14.479 629.021 L14.479 623.164 L21.895 623.164 L21.895 629.021 L14.479 629.021 Z" fill="#000000" fill-rule="nonzero" fill-opacity="1" /><path clip-path="url(#clip790)" d="M32.4621 597.097 Q32.4621 601.807 36.1542 604.545 Q39.8145 607.282 46.212 607.282 Q52.6095 607.282 56.3017 604.576 Q59.9619 601.839 59.9619 597.097 Q59.9619 592.418 56.2698 589.681 Q52.5777 586.943 46.212 586.943 Q39.8781 586.943 36.186 589.681 Q32.4621 592.418 32.4621 597.097 M27.4968 597.097 Q27.4968 589.458 32.4621 585.097 Q37.4273 580.737 46.212 580.737 Q54.9649 580.737 59.9619 585.097 Q64.9272 589.458 64.9272 597.097 Q64.9272 604.767 59.9619 609.128 Q54.9649 613.457 46.212 613.457 Q37.4273 613.457 32.4621 609.128 Q27.4968 604.767 27.4968 597.097 Z" fill="#000000" fill-rule="nonzero" fill-opacity="1" /><path clip-path="url(#clip790)" d="M42.4881 541.397 L64.0042 541.397 L64.0042 547.253 L42.679 547.253 Q37.6183 547.253 35.1038 549.227 Q32.5894 551.2 32.5894 555.147 Q32.5894 559.889 35.6131 562.626 Q38.6368 565.364 43.8567 565.364 L64.0042 565.364 L64.0042 571.252 L28.3562 571.252 L28.3562 565.364 L33.8944 565.364 Q30.6797 563.263 29.0883 560.43 Q27.4968 557.566 27.4968 553.842 Q27.4968 547.699 31.3163 544.548 Q35.1038 541.397 42.4881 541.397 Z" fill="#000000" fill-rule="nonzero" fill-opacity="1" /><path clip-path="url(#clip790)" d="M965.621 44.2197 Q968.254 45.1109 970.725 48.0275 Q973.237 50.9442 975.749 56.0483 L984.053 72.576 L975.262 72.576 L967.525 57.061 Q964.528 50.9847 961.692 48.9997 Q958.897 47.0148 954.036 47.0148 L945.124 47.0148 L945.124 72.576 L936.941 72.576 L936.941 12.096 L955.413 12.096 Q965.783 12.096 970.887 16.4305 Q975.992 20.7649 975.992 29.5149 Q975.992 35.2267 973.318 38.994 Q970.685 42.7613 965.621 44.2197 M945.124 18.8205 L945.124 40.2903 L955.413 40.2903 Q961.327 40.2903 964.325 37.5762 Q967.363 34.8216 967.363 29.5149 Q967.363 24.2082 964.325 21.5346 Q961.327 18.8205 955.413 18.8205 L945.124 18.8205 Z" fill="#000000" fill-rule="nonzero" fill-opacity="1" /><path clip-path="url(#clip790)" d="M994.261 27.2059 L1001.71 27.2059 L1001.71 72.576 L994.261 72.576 L994.261 27.2059 M994.261 9.54393 L1001.71 9.54393 L1001.71 18.9825 L994.261 18.9825 L994.261 9.54393 Z" fill="#000000" fill-rule="nonzero" fill-opacity="1" /><path clip-path="url(#clip790)" d="M1046.23 28.5427 L1046.23 35.5912 Q1043.07 33.9709 1039.67 33.1607 Q1036.27 32.3505 1032.62 32.3505 Q1027.07 32.3505 1024.28 34.0519 Q1021.52 35.7533 1021.52 39.156 Q1021.52 41.7486 1023.51 43.2475 Q1025.49 44.7058 1031.49 46.0426 L1034.04 46.6097 Q1041.98 48.3111 1045.3 51.4303 Q1048.66 54.509 1048.66 60.0587 Q1048.66 66.3781 1043.64 70.0644 Q1038.66 73.7508 1029.91 73.7508 Q1026.26 73.7508 1022.29 73.0216 Q1018.36 72.3329 1013.99 70.9151 L1013.99 63.2184 Q1018.12 65.3654 1022.13 66.4591 Q1026.14 67.5124 1030.07 67.5124 Q1035.34 67.5124 1038.17 65.73 Q1041.01 63.9071 1041.01 60.6258 Q1041.01 57.5877 1038.94 55.9673 Q1036.92 54.3469 1029.99 52.8481 L1027.4 52.2405 Q1020.47 50.7821 1017.39 47.7845 Q1014.31 44.7463 1014.31 39.4801 Q1014.31 33.0797 1018.85 29.5959 Q1023.39 26.1121 1031.73 26.1121 Q1035.86 26.1121 1039.51 26.7198 Q1043.16 27.3274 1046.23 28.5427 Z" fill="#000000" fill-rule="nonzero" fill-opacity="1" /><path clip-path="url(#clip790)" d="M1060.25 9.54393 L1067.74 9.54393 L1067.74 46.7717 L1089.98 27.2059 L1099.5 27.2059 L1075.44 48.4326 L1100.52 72.576 L1090.79 72.576 L1067.74 50.4176 L1067.74 72.576 L1060.25 72.576 L1060.25 9.54393 Z" fill="#000000" fill-rule="nonzero" fill-opacity="1" /><path clip-path="url(#clip790)" d="M1180.56 16.7545 L1180.56 25.383 Q1176.43 21.5346 1171.73 19.6307 Q1167.07 17.7268 1161.81 17.7268 Q1151.44 17.7268 1145.93 24.0867 Q1140.42 30.4061 1140.42 42.3968 Q1140.42 54.3469 1145.93 60.7069 Q1151.44 67.0263 1161.81 67.0263 Q1167.07 67.0263 1171.73 65.1223 Q1176.43 63.2184 1180.56 59.3701 L1180.56 67.9175 Q1176.27 70.8341 1171.45 72.2924 Q1166.67 73.7508 1161.32 73.7508 Q1147.59 73.7508 1139.69 65.3654 Q1131.79 56.9395 1131.79 42.3968 Q1131.79 27.8135 1139.69 19.4281 Q1147.59 11.0023 1161.32 11.0023 Q1166.75 11.0023 1171.53 12.4606 Q1176.35 13.8784 1180.56 16.7545 Z" fill="#000000" fill-rule="nonzero" fill-opacity="1" /><path clip-path="url(#clip790)" d="M1210.46 32.4315 Q1204.46 32.4315 1200.98 37.1306 Q1197.5 41.7891 1197.5 49.9314 Q1197.5 58.0738 1200.94 62.7728 Q1204.42 67.4314 1210.46 67.4314 Q1216.41 67.4314 1219.9 62.7323 Q1223.38 58.0333 1223.38 49.9314 Q1223.38 41.8701 1219.9 37.1711 Q1216.41 32.4315 1210.46 32.4315 M1210.46 26.1121 Q1220.18 26.1121 1225.73 32.4315 Q1231.28 38.7509 1231.28 49.9314 Q1231.28 61.0714 1225.73 67.4314 Q1220.18 73.7508 1210.46 73.7508 Q1200.7 73.7508 1195.15 67.4314 Q1189.64 61.0714 1189.64 49.9314 Q1189.64 38.7509 1195.15 32.4315 Q1200.7 26.1121 1210.46 26.1121 Z" fill="#000000" fill-rule="nonzero" fill-opacity="1" /><path clip-path="url(#clip790)" d="M1281.35 45.1919 L1281.35 72.576 L1273.9 72.576 L1273.9 45.4349 Q1273.9 38.994 1271.38 35.7938 Q1268.87 32.5936 1263.85 32.5936 Q1257.81 32.5936 1254.33 36.4419 Q1250.85 40.2903 1250.85 46.9338 L1250.85 72.576 L1243.35 72.576 L1243.35 27.2059 L1250.85 27.2059 L1250.85 34.2544 Q1253.52 30.163 1257.12 28.1376 Q1260.77 26.1121 1265.51 26.1121 Q1273.33 26.1121 1277.34 30.9732 Q1281.35 35.7938 1281.35 45.1919 Z" fill="#000000" fill-rule="nonzero" fill-opacity="1" /><path clip-path="url(#clip790)" d="M1303.59 14.324 L1303.59 27.2059 L1318.94 27.2059 L1318.94 32.9987 L1303.59 32.9987 L1303.59 57.6282 Q1303.59 63.1779 1305.09 64.7578 Q1306.63 66.3376 1311.28 66.3376 L1318.94 66.3376 L1318.94 72.576 L1311.28 72.576 Q1302.66 72.576 1299.38 69.3758 Q1296.09 66.1351 1296.09 57.6282 L1296.09 32.9987 L1290.63 32.9987 L1290.63 27.2059 L1296.09 27.2059 L1296.09 14.324 L1303.59 14.324 Z" fill="#000000" fill-rule="nonzero" fill-opacity="1" /><path clip-path="url(#clip790)" d="M1355.03 34.1734 Q1353.78 33.4443 1352.28 33.1202 Q1350.82 32.7556 1349.04 32.7556 Q1342.72 32.7556 1339.32 36.8875 Q1335.95 40.9789 1335.95 48.6757 L1335.95 72.576 L1328.46 72.576 L1328.46 27.2059 L1335.95 27.2059 L1335.95 34.2544 Q1338.3 30.1225 1342.07 28.1376 Q1345.84 26.1121 1351.23 26.1121 Q1352 26.1121 1352.93 26.2337 Q1353.86 26.3147 1354.99 26.5172 L1355.03 34.1734 Z" fill="#000000" fill-rule="nonzero" fill-opacity="1" /><path clip-path="url(#clip790)" d="M1362.85 27.2059 L1370.31 27.2059 L1370.31 72.576 L1362.85 72.576 L1362.85 27.2059 M1362.85 9.54393 L1370.31 9.54393 L1370.31 18.9825 L1362.85 18.9825 L1362.85 9.54393 Z" fill="#000000" fill-rule="nonzero" fill-opacity="1" /><path clip-path="url(#clip790)" d="M1418.47 49.9314 Q1418.47 41.7081 1415.07 37.0496 Q1411.71 32.3505 1405.79 32.3505 Q1399.88 32.3505 1396.48 37.0496 Q1393.11 41.7081 1393.11 49.9314 Q1393.11 58.1548 1396.48 62.8538 Q1399.88 67.5124 1405.79 67.5124 Q1411.71 67.5124 1415.07 62.8538 Q1418.47 58.1548 1418.47 49.9314 M1393.11 34.0924 Q1395.46 30.0415 1399.03 28.0971 Q1402.63 26.1121 1407.62 26.1121 Q1415.88 26.1121 1421.02 32.6746 Q1426.21 39.2371 1426.21 49.9314 Q1426.21 60.6258 1421.02 67.1883 Q1415.88 73.7508 1407.62 73.7508 Q1402.63 73.7508 1399.03 71.8063 Q1395.46 69.8214 1393.11 65.7705 L1393.11 72.576 L1385.62 72.576 L1385.62 9.54393 L1393.11 9.54393 L1393.11 34.0924 Z" fill="#000000" fill-rule="nonzero" fill-opacity="1" /><path clip-path="url(#clip790)" d="M1437.79 54.671 L1437.79 27.2059 L1445.25 27.2059 L1445.25 54.3874 Q1445.25 60.8284 1447.76 64.0691 Q1450.27 67.2693 1455.29 67.2693 Q1461.33 67.2693 1464.81 63.421 Q1468.34 59.5726 1468.34 52.9291 L1468.34 27.2059 L1475.79 27.2059 L1475.79 72.576 L1468.34 72.576 L1468.34 65.6084 Q1465.62 69.7404 1462.02 71.7658 Q1458.45 73.7508 1453.71 73.7508 Q1445.9 73.7508 1441.85 68.8897 Q1437.79 64.0286 1437.79 54.671 M1456.55 26.1121 L1456.55 26.1121 Z" fill="#000000" fill-rule="nonzero" fill-opacity="1" /><path clip-path="url(#clip790)" d="M1498.52 14.324 L1498.52 27.2059 L1513.87 27.2059 L1513.87 32.9987 L1498.52 32.9987 L1498.52 57.6282 Q1498.52 63.1779 1500.02 64.7578 Q1501.56 66.3376 1506.21 66.3376 L1513.87 66.3376 L1513.87 72.576 L1506.21 72.576 Q1497.59 72.576 1494.3 69.3758 Q1491.02 66.1351 1491.02 57.6282 L1491.02 32.9987 L1485.55 32.9987 L1485.55 27.2059 L1491.02 27.2059 L1491.02 14.324 L1498.52 14.324 Z" fill="#000000" fill-rule="nonzero" fill-opacity="1" /><path clip-path="url(#clip790)" d="M1523.67 27.2059 L1531.13 27.2059 L1531.13 72.576 L1523.67 72.576 L1523.67 27.2059 M1523.67 9.54393 L1531.13 9.54393 L1531.13 18.9825 L1523.67 18.9825 L1523.67 9.54393 Z" fill="#000000" fill-rule="nonzero" fill-opacity="1" /><path clip-path="url(#clip790)" d="M1564.3 32.4315 Q1558.31 32.4315 1554.83 37.1306 Q1551.34 41.7891 1551.34 49.9314 Q1551.34 58.0738 1554.78 62.7728 Q1558.27 67.4314 1564.3 67.4314 Q1570.26 67.4314 1573.74 62.7323 Q1577.23 58.0333 1577.23 49.9314 Q1577.23 41.8701 1573.74 37.1711 Q1570.26 32.4315 1564.3 32.4315 M1564.3 26.1121 Q1574.03 26.1121 1579.58 32.4315 Q1585.13 38.7509 1585.13 49.9314 Q1585.13 61.0714 1579.58 67.4314 Q1574.03 73.7508 1564.3 73.7508 Q1554.54 73.7508 1548.99 67.4314 Q1543.48 61.0714 1543.48 49.9314 Q1543.48 38.7509 1548.99 32.4315 Q1554.54 26.1121 1564.3 26.1121 Z" fill="#000000" fill-rule="nonzero" fill-opacity="1" /><path clip-path="url(#clip790)" d="M1635.2 45.1919 L1635.2 72.576 L1627.74 72.576 L1627.74 45.4349 Q1627.74 38.994 1625.23 35.7938 Q1622.72 32.5936 1617.7 32.5936 Q1611.66 32.5936 1608.18 36.4419 Q1604.69 40.2903 1604.69 46.9338 L1604.69 72.576 L1597.2 72.576 L1597.2 27.2059 L1604.69 27.2059 L1604.69 34.2544 Q1607.37 30.163 1610.97 28.1376 Q1614.62 26.1121 1619.36 26.1121 Q1627.17 26.1121 1631.18 30.9732 Q1635.2 35.7938 1635.2 45.1919 Z" fill="#000000" fill-rule="nonzero" fill-opacity="1" /><path clip-path="url(#clip792)" d="M336.72 1073.34 L336.72 1354.85 L598.609 1354.85 L598.609 1073.34 L336.72 1073.34 L336.72 1073.34  Z" fill="#009af9" fill-rule="evenodd" fill-opacity="1"/>
<polyline clip-path="url(#clip792)" style="stroke:#000000; stroke-linecap:round; stroke-linejoin:round; stroke-width:4; stroke-opacity:1; fill:none" points="336.72,1073.34 336.72,1354.85 598.609,1354.85 598.609,1073.34 336.72,1073.34 "/>
<path clip-path="url(#clip792)" d="M664.081 123.472 L664.081 1354.85 L925.97 1354.85 L925.97 123.472 L664.081 123.472 L664.081 123.472  Z" fill="#009af9" fill-rule="evenodd" fill-opacity="1"/>
<polyline clip-path="url(#clip792)" style="stroke:#000000; stroke-linecap:round; stroke-linejoin:round; stroke-width:4; stroke-opacity:1; fill:none" points="664.081,123.472 664.081,1354.85 925.97,1354.85 925.97,123.472 664.081,123.472 "/>
<path clip-path="url(#clip792)" d="M991.443 1066.19 L991.443 1354.85 L1253.33 1354.85 L1253.33 1066.19 L991.443 1066.19 L991.443 1066.19  Z" fill="#009af9" fill-rule="evenodd" fill-opacity="1"/>
<polyline clip-path="url(#clip792)" style="stroke:#000000; stroke-linecap:round; stroke-linejoin:round; stroke-width:4; stroke-opacity:1; fill:none" points="991.443,1066.19 991.443,1354.85 1253.33,1354.85 1253.33,1066.19 991.443,1066.19 "/>
<path clip-path="url(#clip792)" d="M1318.8 746.019 L1318.8 1354.85 L1580.69 1354.85 L1580.69 746.019 L1318.8 746.019 L1318.8 746.019  Z" fill="#009af9" fill-rule="evenodd" fill-opacity="1"/>
<polyline clip-path="url(#clip792)" style="stroke:#000000; stroke-linecap:round; stroke-linejoin:round; stroke-width:4; stroke-opacity:1; fill:none" points="1318.8,746.019 1318.8,1354.85 1580.69,1354.85 1580.69,746.019 1318.8,746.019 "/>
<path clip-path="url(#clip792)" d="M1646.17 1020.41 L1646.17 1354.85 L1908.05 1354.85 L1908.05 1020.41 L1646.17 1020.41 L1646.17 1020.41  Z" fill="#009af9" fill-rule="evenodd" fill-opacity="1"/>
<polyline clip-path="url(#clip792)" style="stroke:#000000; stroke-linecap:round; stroke-linejoin:round; stroke-width:4; stroke-opacity:1; fill:none" points="1646.17,1020.41 1646.17,1354.85 1908.05,1354.85 1908.05,1020.41 1646.17,1020.41 "/>
<path clip-path="url(#clip792)" d="M1973.53 788.64 L1973.53 1354.85 L2235.42 1354.85 L2235.42 788.64 L1973.53 788.64 L1973.53 788.64  Z" fill="#009af9" fill-rule="evenodd" fill-opacity="1"/>
<polyline clip-path="url(#clip792)" style="stroke:#000000; stroke-linecap:round; stroke-linejoin:round; stroke-width:4; stroke-opacity:1; fill:none" points="1973.53,788.64 1973.53,1354.85 2235.42,1354.85 2235.42,788.64 1973.53,788.64 "/>
<circle clip-path="url(#clip792)" style="fill:#009af9; stroke:none; fill-opacity:0" cx="467.664" cy="1073.34" r="2"/>
<circle clip-path="url(#clip792)" style="fill:#009af9; stroke:none; fill-opacity:0" cx="795.026" cy="123.472" r="2"/>
<circle clip-path="url(#clip792)" style="fill:#009af9; stroke:none; fill-opacity:0" cx="1122.39" cy="1066.19" r="2"/>
<circle clip-path="url(#clip792)" style="fill:#009af9; stroke:none; fill-opacity:0" cx="1449.75" cy="746.019" r="2"/>
<circle clip-path="url(#clip792)" style="fill:#009af9; stroke:none; fill-opacity:0" cx="1777.11" cy="1020.41" r="2"/>
<circle clip-path="url(#clip792)" style="fill:#009af9; stroke:none; fill-opacity:0" cx="2104.47" cy="788.64" r="2"/>
</svg>
